# https://github.com/mikedh/trimesh
mtllib material.mtl

o body_geo-mesh
usemtl material_0
v 0.03449261 -0.01531249 -0.02189756
v 0.03651343 -0.01557302 -0.01679960
v 0.03125531 -0.01531249 -0.02056742
v 0.04160071 -0.01347625 -0.01653659
v 0.04160071 -0.01532840 -0.01653659
v 0.04316802 -0.01376232 -0.00932814
v 0.04316802 -0.01532840 -0.00932814
v 0.03807227 -0.01557302 -0.00980388
v 0.03320432 -0.01582398 0.00123518
v 0.02444908 -0.01522991 0.00407458
v 0.02427611 -0.01522991 0.00209668
v 0.03574551 -0.01376232 0.00282922
v 0.03574551 -0.01532840 0.00282922
v 0.02444908 -0.01347625 0.00407458
v 0.01054309 -0.01531249 0.00240110
v 0.00977214 -0.01628064 0.00036389
v -0.02400695 -0.01561305 -0.01661773
v -0.02432812 -0.01493107 -0.01994465
v -0.02346325 -0.01561305 -0.01989993
v -0.02490007 -0.01309483 -0.01671460
v -0.02490007 -0.01493107 -0.01671460
v -0.02432812 -0.01309483 -0.01994465
v -0.02266162 -0.01493107 -0.02192479
v -0.02223012 -0.01543627 -0.02140125
v 0.00319395 -0.01570841 -0.02194479
v 0.01943715 -0.01493107 -0.02342730
v 0.01989066 -0.01599448 -0.02196759
v 0.00302517 -0.01309483 -0.02309447
v 0.00302517 -0.01493107 -0.02309447
v 0.03449261 -0.01319019 -0.02189756
v 0.03449261 -0.01531249 -0.02189756
v 0.03125531 -0.01531249 -0.02056742
v 0.01989066 -0.01599448 -0.02196759
v 0.00370029 -0.01622190 -0.01849576
v 0.00319395 -0.01570841 -0.02194479
v 0.02125117 -0.01736617 -0.01758852
v 0.02278468 -0.01851044 -0.01123140
v 0.00497766 -0.01650787 -0.01300946
v 0.04160071 -0.01532840 -0.00225561
v 0.03713980 -0.01557302 -0.00265116
v 0.04160071 -0.01385768 -0.00225561
v 0.00745927 -0.01660332 -0.00574792
v 0.02375717 -0.01889186 -0.00383760
v 0.02427611 -0.01522991 0.00209668
v 0.00977214 -0.01628064 0.00036389
v -0.02223012 -0.01543627 -0.00918016
v -0.02432812 -0.01493107 -0.01226130
v -0.02346325 -0.01561305 -0.01213008
v -0.02266162 -0.01493107 -0.00830587
v -0.02432812 -0.01309483 -0.01226130
v -0.02409996 -0.00940503 -0.00781600
v -0.02327159 -0.01342843 -0.00749256
v -0.02409996 -0.00534365 -0.00781600
v -0.02432812 -0.00940503 -0.01226130
v -0.02432812 -0.00534365 -0.01226130
v -0.02490007 -0.00940503 -0.01671460
v -0.02266162 -0.00940503 -0.02192479
v -0.02266162 -0.01309483 -0.02192479
v -0.02432812 -0.00940503 -0.01994465
v -0.02432812 -0.00534365 -0.01994465
v -0.02266162 -0.00534365 -0.02192479
v 0.01943715 -0.01309483 -0.02342730
v 0.03449261 -0.00940503 -0.02189756
v 0.01943715 -0.00940503 -0.02342730
v 0.00302517 -0.00940503 -0.02309447
v 0.01943715 -0.00534365 -0.02342730
v 0.03449261 -0.00534365 -0.02189756
v 0.04316802 -0.00940503 -0.00932814
v 0.03449261 -0.01319019 -0.02189756
v 0.04160071 -0.00940503 -0.01653659
v 0.03449261 -0.00940503 -0.02189756
v 0.04160071 -0.00534365 -0.01653659
v 0.04316802 -0.00534365 -0.00932814
v 0.04160071 -0.00940503 -0.00225561
v 0.03574551 -0.00940503 0.00282922
v 0.04160071 -0.00534365 -0.00225561
v 0.03574551 -0.00534365 0.00282922
v 0.01291020 -0.00940503 0.00365833
v 0.00985921 -0.01348953 0.00286254
v 0.02444908 -0.00940503 0.00407458
v 0.02444908 -0.00534365 0.00407458
v 0.01291020 -0.00534365 0.00365833
v -0.01322692 -0.01343182 0.02999519
v -0.02144203 -0.00987899 0.03156682
v -0.02238863 -0.01425727 0.02634926
v -0.00547552 -0.01309455 0.02961829
v -0.01250362 -0.00966201 0.03349653
v -0.00439075 -0.00946923 0.03268210
v -0.01178032 -0.00540789 0.03699787
v -0.02124511 -0.00546216 0.03502938
v -0.00314067 -0.01493107 -0.00127099
v -0.00379225 -0.01561305 -0.00303202
v -0.00408670 -0.01424898 -0.00090312
v -0.01412909 -0.01493107 -0.00493142
v -0.01443616 -0.01561305 -0.00635319
v -0.00767690 -0.01584048 -0.01453704
v -0.01535770 -0.01584048 -0.01061841
v -0.01612884 -0.01584048 -0.01568564
v -0.00574719 -0.01584048 -0.00831528
v -0.00379225 -0.01561305 -0.00303202
v -0.01443616 -0.01561305 -0.00635319
v -0.01553241 -0.01561305 -0.02191923
v -0.00825318 -0.01584048 -0.01911369
v -0.01598425 -0.01584048 -0.01951329
v -0.00817768 -0.01561305 -0.02192926
v -0.01538218 -0.01493107 -0.02272119
v -0.00817768 -0.01561305 -0.02192926
v -0.01553241 -0.01561305 -0.02191923
v -0.01538218 -0.01309483 -0.02272119
v -0.00815264 -0.01493107 -0.02286780
v -0.00815264 -0.01309483 -0.02286780
v -0.00815264 -0.00534365 -0.02286780
v 0.00302517 -0.00534365 -0.02309447
v -0.00815264 -0.00940503 -0.02286780
v -0.01538218 -0.00940503 -0.02272119
v -0.01538218 -0.00534365 -0.02272119
v -0.01498551 -0.01424898 -0.00435439
v -0.00692497 -0.01402165 0.00020067
v -0.01755511 -0.01402165 -0.00262367
v 0.00301444 -0.01286750 0.00286819
v 0.00035672 -0.01335633 0.00456200
v -0.00976324 -0.01413621 0.00130446
v -0.02142209 -0.01418112 0.00012216
v 0.00632771 -0.00940503 0.00375755
v 0.00632771 -0.00534365 0.00375755
v 0.00255988 -0.00940503 0.00549391
v -0.02570132 -0.00534365 -0.00461005
v -0.02501115 -0.01286750 -0.00445322
v -0.02570132 -0.00940503 -0.00461005
v -0.02732832 -0.01301632 -0.00103679
v -0.02797857 -0.00949351 -0.00120021
v -0.02797857 -0.00536583 -0.00120021
v -0.01804763 -0.02074533 0.00301165
v -0.01208868 -0.02101718 0.00765650
v -0.02075374 -0.02108910 0.00590696
v -0.00459727 -0.02057401 0.00565224
v -0.01105417 -0.02070372 0.00316847
v -0.00523379 -0.02075191 0.01573116
v -0.01312319 -0.02120996 0.01404280
v -0.02101241 -0.02142647 0.01235483
v -0.00053509 -0.01298206 0.00998910
v 0.00255988 -0.00534365 0.00549391
v -0.00053509 -0.00940503 0.00998910
v -0.00053509 -0.00534365 0.00998910
v -0.00236295 -0.00940503 0.01687731
v -0.00254369 -0.01298206 0.01643978
v -0.02977574 -0.00543218 0.00385639
v -0.02977574 -0.00975915 0.00385639
v -0.02900913 -0.01346289 0.00403976
v -0.03056684 -0.01002471 0.01069622
v -0.03055101 -0.00549860 0.01109496
v -0.02109863 -0.02153886 0.01956686
v -0.01346791 -0.02127416 0.02123412
v -0.00781546 -0.02077394 0.02668814
v -0.01346791 -0.02115329 0.02692949
v -0.01912036 -0.02134495 0.02421774
v -0.00305256 -0.01298206 0.02404114
v -0.00218203 -0.00534365 0.01731484
v -0.00232925 -0.00940503 0.02579200
v -0.00160594 -0.00534365 0.02754286
v -0.02982506 -0.01011319 0.01945615
v -0.02976069 -0.00552071 0.02105038
v -0.02910590 -0.01405827 0.01807167
v -0.02790741 -0.01299580 0.02359910
v -0.02810960 -0.01008891 0.02700781
v -0.02801283 -0.00551464 0.02983705
v -0.03054536 0.00000254 0.01122788
v -0.02973922 0.00000254 0.02158204
v -0.02798045 0.00000254 0.03078025
v -0.02977574 0.00000254 0.00385639
v -0.02409996 0.00000254 -0.00781600
v -0.02570132 0.00000254 -0.00461005
v -0.02797857 0.00000254 -0.00120021
v -0.02490007 0.00000254 -0.01671460
v -0.02490007 -0.00534365 -0.01671460
v -0.02432812 0.00000254 -0.01226130
v -0.02266162 0.00000254 -0.02192479
v -0.02432812 0.00000254 -0.01994465
v 0.00302517 0.00000254 -0.02309447
v -0.00815264 0.00000254 -0.02286780
v -0.01538218 0.00000254 -0.02272119
v 0.03449261 0.00000254 -0.02189756
v 0.01943715 0.00000254 -0.02342730
v 0.04316802 0.00000254 -0.00932814
v 0.03449261 -0.00534365 -0.02189756
v 0.04160071 0.00000254 -0.01653659
v 0.03574551 0.00000254 0.00282922
v 0.04160071 0.00000254 -0.00225561
v 0.01291020 0.00000254 0.00365833
v 0.02444908 0.00000254 0.00407458
v 0.00255988 0.00000254 0.00549391
v 0.00632771 0.00000254 0.00375755
v -0.00053509 0.00000254 0.00998910
v -0.00212178 0.00000254 0.01746093
v -0.00330578 -0.00535976 0.03574591
v -0.00136496 0.00000254 0.02812648
v -0.00294412 0.00000254 0.03676706
v -0.02117921 0.00000254 0.03618344
v -0.01153915 0.00000254 0.03816511
v -0.02591519 -0.00549644 0.03356958
v -0.02589336 0.00000254 0.03468448
v -0.02622170 -0.01393684 0.02498058
v -0.02597959 -0.01001614 0.03022450
v -0.02711519 -0.01509100 0.01097861
v -0.02971474 -0.01390945 0.01050118
v -0.02451037 -0.01507819 0.01158897
v -0.02677670 -0.01524377 0.01817031
v -0.02442602 -0.01521262 0.01880063
v -0.02670891 -0.01463276 0.00459005
v -0.02537714 -0.01417443 -0.00054655
v -0.02440908 -0.01467446 0.00514035
v -0.02293949 -0.01402165 -0.00398313
v -0.02069651 -0.01424898 -0.00592281
v -0.01994910 -0.01493107 -0.00656950
v -0.02017879 -0.01561305 -0.00786118
v -0.02132757 -0.01584048 -0.01632696
v -0.02346325 -0.01561305 -0.01213008
v -0.02400695 -0.01561305 -0.01661773
v -0.02086820 -0.01584048 -0.01173623
v -0.02017879 -0.01561305 -0.00786118
v -0.02223012 -0.01543627 -0.00918016
v -0.02223012 -0.01543627 -0.02140125
v -0.02086820 -0.01584048 -0.01976575
v -0.02346325 -0.01561305 -0.01989993
v -0.02017879 -0.01561305 -0.02191288
v -0.02017879 -0.01561305 -0.02191288
v -0.01994910 -0.01493107 -0.02262859
v -0.01994910 -0.01309483 -0.02262859
v -0.01994910 -0.00534365 -0.02262859
v -0.01994910 -0.00940503 -0.02262859
v -0.01994910 0.00000254 -0.02262859
v -0.02040921 -0.01460857 0.00136414
v -0.00169932 -0.01448008 0.00497260
v -0.01070947 -0.01448008 0.00167233
v -0.01070947 -0.01543081 0.00167233
v -0.02040921 -0.01555930 0.00136414
v -0.00260393 -0.01448008 0.01629369
v -0.00053509 -0.01448008 0.00998910
v -0.00053509 -0.01543081 0.00998910
v -0.00169932 -0.01543081 0.00497260
v -0.02364208 -0.01499404 0.00532372
v -0.02364208 -0.01537951 0.01179229
v -0.02364208 -0.01594477 0.00532372
v -0.02364208 -0.01633034 0.01179229
v -0.00329373 -0.01448008 0.02345752
v -0.00583718 -0.01460857 0.02859714
v -0.00329373 -0.01543081 0.02345752
v -0.00260393 -0.01543081 0.01629369
v -0.01346791 -0.01499404 0.02882795
v -0.02109863 -0.01537951 0.02526185
v -0.01346791 -0.01594477 0.02882795
v -0.00583718 -0.01555930 0.02859714
v -0.02364208 -0.01550800 0.01901072
v -0.02364208 -0.01645874 0.01901072
v -0.02109863 -0.01633034 0.02526185
v -0.01346791 -0.01982151 0.02882795
v -0.00583718 -0.02040532 0.02859714
v -0.00583718 -0.01943595 0.02859714
v -0.02109863 -0.02020689 0.02526185
v -0.01346791 -0.02079089 0.02882795
v -0.00329373 -0.01930755 0.02345752
v -0.00260393 -0.02027693 0.01629369
v -0.00260393 -0.01930755 0.01629369
v -0.00329373 -0.02027693 0.02345752
v -0.00583718 -0.02076792 0.02290177
v -0.00053509 -0.01930755 0.00998910
v -0.00169932 -0.02027693 0.00497260
v -0.00169932 -0.01930755 0.00497260
v -0.00053509 -0.02027693 0.00998910
v -0.00342344 -0.02070372 0.00940623
v -0.02040921 -0.01943595 0.00136414
v -0.01070947 -0.02027693 0.00167233
v -0.02040921 -0.02040532 0.00136414
v -0.01070947 -0.01930755 0.00167233
v -0.02364208 -0.02020689 0.01179229
v -0.02364208 -0.02079089 0.00532372
v -0.02364208 -0.02117626 0.01179229
v -0.02364208 -0.01982151 0.00532372
v -0.02364208 -0.02033548 0.01901072
v -0.02109863 -0.02117626 0.02526185
v -0.02364208 -0.02130485 0.01901072
v -0.00583718 -0.01749457 0.02859714
v -0.01346791 -0.01787994 0.02882795
v -0.02109863 -0.01826551 0.02526185
v -0.00260393 -0.01736598 0.01629369
v -0.00329373 -0.01736598 0.02345752
v -0.00169932 -0.01736598 0.00497260
v -0.00053509 -0.01736598 0.00998910
v -0.01070947 -0.01736598 0.00167233
v -0.02040921 -0.01749457 0.00136414
v -0.02364208 -0.01787994 0.00532372
v -0.02364208 -0.01826551 0.01179229
v -0.02364208 -0.01839390 0.01901072
v 0.03651343 0.01533346 -0.01679960
v 0.03449261 0.01531755 -0.02189756
v 0.03125522 0.01531755 -0.02056742
v 0.03807227 0.01557808 -0.00980388
v 0.04160071 0.01533346 -0.01653659
v 0.04316802 0.01376738 -0.00932814
v 0.04160071 0.01348131 -0.01653659
v 0.03449261 0.01319525 -0.02189756
v 0.03320432 0.01582904 0.00123518
v 0.02444908 0.01523497 0.00407458
v 0.03574551 0.01533346 0.00282922
v 0.02427611 0.01523497 0.00209668
v 0.01054309 0.01531755 0.00240110
v 0.02444908 0.01348131 0.00407458
v 0.03574551 0.01376738 0.00282922
v -0.02400695 0.01561811 -0.01661773
v -0.02432812 0.01493613 -0.01994465
v -0.02490007 0.01493613 -0.01671460
v -0.02346325 0.01561811 -0.01989993
v -0.02266162 0.01493613 -0.02192479
v -0.02432812 0.01309989 -0.01994465
v -0.02490007 0.01309989 -0.01671460
v 0.00319395 0.01571347 -0.02194479
v 0.01943715 0.01493613 -0.02342730
v 0.00302517 0.01493613 -0.02309447
v 0.03125522 0.01531755 -0.02056742
v 0.01989066 0.01599954 -0.02196759
v 0.03449261 0.01319525 -0.02189756
v 0.01943715 0.01309989 -0.02342730
v 0.00302517 0.01309989 -0.02309447
v 0.00370029 0.01622696 -0.01849576
v 0.01989066 0.01599954 -0.02196759
v 0.00319395 0.01571347 -0.02194479
v 0.00497766 0.01651293 -0.01300946
v 0.02125117 0.01737123 -0.01758852
v 0.02278468 0.01851550 -0.01123140
v 0.04160071 0.01533346 -0.00225561
v 0.04316802 0.01533346 -0.00932814
v 0.03713980 0.01557808 -0.00265116
v 0.04160071 0.01386274 -0.00225561
v 0.00745927 0.01660838 -0.00574792
v 0.00977214 0.01628570 0.00036389
v 0.02375717 0.01889692 -0.00383760
v -0.02223012 0.01544133 -0.00918016
v -0.02432812 0.01493613 -0.01226130
v -0.02266162 0.01493613 -0.00830587
v -0.02346325 0.01561811 -0.01213008
v -0.02432812 0.01309989 -0.01226130
v -0.02327159 0.01343349 -0.00749256
v -0.02409996 0.00941010 -0.00781600
v -0.02432812 0.00941010 -0.01226130
v -0.02490007 0.00941010 -0.01671460
v -0.02432812 0.00534872 -0.01226130
v -0.02409996 0.00534872 -0.00781600
v -0.02266162 0.00941010 -0.02192479
v -0.02266162 0.01309989 -0.02192479
v -0.02266162 0.00534872 -0.02192479
v -0.02432812 0.00941010 -0.01994465
v -0.02432812 0.00534872 -0.01994465
v 0.03449261 0.00941010 -0.02189756
v 0.03449261 0.00534872 -0.02189756
v 0.01943715 0.00941010 -0.02342730
v 0.01943715 0.00534872 -0.02342730
v 0.00302517 0.00941010 -0.02309447
v 0.04316802 0.00941010 -0.00932814
v 0.04316802 0.00534872 -0.00932814
v 0.04160071 0.00941010 -0.01653659
v 0.04160071 0.00534872 -0.01653659
v 0.03449261 0.00941010 -0.02189756
v 0.04160071 0.00941010 -0.00225561
v 0.03574551 0.00534872 0.00282922
v 0.03574551 0.00941010 0.00282922
v 0.04160071 0.00534872 -0.00225561
v 0.01291020 0.00941010 0.00365833
v 0.00985921 0.01349459 0.00286254
v 0.01291020 0.00534872 0.00365833
v 0.02444908 0.00941010 0.00407458
v 0.02444908 0.00534872 0.00407458
v -0.02144203 0.00988406 0.03156682
v -0.01322692 0.01343688 0.02999519
v -0.02238863 0.01426233 0.02634926
v -0.02124511 0.00546724 0.03502938
v -0.01250362 0.00966709 0.03349653
v -0.01178032 0.00541297 0.03699787
v -0.00439075 0.00947431 0.03268210
v -0.00547552 0.01309961 0.02961829
v 0.00977214 0.01628570 0.00036389
v -0.00314067 0.01493613 -0.00127099
v -0.00379225 0.01561811 -0.00303202
v -0.01412909 0.01493613 -0.00493142
v -0.00408670 0.01425404 -0.00090312
v -0.01535770 0.01584554 -0.01061841
v -0.00767690 0.01584554 -0.01453704
v -0.01612884 0.01584554 -0.01568564
v -0.01443616 0.01561811 -0.00635319
v -0.00574719 0.01584554 -0.00831528
v -0.00379225 0.01561811 -0.00303202
v -0.01553241 0.01561811 -0.02191923
v -0.00825318 0.01584554 -0.01911369
v -0.00817768 0.01561811 -0.02192926
v -0.01598425 0.01584554 -0.01951329
v -0.00817768 0.01561811 -0.02192926
v -0.01538218 0.01493613 -0.02272119
v -0.01553241 0.01561811 -0.02191923
v -0.00815264 0.01493613 -0.02286780
v -0.00815264 0.01309989 -0.02286780
v -0.01538218 0.01309989 -0.02272119
v -0.00815264 0.00534872 -0.02286780
v 0.00302517 0.00534872 -0.02309447
v -0.01538218 0.00534872 -0.02272119
v -0.00815264 0.00941010 -0.02286780
v -0.01538218 0.00941010 -0.02272119
v -0.01498551 0.01425404 -0.00435439
v -0.00692497 0.01402671 0.00020067
v -0.01755511 0.01402671 -0.00262367
v -0.00976324 0.01414127 0.00130446
v 0.00035672 0.01336139 0.00456200
v 0.00301444 0.01287256 0.00286819
v 0.00632771 0.00941010 0.00375755
v 0.00255988 0.00941010 0.00549391
v 0.00632771 0.00534872 0.00375755
v -0.02570132 0.00534872 -0.00461005
v -0.02797857 0.00537090 -0.00120021
v -0.02570132 0.00941010 -0.00461005
v -0.02732832 0.01302138 -0.00103679
v -0.02501115 0.01287256 -0.00445322
v -0.01804763 0.02075039 0.00301165
v -0.01208868 0.02102224 0.00765650
v -0.01105417 0.02070878 0.00316847
v -0.02101241 0.02143153 0.01235483
v -0.02075374 0.02109416 0.00590696
v -0.00523379 0.02075697 0.01573116
v -0.00342344 0.02070878 0.00940623
v -0.00459727 0.02057907 0.00565224
v -0.00053509 0.01298712 0.00998910
v -0.00254369 0.01298712 0.01643978
v -0.00053509 0.00941010 0.00998910
v -0.00236295 0.00941010 0.01687731
v -0.00053509 0.00534872 0.00998910
v 0.00255988 0.00534872 0.00549391
v -0.02977574 0.00543726 0.00385639
v -0.02797857 0.00949859 -0.00120021
v -0.03056684 0.01002977 0.01069622
v -0.02977574 0.00976423 0.00385639
v -0.02900913 0.01346795 0.00403976
v -0.02109863 0.02154392 0.01956686
v -0.01312319 0.02121502 0.01404280
v -0.01912036 0.02135001 0.02421774
v -0.01346791 0.02127922 0.02123412
v -0.00781546 0.02077900 0.02668814
v -0.00583718 0.02077298 0.02290177
v -0.00305256 0.01298712 0.02404114
v -0.00232925 0.00941010 0.02579200
v -0.00160594 0.00534872 0.02754286
v -0.00218203 0.00534872 0.01731484
v -0.03055101 0.00550367 0.01109496
v -0.02982506 0.01011825 0.01945615
v -0.02976069 0.00552579 0.02105038
v -0.02810960 0.01009397 0.02700781
v -0.02790741 0.01300096 0.02359910
v -0.02910590 0.01406333 0.01807167
v -0.02971474 0.01391451 0.01050118
v -0.02973922 0.00000254 0.02158204
v -0.02801283 0.00551972 0.02983705
v -0.02490007 0.00534872 -0.01671460
v 0.03449261 0.00534872 -0.02189756
v -0.00330578 0.00536483 0.03574591
v -0.00136496 0.00000254 0.02812648
v -0.00212178 0.00000254 0.01746093
v -0.02117921 0.00000254 0.03618344
v -0.01153915 0.00000254 0.03816511
v -0.02591519 0.00550151 0.03356958
v -0.02798045 0.00000254 0.03078025
v -0.02589336 0.00000254 0.03468448
v -0.02622170 0.01394190 0.02498058
v -0.02597959 0.01002120 0.03022450
v -0.02711519 0.01509606 0.01097861
v -0.02677670 0.01524883 0.01817031
v -0.02442602 0.01521768 0.01880063
v -0.02451037 0.01508325 0.01158897
v -0.02670891 0.01463782 0.00459005
v -0.02537714 0.01417949 -0.00054655
v -0.02440908 0.01467952 0.00514035
v -0.02142209 0.01418618 0.00012216
v -0.02293949 0.01402671 -0.00398313
v -0.02069651 0.01425404 -0.00592281
v -0.01443616 0.01561811 -0.00635319
v -0.01994910 0.01493613 -0.00656950
v -0.02017879 0.01561811 -0.00786118
v -0.02346325 0.01561811 -0.01213008
v -0.02132757 0.01584554 -0.01632696
v -0.02400695 0.01561811 -0.01661773
v -0.02223012 0.01544133 -0.00918016
v -0.02086820 0.01584554 -0.01173623
v -0.02017879 0.01561811 -0.00786118
v -0.02223012 0.01544133 -0.02140125
v -0.02086820 0.01584554 -0.01976575
v -0.02017879 0.01561811 -0.02191288
v -0.02346325 0.01561811 -0.01989993
v -0.02017879 0.01561811 -0.02191288
v -0.02223012 0.01544133 -0.02140125
v -0.01994910 0.01493613 -0.02262859
v -0.01994910 0.01309989 -0.02262859
v -0.01994910 0.00534872 -0.02262859
v -0.01994910 0.00941010 -0.02262859
v -0.02040921 0.01461363 0.00136414
v -0.01070947 0.01543587 0.00167233
v -0.01070947 0.01448514 0.00167233
v -0.00169932 0.01448514 0.00497260
v -0.00169932 0.01543587 0.00497260
v -0.00053509 0.01448514 0.00998910
v -0.00053509 0.01543587 0.00998910
v -0.00260393 0.01448514 0.01629369
v -0.02364208 0.01499910 0.00532372
v -0.02364208 0.01538457 0.01179229
v -0.02364208 0.01594983 0.00532372
v -0.02040921 0.01556436 0.00136414
v -0.00329373 0.01448514 0.02345752
v -0.00260393 0.01543587 0.01629369
v -0.00329373 0.01543587 0.02345752
v -0.00583718 0.01461363 0.02859714
v -0.00583718 0.01556436 0.02859714
v -0.01346791 0.01499910 0.02882795
v -0.01346791 0.01594983 0.02882795
v -0.02109863 0.01538457 0.02526185
v -0.02109863 0.01633540 0.02526185
v -0.02364208 0.01551306 0.01901072
v -0.02364208 0.01633540 0.01179229
v -0.00583718 0.02041038 0.02859714
v -0.01346791 0.01982657 0.02882795
v -0.00583718 0.01944101 0.02859714
v -0.01346791 0.02079595 0.02882795
v -0.02109863 0.02118132 0.02526185
v -0.02109863 0.02021195 0.02526185
v -0.00260393 0.02028199 0.01629369
v -0.00329373 0.01931261 0.02345752
v -0.00260393 0.01931261 0.01629369
v -0.00329373 0.02028199 0.02345752
v -0.00169932 0.02028199 0.00497260
v -0.00053509 0.01931261 0.00998910
v -0.00169932 0.01931261 0.00497260
v -0.00053509 0.02028199 0.00998910
v -0.02040921 0.01944101 0.00136414
v -0.01070947 0.02028199 0.00167233
v -0.01070947 0.01931261 0.00167233
v -0.02040921 0.02041038 0.00136414
v -0.02364208 0.02021195 0.01179229
v -0.02364208 0.02079595 0.00532372
v -0.02364208 0.01982657 0.00532372
v -0.02364208 0.02118132 0.01179229
v -0.02364208 0.02034054 0.01901072
v -0.02364208 0.02130991 0.01901072
v -0.00583718 0.01749963 0.02859714
v -0.01346791 0.01788500 0.02882795
v -0.02109863 0.01827057 0.02526185
v -0.00260393 0.01737104 0.01629369
v -0.00329373 0.01737104 0.02345752
v -0.00169932 0.01737104 0.00497260
v -0.00053509 0.01737104 0.00998910
v -0.01070947 0.01737104 0.00167233
v -0.02040921 0.01749963 0.00136414
v -0.02364208 0.01788500 0.00532372
v -0.02364208 0.01827057 0.01179229
v -0.02364208 0.01646380 0.01901072
v -0.02364208 0.01839896 0.01901072
v 0.03449261 0.00000254 -0.02189756
v 0.03449261 0.01531755 -0.02189756
v 0.02427611 0.01523497 0.00209668
v -0.01346791 0.02115835 0.02692949
v -0.00294412 0.00000254 0.03676706
vt 0.43750000 0.00000000
vt 0.37133399 0.06369096
vt 0.37500000 0.00000000
vt 0.49545100 0.06369096
vt 0.43750000 0.06369096
vt 0.49545100 0.12678590
vt 0.43750000 0.12678590
vt 0.37133399 0.12678590
vt 0.37500000 0.25000000
vt 0.43750000 0.32716501
vt 0.37500000 0.32716501
vt 0.49545100 0.25396401
vt 0.43750000 0.25396401
vt 0.49545100 0.32716501
vt 0.43750000 0.39371699
vt 0.37500000 0.40432900
vt 0.37500000 0.62261802
vt 0.43750000 0.68630898
vt 0.37500000 0.68630898
vt 0.49545100 0.62321401
vt 0.43750000 0.62321401
vt 0.49545100 0.68630898
vt 0.43750000 0.73735797
vt 0.37500000 0.75000000
vt 0.37500000 0.84567100
vt 0.43750000 0.92283499
vt 0.37500000 0.92283499
vt 0.49545100 0.85628301
vt 0.43750000 0.85628301
vt 0.49545100 1.00000000
vt 0.43750000 1.00000000
vt 0.37500000 1.00000000
vt 0.29783499 0.00000000
vt 0.23128299 0.06369096
vt 0.22067089 0.00000000
vt 0.29783499 0.06369096
vt 0.29783499 0.12678590
vt 0.23128299 0.12678590
vt 0.43750000 0.18869101
vt 0.37133399 0.18869101
vt 0.49545100 0.18869101
vt 0.23128299 0.18869101
vt 0.29783499 0.18869101
vt 0.29783499 0.25000000
vt 0.22067089 0.25000000
vt 0.37500000 0.50000000
vt 0.43750000 0.56130898
vt 0.37500000 0.56130898
vt 0.43750000 0.51204699
vt 0.49545100 0.56130898
vt 0.54430503 0.51532698
vt 0.49708900 0.50770998
vt 0.58208299 0.51532698
vt 0.54430503 0.56130898
vt 0.58208299 0.56130898
vt 0.54430503 0.62321401
vt 0.54430503 0.73735797
vt 0.49545100 0.73735797
vt 0.54430503 0.68630898
vt 0.58208299 0.68630898
vt 0.58208299 0.73735797
vt 0.49545100 0.92283499
vt 0.54430503 1.00000000
vt 0.54430503 0.92283499
vt 0.54430503 0.85628301
vt 0.58208299 0.92283499
vt 0.58208299 1.00000000
vt 0.54430503 0.12678590
vt 0.49545100 0.00000000
vt 0.54430503 0.06369096
vt 0.54430503 0.00000000
vt 0.58208299 0.06369096
vt 0.58208299 0.12678590
vt 0.54430503 0.18869101
vt 0.54430503 0.25396401
vt 0.58208299 0.18869101
vt 0.58208299 0.25396401
vt 0.54430503 0.38503799
vt 0.49708900 0.39753699
vt 0.54430503 0.32716501
vt 0.58208299 0.32716501
vt 0.58208299 0.38503799
vt 0.51107597 0.43904400
vt 0.54430503 0.46836001
vt 0.50708902 0.47030300
vt 0.51107597 0.41300800
vt 0.54430503 0.43904400
vt 0.54430503 0.41300800
vt 0.58208299 0.43904400
vt 0.58208299 0.46836001
vt 0.43750000 0.43904400
vt 0.37500000 0.43904400
vt 0.48437500 0.43904400
vt 0.43750000 0.46836001
vt 0.37500000 0.47375801
vt 0.18595600 0.12678590
vt 0.15663990 0.18869101
vt 0.15663990 0.12678590
vt 0.18595600 0.18869101
vt 0.18595600 0.25000000
vt 0.15124200 0.25000000
vt 0.15124200 0.00000000
vt 0.18595600 0.06369096
vt 0.15663990 0.06369096
vt 0.18595600 0.00000000
vt 0.43750000 0.78163999
vt 0.37500000 0.81095600
vt 0.37500000 0.77624202
vt 0.49545100 0.78163999
vt 0.43750000 0.81095600
vt 0.49545100 0.81095600
vt 0.58208299 0.81095600
vt 0.58208299 0.85628301
vt 0.54430503 0.81095600
vt 0.54430503 0.78163999
vt 0.58208299 0.78163999
vt 0.48437500 0.46836001
vt 0.50000000 0.43904400
vt 0.50000000 0.46836001
vt 0.51107597 0.41300800
vt 0.50708902 0.40988299
vt 0.50000000 0.43904400
vt 0.50000000 0.47030300
vt 0.54430503 0.40432900
vt 0.58208299 0.40432900
vt 0.54430503 0.40432900
vt 0.58208299 0.50000000
vt 0.51107597 0.49671999
vt 0.54430503 0.50000000
vt 0.51107597 0.49671999
vt 0.54430503 0.50000000
vt 0.58208299 0.50000000
vt 0.50000000 0.45832899
vt 0.50000000 0.43904400
vt 0.50000000 0.46507901
vt 0.50000000 0.41975799
vt 0.50000000 0.43904400
vt 0.50000000 0.41300800
vt 0.50000000 0.43904400
vt 0.50000000 0.46507901
vt 0.51107597 0.40432900
vt 0.58208299 0.40432900
vt 0.54430503 0.40432900
vt 0.58208299 0.40432900
vt 0.54430503 0.40432900
vt 0.51107597 0.40432900
vt 0.58208299 0.50000000
vt 0.54430503 0.50000000
vt 0.51107597 0.49671999
vt 0.54430503 0.50000000
vt 0.58208299 0.50000000
vt 0.50000000 0.46507901
vt 0.50000000 0.43904400
vt 0.50000000 0.41975799
vt 0.50000000 0.43904400
vt 0.50000000 0.45832899
vt 0.51107597 0.40432900
vt 0.58208299 0.40432900
vt 0.54430503 0.40432900
vt 0.58208299 0.40432900
vt 0.54430503 0.50000000
vt 0.58208299 0.50000000
vt 0.51107597 0.49671999
vt 0.51969099 0.49416801
vt 0.54430503 0.49671999
vt 0.58208299 0.49671999
vt 0.62500000 0.50000000
vt 0.62500000 0.50000000
vt 0.62500000 0.50000000
vt 0.62500000 0.50000000
vt 0.62500000 0.50000000
vt 0.62500000 0.50000000
vt 0.62500000 0.50000000
vt 0.62500000 0.62261802
vt 0.58208299 0.62321401
vt 0.62500000 0.56130898
vt 0.62500000 0.75000000
vt 0.62500000 0.68630898
vt 0.62500000 0.84567100
vt 0.62500000 0.81095600
vt 0.62500000 0.77624202
vt 0.62500000 1.00000000
vt 0.62500000 0.92283499
vt 0.62500000 0.12738200
vt 0.58208299 0.00000000
vt 0.62500000 0.06369096
vt 0.62500000 0.25000000
vt 0.62500000 0.18869101
vt 0.62500000 0.40432900
vt 0.62500000 0.32716501
vt 0.62500000 0.40432900
vt 0.62500000 0.40432900
vt 0.62500000 0.40432900
vt 0.62500000 0.40432900
vt 0.58208299 0.41300800
vt 0.62500000 0.40432900
vt 0.62500000 0.40432900
vt 0.62500000 0.47375801
vt 0.62500000 0.43904400
vt 0.58208299 0.48687899
vt 0.62500000 0.48687899
vt 0.51107597 0.48687899
vt 0.54430503 0.48687899
vt 0.50000000 0.48687899
vt 0.51107597 0.49671999
vt 0.50000000 0.47703800
vt 0.50000000 0.48687899
vt 0.50000000 0.47703800
vt 0.50000000 0.48687899
vt 0.50000000 0.48687899
vt 0.50000000 0.47703800
vt 0.50000000 0.48687899
vt 0.48437500 0.48687899
vt 0.43750000 0.48687899
vt 0.37500000 0.48687899
vt 0.13812099 0.12678590
vt 0.12500000 0.18869101
vt 0.12500000 0.12738200
vt 0.13812099 0.18869101
vt 0.13812099 0.25000000
vt 0.12500000 0.25000000
vt 0.12500000 0.00000000
vt 0.13812099 0.06369096
vt 0.12500000 0.06369096
vt 0.13812099 0.00000000
vt 0.37500000 0.76312101
vt 0.43750000 0.76312101
vt 0.49545100 0.76312101
vt 0.58208299 0.76312101
vt 0.54430503 0.76312101
vt 0.62500000 0.76312101
vt 0.50000000 0.46507901
vt 0.50000000 0.41300800
vt 0.50000000 0.43904400
vt 0.50000000 0.43904400
vt 0.50000000 0.46507901
vt 0.50000000 0.40432900
vt 0.50000000 0.40432900
vt 0.50000000 0.40432900
vt 0.50000000 0.41300800
vt 0.50000000 0.47375801
vt 0.50000000 0.47375801
vt 0.50000000 0.47375801
vt 0.50000000 0.47375801
vt 0.50000000 0.40432900
vt 0.50000000 0.41300800
vt 0.50000000 0.40432900
vt 0.50000000 0.40432900
vt 0.50000000 0.43904400
vt 0.50000000 0.46507901
vt 0.50000000 0.43904400
vt 0.50000000 0.41300800
vt 0.50000000 0.47375801
vt 0.50000000 0.47375801
vt 0.50000000 0.46507901
vt 0.50000000 0.43904400
vt 0.50000000 0.41300800
vt 0.50000000 0.41300800
vt 0.50000000 0.46507901
vt 0.50000000 0.43904400
vt 0.50000000 0.40432900
vt 0.50000000 0.40432900
vt 0.50000000 0.40432900
vt 0.50000000 0.40432900
vt 0.50000000 0.41300800
vt 0.50000000 0.40432900
vt 0.50000000 0.41300800
vt 0.50000000 0.41300800
vt 0.50000000 0.40432900
vt 0.50000000 0.41300800
vt 0.50000000 0.46507901
vt 0.50000000 0.43904400
vt 0.50000000 0.46507901
vt 0.50000000 0.43904400
vt 0.50000000 0.47375801
vt 0.50000000 0.47375801
vt 0.50000000 0.47375801
vt 0.50000000 0.47375801
vt 0.50000000 0.47375801
vt 0.50000000 0.46507901
vt 0.50000000 0.47375801
vt 0.50000000 0.41300800
vt 0.50000000 0.43904400
vt 0.50000000 0.46507901
vt 0.50000000 0.40432900
vt 0.50000000 0.40432900
vt 0.50000000 0.41300800
vt 0.50000000 0.40432900
vt 0.50000000 0.43904400
vt 0.50000000 0.46507901
vt 0.50000000 0.47375801
vt 0.50000000 0.47375801
vt 0.50000000 0.47375801
vt 0.37133399 0.06369096
vt 0.43750000 0.00000000
vt 0.37500000 0.00000000
vt 0.37133399 0.12678590
vt 0.43750000 0.06369096
vt 0.49545100 0.12678590
vt 0.49545100 0.06369096
vt 0.49545100 0.00000000
vt 0.37500000 0.25000000
vt 0.43750000 0.32716501
vt 0.43750000 0.25396401
vt 0.37500000 0.32716501
vt 0.43750000 0.39371699
vt 0.49545100 0.32716501
vt 0.49545100 0.25396401
vt 0.37500000 0.62261802
vt 0.43750000 0.68630898
vt 0.43750000 0.62321401
vt 0.37500000 0.68630898
vt 0.43750000 0.73735797
vt 0.49545100 0.68630898
vt 0.49545100 0.62321401
vt 0.37500000 0.84567100
vt 0.43750000 0.92283499
vt 0.43750000 0.85628301
vt 0.37500000 1.00000000
vt 0.37500000 0.92283499
vt 0.49545100 1.00000000
vt 0.49545100 0.92283499
vt 0.49545100 0.85628301
vt 0.23128299 0.06369096
vt 0.29783499 0.00000000
vt 0.22067089 0.00000000
vt 0.23128299 0.12678590
vt 0.29783499 0.06369096
vt 0.29783499 0.12678590
vt 0.43750000 0.18869101
vt 0.43750000 0.12678590
vt 0.37133399 0.18869101
vt 0.49545100 0.18869101
vt 0.23128299 0.18869101
vt 0.22067089 0.25000000
vt 0.29783499 0.18869101
vt 0.37500000 0.50000000
vt 0.43750000 0.56130898
vt 0.43750000 0.51204699
vt 0.37500000 0.56130898
vt 0.49545100 0.56130898
vt 0.49708900 0.50770998
vt 0.54430503 0.51532698
vt 0.54430503 0.56130898
vt 0.54430503 0.62321401
vt 0.58208299 0.56130898
vt 0.58208299 0.51532698
vt 0.54430503 0.73735797
vt 0.49545100 0.73735797
vt 0.58208299 0.73735797
vt 0.54430503 0.68630898
vt 0.58208299 0.68630898
vt 0.54430503 1.00000000
vt 0.58208299 1.00000000
vt 0.54430503 0.92283499
vt 0.58208299 0.92283499
vt 0.54430503 0.85628301
vt 0.54430503 0.12678590
vt 0.58208299 0.12678590
vt 0.54430503 0.06369096
vt 0.58208299 0.06369096
vt 0.54430503 0.00000000
vt 0.54430503 0.18869101
vt 0.58208299 0.25396401
vt 0.54430503 0.25396401
vt 0.58208299 0.18869101
vt 0.54430503 0.38503799
vt 0.49708900 0.39753699
vt 0.58208299 0.38503799
vt 0.54430503 0.32716501
vt 0.58208299 0.32716501
vt 0.54430503 0.46836001
vt 0.51107597 0.43904400
vt 0.50708902 0.47030300
vt 0.58208299 0.46836001
vt 0.54430503 0.43904400
vt 0.58208299 0.43904400
vt 0.54430503 0.41300800
vt 0.51107597 0.41300800
vt 0.37500000 0.40432900
vt 0.43750000 0.43904400
vt 0.37500000 0.43904400
vt 0.43750000 0.46836001
vt 0.48437500 0.43904400
vt 0.15663990 0.18869101
vt 0.18595600 0.12678590
vt 0.15663990 0.12678590
vt 0.15124200 0.25000000
vt 0.18595600 0.18869101
vt 0.18595600 0.25000000
vt 0.15124200 0.00000000
vt 0.18595600 0.06369096
vt 0.18595600 0.00000000
vt 0.15663990 0.06369096
vt 0.37500000 0.81095600
vt 0.43750000 0.78163999
vt 0.37500000 0.77624202
vt 0.43750000 0.81095600
vt 0.49545100 0.81095600
vt 0.49545100 0.78163999
vt 0.58208299 0.81095600
vt 0.58208299 0.85628301
vt 0.58208299 0.78163999
vt 0.54430503 0.81095600
vt 0.54430503 0.78163999
vt 0.48437500 0.46836001
vt 0.50000000 0.43904400
vt 0.50000000 0.46836001
vt 0.50000000 0.43904400
vt 0.50708902 0.40988299
vt 0.51107597 0.41300800
vt 0.54430503 0.40432900
vt 0.54430503 0.40432900
vt 0.58208299 0.40432900
vt 0.58208299 0.50000000
vt 0.58208299 0.50000000
vt 0.54430503 0.50000000
vt 0.51107597 0.49671999
vt 0.51107597 0.49671999
vt 0.50000000 0.45832899
vt 0.50000000 0.43904400
vt 0.50000000 0.43904400
vt 0.50000000 0.46507901
vt 0.50000000 0.46507901
vt 0.50000000 0.41300800
vt 0.50000000 0.41300800
vt 0.50000000 0.41975799
vt 0.51107597 0.40432900
vt 0.51107597 0.40432900
vt 0.54430503 0.40432900
vt 0.54430503 0.40432900
vt 0.58208299 0.40432900
vt 0.58208299 0.40432900
vt 0.58208299 0.50000000
vt 0.54430503 0.50000000
vt 0.54430503 0.50000000
vt 0.54430503 0.50000000
vt 0.51107597 0.49671999
vt 0.50000000 0.46507901
vt 0.50000000 0.43904400
vt 0.50000000 0.45832899
vt 0.50000000 0.43904400
vt 0.50000000 0.41975799
vt 0.50000000 0.41300800
vt 0.51107597 0.40432900
vt 0.54430503 0.40432900
vt 0.58208299 0.40432900
vt 0.58208299 0.40432900
vt 0.58208299 0.50000000
vt 0.54430503 0.50000000
vt 0.58208299 0.50000000
vt 0.54430503 0.49671999
vt 0.51969099 0.49416801
vt 0.51107597 0.49671999
vt 0.51107597 0.49671999
vt 0.62500000 0.50000000
vt 0.58208299 0.49671999
vt 0.58208299 0.62321401
vt 0.58208299 0.00000000
vt 0.58208299 0.41300800
vt 0.62500000 0.40432900
vt 0.62500000 0.40432900
vt 0.62500000 0.47375801
vt 0.62500000 0.43904400
vt 0.58208299 0.48687899
vt 0.62500000 0.50000000
vt 0.62500000 0.48687899
vt 0.51107597 0.48687899
vt 0.54430503 0.48687899
vt 0.50000000 0.48687899
vt 0.50000000 0.48687899
vt 0.50000000 0.47703800
vt 0.50000000 0.47703800
vt 0.50000000 0.48687899
vt 0.50000000 0.48687899
vt 0.50000000 0.47703800
vt 0.50000000 0.47030300
vt 0.50000000 0.48687899
vt 0.48437500 0.48687899
vt 0.37500000 0.47375801
vt 0.43750000 0.48687899
vt 0.37500000 0.48687899
vt 0.12500000 0.18869101
vt 0.13812099 0.12678590
vt 0.12500000 0.12738200
vt 0.12500000 0.25000000
vt 0.13812099 0.18869101
vt 0.13812099 0.25000000
vt 0.12500000 0.00000000
vt 0.13812099 0.06369096
vt 0.13812099 0.00000000
vt 0.12500000 0.06369096
vt 0.37500000 0.76312101
vt 0.37500000 0.75000000
vt 0.43750000 0.76312101
vt 0.49545100 0.76312101
vt 0.58208299 0.76312101
vt 0.54430503 0.76312101
vt 0.50000000 0.46507901
vt 0.50000000 0.43904400
vt 0.50000000 0.43904400
vt 0.50000000 0.41300800
vt 0.50000000 0.41300800
vt 0.50000000 0.40432900
vt 0.50000000 0.40432900
vt 0.50000000 0.40432900
vt 0.50000000 0.47375801
vt 0.50000000 0.47375801
vt 0.50000000 0.47375801
vt 0.50000000 0.46507901
vt 0.50000000 0.40432900
vt 0.50000000 0.40432900
vt 0.50000000 0.40432900
vt 0.50000000 0.41300800
vt 0.50000000 0.41300800
vt 0.50000000 0.43904400
vt 0.50000000 0.43904400
vt 0.50000000 0.46507901
vt 0.50000000 0.46507901
vt 0.50000000 0.47375801
vt 0.50000000 0.47375801
vt 0.50000000 0.41300800
vt 0.50000000 0.43904400
vt 0.50000000 0.41300800
vt 0.50000000 0.43904400
vt 0.50000000 0.46507901
vt 0.50000000 0.46507901
vt 0.50000000 0.40432900
vt 0.50000000 0.40432900
vt 0.50000000 0.40432900
vt 0.50000000 0.40432900
vt 0.50000000 0.41300800
vt 0.50000000 0.40432900
vt 0.50000000 0.41300800
vt 0.50000000 0.40432900
vt 0.50000000 0.46507901
vt 0.50000000 0.43904400
vt 0.50000000 0.43904400
vt 0.50000000 0.46507901
vt 0.50000000 0.47375801
vt 0.50000000 0.47375801
vt 0.50000000 0.47375801
vt 0.50000000 0.47375801
vt 0.50000000 0.47375801
vt 0.50000000 0.47375801
vt 0.50000000 0.41300800
vt 0.50000000 0.43904400
vt 0.50000000 0.46507901
vt 0.50000000 0.40432900
vt 0.50000000 0.40432900
vt 0.50000000 0.41300800
vt 0.50000000 0.40432900
vt 0.50000000 0.43904400
vt 0.50000000 0.46507901
vt 0.50000000 0.47375801
vt 0.50000000 0.47375801
vt 0.50000000 0.47375801
vt 0.50000000 0.47375801
vt 0.62500000 0.00000000
vt 0.43750000 1.00000000
vt 0.29783499 0.25000000
vt 0.50000000 0.43904400
vt 0.62500000 0.40432900
f 1/1 2/2 3/3
f 1/1 4/4 5/5
f 5/5 6/6 7/7
f 5/5 8/8 2/2
f 9/9 10/10 11/11
f 12/12 10/10 13/13
f 14/14 15/15 10/10
f 11/11 15/15 16/16
f 17/17 18/18 19/19
f 20/20 18/18 21/21
f 22/22 23/23 18/18
f 19/19 23/23 24/24
f 25/25 26/26 27/27
f 28/28 26/26 29/29
f 26/26 30/30 31/31
f 26/26 32/32 27/27
f 33/33 34/34 35/35
f 3/3 36/36 33/33
f 2/2 37/37 36/36
f 36/36 38/38 34/34
f 8/8 39/39 40/40
f 7/7 41/41 39/39
f 41/41 13/13 39/39
f 40/40 13/13 9/9
f 37/37 42/42 38/38
f 8/8 43/43 37/37
f 43/43 9/9 44/44
f 43/43 45/45 42/42
f 46/46 47/47 48/48
f 49/49 50/50 47/47
f 50/50 21/21 47/47
f 47/47 17/17 48/48
f 51/51 50/50 52/52
f 53/53 54/54 51/51
f 55/55 56/56 54/54
f 54/54 20/20 50/50
f 22/22 57/57 58/58
f 20/20 59/59 22/22
f 56/56 60/60 59/59
f 59/59 61/61 57/57
f 62/62 63/63 30/30
f 28/28 64/64 62/62
f 65/65 66/66 64/64
f 64/64 67/67 63/63
f 4/4 68/68 6/6
f 69/69 70/70 4/4
f 71/71 72/72 70/70
f 70/70 73/73 68/68
f 12/12 74/74 75/75
f 6/6 74/74 41/41
f 68/68 76/76 74/74
f 74/74 77/77 75/75
f 14/14 78/78 79/79
f 14/14 75/75 80/80
f 75/75 81/81 80/80
f 80/80 82/82 78/78
f 83/83 84/84 85/85
f 86/86 87/87 83/83
f 88/88 89/89 87/87
f 87/87 90/90 84/84
f 16/16 91/91 92/92
f 79/79 91/91 15/15
f 93/93 94/94 91/91
f 92/92 94/94 95/95
f 96/96 97/97 98/98
f 38/38 99/99 96/96
f 42/42 100/100 99/99
f 99/99 101/101 97/97
f 102/102 103/103 104/104
f 35/35 103/103 105/105
f 34/34 96/96 103/103
f 103/103 98/98 104/104
f 106/106 107/107 108/108
f 109/109 110/110 106/106
f 111/111 29/29 110/110
f 107/107 29/29 25/25
f 65/65 112/112 113/113
f 28/28 114/114 65/65
f 111/111 115/115 114/114
f 114/114 116/116 112/112
f 117/117 118/118 119/119
f 93/93 120/120 118/118
f 118/118 121/121 122/122
f 119/119 122/122 123/123
f 79/79 124/124 120/120
f 82/82 124/124 78/78
f 125/125 126/126 124/124
f 120/120 126/126 121/121
f 51/51 127/127 53/53
f 51/51 128/128 129/129
f 129/129 130/130 131/131
f 129/129 132/132 127/127
f 133/133 134/134 135/135
f 136/136 134/134 137/137
f 134/134 138/138 139/139
f 134/134 140/140 135/135
f 126/126 141/141 121/121
f 142/142 143/143 126/126
f 144/144 145/145 143/143
f 143/143 146/146 141/141
f 131/131 147/147 132/132
f 130/130 148/148 131/131
f 149/149 150/150 148/148
f 147/147 150/150 151/151
f 139/139 152/152 140/140
f 138/138 153/153 139/139
f 153/153 154/154 155/155
f 153/153 156/156 152/152
f 145/145 157/157 146/146
f 158/158 159/159 145/145
f 160/160 88/88 159/159
f 159/159 86/86 157/157
f 151/151 161/161 162/162
f 150/150 163/163 161/161
f 161/161 164/164 165/165
f 162/162 165/165 166/166
f 167/167 162/162 168/168
f 168/168 166/166 169/169
f 170/170 132/132 147/147
f 170/170 151/151 167/167
f 171/171 127/127 172/172
f 127/127 173/173 172/172
f 55/55 174/174 175/175
f 53/53 176/176 55/55
f 60/60 177/177 61/61
f 175/175 178/178 60/60
f 179/179 112/112 180/180
f 112/112 181/181 180/180
f 66/66 182/182 67/67
f 113/113 183/183 66/66
f 72/72 184/184 73/73
f 185/185 186/186 72/72
f 76/76 187/187 77/77
f 73/73 188/188 76/76
f 81/81 189/189 82/82
f 77/77 190/190 81/81
f 125/125 191/191 142/142
f 82/82 192/192 125/125
f 158/158 193/193 194/194
f 142/142 193/193 144/144
f 195/195 196/196 197/197
f 160/160 194/194 196/196
f 89/89 198/198 90/90
f 195/195 199/199 89/89
f 169/169 200/200 201/201
f 90/90 201/201 200/200
f 202/202 165/165 164/164
f 85/85 203/203 202/202
f 84/84 200/200 203/203
f 203/203 166/166 165/165
f 204/204 163/163 205/205
f 206/206 207/207 204/204
f 208/208 202/202 207/207
f 207/207 164/164 163/163
f 130/130 209/209 149/149
f 210/210 211/211 209/209
f 211/211 204/204 209/209
f 209/209 205/205 149/149
f 52/52 212/212 128/128
f 213/213 119/119 212/212
f 212/212 123/123 210/210
f 128/128 210/210 130/130
f 95/95 214/214 215/215
f 117/117 214/214 94/94
f 213/213 49/49 214/214
f 215/215 49/49 46/46
f 216/216 217/217 218/218
f 98/98 219/219 216/216
f 97/97 220/220 219/219
f 219/219 221/221 217/217
f 222/222 223/223 224/224
f 225/225 104/104 223/223
f 104/104 216/216 223/223
f 224/224 216/216 218/218
f 23/23 226/226 24/24
f 58/58 227/227 23/23
f 228/228 106/106 227/227
f 227/227 108/108 226/226
f 115/115 229/229 116/116
f 109/109 230/230 115/115
f 228/228 57/57 230/230
f 230/230 61/61 229/229
f 181/181 229/229 231/231
f 229/229 177/177 231/231
f 122/122 232/232 123/123
f 122/122 233/233 234/234
f 233/233 235/235 234/234
f 232/232 235/235 236/236
f 141/141 233/233 121/121
f 141/141 237/237 238/238
f 237/237 239/239 238/238
f 238/238 240/240 233/233
f 206/206 241/241 242/242
f 211/211 232/232 241/241
f 241/241 236/236 243/243
f 242/242 243/243 244/244
f 146/146 245/245 237/237
f 157/157 246/246 245/245
f 246/246 247/247 245/245
f 245/245 248/248 237/237
f 83/83 246/246 86/86
f 85/85 249/249 83/83
f 250/250 251/251 249/249
f 249/249 252/252 246/246
f 208/208 250/250 85/85
f 208/208 242/242 253/253
f 253/253 244/244 254/254
f 253/253 255/255 250/250
f 256/256 257/257 258/258
f 259/259 260/260 256/256
f 260/260 156/156 155/155
f 260/260 154/154 257/257
f 261/261 262/262 263/263
f 258/258 264/264 261/261
f 264/264 154/154 265/265
f 262/262 265/265 138/138
f 266/266 267/267 268/268
f 263/263 269/269 266/266
f 262/262 270/270 269/269
f 267/267 270/270 136/136
f 271/271 272/272 273/273
f 268/268 272/272 274/274
f 272/272 136/136 137/137
f 272/272 133/133 273/273
f 275/275 276/276 277/277
f 278/278 273/273 276/276
f 273/273 135/135 276/276
f 277/277 135/135 140/140
f 279/279 280/280 259/259
f 279/279 277/277 281/281
f 281/281 140/140 152/152
f 280/280 152/152 156/156
f 251/251 282/282 252/252
f 255/255 283/283 251/251
f 284/284 256/256 283/283
f 283/283 258/258 282/282
f 247/247 285/285 248/248
f 252/252 286/286 247/247
f 282/282 261/261 286/286
f 286/286 263/263 285/285
f 239/239 287/287 240/240
f 248/248 288/288 239/239
f 285/285 266/266 288/288
f 288/288 268/268 287/287
f 236/236 289/289 290/290
f 240/240 289/289 235/235
f 287/287 274/274 289/289
f 290/290 274/274 271/271
f 244/244 291/291 292/292
f 243/243 290/290 291/291
f 291/291 271/271 278/278
f 292/292 278/278 275/275
f 254/254 284/284 255/255
f 254/254 292/292 293/293
f 293/293 275/275 279/279
f 293/293 259/259 284/284
f 294/294 295/295 296/296
f 297/297 298/298 294/294
f 298/298 299/299 300/300
f 295/295 300/300 301/301
f 302/302 303/303 304/304
f 305/305 306/306 303/303
f 306/306 307/307 303/303
f 303/303 308/308 304/304
f 309/309 310/310 311/311
f 312/312 313/313 310/310
f 313/313 314/314 310/310
f 310/310 315/315 311/311
f 316/316 317/317 318/318
f 319/319 317/317 320/320
f 317/317 321/321 322/322
f 317/317 323/323 318/318
f 324/324 325/325 326/326
f 327/327 328/328 324/324
f 329/329 294/294 328/328
f 328/328 296/296 325/325
f 297/297 330/330 331/331
f 332/332 304/304 330/330
f 304/304 333/333 330/330
f 331/331 333/333 299/299
f 334/334 329/329 327/327
f 335/335 336/336 334/334
f 336/336 302/302 332/332
f 336/336 297/297 329/329
f 337/337 338/338 339/339
f 309/309 338/338 340/340
f 311/311 341/341 338/338
f 339/339 341/341 342/342
f 341/341 343/343 342/342
f 315/315 344/344 341/341
f 345/345 346/346 344/344
f 344/344 347/347 343/343
f 348/348 314/314 349/349
f 350/350 351/351 348/348
f 352/352 345/345 351/351
f 351/351 315/315 314/314
f 353/353 322/322 321/321
f 354/354 355/355 353/353
f 356/356 357/357 355/355
f 355/355 323/323 322/322
f 358/358 300/300 299/299
f 359/359 360/360 358/358
f 361/361 362/362 360/360
f 360/360 301/301 300/300
f 308/308 363/363 333/333
f 364/364 363/363 365/365
f 366/366 358/358 363/363
f 363/363 299/299 333/333
f 367/367 307/307 368/368
f 369/369 370/370 367/367
f 371/371 365/365 370/370
f 307/307 365/365 308/308
f 372/372 373/373 374/374
f 375/375 376/376 372/372
f 377/377 378/378 376/376
f 376/376 379/379 373/373
f 380/380 381/381 306/306
f 382/382 383/383 381/381
f 383/383 384/384 381/381
f 381/381 368/368 306/306
f 385/385 386/386 387/387
f 388/388 389/389 385/385
f 390/390 334/334 389/389
f 389/389 327/327 386/386
f 391/391 392/392 393/393
f 387/387 392/392 394/394
f 386/386 324/324 392/392
f 392/392 326/326 393/393
f 395/395 396/396 397/397
f 395/395 318/318 398/398
f 318/318 399/399 398/398
f 398/398 400/400 396/396
f 401/401 357/357 402/402
f 403/403 404/404 401/401
f 405/405 399/399 404/404
f 404/404 323/323 357/357
f 406/406 407/407 384/384
f 408/408 409/409 407/407
f 407/407 410/410 411/411
f 384/384 411/411 368/368
f 368/368 412/412 367/367
f 411/411 413/413 412/412
f 413/413 414/414 412/412
f 412/412 369/369 367/367
f 415/415 343/343 347/347
f 416/416 417/417 415/415
f 417/417 418/418 419/419
f 343/343 419/419 342/342
f 420/420 421/421 422/422
f 423/423 421/421 424/424
f 421/421 425/425 426/426
f 421/421 427/427 422/422
f 428/428 413/413 410/410
f 429/429 430/430 428/428
f 431/431 432/432 430/430
f 430/430 433/433 413/413
f 434/434 435/435 416/416
f 434/434 436/436 437/437
f 436/436 438/438 437/437
f 437/437 418/418 435/435
f 439/439 440/440 423/423
f 441/441 442/442 439/439
f 442/442 443/443 444/444
f 442/442 425/425 440/440
f 445/445 431/431 429/429
f 379/379 446/446 445/445
f 378/378 447/447 446/446
f 446/446 448/448 431/431
f 449/449 450/450 436/436
f 451/451 452/452 450/450
f 450/450 453/453 454/454
f 436/436 454/454 455/455
f 167/167 451/451 449/449
f 456/456 457/457 451/451
f 170/170 416/416 173/173
f 170/170 449/449 434/434
f 172/172 347/347 171/171
f 173/173 415/415 172/172
f 458/458 176/176 346/346
f 176/176 347/347 346/346
f 350/350 178/178 352/352
f 178/178 458/458 352/352
f 180/180 402/402 179/179
f 181/181 401/401 180/180
f 354/354 183/183 356/356
f 183/183 402/402 356/356
f 359/359 186/186 361/361
f 186/186 459/459 361/361
f 364/364 188/188 366/366
f 188/188 359/359 366/366
f 369/369 190/190 371/371
f 190/190 364/364 371/371
f 433/433 192/192 414/414
f 192/192 369/369 414/414
f 448/448 193/193 432/432
f 193/193 433/433 432/432
f 460/460 461/461 447/447
f 447/447 462/462 448/448
f 377/377 463/463 464/464
f 464/464 460/460 377/377
f 465/465 466/466 467/467
f 467/467 375/375 465/465
f 452/452 468/468 453/453
f 457/457 469/469 452/452
f 465/465 372/372 469/469
f 469/469 374/374 468/468
f 454/454 470/470 455/455
f 453/453 471/471 454/454
f 468/468 472/472 471/471
f 471/471 473/473 470/470
f 418/418 474/474 475/475
f 455/455 474/474 438/438
f 470/470 476/476 474/474
f 475/475 476/476 477/477
f 342/342 478/478 479/479
f 419/419 475/475 478/478
f 478/478 477/477 408/408
f 479/479 408/408 406/406
f 480/480 481/481 383/383
f 482/482 339/339 481/481
f 339/339 479/479 481/481
f 481/481 406/406 383/383
f 483/483 484/484 485/485
f 486/486 487/487 483/483
f 488/488 385/385 487/487
f 487/487 387/387 484/484
f 489/489 490/490 491/491
f 492/492 484/484 490/490
f 484/484 394/394 490/490
f 491/491 394/394 391/391
f 493/493 313/313 494/494
f 397/397 495/495 493/493
f 396/396 496/496 495/495
f 495/495 349/349 313/313
f 497/497 405/405 403/403
f 350/350 498/498 497/497
f 348/348 496/496 498/498
f 498/498 400/400 405/405
f 181/181 497/497 403/403
f 177/177 497/497 231/231
f 499/499 409/409 477/477
f 499/499 500/500 501/501
f 500/500 502/502 501/501
f 409/409 502/502 410/410
f 502/502 428/428 410/410
f 503/503 504/504 502/502
f 505/505 506/506 504/504
f 428/428 506/506 429/429
f 473/473 507/507 476/476
f 508/508 509/509 507/507
f 507/507 510/510 499/499
f 476/476 499/499 477/477
f 429/429 511/511 445/445
f 512/512 511/511 506/506
f 513/513 514/514 511/511
f 445/445 514/514 379/379
f 514/514 373/373 379/379
f 515/515 516/516 514/514
f 517/517 518/518 516/516
f 516/516 374/374 373/373
f 518/518 472/472 374/374
f 519/519 520/520 518/518
f 520/520 521/521 508/508
f 472/472 508/508 473/473
f 522/522 523/523 524/524
f 443/443 525/525 522/522
f 525/525 441/441 526/526
f 525/525 527/527 523/523
f 528/528 529/529 530/530
f 528/528 444/444 531/531
f 531/531 443/443 522/522
f 531/531 524/524 529/529
f 532/532 533/533 534/534
f 532/532 426/426 535/535
f 426/426 528/528 535/535
f 535/535 530/530 533/533
f 536/536 537/537 538/538
f 420/420 537/537 539/539
f 537/537 427/427 532/532
f 537/537 534/534 538/538
f 540/540 541/541 542/542
f 543/543 424/424 541/541
f 424/424 539/539 541/541
f 542/542 539/539 536/536
f 526/526 544/544 527/527
f 526/526 439/439 545/545
f 545/545 423/423 543/543
f 544/544 543/543 540/540
f 546/546 517/517 515/515
f 524/524 547/547 546/546
f 523/523 548/548 547/547
f 547/547 519/519 517/517
f 549/549 513/513 512/512
f 530/530 550/550 549/549
f 529/529 546/546 550/550
f 550/550 515/515 513/513
f 551/551 505/505 503/503
f 534/534 552/552 551/551
f 533/533 549/549 552/552
f 552/552 512/512 505/505
f 510/510 553/553 500/500
f 554/554 538/538 553/553
f 538/538 551/551 553/553
f 553/553 503/503 500/500
f 521/521 555/555 509/509
f 556/556 542/542 555/555
f 555/555 536/536 554/554
f 509/509 554/554 510/510
f 548/548 557/557 519/519
f 527/527 558/558 548/548
f 558/558 540/540 556/556
f 557/557 556/556 521/521
f 1/1 5/5 2/2
f 1/1 69/69 4/4
f 5/5 4/4 6/6
f 5/5 7/7 8/8
f 9/9 13/13 10/10
f 12/12 14/14 10/10
f 14/14 79/79 15/15
f 11/11 10/10 15/15
f 17/17 21/21 18/18
f 20/20 22/22 18/18
f 22/22 58/58 23/23
f 19/19 18/18 23/23
f 25/25 29/29 26/26
f 28/28 62/62 26/26
f 26/26 62/62 30/30
f 26/26 31/31 32/32
f 33/33 36/36 34/34
f 3/3 2/2 36/36
f 2/2 8/8 37/37
f 36/36 37/37 38/38
f 8/8 7/7 39/39
f 7/7 6/6 41/41
f 41/41 12/12 13/13
f 40/40 39/39 13/13
f 37/37 43/43 42/42
f 8/8 40/40 43/43
f 43/43 40/40 9/9
f 43/43 44/44 45/45
f 46/46 49/49 47/47
f 49/49 52/52 50/50
f 50/50 20/20 21/21
f 47/47 21/21 17/17
f 51/51 54/54 50/50
f 53/53 55/55 54/54
f 55/55 175/175 56/56
f 54/54 56/56 20/20
f 22/22 59/59 57/57
f 20/20 56/56 59/59
f 56/56 175/175 60/60
f 59/59 60/60 61/61
f 62/62 64/64 63/63
f 28/28 65/65 64/64
f 65/65 113/113 66/66
f 64/64 66/66 67/67
f 4/4 70/70 68/68
f 69/69 71/71 70/70
f 71/71 185/185 72/72
f 70/70 72/72 73/73
f 12/12 41/41 74/74
f 6/6 68/68 74/74
f 68/68 73/73 76/76
f 74/74 76/76 77/77
f 14/14 80/80 78/78
f 14/14 12/12 75/75
f 75/75 77/77 81/81
f 80/80 81/81 82/82
f 83/83 87/87 84/84
f 86/86 88/88 87/87
f 88/88 195/195 89/89
f 87/87 89/89 90/90
f 16/16 15/15 91/91
f 79/79 93/93 91/91
f 93/93 117/117 94/94
f 92/92 91/91 94/94
f 96/96 99/99 97/97
f 38/38 42/42 99/99
f 42/42 45/45 100/100
f 99/99 100/100 101/101
f 102/102 105/105 103/103
f 35/35 34/34 103/103
f 34/34 38/38 96/96
f 103/103 96/96 98/98
f 106/106 110/110 107/107
f 109/109 111/111 110/110
f 111/111 28/28 29/29
f 107/107 110/110 29/29
f 65/65 114/114 112/112
f 28/28 111/111 114/114
f 111/111 109/109 115/115
f 114/114 115/115 116/116
f 117/117 93/93 118/118
f 93/93 79/79 120/120
f 118/118 120/120 121/121
f 119/119 118/118 122/122
f 79/79 78/78 124/124
f 82/82 125/125 124/124
f 125/125 142/142 126/126
f 120/120 124/124 126/126
f 51/51 129/129 127/127
f 51/51 52/52 128/128
f 129/129 128/128 130/130
f 129/129 131/131 132/132
f 133/133 137/137 134/134
f 136/136 270/270 134/134
f 134/134 270/270 138/138
f 134/134 139/139 140/140
f 126/126 143/143 141/141
f 142/142 144/144 143/143
f 144/144 158/158 145/145
f 143/143 145/145 146/146
f 131/131 148/148 147/147
f 130/130 149/149 148/148
f 149/149 205/205 150/150
f 147/147 148/148 150/150
f 139/139 153/153 152/152
f 138/138 265/265 153/153
f 153/153 265/265 154/154
f 153/153 155/155 156/156
f 145/145 159/159 157/157
f 158/158 160/160 159/159
f 160/160 195/195 88/88
f 159/159 88/88 86/86
f 151/151 150/150 161/161
f 150/150 205/205 163/163
f 161/161 163/163 164/164
f 162/162 161/161 165/165
f 167/167 151/151 162/162
f 168/168 162/162 166/166
f 170/170 173/173 132/132
f 170/170 147/147 151/151
f 171/171 53/53 127/127
f 127/127 132/132 173/173
f 55/55 176/176 174/174
f 53/53 171/171 176/176
f 60/60 178/178 177/177
f 175/175 174/174 178/178
f 179/179 113/113 112/112
f 112/112 116/116 181/181
f 66/66 183/183 182/182
f 113/113 179/179 183/183
f 72/72 186/186 184/184
f 185/185 559/559 186/186
f 76/76 188/188 187/187
f 73/73 184/184 188/188
f 81/81 190/190 189/189
f 77/77 187/187 190/190
f 125/125 192/192 191/191
f 82/82 189/189 192/192
f 158/158 144/144 193/193
f 142/142 191/191 193/193
f 195/195 160/160 196/196
f 160/160 158/158 194/194
f 89/89 199/199 198/198
f 195/195 197/197 199/199
f 169/169 166/166 200/200
f 90/90 198/198 201/201
f 202/202 203/203 165/165
f 85/85 84/84 203/203
f 84/84 90/90 200/200
f 203/203 200/200 166/166
f 204/204 207/207 163/163
f 206/206 208/208 207/207
f 208/208 85/85 202/202
f 207/207 202/202 164/164
f 130/130 210/210 209/209
f 210/210 123/123 211/211
f 211/211 206/206 204/204
f 209/209 204/204 205/205
f 52/52 213/213 212/212
f 213/213 117/117 119/119
f 212/212 119/119 123/123
f 128/128 212/212 210/210
f 95/95 94/94 214/214
f 117/117 213/213 214/214
f 213/213 52/52 49/49
f 215/215 214/214 49/49
f 216/216 219/219 217/217
f 98/98 97/97 219/219
f 97/97 101/101 220/220
f 219/219 220/220 221/221
f 222/222 225/225 223/223
f 225/225 102/102 104/104
f 104/104 98/98 216/216
f 224/224 223/223 216/216
f 23/23 227/227 226/226
f 58/58 228/228 227/227
f 228/228 109/109 106/106
f 227/227 106/106 108/108
f 115/115 230/230 229/229
f 109/109 228/228 230/230
f 228/228 58/58 57/57
f 230/230 57/57 61/61
f 181/181 116/116 229/229
f 229/229 61/61 177/177
f 122/122 234/234 232/232
f 122/122 121/121 233/233
f 233/233 240/240 235/235
f 232/232 234/234 235/235
f 141/141 238/238 233/233
f 141/141 146/146 237/237
f 237/237 248/248 239/239
f 238/238 239/239 240/240
f 206/206 211/211 241/241
f 211/211 123/123 232/232
f 241/241 232/232 236/236
f 242/242 241/241 243/243
f 146/146 157/157 245/245
f 157/157 86/86 246/246
f 246/246 252/252 247/247
f 245/245 247/247 248/248
f 83/83 249/249 246/246
f 85/85 250/250 249/249
f 250/250 255/255 251/251
f 249/249 251/251 252/252
f 208/208 253/253 250/250
f 208/208 206/206 242/242
f 253/253 242/242 244/244
f 253/253 254/254 255/255
f 256/256 260/260 257/257
f 259/259 280/280 260/260
f 260/260 280/280 156/156
f 260/260 155/155 154/154
f 261/261 264/264 262/262
f 258/258 257/257 264/264
f 264/264 257/257 154/154
f 262/262 264/264 265/265
f 266/266 269/269 267/267
f 263/263 262/262 269/269
f 262/262 138/138 270/270
f 267/267 269/269 270/270
f 271/271 274/274 272/272
f 268/268 267/267 272/272
f 272/272 267/267 136/136
f 272/272 137/137 133/133
f 275/275 278/278 276/276
f 278/278 271/271 273/273
f 273/273 133/133 135/135
f 277/277 276/276 135/135
f 279/279 281/281 280/280
f 279/279 275/275 277/277
f 281/281 277/277 140/140
f 280/280 281/281 152/152
f 251/251 283/283 282/282
f 255/255 284/284 283/283
f 284/284 259/259 256/256
f 283/283 256/256 258/258
f 247/247 286/286 285/285
f 252/252 282/282 286/286
f 282/282 258/258 261/261
f 286/286 261/261 263/263
f 239/239 288/288 287/287
f 248/248 285/285 288/288
f 285/285 263/263 266/266
f 288/288 266/266 268/268
f 236/236 235/235 289/289
f 240/240 287/287 289/289
f 287/287 268/268 274/274
f 290/290 289/289 274/274
f 244/244 243/243 291/291
f 243/243 236/236 290/290
f 291/291 290/290 271/271
f 292/292 291/291 278/278
f 254/254 293/293 284/284
f 254/254 244/244 292/292
f 293/293 292/292 275/275
f 293/293 279/279 259/259
f 294/294 298/298 295/295
f 297/297 331/331 298/298
f 298/298 331/331 299/299
f 295/295 298/298 300/300
f 302/302 305/305 303/303
f 305/305 380/380 306/306
f 306/306 368/368 307/307
f 303/303 307/307 308/308
f 309/309 312/312 310/310
f 312/312 494/494 313/313
f 313/313 349/349 314/314
f 310/310 314/314 315/315
f 316/316 320/320 317/317
f 319/319 560/560 317/317
f 317/317 560/560 321/321
f 317/317 322/322 323/323
f 324/324 328/328 325/325
f 327/327 329/329 328/328
f 329/329 297/297 294/294
f 328/328 294/294 296/296
f 297/297 332/332 330/330
f 332/332 302/302 304/304
f 304/304 308/308 333/333
f 331/331 330/330 333/333
f 334/334 336/336 329/329
f 335/335 561/561 336/336
f 336/336 561/561 302/302
f 336/336 332/332 297/297
f 337/337 340/340 338/338
f 309/309 311/311 338/338
f 311/311 315/315 341/341
f 339/339 338/338 341/341
f 341/341 344/344 343/343
f 315/315 345/345 344/344
f 345/345 458/458 346/346
f 344/344 346/346 347/347
f 348/348 351/351 314/314
f 350/350 352/352 351/351
f 352/352 458/458 345/345
f 351/351 345/345 315/315
f 353/353 355/355 322/322
f 354/354 356/356 355/355
f 356/356 402/402 357/357
f 355/355 357/357 323/323
f 358/358 360/360 300/300
f 359/359 361/361 360/360
f 361/361 459/459 362/362
f 360/360 362/362 301/301
f 308/308 365/365 363/363
f 364/364 366/366 363/363
f 366/366 359/359 358/358
f 363/363 358/358 299/299
f 367/367 370/370 307/307
f 369/369 371/371 370/370
f 371/371 364/364 365/365
f 307/307 370/370 365/365
f 372/372 376/376 373/373
f 375/375 377/377 376/376
f 377/377 460/460 378/378
f 376/376 378/378 379/379
f 380/380 382/382 381/381
f 382/382 480/480 383/383
f 383/383 406/406 384/384
f 381/381 384/384 368/368
f 385/385 389/389 386/386
f 388/388 390/390 389/389
f 390/390 335/335 334/334
f 389/389 334/334 327/327
f 391/391 394/394 392/392
f 387/387 386/386 392/392
f 386/386 327/327 324/324
f 392/392 324/324 326/326
f 395/395 398/398 396/396
f 395/395 316/316 318/318
f 318/318 323/323 399/399
f 398/398 399/399 400/400
f 401/401 404/404 357/357
f 403/403 405/405 404/404
f 405/405 400/400 399/399
f 404/404 399/399 323/323
f 406/406 408/408 407/407
f 408/408 477/477 409/409
f 407/407 409/409 410/410
f 384/384 407/407 411/411
f 368/368 411/411 412/412
f 411/411 410/410 413/413
f 413/413 433/433 414/414
f 412/412 414/414 369/369
f 415/415 417/417 343/343
f 416/416 435/435 417/417
f 417/417 435/435 418/418
f 343/343 417/417 419/419
f 420/420 424/424 421/421
f 423/423 440/440 421/421
f 421/421 440/440 425/425
f 421/421 426/426 427/427
f 428/428 430/430 413/413
f 429/429 431/431 430/430
f 431/431 448/448 432/432
f 430/430 432/432 433/433
f 434/434 437/437 435/435
f 434/434 449/449 436/436
f 436/436 455/455 438/438
f 437/437 438/438 418/418
f 439/439 442/442 440/440
f 441/441 562/562 442/442
f 442/442 562/562 443/443
f 442/442 444/444 425/425
f 445/445 446/446 431/431
f 379/379 378/378 446/446
f 378/378 460/460 447/447
f 446/446 447/447 448/448
f 449/449 451/451 450/450
f 451/451 457/457 452/452
f 450/450 452/452 453/453
f 436/436 450/450 454/454
f 167/167 456/456 451/451
f 456/456 466/466 457/457
f 170/170 434/434 416/416
f 170/170 167/167 449/449
f 172/172 415/415 347/347
f 173/173 416/416 415/415
f 458/458 174/174 176/176
f 176/176 171/171 347/347
f 350/350 177/177 178/178
f 178/178 174/174 458/458
f 180/180 401/401 402/402
f 181/181 403/403 401/401
f 354/354 182/182 183/183
f 183/183 179/179 402/402
f 359/359 184/184 186/186
f 186/186 559/559 459/459
f 364/364 187/187 188/188
f 188/188 184/184 359/359
f 369/369 189/189 190/190
f 190/190 187/187 364/364
f 433/433 191/191 192/192
f 192/192 189/189 369/369
f 448/448 462/462 193/193
f 193/193 191/191 433/433
f 460/460 563/563 461/461
f 447/447 461/461 462/462
f 377/377 375/375 463/463
f 464/464 563/563 460/460
f 465/465 457/457 466/466
f 467/467 463/463 375/375
f 452/452 469/469 468/468
f 457/457 465/465 469/469
f 465/465 375/375 372/372
f 469/469 372/372 374/374
f 454/454 471/471 470/470
f 453/453 468/468 471/471
f 468/468 374/374 472/472
f 471/471 472/472 473/473
f 418/418 438/438 474/474
f 455/455 470/470 474/474
f 470/470 473/473 476/476
f 475/475 474/474 476/476
f 342/342 419/419 478/478
f 419/419 418/418 475/475
f 478/478 475/475 477/477
f 479/479 478/478 408/408
f 480/480 482/482 481/481
f 482/482 337/337 339/339
f 339/339 342/342 479/479
f 481/481 479/479 406/406
f 483/483 487/487 484/484
f 486/486 488/488 487/487
f 488/488 388/388 385/385
f 487/487 385/385 387/387
f 489/489 492/492 490/490
f 492/492 485/485 484/484
f 484/484 387/387 394/394
f 491/491 490/490 394/394
f 493/493 495/495 313/313
f 397/397 396/396 495/495
f 396/396 400/400 496/496
f 495/495 496/496 349/349
f 497/497 498/498 405/405
f 350/350 348/348 498/498
f 348/348 349/349 496/496
f 498/498 496/496 400/400
f 181/181 231/231 497/497
f 177/177 350/350 497/497
f 499/499 501/501 409/409
f 499/499 510/510 500/500
f 500/500 503/503 502/502
f 409/409 501/501 502/502
f 502/502 504/504 428/428
f 503/503 505/505 504/504
f 505/505 512/512 506/506
f 428/428 504/504 506/506
f 473/473 508/508 507/507
f 508/508 521/521 509/509
f 507/507 509/509 510/510
f 476/476 507/507 499/499
f 429/429 506/506 511/511
f 512/512 513/513 511/511
f 513/513 515/515 514/514
f 445/445 511/511 514/514
f 514/514 516/516 373/373
f 515/515 517/517 516/516
f 517/517 519/519 518/518
f 516/516 518/518 374/374
f 518/518 520/520 472/472
f 519/519 557/557 520/520
f 520/520 557/557 521/521
f 472/472 520/520 508/508
f 522/522 525/525 523/523
f 443/443 562/562 525/525
f 525/525 562/562 441/441
f 525/525 526/526 527/527
f 528/528 531/531 529/529
f 528/528 425/425 444/444
f 531/531 444/444 443/443
f 531/531 522/522 524/524
f 532/532 535/535 533/533
f 532/532 427/427 426/426
f 426/426 425/425 528/528
f 535/535 528/528 530/530
f 536/536 539/539 537/537
f 420/420 422/422 537/537
f 537/537 422/422 427/427
f 537/537 532/532 534/534
f 540/540 543/543 541/541
f 543/543 423/423 424/424
f 424/424 420/420 539/539
f 542/542 541/541 539/539
f 526/526 545/545 544/544
f 526/526 441/441 439/439
f 545/545 439/439 423/423
f 544/544 545/545 543/543
f 546/546 547/547 517/517
f 524/524 523/523 547/547
f 523/523 527/527 548/548
f 547/547 548/548 519/519
f 549/549 550/550 513/513
f 530/530 529/529 550/550
f 529/529 524/524 546/546
f 550/550 546/546 515/515
f 551/551 552/552 505/505
f 534/534 533/533 552/552
f 533/533 530/530 549/549
f 552/552 549/549 512/512
f 510/510 554/554 553/553
f 554/554 536/536 538/538
f 538/538 534/534 551/551
f 553/553 551/551 503/503
f 521/521 556/556 555/555
f 556/556 540/540 542/542
f 555/555 542/542 536/536
f 509/509 555/555 554/554
f 548/548 558/558 557/557
f 527/527 544/544 558/558
f 558/558 544/544 540/540
f 557/557 558/558 556/556

