# https://github.com/mikedh/trimesh
mtllib material.mtl

o Cozmo_Belt-mesh
usemtl material_0
v 0.02820521 0.00583696 -0.01110756
v 0.02111005 -0.00583690 -0.01304614
v 0.02111005 0.00583696 -0.01304614
v 0.03354901 0.00583696 -0.00581318
v 0.02820521 -0.00583690 -0.01110756
v 0.02820521 0.00583696 -0.01110756
v 0.03553658 0.00583696 0.00141472
v 0.03354901 -0.00583690 -0.00581318
v 0.03354901 0.00583696 -0.00581318
v 0.03407597 0.00583696 0.00794625
v 0.03553658 -0.00583690 0.00141472
v 0.03553658 0.00583696 0.00141472
v 0.02798569 0.00583696 0.01413929
v 0.03407597 -0.00583690 0.00794625
v 0.03407597 0.00583696 0.00794625
v 0.02114629 0.00583696 0.01611220
v 0.02798569 -0.00583690 0.01413929
v 0.02798569 0.00583696 0.01413929
v -0.02669477 0.00583696 0.00880951
v -0.02131438 -0.00583690 0.00964641
v -0.02131438 0.00583696 0.00964641
v -0.03537023 0.00583696 0.00341970
v -0.03159737 -0.00583690 0.00716102
v -0.03159737 0.00583696 0.00716102
v -0.03680175 0.00583696 -0.00094886
v -0.03537023 -0.00583690 0.00341970
v -0.03537023 0.00583696 0.00341970
v -0.03602236 0.00583696 -0.00662988
v -0.03680175 -0.00583690 -0.00094886
v -0.03680175 0.00583696 -0.00094886
v -0.03164106 0.00583696 -0.01086241
v -0.03602236 -0.00583690 -0.00662988
v -0.03602236 0.00583696 -0.00662988
v -0.02666592 0.00583696 -0.01239889
v -0.03164106 -0.00583690 -0.01086241
v -0.03164106 0.00583696 -0.01086241
v 0.02111005 0.00583696 -0.01304614
v 0.01499378 -0.00583690 -0.01298969
v 0.01499378 0.00583696 -0.01298969
v -0.03159737 0.00583696 0.00716102
v -0.02669477 -0.00583690 0.00880951
v -0.02669477 0.00583696 0.00880951
v -0.01604521 -0.00583690 0.01045697
v -0.01604521 0.00583696 0.01045697
v -0.01077598 -0.00583690 0.01126766
v -0.01077598 0.00583696 0.01126766
v -0.00550663 -0.00583690 0.01207816
v -0.00550663 0.00583696 0.01207816
v -0.00023740 -0.00583690 0.01288890
v -0.00023740 0.00583696 0.01288890
v 0.00503188 -0.00583690 0.01369941
v 0.00503188 0.00583696 0.01369941
v 0.01030117 -0.00583690 0.01450991
v 0.01030117 0.00583696 0.01450991
v 0.01557040 -0.00583690 0.01532065
v 0.01557040 0.00583696 0.01532065
v 0.01557040 0.00583696 0.01532065
v 0.02114629 -0.00583690 0.01611220
v 0.02114629 0.00583696 0.01611220
v -0.02054625 0.00583696 -0.01250904
v -0.02666592 -0.00583690 -0.01239889
v -0.02666592 0.00583696 -0.01239889
v -0.01462280 0.00583696 -0.01258915
v -0.02054625 -0.00583690 -0.01250904
v -0.02054625 0.00583696 -0.01250904
v -0.00869948 0.00583696 -0.01266926
v -0.01462280 -0.00583690 -0.01258915
v -0.00277615 0.00583696 -0.01274937
v -0.00869948 -0.00583690 -0.01266926
v 0.00314713 0.00583696 -0.01282948
v -0.00277615 -0.00583690 -0.01274937
v 0.00907046 0.00583696 -0.01290959
v 0.00314713 -0.00583690 -0.01282948
v 0.00907046 -0.00583690 -0.01290959
v 0.02093660 -0.00583690 -0.01162910
v 0.02751499 0.00583696 -0.00989908
v 0.02093660 0.00583696 -0.01162910
v 0.02751499 -0.00583690 -0.00989908
v 0.03234702 0.00583696 -0.00511169
v 0.02751499 0.00583696 -0.00989908
v 0.03234702 -0.00583690 -0.00511169
v 0.03413790 0.00583696 0.00145018
v 0.03234702 0.00583696 -0.00511169
v 0.03413790 -0.00583690 0.00145018
v 0.03285974 0.00583696 0.00728595
v 0.03413790 0.00583696 0.00145018
v 0.03285974 -0.00583690 0.00728595
v 0.02727621 0.00583696 0.01294010
v 0.03285974 0.00583696 0.00728595
v 0.02727621 -0.00583690 0.01294010
v 0.02105879 0.00583696 0.01470720
v 0.02727621 0.00583696 0.01294010
v -0.02109545 -0.00583690 0.00822234
v -0.02636468 0.00583696 0.00741160
v -0.02109545 0.00583696 0.00822234
v -0.03086978 -0.00583690 0.00596344
v -0.03417819 0.00583696 0.00268572
v -0.03086978 0.00583696 0.00596344
v -0.03417819 -0.00583690 0.00268572
v -0.03540092 0.00583696 -0.00108600
v -0.03417819 0.00583696 0.00268572
v -0.03540092 -0.00583690 -0.00108600
v -0.03481459 0.00583696 -0.00601911
v -0.03540092 0.00583696 -0.00108600
v -0.03481459 -0.00583690 -0.00601911
v -0.03094220 0.00583696 -0.00964636
v -0.03481459 0.00583696 -0.00601911
v -0.03094220 -0.00583690 -0.00964636
v -0.02645003 0.00583696 -0.01098829
v -0.03094220 0.00583696 -0.00964636
v 0.01501327 -0.00583690 -0.01154899
v 0.02093660 0.00583696 -0.01162910
v 0.01501327 0.00583696 -0.01154899
v -0.02636468 -0.00583690 0.00741160
v -0.03086978 0.00583696 0.00596344
v -0.02636468 0.00583696 0.00741160
v -0.01582610 -0.00583690 0.00903284
v -0.01582610 0.00583696 0.00903284
v -0.01055687 -0.00583690 0.00984353
v -0.01055687 0.00583696 0.00984353
v -0.00528759 -0.00583690 0.01065403
v -0.00528759 0.00583696 0.01065403
v -0.00001833 -0.00583690 0.01146477
v -0.00001833 0.00583696 0.01146477
v 0.00525093 -0.00583690 0.01227527
v 0.00525093 0.00583696 0.01227527
v 0.01052021 -0.00583690 0.01308596
v 0.01052021 0.00583696 0.01308596
v 0.01578950 -0.00583690 0.01389652
v 0.01578950 0.00583696 0.01389652
v 0.02105879 -0.00583690 0.01470720
v 0.02105879 0.00583696 0.01470720
v -0.02645003 -0.00583690 -0.01098829
v -0.02052676 0.00583696 -0.01106840
v -0.02645003 0.00583696 -0.01098829
v -0.02052676 -0.00583690 -0.01106840
v -0.01460331 0.00583696 -0.01114851
v -0.01460331 -0.00583690 -0.01114851
v -0.00867999 0.00583696 -0.01122856
v -0.00867999 -0.00583690 -0.01122856
v -0.00275665 0.00583696 -0.01130867
v -0.00275665 -0.00583690 -0.01130867
v 0.00316662 0.00583696 -0.01138877
v 0.00316662 -0.00583690 -0.01138877
v 0.00908995 0.00583696 -0.01146888
v 0.00908995 -0.00583690 -0.01146888
v 0.02751499 0.00583696 -0.00989908
v 0.02111005 0.00583696 -0.01304614
v 0.02093660 0.00583696 -0.01162910
v 0.02751499 -0.00583690 -0.00989908
v 0.02111005 -0.00583690 -0.01304614
v 0.02820521 -0.00583690 -0.01110756
v 0.03354901 0.00583696 -0.00581318
v 0.02820521 0.00583696 -0.01110756
v 0.03354901 -0.00583690 -0.00581318
v 0.03234702 -0.00583690 -0.00511169
v 0.03234702 0.00583696 -0.00511169
v 0.03553658 0.00583696 0.00141472
v 0.03553658 -0.00583690 0.00141472
v 0.03413790 -0.00583690 0.00145018
v 0.03285974 0.00583696 0.00728595
v 0.03413790 0.00583696 0.00145018
v 0.03285974 -0.00583690 0.00728595
v 0.03407597 -0.00583690 0.00794625
v 0.02798569 0.00583696 0.01413929
v 0.03407597 0.00583696 0.00794625
v 0.02798569 -0.00583690 0.01413929
v 0.02727621 -0.00583690 0.01294010
v 0.02727621 0.00583696 0.01294010
v 0.02114629 0.00583696 0.01611220
v 0.02114629 -0.00583690 0.01611220
v 0.02105879 -0.00583690 0.01470720
v -0.02636468 0.00583696 0.00741160
v -0.02131438 0.00583696 0.00964641
v -0.02109545 0.00583696 0.00822234
v -0.02636468 -0.00583690 0.00741160
v -0.02131438 -0.00583690 0.00964641
v -0.02669477 -0.00583690 0.00880951
v -0.03417819 0.00583696 0.00268572
v -0.03159737 0.00583696 0.00716102
v -0.03086978 0.00583696 0.00596344
v -0.03417819 -0.00583690 0.00268572
v -0.03159737 -0.00583690 0.00716102
v -0.03537023 -0.00583690 0.00341970
v -0.03680175 0.00583696 -0.00094886
v -0.03537023 0.00583696 0.00341970
v -0.03680175 -0.00583690 -0.00094886
v -0.03540092 -0.00583690 -0.00108600
v -0.03481459 0.00583696 -0.00601911
v -0.03540092 0.00583696 -0.00108600
v -0.03481459 -0.00583690 -0.00601911
v -0.03602236 -0.00583690 -0.00662988
v -0.03164106 0.00583696 -0.01086241
v -0.03602236 0.00583696 -0.00662988
v -0.03164106 -0.00583690 -0.01086241
v -0.03094220 -0.00583690 -0.00964636
v -0.03094220 0.00583696 -0.00964636
v -0.02666592 0.00583696 -0.01239889
v -0.02666592 -0.00583690 -0.01239889
v -0.02645003 -0.00583690 -0.01098829
v 0.01499378 0.00583696 -0.01298969
v 0.01501327 0.00583696 -0.01154899
v 0.02093660 -0.00583690 -0.01162910
v 0.01499378 -0.00583690 -0.01298969
v -0.02669477 0.00583696 0.00880951
v -0.03086978 -0.00583690 0.00596344
v -0.01582610 0.00583696 0.00903284
v -0.01604521 0.00583696 0.01045697
v -0.01582610 -0.00583690 0.00903284
v -0.02109545 -0.00583690 0.00822234
v -0.01077598 0.00583696 0.01126766
v -0.01055687 0.00583696 0.00984353
v -0.01077598 -0.00583690 0.01126766
v -0.01604521 -0.00583690 0.01045697
v -0.00550663 0.00583696 0.01207816
v -0.00528759 0.00583696 0.01065403
v -0.01055687 -0.00583690 0.00984353
v -0.00550663 -0.00583690 0.01207816
v -0.00001833 0.00583696 0.01146477
v -0.00023740 0.00583696 0.01288890
v -0.00001833 -0.00583690 0.01146477
v -0.00528759 -0.00583690 0.01065403
v 0.00503188 0.00583696 0.01369941
v 0.00525093 0.00583696 0.01227527
v 0.00503188 -0.00583690 0.01369941
v -0.00023740 -0.00583690 0.01288890
v 0.01052021 0.00583696 0.01308596
v 0.01030117 0.00583696 0.01450991
v 0.01052021 -0.00583690 0.01308596
v 0.00525093 -0.00583690 0.01227527
v 0.01557040 0.00583696 0.01532065
v 0.01578950 0.00583696 0.01389652
v 0.01557040 -0.00583690 0.01532065
v 0.01030117 -0.00583690 0.01450991
v 0.02105879 0.00583696 0.01470720
v 0.01578950 -0.00583690 0.01389652
v -0.02645003 0.00583696 -0.01098829
v -0.02054625 0.00583696 -0.01250904
v -0.02054625 -0.00583690 -0.01250904
v -0.02052676 -0.00583690 -0.01106840
v -0.02052676 0.00583696 -0.01106840
v -0.01462280 0.00583696 -0.01258915
v -0.01462280 -0.00583690 -0.01258915
v -0.01460331 -0.00583690 -0.01114851
v -0.01460331 0.00583696 -0.01114851
v -0.00869948 0.00583696 -0.01266926
v -0.00869948 -0.00583690 -0.01266926
v -0.00867999 -0.00583690 -0.01122856
v -0.00275665 0.00583696 -0.01130867
v -0.00867999 0.00583696 -0.01122856
v -0.00277615 -0.00583690 -0.01274937
v -0.00275665 -0.00583690 -0.01130867
v 0.00314713 0.00583696 -0.01282948
v -0.00277615 0.00583696 -0.01274937
v 0.00314713 -0.00583690 -0.01282948
v 0.00316662 -0.00583690 -0.01138877
v 0.00908995 0.00583696 -0.01146888
v 0.00316662 0.00583696 -0.01138877
v 0.00908995 -0.00583690 -0.01146888
v 0.00907046 -0.00583690 -0.01290959
v 0.00907046 0.00583696 -0.01290959
v 0.01501327 -0.00583690 -0.01154899
v 0.02820521 -0.00583690 -0.01110756
v 0.03354901 -0.00583690 -0.00581318
v 0.03553658 -0.00583690 0.00141472
v 0.03407597 -0.00583690 0.00794625
v 0.02798569 -0.00583690 0.01413929
v 0.02114629 -0.00583690 0.01611220
v -0.02669477 -0.00583690 0.00880951
v -0.03537023 -0.00583690 0.00341970
v -0.03680175 -0.00583690 -0.00094886
v -0.03602236 -0.00583690 -0.00662988
v -0.03164106 -0.00583690 -0.01086241
v -0.02666592 -0.00583690 -0.01239889
v 0.02111005 -0.00583690 -0.01304614
v -0.03159737 -0.00583690 0.00716102
v 0.01557040 -0.00583690 0.01532065
v -0.02054625 -0.00583690 -0.01250904
v 0.02751499 -0.00583690 -0.00989908
v 0.03234702 -0.00583690 -0.00511169
v 0.03413790 -0.00583690 0.00145018
v 0.03285974 -0.00583690 0.00728595
v 0.02727621 -0.00583690 0.01294010
v 0.02105879 -0.00583690 0.01470720
v -0.02636468 -0.00583690 0.00741160
v -0.03417819 -0.00583690 0.00268572
v -0.03540092 -0.00583690 -0.00108600
v -0.03481459 -0.00583690 -0.00601911
v -0.03094220 -0.00583690 -0.00964636
v -0.02645003 -0.00583690 -0.01098829
v 0.02093660 -0.00583690 -0.01162910
v -0.03086978 -0.00583690 0.00596344
f 1 2 3
f 4 5 6
f 7 8 9
f 10 11 12
f 13 14 15
f 16 17 18
f 19 20 21
f 22 23 24
f 25 26 27
f 28 29 30
f 31 32 33
f 34 35 36
f 37 38 39
f 40 41 42
f 21 43 44
f 44 45 46
f 46 47 48
f 48 49 50
f 50 51 52
f 52 53 54
f 54 55 56
f 57 58 59
f 60 61 62
f 63 64 65
f 66 67 63
f 68 69 66
f 70 71 68
f 72 73 70
f 39 74 72
f 75 76 77
f 78 79 80
f 81 82 83
f 84 85 86
f 87 88 89
f 90 91 92
f 93 94 95
f 96 97 98
f 99 100 101
f 102 103 104
f 105 106 107
f 108 109 110
f 111 112 113
f 114 115 116
f 117 95 118
f 119 118 120
f 121 120 122
f 123 122 124
f 125 124 126
f 127 126 128
f 129 128 130
f 131 130 132
f 133 134 135
f 136 137 134
f 138 139 137
f 140 141 139
f 142 143 141
f 144 145 143
f 146 113 145
f 147 148 149
f 150 151 152
f 147 153 154
f 150 155 156
f 157 158 153
f 156 159 160
f 161 158 162
f 163 159 164
f 161 165 166
f 163 167 168
f 169 170 165
f 168 171 172
f 173 174 175
f 176 177 178
f 179 180 181
f 182 183 184
f 179 185 186
f 182 187 188
f 189 185 190
f 191 187 192
f 189 193 194
f 191 195 196
f 197 198 193
f 196 199 200
f 149 201 202
f 203 204 151
f 181 205 173
f 206 178 183
f 207 174 208
f 209 177 210
f 207 211 212
f 209 213 214
f 212 215 216
f 217 218 213
f 219 215 220
f 221 218 222
f 219 223 224
f 221 225 226
f 227 223 228
f 229 225 230
f 227 231 232
f 229 233 234
f 235 231 170
f 172 233 236
f 237 238 198
f 200 239 240
f 241 242 238
f 240 243 244
f 245 246 242
f 244 247 248
f 249 246 250
f 248 251 252
f 249 253 254
f 252 255 256
f 257 253 258
f 259 255 260
f 257 201 261
f 259 204 262
f 1 263 2
f 4 264 5
f 7 265 8
f 10 266 11
f 13 267 14
f 16 268 17
f 19 269 20
f 22 270 23
f 25 271 26
f 28 272 29
f 31 273 32
f 34 274 35
f 37 275 38
f 40 276 41
f 21 20 43
f 44 43 45
f 46 45 47
f 48 47 49
f 50 49 51
f 52 51 53
f 54 53 55
f 57 277 58
f 60 278 61
f 63 67 64
f 66 69 67
f 68 71 69
f 70 73 71
f 72 74 73
f 39 38 74
f 75 279 76
f 78 280 79
f 81 281 82
f 84 282 85
f 87 283 88
f 90 284 91
f 93 285 94
f 96 286 97
f 99 287 100
f 102 288 103
f 105 289 106
f 108 290 109
f 111 291 112
f 114 292 115
f 117 93 95
f 119 117 118
f 121 119 120
f 123 121 122
f 125 123 124
f 127 125 126
f 129 127 128
f 131 129 130
f 133 136 134
f 136 138 137
f 138 140 139
f 140 142 141
f 142 144 143
f 144 146 145
f 146 111 113
f 147 154 148
f 150 203 151
f 147 157 153
f 150 152 155
f 157 162 158
f 156 155 159
f 161 166 158
f 163 160 159
f 161 169 165
f 163 164 167
f 169 235 170
f 168 167 171
f 173 205 174
f 176 210 177
f 179 186 180
f 182 206 183
f 179 190 185
f 182 184 187
f 189 194 185
f 191 188 187
f 189 197 193
f 191 192 195
f 197 237 198
f 196 195 199
f 149 148 201
f 203 262 204
f 181 180 205
f 206 176 178
f 207 175 174
f 209 214 177
f 207 208 211
f 209 217 213
f 212 211 215
f 217 222 218
f 219 216 215
f 221 226 218
f 219 220 223
f 221 230 225
f 227 224 223
f 229 234 225
f 227 228 231
f 229 236 233
f 235 232 231
f 172 171 233
f 237 241 238
f 200 199 239
f 241 245 242
f 240 239 243
f 245 250 246
f 244 243 247
f 249 254 246
f 248 247 251
f 249 258 253
f 252 251 255
f 257 261 253
f 259 256 255
f 257 202 201
f 259 260 204

