# https://github.com/mikedh/trimesh

o Cozmo_Head-mesh
v 0.01667553 -0.00794804 -0.00990343
v 0.01642864 -0.00594312 -0.01130449
v 0.01705074 -0.00546759 -0.01038926
v 0.01639795 -0.00983298 0.00860810
v 0.01574617 -0.00864977 0.01044523
v 0.01570987 -0.01070511 0.00938845
v 0.01643162 -0.00982833 -0.00893646
v 0.01598113 -0.01177221 -0.00708371
v 0.01574319 -0.01069915 -0.00971609
v 0.01696252 -0.01129007 0.00235450
v 0.01643741 -0.01236784 -0.00016167
v 0.01706314 -0.01135903 -0.00016201
v 0.01653289 -0.00547290 0.01005893
v 0.01594382 -0.00303227 0.01123815
v 0.01586407 -0.00594914 0.01097357
v 0.01742631 -0.00278884 -0.01063597
v 0.01703763 0.00000000 -0.01163482
v 0.01761585 0.00000000 -0.01069498
v 0.01654767 -0.01073235 0.00692087
v 0.01610648 -0.01205742 0.00518024
v 0.01675444 -0.01107519 0.00475150
v 0.01684248 -0.01113891 -0.00418937
v 0.01631593 -0.01229017 -0.00289374
v 0.01618987 -0.01212114 -0.00461751
v 0.01660817 0.00279277 0.01030433
v 0.01597487 0.00000000 0.01130080
v 0.01663988 0.00000000 0.01036304
v 0.01643693 0.00795132 0.00957346
v 0.01586407 0.00594908 0.01097357
v 0.01653289 0.00547290 0.01005893
v 0.01639795 0.00983226 0.00860810
v 0.01586508 0.01169061 0.00754464
v 0.01570987 0.01070505 0.00938845
v 0.01694965 0.01128804 -0.00267822
v 0.01643741 0.01236778 -0.00016167
v 0.01706314 0.01135903 -0.00016201
v 0.01675444 0.01107513 0.00475150
v 0.01633167 0.01229214 0.00257111
v 0.01610648 0.01205801 0.00518024
v 0.01667171 0.01081186 -0.00646192
v 0.01618987 0.01212108 -0.00461751
v 0.01684248 0.01113885 -0.00418937
v 0.01643162 0.00982893 -0.00893646
v 0.01600283 0.00864381 -0.01077556
v 0.01574319 0.01069909 -0.00971609
v 0.01705074 0.00546753 -0.01038926
v 0.01683533 0.00302756 -0.01157045
v 0.01642864 0.00594378 -0.01130449
v 0.01683533 0.00302756 -0.01157045
v 0.01629132 0.00000000 -0.01281267
v 0.01606637 0.00333995 -0.01274466
v 0.01703763 0.00000000 -0.01163482
v 0.01742631 0.00278950 -0.01063597
v 0.01761585 0.00000000 -0.01069498
v 0.01642864 0.00594378 -0.01130449
v 0.01606637 0.00333995 -0.01274466
v 0.01561290 0.00654864 -0.01244592
v 0.01600283 0.00864381 -0.01077556
v 0.01561290 0.00654864 -0.01244592
v 0.01515257 0.00952321 -0.01185929
v 0.01642864 0.00594378 -0.01130449
v 0.01667553 0.00794804 -0.00990343
v 0.01705074 0.00546753 -0.01038926
v 0.01574319 0.01069909 -0.00971609
v 0.01515257 0.00952321 -0.01185929
v 0.01486676 0.01179677 -0.01069599
v 0.01512074 0.01296734 -0.00786865
v 0.01574319 0.01069909 -0.00971609
v 0.01486676 0.01179677 -0.01069599
v 0.01598113 0.01177155 -0.00708371
v 0.01643162 0.00982893 -0.00893646
v 0.01574319 0.01069909 -0.00971609
v 0.01598113 0.01177155 -0.00708371
v 0.01534390 0.01336532 -0.00516170
v 0.01633167 0.01229214 0.00257111
v 0.01562827 0.01363915 -0.00016101
v 0.01550972 0.01355892 0.00285262
v 0.01643741 0.01236778 -0.00016167
v 0.01696252 0.01128941 0.00235450
v 0.01706314 0.01135903 -0.00016201
v 0.01610648 0.01205801 0.00518024
v 0.01550972 0.01355892 0.00285262
v 0.01525932 0.01329892 0.00572508
v 0.01549232 0.01355630 -0.00317401
v 0.01618987 0.01212108 -0.00461751
v 0.01534390 0.01336532 -0.00516170
v 0.01631593 0.01229017 -0.00289374
v 0.01684248 0.01113885 -0.00418937
v 0.01618987 0.01212108 -0.00461751
v 0.01631593 0.01229017 -0.00289374
v 0.01562827 0.01363915 -0.00016101
v 0.01643741 0.01236778 -0.00016167
v 0.01586508 0.01169061 0.00754464
v 0.01525932 0.01329892 0.00572508
v 0.01499855 0.01288312 0.00832886
v 0.01610648 0.01205801 0.00518024
v 0.01654767 0.01073229 0.00692087
v 0.01675444 0.01107513 0.00475150
v 0.01570987 0.01070505 0.00938845
v 0.01499855 0.01288312 0.00832886
v 0.01482981 0.01180267 0.01036834
v 0.01486808 0.00953054 0.01152998
v 0.01570987 0.01070505 0.00938845
v 0.01482981 0.01180267 0.01036834
v 0.01574617 0.00864971 0.01044523
v 0.01639795 0.00983226 0.00860810
v 0.01570987 0.01070505 0.00938845
v 0.01574617 0.00864971 0.01044523
v 0.01499038 0.00655591 0.01211524
v 0.01586407 0.00594908 0.01097357
v 0.01507979 0.00334322 0.01241046
v 0.01586407 0.00594908 0.01097357
v 0.01499038 0.00655591 0.01211524
v 0.01594382 0.00303221 0.01123815
v 0.01653289 0.00547290 0.01005893
v 0.01586407 0.00594908 0.01097357
v 0.01594382 0.00303221 0.01123815
v 0.01511758 0.00000000 0.01248002
v 0.01597487 0.00000000 0.01130080
v 0.01631593 -0.01229017 -0.00289374
v 0.01562827 -0.01363855 -0.00016101
v 0.01549232 -0.01355630 -0.00317401
v 0.01643741 -0.01236784 -0.00016167
v 0.01694965 -0.01128876 -0.00267822
v 0.01706314 -0.01135903 -0.00016201
v 0.01618987 -0.01212114 -0.00461751
v 0.01549232 -0.01355630 -0.00317401
v 0.01534390 -0.01336532 -0.00516170
v 0.01499855 -0.01288318 0.00832886
v 0.01570987 -0.01070511 0.00938845
v 0.01482981 -0.01180273 0.01036834
v 0.01586508 -0.01169133 0.00754464
v 0.01639795 -0.00983298 0.00860810
v 0.01570987 -0.01070511 0.00938845
v 0.01586508 -0.01169133 0.00754464
v 0.01525932 -0.01329898 0.00572508
v 0.01610648 -0.01205742 0.00518024
v 0.01606637 -0.00334060 -0.01274466
v 0.01642864 -0.00594312 -0.01130449
v 0.01561290 -0.00654936 -0.01244592
v 0.01683533 -0.00302762 -0.01157081
v 0.01705074 -0.00546759 -0.01038926
v 0.01642864 -0.00594312 -0.01130449
v 0.01683533 -0.00302762 -0.01157081
v 0.01629132 0.00000000 -0.01281267
v 0.01703763 0.00000000 -0.01163482
v 0.01594382 -0.00303227 0.01123815
v 0.01511758 0.00000000 0.01248002
v 0.01507979 -0.00334263 0.01241046
v 0.01597487 0.00000000 0.01130080
v 0.01660817 -0.00279218 0.01030433
v 0.01663988 0.00000000 0.01036304
v 0.01586407 -0.00594914 0.01097357
v 0.01507979 -0.00334263 0.01241046
v 0.01499038 -0.00655663 0.01211524
v 0.01550972 -0.01355832 0.00285262
v 0.01610648 -0.01205742 0.00518024
v 0.01525932 -0.01329898 0.00572508
v 0.01633167 -0.01229220 0.00257111
v 0.01675444 -0.01107519 0.00475150
v 0.01610648 -0.01205742 0.00518024
v 0.01633167 -0.01229220 0.00257111
v 0.01562827 -0.01363855 -0.00016101
v 0.01643741 -0.01236784 -0.00016167
v 0.01598113 -0.01177221 -0.00708371
v 0.01534390 -0.01336532 -0.00516170
v 0.01512074 -0.01296740 -0.00786865
v 0.01618987 -0.01212114 -0.00461751
v 0.01667171 -0.01081192 -0.00646192
v 0.01684248 -0.01113891 -0.00418937
v 0.01574319 -0.01069915 -0.00971609
v 0.01512074 -0.01296740 -0.00786865
v 0.01486676 -0.01179683 -0.01069599
v 0.01574617 -0.00864977 0.01044523
v 0.01499038 -0.00655663 0.01211524
v 0.01486808 -0.00953054 0.01152998
v 0.01586407 -0.00594914 0.01097357
v 0.01643693 -0.00795138 0.00957346
v 0.01653289 -0.00547290 0.01005893
v 0.01570987 -0.01070511 0.00938845
v 0.01486808 -0.00953054 0.01152998
v 0.01482981 -0.01180273 0.01036834
v 0.01515257 -0.00952327 -0.01185929
v 0.01574319 -0.01069915 -0.00971609
v 0.01486676 -0.01179683 -0.01069599
v 0.01600283 -0.00864315 -0.01077556
v 0.01643162 -0.00982833 -0.00893646
v 0.01574319 -0.01069915 -0.00971609
v 0.01600283 -0.00864315 -0.01077556
v 0.01561290 -0.00654936 -0.01244592
v 0.01642864 -0.00594312 -0.01130449
v 0.01667553 -0.00794804 -0.00990343
v 0.01600283 -0.00864315 -0.01077556
v 0.01642864 -0.00594312 -0.01130449
v 0.01639795 -0.00983298 0.00860810
v 0.01643693 -0.00795138 0.00957346
v 0.01574617 -0.00864977 0.01044523
v 0.01667171 -0.01081192 -0.00646192
v 0.01696252 -0.01129007 0.00235450
v 0.01633167 -0.01229220 0.00257111
v 0.01643741 -0.01236784 -0.00016167
v 0.01653289 -0.00547290 0.01005893
v 0.01660817 -0.00279218 0.01030433
v 0.01594382 -0.00303227 0.01123815
v 0.01683533 -0.00302762 -0.01157081
v 0.01654767 -0.01073235 0.00692087
v 0.01586508 -0.01169133 0.00754464
v 0.01610648 -0.01205742 0.00518024
v 0.01684248 -0.01113891 -0.00418937
v 0.01694965 -0.01128876 -0.00267822
v 0.01631593 -0.01229017 -0.00289374
v 0.01594382 0.00303221 0.01123815
v 0.01574617 0.00864971 0.01044523
v 0.01639795 0.00983226 0.00860810
v 0.01654767 0.01073229 0.00692087
v 0.01586508 0.01169061 0.00754464
v 0.01631593 0.01229017 -0.00289374
v 0.01696252 0.01128941 0.00235450
v 0.01643162 0.00982893 -0.00893646
v 0.01667553 0.00794804 -0.00990343
v 0.01600283 0.00864381 -0.01077556
v 0.01705074 0.00546753 -0.01038926
v 0.01742631 0.00278950 -0.01063597
v 0.01683533 0.00302756 -0.01157045
v 0.01703763 0.00000000 -0.01163482
v 0.01683533 0.00302756 -0.01157045
v 0.01642864 0.00594378 -0.01130449
v 0.01683533 0.00302756 -0.01157045
v 0.01606637 0.00333995 -0.01274466
v 0.01642864 0.00594378 -0.01130449
v 0.01642864 0.00594378 -0.01130449
v 0.01600283 0.00864381 -0.01077556
v 0.01667553 0.00794804 -0.00990343
v 0.01574319 0.01069909 -0.00971609
v 0.01600283 0.00864381 -0.01077556
v 0.01515257 0.00952321 -0.01185929
v 0.01512074 0.01296734 -0.00786865
v 0.01667171 0.01081186 -0.00646192
v 0.01598113 0.01177155 -0.00708371
v 0.01512074 0.01296734 -0.00786865
v 0.01534390 0.01336532 -0.00516170
v 0.01643741 0.01236778 -0.00016167
v 0.01643741 0.01236778 -0.00016167
v 0.01633167 0.01229214 0.00257111
v 0.01696252 0.01128941 0.00235450
v 0.01633167 0.01229214 0.00257111
v 0.01631593 0.01229017 -0.00289374
v 0.01631593 0.01229017 -0.00289374
v 0.01694965 0.01128804 -0.00267822
v 0.01684248 0.01113885 -0.00418937
v 0.01549232 0.01355630 -0.00317401
v 0.01610648 0.01205801 0.00518024
v 0.01610648 0.01205801 0.00518024
v 0.01586508 0.01169061 0.00754464
v 0.01654767 0.01073229 0.00692087
v 0.01570987 0.01070505 0.00938845
v 0.01586508 0.01169061 0.00754464
v 0.01499855 0.01288312 0.00832886
v 0.01574617 0.00864971 0.01044523
v 0.01574617 0.00864971 0.01044523
v 0.01643693 0.00795132 0.00957346
v 0.01639795 0.00983226 0.00860810
v 0.01486808 0.00953054 0.01152998
v 0.01507979 0.00334322 0.01241046
v 0.01594382 0.00303221 0.01123815
v 0.01586407 0.00594908 0.01097357
v 0.01594382 0.00303221 0.01123815
v 0.01660817 0.00279277 0.01030433
v 0.01653289 0.00547290 0.01005893
v 0.01507979 0.00334322 0.01241046
v 0.01643741 -0.01236784 -0.00016167
v 0.01631593 -0.01229017 -0.00289374
v 0.01631593 -0.01229017 -0.00289374
v 0.01499855 -0.01288318 0.00832886
v 0.01586508 -0.01169133 0.00754464
v 0.01570987 -0.01070511 0.00938845
v 0.01586508 -0.01169133 0.00754464
v 0.01654767 -0.01073235 0.00692087
v 0.01639795 -0.00983298 0.00860810
v 0.01586508 -0.01169133 0.00754464
v 0.01499855 -0.01288318 0.00832886
v 0.01525932 -0.01329898 0.00572508
v 0.01606637 -0.00334060 -0.01274466
v 0.01683533 -0.00302762 -0.01157081
v 0.01642864 -0.00594312 -0.01130449
v 0.01683533 -0.00302762 -0.01157081
v 0.01742631 -0.00278884 -0.01063597
v 0.01705074 -0.00546759 -0.01038926
v 0.01606637 -0.00334060 -0.01274466
v 0.01597487 0.00000000 0.01130080
v 0.01594382 -0.00303227 0.01123815
v 0.01586407 -0.00594914 0.01097357
v 0.01594382 -0.00303227 0.01123815
v 0.01507979 -0.00334263 0.01241046
v 0.01633167 -0.01229220 0.00257111
v 0.01696252 -0.01129007 0.00235450
v 0.01550972 -0.01355832 0.00285262
v 0.01598113 -0.01177221 -0.00708371
v 0.01534390 -0.01336532 -0.00516170
v 0.01512074 -0.01296740 -0.00786865
v 0.01586407 -0.00594914 0.01097357
v 0.01574617 -0.00864977 0.01044523
v 0.01574617 -0.00864977 0.01044523
v 0.01515257 -0.00952327 -0.01185929
v 0.01600283 -0.00864315 -0.01077556
v 0.01574319 -0.01069915 -0.00971609
v 0.01600283 -0.00864315 -0.01077556
v 0.01667553 -0.00794804 -0.00990343
v 0.01643162 -0.00982833 -0.00893646
v 0.01515257 -0.00952327 -0.01185929
v 0.01794826 -0.00284326 0.00474811
v 0.01734220 -0.00542188 0.00710094
v 0.01773405 -0.00556904 0.00468379
v 0.01810789 -0.00558102 -0.00411880
v 0.01845991 -0.00289631 -0.00261855
v 0.01818305 -0.00567520 -0.00259537
v 0.01743507 -0.00808269 0.00462079
v 0.01692903 -0.00963068 0.00666887
v 0.01715534 -0.00993711 0.00458336
v 0.01818305 -0.00567520 -0.00259537
v 0.01768380 -0.00810259 -0.00405741
v 0.01810789 -0.00558102 -0.00411880
v 0.01782637 -0.00829494 -0.00016300
v 0.01736992 -0.01012879 0.00227064
v 0.01748073 -0.01019376 -0.00016300
v 0.01845365 -0.00292015 -0.00016300
v 0.01803201 -0.00567520 0.00226933
v 0.01819747 -0.00571829 -0.00016300
v 0.01810789 -0.00558102 -0.00411880
v 0.01729184 -0.00787514 -0.00639164
v 0.01732450 -0.00543910 -0.00662941
v 0.01734220 0.00542182 0.00710094
v 0.01794826 0.00284386 0.00474811
v 0.01773405 0.00556970 0.00468379
v 0.01810789 0.00558096 -0.00411880
v 0.01845991 0.00289690 -0.00261855
v 0.01839613 0.00284851 -0.00418210
v 0.01692903 0.00962996 0.00666887
v 0.01743507 0.00808269 0.00462079
v 0.01715534 0.00993705 0.00458336
v 0.01768380 0.00810254 -0.00405741
v 0.01818305 0.00567514 -0.00259537
v 0.01810789 0.00558096 -0.00411880
v 0.01736992 0.01012873 0.00227064
v 0.01782637 0.00829488 -0.00016300
v 0.01748073 0.01019370 -0.00016300
v 0.01803201 0.00567579 0.00226933
v 0.01845365 0.00291944 -0.00016300
v 0.01819747 0.00571823 -0.00016300
v 0.01810789 0.00558096 -0.00411880
v 0.01729184 0.00787508 -0.00639164
v 0.01768380 0.00810254 -0.00405741
v 0.01745051 -0.00530380 -0.00927597
v 0.01694476 -0.00766623 -0.00952512
v 0.01731187 -0.00529051 -0.01000189
v 0.01685941 -0.00766820 0.00854146
v 0.01668101 -0.00946021 0.00826657
v 0.01680004 -0.00903511 0.00791508
v 0.01708644 -0.00965786 -0.00619799
v 0.01672047 -0.00945759 -0.00859356
v 0.01688641 -0.00903445 -0.00824171
v 0.01748073 -0.01019376 -0.00016300
v 0.01722866 -0.01087492 0.00228024
v 0.01733130 -0.01094126 -0.00016268
v 0.01707959 -0.00271517 0.00915921
v 0.01681679 -0.00529319 0.00967395
v 0.01698625 -0.00530380 0.00894970
v 0.01797544 0.00000000 -0.00954098
v 0.01767849 -0.00270396 -0.01023870
v 0.01786619 0.00000000 -0.01029407
v 0.01715534 -0.00993711 0.00458336
v 0.01681214 -0.01032644 0.00666487
v 0.01702308 -0.01066935 0.00459528
v 0.01738703 -0.01012879 -0.00259668
v 0.01711708 -0.01071441 -0.00403350
v 0.01728969 -0.00995964 -0.00402027
v 0.01711839 0.00000000 0.00921398
v 0.01689195 0.00270653 0.00991237
v 0.01692473 0.00000000 0.00997275
v 0.01698625 0.00530308 0.00894970
v 0.01671451 0.00766879 0.00919706
v 0.01681679 0.00529379 0.00967395
v 0.01692903 0.00962996 0.00666887
v 0.01668101 0.00946015 0.00826657
v 0.01680004 0.00903505 0.00791508
v 0.01748073 0.01019370 -0.00016300
v 0.01722002 0.01087486 -0.00260526
v 0.01733130 0.01094120 -0.00016268
v 0.01736992 0.01012873 0.00227064
v 0.01702308 0.01066988 0.00459528
v 0.01715534 0.00993705 0.00458336
v 0.01728969 0.00996089 -0.00402027
v 0.01692706 0.01037877 -0.00619829
v 0.01711708 0.01071435 -0.00403350
v 0.01708191 0.00766748 -0.00886810
v 0.01672047 0.00945753 -0.00859356
v 0.01688641 0.00903440 -0.00824171
v 0.01780074 0.00271583 -0.00948661
v 0.01731187 0.00529045 -0.01000189
v 0.01745051 0.00530374 -0.00927597
v 0.01767849 0.00270456 -0.01023870
v 0.01767849 0.00270456 -0.01023870
v 0.01797544 0.00000000 -0.00954098
v 0.01786619 0.00000000 -0.01029407
v 0.01731187 0.00529045 -0.01000189
v 0.01694476 0.00766617 -0.00952512
v 0.01705074 0.00546753 -0.01038926
v 0.01667553 0.00794804 -0.00990343
v 0.01694476 0.00766617 -0.00952512
v 0.01745051 0.00530374 -0.00927597
v 0.01731187 0.00529045 -0.01000189
v 0.01672047 0.00945753 -0.00859356
v 0.01667553 0.00794804 -0.00990343
v 0.01643162 0.00982893 -0.00893646
v 0.01667171 0.01081186 -0.00646192
v 0.01672047 0.00945753 -0.00859356
v 0.01643162 0.00982893 -0.00893646
v 0.01672047 0.00945753 -0.00859356
v 0.01708644 0.00965852 -0.00619799
v 0.01688641 0.00903440 -0.00824171
v 0.01692706 0.01037877 -0.00619829
v 0.01684248 0.01113885 -0.00418937
v 0.01711708 0.01071435 -0.00403350
v 0.01722866 0.01087421 0.00228024
v 0.01706314 0.01135903 -0.00016201
v 0.01696252 0.01128941 0.00235450
v 0.01722866 0.01087421 0.00228024
v 0.01748073 0.01019370 -0.00016300
v 0.01733130 0.01094120 -0.00016268
v 0.01702308 0.01066988 0.00459528
v 0.01696252 0.01128941 0.00235450
v 0.01675444 0.01107513 0.00475150
v 0.01711708 0.01071435 -0.00403350
v 0.01711708 0.01071435 -0.00403350
v 0.01738703 0.01012939 -0.00259668
v 0.01728969 0.00996089 -0.00402027
v 0.01722002 0.01087486 -0.00260526
v 0.01706314 0.01135903 -0.00016201
v 0.01733130 0.01094120 -0.00016268
v 0.01681214 0.01032704 0.00666487
v 0.01675444 0.01107513 0.00475150
v 0.01654767 0.01073229 0.00692087
v 0.01681214 0.01032704 0.00666487
v 0.01715534 0.00993705 0.00458336
v 0.01702308 0.01066988 0.00459528
v 0.01668101 0.00946015 0.00826657
v 0.01654767 0.01073229 0.00692087
v 0.01639795 0.00983226 0.00860810
v 0.01643693 0.00795132 0.00957346
v 0.01668101 0.00946015 0.00826657
v 0.01639795 0.00983226 0.00860810
v 0.01668101 0.00946015 0.00826657
v 0.01685941 0.00766814 0.00854146
v 0.01680004 0.00903505 0.00791508
v 0.01671451 0.00766879 0.00919706
v 0.01681679 0.00529379 0.00967395
v 0.01660817 0.00279277 0.01030433
v 0.01681679 0.00529379 0.00967395
v 0.01653289 0.00547290 0.01005893
v 0.01681679 0.00529379 0.00967395
v 0.01707959 0.00271583 0.00915921
v 0.01698625 0.00530308 0.00894970
v 0.01689195 0.00270653 0.00991237
v 0.01663988 0.00000000 0.01036304
v 0.01692473 0.00000000 0.00997275
v 0.01722002 -0.01087558 -0.00260526
v 0.01706314 -0.01135903 -0.00016201
v 0.01694965 -0.01128876 -0.00267822
v 0.01722002 -0.01087558 -0.00260526
v 0.01748073 -0.01019376 -0.00016300
v 0.01733130 -0.01094126 -0.00016268
v 0.01711708 -0.01071441 -0.00403350
v 0.01654767 -0.01073235 0.00692087
v 0.01668101 -0.00946021 0.00826657
v 0.01639795 -0.00983298 0.00860810
v 0.01668101 -0.00946021 0.00826657
v 0.01692903 -0.00963068 0.00666887
v 0.01680004 -0.00903511 0.00791508
v 0.01681214 -0.01032644 0.00666487
v 0.01675444 -0.01107519 0.00475150
v 0.01702308 -0.01066935 0.00459528
v 0.01731187 -0.00529051 -0.01000189
v 0.01731187 -0.00529051 -0.01000189
v 0.01780074 -0.00271517 -0.00948661
v 0.01745051 -0.00530380 -0.00927597
v 0.01767849 -0.00270396 -0.01023870
v 0.01761585 0.00000000 -0.01069498
v 0.01786619 0.00000000 -0.01029407
v 0.01689195 -0.00270659 0.00991237
v 0.01663988 0.00000000 0.01036304
v 0.01660817 -0.00279218 0.01030433
v 0.01689195 -0.00270659 0.00991237
v 0.01711839 0.00000000 0.00921398
v 0.01692473 0.00000000 0.00997275
v 0.01681679 -0.00529319 0.00967395
v 0.01660817 -0.00279218 0.01030433
v 0.01653289 -0.00547290 0.01005893
v 0.01696252 -0.01129007 0.00235450
v 0.01702308 -0.01066935 0.00459528
v 0.01675444 -0.01107519 0.00475150
v 0.01702308 -0.01066935 0.00459528
v 0.01736992 -0.01012879 0.00227064
v 0.01715534 -0.00993711 0.00458336
v 0.01722866 -0.01087492 0.00228024
v 0.01706314 -0.01135903 -0.00016201
v 0.01733130 -0.01094126 -0.00016268
v 0.01692706 -0.01037883 -0.00619829
v 0.01684248 -0.01113891 -0.00418937
v 0.01667171 -0.01081192 -0.00646192
v 0.01692706 -0.01037883 -0.00619829
v 0.01728969 -0.00995964 -0.00402027
v 0.01711708 -0.01071441 -0.00403350
v 0.01672047 -0.00945759 -0.00859356
v 0.01667171 -0.01081192 -0.00646192
v 0.01643162 -0.00982833 -0.00893646
v 0.01671451 -0.00766951 0.00919706
v 0.01653289 -0.00547290 0.01005893
v 0.01643693 -0.00795138 0.00957346
v 0.01671451 -0.00766951 0.00919706
v 0.01698625 -0.00530380 0.00894970
v 0.01681679 -0.00529319 0.00967395
v 0.01668101 -0.00946021 0.00826657
v 0.01643693 -0.00795138 0.00957346
v 0.01639795 -0.00983298 0.00860810
v 0.01667553 -0.00794804 -0.00990343
v 0.01672047 -0.00945759 -0.00859356
v 0.01643162 -0.00982833 -0.00893646
v 0.01672047 -0.00945759 -0.00859356
v 0.01708191 -0.00766754 -0.00886810
v 0.01688641 -0.00903445 -0.00824171
v 0.01694476 -0.00766623 -0.00952512
v 0.01705074 -0.00546759 -0.01038926
v 0.01731187 -0.00529051 -0.01000189
v 0.01839613 0.00284851 -0.00418210
v 0.01732450 0.00543904 -0.00662941
v 0.01810789 0.00558096 -0.00411880
v 0.01700550 0.00278217 -0.00706452
v 0.01745051 0.00530374 -0.00927597
v 0.01732450 0.00543904 -0.00662941
v 0.01729184 0.00787508 -0.00639164
v 0.01688641 0.00903440 -0.00824171
v 0.01708644 0.00965852 -0.00619799
v 0.01708191 0.00766748 -0.00886810
v 0.01732450 0.00543904 -0.00662941
v 0.01745051 0.00530374 -0.00927597
v 0.01768380 0.00810254 -0.00405741
v 0.01708644 0.00965852 -0.00619799
v 0.01728969 0.00996089 -0.00402027
v 0.01836860 0.00000000 0.00230813
v 0.01794826 0.00284386 0.00474811
v 0.01803386 0.00000000 0.00477928
v 0.01827359 0.00289690 0.00229251
v 0.01773405 0.00556970 0.00468379
v 0.01794826 0.00284386 0.00474811
v 0.01827359 0.00289690 0.00229251
v 0.01855230 0.00000000 -0.00016300
v 0.01845365 0.00291944 -0.00016300
v 0.01803201 0.00567579 0.00226933
v 0.01743507 0.00808269 0.00462079
v 0.01773405 0.00556970 0.00468379
v 0.01768893 0.00823784 0.00226468
v 0.01715534 0.00993705 0.00458336
v 0.01743507 0.00808269 0.00462079
v 0.01768893 0.00823784 0.00226468
v 0.01819747 0.00571823 -0.00016300
v 0.01782637 0.00829488 -0.00016300
v 0.01782637 0.00829488 -0.00016300
v 0.01738703 0.01012939 -0.00259668
v 0.01748073 0.01019370 -0.00016300
v 0.01777130 0.00823849 -0.00259066
v 0.01728969 0.00996089 -0.00402027
v 0.01738703 0.01012939 -0.00259668
v 0.01777130 0.00823849 -0.00259066
v 0.01819747 0.00571823 -0.00016300
v 0.01818305 0.00567514 -0.00259537
v 0.01734220 0.00542182 0.00710094
v 0.01685941 0.00766814 0.00854146
v 0.01698625 0.00530308 0.00894970
v 0.01713168 0.00785053 0.00686288
v 0.01680004 0.00903505 0.00791508
v 0.01685941 0.00766814 0.00854146
v 0.01713168 0.00785053 0.00686288
v 0.01773405 0.00556970 0.00468379
v 0.01743507 0.00808269 0.00462079
v 0.01845991 0.00289690 -0.00261855
v 0.01855230 0.00000000 -0.00016300
v 0.01856470 0.00000000 -0.00263411
v 0.01845365 0.00291944 -0.00016300
v 0.01818305 0.00567514 -0.00259537
v 0.01819747 0.00571823 -0.00016300
v 0.01839613 0.00284851 -0.00418210
v 0.01856470 0.00000000 -0.00263411
v 0.01850801 0.00000000 -0.00421298
v 0.01755714 0.00000000 0.00728500
v 0.01707959 0.00271583 0.00915921
v 0.01711839 0.00000000 0.00921398
v 0.01749408 0.00277287 0.00724053
v 0.01698625 0.00530308 0.00894970
v 0.01707959 0.00271583 0.00915921
v 0.01749408 0.00277287 0.00724053
v 0.01803386 0.00000000 0.00477928
v 0.01794826 0.00284386 0.00474811
v 0.01732450 -0.00543910 -0.00662941
v 0.01839613 -0.00284851 -0.00418210
v 0.01810789 -0.00558102 -0.00411880
v 0.01700550 -0.00278157 -0.00706452
v 0.01745051 -0.00530380 -0.00927597
v 0.01780074 -0.00271517 -0.00948661
v 0.01729184 -0.00787514 -0.00639164
v 0.01688641 -0.00903445 -0.00824171
v 0.01708191 -0.00766754 -0.00886810
v 0.01708644 -0.00965786 -0.00619799
v 0.01768380 -0.00810259 -0.00405741
v 0.01728969 -0.00995964 -0.00402027
v 0.01732450 -0.00543910 -0.00662941
v 0.01708191 -0.00766754 -0.00886810
v 0.01745051 -0.00530380 -0.00927597
v 0.01794826 -0.00284326 0.00474811
v 0.01836860 0.00000000 0.00230813
v 0.01803386 0.00000000 0.00477928
v 0.01827359 -0.00289690 0.00229251
v 0.01855230 0.00000000 -0.00016300
v 0.01836860 0.00000000 0.00230813
v 0.01827359 -0.00289690 0.00229251
v 0.01773405 -0.00556904 0.00468379
v 0.01803201 -0.00567520 0.00226933
v 0.01743507 -0.00808269 0.00462079
v 0.01803201 -0.00567520 0.00226933
v 0.01773405 -0.00556904 0.00468379
v 0.01768893 -0.00823790 0.00226468
v 0.01819747 -0.00571829 -0.00016300
v 0.01803201 -0.00567520 0.00226933
v 0.01768893 -0.00823790 0.00226468
v 0.01715534 -0.00993711 0.00458336
v 0.01736992 -0.01012879 0.00227064
v 0.01738703 -0.01012879 -0.00259668
v 0.01782637 -0.00829494 -0.00016300
v 0.01748073 -0.01019376 -0.00016300
v 0.01777130 -0.00823855 -0.00259066
v 0.01819747 -0.00571829 -0.00016300
v 0.01782637 -0.00829494 -0.00016300
v 0.01777130 -0.00823855 -0.00259066
v 0.01728969 -0.00995964 -0.00402027
v 0.01768380 -0.00810259 -0.00405741
v 0.01685941 -0.00766820 0.00854146
v 0.01734220 -0.00542188 0.00710094
v 0.01698625 -0.00530380 0.00894970
v 0.01713168 -0.00785124 0.00686288
v 0.01773405 -0.00556904 0.00468379
v 0.01734220 -0.00542188 0.00710094
v 0.01713168 -0.00785124 0.00686288
v 0.01680004 -0.00903511 0.00791508
v 0.01692903 -0.00963068 0.00666887
v 0.01845991 -0.00289631 -0.00261855
v 0.01855230 0.00000000 -0.00016300
v 0.01845365 -0.00292015 -0.00016300
v 0.01856470 0.00000000 -0.00263411
v 0.01839613 -0.00284851 -0.00418210
v 0.01850801 0.00000000 -0.00421298
v 0.01818305 -0.00567520 -0.00259537
v 0.01845365 -0.00292015 -0.00016300
v 0.01819747 -0.00571829 -0.00016300
v 0.01707959 -0.00271517 0.00915921
v 0.01755714 0.00000000 0.00728500
v 0.01711839 0.00000000 0.00921398
v 0.01749408 -0.00277293 0.00724053
v 0.01803386 0.00000000 0.00477928
v 0.01755714 0.00000000 0.00728500
v 0.01749408 -0.00277293 0.00724053
v 0.01698625 -0.00530380 0.00894970
v 0.01734220 -0.00542188 0.00710094
v 0.01700550 -0.00278157 -0.00706452
v 0.01663291 -0.00129759 -0.00868207
v 0.01663291 -0.00158507 -0.00737602
v 0.01797544 0.00000000 -0.00954098
v 0.01663291 -0.00129759 -0.00868207
v 0.01780074 -0.00271517 -0.00948661
v 0.01797544 0.00000000 -0.00954098
v 0.01663291 0.00129688 -0.00868207
v 0.01663291 0.00000000 -0.00895685
v 0.01700550 0.00278217 -0.00706452
v 0.01663291 0.00129688 -0.00868207
v 0.01780074 0.00271583 -0.00948661
v 0.01700550 0.00278217 -0.00706452
v 0.01663291 0.00136083 -0.00614762
v 0.01663291 0.00158435 -0.00737602
v 0.01850801 0.00000000 -0.00421298
v 0.01663291 0.00136083 -0.00614762
v 0.01839613 0.00284851 -0.00418210
v 0.01700550 -0.00278157 -0.00706452
v 0.01663291 -0.00136125 -0.00614762
v 0.01839613 -0.00284851 -0.00418210
v 0.01850801 0.00000000 -0.00421298
v 0.01663291 -0.00136125 -0.00614762
v 0.01663291 0.00000000 -0.00592142
v 0.01663291 -0.00158507 -0.00737602
v 0.01466649 -0.00128001 -0.00866520
v 0.01466649 -0.00156319 -0.00737685
v 0.01663291 0.00000000 -0.00895685
v 0.01466649 -0.00128001 -0.00866520
v 0.01663291 -0.00129759 -0.00868207
v 0.01663291 0.00000000 -0.00895685
v 0.01466649 0.00127923 -0.00866520
v 0.01466649 0.00000000 -0.00893611
v 0.01663291 0.00158435 -0.00737602
v 0.01466649 0.00127923 -0.00866520
v 0.01663291 0.00129688 -0.00868207
v 0.01663291 0.00158435 -0.00737602
v 0.01466649 0.00134230 -0.00616515
v 0.01466649 0.00156248 -0.00737685
v 0.01663291 0.00000000 -0.00592142
v 0.01466649 0.00134230 -0.00616515
v 0.01663291 0.00136083 -0.00614762
v 0.01663291 -0.00158507 -0.00737602
v 0.01466649 -0.00134301 -0.00616515
v 0.01663291 -0.00136125 -0.00614762
v 0.01663291 0.00000000 -0.00592142
v 0.01466649 -0.00134301 -0.00616515
v 0.01466649 0.00000000 -0.00594199
v 0.01466649 0.00000000 -0.00741565
v 0.01466649 -0.00128001 -0.00866520
v 0.01466649 0.00000000 -0.00893611
v 0.01466649 0.00127923 -0.00866520
v 0.01466649 0.00156248 -0.00737685
v 0.01466649 0.00134230 -0.00616515
v 0.01466649 0.00000000 -0.00594199
v 0.01466649 -0.00134301 -0.00616515
v 0.01466649 -0.00156319 -0.00737685
v 0.01794826 -0.00284326 0.00474811
v 0.01749408 -0.00277293 0.00724053
v 0.01734220 -0.00542188 0.00710094
v 0.01810789 -0.00558102 -0.00411880
v 0.01839613 -0.00284851 -0.00418210
v 0.01845991 -0.00289631 -0.00261855
v 0.01743507 -0.00808269 0.00462079
v 0.01713168 -0.00785124 0.00686288
v 0.01692903 -0.00963068 0.00666887
v 0.01818305 -0.00567520 -0.00259537
v 0.01777130 -0.00823855 -0.00259066
v 0.01768380 -0.00810259 -0.00405741
v 0.01782637 -0.00829494 -0.00016300
v 0.01768893 -0.00823790 0.00226468
v 0.01736992 -0.01012879 0.00227064
v 0.01827359 -0.00289690 0.00229251
v 0.01810789 -0.00558102 -0.00411880
v 0.01768380 -0.00810259 -0.00405741
v 0.01729184 -0.00787514 -0.00639164
v 0.01734220 0.00542182 0.00710094
v 0.01749408 0.00277287 0.00724053
v 0.01794826 0.00284386 0.00474811
v 0.01810789 0.00558096 -0.00411880
v 0.01818305 0.00567514 -0.00259537
v 0.01845991 0.00289690 -0.00261855
v 0.01692903 0.00962996 0.00666887
v 0.01713168 0.00785053 0.00686288
v 0.01743507 0.00808269 0.00462079
v 0.01768380 0.00810254 -0.00405741
v 0.01777130 0.00823849 -0.00259066
v 0.01818305 0.00567514 -0.00259537
v 0.01736992 0.01012873 0.00227064
v 0.01768893 0.00823784 0.00226468
v 0.01782637 0.00829488 -0.00016300
v 0.01827359 0.00289690 0.00229251
v 0.01810789 0.00558096 -0.00411880
v 0.01732450 0.00543904 -0.00662941
v 0.01729184 0.00787508 -0.00639164
v 0.01745051 -0.00530380 -0.00927597
v 0.01708191 -0.00766754 -0.00886810
v 0.01694476 -0.00766623 -0.00952512
v 0.01685941 -0.00766820 0.00854146
v 0.01671451 -0.00766951 0.00919706
v 0.01668101 -0.00946021 0.00826657
v 0.01708644 -0.00965786 -0.00619799
v 0.01692706 -0.01037883 -0.00619829
v 0.01672047 -0.00945759 -0.00859356
v 0.01748073 -0.01019376 -0.00016300
v 0.01736992 -0.01012879 0.00227064
v 0.01722866 -0.01087492 0.00228024
v 0.01707959 -0.00271517 0.00915921
v 0.01689195 -0.00270659 0.00991237
v 0.01681679 -0.00529319 0.00967395
v 0.01797544 0.00000000 -0.00954098
v 0.01780074 -0.00271517 -0.00948661
v 0.01767849 -0.00270396 -0.01023870
v 0.01692903 -0.00963068 0.00666887
v 0.01722002 -0.01087558 -0.00260526
v 0.01711839 0.00000000 0.00921398
v 0.01707959 0.00271583 0.00915921
v 0.01689195 0.00270653 0.00991237
v 0.01698625 0.00530308 0.00894970
v 0.01685941 0.00766814 0.00854146
v 0.01671451 0.00766879 0.00919706
v 0.01692903 0.00962996 0.00666887
v 0.01681214 0.01032704 0.00666487
v 0.01668101 0.00946015 0.00826657
v 0.01748073 0.01019370 -0.00016300
v 0.01738703 0.01012939 -0.00259668
v 0.01722002 0.01087486 -0.00260526
v 0.01736992 0.01012873 0.00227064
v 0.01722866 0.01087421 0.00228024
v 0.01702308 0.01066988 0.00459528
v 0.01692706 0.01037877 -0.00619829
v 0.01708191 0.00766748 -0.00886810
v 0.01694476 0.00766617 -0.00952512
v 0.01672047 0.00945753 -0.00859356
v 0.01780074 0.00271583 -0.00948661
v 0.01767849 0.00270456 -0.01023870
v 0.01731187 0.00529045 -0.01000189
v 0.01767849 0.00270456 -0.01023870
v 0.01786619 0.00000000 -0.01029407
v 0.01761585 0.00000000 -0.01069498
v 0.01767849 0.00270456 -0.01023870
v 0.01780074 0.00271583 -0.00948661
v 0.01797544 0.00000000 -0.00954098
v 0.01767849 0.00270456 -0.01023870
v 0.01694476 0.00766617 -0.00952512
v 0.01731187 0.00529045 -0.01000189
v 0.01705074 0.00546753 -0.01038926
v 0.01694476 0.00766617 -0.00952512
v 0.01708191 0.00766748 -0.00886810
v 0.01745051 0.00530374 -0.00927597
v 0.01694476 0.00766617 -0.00952512
v 0.01667171 0.01081186 -0.00646192
v 0.01692706 0.01037877 -0.00619829
v 0.01672047 0.00945753 -0.00859356
v 0.01672047 0.00945753 -0.00859356
v 0.01692706 0.01037877 -0.00619829
v 0.01708644 0.00965852 -0.00619799
v 0.01692706 0.01037877 -0.00619829
v 0.01667171 0.01081186 -0.00646192
v 0.01684248 0.01113885 -0.00418937
v 0.01722866 0.01087421 0.00228024
v 0.01733130 0.01094120 -0.00016268
v 0.01706314 0.01135903 -0.00016201
v 0.01722866 0.01087421 0.00228024
v 0.01736992 0.01012873 0.00227064
v 0.01748073 0.01019370 -0.00016300
v 0.01722866 0.01087421 0.00228024
v 0.01694965 0.01128804 -0.00267822
v 0.01722002 0.01087486 -0.00260526
v 0.01711708 0.01071435 -0.00403350
v 0.01722002 0.01087486 -0.00260526
v 0.01694965 0.01128804 -0.00267822
v 0.01681214 0.01032704 0.00666487
v 0.01702308 0.01066988 0.00459528
v 0.01675444 0.01107513 0.00475150
v 0.01681214 0.01032704 0.00666487
v 0.01692903 0.00962996 0.00666887
v 0.01715534 0.00993705 0.00458336
v 0.01668101 0.00946015 0.00826657
v 0.01681214 0.01032704 0.00666487
v 0.01654767 0.01073229 0.00692087
v 0.01671451 0.00766879 0.00919706
v 0.01668101 0.00946015 0.00826657
v 0.01671451 0.00766879 0.00919706
v 0.01685941 0.00766814 0.00854146
v 0.01671451 0.00766879 0.00919706
v 0.01643693 0.00795132 0.00957346
v 0.01653289 0.00547290 0.01005893
v 0.01689195 0.00270653 0.00991237
v 0.01681679 0.00529379 0.00967395
v 0.01689195 0.00270653 0.00991237
v 0.01707959 0.00271583 0.00915921
v 0.01689195 0.00270653 0.00991237
v 0.01660817 0.00279277 0.01030433
v 0.01663988 0.00000000 0.01036304
v 0.01733130 -0.01094126 -0.00016268
v 0.01722002 -0.01087558 -0.00260526
v 0.01738703 -0.01012879 -0.00259668
v 0.01748073 -0.01019376 -0.00016300
v 0.01711708 -0.01071441 -0.00403350
v 0.01722002 -0.01087558 -0.00260526
v 0.01694965 -0.01128876 -0.00267822
v 0.01654767 -0.01073235 0.00692087
v 0.01681214 -0.01032644 0.00666487
v 0.01668101 -0.00946021 0.00826657
v 0.01668101 -0.00946021 0.00826657
v 0.01681214 -0.01032644 0.00666487
v 0.01692903 -0.00963068 0.00666887
v 0.01681214 -0.01032644 0.00666487
v 0.01654767 -0.01073235 0.00692087
v 0.01675444 -0.01107519 0.00475150
v 0.01767849 -0.00270396 -0.01023870
v 0.01731187 -0.00529051 -0.01000189
v 0.01767849 -0.00270396 -0.01023870
v 0.01780074 -0.00271517 -0.00948661
v 0.01767849 -0.00270396 -0.01023870
v 0.01689195 -0.00270659 0.00991237
v 0.01692473 0.00000000 0.00997275
v 0.01663988 0.00000000 0.01036304
v 0.01689195 -0.00270659 0.00991237
v 0.01707959 -0.00271517 0.00915921
v 0.01711839 0.00000000 0.00921398
v 0.01689195 -0.00270659 0.00991237
v 0.01722866 -0.01087492 0.00228024
v 0.01702308 -0.01066935 0.00459528
v 0.01722866 -0.01087492 0.00228024
v 0.01736992 -0.01012879 0.00227064
v 0.01722866 -0.01087492 0.00228024
v 0.01696252 -0.01129007 0.00235450
v 0.01706314 -0.01135903 -0.00016201
v 0.01692706 -0.01037883 -0.00619829
v 0.01711708 -0.01071441 -0.00403350
v 0.01684248 -0.01113891 -0.00418937
v 0.01692706 -0.01037883 -0.00619829
v 0.01672047 -0.00945759 -0.00859356
v 0.01692706 -0.01037883 -0.00619829
v 0.01667171 -0.01081192 -0.00646192
v 0.01671451 -0.00766951 0.00919706
v 0.01681679 -0.00529319 0.00967395
v 0.01671451 -0.00766951 0.00919706
v 0.01685941 -0.00766820 0.00854146
v 0.01698625 -0.00530380 0.00894970
v 0.01668101 -0.00946021 0.00826657
v 0.01671451 -0.00766951 0.00919706
v 0.01643693 -0.00795138 0.00957346
v 0.01694476 -0.00766623 -0.00952512
v 0.01672047 -0.00945759 -0.00859356
v 0.01694476 -0.00766623 -0.00952512
v 0.01708191 -0.00766754 -0.00886810
v 0.01694476 -0.00766623 -0.00952512
v 0.01667553 -0.00794804 -0.00990343
v 0.01705074 -0.00546759 -0.01038926
v 0.01839613 0.00284851 -0.00418210
v 0.01700550 0.00278217 -0.00706452
v 0.01732450 0.00543904 -0.00662941
v 0.01700550 0.00278217 -0.00706452
v 0.01780074 0.00271583 -0.00948661
v 0.01745051 0.00530374 -0.00927597
v 0.01729184 0.00787508 -0.00639164
v 0.01708191 0.00766748 -0.00886810
v 0.01688641 0.00903440 -0.00824171
v 0.01708191 0.00766748 -0.00886810
v 0.01729184 0.00787508 -0.00639164
v 0.01732450 0.00543904 -0.00662941
v 0.01768380 0.00810254 -0.00405741
v 0.01729184 0.00787508 -0.00639164
v 0.01708644 0.00965852 -0.00619799
v 0.01827359 0.00289690 0.00229251
v 0.01827359 0.00289690 0.00229251
v 0.01803201 0.00567579 0.00226933
v 0.01773405 0.00556970 0.00468379
v 0.01836860 0.00000000 0.00230813
v 0.01803201 0.00567579 0.00226933
v 0.01768893 0.00823784 0.00226468
v 0.01743507 0.00808269 0.00462079
v 0.01768893 0.00823784 0.00226468
v 0.01736992 0.01012873 0.00227064
v 0.01715534 0.00993705 0.00458336
v 0.01768893 0.00823784 0.00226468
v 0.01803201 0.00567579 0.00226933
v 0.01819747 0.00571823 -0.00016300
v 0.01782637 0.00829488 -0.00016300
v 0.01777130 0.00823849 -0.00259066
v 0.01738703 0.01012939 -0.00259668
v 0.01777130 0.00823849 -0.00259066
v 0.01768380 0.00810254 -0.00405741
v 0.01728969 0.00996089 -0.00402027
v 0.01777130 0.00823849 -0.00259066
v 0.01782637 0.00829488 -0.00016300
v 0.01819747 0.00571823 -0.00016300
v 0.01734220 0.00542182 0.00710094
v 0.01713168 0.00785053 0.00686288
v 0.01685941 0.00766814 0.00854146
v 0.01713168 0.00785053 0.00686288
v 0.01692903 0.00962996 0.00666887
v 0.01680004 0.00903505 0.00791508
v 0.01773405 0.00556970 0.00468379
v 0.01845991 0.00289690 -0.00261855
v 0.01845365 0.00291944 -0.00016300
v 0.01855230 0.00000000 -0.00016300
v 0.01845365 0.00291944 -0.00016300
v 0.01845991 0.00289690 -0.00261855
v 0.01818305 0.00567514 -0.00259537
v 0.01845991 0.00289690 -0.00261855
v 0.01755714 0.00000000 0.00728500
v 0.01749408 0.00277287 0.00724053
v 0.01707959 0.00271583 0.00915921
v 0.01749408 0.00277287 0.00724053
v 0.01734220 0.00542182 0.00710094
v 0.01698625 0.00530308 0.00894970
v 0.01749408 0.00277287 0.00724053
v 0.01755714 0.00000000 0.00728500
v 0.01803386 0.00000000 0.00477928
v 0.01732450 -0.00543910 -0.00662941
v 0.01700550 -0.00278157 -0.00706452
v 0.01839613 -0.00284851 -0.00418210
v 0.01700550 -0.00278157 -0.00706452
v 0.01732450 -0.00543910 -0.00662941
v 0.01745051 -0.00530380 -0.00927597
v 0.01729184 -0.00787514 -0.00639164
v 0.01708644 -0.00965786 -0.00619799
v 0.01688641 -0.00903445 -0.00824171
v 0.01708644 -0.00965786 -0.00619799
v 0.01729184 -0.00787514 -0.00639164
v 0.01768380 -0.00810259 -0.00405741
v 0.01732450 -0.00543910 -0.00662941
v 0.01729184 -0.00787514 -0.00639164
v 0.01708191 -0.00766754 -0.00886810
v 0.01827359 -0.00289690 0.00229251
v 0.01845365 -0.00292015 -0.00016300
v 0.01827359 -0.00289690 0.00229251
v 0.01794826 -0.00284326 0.00474811
v 0.01773405 -0.00556904 0.00468379
v 0.01743507 -0.00808269 0.00462079
v 0.01768893 -0.00823790 0.00226468
v 0.01803201 -0.00567520 0.00226933
v 0.01768893 -0.00823790 0.00226468
v 0.01782637 -0.00829494 -0.00016300
v 0.01819747 -0.00571829 -0.00016300
v 0.01768893 -0.00823790 0.00226468
v 0.01743507 -0.00808269 0.00462079
v 0.01715534 -0.00993711 0.00458336
v 0.01738703 -0.01012879 -0.00259668
v 0.01777130 -0.00823855 -0.00259066
v 0.01782637 -0.00829494 -0.00016300
v 0.01777130 -0.00823855 -0.00259066
v 0.01818305 -0.00567520 -0.00259537
v 0.01819747 -0.00571829 -0.00016300
v 0.01777130 -0.00823855 -0.00259066
v 0.01738703 -0.01012879 -0.00259668
v 0.01728969 -0.00995964 -0.00402027
v 0.01685941 -0.00766820 0.00854146
v 0.01713168 -0.00785124 0.00686288
v 0.01743507 -0.00808269 0.00462079
v 0.01773405 -0.00556904 0.00468379
v 0.01713168 -0.00785124 0.00686288
v 0.01685941 -0.00766820 0.00854146
v 0.01680004 -0.00903511 0.00791508
v 0.01845991 -0.00289631 -0.00261855
v 0.01856470 0.00000000 -0.00263411
v 0.01855230 0.00000000 -0.00016300
v 0.01845991 -0.00289631 -0.00261855
v 0.01818305 -0.00567520 -0.00259537
v 0.01845991 -0.00289631 -0.00261855
v 0.01845365 -0.00292015 -0.00016300
v 0.01707959 -0.00271517 0.00915921
v 0.01749408 -0.00277293 0.00724053
v 0.01755714 0.00000000 0.00728500
v 0.01749408 -0.00277293 0.00724053
v 0.01794826 -0.00284326 0.00474811
v 0.01803386 0.00000000 0.00477928
v 0.01749408 -0.00277293 0.00724053
v 0.01707959 -0.00271517 0.00915921
v 0.01698625 -0.00530380 0.00894970
v 0.01700550 -0.00278157 -0.00706452
v 0.01780074 -0.00271517 -0.00948661
v 0.01663291 -0.00129759 -0.00868207
v 0.01797544 0.00000000 -0.00954098
v 0.01663291 0.00000000 -0.00895685
v 0.01663291 -0.00129759 -0.00868207
v 0.01797544 0.00000000 -0.00954098
v 0.01780074 0.00271583 -0.00948661
v 0.01663291 0.00129688 -0.00868207
v 0.01700550 0.00278217 -0.00706452
v 0.01663291 0.00158435 -0.00737602
v 0.01663291 0.00129688 -0.00868207
v 0.01700550 0.00278217 -0.00706452
v 0.01839613 0.00284851 -0.00418210
v 0.01663291 0.00136083 -0.00614762
v 0.01850801 0.00000000 -0.00421298
v 0.01663291 0.00000000 -0.00592142
v 0.01663291 0.00136083 -0.00614762
v 0.01700550 -0.00278157 -0.00706452
v 0.01663291 -0.00158507 -0.00737602
v 0.01663291 -0.00136125 -0.00614762
v 0.01850801 0.00000000 -0.00421298
v 0.01839613 -0.00284851 -0.00418210
v 0.01663291 -0.00136125 -0.00614762
v 0.01663291 -0.00129759 -0.00868207
v 0.01466649 0.00000000 -0.00893611
v 0.01663291 0.00129688 -0.00868207
v 0.01466649 0.00156248 -0.00737685
v 0.01663291 0.00136083 -0.00614762
v 0.01466649 0.00000000 -0.00594199
v 0.01466649 -0.00156319 -0.00737685
v 0.01663291 -0.00136125 -0.00614762
v -0.01024806 -0.01715016 -0.01009446
v -0.01267945 -0.01715016 0.00000115
v -0.01201641 -0.01715016 -0.00584513
v 0.00000078 -0.01715016 -0.01257693
v -0.00584561 -0.01715016 -0.01201581
v 0.00914454 -0.01715016 -0.00994122
v 0.00584716 -0.01715016 -0.01201581
v 0.01065444 -0.01715016 0.00000115
v 0.01056730 -0.01715016 -0.00584513
v 0.00899154 -0.01715016 0.00979102
v 0.01056730 -0.01715016 0.00584775
v 0.00000078 -0.01715016 0.01263058
v 0.00584716 -0.01715016 0.01201844
v -0.00948280 -0.01715016 0.00979102
v -0.00584561 -0.01715016 0.01201844
v -0.01201641 -0.01715016 0.00584775
v 0.01052421 -0.01715016 -0.01132470
v 0.01328033 -0.01619279 -0.00726008
v 0.01222765 -0.01715016 -0.00665986
v 0.01052421 -0.01715016 -0.01132470
v 0.00724661 -0.01619279 -0.01474446
v 0.01142030 -0.01619696 -0.01223003
v 0.00878048 -0.00999486 -0.01670414
v 0.01200371 0.00000000 -0.01444900
v 0.01162219 -0.01105070 -0.01406753
v 0.01162219 -0.01105070 -0.01406753
v 0.01359730 0.00000000 -0.00903225
v 0.01359730 -0.01184320 -0.00879383
v 0.01034992 -0.01715016 0.01114565
v 0.00724661 -0.01619279 0.01473665
v 0.00665134 -0.01715016 0.01368248
v 0.01034992 -0.01715016 0.01114565
v 0.01328033 -0.01619279 0.00725216
v 0.01125580 -0.01621037 0.01205754
v 0.01320421 -0.01093322 0.01405984
v 0.01420414 0.00000000 0.00902462
v 0.01358550 0.00000000 0.01444125
v 0.00878048 -0.00999486 0.01669621
v 0.01358550 0.00000000 0.01444125
v 0.00901878 0.00000000 0.01714915
v -0.01080578 -0.01715016 0.01114565
v -0.01475024 -0.01619279 0.00725216
v -0.01369094 -0.01715016 0.00665522
v -0.01080578 -0.01715016 0.01114565
v -0.00726575 -0.01619279 0.01473665
v -0.01174312 -0.01622712 0.01205259
v -0.00879955 -0.00999486 0.01669621
v -0.01445460 0.00000000 0.01444125
v -0.01407319 -0.01093322 0.01405984
v -0.01407319 -0.01093322 0.01405984
v -0.01716274 0.00000000 0.00902462
v -0.01670974 -0.01184320 0.00878620
v -0.01167714 -0.01715016 -0.01149880
v -0.00726575 -0.01619279 -0.01474446
v -0.00666392 -0.01715016 -0.01368695
v -0.01167714 -0.01715016 -0.01149880
v -0.01475024 -0.01619279 -0.00726008
v -0.01256108 -0.01618003 -0.01239520
v -0.01407319 -0.01105070 -0.01406753
v -0.01716274 0.00000000 -0.00903225
v -0.01445460 0.00000000 -0.01444900
v -0.00879955 -0.00999486 -0.01670414
v -0.01445460 0.00000000 -0.01444900
v -0.00903797 0.00000000 -0.01715713
v 0.01222765 -0.01715016 -0.00665986
v 0.01352620 -0.01616293 -0.00000383
v 0.01242089 -0.01715016 -0.00000217
v 0.01359730 -0.01184320 -0.00879383
v 0.01420414 0.00000000 -0.00000383
v 0.01420414 -0.01216477 -0.00000383
v 0.01420414 0.00000000 -0.00000383
v 0.01420414 -0.01184320 0.00878620
v 0.01420414 -0.01216477 -0.00000383
v 0.01352620 -0.01616293 -0.00000383
v 0.01222765 -0.01715016 0.00665522
v 0.01242089 -0.01715016 -0.00000217
v 0.00665134 -0.01715016 0.01368248
v -0.00000957 -0.01617091 0.01549839
v -0.00000629 -0.01715016 0.01437950
v 0.00901878 0.00000000 0.01714915
v -0.00000957 -0.00964689 0.01757496
v 0.00878048 -0.00999486 0.01669621
v -0.00000957 -0.00964689 0.01757496
v -0.00903797 0.00000000 0.01714915
v -0.00879955 -0.00999486 0.01669621
v -0.00000957 -0.01617091 0.01549839
v -0.00666392 -0.01715016 0.01368248
v -0.00000629 -0.01715016 0.01437950
v -0.01369094 -0.01715016 0.00665522
v -0.01556581 -0.01616811 -0.00000383
v -0.01444613 -0.01715016 -0.00000217
v -0.01670974 -0.01184320 0.00878620
v -0.01806539 0.00000000 -0.00000383
v -0.01758867 -0.01216477 -0.00000383
v -0.01806539 0.00000000 -0.00000383
v -0.01670974 -0.01184320 -0.00879383
v -0.01758867 -0.01216477 -0.00000383
v -0.01556581 -0.01616811 -0.00000383
v -0.01369094 -0.01715016 -0.00665986
v -0.01444613 -0.01715016 -0.00000217
v -0.00666392 -0.01715016 -0.01368695
v -0.00000957 -0.01617354 -0.01545166
v -0.00000629 -0.01715016 -0.01432597
v -0.00903797 0.00000000 -0.01715713
v -0.00000957 -0.00964689 -0.01758295
v -0.00879955 -0.00999486 -0.01670414
v -0.00000957 -0.00964689 -0.01758295
v 0.00901878 0.00000000 -0.01715713
v 0.00878048 -0.00999486 -0.01670414
v -0.00000957 -0.01617354 -0.01545166
v 0.00665134 -0.01715016 -0.01368695
v -0.00000629 -0.01715016 -0.01432597
v 0.00724661 -0.01619279 0.01473665
v 0.01320421 -0.01093322 0.01405984
v 0.00878048 -0.00999486 0.01669621
v 0.00724661 -0.01619279 0.01473665
v -0.00000957 -0.00964689 0.01757496
v -0.00000957 -0.01617091 0.01549839
v -0.00726575 -0.01619279 0.01473665
v -0.00000957 -0.00964689 0.01757496
v -0.00879955 -0.00999486 0.01669621
v -0.01174312 -0.01622712 0.01205259
v -0.00879955 -0.00999486 0.01669621
v -0.01407319 -0.01093322 0.01405984
v -0.01174312 -0.01622712 0.01205259
v -0.01670974 -0.01184320 0.00878620
v -0.01475024 -0.01619279 0.00725216
v -0.01475024 -0.01619279 0.00725216
v -0.01758867 -0.01216477 -0.00000383
v -0.01556581 -0.01616811 -0.00000383
v -0.01475024 -0.01619279 -0.00726008
v -0.01758867 -0.01216477 -0.00000383
v -0.01670974 -0.01184320 -0.00879383
v -0.01256108 -0.01618003 -0.01239520
v -0.01670974 -0.01184320 -0.00879383
v -0.01407319 -0.01105070 -0.01406753
v -0.01256108 -0.01618003 -0.01239520
v -0.00879955 -0.00999486 -0.01670414
v -0.00726575 -0.01619279 -0.01474446
v -0.00726575 -0.01619279 -0.01474446
v -0.00000957 -0.00964689 -0.01758295
v -0.00000957 -0.01617354 -0.01545166
v 0.00724661 -0.01619279 -0.01474446
v -0.00000957 -0.00964689 -0.01758295
v 0.00878048 -0.00999486 -0.01670414
v 0.00724661 -0.01619279 -0.01474446
v 0.01162219 -0.01105070 -0.01406753
v 0.01142030 -0.01619696 -0.01223003
v 0.01142030 -0.01619696 -0.01223003
v 0.01359730 -0.01184320 -0.00879383
v 0.01328033 -0.01619279 -0.00726008
v 0.01328033 -0.01619279 -0.00726008
v 0.01420414 -0.01216477 -0.00000383
v 0.01352620 -0.01616293 -0.00000383
v 0.01328033 -0.01619279 0.00725216
v 0.01420414 -0.01216477 -0.00000383
v 0.01420414 -0.01184320 0.00878620
v 0.01125580 -0.01621037 0.01205754
v 0.01420414 -0.01184320 0.00878620
v 0.01320421 -0.01093322 0.01405984
v -0.01369094 -0.01715016 -0.00665986
v -0.01444613 -0.01715016 -0.00000217
v -0.00000629 -0.01715016 -0.01432597
v -0.00666392 -0.01715016 -0.01368695
v -0.01167714 -0.01715016 -0.01149880
v 0.00665134 -0.01715016 -0.01368695
v 0.01242089 -0.01715016 -0.00000217
v 0.01222765 -0.01715016 -0.00665986
v 0.01052421 -0.01715016 -0.01132470
v 0.01222765 -0.01715016 0.00665522
v -0.00000629 -0.01715016 0.01437950
v 0.00665134 -0.01715016 0.01368248
v 0.01034992 -0.01715016 0.01114565
v -0.00666392 -0.01715016 0.01368248
v -0.01369094 -0.01715016 0.00665522
v -0.01080578 -0.01715016 0.01114565
v -0.01267945 0.01715016 0.00000115
v -0.01024806 0.01715016 -0.01009446
v -0.01201641 0.01715016 -0.00584513
v 0.00000078 0.01715016 -0.01257693
v -0.00584561 0.01715016 -0.01201581
v 0.00914454 0.01715016 -0.00994122
v 0.00584716 0.01715016 -0.01201581
v 0.01065444 0.01715016 0.00000115
v 0.01056730 0.01715016 -0.00584513
v 0.00899154 0.01715016 0.00979102
v 0.01056730 0.01715016 0.00584775
v 0.00000078 0.01715016 0.01263058
v 0.00584716 0.01715016 0.01201844
v -0.00948280 0.01715016 0.00979102
v -0.00584561 0.01715016 0.01201844
v -0.01201641 0.01715016 0.00584775
v 0.01328033 0.01619279 -0.00726008
v 0.01052421 0.01715016 -0.01132470
v 0.01222765 0.01715016 -0.00665986
v 0.01052421 0.01715016 -0.01132470
v 0.00724661 0.01619279 -0.01474446
v 0.00665134 0.01715016 -0.01368695
v 0.01200371 0.00000000 -0.01444900
v 0.00878048 0.00999486 -0.01670414
v 0.01162219 0.01105070 -0.01406753
v 0.01359730 0.00000000 -0.00903225
v 0.01162219 0.01105070 -0.01406753
v 0.01359730 0.01184320 -0.00879383
v 0.00724661 0.01619279 0.01473665
v 0.01034992 0.01715016 0.01114565
v 0.00665134 0.01715016 0.01368248
v 0.01034992 0.01715016 0.01114565
v 0.01328033 0.01619279 0.00725216
v 0.01222765 0.01715016 0.00665522
v 0.01320421 0.01093322 0.01405984
v 0.01420414 0.00000000 0.00902462
v 0.01420414 0.01184320 0.00878620
v 0.00878048 0.00999486 0.01669621
v 0.01358550 0.00000000 0.01444125
v 0.01320421 0.01093322 0.01405984
v -0.01475024 0.01619279 0.00725216
v -0.01080578 0.01715016 0.01114565
v -0.01369094 0.01715016 0.00665522
v -0.01080578 0.01715016 0.01114565
v -0.00726575 0.01619279 0.01473665
v -0.00666392 0.01715016 0.01368248
v -0.01445460 0.00000000 0.01444125
v -0.00879955 0.00999486 0.01669621
v -0.01407319 0.01093322 0.01405984
v -0.01716274 0.00000000 0.00902462
v -0.01407319 0.01093322 0.01405984
v -0.01670974 0.01184320 0.00878620
v -0.00726575 0.01619279 -0.01474446
v -0.01167714 0.01715016 -0.01149880
v -0.00666392 0.01715016 -0.01368695
v -0.01167714 0.01715016 -0.01149880
v -0.01475024 0.01619279 -0.00726008
v -0.01369094 0.01715016 -0.00665986
v -0.01407319 0.01105070 -0.01406753
v -0.01716274 0.00000000 -0.00903225
v -0.01670974 0.01184320 -0.00879383
v -0.00879955 0.00999486 -0.01670414
v -0.01445460 0.00000000 -0.01444900
v -0.01407319 0.01105070 -0.01406753
v 0.01222765 0.01715016 -0.00665986
v 0.01352620 0.01616293 -0.00000383
v 0.01328033 0.01619279 -0.00726008
v 0.01359730 0.01184320 -0.00879383
v 0.01359730 0.00000000 -0.00903225
v 0.01420414 0.01184320 0.00878620
v 0.01420414 0.01216477 -0.00000383
v 0.01222765 0.01715016 0.00665522
v 0.01352620 0.01616293 -0.00000383
v 0.01242089 0.01715016 -0.00000217
v 0.00665134 0.01715016 0.01368248
v -0.00000957 0.01617091 0.01549839
v 0.00724661 0.01619279 0.01473665
v -0.00000957 0.00964689 0.01757496
v 0.00901878 0.00000000 0.01714915
v 0.00878048 0.00999486 0.01669621
v -0.00000957 0.00964689 0.01757496
v -0.00903797 0.00000000 0.01714915
v -0.00000957 0.00000000 0.01805180
v -0.00666392 0.01715016 0.01368248
v -0.00000957 0.01617091 0.01549839
v -0.00000629 0.01715016 0.01437950
v -0.01369094 0.01715016 0.00665522
v -0.01556581 0.01616811 -0.00000383
v -0.01475024 0.01619279 0.00725216
v -0.01670974 0.01184320 0.00878620
v -0.01806539 0.00000000 -0.00000383
v -0.01716274 0.00000000 0.00902462
v -0.01670974 0.01184320 -0.00879383
v -0.01806539 0.00000000 -0.00000383
v -0.01758867 0.01216477 -0.00000383
v -0.01369094 0.01715016 -0.00665986
v -0.01556581 0.01616811 -0.00000383
v -0.01444613 0.01715016 -0.00000217
v -0.00666392 0.01715016 -0.01368695
v -0.00000957 0.01617354 -0.01545166
v -0.00726575 0.01619279 -0.01474446
v -0.00000957 0.00964689 -0.01758295
v -0.00903797 0.00000000 -0.01715713
v -0.00879955 0.00999486 -0.01670414
v -0.00000957 0.00964689 -0.01758295
v 0.00901878 0.00000000 -0.01715713
v -0.00000957 0.00000000 -0.01805984
v 0.00665134 0.01715016 -0.01368695
v -0.00000957 0.01617354 -0.01545166
v -0.00000629 0.01715016 -0.01432597
v 0.00724661 0.01619279 0.01473665
v 0.01320421 0.01093322 0.01405984
v 0.01125580 0.01621037 0.01205754
v -0.00000957 0.00964689 0.01757496
v 0.00724661 0.01619279 0.01473665
v -0.00000957 0.01617091 0.01549839
v -0.00726575 0.01619279 0.01473665
v -0.00000957 0.00964689 0.01757496
v -0.00000957 0.01617091 0.01549839
v -0.01174312 0.01622712 0.01205259
v -0.00879955 0.00999486 0.01669621
v -0.00726575 0.01619279 0.01473665
v -0.01670974 0.01184320 0.00878620
v -0.01174312 0.01622712 0.01205259
v -0.01475024 0.01619279 0.00725216
v -0.01758867 0.01216477 -0.00000383
v -0.01475024 0.01619279 0.00725216
v -0.01556581 0.01616811 -0.00000383
v -0.01475024 0.01619279 -0.00726008
v -0.01758867 0.01216477 -0.00000383
v -0.01556581 0.01616811 -0.00000383
v -0.01256108 0.01618003 -0.01239520
v -0.01670974 0.01184320 -0.00879383
v -0.01475024 0.01619279 -0.00726008
v -0.00879955 0.00999486 -0.01670414
v -0.01256108 0.01618003 -0.01239520
v -0.00726575 0.01619279 -0.01474446
v -0.00000957 0.00964689 -0.01758295
v -0.00726575 0.01619279 -0.01474446
v -0.00000957 0.01617354 -0.01545166
v 0.00724661 0.01619279 -0.01474446
v -0.00000957 0.00964689 -0.01758295
v -0.00000957 0.01617354 -0.01545166
v 0.01162219 0.01105070 -0.01406753
v 0.00724661 0.01619279 -0.01474446
v 0.01142030 0.01619696 -0.01223003
v 0.01359730 0.01184320 -0.00879383
v 0.01142030 0.01619696 -0.01223003
v 0.01328033 0.01619279 -0.00726008
v 0.01420414 0.01216477 -0.00000383
v 0.01328033 0.01619279 -0.00726008
v 0.01352620 0.01616293 -0.00000383
v 0.01328033 0.01619279 0.00725216
v 0.01420414 0.01216477 -0.00000383
v 0.01352620 0.01616293 -0.00000383
v 0.01125580 0.01621037 0.01205754
v 0.01420414 0.01184320 0.00878620
v 0.01328033 0.01619279 0.00725216
v -0.01369094 0.01715016 -0.00665986
v -0.01167714 0.01715016 -0.01149880
v -0.01444613 0.01715016 -0.00000217
v -0.00000629 0.01715016 -0.01432597
v -0.00666392 0.01715016 -0.01368695
v 0.00665134 0.01715016 -0.01368695
v 0.01052421 0.01715016 -0.01132470
v 0.01242089 0.01715016 -0.00000217
v 0.01222765 0.01715016 -0.00665986
v 0.01222765 0.01715016 0.00665522
v 0.01034992 0.01715016 0.01114565
v -0.00000629 0.01715016 0.01437950
v 0.00665134 0.01715016 0.01368248
v -0.00666392 0.01715016 0.01368248
v -0.01080578 0.01715016 0.01114565
v -0.01369094 0.01715016 0.00665522
v 0.00000078 -0.01715016 0.00000115
v 0.01052421 -0.01715016 -0.01132470
v 0.01142030 -0.01619696 -0.01223003
v 0.01328033 -0.01619279 -0.00726008
v 0.01052421 -0.01715016 -0.01132470
v 0.00665134 -0.01715016 -0.01368695
v 0.00724661 -0.01619279 -0.01474446
v 0.00901878 0.00000000 -0.01715713
v 0.01162219 -0.01105070 -0.01406753
v 0.01200371 0.00000000 -0.01444900
v 0.01359730 0.00000000 -0.00903225
v 0.01034992 -0.01715016 0.01114565
v 0.01125580 -0.01621037 0.01205754
v 0.00724661 -0.01619279 0.01473665
v 0.01222765 -0.01715016 0.00665522
v 0.01320421 -0.01093322 0.01405984
v 0.01420414 -0.01184320 0.00878620
v 0.00878048 -0.00999486 0.01669621
v 0.01320421 -0.01093322 0.01405984
v 0.01358550 0.00000000 0.01444125
v -0.01080578 -0.01715016 0.01114565
v -0.01174312 -0.01622712 0.01205259
v -0.01475024 -0.01619279 0.00725216
v -0.01080578 -0.01715016 0.01114565
v -0.00666392 -0.01715016 0.01368248
v -0.00726575 -0.01619279 0.01473665
v -0.00879955 -0.00999486 0.01669621
v -0.00903797 0.00000000 0.01714915
v -0.01445460 0.00000000 0.01444125
v -0.01407319 -0.01093322 0.01405984
v -0.01445460 0.00000000 0.01444125
v -0.01716274 0.00000000 0.00902462
v -0.01167714 -0.01715016 -0.01149880
v -0.01256108 -0.01618003 -0.01239520
v -0.00726575 -0.01619279 -0.01474446
v -0.01167714 -0.01715016 -0.01149880
v -0.01369094 -0.01715016 -0.00665986
v -0.01475024 -0.01619279 -0.00726008
v -0.01407319 -0.01105070 -0.01406753
v -0.01670974 -0.01184320 -0.00879383
v -0.01716274 0.00000000 -0.00903225
v -0.00879955 -0.00999486 -0.01670414
v -0.01407319 -0.01105070 -0.01406753
v -0.01445460 0.00000000 -0.01444900
v 0.01328033 -0.01619279 -0.00726008
v 0.01420414 0.00000000 0.00902462
v 0.01328033 -0.01619279 0.00725216
v 0.00665134 -0.01715016 0.01368248
v 0.00724661 -0.01619279 0.01473665
v -0.00000957 -0.01617091 0.01549839
v -0.00000957 0.00000000 0.01805180
v -0.00000957 0.00000000 0.01805180
v -0.00000957 -0.01617091 0.01549839
v -0.00726575 -0.01619279 0.01473665
v -0.00666392 -0.01715016 0.01368248
v -0.01369094 -0.01715016 0.00665522
v -0.01475024 -0.01619279 0.00725216
v -0.01556581 -0.01616811 -0.00000383
v -0.01716274 0.00000000 0.00902462
v -0.01716274 0.00000000 -0.00903225
v -0.01556581 -0.01616811 -0.00000383
v -0.01475024 -0.01619279 -0.00726008
v -0.01369094 -0.01715016 -0.00665986
v -0.00666392 -0.01715016 -0.01368695
v -0.00726575 -0.01619279 -0.01474446
v -0.00000957 -0.01617354 -0.01545166
v -0.00000957 0.00000000 -0.01805984
v -0.00000957 0.00000000 -0.01805984
v -0.00000957 -0.01617354 -0.01545166
v 0.00724661 -0.01619279 -0.01474446
v 0.00665134 -0.01715016 -0.01368695
v 0.00724661 -0.01619279 0.01473665
v 0.01125580 -0.01621037 0.01205754
v 0.01320421 -0.01093322 0.01405984
v 0.00724661 -0.01619279 0.01473665
v 0.00878048 -0.00999486 0.01669621
v -0.00000957 -0.00964689 0.01757496
v -0.00726575 -0.01619279 0.01473665
v -0.00000957 -0.01617091 0.01549839
v -0.00000957 -0.00964689 0.01757496
v -0.01174312 -0.01622712 0.01205259
v -0.00726575 -0.01619279 0.01473665
v -0.00879955 -0.00999486 0.01669621
v -0.01174312 -0.01622712 0.01205259
v -0.01407319 -0.01093322 0.01405984
v -0.01670974 -0.01184320 0.00878620
v -0.01475024 -0.01619279 0.00725216
v -0.01670974 -0.01184320 0.00878620
v -0.01758867 -0.01216477 -0.00000383
v -0.01475024 -0.01619279 -0.00726008
v -0.01556581 -0.01616811 -0.00000383
v -0.01758867 -0.01216477 -0.00000383
v -0.01256108 -0.01618003 -0.01239520
v -0.01475024 -0.01619279 -0.00726008
v -0.01670974 -0.01184320 -0.00879383
v -0.01256108 -0.01618003 -0.01239520
v -0.01407319 -0.01105070 -0.01406753
v -0.00879955 -0.00999486 -0.01670414
v -0.00726575 -0.01619279 -0.01474446
v -0.00879955 -0.00999486 -0.01670414
v -0.00000957 -0.00964689 -0.01758295
v 0.00724661 -0.01619279 -0.01474446
v -0.00000957 -0.01617354 -0.01545166
v -0.00000957 -0.00964689 -0.01758295
v 0.00724661 -0.01619279 -0.01474446
v 0.00878048 -0.00999486 -0.01670414
v 0.01162219 -0.01105070 -0.01406753
v 0.01142030 -0.01619696 -0.01223003
v 0.01162219 -0.01105070 -0.01406753
v 0.01359730 -0.01184320 -0.00879383
v 0.01328033 -0.01619279 -0.00726008
v 0.01359730 -0.01184320 -0.00879383
v 0.01420414 -0.01216477 -0.00000383
v 0.01328033 -0.01619279 0.00725216
v 0.01352620 -0.01616293 -0.00000383
v 0.01420414 -0.01216477 -0.00000383
v 0.01125580 -0.01621037 0.01205754
v 0.01328033 -0.01619279 0.00725216
v 0.01420414 -0.01184320 0.00878620
v 0.00000078 0.01715016 0.00000115
v 0.01328033 0.01619279 -0.00726008
v 0.01142030 0.01619696 -0.01223003
v 0.01052421 0.01715016 -0.01132470
v 0.01052421 0.01715016 -0.01132470
v 0.01142030 0.01619696 -0.01223003
v 0.00724661 0.01619279 -0.01474446
v 0.00901878 0.00000000 -0.01715713
v 0.01359730 0.00000000 -0.00903225
v 0.01200371 0.00000000 -0.01444900
v 0.01162219 0.01105070 -0.01406753
v 0.00724661 0.01619279 0.01473665
v 0.01125580 0.01621037 0.01205754
v 0.01034992 0.01715016 0.01114565
v 0.01125580 0.01621037 0.01205754
v 0.01320421 0.01093322 0.01405984
v 0.01358550 0.00000000 0.01444125
v 0.01420414 0.00000000 0.00902462
v 0.00878048 0.00999486 0.01669621
v 0.00901878 0.00000000 0.01714915
v 0.01358550 0.00000000 0.01444125
v -0.01475024 0.01619279 0.00725216
v -0.01174312 0.01622712 0.01205259
v -0.01080578 0.01715016 0.01114565
v -0.01080578 0.01715016 0.01114565
v -0.01174312 0.01622712 0.01205259
v -0.00726575 0.01619279 0.01473665
v -0.01445460 0.00000000 0.01444125
v -0.00903797 0.00000000 0.01714915
v -0.00879955 0.00999486 0.01669621
v -0.01716274 0.00000000 0.00902462
v -0.01445460 0.00000000 0.01444125
v -0.01407319 0.01093322 0.01405984
v -0.00726575 0.01619279 -0.01474446
v -0.01256108 0.01618003 -0.01239520
v -0.01167714 0.01715016 -0.01149880
v -0.01167714 0.01715016 -0.01149880
v -0.01256108 0.01618003 -0.01239520
v -0.01475024 0.01619279 -0.00726008
v -0.01407319 0.01105070 -0.01406753
v -0.01445460 0.00000000 -0.01444900
v -0.01716274 0.00000000 -0.00903225
v -0.00879955 0.00999486 -0.01670414
v -0.00903797 0.00000000 -0.01715713
v -0.01445460 0.00000000 -0.01444900
v 0.01242089 0.01715016 -0.00000217
v 0.01420414 0.01216477 -0.00000383
v 0.01328033 0.01619279 0.00725216
v 0.00665134 0.01715016 0.01368248
v -0.00000629 0.01715016 0.01437950
v -0.00000957 0.01617091 0.01549839
v -0.00000957 0.00000000 0.01805180
v -0.00879955 0.00999486 0.01669621
v -0.00666392 0.01715016 0.01368248
v -0.00726575 0.01619279 0.01473665
v -0.00000957 0.01617091 0.01549839
v -0.01369094 0.01715016 0.00665522
v -0.01444613 0.01715016 -0.00000217
v -0.01556581 0.01616811 -0.00000383
v -0.01758867 0.01216477 -0.00000383
v -0.01716274 0.00000000 -0.00903225
v -0.01369094 0.01715016 -0.00665986
v -0.01475024 0.01619279 -0.00726008
v -0.01556581 0.01616811 -0.00000383
v -0.00666392 0.01715016 -0.01368695
v -0.00000629 0.01715016 -0.01432597
v -0.00000957 0.01617354 -0.01545166
v -0.00000957 0.00000000 -0.01805984
v 0.00878048 0.00999486 -0.01670414
v 0.00665134 0.01715016 -0.01368695
v 0.00724661 0.01619279 -0.01474446
v -0.00000957 0.01617354 -0.01545166
v 0.00724661 0.01619279 0.01473665
v 0.00878048 0.00999486 0.01669621
v 0.01320421 0.01093322 0.01405984
v -0.00000957 0.00964689 0.01757496
v 0.00878048 0.00999486 0.01669621
v 0.00724661 0.01619279 0.01473665
v -0.00726575 0.01619279 0.01473665
v -0.00879955 0.00999486 0.01669621
v -0.00000957 0.00964689 0.01757496
v -0.01174312 0.01622712 0.01205259
v -0.01407319 0.01093322 0.01405984
v -0.00879955 0.00999486 0.01669621
v -0.01670974 0.01184320 0.00878620
v -0.01407319 0.01093322 0.01405984
v -0.01174312 0.01622712 0.01205259
v -0.01758867 0.01216477 -0.00000383
v -0.01670974 0.01184320 0.00878620
v -0.01475024 0.01619279 0.00725216
v -0.01475024 0.01619279 -0.00726008
v -0.01670974 0.01184320 -0.00879383
v -0.01758867 0.01216477 -0.00000383
v -0.01256108 0.01618003 -0.01239520
v -0.01407319 0.01105070 -0.01406753
v -0.01670974 0.01184320 -0.00879383
v -0.00879955 0.00999486 -0.01670414
v -0.01407319 0.01105070 -0.01406753
v -0.01256108 0.01618003 -0.01239520
v -0.00000957 0.00964689 -0.01758295
v -0.00879955 0.00999486 -0.01670414
v -0.00726575 0.01619279 -0.01474446
v 0.00724661 0.01619279 -0.01474446
v 0.00878048 0.00999486 -0.01670414
v -0.00000957 0.00964689 -0.01758295
v 0.01162219 0.01105070 -0.01406753
v 0.00878048 0.00999486 -0.01670414
v 0.00724661 0.01619279 -0.01474446
v 0.01359730 0.01184320 -0.00879383
v 0.01162219 0.01105070 -0.01406753
v 0.01142030 0.01619696 -0.01223003
v 0.01420414 0.01216477 -0.00000383
v 0.01359730 0.01184320 -0.00879383
v 0.01328033 0.01619279 -0.00726008
v 0.01328033 0.01619279 0.00725216
v 0.01420414 0.01184320 0.00878620
v 0.01420414 0.01216477 -0.00000383
v 0.01125580 0.01621037 0.01205754
v 0.01320421 0.01093322 0.01405984
v 0.01420414 0.01184320 0.00878620
f 1 2 3
f 4 5 6
f 7 8 9
f 10 11 12
f 13 14 15
f 16 17 18
f 19 20 21
f 22 23 24
f 25 26 27
f 28 29 30
f 31 32 33
f 34 35 36
f 37 38 39
f 40 41 42
f 43 44 45
f 46 47 48
f 49 50 51
f 52 53 54
f 55 56 57
f 58 59 60
f 61 62 63
f 64 65 66
f 67 68 69
f 70 71 72
f 73 74 41
f 75 76 77
f 78 79 80
f 81 82 83
f 84 85 86
f 87 88 89
f 90 91 92
f 93 94 95
f 96 97 98
f 99 100 101
f 102 103 104
f 105 106 107
f 108 109 110
f 111 112 113
f 114 115 116
f 117 118 119
f 120 121 122
f 123 124 125
f 126 127 128
f 129 130 131
f 132 133 134
f 135 136 137
f 138 139 140
f 141 142 143
f 144 145 146
f 147 148 149
f 150 151 152
f 153 154 155
f 156 157 158
f 159 160 161
f 162 163 164
f 165 166 167
f 168 169 170
f 171 172 173
f 174 175 176
f 177 178 179
f 180 181 182
f 183 184 185
f 186 187 188
f 189 190 191
f 192 193 194
f 195 196 197
f 7 198 8
f 199 200 201
f 202 203 204
f 16 205 17
f 206 207 208
f 209 210 211
f 25 212 26
f 28 213 29
f 214 215 216
f 34 217 35
f 37 218 38
f 40 73 41
f 219 220 221
f 222 223 224
f 49 225 50
f 52 226 53
f 227 228 229
f 58 230 59
f 231 232 233
f 234 235 236
f 237 70 72
f 70 238 71
f 239 240 241
f 75 242 76
f 243 244 245
f 81 246 82
f 84 247 85
f 248 249 250
f 90 251 91
f 93 252 94
f 253 254 255
f 256 257 258
f 102 259 103
f 260 261 262
f 108 263 109
f 264 265 266
f 267 268 269
f 117 270 118
f 120 271 121
f 123 272 124
f 126 273 127
f 274 275 276
f 277 278 279
f 280 281 282
f 283 284 285
f 286 287 288
f 144 289 145
f 147 290 148
f 150 291 151
f 292 293 294
f 156 295 157
f 159 296 160
f 162 297 163
f 298 168 299
f 168 298 169
f 9 8 300
f 174 301 175
f 177 302 178
f 180 303 181
f 304 305 306
f 307 308 309
f 189 310 190
f 311 312 313
f 314 315 316
f 317 318 319
f 320 321 322
f 323 324 325
f 326 327 328
f 329 330 331
f 332 333 334
f 335 336 337
f 338 339 340
f 341 342 343
f 344 345 346
f 347 348 349
f 350 351 352
f 353 354 355
f 356 357 358
f 359 360 361
f 362 363 364
f 365 366 367
f 368 369 370
f 371 372 373
f 374 375 376
f 377 378 379
f 380 381 382
f 383 384 385
f 386 387 388
f 389 390 391
f 392 393 394
f 395 396 397
f 398 399 400
f 401 54 53
f 402 403 404
f 405 223 222
f 406 407 408
f 409 410 411
f 412 413 414
f 415 416 417
f 418 419 420
f 421 422 423
f 424 425 426
f 427 428 429
f 430 431 432
f 249 433 250
f 434 435 436
f 437 438 439
f 440 441 442
f 443 444 445
f 446 447 448
f 449 450 451
f 452 453 454
f 455 30 456
f 457 458 459
f 460 461 462
f 463 464 465
f 466 467 468
f 469 470 471
f 472 210 209
f 473 474 475
f 476 477 478
f 479 480 481
f 287 482 288
f 483 484 485
f 486 487 488
f 489 490 491
f 492 493 494
f 495 496 497
f 498 499 500
f 501 502 503
f 504 505 506
f 507 508 509
f 510 511 512
f 513 514 515
f 516 517 518
f 519 520 521
f 522 523 524
f 525 526 527
f 528 529 530
f 531 532 533
f 534 535 536
f 537 538 539
f 540 541 542
f 543 544 545
f 546 547 548
f 549 550 551
f 552 553 554
f 555 556 557
f 558 559 560
f 561 562 563
f 564 565 566
f 567 568 569
f 570 571 572
f 573 574 575
f 576 577 578
f 579 580 581
f 582 583 584
f 585 586 587
f 588 589 590
f 591 592 593
f 594 595 596
f 597 598 599
f 600 601 602
f 603 604 605
f 606 607 608
f 609 610 611
f 612 613 614
f 615 616 617
f 618 619 620
f 621 622 623
f 624 625 626
f 627 628 629
f 630 631 632
f 633 634 635
f 636 637 638
f 639 640 641
f 642 643 644
f 645 646 647
f 648 649 650
f 651 652 653
f 654 655 656
f 657 658 659
f 660 661 662
f 663 664 665
f 666 667 668
f 669 670 671
f 672 673 674
f 675 676 677
f 678 679 680
f 681 682 683
f 684 685 686
f 687 688 689
f 690 691 692
f 693 694 695
f 696 697 698
f 699 700 701
f 702 703 704
f 705 706 707
f 708 709 710
f 711 712 713
f 714 715 716
f 717 718 719
f 720 721 722
f 720 723 724
f 720 725 726
f 720 727 728
f 729 730 731
f 732 733 734
f 735 736 737
f 738 739 740
f 741 742 743
f 326 744 327
f 745 746 747
f 748 749 750
f 751 752 753
f 754 755 756
f 757 758 759
f 760 761 762
f 347 763 348
f 764 765 766
f 767 768 769
f 770 771 772
f 773 774 775
f 776 777 778
f 779 780 781
f 782 783 784
f 371 785 372
f 374 786 375
f 787 788 789
f 790 791 792
f 793 794 795
f 796 797 798
f 799 800 801
f 548 547 802
f 803 804 805
f 806 807 808
f 809 810 811
f 812 813 814
f 405 815 223
f 816 817 818
f 819 820 821
f 412 822 413
f 823 824 825
f 826 827 828
f 829 830 831
f 832 833 834
f 835 836 837
f 430 838 431
f 839 840 841
f 434 842 435
f 437 843 438
f 844 845 846
f 847 848 849
f 850 851 852
f 449 853 450
f 854 855 856
f 857 858 859
f 457 860 458
f 861 862 863
f 864 865 866
f 466 867 467
f 868 869 870
f 871 872 873
f 874 875 876
f 877 878 879
f 880 881 882
f 287 883 482
f 884 885 886
f 887 16 18
f 888 889 890
f 891 892 893
f 495 894 496
f 498 895 499
f 896 897 898
f 899 900 901
f 902 903 904
f 905 612 614
f 906 907 908
f 909 910 179
f 911 912 913
f 914 915 916
f 525 917 526
f 918 919 920
f 921 922 923
f 924 925 926
f 927 928 929
f 930 931 932
f 933 934 935
f 936 937 938
f 549 939 550
f 940 941 942
f 555 943 556
f 944 945 946
f 947 948 949
f 950 951 952
f 953 954 955
f 956 957 958
f 959 960 961
f 962 963 964
f 965 966 967
f 963 962 968
f 969 970 971
f 972 973 974
f 591 975 592
f 976 977 978
f 979 980 981
f 982 983 984
f 985 986 987
f 988 989 990
f 991 992 993
f 994 995 996
f 997 998 999
f 618 1000 619
f 621 1001 622
f 1002 1003 1004
f 1005 1006 1007
f 1008 1009 1010
f 1011 1012 1013
f 1014 1015 1016
f 1017 1018 1019
f 1020 1021 1022
f 1023 648 650
f 1024 1025 1026
f 1027 1028 1029
f 1030 1031 1032
f 657 1033 658
f 1034 1035 1036
f 1037 1038 1039
f 1040 1041 1042
f 1043 1044 1045
f 1046 1047 1048
f 1049 1050 1051
f 1052 1053 1054
f 1055 1056 1057
f 1058 1059 1060
f 1061 1062 1063
f 1064 1065 1066
f 1067 1068 1069
f 696 1070 697
f 699 1071 700
f 702 1072 703
f 705 1073 706
f 708 1074 709
f 711 1075 712
f 714 1076 715
f 717 1077 718
f 720 728 721
f 720 722 723
f 720 724 725
f 720 726 727
f 1078 1079 1080
f 1081 1078 1082
f 1083 1081 1084
f 1085 1083 1086
f 1087 1085 1088
f 1089 1087 1090
f 1091 1089 1092
f 1079 1091 1093
f 1094 1095 1096
f 1097 1098 1099
f 1100 1101 1102
f 1103 1104 1105
f 1106 1107 1108
f 1109 1110 1111
f 1112 1113 1114
f 1115 1116 1117
f 1118 1119 1120
f 1121 1122 1123
f 1124 1125 1126
f 1127 1128 1129
f 1130 1131 1132
f 1133 1134 1135
f 1136 1137 1138
f 1139 1140 1141
f 1142 1143 1144
f 1145 1146 1147
f 1148 1149 1150
f 1151 1152 1153
f 1154 1155 1156
f 1157 1158 1159
f 1160 1161 1162
f 1163 1164 1165
f 1166 1167 1168
f 1169 1170 1171
f 1172 1173 1174
f 1175 1176 1177
f 1178 1179 1180
f 1181 1182 1183
f 1184 1185 1186
f 1187 1188 1189
f 1190 1191 1192
f 1193 1194 1195
f 1196 1197 1198
f 1199 1200 1201
f 1202 1203 1204
f 1205 1206 1207
f 1208 1209 1210
f 1211 1212 1213
f 1214 1215 1216
f 1217 1218 1219
f 1220 1221 1222
f 1223 1224 1225
f 1226 1227 1228
f 1229 1230 1231
f 1232 1233 1234
f 1235 1236 1237
f 1238 1078 1080
f 1239 1080 1079
f 1240 1082 1241
f 1241 1078 1242
f 1243 1083 1084
f 1240 1084 1081
f 1244 1086 1245
f 1245 1083 1246
f 1247 1087 1088
f 1244 1088 1085
f 1248 1090 1249
f 1249 1087 1250
f 1251 1091 1092
f 1248 1092 1089
f 1239 1093 1252
f 1252 1091 1253
f 1254 1255 1256
f 1255 1257 1258
f 1257 1259 1260
f 1259 1261 1262
f 1261 1263 1264
f 1263 1265 1266
f 1265 1267 1268
f 1267 1254 1269
f 1270 1271 1272
f 1273 1274 1275
f 1276 1277 1278
f 1279 1280 1281
f 1282 1283 1284
f 1285 1286 1287
f 1288 1289 1290
f 1291 1292 1293
f 1294 1295 1296
f 1297 1298 1299
f 1300 1301 1302
f 1303 1304 1305
f 1306 1307 1308
f 1309 1310 1311
f 1312 1313 1314
f 1315 1316 1317
f 1318 1319 1320
f 1321 1146 1322
f 1323 1148 1324
f 1325 1326 1327
f 1328 1329 1330
f 1331 1332 1333
f 1334 1335 1336
f 1337 1338 1339
f 1340 1341 1342
f 1343 1344 1345
f 1346 1347 1348
f 1349 1350 1351
f 1352 1353 1354
f 1355 1356 1357
f 1358 1359 1360
f 1361 1362 1363
f 1364 1365 1366
f 1367 1368 1369
f 1370 1371 1372
f 1373 1374 1375
f 1376 1377 1378
f 1379 1380 1381
f 1382 1383 1384
f 1385 1386 1387
f 1388 1389 1390
f 1391 1392 1393
f 1394 1395 1396
f 1397 1398 1399
f 1400 1401 1402
f 1403 1404 1405
f 1406 1407 1408
f 1409 1410 1411
f 1412 1255 1413
f 1414 1256 1412
f 1258 1415 1416
f 1255 1416 1413
f 1417 1259 1418
f 1415 1260 1417
f 1262 1419 1420
f 1259 1420 1418
f 1421 1263 1422
f 1419 1264 1421
f 1266 1423 1424
f 1263 1424 1422
f 1425 1267 1426
f 1423 1268 1425
f 1269 1414 1427
f 1267 1427 1426
f 1078 1428 1079
f 1081 1428 1078
f 1083 1428 1081
f 1085 1428 1083
f 1087 1428 1085
f 1089 1428 1087
f 1091 1428 1089
f 1079 1428 1091
f 1429 1430 1431
f 1432 1433 1434
f 1100 1435 1101
f 1436 1437 1438
f 1439 1440 1441
f 1109 1442 1110
f 1443 1444 1289
f 1445 1446 1447
f 1448 1449 1450
f 1451 1452 1453
f 1454 1455 1456
f 1457 1458 1459
f 1460 1461 1462
f 1463 1464 1465
f 1466 1467 1468
f 1469 1470 1471
f 1142 1472 1143
f 1145 1322 1146
f 1148 1473 1149
f 1151 1474 1152
f 1475 1476 1477
f 1157 1478 1158
f 1160 1479 1161
f 1480 1481 1482
f 1483 1484 1485
f 1169 1486 1170
f 1172 1487 1173
f 1488 1489 1490
f 1491 1492 1493
f 1181 1494 1182
f 1184 1495 1185
f 1496 1497 1498
f 1499 1500 1501
f 1502 1503 1504
f 1505 1506 1507
f 1508 1509 1510
f 1511 1512 1513
f 1514 1515 1516
f 1517 1518 1519
f 1520 1521 1522
f 1523 1524 1525
f 1526 1527 1528
f 1529 1530 1531
f 1532 1533 1534
f 1535 1536 1537
f 1538 1539 1540
f 1541 1542 1543
f 1544 1545 1546
f 1238 1242 1078
f 1239 1238 1080
f 1240 1081 1082
f 1241 1082 1078
f 1243 1246 1083
f 1240 1243 1084
f 1244 1085 1086
f 1245 1086 1083
f 1247 1250 1087
f 1244 1247 1088
f 1248 1089 1090
f 1249 1090 1087
f 1251 1253 1091
f 1248 1251 1092
f 1239 1079 1093
f 1252 1093 1091
f 1254 1547 1255
f 1255 1547 1257
f 1257 1547 1259
f 1259 1547 1261
f 1261 1547 1263
f 1263 1547 1265
f 1265 1547 1267
f 1267 1547 1254
f 1548 1549 1550
f 1551 1552 1553
f 1276 1554 1277
f 1555 1556 1557
f 1558 1559 1560
f 1285 1561 1286
f 1562 1563 1564
f 1565 1566 1567
f 1568 1569 1570
f 1571 1572 1573
f 1574 1575 1576
f 1577 1578 1579
f 1580 1581 1582
f 1583 1584 1585
f 1586 1587 1588
f 1589 1590 1591
f 1318 1592 1319
f 1321 1593 1146
f 1323 1473 1148
f 1325 1594 1326
f 1595 1596 1597
f 1331 1598 1332
f 1334 1599 1335
f 1600 1601 1602
f 1603 1604 1605
f 1343 1606 1344
f 1346 1607 1347
f 1608 1609 1610
f 1611 1612 1613
f 1355 1614 1356
f 1358 1615 1359
f 1616 1617 1618
f 1619 1620 1621
f 1622 1623 1624
f 1625 1626 1627
f 1628 1629 1630
f 1631 1632 1633
f 1634 1635 1636
f 1637 1638 1639
f 1640 1641 1642
f 1643 1644 1645
f 1646 1647 1648
f 1649 1650 1651
f 1652 1653 1654
f 1655 1656 1657
f 1658 1659 1660
f 1661 1662 1663
f 1664 1665 1666
f 1412 1256 1255
f 1414 1254 1256
f 1258 1257 1415
f 1255 1258 1416
f 1417 1260 1259
f 1415 1257 1260
f 1262 1261 1419
f 1259 1262 1420
f 1421 1264 1263
f 1419 1261 1264
f 1266 1265 1423
f 1263 1266 1424
f 1425 1268 1267
f 1423 1265 1268
f 1269 1254 1414
f 1267 1269 1427

