# https://github.com/mikedh/trimesh
mtllib material.mtl
usemtl material_0
v 0.02034547 -0.00902467 -0.01133214
v 0.02006514 -0.00674818 -0.01292298
v 0.02077151 -0.00620823 -0.01188375
v 0.02003031 -0.01116486 0.00968682
v 0.01929025 -0.00982140 0.01177278
v 0.01924902 -0.01215513 0.01057279
v 0.02006853 -0.01115958 -0.01023419
v 0.01955701 -0.01336680 -0.00813052
v 0.01928686 -0.01214835 -0.01111941
v 0.02067135 -0.01281932 0.00258623
v 0.02007512 -0.01404304 -0.00027086
v 0.02078563 -0.01289764 -0.00027124
v 0.02018356 -0.00621426 0.01133413
v 0.01951465 -0.00344301 0.01267307
v 0.01942410 -0.00675495 0.01237260
v 0.02119793 -0.00316664 -0.01216389
v 0.02075664 -0.00000003 -0.01329800
v 0.02141311 -0.00000003 -0.01223092
v 0.02020032 -0.01218600 0.00777104
v 0.01969934 -0.01369061 0.00579464
v 0.02043508 -0.01257533 0.00530779
v 0.02053505 -0.01264763 -0.00484418
v 0.01993712 -0.01395493 -0.00337309
v 0.01979404 -0.01376290 -0.00533028
v 0.02026903 0.00317109 0.01161277
v 0.01954986 -0.00000003 0.01274423
v 0.02030499 -0.00000003 0.01167941
v 0.02007455 0.00902837 0.01078289
v 0.01942410 0.00675489 0.01237260
v 0.02018356 0.00621420 0.01133413
v 0.02003031 0.01116404 0.00968682
v 0.01942523 0.01327411 0.00847929
v 0.01924902 0.01215507 0.01057279
v 0.02065667 0.01281700 -0.00312834
v 0.02007512 0.01404298 -0.00027086
v 0.02078563 0.01289758 -0.00027124
v 0.02043508 0.01257527 0.00530779
v 0.01995501 0.01395713 0.00283211
v 0.01969934 0.01369130 0.00579464
v 0.02034114 0.01227631 -0.00742452
v 0.01979404 0.01376284 -0.00533028
v 0.02053505 0.01264757 -0.00484418
v 0.02006853 0.01116028 -0.01023419
v 0.01958168 0.00981456 -0.01232240
v 0.01928686 0.01214829 -0.01111941
v 0.02077151 0.00620817 -0.01188375
v 0.02052695 0.00343768 -0.01322495
v 0.02006514 0.00674887 -0.01292298
v 0.01990926 -0.00000003 -0.01463542
v 0.01965378 0.00379237 -0.01455823
v 0.02075664 -0.00000003 -0.01329800
v 0.02119793 0.00316733 -0.01216389
v 0.02141311 -0.00000003 -0.01223092
v 0.01913888 0.00743566 -0.01421899
v 0.01913888 0.00743566 -0.01421899
v 0.01861626 0.01081312 -0.01355291
v 0.02006514 0.00674887 -0.01292298
v 0.02034547 0.00902461 -0.01133214
v 0.02077151 0.00620817 -0.01188375
v 0.01829169 0.01339460 -0.01223205
v 0.01858011 0.01472375 -0.00902177
v 0.01928686 0.01214829 -0.01111941
v 0.01829169 0.01339460 -0.01223205
v 0.01955701 0.01336598 -0.00813052
v 0.02006853 0.01116028 -0.01023419
v 0.01883352 0.01517558 -0.00594816
v 0.01915639 0.01548659 -0.00027011
v 0.01902178 0.01539547 0.00315179
v 0.02007512 0.01404298 -0.00027086
v 0.02067135 0.01281851 0.00258623
v 0.02078563 0.01289758 -0.00027124
v 0.01873750 0.01510027 0.00641328
v 0.01900201 0.01539246 -0.00369125
v 0.01979404 0.01376284 -0.00533028
v 0.01883352 0.01517558 -0.00594816
v 0.01993712 0.01395487 -0.00337309
v 0.02053505 0.01264757 -0.00484418
v 0.01915639 0.01548659 -0.00027011
v 0.01873750 0.01510027 0.00641328
v 0.01844136 0.01462811 0.00936978
v 0.01969934 0.01369130 0.00579464
v 0.02020032 0.01218594 0.00777104
v 0.02043508 0.01257527 0.00530779
v 0.01824971 0.01340138 0.01168544
v 0.01829320 0.01082140 0.01300441
v 0.01924902 0.01215507 0.01057279
v 0.01824971 0.01340138 0.01168544
v 0.01929025 0.00982134 0.01177278
v 0.02003031 0.01116404 0.00968682
v 0.01843214 0.00744394 0.01366899
v 0.01853361 0.00379613 0.01400410
v 0.01942410 0.00675489 0.01237260
v 0.01843214 0.00744394 0.01366899
v 0.01951465 0.00344295 0.01267307
v 0.02018356 0.00621420 0.01133413
v 0.01857653 -0.00000003 0.01408317
v 0.01915639 -0.01548590 -0.00027011
v 0.01900201 -0.01539252 -0.00369125
v 0.02007512 -0.01404304 -0.00027086
v 0.02065667 -0.01281782 -0.00312834
v 0.02078563 -0.01289764 -0.00027124
v 0.01883352 -0.01517564 -0.00594816
v 0.01844136 -0.01462817 0.00936978
v 0.01924902 -0.01215513 0.01057279
v 0.01824971 -0.01340144 0.01168544
v 0.01942523 -0.01327492 0.00847929
v 0.02003031 -0.01116486 0.00968682
v 0.01873750 -0.01510033 0.00641328
v 0.01965378 -0.00379318 -0.01455823
v 0.02006514 -0.00674818 -0.01292298
v 0.01913888 -0.00743647 -0.01421899
v 0.02052695 -0.00343774 -0.01322532
v 0.02077151 -0.00620823 -0.01188375
v 0.01990926 -0.00000003 -0.01463542
v 0.01857653 -0.00000003 0.01408317
v 0.01853361 -0.00379544 0.01400410
v 0.01954986 -0.00000003 0.01274423
v 0.02026903 -0.00317040 0.01161277
v 0.02030499 -0.00000003 0.01167941
v 0.01843214 -0.00744475 0.01366899
v 0.01902178 -0.01539478 0.00315179
v 0.01969934 -0.01369061 0.00579464
v 0.01873750 -0.01510033 0.00641328
v 0.01995501 -0.01395719 0.00283211
v 0.02043508 -0.01257533 0.00530779
v 0.01915639 -0.01548590 -0.00027011
v 0.01883352 -0.01517564 -0.00594816
v 0.01858011 -0.01472381 -0.00902177
v 0.01979404 -0.01376290 -0.00533028
v 0.02034114 -0.01227637 -0.00742452
v 0.02053505 -0.01264763 -0.00484418
v 0.01829169 -0.01339466 -0.01223205
v 0.01843214 -0.00744475 0.01366899
v 0.01829320 -0.01082146 0.01300441
v 0.01942410 -0.00675495 0.01237260
v 0.02007455 -0.00902843 0.01078289
v 0.02018356 -0.00621426 0.01133413
v 0.01824971 -0.01340144 0.01168544
v 0.01861626 -0.01081318 -0.01355291
v 0.01928686 -0.01214835 -0.01111941
v 0.01829169 -0.01339466 -0.01223205
v 0.01958168 -0.00981387 -0.01232240
v 0.02006853 -0.01115958 -0.01023419
v 0.01913888 -0.00743647 -0.01421899
v 0.02179058 -0.00322839 0.00530402
v 0.02110248 -0.00615627 0.00797550
v 0.02154735 -0.00632345 0.00523098
v 0.02197188 -0.00633701 -0.00476398
v 0.02237157 -0.00328863 -0.00306057
v 0.02205716 -0.00644394 -0.00303420
v 0.02120791 -0.00917754 0.00515944
v 0.02063332 -0.01093517 0.00748488
v 0.02089030 -0.01128309 0.00511689
v 0.02149030 -0.00920013 -0.00469433
v 0.02165221 -0.00941852 -0.00027237
v 0.02113392 -0.01150072 0.00249097
v 0.02125968 -0.01157452 -0.00027237
v 0.02236441 -0.00331574 -0.00027237
v 0.02188566 -0.00644394 0.00248946
v 0.02207354 -0.00649289 -0.00027237
v 0.02104524 -0.00894183 -0.00734471
v 0.02108233 -0.00617585 -0.00761468
v 0.02110248 0.00615621 0.00797550
v 0.02179058 0.00322908 0.00530402
v 0.02154735 0.00632414 0.00523098
v 0.02197188 0.00633695 -0.00476398
v 0.02237157 0.00328932 -0.00306057
v 0.02229909 0.00323435 -0.00483589
v 0.02063332 0.01093436 0.00748488
v 0.02120791 0.00917748 0.00515944
v 0.02089030 0.01128303 0.00511689
v 0.02149030 0.00920007 -0.00469433
v 0.02205716 0.00644388 -0.00303420
v 0.02113392 0.01150066 0.00249097
v 0.02165221 0.00941846 -0.00027237
v 0.02125968 0.01157446 -0.00027237
v 0.02188566 0.00644463 0.00248946
v 0.02236441 0.00331493 -0.00027237
v 0.02207354 0.00649283 -0.00027237
v 0.02104524 0.00894177 -0.00734471
v 0.02122541 -0.00602223 -0.01061975
v 0.02065121 -0.00870462 -0.01090253
v 0.02106803 -0.00600717 -0.01144397
v 0.02055425 -0.00870688 0.00961114
v 0.02035168 -0.01074164 0.00929899
v 0.02048685 -0.01025893 0.00889988
v 0.02081199 -0.01096605 -0.00712482
v 0.02039649 -0.01073863 -0.00984486
v 0.02058494 -0.01025818 -0.00944536
v 0.02125968 -0.01157452 -0.00027237
v 0.02097352 -0.01234791 0.00250190
v 0.02109005 -0.01242322 -0.00027200
v 0.02080427 -0.00308305 0.01031260
v 0.02050587 -0.00601018 0.01089698
v 0.02069827 -0.00602223 0.01007464
v 0.02182146 -0.00000003 -0.01092060
v 0.02148428 -0.00307024 -0.01171282
v 0.02169739 -0.00000003 -0.01177570
v 0.02089030 -0.01128309 0.00511689
v 0.02050060 -0.01172513 0.00748036
v 0.02074007 -0.01211446 0.00513045
v 0.02115331 -0.01150072 -0.00303571
v 0.02084681 -0.01216567 -0.00466720
v 0.02104280 -0.01130869 -0.00465215
v 0.02084832 -0.00000003 0.01037474
v 0.02059115 0.00307320 0.01116770
v 0.02062843 -0.00000003 0.01123624
v 0.02069827 0.00602142 0.01007464
v 0.02038971 0.00870757 0.01035552
v 0.02050587 0.00601087 0.01089698
v 0.02063332 0.01093436 0.00748488
v 0.02035168 0.01074158 0.00929899
v 0.02048685 0.01025887 0.00889988
v 0.02125968 0.01157446 -0.00027237
v 0.02096373 0.01234785 -0.00304549
v 0.02109005 0.01242316 -0.00027200
v 0.02113392 0.01150066 0.00249097
v 0.02074007 0.01211516 0.00513045
v 0.02089030 0.01128303 0.00511689
v 0.02104280 0.01131014 -0.00465215
v 0.02063106 0.01178456 -0.00712518
v 0.02084681 0.01216561 -0.00466720
v 0.02080690 0.00870606 -0.01015661
v 0.02039649 0.01073857 -0.00984486
v 0.02058494 0.01025812 -0.00944536
v 0.02162303 0.00308374 -0.01085885
v 0.02106803 0.00600711 -0.01144397
v 0.02122541 0.00602217 -0.01061975
v 0.02148428 0.00307094 -0.01171282
v 0.02141311 -0.00000003 -0.01223092
v 0.02119793 0.00316733 -0.01216389
v 0.02182146 -0.00000003 -0.01092060
v 0.02169739 -0.00000003 -0.01177570
v 0.02077151 0.00620817 -0.01188375
v 0.02065121 0.00870456 -0.01090253
v 0.02077151 0.00620817 -0.01188375
v 0.02034547 0.00902461 -0.01133214
v 0.02122541 0.00602217 -0.01061975
v 0.02106803 0.00600711 -0.01144397
v 0.02006853 0.01116028 -0.01023419
v 0.02034114 0.01227631 -0.00742452
v 0.02039649 0.01073857 -0.00984486
v 0.02006853 0.01116028 -0.01023419
v 0.02081199 0.01096674 -0.00712482
v 0.02058494 0.01025812 -0.00944536
v 0.02053505 0.01264757 -0.00484418
v 0.02097352 0.01234710 0.00250190
v 0.02078563 0.01289758 -0.00027124
v 0.02067135 0.01281851 0.00258623
v 0.02125968 0.01157446 -0.00027237
v 0.02109005 0.01242316 -0.00027200
v 0.02043508 0.01257527 0.00530779
v 0.02065667 0.01281700 -0.00312834
v 0.02084681 0.01216561 -0.00466720
v 0.02053505 0.01264757 -0.00484418
v 0.02115331 0.01150141 -0.00303571
v 0.02104280 0.01131014 -0.00465215
v 0.02078563 0.01289758 -0.00027124
v 0.02050060 0.01172582 0.00748036
v 0.02043508 0.01257527 0.00530779
v 0.02020032 0.01218594 0.00777104
v 0.02089030 0.01128303 0.00511689
v 0.02074007 0.01211516 0.00513045
v 0.02003031 0.01116404 0.00968682
v 0.02007455 0.00902837 0.01078289
v 0.02035168 0.01074158 0.00929899
v 0.02003031 0.01116404 0.00968682
v 0.02055425 0.00870682 0.00961114
v 0.02048685 0.01025887 0.00889988
v 0.02018356 0.00621420 0.01133413
v 0.02026903 0.00317109 0.01161277
v 0.02050587 0.00601087 0.01089698
v 0.02018356 0.00621420 0.01133413
v 0.02080427 0.00308374 0.01031260
v 0.02069827 0.00602142 0.01007464
v 0.02030499 -0.00000003 0.01167941
v 0.02096373 -0.01234866 -0.00304549
v 0.02078563 -0.01289764 -0.00027124
v 0.02065667 -0.01281782 -0.00312834
v 0.02125968 -0.01157452 -0.00027237
v 0.02109005 -0.01242322 -0.00027200
v 0.02053505 -0.01264763 -0.00484418
v 0.02020032 -0.01218600 0.00777104
v 0.02035168 -0.01074164 0.00929899
v 0.02003031 -0.01116486 0.00968682
v 0.02063332 -0.01093517 0.00748488
v 0.02048685 -0.01025893 0.00889988
v 0.02043508 -0.01257533 0.00530779
v 0.02119793 -0.00316664 -0.01216389
v 0.02106803 -0.00600717 -0.01144397
v 0.02077151 -0.00620823 -0.01188375
v 0.02162303 -0.00308305 -0.01085885
v 0.02122541 -0.00602223 -0.01061975
v 0.02141311 -0.00000003 -0.01223092
v 0.02059115 -0.00307326 0.01116770
v 0.02030499 -0.00000003 0.01167941
v 0.02026903 -0.00317040 0.01161277
v 0.02084832 -0.00000003 0.01037474
v 0.02062843 -0.00000003 0.01123624
v 0.02018356 -0.00621426 0.01133413
v 0.02067135 -0.01281932 0.00258623
v 0.02074007 -0.01211446 0.00513045
v 0.02043508 -0.01257533 0.00530779
v 0.02113392 -0.01150072 0.00249097
v 0.02089030 -0.01128309 0.00511689
v 0.02078563 -0.01289764 -0.00027124
v 0.02063106 -0.01178462 -0.00712518
v 0.02053505 -0.01264763 -0.00484418
v 0.02034114 -0.01227637 -0.00742452
v 0.02104280 -0.01130869 -0.00465215
v 0.02084681 -0.01216567 -0.00466720
v 0.02006853 -0.01115958 -0.01023419
v 0.02038971 -0.00870838 0.01035552
v 0.02018356 -0.00621426 0.01133413
v 0.02007455 -0.00902843 0.01078289
v 0.02069827 -0.00602223 0.01007464
v 0.02050587 -0.00601018 0.01089698
v 0.02003031 -0.01116486 0.00968682
v 0.02034547 -0.00902467 -0.01133214
v 0.02039649 -0.01073863 -0.00984486
v 0.02006853 -0.01115958 -0.01023419
v 0.02080690 -0.00870612 -0.01015661
v 0.02058494 -0.01025818 -0.00944536
v 0.02077151 -0.00620823 -0.01188375
v 0.02108233 0.00617579 -0.00761468
v 0.02072011 0.00315905 -0.00810868
v 0.02122541 0.00602217 -0.01061975
v 0.02058494 0.01025812 -0.00944536
v 0.02081199 0.01096674 -0.00712482
v 0.02080690 0.00870606 -0.01015661
v 0.02104280 0.01131014 -0.00465215
v 0.02226783 -0.00000003 0.00253352
v 0.02188773 -0.00000003 0.00533942
v 0.02215996 0.00328932 0.00251582
v 0.02247643 -0.00000003 -0.00027237
v 0.02149614 0.00935369 0.00248420
v 0.02115331 0.01150141 -0.00303571
v 0.02158970 0.00935445 -0.00302893
v 0.02055425 0.00870682 0.00961114
v 0.02069827 0.00602142 0.01007464
v 0.02086338 0.00891391 0.00770515
v 0.02048685 0.01025887 0.00889988
v 0.02249055 -0.00000003 -0.00307825
v 0.02242616 -0.00000003 -0.00487091
v 0.02134647 -0.00000003 0.00818447
v 0.02080427 0.00308374 0.01031260
v 0.02084832 -0.00000003 0.01037474
v 0.02127493 0.00314850 0.00813402
v 0.02229909 -0.00323441 -0.00483589
v 0.02072011 -0.00315835 -0.00810868
v 0.02122541 -0.00602223 -0.01061975
v 0.02162303 -0.00308305 -0.01085885
v 0.02058494 -0.01025818 -0.00944536
v 0.02080690 -0.00870612 -0.01015661
v 0.02081199 -0.01096605 -0.00712482
v 0.02104280 -0.01130869 -0.00465215
v 0.02215996 -0.00328938 0.00251582
v 0.02149614 -0.00935375 0.00248420
v 0.02115331 -0.01150072 -0.00303571
v 0.02158970 -0.00935451 -0.00302893
v 0.02055425 -0.00870688 0.00961114
v 0.02069827 -0.00602223 0.01007464
v 0.02086338 -0.00891472 0.00770515
v 0.02048685 -0.01025893 0.00889988
v 0.02080427 -0.00308305 0.01031260
v 0.02127493 -0.00314856 0.00813402
v 0.02029708 -0.00147339 -0.00994539
v 0.02029708 -0.00179984 -0.00846244
v 0.02182146 -0.00000003 -0.01092060
v 0.02029708 0.00147257 -0.00994539
v 0.02029708 -0.00000003 -0.01025735
v 0.02162303 0.00308374 -0.01085885
v 0.02029708 0.00154524 -0.00706757
v 0.02029708 0.00179902 -0.00846244
v 0.02029708 -0.00154568 -0.00706757
v 0.02029708 -0.00000003 -0.00681079
v 0.02029708 -0.00179984 -0.00846244
v 0.01806427 -0.00145343 -0.00992619
v 0.01806427 -0.00177499 -0.00846338
v 0.02029708 -0.00000003 -0.01025735
v 0.01806427 -0.00145343 -0.00992619
v 0.02029708 -0.00147339 -0.00994539
v 0.02029708 -0.00000003 -0.01025735
v 0.01806427 0.00145262 -0.00992619
v 0.01806427 -0.00000003 -0.01023381
v 0.02029708 0.00179902 -0.00846244
v 0.01806427 0.00145262 -0.00992619
v 0.02029708 0.00147257 -0.00994539
v 0.02029708 0.00179902 -0.00846244
v 0.01806427 0.00152416 -0.00708753
v 0.01806427 0.00177417 -0.00846338
v 0.02029708 -0.00000003 -0.00681079
v 0.01806427 0.00152416 -0.00708753
v 0.02029708 0.00154524 -0.00706757
v 0.02029708 -0.00179984 -0.00846244
v 0.01806427 -0.00152497 -0.00708753
v 0.02029708 -0.00154568 -0.00706757
v 0.02029708 -0.00000003 -0.00681079
v 0.01806427 -0.00152497 -0.00708753
v 0.01806427 -0.00000003 -0.00683414
v 0.01806427 -0.00000003 -0.00850743
v 0.01806427 -0.00145343 -0.00992619
v 0.01806427 -0.00000003 -0.01023381
v 0.01806427 0.00145262 -0.00992619
v 0.01806427 0.00177417 -0.00846338
v 0.01806427 0.00152416 -0.00708753
v 0.01806427 -0.00000003 -0.00683414
v 0.01806427 -0.00152497 -0.00708753
v 0.01806427 -0.00177499 -0.00846338
v 0.02029708 -0.00147339 -0.00994539
v 0.01806427 -0.00000003 -0.01023381
v 0.02029708 0.00147257 -0.00994539
v 0.01806427 0.00177417 -0.00846338
v 0.02029708 0.00154524 -0.00706757
v 0.01806427 -0.00000003 -0.00683414
v 0.01806427 -0.00177499 -0.00846338
v 0.02029708 -0.00154568 -0.00706757
v 0.01806427 -0.00177499 -0.00846338
v 0.01806427 -0.00000003 -0.01023381
v 0.01806427 0.00177417 -0.00846338
v 0.01806427 -0.00000003 -0.00683414
v -0.01022492 -0.01947312 -0.01154902
v -0.01298563 -0.01947312 -0.00008598
v -0.01223276 -0.01947312 -0.00672418
v 0.00141216 -0.01947312 -0.01436771
v -0.00522613 -0.01947312 -0.01373062
v 0.01179447 -0.01947312 -0.01137506
v 0.00805041 -0.01947312 -0.01373062
v 0.01350881 -0.01947312 -0.00008598
v 0.01340988 -0.01947312 -0.00672418
v 0.01162071 -0.01947312 0.01102990
v 0.01340988 -0.01947312 0.00655260
v 0.00141216 -0.01947312 0.01425411
v 0.00805041 -0.01947312 0.01355904
v -0.00935599 -0.01947312 0.01102990
v -0.00522613 -0.01947312 0.01355904
v -0.01223276 -0.01947312 0.00655260
v 0.01336102 -0.01947312 -0.01294594
v 0.01649035 -0.01838608 -0.00833083
v 0.01529515 -0.01947312 -0.00764931
v 0.00963950 -0.01838608 -0.01682889
v 0.01437849 -0.01839079 -0.01397386
v 0.01138104 -0.01134867 -0.01905399
v 0.01504090 -0.00000000 -0.01649340
v 0.01460771 -0.01254753 -0.01606021
v 0.01685031 -0.00000000 -0.01034300
v 0.01685031 -0.01344734 -0.01007227
v 0.01316315 -0.01947312 0.01256802
v 0.00963950 -0.01838608 0.01664545
v 0.00896354 -0.01947312 0.01544846
v 0.01649035 -0.01838608 0.00814720
v 0.01419164 -0.01840604 0.01360347
v 0.01640403 -0.01241415 0.01587695
v 0.01753936 -0.00000000 0.01015974
v 0.01683694 -0.00000000 0.01630996
v 0.01138104 -0.01134867 0.01887035
v 0.01165167 -0.00000000 0.01938469
v -0.01085815 -0.01947312 0.01256802
v -0.01533686 -0.01838608 0.00814720
v -0.01413414 -0.01947312 0.00746944
v -0.00683866 -0.01838608 0.01664545
v -0.01192241 -0.01842505 0.01359782
v -0.00858015 -0.01134867 0.01887035
v -0.01500119 -0.00000000 0.01630996
v -0.01456808 -0.01241415 0.01587695
v -0.01807611 -0.00000000 0.01015974
v -0.01756177 -0.01344734 0.00988902
v -0.01184757 -0.01947312 -0.01314362
v -0.00683866 -0.01838608 -0.01682889
v -0.00615526 -0.01947312 -0.01562814
v -0.01533686 -0.01838608 -0.00833083
v -0.01285121 -0.01837158 -0.01416137
v -0.01456808 -0.01254753 -0.01606021
v -0.01807611 -0.00000000 -0.01034300
v -0.01500119 -0.00000000 -0.01649340
v -0.00858015 -0.01134867 -0.01905399
v -0.00885087 -0.00000000 -0.01956832
v 0.01676955 -0.01835219 -0.00009163
v 0.01551457 -0.01947312 -0.00008975
v 0.01753936 -0.00000000 -0.00009163
v 0.01753936 -0.01381248 -0.00009163
v 0.01753936 -0.01344734 0.00988902
v 0.01529515 -0.01947312 0.00746944
v 0.00140041 -0.01836123 0.01751034
v 0.00140413 -0.01947312 0.01623992
v 0.00140041 -0.01095359 0.01986815
v -0.00885087 -0.00000000 0.01938469
v -0.00615526 -0.01947312 0.01544846
v -0.01626293 -0.01835803 -0.00009163
v -0.01499159 -0.01947312 -0.00008975
v -0.01910102 -0.00000000 -0.00009163
v -0.01855976 -0.01381248 -0.00009163
v -0.01756177 -0.01344734 -0.01007227
v -0.01413414 -0.01947312 -0.00764931
v 0.00140041 -0.01836424 -0.01763184
v 0.00140413 -0.01947312 -0.01635371
v 0.00140041 -0.01095359 -0.02005179
v 0.01165167 -0.00000000 -0.01956832
v 0.01138104 -0.01134867 -0.01905399
v 0.00896354 -0.01947312 -0.01562814
v 0.00963950 -0.01838608 -0.01682889
v -0.01413414 -0.01947312 -0.00764931
v -0.01499159 -0.01947312 -0.00008975
v 0.00140413 -0.01947312 -0.01635371
v -0.00615526 -0.01947312 -0.01562814
v -0.01184757 -0.01947312 -0.01314362
v 0.00896354 -0.01947312 -0.01562814
v 0.00140413 -0.01947312 0.01623992
v 0.00896354 -0.01947312 0.01544846
v 0.01316315 -0.01947312 0.01256802
v -0.00615526 -0.01947312 0.01544846
v -0.01413414 -0.01947312 0.00746944
v -0.01085815 -0.01947312 0.01256802
v -0.01298563 0.01947312 -0.00008598
v -0.01022492 0.01947312 -0.01154902
v -0.01223276 0.01947312 -0.00672418
v 0.00141216 0.01947312 -0.01436771
v -0.00522613 0.01947312 -0.01373062
v 0.01179447 0.01947312 -0.01137506
v 0.00805041 0.01947312 -0.01373062
v 0.01350881 0.01947312 -0.00008598
v 0.01340988 0.01947312 -0.00672418
v 0.01162071 0.01947312 0.01102990
v 0.01340988 0.01947312 0.00655260
v 0.00141216 0.01947312 0.01425411
v 0.00805041 0.01947312 0.01355904
v -0.00935599 0.01947312 0.01102990
v -0.00522613 0.01947312 0.01355904
v -0.01223276 0.01947312 0.00655260
v 0.01649035 0.01838608 -0.00833083
v 0.01336102 0.01947312 -0.01294594
v 0.01529515 0.01947312 -0.00764931
v 0.00963950 0.01838608 -0.01682889
v 0.00896354 0.01947312 -0.01562814
v 0.01138104 0.01134867 -0.01905399
v 0.01460771 0.01254753 -0.01606021
v 0.01685031 0.01344734 -0.01007227
v 0.00963950 0.01838608 0.01664545
v 0.01316315 0.01947312 0.01256802
v 0.00896354 0.01947312 0.01544846
v 0.01649035 0.01838608 0.00814720
v 0.01529515 0.01947312 0.00746944
v 0.01640403 0.01241415 0.01587695
v 0.01753936 0.01344734 0.00988902
v 0.01138104 0.01134867 0.01887035
v -0.01533686 0.01838608 0.00814720
v -0.01085815 0.01947312 0.01256802
v -0.01413414 0.01947312 0.00746944
v -0.00683866 0.01838608 0.01664545
v -0.00615526 0.01947312 0.01544846
v -0.00858015 0.01134867 0.01887035
v -0.01456808 0.01241415 0.01587695
v -0.01756177 0.01344734 0.00988902
v -0.00683866 0.01838608 -0.01682889
v -0.01184757 0.01947312 -0.01314362
v -0.00615526 0.01947312 -0.01562814
v -0.01533686 0.01838608 -0.00833083
v -0.01413414 0.01947312 -0.00764931
v -0.01456808 0.01254753 -0.01606021
v -0.01756177 0.01344734 -0.01007227
v -0.00858015 0.01134867 -0.01905399
v 0.01676955 0.01835219 -0.00009163
v 0.01753936 0.01381248 -0.00009163
v 0.01551457 0.01947312 -0.00008975
v 0.00140041 0.01836123 0.01751034
v 0.00140041 0.01095359 0.01986815
v 0.00140041 -0.00000000 0.02040960
v 0.00140413 0.01947312 0.01623992
v -0.01626293 0.01835803 -0.00009163
v -0.01855976 0.01381248 -0.00009163
v -0.01499159 0.01947312 -0.00008975
v 0.00140041 0.01836424 -0.01763184
v 0.00140041 0.01095359 -0.02005179
v 0.00140041 -0.00000000 -0.02059324
v 0.00896354 0.01947312 -0.01562814
v 0.00140413 0.01947312 -0.01635371
v 0.01419164 0.01840604 0.01360347
v -0.01192241 0.01842505 0.01359782
v -0.01285121 0.01837158 -0.01416137
v 0.00963950 0.01838608 -0.01682889
v 0.01437849 0.01839079 -0.01397386
v -0.01413414 0.01947312 -0.00764931
v -0.01184757 0.01947312 -0.01314362
v -0.01499159 0.01947312 -0.00008975
v 0.00140413 0.01947312 -0.01635371
v -0.00615526 0.01947312 -0.01562814
v 0.01316315 0.01947312 0.01256802
v 0.00140413 0.01947312 0.01623992
v 0.00896354 0.01947312 0.01544846
v -0.00615526 0.01947312 0.01544846
v -0.01085815 0.01947312 0.01256802
v -0.01413414 0.01947312 0.00746944
v 0.00141216 -0.01947312 -0.00008598
v 0.01165167 -0.00000000 -0.01956832
v 0.00141216 0.01947312 -0.00008598
v 0.01138104 0.01134867 -0.01905399
vt 0.56458333 0.31696429
vt 0.54895833 0.34821429
vt 0.54895833 0.31696429
vt 0.54895833 0.31696429
vt 0.56458333 0.34821429
vt 0.54895833 0.34821429
vt 0.54895833 0.31696429
vt 0.56458333 0.34821429
vt 0.54895833 0.34821429
vt 0.56458333 0.31696429
vt 0.54895833 0.34821429
vt 0.54895833 0.31696429
vt 0.54895833 0.31696429
vt 0.56458333 0.34821429
vt 0.54895833 0.34821429
vt 0.56458333 0.31696429
vt 0.54895833 0.34821429
vt 0.54895833 0.31696429
vt 0.56458333 0.31696429
vt 0.54895833 0.34821429
vt 0.54895833 0.31696429
vt 0.54895833 0.31696429
vt 0.56458333 0.34821429
vt 0.54895833 0.34821429
vt 0.56458333 0.31696429
vt 0.54895833 0.34821429
vt 0.54895833 0.31696429
vt 0.56458333 0.31696429
vt 0.54895833 0.34821429
vt 0.54895833 0.31696429
vt 0.54895833 0.31696429
vt 0.56458333 0.34821429
vt 0.54895833 0.34821429
vt 0.56458333 0.31696429
vt 0.54895833 0.34821429
vt 0.54895833 0.31696429
vt 0.54895833 0.31696429
vt 0.56458333 0.34821429
vt 0.54895833 0.34821429
vt 0.56458333 0.31696429
vt 0.54895833 0.34821429
vt 0.54895833 0.31696429
vt 0.54895833 0.31696429
vt 0.56458333 0.34821429
vt 0.54895833 0.34821429
vt 0.54895833 0.31696429
vt 0.56458333 0.34821429
vt 0.54895833 0.34821429
vt 0.58020833 0.37946429
vt 0.56458333 0.37946429
vt 0.58020833 0.34821429
vt 0.56458333 0.31696429
vt 0.58020833 0.31696429
vt 0.54895833 0.37946429
vt 0.58020833 0.37946429
vt 0.56458333 0.37946429
vt 0.58020833 0.34821429
vt 0.56458333 0.31696429
vt 0.58020833 0.31696429
vt 0.54895833 0.37946429
vt 0.56458333 0.37946429
vt 0.58020833 0.34821429
vt 0.58020833 0.37946429
vt 0.56458333 0.34821429
vt 0.58020833 0.31696429
vt 0.54895833 0.37946429
vt 0.58020833 0.37946429
vt 0.56458333 0.37946429
vt 0.58020833 0.34821429
vt 0.56458333 0.31696429
vt 0.58020833 0.31696429
vt 0.54895833 0.37946429
vt 0.56458333 0.37946429
vt 0.58020833 0.34821429
vt 0.58020833 0.37946429
vt 0.56458333 0.34821429
vt 0.58020833 0.31696429
vt 0.54895833 0.37946429
vt 0.58020833 0.37946429
vt 0.56458333 0.37946429
vt 0.58020833 0.34821429
vt 0.56458333 0.31696429
vt 0.58020833 0.31696429
vt 0.54895833 0.37946429
vt 0.56458333 0.37946429
vt 0.58020833 0.34821429
vt 0.58020833 0.37946429
vt 0.56458333 0.34821429
vt 0.58020833 0.31696429
vt 0.54895833 0.37946429
vt 0.56458333 0.37946429
vt 0.58020833 0.34821429
vt 0.58020833 0.37946429
vt 0.56458333 0.34821429
vt 0.58020833 0.31696429
vt 0.54895833 0.37946429
vt 0.58020833 0.37946429
vt 0.56458333 0.37946429
vt 0.58020833 0.34821429
vt 0.56458333 0.31696429
vt 0.58020833 0.31696429
vt 0.54895833 0.37946429
vt 0.56458333 0.37946429
vt 0.58020833 0.34821429
vt 0.58020833 0.37946429
vt 0.56458333 0.34821429
vt 0.58020833 0.31696429
vt 0.54895833 0.37946429
vt 0.56458333 0.37946429
vt 0.58020833 0.34821429
vt 0.58020833 0.37946429
vt 0.56458333 0.34821429
vt 0.58020833 0.31696429
vt 0.54895833 0.37946429
vt 0.58020833 0.37946429
vt 0.56458333 0.37946429
vt 0.58020833 0.34821429
vt 0.56458333 0.31696429
vt 0.58020833 0.31696429
vt 0.54895833 0.37946429
vt 0.56458333 0.37946429
vt 0.58020833 0.34821429
vt 0.58020833 0.37946429
vt 0.56458333 0.34821429
vt 0.58020833 0.31696429
vt 0.54895833 0.37946429
vt 0.58020833 0.37946429
vt 0.56458333 0.37946429
vt 0.58020833 0.34821429
vt 0.56458333 0.31696429
vt 0.58020833 0.31696429
vt 0.54895833 0.37946429
vt 0.58020833 0.37946429
vt 0.56458333 0.37946429
vt 0.58020833 0.34821429
vt 0.56458333 0.31696429
vt 0.58020833 0.31696429
vt 0.54895833 0.37946429
vt 0.56458333 0.37946429
vt 0.58020833 0.34821429
vt 0.58020833 0.37946429
vt 0.56458333 0.34821429
vt 0.58020833 0.31696429
vt 0.54895833 0.37946429
vt 0.56848958 0.31696429
vt 0.56458333 0.31696429
vt 0.56458333 0.31696429
vt 0.56458333 0.31696429
vt 0.56848958 0.31696429
vt 0.56458333 0.31696429
vt 0.56067708 0.31696429
vt 0.55677083 0.31696429
vt 0.55677083 0.31696429
vt 0.56067708 0.31696429
vt 0.56067708 0.31696429
vt 0.55677083 0.31696429
vt 0.55677083 0.31696429
vt 0.56848958 0.31696429
vt 0.56458333 0.31696429
vt 0.56458333 0.31696429
vt 0.56067708 0.31696429
vt 0.56458333 0.31696429
vt 0.56458333 0.31696429
vt 0.56848958 0.31696429
vt 0.56458333 0.31696429
vt 0.56458333 0.31696429
vt 0.56848958 0.31696429
vt 0.56848958 0.31696429
vt 0.55677083 0.31696429
vt 0.56067708 0.31696429
vt 0.55677083 0.31696429
vt 0.56067708 0.31696429
vt 0.56458333 0.31696429
vt 0.55677083 0.31696429
vt 0.56067708 0.31696429
vt 0.55677083 0.31696429
vt 0.56458333 0.31696429
vt 0.56848958 0.31696429
vt 0.56458333 0.31696429
vt 0.56067708 0.31696429
vt 0.54895833 0.31696429
vt 0.56458333 0.34821429
vt 0.54895833 0.34821429
vt 0.56458333 0.31696429
vt 0.54895833 0.34821429
vt 0.54895833 0.31696429
vt 0.56458333 0.31696429
vt 0.54895833 0.34821429
vt 0.54895833 0.31696429
vt 0.54895833 0.31696429
vt 0.56458333 0.34821429
vt 0.54895833 0.34821429
vt 0.56458333 0.31696429
vt 0.54895833 0.34821429
vt 0.54895833 0.31696429
vt 0.54895833 0.31696429
vt 0.56458333 0.34821429
vt 0.54895833 0.34821429
vt 0.54895833 0.31696429
vt 0.56458333 0.34821429
vt 0.54895833 0.34821429
vt 0.56458333 0.31696429
vt 0.54895833 0.34821429
vt 0.54895833 0.31696429
vt 0.54895833 0.31696429
vt 0.56458333 0.34821429
vt 0.54895833 0.34821429
vt 0.54895833 0.31696429
vt 0.56458333 0.34821429
vt 0.54895833 0.34821429
vt 0.56458333 0.31696429
vt 0.54895833 0.34821429
vt 0.54895833 0.31696429
vt 0.54895833 0.31696429
vt 0.56458333 0.34821429
vt 0.54895833 0.34821429
vt 0.56458333 0.31696429
vt 0.54895833 0.34821429
vt 0.54895833 0.31696429
vt 0.54895833 0.31696429
vt 0.56458333 0.34821429
vt 0.54895833 0.34821429
vt 0.56458333 0.31696429
vt 0.54895833 0.34821429
vt 0.54895833 0.31696429
vt 0.56458333 0.31696429
vt 0.54895833 0.34821429
vt 0.54895833 0.31696429
vt 0.56458333 0.34821429
vt 0.58020833 0.37946429
vt 0.56458333 0.37946429
vt 0.58020833 0.31696429
vt 0.58020833 0.34821429
vt 0.54895833 0.37946429
vt 0.56458333 0.34821429
vt 0.58020833 0.37946429
vt 0.56458333 0.37946429
vt 0.58020833 0.31696429
vt 0.58020833 0.34821429
vt 0.54895833 0.37946429
vt 0.56458333 0.37946429
vt 0.58020833 0.34821429
vt 0.58020833 0.37946429
vt 0.56458333 0.31696429
vt 0.58020833 0.31696429
vt 0.54895833 0.37946429
vt 0.56458333 0.34821429
vt 0.58020833 0.37946429
vt 0.56458333 0.37946429
vt 0.58020833 0.31696429
vt 0.58020833 0.34821429
vt 0.54895833 0.37946429
vt 0.56458333 0.37946429
vt 0.58020833 0.34821429
vt 0.58020833 0.37946429
vt 0.56458333 0.31696429
vt 0.58020833 0.31696429
vt 0.54895833 0.37946429
vt 0.56458333 0.34821429
vt 0.58020833 0.37946429
vt 0.56458333 0.37946429
vt 0.58020833 0.31696429
vt 0.58020833 0.34821429
vt 0.54895833 0.37946429
vt 0.56458333 0.37946429
vt 0.58020833 0.34821429
vt 0.58020833 0.37946429
vt 0.56458333 0.31696429
vt 0.58020833 0.31696429
vt 0.54895833 0.37946429
vt 0.56458333 0.37946429
vt 0.58020833 0.34821429
vt 0.58020833 0.37946429
vt 0.56458333 0.31696429
vt 0.58020833 0.31696429
vt 0.54895833 0.37946429
vt 0.56458333 0.34821429
vt 0.58020833 0.37946429
vt 0.56458333 0.37946429
vt 0.58020833 0.31696429
vt 0.58020833 0.34821429
vt 0.54895833 0.37946429
vt 0.56458333 0.37946429
vt 0.58020833 0.34821429
vt 0.58020833 0.37946429
vt 0.56458333 0.31696429
vt 0.58020833 0.31696429
vt 0.54895833 0.37946429
vt 0.56458333 0.37946429
vt 0.58020833 0.34821429
vt 0.58020833 0.37946429
vt 0.56458333 0.31696429
vt 0.58020833 0.31696429
vt 0.54895833 0.37946429
vt 0.56458333 0.34821429
vt 0.58020833 0.37946429
vt 0.56458333 0.37946429
vt 0.58020833 0.31696429
vt 0.58020833 0.34821429
vt 0.54895833 0.37946429
vt 0.56458333 0.37946429
vt 0.58020833 0.34821429
vt 0.58020833 0.37946429
vt 0.56458333 0.31696429
vt 0.58020833 0.31696429
vt 0.54895833 0.37946429
vt 0.56458333 0.34821429
vt 0.58020833 0.37946429
vt 0.56458333 0.37946429
vt 0.58020833 0.31696429
vt 0.58020833 0.34821429
vt 0.54895833 0.37946429
vt 0.56458333 0.34821429
vt 0.58020833 0.37946429
vt 0.56458333 0.37946429
vt 0.58020833 0.31696429
vt 0.58020833 0.34821429
vt 0.54895833 0.37946429
vt 0.56458333 0.37946429
vt 0.58020833 0.34821429
vt 0.58020833 0.37946429
vt 0.56458333 0.31696429
vt 0.58020833 0.31696429
vt 0.54895833 0.37946429
vt 0.56458333 0.31696429
vt 0.56848958 0.31696429
vt 0.56458333 0.31696429
vt 0.55677083 0.31696429
vt 0.55677083 0.31696429
vt 0.56067708 0.31696429
vt 0.55677083 0.31696429
vt 0.57239583 0.31696429
vt 0.57239583 0.31696429
vt 0.56848958 0.31696429
vt 0.57239583 0.31696429
vt 0.56067708 0.31696429
vt 0.55677083 0.31696429
vt 0.56067708 0.31696429
vt 0.56067708 0.31696429
vt 0.56458333 0.31696429
vt 0.56067708 0.31696429
vt 0.55677083 0.31696429
vt 0.57239583 0.31696429
vt 0.57239583 0.31696429
vt 0.57239583 0.31696429
vt 0.56848958 0.31696429
vt 0.57239583 0.31696429
vt 0.56848958 0.31696429
vt 0.56848958 0.31696429
vt 0.56848958 0.31696429
vt 0.56458333 0.31696429
vt 0.56848958 0.31696429
vt 0.55677083 0.31696429
vt 0.56067708 0.31696429
vt 0.55677083 0.31696429
vt 0.55677083 0.31696429
vt 0.56848958 0.31696429
vt 0.56067708 0.31696429
vt 0.55677083 0.31696429
vt 0.56067708 0.31696429
vt 0.56067708 0.31696429
vt 0.56458333 0.31696429
vt 0.56067708 0.31696429
vt 0.55677083 0.31696429
vt 0.56848958 0.31696429
vt 0.56848958 0.31696429
vt 0.56848958 0.31696429
vt 0.56848958 0.31696429
vt 0.57239583 0.31696429
vt 0.56848958 0.31696429
vt 0.57239583 0.31696429
vt 0.56848958 0.31696429
vt 0.56848958 0.31696429
vt 0.56848958 0.31696429
vt 0.56848958 0.31696429
vt 0.57239583 0.31696429
vt 0.54895833 0.31696429
vt 0.58020833 0.37946429
vt 0.54895833 0.37946429
vt 0.58020833 0.31696429
vt 0.54895833 0.37946429
vt 0.54895833 0.31696429
vt 0.54895833 0.31696429
vt 0.58020833 0.37946429
vt 0.54895833 0.37946429
vt 0.58020833 0.31696429
vt 0.54895833 0.37946429
vt 0.54895833 0.31696429
vt 0.54895833 0.31696429
vt 0.58020833 0.37946429
vt 0.54895833 0.37946429
vt 0.58020833 0.31696429
vt 0.54895833 0.37946429
vt 0.54895833 0.31696429
vt 0.58020833 0.31696429
vt 0.54895833 0.37946429
vt 0.54895833 0.31696429
vt 0.54895833 0.31696429
vt 0.58020833 0.37946429
vt 0.54895833 0.37946429
vt 0.56458333 0.37946429
vt 0.54895833 0.31696429
vt 0.58020833 0.31696429
vt 0.54895833 0.31696429
vt 0.58020833 0.31696429
vt 0.54895833 0.31696429
vt 0.58020833 0.31696429
vt 0.54895833 0.31696429
vt 0.58020833 0.31696429
vt 0.58020833 0.31696429
vt 0.58020833 0.37946429
vt 0.58020833 0.31696429
vt 0.58020833 0.37946429
vt 0.58020833 0.31696429
vt 0.58020833 0.37946429
vt 0.58020833 0.37946429
vt 0.58020833 0.31696429
vt 0.54895833 0.31696429
vt 0.54895833 0.31696429
vt 0.54895833 0.31696429
vt 0.54895833 0.31696429
vt 0.14895833 0.31696429
vt 0.14895833 0.31696429
vt 0.14895833 0.31696429
vt 0.14895833 0.31696429
vt 0.14895833 0.31696429
vt 0.15481783 0.31696429
vt 0.15364615 0.31696429
vt 0.15579427 0.31696429
vt 0.15720490 0.31696429
vt 0.15520852 0.31696429
vt 0.15677083 0.31696429
vt 0.14895833 0.31696429
vt 0.15364615 0.31696429
vt 0.14895833 0.31696429
vt 0.14895833 0.31696429
vt 0.14895833 0.31696429
vt 0.15481783 0.31696429
vt 0.15762302 0.31696429
vt 0.15720490 0.31696429
vt 0.15434390 0.31696429
vt 0.15546296 0.31696429
vt 0.15911477 0.31696429
vt 0.16458333 0.31696429
vt 0.15989590 0.31696429
vt 0.16458333 0.31696429
vt 0.16048177 0.31696429
vt 0.15677083 0.31696429
vt 0.15726921 0.32331341
vt 0.15677083 0.32321366
vt 0.15726921 0.31696429
vt 0.15726015 0.31696429
vt 0.16067708 0.31696429
vt 0.16458333 0.31696429
vt 0.16458333 0.31696429
vt 0.16067708 0.32399516
vt 0.16458333 0.32399516
vt 0.15677083 0.34821429
vt 0.15726921 0.35456341
vt 0.15677083 0.35446366
vt 0.15726921 0.34186516
vt 0.15725133 0.34821429
vt 0.16067708 0.34118328
vt 0.16458333 0.34821429
vt 0.16067708 0.34821429
vt 0.16458333 0.35524516
vt 0.16067708 0.35524516
vt 0.15677083 0.37946429
vt 0.15726921 0.37946429
vt 0.15677083 0.37946429
vt 0.15726921 0.37311516
vt 0.15727583 0.37946429
vt 0.16067708 0.37946429
vt 0.16458333 0.37243328
vt 0.16458333 0.37946429
vt 0.16067708 0.37946429
vt 0.16458333 0.37946429
vt 0.15643677 0.31696429
vt 0.15579427 0.31696429
vt 0.16458333 0.31696429
vt 0.16067708 0.31696429
vt 0.16067708 0.31696429
vt 0.15677083 0.31696429
vt 0.15728065 0.33258929
vt 0.15677083 0.33258929
vt 0.16067708 0.33258929
vt 0.16458333 0.34118328
vt 0.15677083 0.34196491
vt 0.15728208 0.36383929
vt 0.15677083 0.36383929
vt 0.16458333 0.36383929
vt 0.16067708 0.36383929
vt 0.16067708 0.37243341
vt 0.15677083 0.37321491
vt 0.15727921 0.37946429
vt 0.15677083 0.37946429
vt 0.16067708 0.37946429
vt 0.16458333 0.37946429
vt 0.16067708 0.37946429
vt 0.15677083 0.37946429
vt 0.15726921 0.37946429
vt 0.14895833 0.31696429
vt 0.14895833 0.31696429
vt 0.14895833 0.31696429
vt 0.14895833 0.31696429
vt 0.14895833 0.31696429
vt 0.15364615 0.31696429
vt 0.14895833 0.31696429
vt 0.15364615 0.31696429
vt 0.15520852 0.31696429
vt 0.14895833 0.31696429
vt 0.14895833 0.31696429
vt 0.14895833 0.31696429
vt 0.14895833 0.31696429
vt 0.14895833 0.31696429
vt 0.14895833 0.31696429
vt 0.14895833 0.31696429
vt 0.14895833 0.31696429
vt 0.15481783 0.31696429
vt 0.15364615 0.31696429
vt 0.15579427 0.31696429
vt 0.15720490 0.31696429
vt 0.15520852 0.31696429
vt 0.15677083 0.31696429
vt 0.14895833 0.31696429
vt 0.15364615 0.31696429
vt 0.14895833 0.31696429
vt 0.14895833 0.31696429
vt 0.14895833 0.31696429
vt 0.15762302 0.31696429
vt 0.15481783 0.31696429
vt 0.15720490 0.31696429
vt 0.15434390 0.31696429
vt 0.15364615 0.31696429
vt 0.15911477 0.31696429
vt 0.15989590 0.31696429
vt 0.16048177 0.31696429
vt 0.15726921 0.32331341
vt 0.15677083 0.31696429
vt 0.15677083 0.32321366
vt 0.15726921 0.31696429
vt 0.15677083 0.31696429
vt 0.16067708 0.31696429
vt 0.16067708 0.31696429
vt 0.16067708 0.32399516
vt 0.15726921 0.35456341
vt 0.15677083 0.34821429
vt 0.15677083 0.35446366
vt 0.15726921 0.34186516
vt 0.15677083 0.34196491
vt 0.16067708 0.34118328
vt 0.16067708 0.34821429
vt 0.16067708 0.35524516
vt 0.15726921 0.37946429
vt 0.15677083 0.37946429
vt 0.15677083 0.37946429
vt 0.15726921 0.37311516
vt 0.15677083 0.37321491
vt 0.16067708 0.37946429
vt 0.16067708 0.37243341
vt 0.16067708 0.37946429
vt 0.15643677 0.31696429
vt 0.16067708 0.31696429
vt 0.15579427 0.31696429
vt 0.15728065 0.33258929
vt 0.16067708 0.33258929
vt 0.16458333 0.33258929
vt 0.15677083 0.33258929
vt 0.15728208 0.36383929
vt 0.16067708 0.36383929
vt 0.15677083 0.36383929
vt 0.15727921 0.37946429
vt 0.16067708 0.37946429
vt 0.16458333 0.37946429
vt 0.15677083 0.37946429
vt 0.15677083 0.37946429
vt 0.15726015 0.31696429
vt 0.15725133 0.34821429
vt 0.15727583 0.37946429
vt 0.15726921 0.37946429
vt 0.15546296 0.31696429
vt 0.14895833 0.31696429
vt 0.14895833 0.31696429
vt 0.14895833 0.31696429
vt 0.14895833 0.31696429
vt 0.14895833 0.31696429
vt 0.15520852 0.31696429
vt 0.14895833 0.31696429
vt 0.15364615 0.31696429
vt 0.14895833 0.31696429
vt 0.14895833 0.31696429
vt 0.14895833 0.31696429
vt 0.14895833 0.31696429
vt 0.16458333 0.31696429
vt 0.14895833 0.31696429
vt 0.16067708 0.37946429
f 1/1 2/2 3/3
f 4/4 5/5 6/6
f 7/7 8/8 9/9
f 10/10 11/11 12/12
f 13/13 14/14 15/15
f 16/16 17/17 18/18
f 19/19 20/20 21/21
f 22/22 23/23 24/24
f 25/25 26/26 27/27
f 28/28 29/29 30/30
f 31/31 32/32 33/33
f 34/34 35/35 36/36
f 37/37 38/38 39/39
f 40/40 41/41 42/42
f 43/43 44/44 45/45
f 46/46 47/47 48/48
f 47/47 49/49 50/50
f 51/51 52/52 53/53
f 48/48 50/50 54/54
f 44/44 55/55 56/56
f 57/57 58/58 59/59
f 45/45 56/56 60/60
f 61/61 62/62 63/63
f 64/64 65/65 62/62
f 64/64 66/66 41/41
f 38/38 67/67 68/68
f 69/69 70/70 71/71
f 39/39 68/68 72/72
f 73/73 74/74 75/75
f 76/76 77/77 74/74
f 76/76 78/78 35/35
f 32/32 79/79 80/80
f 81/81 82/82 83/83
f 33/33 80/80 84/84
f 85/85 86/86 87/87
f 88/88 89/89 86/86
f 88/88 90/90 29/29
f 91/91 92/92 93/93
f 94/94 95/95 92/92
f 94/94 96/96 26/26
f 23/23 97/97 98/98
f 99/99 100/100 101/101
f 24/24 98/98 102/102
f 103/103 104/104 105/105
f 106/106 107/107 104/104
f 106/106 108/108 20/20
f 109/109 110/110 111/111
f 112/112 113/113 110/110
f 112/112 114/114 17/17
f 14/14 115/115 116/116
f 117/117 118/118 119/119
f 15/15 116/116 120/120
f 121/121 122/122 123/123
f 124/124 125/125 122/122
f 124/124 126/126 11/11
f 8/8 127/127 128/128
f 129/129 130/130 131/131
f 9/9 128/128 132/132
f 5/5 133/133 134/134
f 135/135 136/136 137/137
f 6/6 134/134 138/138
f 139/139 140/140 141/141
f 142/142 143/143 140/140
f 142/142 144/144 2/2
f 1/1 142/142 2/2
f 4/4 136/136 5/5
f 7/7 130/130 8/8
f 10/10 124/124 11/11
f 13/13 118/118 14/14
f 16/16 112/112 17/17
f 19/19 106/106 20/20
f 22/22 100/100 23/23
f 25/25 94/94 26/26
f 28/28 88/88 29/29
f 31/31 82/82 32/32
f 34/34 76/76 35/35
f 37/37 70/70 38/38
f 40/40 64/64 41/41
f 43/43 58/58 44/44
f 46/46 52/52 47/47
f 47/47 51/51 49/49
f 51/51 47/47 52/52
f 48/48 47/47 50/50
f 44/44 57/57 55/55
f 57/57 44/44 58/58
f 45/45 44/44 56/56
f 61/61 64/64 62/62
f 64/64 40/40 65/65
f 64/64 61/61 66/66
f 38/38 69/69 67/67
f 69/69 38/38 70/70
f 39/39 38/38 68/68
f 73/73 76/76 74/74
f 76/76 34/34 77/77
f 76/76 73/73 78/78
f 32/32 81/81 79/79
f 81/81 32/32 82/82
f 33/33 32/32 80/80
f 85/85 88/88 86/86
f 88/88 28/28 89/89
f 88/88 85/85 90/90
f 91/91 94/94 92/92
f 94/94 25/25 95/95
f 94/94 91/91 96/96
f 23/23 99/99 97/97
f 99/99 23/23 100/100
f 24/24 23/23 98/98
f 103/103 106/106 104/104
f 106/106 19/19 107/107
f 106/106 103/103 108/108
f 109/109 112/112 110/110
f 112/112 16/16 113/113
f 112/112 109/109 114/114
f 14/14 117/117 115/115
f 117/117 14/14 118/118
f 15/15 14/14 116/116
f 121/121 124/124 122/122
f 124/124 10/10 125/125
f 124/124 121/121 126/126
f 8/8 129/129 127/127
f 129/129 8/8 130/130
f 9/9 8/8 128/128
f 5/5 135/135 133/133
f 135/135 5/5 136/136
f 6/6 5/5 134/134
f 139/139 142/142 140/140
f 142/142 1/1 143/143
f 142/142 139/139 144/144
f 145/145 146/146 147/147
f 148/148 149/149 150/150
f 151/151 152/152 153/153
f 150/150 154/154 148/148
f 155/155 156/156 157/157
f 158/158 159/159 160/160
f 148/148 161/161 162/162
f 163/163 164/164 165/165
f 166/166 167/167 168/168
f 169/169 170/170 171/171
f 172/172 173/173 166/166
f 174/174 175/175 176/176
f 177/177 178/178 179/179
f 166/166 180/180 172/172
f 181/181 182/182 183/183
f 184/184 185/185 186/186
f 187/187 188/188 189/189
f 190/190 191/191 192/192
f 193/193 194/194 195/195
f 196/196 197/197 198/198
f 199/199 200/200 201/201
f 202/202 203/203 204/204
f 205/205 206/206 207/207
f 208/208 209/209 210/210
f 211/211 212/212 213/213
f 214/214 215/215 216/216
f 217/217 218/218 219/219
f 220/220 221/221 222/222
f 223/223 224/224 225/225
f 226/226 227/227 228/228
f 229/229 230/230 231/231
f 229/229 232/232 233/233
f 227/227 231/231 234/234
f 235/235 236/236 237/237
f 235/235 238/238 239/239
f 224/224 237/237 240/240
f 241/241 242/242 243/243
f 242/242 244/244 245/245
f 221/221 246/246 222/222
f 247/247 248/248 249/249
f 247/247 250/250 251/251
f 218/218 249/249 252/252
f 253/253 254/254 255/255
f 254/254 256/256 257/257
f 215/215 258/258 216/216
f 259/259 260/260 261/261
f 259/259 262/262 263/263
f 212/212 261/261 264/264
f 265/265 266/266 267/267
f 266/266 268/268 269/269
f 209/209 270/270 210/210
f 271/271 272/272 273/273
f 272/272 274/274 275/275
f 206/206 276/276 207/207
f 277/277 278/278 279/279
f 277/277 280/280 281/281
f 203/203 279/279 282/282
f 283/283 284/284 285/285
f 284/284 286/286 287/287
f 200/200 288/288 201/201
f 289/289 290/290 291/291
f 290/290 292/292 293/293
f 197/197 294/294 198/198
f 295/295 296/296 297/297
f 295/295 298/298 299/299
f 194/194 297/297 300/300
f 301/301 302/302 303/303
f 302/302 304/304 305/305
f 191/191 306/306 192/192
f 307/307 308/308 309/309
f 307/307 310/310 311/311
f 188/188 309/309 312/312
f 313/313 314/314 315/315
f 313/313 316/316 317/317
f 185/185 315/315 318/318
f 319/319 320/320 321/321
f 320/320 322/322 323/323
f 182/182 324/324 183/183
f 168/168 325/325 166/166
f 326/326 327/327 325/325
f 180/180 328/328 329/329
f 330/330 325/325 327/327
f 172/172 329/329 331/331
f 332/332 164/164 333/333
f 334/334 165/165 164/164
f 334/334 335/335 178/178
f 177/177 170/170 165/165
f 336/336 171/171 170/170
f 336/336 179/179 175/175
f 175/175 337/337 176/176
f 338/338 331/331 337/337
f 338/338 179/179 173/173
f 163/163 339/339 340/340
f 341/341 342/342 339/339
f 341/341 165/165 170/170
f 167/167 335/335 343/343
f 178/178 173/173 179/179
f 168/168 343/343 344/344
f 345/345 346/346 347/347
f 348/348 340/340 346/346
f 348/348 333/333 164/164
f 162/162 349/349 148/148
f 350/350 351/351 352/352
f 161/161 353/353 354/354
f 355/355 154/154 356/356
f 162/162 354/354 351/351
f 145/145 332/332 333/333
f 357/357 335/335 332/332
f 357/357 147/147 159/159
f 151/151 159/159 147/147
f 358/358 160/160 159/159
f 358/358 153/153 156/156
f 359/359 155/155 157/157
f 360/360 160/160 155/155
f 360/360 356/356 154/154
f 361/361 146/146 362/362
f 363/363 147/147 146/146
f 363/363 364/364 152/152
f 149/149 335/335 158/158
f 343/343 349/349 344/344
f 150/150 158/158 160/160
f 365/365 345/345 347/347
f 366/366 333/333 345/345
f 366/366 362/362 146/146
f 350/350 367/367 368/368
f 369/369 367/367 352/352
f 369/369 370/370 371/371
f 326/326 370/370 372/372
f 326/326 373/373 374/374
f 344/344 373/373 168/168
f 350/350 375/375 349/349
f 344/344 375/375 376/376
f 377/377 378/378 379/379
f 380/380 381/381 382/382
f 383/383 384/384 385/385
f 386/386 387/387 388/388
f 389/389 390/390 391/391
f 392/392 393/393 394/394
f 395/395 396/396 397/397
f 398/398 399/399 400/400
f 401/401 402/402 403/403
f 401/401 404/404 405/405
f 401/401 406/406 407/407
f 401/401 408/408 409/409
f 145/145 366/366 146/146
f 148/148 349/349 149/149
f 151/151 363/363 152/152
f 150/150 360/360 154/154
f 155/155 358/358 156/156
f 158/158 357/357 159/159
f 148/148 154/154 161/161
f 163/163 348/348 164/164
f 166/166 173/173 167/167
f 169/169 341/341 170/170
f 172/172 338/338 173/173
f 174/174 336/336 175/175
f 177/177 334/334 178/178
f 166/166 325/325 180/180
f 181/181 322/322 182/182
f 184/184 313/313 185/185
f 187/187 307/307 188/188
f 190/190 304/304 191/191
f 193/193 295/295 194/194
f 196/196 292/292 197/197
f 199/199 286/286 200/200
f 202/202 277/277 203/203
f 205/205 274/274 206/206
f 208/208 268/268 209/209
f 211/211 259/259 212/212
f 214/214 256/256 215/215
f 217/217 247/247 218/218
f 220/220 244/244 221/221
f 223/223 235/235 224/224
f 226/226 229/229 227/227
f 229/229 233/233 230/230
f 229/229 226/226 232/232
f 227/227 229/229 231/231
f 235/235 239/239 236/236
f 235/235 223/223 238/238
f 224/224 235/235 237/237
f 241/241 221/221 242/242
f 242/242 221/221 244/244
f 221/221 241/241 246/246
f 247/247 251/251 248/248
f 247/247 217/217 250/250
f 218/218 247/247 249/249
f 253/253 215/215 254/254
f 254/254 215/215 256/256
f 215/215 253/253 258/258
f 259/259 263/263 260/260
f 259/259 211/211 262/262
f 212/212 259/259 261/261
f 265/265 209/209 266/266
f 266/266 209/209 268/268
f 209/209 265/265 270/270
f 271/271 206/206 272/272
f 272/272 206/206 274/274
f 206/206 271/271 276/276
f 277/277 281/281 278/278
f 277/277 202/202 280/280
f 203/203 277/277 279/279
f 283/283 200/200 284/284
f 284/284 200/200 286/286
f 200/200 283/283 288/288
f 289/289 197/197 290/290
f 290/290 197/197 292/292
f 197/197 289/289 294/294
f 295/295 299/299 296/296
f 295/295 193/193 298/298
f 194/194 295/295 297/297
f 301/301 191/191 302/302
f 302/302 191/191 304/304
f 191/191 301/301 306/306
f 307/307 311/311 308/308
f 307/307 187/187 310/310
f 188/188 307/307 309/309
f 313/313 317/317 314/314
f 313/313 184/184 316/316
f 185/185 313/313 315/315
f 319/319 182/182 320/320
f 320/320 182/182 322/322
f 182/182 319/319 324/324
f 168/168 326/326 325/325
f 326/326 372/372 327/327
f 180/180 330/330 328/328
f 330/330 180/180 325/325
f 172/172 180/180 329/329
f 332/332 334/334 164/164
f 334/334 177/177 165/165
f 334/334 332/332 335/335
f 177/177 336/336 170/170
f 336/336 174/174 171/171
f 336/336 177/177 179/179
f 175/175 338/338 337/337
f 338/338 172/172 331/331
f 338/338 175/175 179/179
f 163/163 341/341 339/339
f 341/341 169/169 342/342
f 341/341 163/163 165/165
f 167/167 178/178 335/335
f 178/178 167/167 173/173
f 168/168 167/167 343/343
f 345/345 348/348 346/346
f 348/348 163/163 340/340
f 348/348 345/345 333/333
f 162/162 350/350 349/349
f 350/350 162/162 351/351
f 161/161 355/355 353/353
f 355/355 161/161 154/154
f 162/162 161/161 354/354
f 145/145 357/357 332/332
f 357/357 158/158 335/335
f 357/357 145/145 147/147
f 151/151 358/358 159/159
f 358/358 155/155 160/160
f 358/358 151/151 153/153
f 359/359 360/360 155/155
f 360/360 150/150 160/160
f 360/360 359/359 356/356
f 361/361 363/363 146/146
f 363/363 151/151 147/147
f 363/363 361/361 364/364
f 149/149 343/343 335/335
f 343/343 149/149 349/349
f 150/150 149/149 158/158
f 365/365 366/366 345/345
f 366/366 145/145 333/333
f 366/366 365/365 362/362
f 350/350 352/352 367/367
f 369/369 371/371 367/367
f 369/369 372/372 370/370
f 326/326 374/374 370/370
f 326/326 168/168 373/373
f 344/344 376/376 373/373
f 350/350 368/368 375/375
f 344/344 349/349 375/375
f 377/377 410/410 378/378
f 380/380 411/411 381/381
f 383/383 412/412 384/384
f 386/386 413/413 387/387
f 389/389 414/414 390/390
f 392/392 415/415 393/393
f 395/395 416/416 396/396
f 398/398 417/417 399/399
f 401/401 418/418 402/402
f 401/401 419/419 404/404
f 401/401 420/420 406/406
f 401/401 421/421 408/408
f 422/422 423/423 424/424
f 425/425 422/422 426/426
f 427/427 425/425 428/428
f 429/429 427/427 430/430
f 431/431 429/429 432/432
f 433/433 431/431 434/434
f 435/435 433/433 436/436
f 423/423 435/435 437/437
f 438/438 439/439 440/440
f 438/438 441/441 442/442
f 443/443 444/444 445/445
f 445/445 446/446 447/447
f 448/448 449/449 450/450
f 448/448 451/451 452/452
f 453/453 454/454 455/455
f 456/456 455/455 457/457
f 458/458 459/459 460/460
f 458/458 461/461 462/462
f 463/463 464/464 465/465
f 465/465 466/466 467/467
f 468/468 469/469 470/470
f 468/468 471/471 472/472
f 473/473 474/474 475/475
f 476/476 475/475 477/477
f 440/440 478/478 479/479
f 447/447 480/480 481/481
f 480/480 482/482 481/481
f 478/478 483/483 479/479
f 450/450 484/484 485/485
f 457/457 486/486 456/456
f 486/486 487/487 463/463
f 484/484 488/488 485/485
f 460/460 489/489 490/490
f 467/467 491/491 492/492
f 491/491 493/493 492/492
f 489/489 494/494 490/490
f 470/470 495/495 496/496
f 477/477 497/497 476/476
f 497/497 498/498 499/499
f 495/495 500/500 496/496
f 449/449 453/453 456/456
f 449/449 486/486 484/484
f 461/461 486/486 463/463
f 462/462 463/463 465/465
f 462/462 467/467 459/459
f 459/459 492/492 489/489
f 471/471 492/492 493/493
f 472/472 493/493 473/473
f 472/472 476/476 469/469
f 469/469 497/497 495/495
f 501/501 497/497 499/499
f 441/441 445/445 442/442
f 442/442 447/447 439/439
f 439/439 481/481 478/478
f 451/451 481/481 482/482
f 452/452 482/482 453/453
f 502/502 422/422 424/424
f 503/503 424/424 423/423
f 504/504 426/426 505/505
f 505/505 422/422 506/506
f 507/507 427/427 428/428
f 504/504 428/428 425/425
f 479/479 430/430 440/440
f 440/440 427/427 438/438
f 483/483 431/431 432/432
f 479/479 432/432 429/429
f 508/508 434/434 509/509
f 509/509 431/431 510/510
f 511/511 435/435 436/436
f 508/508 436/436 433/433
f 503/503 437/437 512/512
f 512/512 435/435 513/513
f 514/514 515/515 516/516
f 515/515 517/517 518/518
f 517/517 519/519 520/520
f 519/519 521/521 522/522
f 521/521 523/523 524/524
f 523/523 525/525 526/526
f 525/525 527/527 528/528
f 527/527 514/514 529/529
f 530/530 531/531 532/532
f 531/531 533/533 534/534
f 444/444 535/535 536/536
f 446/446 536/536 537/537
f 538/538 539/539 540/540
f 539/539 541/541 542/542
f 543/543 454/454 544/544
f 545/545 455/455 543/543
f 546/546 547/547 548/548
f 547/547 549/549 550/550
f 464/464 551/551 552/552
f 466/466 552/552 553/553
f 554/554 555/555 556/556
f 555/555 557/557 558/558
f 559/559 474/474 560/560
f 561/561 475/475 559/559
f 532/532 562/562 530/530
f 537/537 480/480 446/446
f 544/544 480/480 563/563
f 542/542 562/562 564/564
f 540/540 565/565 538/538
f 566/566 457/457 545/545
f 566/566 487/487 567/567
f 550/550 565/565 568/568
f 548/548 569/569 546/546
f 553/553 491/491 466/466
f 560/560 491/491 570/570
f 558/558 569/569 571/571
f 556/556 572/572 554/554
f 573/573 477/477 561/561
f 573/573 498/498 574/574
f 575/575 572/572 576/576
f 538/538 543/543 577/577
f 566/566 538/538 565/565
f 549/549 566/566 565/565
f 578/578 551/551 549/549
f 553/553 578/578 546/546
f 570/570 546/546 569/569
f 557/557 570/570 569/569
f 579/579 560/560 557/557
f 561/561 579/579 554/554
f 573/573 554/554 572/572
f 580/580 573/573 572/572
f 536/536 533/533 581/581
f 537/537 581/581 530/530
f 563/563 530/530 562/562
f 541/541 563/563 562/562
f 577/577 544/544 541/541
f 582/582 515/515 583/583
f 584/584 516/516 582/582
f 518/518 585/585 586/586
f 515/515 586/586 583/583
f 534/534 519/519 531/531
f 585/585 520/520 534/534
f 522/522 564/564 532/532
f 519/519 532/532 531/531
f 542/542 523/523 587/587
f 564/564 524/524 542/542
f 526/526 588/588 589/589
f 523/523 589/589 587/587
f 590/590 527/527 591/591
f 588/588 528/528 590/590
f 529/529 584/584 592/592
f 527/527 592/592 591/591
f 422/422 593/593 423/423
f 425/425 593/593 422/422
f 427/427 593/593 425/425
f 429/429 593/593 427/427
f 431/431 593/593 429/429
f 433/433 593/593 431/431
f 435/435 593/593 433/433
f 423/423 593/593 435/435
f 438/438 442/442 439/439
f 438/438 507/507 441/441
f 443/443 594/594 444/444
f 445/445 444/444 446/446
f 448/448 452/452 449/449
f 448/448 483/483 451/451
f 453/453 482/482 454/454
f 456/456 453/453 455/455
f 458/458 462/462 459/459
f 458/458 488/488 461/461
f 463/463 487/487 464/464
f 465/465 464/464 466/466
f 468/468 472/472 469/469
f 468/468 494/494 471/471
f 473/473 493/493 474/474
f 476/476 473/473 475/475
f 440/440 439/439 478/478
f 447/447 446/446 480/480
f 480/480 454/454 482/482
f 478/478 451/451 483/483
f 450/450 449/449 484/484
f 457/457 567/567 486/486
f 486/486 567/567 487/487
f 484/484 461/461 488/488
f 460/460 459/459 489/489
f 467/467 466/466 491/491
f 491/491 474/474 493/493
f 489/489 471/471 494/494
f 470/470 469/469 495/495
f 477/477 574/574 497/497
f 497/497 574/574 498/498
f 495/495 501/501 500/500
f 449/449 452/452 453/453
f 449/449 456/456 486/486
f 461/461 484/484 486/486
f 462/462 461/461 463/463
f 462/462 465/465 467/467
f 459/459 467/467 492/492
f 471/471 489/489 492/492
f 472/472 471/471 493/493
f 472/472 473/473 476/476
f 469/469 476/476 497/497
f 501/501 495/495 497/497
f 441/441 443/443 445/445
f 442/442 445/445 447/447
f 439/439 447/447 481/481
f 451/451 478/478 481/481
f 452/452 451/451 482/482
f 502/502 506/506 422/422
f 503/503 502/502 424/424
f 504/504 425/425 426/426
f 505/505 426/426 422/422
f 507/507 438/438 427/427
f 504/504 507/507 428/428
f 479/479 429/429 430/430
f 440/440 430/430 427/427
f 483/483 510/510 431/431
f 479/479 483/483 432/432
f 508/508 433/433 434/434
f 509/509 434/434 431/431
f 511/511 513/513 435/435
f 508/508 511/511 436/436
f 503/503 423/423 437/437
f 512/512 437/437 435/435
f 514/514 595/595 515/515
f 515/515 595/595 517/517
f 517/517 595/595 519/519
f 519/519 595/595 521/521
f 521/521 595/595 523/523
f 523/523 595/595 525/525
f 525/525 595/595 527/527
f 527/527 595/595 514/514
f 530/530 581/581 531/531
f 531/531 581/581 533/533
f 444/444 594/594 535/535
f 446/446 444/444 536/536
f 538/538 577/577 539/539
f 539/539 577/577 541/541
f 543/543 455/455 454/454
f 545/545 457/457 455/455
f 546/546 578/578 547/547
f 547/547 578/578 549/549
f 464/464 487/487 551/551
f 466/466 464/464 552/552
f 554/554 579/579 555/555
f 555/555 579/579 557/557
f 559/559 475/475 474/474
f 561/561 477/477 475/475
f 532/532 564/564 562/562
f 537/537 563/563 480/480
f 544/544 454/454 480/480
f 542/542 541/541 562/562
f 540/540 568/568 565/565
f 566/566 567/567 457/457
f 566/566 551/551 487/487
f 550/550 549/549 565/565
f 548/548 571/571 569/569
f 553/553 570/570 491/491
f 560/560 474/474 491/491
f 558/558 557/557 569/569
f 556/556 576/576 572/572
f 573/573 574/574 477/477
f 573/573 596/596 498/498
f 575/575 580/580 572/572
f 538/538 545/545 543/543
f 566/566 545/545 538/538
f 549/549 551/551 566/566
f 578/578 552/552 551/551
f 553/553 552/552 578/578
f 570/570 553/553 546/546
f 557/557 560/560 570/570
f 579/579 559/559 560/560
f 561/561 559/559 579/579
f 573/573 561/561 554/554
f 580/580 596/596 573/573
f 536/536 535/535 533/533
f 537/537 536/536 581/581
f 563/563 537/537 530/530
f 541/541 544/544 563/563
f 577/577 543/543 544/544
f 582/582 516/516 515/515
f 584/584 514/514 516/516
f 518/518 517/517 585/585
f 515/515 518/518 586/586
f 534/534 520/520 519/519
f 585/585 517/517 520/520
f 522/522 521/521 564/564
f 519/519 522/522 532/532
f 542/542 524/524 523/523
f 564/564 521/521 524/524
f 526/526 525/525 588/588
f 523/523 526/526 589/589
f 590/590 528/528 527/527
f 588/588 525/525 528/528
f 529/529 514/514 584/584
f 527/527 529/529 592/592

