# Exported from 3D Builder
o Object.1
v 39.988457 17.002075 30.764690
v 37.628464 17.002075 30.764690
v 38.808464 17.002075 30.304688
v 39.328461 17.002075 30.084690
v 39.528458 17.002075 29.584690
v 40.488457 17.002075 29.584690
v 40.108459 17.782074 30.664688
v 40.488457 17.782074 29.584690
v 40.548462 17.782074 31.764690
v 40.548462 20.182076 29.584690
v 40.368462 17.782074 28.784691
v 40.368462 20.182076 28.784691
v 39.808464 17.782074 28.164688
v 40.008461 17.782074 28.384689
v 38.808464 17.002075 27.904690
v 38.808464 17.782074 27.904690
v 37.628464 17.002075 28.404690
v 37.628464 17.782074 28.384689
v 37.128464 17.002075 29.584690
v 37.128464 17.782074 29.644688
v 36.728462 17.782074 27.504690
v 36.748459 17.782074 29.704689
v 36.508461 17.782074 27.724689
v 36.808464 19.242075 27.364689
v 36.848457 17.782074 27.384689
v 37.188461 19.242075 27.084690
v 37.208458 18.482075 27.084690
v 37.228462 17.782074 27.084690
v 38.328461 17.782074 27.124689
v 39.728462 17.782074 28.084690
v 38.308464 18.482075 27.104689
v 37.788460 17.782074 26.944689
v 38.308464 19.242075 27.104689
v 38.308464 19.702074 27.104689
v 38.308464 20.182076 27.104689
v 39.808464 20.182076 28.164688
v 38.228462 20.542074 27.224689
v 37.768463 20.182076 26.924690
v 37.768463 20.542074 27.064690
v 37.208458 20.182076 27.084690
v 37.288460 20.542074 27.204689
v 36.608459 20.542074 27.804688
v 36.828461 20.182076 27.364689
v 36.508461 20.182076 27.704689
v 34.728462 20.542074 30.124691
v 35.108459 20.182076 29.424690
v 34.608459 20.182076 30.044689
v 32.848457 20.542074 32.444691
v 33.848457 20.182076 30.984688
v 32.708458 20.182076 32.364689
v 31.808462 20.542074 33.704689
v 31.688459 20.182076 33.604691
v 29.628462 20.782074 36.024689
v 29.828459 21.122074 36.024689
v 28.608461 21.382074 37.184689
v 28.068460 22.182076 38.024689
v 27.648458 21.922075 38.244690
v 26.228460 23.182076 39.924690
v 25.868460 22.802074 40.004688
v 24.508459 23.382074 41.144688
v 24.168459 24.082075 41.664688
v 23.428461 23.762075 41.884689
v 22.528460 24.042074 42.404690
v 21.708460 24.262075 42.764690
v 21.828461 24.842075 42.984688
v 20.768459 24.462074 43.044689
v 19.728460 24.622074 43.224689
v 19.128460 25.342075 43.524689
v 18.468460 24.782074 43.284691
v 16.608459 24.882074 43.184689
v 16.308460 25.562075 43.424690
v 15.248461 24.902075 43.044689
v 13.508461 24.902075 42.824688
v 13.468460 25.522074 43.044689
v 12.408461 24.902075 42.684689
v 11.208460 24.902075 42.544689
v 10.668461 25.522074 42.704689
v 9.908461 24.902075 42.384689
v 8.428461 24.902075 42.204689
v 7.848461 25.522074 42.364689
v 6.788461 24.902075 42.004688
v 5.048460 25.522074 42.004688
v 4.928460 24.902075 41.764690
v 2.848460 24.902075 41.524689
v 2.248460 25.522074 41.664688
v 0.688460 24.902075 41.244690
v -0.571540 25.522074 41.324688
v -1.311540 24.902075 41.004688
v -3.071540 24.902075 40.784691
v -3.371540 25.522074 40.984688
v -4.651540 24.902075 40.604691
v -6.031540 24.902075 40.424690
v -6.191540 25.522074 40.624691
v -7.251540 24.902075 40.284691
v -8.311540 24.902075 40.144688
v -8.991541 25.522074 40.284691
v -9.271540 24.902075 40.024689
v -10.091539 24.902075 39.924690
v -10.831539 24.902075 39.844688
v -11.491540 24.902075 39.764690
v -11.811540 25.522074 39.944691
v -12.091539 24.902075 39.684689
v -12.671539 24.902075 39.624691
v -13.211540 24.902075 39.544689
v -13.751539 24.902075 39.484688
v -14.291540 24.902075 39.444691
v -14.631540 25.522074 39.624691
v -14.891540 24.902075 39.384689
v -15.531540 24.902075 39.364689
v -16.171539 24.902075 39.364689
v -16.771540 24.902075 39.384689
v -17.331539 24.902075 39.404690
v -17.511539 25.522074 39.644688
v -17.891541 24.902075 39.444691
v -18.491539 24.902075 39.484688
v -19.091539 24.902075 39.524689
v -19.731541 24.902075 39.584690
v -20.351540 25.522074 39.864689
v -20.411541 24.902075 39.644688
v -21.111540 24.902075 39.704689
v -21.871540 24.902075 39.784691
v -22.671539 24.902075 39.864689
v -23.191540 25.502075 40.124691
v -23.491539 24.902075 39.944691
v -23.411541 25.242075 39.984688
v -23.631538 25.162075 39.924690
v -23.371540 25.582075 40.104691
v -23.571541 25.322075 39.964691
v -23.251541 25.782074 40.224689
v -23.031540 25.822075 40.384689
v -23.071541 25.602074 40.204689
v -22.831539 25.762075 40.384689
v -22.571541 25.862074 40.604691
v -21.731541 25.862074 40.544689
v -20.931540 25.862074 40.464691
v -21.251541 25.342075 44.184689
v -21.691540 25.842075 42.984688
v -21.751541 25.642075 43.624691
v -21.851540 25.922075 43.004688
v -22.691540 25.942074 40.704689
v -22.771540 26.102074 40.724689
v -22.131538 26.242075 41.844688
v -21.931540 26.082075 43.044689
v -22.051540 25.422075 44.244690
v -21.911541 25.342075 44.244690
v -21.971539 25.282074 44.364689
v -21.351540 25.182076 44.424690
v -20.651539 25.182076 44.364689
v -20.991539 24.302074 45.244690
v -22.031540 25.182076 44.484688
v -22.251541 24.742075 44.924690
v -22.151539 25.242075 44.504688
v -22.231541 25.342075 44.564690
v -22.671539 24.382074 45.384689
v -22.571541 24.302074 45.384689
v -22.851540 24.202074 45.564690
v -22.711540 24.162075 45.524689
v -22.171539 23.622074 45.644688
v -21.471539 23.622074 45.584690
v -20.811539 23.622074 45.504688
v -20.191540 23.622074 45.444691
v -19.791540 24.302074 45.124691
v -19.591539 23.622074 45.404690
v -19.051540 23.622074 45.344688
v -18.891541 24.302074 45.044689
v -19.371540 25.182076 44.244690
v -19.951540 25.182076 44.284691
v -20.531540 25.342075 44.124691
v -19.851540 25.342075 44.064690
v -20.191540 25.862074 40.384689
v -19.471539 25.862074 40.324688
v -18.811539 25.862074 40.284691
v -18.171539 25.862074 40.224689
v -17.571541 25.862074 40.184689
v -17.391541 25.342075 43.864689
v -17.631538 25.342075 43.884689
v -17.951540 25.342075 43.904690
v -17.671539 25.182076 44.104691
v -17.991539 25.182076 44.124691
v -17.651539 24.302074 44.944691
v -18.191540 24.302074 44.984688
v -18.431540 25.182076 44.164688
v -18.891541 25.182076 44.204689
v -18.531540 23.622074 45.304688
v -18.051540 23.622074 45.264690
v -18.451540 20.722075 45.344688
v -19.191540 20.722075 45.404690
v -19.971539 20.722075 45.264690
v -19.991539 20.722075 45.484688
v -20.851540 20.722075 45.564690
v -21.811539 20.722075 45.664688
v -22.491539 20.722075 45.284691
v -20.931540 20.722075 44.064690
v -21.431540 20.722075 44.124691
v -21.391541 23.622074 44.064690
v -21.891541 23.622074 44.104691
v -21.751541 24.362074 42.724689
v -20.691540 24.482075 41.164688
v -20.911541 23.622074 44.024689
v -19.411541 24.482075 41.044689
v -19.211540 24.342075 42.584690
v -18.251541 24.482075 40.964691
v -18.191540 24.502075 41.724689
v -17.191540 24.482075 40.884689
v -18.791540 20.722075 42.284691
v -18.991539 20.722075 42.444691
v -19.551540 20.722075 43.944691
v -17.651539 20.722075 42.364689
v -19.491539 22.182076 43.904690
v -19.431540 23.622074 43.884689
v -18.791540 20.722075 43.884689
v -18.451540 23.622074 43.804688
v -17.711540 24.342075 42.444691
v -17.671539 23.622074 43.744690
v -18.031540 20.722075 43.824688
v -17.251541 20.722075 43.764690
v -17.431540 20.722075 45.264690
v -17.171539 20.722075 45.264690
v -17.191540 23.622074 45.204689
v -17.611540 23.622074 45.224689
v -17.791540 20.722075 45.304688
v -17.231541 24.302074 44.924690
v -16.891541 24.302074 44.904690
v -17.211540 25.182076 44.064690
v -17.411541 25.182076 44.084690
v -17.191540 25.342075 43.844688
v -17.031540 25.182076 44.064690
v -17.011539 25.342075 43.844688
v -16.871540 25.342075 43.824688
v -16.991539 25.862074 40.144688
v -16.411541 25.862074 40.124691
v -15.791540 25.862074 40.124691
v -15.131540 25.862074 40.144688
v -15.351540 25.342075 43.824688
v -15.591539 25.342075 43.804688
v -15.831539 25.342075 43.804688
v -15.631540 25.182076 44.044689
v -15.871540 25.182076 44.024689
v -15.571540 24.302074 44.884689
v -16.011539 24.302074 44.884689
v -16.091539 25.182076 44.024689
v -16.311539 25.182076 44.024689
v -16.331539 24.302074 44.884689
v -16.491539 25.182076 44.044689
v -16.631538 25.182076 44.044689
v -16.611540 24.302074 44.884689
v -16.751541 25.182076 44.044689
v -16.891541 25.182076 44.044689
v -16.771540 23.622074 45.184689
v -16.311539 23.622074 45.164688
v -16.531540 20.722075 45.224689
v -16.471539 20.722075 43.724689
v -16.191540 20.722075 45.224689
v -15.931540 20.722075 43.724689
v -15.831539 20.722075 45.224689
v -15.811540 23.622074 45.164688
v -15.491540 20.722075 45.224689
v -15.291540 23.622074 45.184689
v -15.011539 24.302074 44.924690
v -15.391540 25.182076 44.044689
v -15.171539 25.182076 44.064690
v -15.131540 25.342075 43.844688
v -14.931540 25.182076 44.064690
v -14.871540 25.342075 43.864689
v -14.531540 25.862074 40.184689
v -13.971540 25.862074 40.244690
v -13.431540 25.862074 40.304688
v -12.851540 25.862074 40.364689
v -12.251539 25.862074 40.444691
v -12.971540 25.342075 44.064690
v -13.291540 25.342075 44.024689
v -13.031540 25.182076 44.284691
v -13.351540 25.182076 44.244690
v -12.771540 24.302074 45.164688
v -13.511539 24.302074 45.064690
v -13.651540 25.182076 44.204689
v -13.971540 25.182076 44.164688
v -14.071540 24.302074 45.004688
v -14.291540 25.182076 44.124691
v -14.531540 24.302074 44.964691
v -14.631540 25.182076 44.104691
v -14.851540 23.622074 45.224689
v -14.431540 23.622074 45.264690
v -14.511539 20.722075 45.304688
v -14.831539 20.722075 45.264690
v -15.151540 20.722075 45.244690
v -14.731540 20.722075 43.784691
v -13.811540 20.722075 43.864689
v -12.911539 20.722075 43.984688
v -12.111540 20.722075 45.264690
v -11.851540 20.722075 44.104691
v -11.531540 20.722075 44.144688
v -11.191540 20.722075 44.184689
v -10.111540 20.722075 44.324688
v -9.371540 20.722075 45.264690
v -8.711540 20.722075 44.484688
v -7.311541 20.722075 44.664688
v -6.651540 20.722075 45.264690
v -5.831540 20.722075 44.844688
v -4.131540 20.722075 45.064690
v -3.911540 20.722075 45.264690
v -4.071540 20.722075 43.724689
v -3.071540 20.722075 45.184689
v -2.411540 20.722075 45.264690
v -1.331540 20.722075 45.404690
v -2.431540 20.722075 46.764690
v -4.231540 20.722075 46.544689
v -5.931540 20.722075 46.344688
v -5.871540 23.622074 46.304688
v -7.091540 23.622074 46.144688
v -7.431540 20.722075 46.164688
v -8.171541 23.622074 46.024689
v -8.711540 20.722075 46.004688
v -9.131540 23.622074 45.904690
v -9.871540 20.722075 45.864689
v -9.991540 23.622074 45.784691
v -10.751539 23.622074 45.704689
v -10.871540 20.722075 45.744690
v -11.411540 23.622074 45.624691
v -11.751539 20.722075 45.624691
v -12.011539 23.622074 45.544689
v -12.551540 20.722075 45.524689
v -12.571540 23.622074 45.484688
v -13.071540 23.622074 45.424690
v -13.251539 20.722075 45.444691
v -13.551540 23.622074 45.364689
v -13.911539 20.722075 45.364689
v -13.991540 23.622074 45.304688
v -11.831539 24.302074 45.284691
v -12.391540 25.182076 44.364689
v -12.711540 25.182076 44.324688
v -12.651540 25.342075 44.104691
v -12.331539 25.342075 44.144688
v -11.611540 25.862074 40.504688
v -10.911540 25.862074 40.604691
v -10.131539 25.862074 40.704689
v -9.211542 25.862074 40.804688
v -9.891540 25.342075 44.444691
v -10.471539 25.342075 44.364689
v -11.011539 25.342075 44.304688
v -10.531540 25.182076 44.584690
v -9.951540 25.182076 44.644688
v -9.351540 24.302074 45.584690
v -10.691540 24.302074 45.424690
v -11.071540 25.182076 44.524689
v -11.591539 25.182076 44.444691
v -12.031540 25.182076 44.404690
v -11.971539 25.342075 44.184689
v -11.531540 25.342075 44.244690
v -9.371540 25.182076 44.724689
v -9.311540 25.342075 44.504688
v -8.731541 25.182076 44.804688
v -8.671541 25.342075 44.584690
v -8.191540 25.862074 40.924690
v -7.011539 25.862074 41.084690
v -7.831542 25.342075 44.684689
v -6.791540 25.342075 44.824688
v -5.671540 25.862074 41.244690
v -4.131540 25.862074 41.424690
v -5.471539 25.342075 44.984688
v -3.951540 25.342075 45.164688
v -2.391540 25.862074 41.644688
v -2.111540 25.342075 45.384689
v -0.411540 25.862074 41.884689
v 1.828461 25.862074 42.164688
v 0.008460 25.342075 45.644688
v 2.228460 25.342075 45.924690
v 4.088460 25.862074 42.444691
v 4.388460 25.342075 46.184689
v 6.128460 25.862074 42.684689
v 6.348460 25.342075 46.424690
v 7.928461 25.862074 42.904690
v 9.548460 25.862074 43.104691
v 7.988461 25.342075 46.624691
v 9.548460 25.342075 46.824688
v 10.968460 25.862074 43.284691
v 12.228460 25.862074 43.444691
v 13.408461 25.862074 43.584690
v 13.468460 25.582075 43.104691
v 15.548460 25.842075 43.844688
v 17.168461 25.782074 43.964691
v 15.528460 25.322075 47.544689
v 18.028460 25.262075 47.744690
v 19.288460 25.582075 43.984688
v 20.688459 25.082075 47.704689
v 20.808460 25.342075 43.764690
v 22.508461 24.862074 47.384689
v 22.128460 25.042074 43.344688
v 24.608461 24.522074 46.444691
v 23.188459 24.742075 42.844688
v 24.388460 24.342075 42.064690
v 26.688459 24.022074 44.824688
v 25.848459 23.702074 40.844688
v 28.688459 23.302074 42.824688
v 27.808462 22.682076 38.864689
v 29.708460 22.842075 41.684689
v 30.608461 22.402075 40.624691
v 28.948462 22.002075 37.604691
v 31.548460 21.882074 39.504688
v 30.128462 21.262075 36.224689
v 31.188459 21.282074 37.064690
v 33.548462 20.822075 37.044689
v 32.648460 21.222075 38.144688
v 32.788460 21.202074 38.384689
v 34.468460 20.682076 35.924690
v 31.088461 20.822075 35.084690
v 32.068459 20.682076 33.924690
v 33.108459 20.682076 34.744690
v 35.068459 20.682076 32.884689
v 33.048462 20.682076 32.744690
v 34.228462 20.682076 31.304688
v 35.048462 20.682076 30.304688
v 37.648460 20.682076 30.784691
v 37.268463 20.682076 30.244690
v 35.508461 20.682076 29.744690
v 37.128464 20.682076 29.584690
v 37.548462 20.682076 28.464691
v 37.628464 21.482075 28.404690
v 38.008461 20.682076 28.104691
v 36.888458 20.682076 28.024689
v 38.028458 20.682076 27.504690
v 37.168457 20.682076 27.744690
v 37.468460 20.682076 27.504690
v 37.748459 20.682076 27.424690
v 39.148460 20.582075 27.944691
v 39.788460 20.422075 28.204689
v 39.808464 20.302074 28.164688
v 40.308464 20.422075 28.804688
v 40.488457 20.422075 29.584690
v 40.548462 20.302074 29.584690
v 40.548462 20.182076 31.804688
v 40.548462 19.702074 31.824688
v 40.548462 19.242075 31.824688
v 40.508461 20.182076 32.144688
v 40.508461 19.242075 32.164688
v 40.548462 18.542074 31.804688
v 40.508461 17.782074 32.104691
v 39.768463 17.782074 30.964691
v 40.328461 17.782074 32.404690
v 39.708458 17.782074 33.164688
v 39.128464 17.782074 31.244690
v 38.808464 17.002075 31.264690
v 39.108459 18.482075 31.244690
v 39.088463 19.182076 31.264690
v 38.408463 19.182076 31.224689
v 37.768463 19.182076 30.924690
v 37.328461 19.182076 30.404690
v 37.128464 19.182076 29.744690
v 37.128464 18.482075 29.724689
v 36.768463 19.182076 29.744690
v 36.088463 19.182076 30.584690
v 35.248459 17.782074 31.544689
v 33.728462 17.782074 31.144688
v 35.048462 17.782074 29.544689
v 34.348457 19.242075 30.324688
v 33.588463 17.782074 31.324688
v 32.368462 19.242075 32.764690
v 32.168457 17.782074 33.064690
v 30.748461 17.782074 34.744690
v 30.508459 19.242075 34.984688
v 29.688459 17.862074 35.964691
v 28.748461 19.242075 36.984688
v 28.648458 18.042074 37.144688
v 27.888460 19.242075 37.904690
v 27.608461 18.342075 38.244690
v 27.048460 19.242075 38.784691
v 26.588461 18.742075 39.244690
v 26.228460 19.242075 39.584690
v 25.988459 19.002075 39.804688
v 25.528460 19.402075 41.364689
v 27.188459 18.722075 39.664688
v 27.428461 18.722075 39.844688
v 26.148458 19.342075 41.644688
v 25.968462 19.722075 43.864689
v 25.288462 19.622074 42.344688
v 24.228460 19.882074 43.084690
v 23.448460 19.962074 42.664688
v 23.228460 20.102074 43.644688
v 22.268459 20.262075 44.064690
v 21.168461 20.362074 43.624691
v 21.308460 20.402075 44.384689
v 20.308460 20.502075 44.584690
v 21.828461 20.422075 45.844688
v 22.288460 20.402075 46.224689
v 22.748461 20.302074 45.584690
v 21.348461 21.482075 44.384689
v 21.368460 22.102074 44.384689
v 22.688459 21.482075 43.924690
v 21.408461 23.842075 44.404690
v 22.328461 23.622074 44.104691
v 23.248461 23.382074 43.704689
v 23.988459 21.482075 43.264690
v 24.228460 23.062075 43.144688
v 25.268461 21.482075 42.404690
v 25.268461 22.682076 42.444691
v 25.068460 22.982075 44.584690
v 25.108461 19.922075 44.464691
v 25.048460 19.982075 45.064690
v 24.908461 22.802074 46.564690
v 24.928461 20.142075 46.604691
v 24.628462 22.862074 46.724689
v 24.628462 20.182076 46.764690
v 24.328459 22.902075 46.884689
v 24.348459 20.222075 46.924690
v 23.168461 20.282074 45.944691
v 22.848461 23.562075 45.624691
v 24.988459 20.242075 48.264690
v 23.548460 20.322075 47.284691
v 23.648460 20.382074 48.844688
v 22.648460 20.422075 47.584690
v 22.228460 20.502075 49.184689
v 21.668461 20.502075 47.764690
v 20.588461 20.582075 47.844688
v 20.768459 20.582075 49.344688
v 19.448460 20.622074 47.844688
v 19.268459 20.662075 49.324688
v 18.308460 20.662075 47.764690
v 17.728460 20.702074 49.224689
v 17.128460 20.702074 47.664688
v 16.088461 20.722075 49.044689
v 15.868460 20.722075 47.504688
v 14.368460 20.722075 48.824688
v 14.488461 20.722075 47.344688
v 15.688459 20.722075 47.484688
v 16.768459 20.722075 46.064690
v 16.228460 20.722075 47.544689
v 17.708460 20.722075 45.264690
v 17.948460 20.722075 46.104691
v 16.268459 22.162075 47.524689
v 16.308460 23.602074 47.504688
v 17.648460 23.562075 47.664688
v 17.708460 24.222075 46.344688
v 18.908461 23.502075 47.764690
v 19.648460 24.142075 44.724689
v 20.168461 23.422075 47.804688
v 20.008461 24.102074 44.684689
v 20.348461 24.042074 44.644688
v 21.368460 23.302074 47.744690
v 21.928461 23.742075 45.964691
v 20.328461 21.482075 44.604691
v 22.488461 23.182076 47.564690
v 23.468460 23.042074 47.264690
v 23.508461 21.682076 47.264690
v 19.668461 21.482075 44.664688
v 19.668461 20.722075 44.664688
v 19.468460 20.562075 44.664688
v 19.048460 20.722075 44.704689
v 18.608459 20.622074 44.704689
v 18.708460 20.602074 44.124691
v 19.928461 20.462074 43.124691
v 21.288460 20.302074 42.824688
v 22.388460 20.102074 42.384689
v 18.528460 20.602074 43.204689
v 17.348461 20.662075 43.164688
v 16.088461 20.722075 44.164688
v 16.888460 20.702074 44.624691
v 15.108459 20.722075 44.464691
v 13.288460 20.722075 44.244690
v 13.368460 20.722075 43.884689
v 15.428461 20.722075 42.984688
v 13.428461 20.722075 43.504688
v 13.548460 20.722075 42.764690
v 12.768459 20.722075 44.164688
v 12.228460 20.722075 44.104691
v 11.268459 20.722075 42.484688
v 12.068460 20.722075 45.264690
v 11.168461 20.722075 43.964691
v 10.528460 20.722075 43.904690
v 9.688459 20.722075 42.284691
v 9.428461 20.722075 43.764690
v 7.188460 20.722075 42.284691
v 6.648460 20.722075 43.424690
v 5.168460 20.722075 43.244690
v 4.728460 20.722075 42.284691
v 3.448461 20.722075 43.024689
v 2.388460 20.722075 42.904690
v 2.268460 20.722075 42.284691
v 1.748460 20.722075 42.824688
v 0.648460 20.722075 42.684689
v -0.171539 20.722075 42.284691
v -1.031540 20.722075 42.484688
v -2.631540 20.722075 42.284691
v -1.411540 21.482075 42.444691
v 0.628460 21.482075 42.684689
v -1.071540 24.482075 42.544689
v -2.571540 24.482075 42.344688
v -3.411540 21.482075 42.204689
v -5.231540 24.482075 42.024689
v -5.291540 22.602074 41.984688
v -5.091540 20.722075 42.284691
v -5.311540 21.482075 41.964691
v -5.331540 20.722075 41.944691
v -3.111540 20.722075 40.704689
v -1.591540 20.722075 40.904690
v -5.831540 20.722075 40.384689
v -6.071540 20.722075 42.284691
v -6.391540 20.722075 41.824688
v -7.031540 20.722075 41.744690
v -7.691540 20.722075 42.284691
v -8.071541 20.722075 40.104691
v -8.111541 20.722075 41.604691
v -9.411540 20.722075 41.444691
v -9.971539 20.722075 39.864689
v -10.691540 20.722075 41.284691
v -11.571540 20.722075 39.684689
v -12.271540 20.722075 41.104691
v -13.151540 20.722075 39.484688
v -13.211540 20.722075 40.984688
v -13.951540 20.722075 39.404690
v -14.091539 20.722075 40.884689
v -14.771540 20.722075 39.324688
v -15.131540 20.722075 40.804688
v -15.451540 20.722075 40.784691
v -15.591539 20.722075 39.284691
v -15.771540 20.722075 40.784691
v -16.411541 20.722075 39.304688
v -17.551540 20.722075 42.284691
v -17.051540 20.722075 40.824688
v -17.251541 20.722075 39.324688
v -18.071541 20.722075 40.884689
v -18.071541 20.722075 39.384689
v -18.951540 20.722075 40.944691
v -19.751541 20.722075 39.524689
v -19.791540 20.722075 41.024689
v -20.991539 20.722075 41.124691
v -21.491539 20.722075 39.664688
v -22.211540 20.722075 41.244690
v -22.751541 20.722075 40.464691
v -23.431540 20.722075 39.864689
v -23.511539 20.242075 39.824688
v -23.571541 19.842075 39.784691
v -23.571541 20.002075 39.804688
v -23.511539 20.442074 39.844688
v -23.651539 24.902075 39.904690
v -23.611540 22.322075 39.844688
v -23.611540 22.802074 39.864689
v -24.691540 23.142075 39.404690
v -26.171539 22.822075 39.344688
v -25.591539 23.142075 39.304688
v -26.491539 23.142075 39.404690
v -25.591539 23.162075 40.224689
v -26.471540 23.182076 40.364689
v -25.591539 19.842075 40.204689
v -26.491539 21.502075 40.344688
v -26.491539 19.842075 40.344688
v -27.851540 19.842075 39.964691
v -26.491539 19.842075 41.204689
v -27.751539 19.842075 41.764690
v -28.491539 19.842075 40.544689
v -28.431540 22.822075 40.604691
v -26.171539 19.842075 39.264690
v -24.711540 19.842075 39.324688
v -29.411539 19.842075 43.044689
v -29.351540 22.822075 43.044689
v -28.491539 25.822075 40.784691
v -26.471540 25.822075 39.484688
v -26.471540 24.702074 39.444691
v -26.451540 24.722075 40.364689
v -26.471540 26.262075 39.484688
v -26.451540 26.262075 40.364689
v -26.451540 25.822075 41.244690
v -26.451540 26.262075 41.244690
v -27.351540 26.262075 42.104691
v -27.351540 25.822075 42.104691
v -27.571539 25.822075 43.344688
v -27.591539 22.822075 43.324688
v -27.371540 22.822075 42.084690
v -26.471540 22.822075 41.224689
v -26.451540 24.122074 41.224689
v -26.471540 21.982075 41.224689
v -27.411539 19.842075 42.084690
v -27.631540 19.842075 43.324688
v -27.751539 19.842075 43.384689
v -28.351540 19.842075 43.744690
v -28.051540 19.842075 44.464691
v -27.771540 19.842075 44.884689
v -28.331539 19.842075 45.704689
v -27.851540 19.842075 46.144688
v -27.571539 19.842075 45.084690
v -25.591539 19.842075 45.084690
v -24.671539 19.842075 46.764690
v -24.731541 19.842075 44.904690
v -22.991539 19.842075 45.844688
v -25.691540 22.822075 46.784691
v -23.051540 22.822075 45.784691
v -23.411541 25.822075 46.004688
v -22.991539 23.622074 45.724689
v -22.971539 24.082075 45.684689
v -22.991539 23.942074 45.704689
v -22.831539 24.002075 45.624691
v -22.871540 20.722075 45.764690
v -22.951540 20.462074 45.784691
v -22.951540 20.242075 45.804688
v -22.011539 19.842075 44.404690
v -22.311539 20.722075 45.024689
v -21.931540 20.722075 44.164688
v -21.911541 22.182076 44.144688
v -21.791540 19.842075 42.684689
v -22.831539 19.842075 43.744690
v -23.571541 19.842075 43.324688
v -23.791540 19.842075 42.084690
v -23.811539 22.822075 42.084690
v -23.591539 21.982075 43.324688
v -23.591539 22.822075 43.324688
v -23.831539 25.822075 42.104691
v -23.611540 24.122074 43.344688
v -23.611540 25.822075 43.344688
v -23.831539 26.262075 42.104691
v -24.751539 26.262075 41.244690
v -24.751539 25.822075 41.244690
v -24.731541 24.722075 40.364689
v -24.751539 26.262075 40.364689
v -25.591539 26.262075 45.044689
v -25.591539 26.262075 40.224689
v -26.851540 26.262075 44.604691
v -26.851540 25.822075 44.604691
v -25.591539 25.822075 45.044689
v -24.351540 26.262075 44.604691
v -24.351540 25.822075 44.604691
v -25.591539 22.822075 45.064690
v -26.851540 22.822075 44.624691
v -26.851540 24.122074 44.624691
v -27.571539 25.822075 45.024689
v -27.571539 26.262075 45.024689
v -28.291540 25.822075 43.764690
v -28.011539 26.262075 44.444691
v -27.571539 26.262075 43.344688
v -28.291540 26.262075 43.764690
v -28.311541 24.122074 43.764690
v -28.331539 22.822075 43.744690
v -27.571539 22.822075 45.044689
v -28.331539 21.982075 43.744690
v -26.851540 21.982075 44.644688
v -26.851540 19.842075 44.664688
v -24.351540 22.822075 44.624691
v -23.611540 22.822075 45.044689
v -23.611540 24.122074 45.044689
v -23.611540 25.822075 45.024689
v -22.891541 25.822075 43.764690
v -22.891541 26.262075 43.764690
v -23.631538 26.262075 43.344688
v -23.611540 26.262075 45.024689
v -23.171539 26.262075 44.444691
v -22.871540 22.822075 43.744690
v -23.131538 19.842075 44.464691
v -23.611540 21.982075 45.064690
v -23.611540 19.842075 45.084690
v -24.351540 19.842075 44.664688
v -24.731541 26.262075 39.484688
v -24.711540 25.822075 39.484688
v -23.011539 27.002075 40.464691
v -22.991539 25.982075 40.464691
v -21.951540 27.002075 43.044689
v -22.011539 27.182076 43.044689
v -22.691540 27.182076 40.924690
v -24.491539 27.182076 39.624691
v -25.591539 27.002075 39.404690
v -26.711540 27.182076 39.624691
v -28.171539 27.002075 40.464691
v -28.491539 27.182076 40.924690
v -29.231541 27.002075 43.044689
v -29.191540 27.182076 43.044689
v -28.171539 27.002075 45.624691
v -28.311541 25.822075 45.504688
v -29.271540 25.822075 43.044689
v -28.271540 22.822075 45.664688
v -25.951540 25.822075 46.684689
v -25.691540 19.842075 46.864689
v -25.591539 27.002075 46.684689
v -26.711540 27.182076 46.464691
v -28.491539 27.182076 45.144688
v -28.031540 27.302074 45.484688
v -29.051540 27.302074 43.044689
v -28.031540 27.302074 40.604691
v -27.311541 27.862074 41.324688
v -25.591539 27.862074 40.624691
v -25.591539 27.302074 39.584690
v -23.871540 27.862074 41.324688
v -23.151539 27.302074 40.604691
v -23.171539 27.862074 43.044689
v -22.131538 27.302074 43.044689
v -23.871540 27.862074 44.764690
v -24.131538 27.962074 44.504688
v -25.591539 27.962074 45.104691
v -25.591539 27.862074 45.464691
v -23.151539 27.302074 45.484688
v -25.591539 27.302074 46.504688
v -27.311541 27.862074 44.764690
v -28.011539 27.862074 43.044689
v -27.851540 27.942074 43.044689
v -27.671539 27.962074 43.044689
v -27.051540 27.962074 41.584690
v -24.131538 27.962074 41.584690
v -25.591539 27.962074 40.984688
v -23.531540 27.962074 43.044689
v -27.051540 27.962074 44.504688
v -23.351540 27.942074 43.044689
v -24.491539 27.182076 46.464691
v -22.691540 27.182076 45.144688
v -23.011539 27.002075 45.624691
v -21.991539 25.822075 43.764690
v -22.131538 25.562075 44.284691
v -22.191540 25.462074 44.424690
v -22.451540 24.922075 44.984688
v -22.751541 24.482075 45.404690
v -22.871540 24.302074 45.564690
v -21.971539 25.862074 43.664688
v -25.591539 26.282074 39.384689
v -24.711540 24.702074 39.444691
v -24.711540 23.182076 40.364689
v -24.731541 24.122074 41.224689
v -24.711540 22.822075 41.224689
v -24.711540 21.502075 40.364689
v -24.711540 21.982075 41.224689
v -24.691540 19.842075 41.204689
v -24.691540 19.842075 40.364689
v -22.351540 19.842075 41.024689
v -22.191540 21.482075 41.264690
v -22.171539 22.602074 41.264690
v -22.151539 24.482075 41.304688
v -20.491539 21.482075 41.104691
v -22.991539 19.982075 45.844688
v -23.031540 21.822075 45.804688
v -23.451540 22.722075 39.884689
v -19.091539 21.482075 40.964691
v -17.971539 21.482075 40.884689
v -17.091539 21.482075 40.824688
v -17.131538 22.602074 40.844688
v -16.751541 24.502075 41.644688
v -15.791540 21.482075 40.804688
v -15.791540 22.602074 40.824688
v -15.811540 24.482075 40.844688
v -16.571541 23.622074 43.684689
v -17.051540 23.622074 43.704689
v -16.171539 23.622074 43.664688
v -15.791540 23.622074 43.664688
v -15.391540 23.622074 43.684689
v -15.471540 24.482075 40.864689
v -15.131540 24.482075 40.864689
v -15.031540 23.622074 43.704689
v -15.351540 20.722075 43.744690
v -14.651540 23.622074 43.744690
v -14.551540 24.502075 41.684689
v -13.971540 24.342075 42.504688
v -14.211540 23.622074 43.784691
v -13.671539 23.622074 43.844688
v -12.971540 23.622074 43.924690
v -12.951540 22.182076 43.944691
v -14.091539 20.722075 42.284691
v -13.131540 20.722075 42.284691
v -14.071540 21.482075 40.904690
v -14.051540 22.602074 40.924690
v -14.011539 24.482075 40.964691
v -12.831539 24.342075 42.644688
v -12.891540 24.482075 41.084690
v -11.551539 24.482075 41.244690
v -11.851540 23.622074 44.064690
v -9.991540 24.482075 41.444691
v -11.531540 23.622074 44.104691
v -11.171539 23.622074 44.144688
v -9.851540 24.342075 43.024689
v -9.651540 20.722075 42.904690
v -8.231542 24.482075 41.664688
v -8.931540 20.722075 42.284691
v -8.571541 20.722075 43.024689
v -10.071540 22.182076 44.304688
v -10.031540 23.622074 44.284691
v -8.511539 23.622074 44.464691
v -8.691542 24.342075 43.164688
v -7.071540 24.482075 41.804688
v -7.071540 23.622074 44.644688
v -6.391540 24.482075 41.884689
v -5.631540 23.622074 44.824688
v -4.191540 23.622074 45.004688
v -5.191540 24.342075 43.584690
v -5.091540 20.722075 43.664688
v -4.171540 22.182076 45.024689
v -6.391540 21.482075 41.824688
v -7.051540 21.482075 41.744690
v -8.171541 22.602074 41.624691
v -8.151540 21.482075 41.624691
v -10.151540 21.482075 41.364689
v -11.811540 21.482075 41.164688
v -13.091539 21.482075 41.004688
v -15.131540 22.602074 40.844688
v -15.131540 21.482075 40.824688
v -4.031540 24.342075 43.744690
v -3.071540 23.622074 45.144688
v -2.391540 23.622074 45.224689
v -1.091540 24.342075 44.104691
v -0.871540 20.722075 43.984688
v -1.191540 20.722075 45.264690
v 0.208460 20.722075 44.104691
v 0.088460 24.342075 44.244690
v 1.708460 24.482075 42.884689
v -1.251540 23.622074 45.364689
v 1.508460 23.622074 45.704689
v 1.488461 20.722075 45.744690
v -1.291540 22.182076 45.384689
v -0.631540 20.722075 46.984688
v 1.108460 20.722075 47.204689
v 2.668460 20.722075 47.404690
v 3.028461 20.722075 45.944691
v 4.068460 20.722075 47.564690
v 4.648460 20.722075 46.124691
v 5.028461 20.722075 45.264690
v 5.308460 20.722075 47.724689
v 5.708460 20.722075 46.264690
v 6.368461 20.722075 46.344688
v 6.448461 20.722075 47.864689
v 7.628460 20.722075 45.264690
v 7.448461 20.722075 46.484688
v 7.488461 20.722075 47.984688
v 8.948460 20.722075 46.664688
v 8.488461 20.722075 48.104691
v 9.488461 20.722075 48.244690
v 10.328461 20.722075 46.824688
v 9.748461 20.722075 48.264690
v 12.588461 20.722075 48.264690
v 12.648460 20.722075 47.864689
v 13.108459 20.722075 47.164688
v 12.528460 20.722075 48.604691
v 13.428461 20.722075 47.204689
v 13.968460 20.722075 47.284691
v 12.588461 23.622074 48.564690
v 11.188459 23.622074 48.384689
v 11.528460 20.722075 48.484688
v 10.508461 20.722075 48.364689
v 9.628460 23.622074 48.204689
v 9.808460 24.302074 47.944691
v 7.288461 24.302074 47.624691
v 7.948460 25.182076 46.844688
v 6.288461 25.182076 46.644688
v 5.028461 24.302074 47.344688
v 4.328461 25.182076 46.404690
v 2.988461 24.302074 47.104691
v 2.148460 25.182076 46.144688
v 1.168460 24.302074 46.864689
v -0.091539 25.182076 45.864689
v -0.511540 24.302074 46.664688
v -2.191540 25.182076 45.604691
v -3.371540 24.302074 46.324688
v -4.031540 25.182076 45.384689
v -5.551539 25.182076 45.184689
v -5.751540 24.302074 46.024689
v -6.871540 25.182076 45.024689
v -7.711541 24.302074 45.784691
v -7.911541 25.182076 44.904690
v -4.511539 23.622074 46.464691
v -2.931540 23.622074 46.664688
v -1.071540 23.622074 46.884689
v 1.068460 23.622074 47.144688
v 3.448461 23.622074 47.444691
v 5.788461 23.622074 47.724689
v 7.848461 23.622074 47.984688
v 9.508461 25.182076 47.044689
v 11.068460 25.182076 47.244690
v 11.108459 25.342075 47.024689
v 12.748461 25.222075 47.384689
v 12.748461 25.302074 47.284691
v 13.088461 25.962074 45.444691
v 14.648460 25.162075 47.664688
v 16.268459 25.142075 47.844688
v 14.988461 24.282074 48.584690
v 17.268459 24.202074 48.844688
v 17.928461 25.062075 48.004688
v 18.948460 24.082075 48.984688
v 19.748461 24.962074 48.064690
v 20.708460 23.902075 49.024689
v 21.988461 23.762075 48.924690
v 22.488461 24.662075 47.744690
v 24.088461 23.462074 48.364689
v 24.688459 24.322075 46.844688
v 26.388460 23.042074 47.124691
v 26.808462 23.842075 45.304688
v 27.828459 22.682076 46.064690
v 28.248461 23.382074 43.984688
v 29.528460 22.102074 44.564690
v 29.848459 22.742075 42.284691
v 30.868460 21.562075 43.244690
v 31.728460 21.162075 42.324688
v 31.228460 22.062075 40.724689
v 32.368462 21.202074 40.364689
v 32.768463 21.202074 38.904690
v 32.808464 21.202074 38.644688
v 34.628464 20.682076 36.464691
v 34.628464 20.682076 36.284691
v 34.588463 20.682076 36.084690
v 35.068459 20.682076 35.464691
v 34.608459 20.682076 36.644688
v 33.668457 20.802074 37.804688
v 34.368462 20.682076 37.804688
v 34.048462 20.682076 39.284691
v 34.328461 20.682076 38.944691
v 35.048462 20.682076 38.084690
v 35.908463 20.682076 37.064690
v 36.588463 20.682076 36.244690
v 38.048462 20.682076 34.444691
v 38.068459 20.682076 32.684689
v 38.008461 20.682076 31.064690
v 38.868462 20.682076 31.264690
v 38.808464 21.482075 31.264690
v 37.628464 21.482075 30.764690
v 39.988457 21.482075 30.764690
v 38.808464 21.482075 30.304688
v 38.308464 21.482075 30.084690
v 38.328461 19.182076 30.084690
v 38.108459 19.182076 29.584690
v 38.088463 21.482075 29.584690
v 38.328461 19.182076 29.084690
v 38.308464 21.482075 29.084690
v 37.128464 21.482075 29.584690
v 38.808464 21.482075 28.864689
v 39.988457 21.482075 28.404690
v 38.808464 21.482075 27.904690
v 38.608459 20.682076 27.924690
v 39.328461 21.482075 29.084690
v 39.308464 19.182076 29.084690
v 39.508461 19.182076 29.584690
v 39.528458 21.482075 29.584690
v 39.308464 19.182076 30.084690
v 39.328461 21.482075 30.084690
v 38.808464 19.182076 30.284691
v 38.308464 17.002075 30.084690
v 38.088463 17.002075 29.584690
v 40.488457 21.482075 29.584690
v 40.368462 20.582075 30.244690
v 40.068459 20.682076 30.704689
v 40.408463 20.542074 31.804688
v 40.068459 20.682076 31.804688
v 40.228462 20.542074 32.344688
v 40.028458 20.682076 31.964691
v 39.948463 20.682076 32.124691
v 38.328461 20.542074 34.664688
v 38.168457 20.682076 34.324688
v 36.428459 20.542074 36.964691
v 36.528458 20.182076 37.084690
v 36.968460 20.182076 36.544689
v 38.448463 20.182076 34.764690
v 38.348457 19.242075 34.904690
v 40.328461 19.242075 32.464691
v 38.548462 20.182076 34.624691
v 40.328461 19.722075 32.444691
v 40.328461 20.182076 32.424690
v 40.328461 18.542074 32.424690
v 38.968460 17.782074 34.064690
v 38.008461 17.782074 32.984688
v 36.908463 17.782074 34.344688
v 37.968460 19.182076 32.984688
v 36.868462 19.182076 34.324688
v 36.088463 19.182076 32.444691
v 36.088463 19.182076 34.324688
v 33.828461 19.182076 33.364689
v 35.288460 19.182076 31.584690
v 33.808464 17.782074 33.324688
v 33.808464 18.482075 33.344688
v 33.408463 19.182076 33.844688
v 33.388458 18.062075 33.844688
v 33.728462 17.782074 33.404690
v 33.388458 17.782074 33.844688
v 32.968460 17.782074 34.344688
v 32.988457 18.322075 34.324688
v 33.028458 19.182076 34.324688
v 33.108459 19.182076 34.224689
v 33.728462 17.782074 34.344688
v 36.728462 17.782074 34.344688
v 36.268463 17.782074 35.124691
v 33.728462 17.782074 35.124691
v 32.308464 17.782074 35.124691
v 31.268461 17.782074 35.224689
v 32.028458 17.822075 37.604691
v 31.848459 17.782074 35.664688
v 31.988459 19.402075 36.904690
v 32.088463 19.822075 38.324688
v 32.048462 17.842075 37.784691
v 31.288462 17.942074 38.444691
v 32.208458 18.002075 39.944691
v 31.308462 17.962074 38.644688
v 31.468462 18.202074 40.764690
v 31.428461 20.602074 40.724689
v 31.288462 20.102074 38.544689
v 30.208460 20.102074 37.624691
v 31.128462 19.522074 36.544689
v 31.148458 18.502075 36.504688
v 31.148458 17.822075 36.484688
v 29.688459 18.502075 38.144688
v 29.488459 18.102074 38.364689
v 28.328459 18.482075 39.584690
v 28.648458 18.362074 39.264690
v 27.808462 18.702074 40.104691
v 27.228460 18.942074 40.684689
v 26.648458 19.222075 41.224689
v 26.408461 19.262075 41.444691
v 26.168459 21.482075 41.684689
v 26.668459 21.482075 41.244690
v 28.508459 18.922075 41.584690
v 27.008459 19.082075 40.884689
v 27.368460 18.902075 40.544689
v 29.128462 18.622074 40.884689
v 29.088461 21.302074 40.864689
v 30.988459 20.822075 41.224689
v 31.028460 18.342075 41.244690
v 30.388460 18.602074 41.944691
v 30.968462 18.582075 42.364689
v 30.708460 18.902075 43.724689
v 29.168459 19.062075 43.164688
v 29.708460 19.242075 44.724689
v 28.008459 19.442074 44.284691
v 28.228460 19.642075 46.064690
v 26.868460 19.742075 45.244690
v 26.668459 19.982075 47.264690
v 25.768461 19.982075 46.064690
v 25.428461 22.722075 47.984688
v 24.108461 22.922075 48.624691
v 26.988459 22.442074 46.984688
v 25.788462 22.622074 45.984688
v 25.908461 19.822075 44.584690
v 25.968462 22.682076 44.024689
v 26.168459 22.302074 41.704689
v 26.868460 22.362074 45.184689
v 26.428461 22.182076 41.484688
v 27.968462 22.042074 44.244690
v 26.688459 22.062075 41.264690
v 29.108461 21.642075 43.164688
v 28.388460 21.662075 41.584690
v 30.308462 21.142075 41.944691
v 28.888460 21.922075 45.444691
v 30.708460 21.262075 43.684689
v 31.308462 19.242075 43.104691
v 31.788462 20.782074 42.564690
v 32.968460 19.242075 41.304688
v 33.008461 20.362074 41.224689
v 34.668457 19.242075 39.344688
v 34.428459 20.182076 39.604691
v 34.608459 20.182076 39.384689
v 35.608459 20.182076 38.204689
v 36.468460 19.242075 37.204689
v 37.668457 17.782074 35.684689
v 36.728462 17.782074 36.824688
v 36.408463 17.782074 37.204689
v 35.168457 17.782074 36.464691
v 34.108459 17.782074 37.724689
v 34.968460 18.602074 36.664688
v 33.688461 19.362074 38.164688
v 34.008461 19.242075 37.784691
v 31.948462 19.262075 36.304688
v 32.768463 19.402075 37.524689
v 32.928459 19.802074 39.044689
v 33.148460 17.842075 38.844688
v 32.208458 20.202074 39.864689
v 33.288460 17.982075 40.704689
v 34.648460 17.782074 38.184689
v 35.128464 17.782074 38.624691
v 33.388458 17.982075 40.784691
v 32.468460 18.222075 41.804688
v 31.588461 18.562075 42.804688
v 31.488459 18.562075 42.724689
v 31.888460 19.202074 35.644688
v 31.968462 19.182076 35.564690
v 34.368462 19.182076 37.384689
v 32.048462 19.182076 35.484688
v 33.068459 19.182076 36.324688
v 35.288460 19.182076 36.264690
v 36.108459 19.182076 35.264690
v 33.108459 19.182076 35.144688
v 36.088463 19.182076 35.144688
v 36.208458 19.182076 35.144688
v 36.228462 18.482075 35.144688
v 32.328461 19.182076 35.144688
v 32.188461 19.182076 35.324688
v 32.308464 18.762075 35.144688
v 32.108459 18.882074 35.404690
v 32.308464 18.502075 35.144688
v 31.888460 18.502075 35.644688
v 32.088463 17.782074 35.384689
v 31.888460 19.022074 35.644688
v 34.508461 20.542074 39.264690
v 36.148460 20.682076 36.784691
v 34.308464 20.542074 39.504688
v 34.228462 20.682076 39.064690
v 31.808462 20.982075 42.464691
v 32.828461 20.802074 40.944691
v 31.248461 18.282074 41.004688
v 31.208460 20.722075 40.984688
v 29.288462 20.662075 38.644688
v 28.368460 21.182076 39.624691
v 27.808462 21.482075 40.184689
v 27.448462 21.682076 40.544689
v 27.448462 21.482075 40.544689
v 27.588461 18.802074 40.324688
v 39.088463 19.182076 31.604691
v 39.128464 17.782074 31.624691
v 39.528458 20.682076 31.104691
v 39.328461 17.002075 29.084690
v 38.808464 19.182076 28.884689
v 38.808464 17.002075 28.864689
v 39.988457 17.002075 28.404690
v 38.308464 17.002075 29.084690
v 23.208460 23.022074 48.924690
v 22.288460 23.142075 49.124691
v 21.248461 23.242075 49.264690
v 19.968460 23.362074 49.304688
v 18.208460 23.482075 49.224689
v 15.648460 23.602074 48.944691
v 14.048460 23.622074 48.744690
v 12.628460 24.302074 48.284691
v 12.608459 24.002075 48.484688
v 13.048460 20.722075 45.264690
v 14.488461 23.622074 47.284691
v 13.508461 24.342075 45.884689
v 12.328461 24.482075 44.184689
v 13.628460 24.482075 44.344688
v 14.868460 24.482075 44.484688
v 14.628460 24.502075 45.244690
v 14.588461 24.242075 46.304688
v 15.148460 23.622074 47.364689
v 14.828461 23.622074 47.324688
v 15.148460 20.722075 47.424690
v 16.528460 24.282074 46.224689
v 16.488461 24.422075 44.664688
v 18.248461 24.302074 44.764690
v 17.008461 21.482075 44.664688
v 18.308460 22.522074 44.724689
v 18.348461 21.482075 44.724689
v 18.388460 20.722075 44.704689
v 18.948460 20.722075 45.264690
v 15.588461 21.482075 44.524689
v 14.008461 21.482075 44.344688
v 12.268459 22.602074 44.144688
v 12.248461 21.482075 44.124691
v 12.368460 24.342075 45.744690
v 13.388460 22.182076 47.184689
v 13.348461 23.622074 47.144688
v 12.028460 23.622074 46.984688
v 11.168461 24.482075 44.044689
v 10.688459 23.622074 46.824688
v 10.488461 24.482075 43.964691
v 9.268459 23.622074 46.644688
v 8.868460 24.342075 45.324688
v 7.528461 23.622074 46.444691
v 8.868460 20.722075 45.264690
v 8.988461 20.722075 45.184689
v 7.908461 20.722075 45.044689
v 9.408461 21.482075 43.764690
v 9.388460 22.602074 43.784691
v 7.488461 21.482075 43.544689
v 9.328461 24.482075 43.804688
v 6.648460 24.482075 43.484688
v 5.508460 21.482075 43.284691
v 5.148460 24.482075 43.304688
v 3.548460 24.482075 43.104691
v 3.468460 21.482075 43.044689
v 4.748460 24.342075 44.804688
v 4.048460 20.722075 45.264690
v 5.708460 23.622074 46.204689
v 6.368461 23.622074 46.304688
v 7.688460 24.342075 45.184689
v 7.488461 22.182076 46.464691
v 10.508461 21.482075 43.904690
v 11.168461 21.482075 43.984688
v 12.788460 20.722075 47.124691
v 4.588460 23.622074 46.084690
v 3.588460 24.342075 44.664688
v 3.008460 23.622074 45.884689
v 2.388460 24.482075 42.964691
v 2.388460 21.482075 42.904690
v 1.728460 21.482075 42.824688
v 0.608460 22.602074 42.704689
v 0.548460 24.482075 42.744690
v 0.128460 20.722075 41.104691
v 2.528461 20.722075 41.404690
v 5.348460 20.722075 41.744690
v 6.908461 20.722075 41.944691
v 8.468460 20.722075 42.144688
v 19.668461 22.442074 44.684689
v 23.488461 19.842075 41.784691
v 24.468462 19.562075 41.084690
v 25.408461 19.242075 40.324688
v 30.648458 20.342075 34.844688
v 36.488457 19.242075 27.704689
v -14.571540 25.342075 43.884689
v -14.231540 25.342075 43.924690
v -13.911539 25.342075 43.944691
v -13.591539 25.342075 43.984688
v -16.751541 25.342075 43.824688
v -16.611540 25.342075 43.824688
v -16.471539 25.342075 43.824688
v -16.291540 25.342075 43.804688
v -16.071541 25.342075 43.804688
v -20.931540 22.182076 44.044689
v -18.831539 25.342075 43.964691
v -19.311539 25.342075 44.004688
v -18.351540 25.342075 43.924690
v -21.911541 26.002075 41.764690
v 37.188461 19.702074 27.084690
v 37.748459 19.242075 26.924690

f 1 2 3
f 1 3 4
f 1 4 5
f 5 6 1
f 7 1 6
f 7 6 8
f 9 7 8
f 10 9 8
f 10 8 11
f 12 10 11
f 13 12 11
f 11 14 13
f 13 14 15
f 16 13 15
f 16 15 17
f 18 16 17
f 18 17 19
f 18 19 20
f 21 18 20
f 21 20 22
f 22 23 21
f 21 23 24
f 25 21 24
f 25 24 26
f 25 26 27
f 25 27 28
f 28 29 25
f 30 25 29
f 31 30 29
f 31 29 32
f 31 32 33
f 31 33 13
f 33 34 13
f 34 35 13
f 35 36 13
f 37 36 35
f 37 35 38
f 39 37 38
f 39 38 40
f 41 39 40
f 42 41 40
f 42 40 43
f 42 43 44
f 45 42 44
f 45 44 46
f 45 46 47
f 48 45 47
f 48 47 49
f 48 49 50
f 51 48 50
f 51 50 52
f 51 52 53
f 54 51 53
f 54 53 55
f 56 54 55
f 56 55 57
f 58 56 57
f 58 57 59
f 58 59 60
f 61 58 60
f 61 60 62
f 61 62 63
f 61 63 64
f 65 61 64
f 65 64 66
f 65 66 67
f 68 65 67
f 68 67 69
f 68 69 70
f 71 68 70
f 71 70 72
f 71 72 73
f 74 71 73
f 74 73 75
f 74 75 76
f 77 74 76
f 77 76 78
f 77 78 79
f 80 77 79
f 80 79 81
f 82 80 81
f 82 81 83
f 82 83 84
f 85 82 84
f 85 84 86
f 87 85 86
f 87 86 88
f 87 88 89
f 90 87 89
f 90 89 91
f 90 91 92
f 93 90 92
f 93 92 94
f 93 94 95
f 96 93 95
f 96 95 97
f 96 97 98
f 96 98 99
f 96 99 100
f 101 96 100
f 101 100 102
f 101 102 103
f 101 103 104
f 101 104 105
f 101 105 106
f 107 101 106
f 107 106 108
f 107 108 109
f 107 109 110
f 107 110 111
f 107 111 112
f 113 107 112
f 113 112 114
f 113 114 115
f 113 115 116
f 113 116 117
f 118 113 117
f 118 117 119
f 118 119 120
f 118 120 121
f 118 121 122
f 123 118 122
f 123 122 124
f 125 123 124
f 125 124 126
f 127 125 126
f 127 126 128
f 127 128 129
f 127 129 130
f 127 130 123
f 130 131 123
f 132 123 131
f 132 133 123
f 123 133 134
f 123 134 135
f 136 135 134
f 136 134 137
f 138 136 137
f 139 138 137
f 139 137 133
f 140 139 133
f 140 141 139
f 139 141 142
f 139 142 143
f 139 143 144
f 139 144 145
f 144 146 145
f 146 147 145
f 147 136 145
f 148 136 147
f 149 148 147
f 149 147 150
f 151 149 150
f 152 151 150
f 144 152 150
f 144 153 152
f 152 153 154
f 152 154 155
f 154 156 155
f 156 157 155
f 157 158 155
f 155 158 159
f 155 159 149
f 149 159 160
f 149 160 161
f 149 161 162
f 162 161 163
f 162 163 164
f 162 164 165
f 162 165 166
f 162 166 167
f 162 167 148
f 167 168 148
f 167 169 168
f 168 169 135
f 169 170 135
f 118 135 170
f 118 170 171
f 118 171 172
f 118 172 173
f 118 173 174
f 175 174 173
f 176 175 173
f 177 176 173
f 178 176 177
f 178 177 179
f 180 178 179
f 181 180 179
f 181 179 182
f 181 182 183
f 165 181 183
f 165 184 181
f 181 184 185
f 186 185 184
f 186 184 164
f 187 186 164
f 188 186 187
f 188 187 189
f 188 189 190
f 188 190 191
f 191 192 188
f 193 188 192
f 192 194 193
f 195 193 194
f 195 194 196
f 195 196 197
f 195 197 198
f 199 195 198
f 199 198 200
f 201 199 200
f 201 200 202
f 203 201 202
f 203 202 204
f 203 204 205
f 203 205 206
f 207 206 205
f 205 208 207
f 209 207 208
f 209 208 210
f 209 210 211
f 212 211 210
f 213 212 210
f 213 214 212
f 214 215 212
f 214 216 215
f 217 215 216
f 216 218 217
f 217 218 219
f 217 219 220
f 221 217 220
f 221 220 185
f 180 185 220
f 180 220 222
f 221 188 217
f 222 220 219
f 222 219 223
f 222 223 224
f 222 224 225
f 222 225 178
f 224 175 225
f 224 226 175
f 227 226 224
f 227 228 226
f 226 228 174
f 228 229 174
f 229 230 174
f 113 174 230
f 113 230 231
f 113 231 232
f 113 232 233
f 234 233 232
f 235 234 232
f 236 235 232
f 237 235 236
f 237 236 238
f 239 237 238
f 240 239 238
f 240 238 241
f 240 241 242
f 243 240 242
f 243 242 244
f 243 244 245
f 246 243 245
f 246 245 247
f 246 247 248
f 223 246 248
f 223 248 227
f 223 249 246
f 246 249 250
f 251 250 249
f 218 251 249
f 252 251 218
f 252 253 251
f 253 252 254
f 254 255 253
f 253 255 250
f 255 256 250
f 240 250 256
f 255 257 256
f 257 258 256
f 239 256 258
f 239 258 259
f 239 259 260
f 259 261 260
f 261 234 260
f 261 262 234
f 263 262 261
f 263 264 262
f 262 264 233
f 264 265 233
f 107 233 265
f 107 265 266
f 107 266 267
f 107 267 268
f 107 268 269
f 270 269 268
f 271 270 268
f 272 270 271
f 272 271 273
f 274 272 273
f 275 274 273
f 275 273 276
f 275 276 277
f 278 275 277
f 278 277 279
f 280 278 279
f 280 279 281
f 280 281 263
f 259 280 263
f 259 282 280
f 280 282 283
f 284 283 282
f 285 284 282
f 285 282 258
f 286 285 258
f 285 286 287
f 287 288 285
f 288 289 285
f 290 285 289
f 289 291 290
f 291 292 290
f 292 293 290
f 293 294 290
f 295 290 294
f 294 296 295
f 296 297 295
f 298 295 297
f 297 299 298
f 299 300 298
f 301 298 300
f 301 300 302
f 302 303 301
f 303 304 301
f 301 304 305
f 301 305 306
f 306 307 301
f 307 308 301
f 308 307 309
f 308 309 310
f 311 308 310
f 311 310 312
f 313 311 312
f 313 312 314
f 315 313 314
f 315 314 316
f 315 316 317
f 318 315 317
f 318 317 319
f 320 318 319
f 320 319 321
f 322 320 321
f 322 321 323
f 322 323 324
f 325 322 324
f 325 324 326
f 327 325 326
f 327 326 328
f 327 328 283
f 278 283 328
f 275 328 326
f 325 327 290
f 327 284 290
f 275 326 324
f 322 325 290
f 274 324 323
f 274 323 321
f 274 321 329
f 274 329 330
f 274 330 331
f 330 332 331
f 270 331 332
f 330 333 332
f 332 333 269
f 333 334 269
f 101 269 334
f 101 334 335
f 101 335 336
f 101 336 337
f 338 337 336
f 339 338 336
f 340 339 336
f 340 341 339
f 342 339 341
f 343 342 341
f 344 343 341
f 344 341 345
f 344 345 346
f 329 344 346
f 329 346 347
f 346 348 347
f 347 348 333
f 346 349 348
f 348 349 334
f 329 317 344
f 345 349 346
f 345 340 349
f 349 340 335
f 344 316 343
f 343 350 342
f 350 338 342
f 350 351 338
f 352 351 350
f 352 353 351
f 351 353 337
f 337 353 354
f 96 337 354
f 96 354 355
f 356 355 354
f 356 357 355
f 357 358 355
f 93 355 358
f 93 358 359
f 360 359 358
f 360 361 359
f 361 362 359
f 90 359 362
f 361 363 362
f 363 364 362
f 87 362 364
f 87 364 365
f 366 365 364
f 366 367 365
f 367 368 365
f 85 365 368
f 367 369 368
f 369 370 368
f 82 368 370
f 369 371 370
f 371 372 370
f 80 370 372
f 80 372 373
f 374 373 372
f 374 375 373
f 375 376 373
f 77 373 376
f 77 376 377
f 77 377 378
f 77 378 379
f 379 378 380
f 379 380 71
f 71 380 381
f 381 380 382
f 381 382 383
f 384 381 383
f 384 383 385
f 386 384 385
f 386 385 387
f 388 386 387
f 388 387 389
f 390 388 389
f 391 390 389
f 391 389 392
f 393 391 392
f 393 392 394
f 395 393 394
f 395 394 396
f 395 396 397
f 398 395 397
f 398 397 399
f 398 399 400
f 56 398 400
f 399 401 400
f 402 400 401
f 402 401 403
f 402 403 404
f 402 404 405
f 406 402 405
f 406 405 407
f 51 406 407
f 51 400 406
f 407 405 408
f 408 409 407
f 410 407 409
f 409 411 410
f 48 410 411
f 409 412 411
f 45 411 412
f 412 409 413
f 413 414 412
f 415 412 414
f 414 416 415
f 417 415 416
f 416 418 417
f 417 418 419
f 420 417 419
f 419 421 420
f 420 421 422
f 41 420 422
f 41 422 423
f 423 422 421
f 421 424 423
f 39 423 424
f 37 424 421
f 37 421 425
f 37 425 426
f 427 37 426
f 427 426 428
f 427 428 36
f 428 12 36
f 428 429 12
f 430 12 429
f 430 429 431
f 430 431 10
f 431 432 10
f 433 10 432
f 434 433 432
f 434 435 433
f 435 436 433
f 435 9 436
f 435 437 9
f 438 9 437
f 438 437 439
f 438 439 440
f 440 441 438
f 438 441 1
f 441 442 1
f 441 443 442
f 443 444 442
f 444 445 442
f 445 446 442
f 446 2 442
f 446 447 2
f 447 448 2
f 448 449 2
f 449 20 2
f 22 449 448
f 450 22 448
f 450 451 22
f 451 452 22
f 452 453 22
f 454 22 453
f 455 454 453
f 455 453 456
f 457 455 456
f 457 456 458
f 457 458 459
f 460 457 459
f 460 459 461
f 462 460 461
f 462 461 463
f 464 462 463
f 464 463 465
f 466 464 465
f 466 465 467
f 468 466 467
f 469 468 467
f 470 469 467
f 471 470 467
f 471 472 470
f 470 472 473
f 470 473 474
f 470 474 475
f 470 475 476
f 477 470 476
f 477 476 478
f 477 478 479
f 480 477 479
f 480 479 481
f 482 480 481
f 483 482 481
f 484 483 481
f 485 484 481
f 486 485 481
f 487 485 486
f 487 486 488
f 489 487 488
f 490 489 488
f 491 490 488
f 491 488 492
f 493 491 492
f 493 492 494
f 493 494 495
f 496 493 495
f 496 495 497
f 496 497 498
f 496 498 499
f 499 498 500
f 501 499 500
f 501 500 502
f 503 501 502
f 503 502 504
f 503 504 505
f 506 503 505
f 506 505 485
f 506 485 489
f 506 491 503
f 504 507 505
f 508 505 507
f 508 507 509
f 510 508 509
f 510 509 511
f 512 510 511
f 513 512 511
f 513 511 514
f 515 513 514
f 515 514 516
f 517 515 516
f 517 516 518
f 519 517 518
f 519 518 520
f 521 519 520
f 521 520 522
f 521 522 523
f 521 523 524
f 524 525 521
f 526 521 525
f 526 525 527
f 527 528 526
f 529 526 528
f 529 528 530
f 529 530 519
f 530 531 519
f 532 531 530
f 532 533 531
f 531 533 517
f 532 534 533
f 533 534 535
f 533 535 515
f 535 534 536
f 535 536 537
f 535 537 538
f 535 538 513
f 539 538 537
f 539 537 483
f 537 540 483
f 539 541 538
f 538 541 512
f 539 542 541
f 541 542 510
f 543 510 542
f 543 542 484
f 484 508 543
f 539 484 542
f 536 540 537
f 536 544 540
f 540 544 482
f 544 545 482
f 482 545 546
f 546 545 547
f 546 547 548
f 546 548 549
f 546 549 480
f 549 550 480
f 480 550 551
f 480 551 552
f 64 552 551
f 66 551 550
f 549 553 550
f 67 550 553
f 549 554 553
f 69 553 554
f 555 554 549
f 556 555 549
f 556 557 555
f 557 558 555
f 555 558 559
f 555 559 560
f 560 559 561
f 561 562 560
f 72 560 562
f 562 561 563
f 563 564 562
f 565 562 564
f 565 564 566
f 566 567 565
f 567 568 565
f 569 565 568
f 568 570 569
f 571 569 570
f 570 572 571
f 572 573 571
f 574 571 573
f 573 575 574
f 575 576 574
f 577 574 576
f 576 578 577
f 578 579 577
f 580 577 579
f 579 581 580
f 582 580 581
f 583 582 581
f 583 581 584
f 583 584 585
f 583 585 586
f 587 583 586
f 587 586 588
f 589 587 588
f 589 588 590
f 590 591 589
f 590 592 591
f 591 592 582
f 591 582 587
f 582 592 593
f 593 594 582
f 89 594 593
f 595 593 592
f 595 592 596
f 596 597 595
f 597 598 595
f 595 598 599
f 600 595 599
f 599 601 600
f 601 602 600
f 603 600 602
f 602 604 603
f 605 603 604
f 604 606 605
f 607 605 606
f 606 608 607
f 609 607 608
f 608 610 609
f 611 609 610
f 610 612 611
f 612 613 611
f 614 611 613
f 613 615 614
f 615 616 614
f 110 614 616
f 616 615 617
f 617 618 616
f 618 619 616
f 111 616 619
f 619 618 620
f 620 621 619
f 112 619 621
f 621 620 622
f 622 623 621
f 115 621 623
f 623 622 624
f 623 624 625
f 625 626 623
f 119 623 626
f 626 625 627
f 627 628 626
f 628 629 626
f 121 626 629
f 630 629 628
f 630 628 631
f 630 631 632
f 633 630 632
f 634 633 632
f 634 632 635
f 634 635 636
f 637 634 636
f 637 636 638
f 639 637 638
f 639 638 640
f 641 639 640
f 641 640 642
f 643 641 642
f 643 642 644
f 643 644 645
f 646 643 645
f 646 645 647
f 646 647 648
f 648 649 646
f 646 649 650
f 646 650 638
f 651 646 638
f 652 651 638
f 651 652 646
f 649 653 650
f 653 654 650
f 650 654 655
f 650 655 656
f 650 656 657
f 650 657 640
f 658 657 656
f 658 656 659
f 658 659 660
f 661 658 660
f 661 660 662
f 661 662 663
f 664 661 663
f 664 663 665
f 664 665 666
f 664 666 667
f 664 667 668
f 664 668 669
f 669 668 642
f 669 642 658
f 668 670 642
f 667 670 668
f 667 647 670
f 670 647 644
f 667 671 647
f 667 672 671
f 648 671 672
f 648 672 673
f 673 653 648
f 653 673 674
f 653 674 675
f 653 675 676
f 653 676 677
f 678 677 676
f 676 679 678
f 679 680 678
f 681 678 680
f 681 680 682
f 682 683 681
f 684 681 683
f 684 683 685
f 686 684 685
f 686 685 687
f 688 686 687
f 689 688 687
f 689 687 690
f 156 689 690
f 690 687 158
f 691 158 687
f 687 692 691
f 692 693 691
f 691 693 694
f 694 192 691
f 694 695 192
f 694 696 695
f 695 696 194
f 697 194 696
f 698 697 696
f 698 196 697
f 698 696 694
f 694 699 698
f 699 700 698
f 701 698 700
f 702 701 700
f 702 700 703
f 702 703 704
f 705 702 704
f 705 704 706
f 705 706 707
f 705 707 708
f 705 708 709
f 705 709 710
f 711 710 709
f 712 711 709
f 712 709 713
f 714 712 713
f 713 715 714
f 715 662 714
f 716 715 713
f 717 716 713
f 717 713 718
f 717 718 719
f 717 719 720
f 717 720 721
f 717 721 722
f 722 721 723
f 716 722 723
f 716 723 724
f 723 725 724
f 725 726 724
f 724 726 727
f 724 727 663
f 663 715 724
f 726 728 727
f 725 727 728
f 727 725 665
f 725 729 665
f 729 730 665
f 723 730 729
f 723 731 730
f 731 675 730
f 732 730 675
f 730 732 666
f 732 674 666
f 725 728 726
f 729 725 723
f 721 731 723
f 721 733 731
f 733 734 731
f 734 679 731
f 720 734 733
f 720 680 734
f 720 735 680
f 720 733 721
f 719 735 720
f 736 735 719
f 737 736 719
f 738 737 719
f 737 738 739
f 739 738 740
f 707 739 740
f 740 741 707
f 741 740 742
f 742 718 741
f 708 741 718
f 738 718 742
f 738 742 743
f 740 743 742
f 738 743 740
f 739 736 737
f 739 744 736
f 744 745 736
f 746 736 745
f 745 747 746
f 746 747 735
f 747 748 735
f 735 748 682
f 747 682 748
f 683 747 745
f 683 745 694
f 744 699 745
f 704 744 739
f 736 746 735
f 738 719 718
f 717 722 716
f 716 724 715
f 712 714 749
f 712 749 750
f 750 749 751
f 129 750 751
f 752 129 751
f 752 751 753
f 752 753 141
f 130 752 141
f 754 753 751
f 755 754 751
f 756 755 751
f 756 751 757
f 758 756 757
f 758 757 759
f 760 758 759
f 760 759 761
f 762 760 761
f 763 762 761
f 764 763 761
f 764 761 765
f 764 765 766
f 767 764 766
f 767 766 684
f 766 768 684
f 766 678 768
f 766 765 654
f 766 654 677
f 767 763 764
f 767 769 763
f 763 769 770
f 763 770 771
f 770 772 771
f 771 772 773
f 771 773 762
f 762 773 774
f 774 773 775
f 774 775 776
f 777 774 776
f 777 776 778
f 779 777 778
f 779 778 780
f 779 780 781
f 755 779 781
f 782 781 780
f 782 780 783
f 782 783 784
f 782 784 785
f 786 782 785
f 787 786 785
f 787 785 788
f 772 787 788
f 772 788 789
f 790 789 788
f 790 788 791
f 790 791 792
f 792 791 793
f 793 794 792
f 775 792 794
f 789 792 775
f 776 794 793
f 795 793 791
f 791 796 795
f 783 795 796
f 797 795 783
f 797 778 795
f 778 793 795
f 788 796 791
f 790 792 789
f 785 796 788
f 798 786 787
f 798 787 770
f 799 786 798
f 800 799 798
f 769 800 798
f 686 800 769
f 801 800 686
f 802 801 686
f 803 802 686
f 153 803 686
f 804 153 686
f 805 804 686
f 806 805 686
f 154 805 806
f 154 804 805
f 153 802 803
f 144 801 802
f 144 807 801
f 807 800 801
f 807 143 800
f 800 143 753
f 800 753 799
f 799 754 786
f 754 781 786
f 785 784 796
f 796 784 783
f 797 783 780
f 786 781 782
f 797 780 778
f 756 777 779
f 776 793 778
f 758 774 777
f 775 794 776
f 773 789 775
f 772 789 773
f 770 787 772
f 769 798 770
f 686 769 767
f 763 771 762
f 762 774 760
f 765 761 759
f 655 765 759
f 760 774 758
f 659 759 757
f 808 659 757
f 758 777 756
f 808 757 751
f 756 779 755
f 755 781 754
f 799 753 754
f 809 750 129
f 809 711 750
f 809 810 711
f 711 810 811
f 810 812 811
f 811 812 702
f 702 710 811
f 810 813 812
f 813 814 812
f 701 812 814
f 814 815 701
f 816 815 814
f 816 817 815
f 698 815 817
f 817 627 698
f 698 627 818
f 698 818 819
f 698 819 820
f 698 820 197
f 819 821 820
f 821 198 820
f 819 818 821
f 821 818 625
f 817 816 631
f 652 631 816
f 816 643 652
f 631 652 636
f 813 816 814
f 816 813 810
f 816 810 641
f 637 810 809
f 637 809 128
f 749 808 751
f 714 808 749
f 714 660 808
f 709 718 713
f 750 711 712
f 711 811 710
f 709 708 718
f 707 741 708
f 707 706 739
f 706 704 739
f 705 710 702
f 704 703 744
f 703 700 744
f 702 812 701
f 698 701 815
f 700 699 744
f 699 694 745
f 693 683 694
f 683 693 822
f 823 683 822
f 823 822 692
f 823 692 685
f 692 822 693
f 691 191 158
f 156 688 689
f 156 806 688
f 688 806 686
f 685 692 687
f 686 767 684
f 823 685 683
f 684 768 681
f 682 747 683
f 735 682 680
f 678 681 768
f 680 679 734
f 731 679 676
f 766 677 678
f 731 676 675
f 675 674 732
f 674 673 666
f 673 672 666
f 667 666 672
f 730 666 665
f 665 663 727
f 664 669 661
f 715 663 662
f 662 660 714
f 661 669 658
f 660 659 808
f 659 656 759
f 658 642 657
f 655 759 656
f 654 765 655
f 677 654 653
f 649 648 653
f 671 648 647
f 643 646 652
f 647 645 644
f 670 644 642
f 643 816 641
f 640 657 642
f 641 810 639
f 638 650 640
f 639 810 637
f 652 638 636
f 637 126 634
f 635 631 636
f 634 629 633
f 634 124 629
f 629 124 824
f 824 122 629
f 635 632 631
f 817 631 628
f 633 629 630
f 817 628 627
f 818 627 625
f 821 625 624
f 825 821 624
f 825 200 821
f 825 624 622
f 825 622 620
f 826 825 620
f 826 202 825
f 826 620 618
f 827 826 618
f 827 618 205
f 828 827 205
f 828 826 827
f 828 204 826
f 617 205 618
f 829 617 615
f 829 615 830
f 829 830 831
f 831 832 829
f 829 832 833
f 829 833 834
f 213 829 834
f 833 216 834
f 833 252 216
f 835 252 833
f 832 835 833
f 832 836 835
f 836 254 835
f 837 254 836
f 838 837 836
f 838 839 837
f 839 840 837
f 840 841 837
f 840 287 841
f 842 287 840
f 843 842 840
f 843 844 842
f 844 845 842
f 844 846 845
f 846 288 845
f 847 288 846
f 848 288 847
f 848 847 844
f 848 844 289
f 844 849 289
f 849 850 289
f 850 849 610
f 850 610 851
f 850 851 852
f 852 853 850
f 854 850 853
f 854 853 855
f 854 855 856
f 854 856 857
f 856 858 857
f 858 859 857
f 859 291 857
f 857 291 850
f 858 860 859
f 860 292 859
f 858 861 860
f 861 293 860
f 861 862 293
f 863 862 861
f 863 864 862
f 294 862 864
f 864 865 294
f 866 294 865
f 866 865 867
f 866 867 296
f 868 296 867
f 869 868 867
f 869 870 868
f 870 871 868
f 871 297 868
f 870 872 871
f 872 873 871
f 873 299 871
f 874 299 873
f 875 874 873
f 875 876 874
f 877 874 876
f 877 876 300
f 300 876 590
f 596 590 876
f 875 596 876
f 872 596 875
f 878 596 872
f 877 299 874
f 872 875 873
f 878 872 870
f 879 878 870
f 879 870 599
f 879 597 878
f 869 599 870
f 869 865 599
f 869 867 865
f 864 599 865
f 880 864 863
f 880 863 858
f 858 881 880
f 882 881 858
f 882 602 881
f 881 864 880
f 881 601 864
f 858 863 861
f 882 858 856
f 883 882 856
f 883 604 882
f 883 856 855
f 884 883 855
f 884 606 883
f 884 855 853
f 854 857 850
f 852 884 853
f 852 851 884
f 851 608 884
f 844 847 846
f 843 849 844
f 839 849 843
f 885 849 839
f 886 849 885
f 886 885 838
f 830 886 838
f 830 612 886
f 886 612 849
f 845 287 842
f 839 843 840
f 885 839 838
f 837 841 254
f 832 838 836
f 831 838 832
f 831 830 838
f 213 617 829
f 213 208 617
f 830 615 613
f 108 611 614
f 830 613 612
f 612 610 849
f 106 609 611
f 851 610 608
f 104 607 609
f 884 608 606
f 102 605 607
f 883 606 604
f 98 603 605
f 882 604 602
f 95 600 603
f 881 602 601
f 599 864 601
f 92 595 600
f 879 599 598
f 879 598 597
f 878 597 596
f 91 593 595
f 590 596 592
f 887 590 588
f 887 302 590
f 887 888 302
f 887 586 888
f 586 889 888
f 889 303 888
f 589 591 587
f 887 588 586
f 586 585 889
f 585 890 889
f 890 304 889
f 890 891 304
f 892 304 891
f 891 893 892
f 894 892 893
f 894 893 895
f 894 895 896
f 895 897 896
f 897 898 896
f 899 896 898
f 899 898 305
f 899 305 892
f 305 898 900
f 901 900 898
f 902 901 898
f 898 903 902
f 904 902 903
f 903 905 904
f 904 905 906
f 907 904 906
f 906 908 907
f 908 909 907
f 910 907 909
f 910 909 911
f 911 912 910
f 913 910 912
f 912 914 913
f 915 913 914
f 916 915 914
f 914 917 916
f 918 916 917
f 919 918 917
f 917 920 919
f 919 920 921
f 922 919 921
f 921 923 922
f 923 924 922
f 924 522 922
f 922 522 925
f 922 925 926
f 927 922 926
f 928 927 926
f 928 926 929
f 918 928 929
f 930 929 926
f 931 929 930
f 931 930 932
f 931 932 933
f 934 931 933
f 934 933 935
f 936 934 935
f 936 935 937
f 938 936 937
f 938 937 939
f 940 938 939
f 940 939 941
f 942 940 941
f 942 941 943
f 942 943 944
f 945 942 944
f 945 944 946
f 947 945 946
f 947 946 948
f 947 948 352
f 343 947 352
f 343 312 947
f 946 356 948
f 948 356 353
f 947 309 945
f 945 309 949
f 944 357 946
f 944 360 357
f 945 949 942
f 942 949 950
f 942 950 951
f 306 951 950
f 306 900 951
f 900 952 951
f 940 951 952
f 307 950 949
f 943 360 944
f 941 361 943
f 942 951 940
f 939 363 941
f 939 366 363
f 940 952 938
f 938 952 953
f 902 953 952
f 937 366 939
f 938 953 936
f 935 367 937
f 936 953 934
f 934 953 954
f 907 954 953
f 933 369 935
f 934 954 931
f 931 954 955
f 913 955 954
f 932 371 933
f 932 374 371
f 956 374 932
f 930 956 932
f 930 957 956
f 957 375 956
f 957 958 375
f 957 959 958
f 959 960 958
f 958 960 377
f 960 961 377
f 960 378 961
f 959 962 960
f 962 382 960
f 963 382 962
f 964 963 962
f 964 965 963
f 965 966 963
f 965 967 966
f 967 968 966
f 968 383 966
f 967 969 968
f 969 970 968
f 970 971 968
f 971 385 968
f 970 972 971
f 972 973 971
f 973 387 971
f 972 974 973
f 974 975 973
f 975 389 973
f 974 976 975
f 976 977 975
f 977 392 975
f 976 978 977
f 978 979 977
f 979 394 977
f 978 980 979
f 980 981 979
f 981 982 979
f 982 396 979
f 981 983 982
f 983 984 982
f 984 399 982
f 985 399 984
f 985 984 986
f 985 986 987
f 985 987 404
f 404 987 988
f 987 989 988
f 988 989 405
f 986 989 987
f 990 989 986
f 991 990 986
f 991 992 990
f 991 993 992
f 992 993 994
f 992 994 995
f 995 989 992
f 989 995 996
f 989 996 997
f 997 998 989
f 409 989 998
f 998 999 409
f 1000 409 999
f 1000 999 1001
f 1001 1002 1000
f 1000 1002 1003
f 1000 1003 413
f 1003 1002 1004
f 1004 1005 1003
f 1006 1003 1005
f 1005 1007 1006
f 1006 1007 1008
f 1006 1008 1009
f 1009 1008 1010
f 1009 1010 1011
f 1009 1011 1012
f 1012 1003 1009
f 414 1003 1012
f 418 1012 1011
f 418 1011 1013
f 418 1013 1014
f 1014 1015 418
f 425 1015 1014
f 425 1016 1015
f 1016 419 1015
f 1017 1014 1013
f 1013 1018 1017
f 1017 1018 1019
f 1017 1019 1020
f 1020 1019 1021
f 1022 1020 1021
f 1022 1021 1023
f 1022 1023 1005
f 1023 1021 3
f 1023 3 1024
f 1007 1023 1024
f 1007 1024 1025
f 19 1025 1024
f 19 1024 2
f 1020 1022 1026
f 1026 1014 1020
f 428 1014 1026
f 1004 1026 1022
f 429 1026 1004
f 1027 429 1004
f 1027 1004 1028
f 1029 1027 1028
f 1029 1028 1030
f 1031 1029 1030
f 1031 1030 1032
f 1031 1032 1033
f 1034 1031 1033
f 1034 1033 1035
f 1034 1035 998
f 1036 1034 998
f 1036 1037 1034
f 1034 1037 1038
f 1034 1038 1039
f 1039 1038 1040
f 1039 1040 1041
f 1042 1039 1041
f 1043 1042 1041
f 435 1043 1041
f 435 1044 1043
f 1043 1044 1042
f 1031 1042 1044
f 1031 1039 1042
f 1040 440 1041
f 1045 1041 440
f 437 1041 1045
f 1040 1046 440
f 1047 440 1046
f 1047 1046 1048
f 1049 1047 1048
f 1049 1048 1050
f 1051 1049 1050
f 1050 1052 1051
f 1052 1053 1051
f 1054 1051 1053
f 1054 1053 1055
f 1054 1055 452
f 1056 1055 1053
f 1056 1053 1057
f 1056 1057 1055
f 1057 1058 1055
f 1058 1059 1055
f 453 1055 1059
f 1058 1060 1059
f 458 1059 1060
f 458 1060 1061
f 1062 1061 1060
f 1063 1061 1062
f 1063 1062 1058
f 1063 1058 1064
f 1052 1063 1064
f 1052 1064 1057
f 1052 1065 1063
f 1065 1052 1066
f 1065 1066 1067
f 1067 1068 1065
f 1061 1065 1068
f 1068 459 1061
f 1068 1069 459
f 459 1069 1070
f 1071 459 1070
f 1071 1070 1072
f 1071 1072 1073
f 1071 1073 1074
f 1071 1074 1075
f 1076 1071 1075
f 1076 1075 1077
f 1078 1076 1077
f 1078 1077 1079
f 1078 1079 1080
f 1078 1080 1081
f 1081 1080 1082
f 1081 1082 1083
f 1076 1081 1083
f 1076 1083 1084
f 1076 1084 1085
f 1084 1086 1085
f 1086 1087 1085
f 1087 461 1085
f 1086 1088 1087
f 1088 1089 1087
f 1089 465 1087
f 1088 465 1089
f 1088 1090 465
f 472 465 1090
f 472 1090 1091
f 472 1091 1092
f 472 1092 1093
f 1094 1093 1092
f 1095 1094 1092
f 1096 1095 1092
f 1096 1092 1097
f 1096 1097 1098
f 1099 1096 1098
f 1099 1098 1100
f 1099 1100 1101
f 1099 1101 1102
f 1099 1102 1103
f 1102 1104 1103
f 1103 1104 1105
f 1106 1103 1105
f 1106 1105 1107
f 1108 1106 1107
f 1108 1107 1109
f 1110 1108 1109
f 1110 1109 1111
f 1112 1110 1111
f 1112 1111 500
f 500 1111 507
f 507 1111 1113
f 507 1113 1114
f 972 1114 1113
f 1111 1115 1113
f 974 1113 1115
f 1116 1110 1112
f 1116 1112 1117
f 1118 1116 1117
f 1118 1117 474
f 1118 474 1119
f 1118 1119 1120
f 1120 1119 1121
f 1120 1121 1122
f 1120 1122 1110
f 1122 1121 1123
f 1122 1123 1124
f 1122 1124 1108
f 1125 1124 1123
f 1096 1125 1123
f 1096 1126 1125
f 1096 1103 1126
f 1125 1126 1124
f 1124 1126 1106
f 1121 1095 1123
f 1121 1119 1094
f 1119 474 1094
f 1118 1120 1116
f 1112 498 1117
f 1116 1120 1110
f 1111 1109 1115
f 1109 1127 1115
f 976 1115 1127
f 1122 1108 1110
f 1109 1107 1127
f 1128 1127 1107
f 1128 1107 1129
f 1130 1128 1129
f 1130 1129 1131
f 1132 1130 1131
f 1132 1131 1133
f 1134 1132 1133
f 1135 1134 1133
f 1136 1135 1133
f 1136 1133 1137
f 1037 1136 1137
f 1037 1137 1040
f 1040 1137 1138
f 1137 1139 1138
f 1066 1138 1139
f 1066 1048 1138
f 1137 1140 1139
f 1141 1139 1140
f 1141 1140 1142
f 1143 1141 1142
f 1143 1142 1144
f 1145 1143 1144
f 1146 1145 1144
f 1146 1144 1073
f 1073 1144 1147
f 1073 1147 1148
f 1147 1144 1148
f 1149 1148 1144
f 1149 1077 1148
f 1077 1150 1148
f 1074 1148 1150
f 1151 1077 1149
f 1151 1149 1142
f 1151 1142 1152
f 1151 1152 1153
f 1151 1153 1154
f 1151 1154 1155
f 1151 1155 1156
f 1151 1156 1157
f 1157 1156 1105
f 1129 1105 1156
f 1129 1156 1155
f 1131 1155 1154
f 1133 1154 1153
f 1133 1153 1140
f 1153 1152 1140
f 1151 1157 1077
f 1146 1158 1145
f 1145 1158 1159
f 1145 1159 1160
f 1159 1161 1160
f 1161 1162 1160
f 1160 1162 1163
f 1163 1143 1160
f 1164 1143 1163
f 1165 1164 1163
f 1165 1166 1164
f 1166 1167 1164
f 1168 1167 1166
f 1166 1067 1168
f 1168 1067 1143
f 1168 1143 1167
f 1166 1165 1068
f 1169 1068 1165
f 1169 1165 1162
f 1162 1170 1169
f 1170 1171 1169
f 1170 1172 1171
f 1172 1173 1171
f 1171 1173 1068
f 1172 1174 1173
f 1173 1174 1069
f 1174 1175 1069
f 1174 1072 1175
f 1174 1176 1072
f 1158 1072 1176
f 1172 1176 1174
f 1159 1176 1172
f 1161 1172 1170
f 1169 1171 1068
f 1167 1143 1164
f 1165 1163 1162
f 1162 1161 1170
f 1159 1172 1161
f 1159 1158 1176
f 1146 1072 1158
f 1145 1160 1143
f 1149 1144 1142
f 1143 1067 1141
f 1152 1142 1140
f 1139 1141 1067
f 1137 1133 1140
f 1037 1135 1136
f 1177 1134 1135
f 1177 1135 1036
f 1177 1036 1178
f 1177 1178 996
f 1036 997 1178
f 1179 1134 1177
f 1179 1177 1180
f 1179 1180 993
f 1181 1179 993
f 1181 993 1182
f 1181 1182 981
f 1181 1130 1179
f 1181 980 1130
f 1177 994 1180
f 1179 1132 1134
f 1133 1131 1154
f 1179 1130 1132
f 1131 1129 1155
f 980 1128 1130
f 978 1127 1128
f 1124 1106 1108
f 1129 1107 1105
f 1126 1103 1106
f 1104 1157 1105
f 1102 1157 1104
f 1183 1157 1102
f 1183 1102 1184
f 1079 1183 1184
f 1079 1157 1183
f 1102 1101 1184
f 1101 1185 1184
f 1184 1185 1080
f 1101 1186 1185
f 1185 1186 1086
f 1082 1185 1086
f 1100 1186 1101
f 1100 1187 1186
f 1186 1187 1088
f 1100 1188 1187
f 1188 1189 1187
f 1187 1189 1190
f 1187 1190 1090
f 1189 1098 1190
f 1098 1091 1190
f 1100 1189 1188
f 1100 1098 1189
f 1099 1103 1096
f 1097 1091 1098
f 1096 1123 1095
f 1121 1094 1095
f 1094 473 1093
f 1097 1092 1091
f 1190 1091 1090
f 1187 1090 1088
f 1186 1088 1086
f 1082 1086 1084
f 1083 1082 1084
f 1080 1185 1082
f 1079 1184 1080
f 1077 1157 1079
f 1078 1081 1076
f 1075 1150 1077
f 1076 1085 1071
f 1075 1074 1150
f 1074 1073 1148
f 1146 1073 1072
f 1070 1175 1072
f 1071 1085 459
f 1175 1070 1069
f 1173 1069 1068
f 1068 1067 1166
f 1139 1067 1066
f 1061 1063 1065
f 1058 1062 1060
f 1064 1058 1057
f 1051 1054 451
f 451 1191 1051
f 451 445 1191
f 1052 1057 1053
f 1050 1066 1052
f 1049 1051 1191
f 1066 1050 1048
f 1191 1047 1049
f 1191 1192 1047
f 1191 441 1192
f 1138 1048 1046
f 440 1047 1192
f 1040 1138 1046
f 1038 1037 1040
f 1036 1135 1037
f 1035 1033 999
f 1034 1039 1031
f 1032 999 1033
f 1030 999 1032
f 1031 1044 1029
f 1029 1044 434
f 1029 434 431
f 1030 1028 1193
f 1030 1193 1001
f 1193 1028 1004
f 1029 429 1027
f 1021 1019 4
f 1018 5 1019
f 1018 1194 5
f 1018 1195 1194
f 1195 1196 1194
f 1194 1196 1197
f 6 1194 1197
f 17 1197 1196
f 17 1196 1198
f 17 1198 1025
f 1008 1025 1198
f 1010 1198 1196
f 1195 1010 1196
f 1013 1195 1018
f 1020 1014 1017
f 1011 1195 1013
f 1011 1010 1195
f 1010 1008 1198
f 1007 1025 1008
f 1005 1023 1007
f 1009 1003 1006
f 1004 1022 1005
f 1193 1004 1002
f 1193 1002 1001
f 1001 999 1030
f 999 998 1035
f 1036 998 997
f 997 996 1178
f 1177 996 995
f 1177 995 994
f 994 993 1180
f 991 1182 993
f 991 984 1182
f 992 989 990
f 991 986 984
f 985 404 399
f 1182 984 983
f 1182 983 981
f 1181 981 980
f 978 1128 980
f 976 1127 978
f 974 1115 976
f 972 1113 974
f 970 1114 972
f 970 1199 1114
f 509 1114 1199
f 509 1199 1200
f 970 1200 1199
f 970 1201 1200
f 511 1200 1201
f 969 1201 970
f 969 1202 1201
f 514 1201 1202
f 967 1202 969
f 967 1203 1202
f 516 1202 1203
f 965 1203 967
f 965 1204 1203
f 518 1203 1204
f 964 1204 965
f 964 1205 1204
f 522 1204 1205
f 964 1206 1205
f 1206 925 1205
f 1207 925 1206
f 1207 1206 930
f 1207 930 925
f 964 959 1206
f 966 382 963
f 964 962 959
f 957 1206 959
f 930 1206 957
f 931 955 929
f 916 929 955
f 927 928 919
f 930 926 925
f 522 1205 925
f 924 923 1208
f 523 924 1208
f 1209 523 1208
f 1210 1209 1208
f 1210 1208 1211
f 1210 1211 1212
f 1210 1212 1213
f 1210 1213 1214
f 1210 1214 1215
f 1213 1215 1214
f 1213 1216 1215
f 1215 1216 1209
f 1216 1217 1209
f 1216 1218 1217
f 1217 1218 523
f 1219 1218 1216
f 1219 1216 1220
f 1219 1220 1221
f 1219 1221 525
f 1221 1220 1222
f 1223 1221 1222
f 1223 1222 1224
f 1223 1224 527
f 1224 1225 527
f 1226 527 1225
f 1226 1225 547
f 1224 1222 1225
f 1222 556 1225
f 548 1225 556
f 1222 1227 556
f 1223 527 1221
f 1220 1227 1222
f 1220 1213 1227
f 1227 1213 1228
f 1227 1228 557
f 1219 525 1218
f 1220 1216 1213
f 1228 1213 1212
f 1228 1212 1211
f 1229 1228 1211
f 1229 1230 1228
f 1228 1230 558
f 1230 563 558
f 1208 1230 1229
f 1208 564 1230
f 1229 1211 1208
f 1210 1215 1209
f 1217 523 1209
f 566 1208 923
f 1231 566 923
f 1232 1231 923
f 1232 1233 1231
f 1231 1233 1234
f 1235 1231 1234
f 1235 1234 1236
f 1237 1235 1236
f 1237 1236 1238
f 1239 1237 1238
f 1239 1238 1240
f 1239 1240 1241
f 1239 1241 1242
f 570 1242 1241
f 1241 1243 570
f 1244 570 1243
f 1244 1243 1245
f 1246 1244 1245
f 1246 1245 1247
f 1246 1247 1248
f 1249 1246 1248
f 1249 1248 1250
f 1249 1250 1251
f 1252 1249 1251
f 1252 1251 1253
f 1252 1253 575
f 1253 906 575
f 906 1254 575
f 1253 1255 906
f 1253 1250 1255
f 1252 573 1249
f 1253 1251 1250
f 1250 1248 1255
f 1248 1256 1255
f 1256 908 1255
f 1248 1257 1256
f 1257 911 1256
f 1257 1243 911
f 1247 1243 1257
f 1249 572 1246
f 1248 1247 1257
f 1245 1243 1247
f 1246 570 1244
f 1241 911 1243
f 1258 1241 1240
f 1258 1240 914
f 1258 912 1241
f 1238 914 1240
f 1239 1242 1237
f 1259 1237 1242
f 1259 1242 568
f 1259 1260 1237
f 1259 567 1260
f 1236 917 1238
f 1260 1235 1237
f 1260 566 1235
f 1234 917 1236
f 1234 1261 917
f 1233 1261 1234
f 1233 921 1261
f 1232 921 1233
f 1235 566 1231
f 1232 923 921
f 922 927 919
f 1261 921 920
f 917 1261 920
f 918 919 928
f 916 918 929
f 1238 917 914
f 915 916 955
f 913 915 955
f 914 912 1258
f 910 913 954
f 911 1241 912
f 1256 911 909
f 907 910 954
f 1256 909 908
f 1255 908 906
f 904 907 953
f 1254 906 905
f 1262 1254 905
f 1263 1254 1262
f 1263 1262 1264
f 1265 1263 1264
f 1265 1264 897
f 1262 903 1264
f 1265 1254 1263
f 1266 1254 1265
f 1266 1265 895
f 1267 1266 895
f 1267 576 1266
f 1266 576 1254
f 1262 905 903
f 902 904 953
f 1264 903 898
f 901 902 952
f 900 901 952
f 899 892 896
f 1264 898 897
f 895 1265 897
f 1267 895 893
f 1267 893 578
f 894 896 892
f 893 891 579
f 584 579 891
f 584 891 1268
f 1268 891 1269
f 1268 1269 585
f 1269 891 890
f 585 1269 890
f 584 1268 585
f 587 582 583
f 580 582 594
f 594 1270 580
f 88 1270 594
f 584 581 579
f 577 580 1270
f 1270 1271 577
f 86 1271 1270
f 579 578 893
f 1267 578 576
f 574 577 1271
f 1271 1272 574
f 1272 1273 574
f 81 1273 1272
f 83 1272 1271
f 576 575 1254
f 1252 575 573
f 571 574 1273
f 1273 1274 571
f 79 1274 1273
f 1249 573 572
f 1246 572 570
f 569 571 1274
f 78 569 1274
f 570 568 1242
f 76 565 569
f 1259 568 567
f 1260 567 566
f 1208 566 564
f 73 562 565
f 1230 564 563
f 561 559 563
f 558 563 559
f 1228 558 557
f 1227 557 556
f 555 560 554
f 70 554 560
f 548 556 549
f 548 547 1225
f 1226 547 545
f 544 1226 545
f 1275 1226 544
f 534 1226 1275
f 1275 544 536
f 536 534 1275
f 532 1226 534
f 532 528 1226
f 532 530 528
f 519 526 529
f 527 1226 528
f 1221 527 525
f 524 1218 525
f 1218 524 523
f 523 522 924
f 522 520 1204
f 521 526 519
f 520 518 1204
f 531 517 519
f 518 516 1203
f 533 515 517
f 516 514 1202
f 535 513 515
f 514 511 1201
f 538 512 513
f 541 510 512
f 511 509 1200
f 543 508 510
f 509 507 1114
f 508 484 505
f 504 502 507
f 503 493 501
f 502 500 507
f 501 493 499
f 1112 500 498
f 1117 498 497
f 1117 497 475
f 494 475 497
f 496 499 493
f 495 494 497
f 494 492 476
f 503 491 493
f 492 488 478
f 506 490 491
f 506 489 490
f 488 486 479
f 489 485 487
f 485 505 484
f 539 483 484
f 540 482 483
f 482 546 480
f 486 481 479
f 480 552 477
f 477 552 1276
f 477 1276 1277
f 60 1277 1276
f 62 1276 552
f 488 479 478
f 492 478 476
f 477 1277 470
f 470 1277 1278
f 59 1278 1277
f 59 468 1278
f 494 476 475
f 474 1117 475
f 1094 474 473
f 472 1093 473
f 471 465 472
f 470 1278 469
f 469 1278 468
f 57 466 468
f 471 467 465
f 57 464 466
f 1087 465 463
f 55 462 464
f 1087 463 461
f 53 460 462
f 53 1279 460
f 1279 52 460
f 1085 461 459
f 52 457 460
f 458 1061 459
f 1059 458 456
f 49 455 457
f 1059 456 453
f 455 1280 454
f 1280 23 454
f 44 1280 455
f 453 452 1055
f 1054 452 451
f 450 447 451
f 450 448 447
f 446 451 447
f 451 446 445
f 445 444 1191
f 1191 444 443
f 1191 443 441
f 440 1192 441
f 440 439 1045
f 437 1045 439
f 435 1041 437
f 434 1044 435
f 436 10 433
f 434 432 431
f 1029 431 429
f 428 1026 429
f 428 426 1014
f 426 425 1014
f 425 421 1016
f 421 419 1016
f 419 418 1015
f 416 1012 418
f 420 415 417
f 42 415 420
f 414 1012 416
f 42 412 415
f 413 1003 414
f 413 409 1000
f 48 407 410
f 989 409 408
f 408 405 989
f 404 988 405
f 404 403 399
f 406 400 402
f 399 403 401
f 982 399 397
f 56 395 398
f 982 397 396
f 979 396 394
f 58 393 395
f 977 394 392
f 61 391 393
f 975 392 389
f 65 390 391
f 65 388 390
f 973 389 387
f 65 386 388
f 971 387 385
f 68 384 386
f 968 385 383
f 68 381 384
f 966 383 382
f 380 960 382
f 380 378 960
f 961 378 377
f 958 377 376
f 375 958 376
f 956 375 374
f 371 374 372
f 933 371 369
f 935 369 367
f 937 367 366
f 363 366 364
f 941 363 361
f 943 361 360
f 357 360 358
f 946 357 356
f 356 354 353
f 948 353 352
f 343 352 350
f 341 340 345
f 342 338 339
f 338 351 337
f 340 336 335
f 349 335 334
f 333 348 334
f 347 333 330
f 329 347 330
f 320 322 290
f 329 321 319
f 318 320 295
f 329 319 317
f 315 318 295
f 344 317 316
f 343 316 314
f 313 315 295
f 343 314 312
f 311 313 298
f 947 312 310
f 308 311 298
f 947 310 309
f 307 949 309
f 307 306 950
f 900 306 305
f 892 305 304
f 889 304 303
f 888 303 302
f 590 302 300
f 298 301 308
f 877 300 299
f 871 299 297
f 295 298 313
f 868 297 296
f 866 296 294
f 290 295 320
f 294 293 862
f 860 293 292
f 859 292 291
f 291 289 850
f 848 289 288
f 845 288 287
f 841 287 286
f 286 257 841
f 285 290 284
f 284 327 283
f 279 1281 281
f 281 1281 264
f 279 1282 1281
f 1281 1282 266
f 1282 1283 266
f 277 1283 1282
f 280 283 278
f 277 1282 279
f 278 328 275
f 276 1283 277
f 276 1284 1283
f 1283 1284 267
f 1284 271 267
f 273 1284 276
f 275 324 274
f 274 331 272
f 1284 273 271
f 331 270 272
f 270 332 269
f 271 268 267
f 1283 267 266
f 1281 266 265
f 264 1281 265
f 281 264 263
f 259 263 261
f 259 258 282
f 257 286 258
f 257 255 841
f 254 841 255
f 835 254 252
f 251 253 250
f 229 248 247
f 247 1285 229
f 245 1285 247
f 245 1286 1285
f 1285 1286 230
f 1286 1287 230
f 244 1287 1286
f 246 250 243
f 244 1286 245
f 242 1287 244
f 242 1288 1287
f 1287 1288 231
f 1288 1289 231
f 1289 236 231
f 241 1289 1288
f 243 250 240
f 241 1288 242
f 238 1289 241
f 240 256 239
f 239 260 237
f 238 236 1289
f 260 235 237
f 260 234 235
f 234 262 233
f 236 232 231
f 1287 231 230
f 229 1285 230
f 248 229 228
f 248 228 227
f 223 227 224
f 223 219 249
f 218 249 219
f 218 216 252
f 215 217 188
f 188 211 215
f 188 207 211
f 834 216 214
f 213 834 214
f 212 215 211
f 213 210 208
f 211 207 209
f 205 617 208
f 206 207 193
f 201 206 193
f 1290 201 193
f 828 205 204
f 826 204 202
f 203 206 201
f 825 202 200
f 1290 199 201
f 821 200 198
f 1290 195 199
f 197 820 198
f 698 197 196
f 697 196 194
f 1290 193 195
f 192 695 194
f 188 193 207
f 192 191 691
f 191 190 159
f 190 189 160
f 189 187 163
f 188 221 186
f 186 221 185
f 182 1291 183
f 183 1291 1292
f 183 1292 166
f 166 1292 169
f 1292 1291 171
f 182 1293 1291
f 1291 1293 172
f 1293 177 172
f 179 1293 182
f 181 185 180
f 180 222 178
f 179 177 1293
f 225 176 178
f 225 175 176
f 175 226 174
f 177 173 172
f 1291 172 171
f 1292 171 170
f 169 1292 170
f 166 169 167
f 165 183 166
f 165 164 184
f 187 164 163
f 189 163 161
f 189 161 160
f 190 160 159
f 191 159 158
f 157 690 158
f 156 690 157
f 154 806 156
f 154 153 804
f 144 802 153
f 152 155 151
f 151 155 149
f 149 162 148
f 148 168 136
f 146 150 147
f 144 150 146
f 144 143 807
f 753 143 142
f 753 142 141
f 130 141 140
f 130 140 132
f 133 137 1294
f 139 145 138
f 138 145 136
f 134 1294 137
f 136 168 135
f 134 133 1294
f 140 133 132
f 130 132 131
f 130 129 752
f 809 129 128
f 637 128 126
f 634 126 124
f 127 123 125
f 824 124 122
f 123 135 118
f 122 121 629
f 121 120 626
f 120 119 626
f 119 117 623
f 118 174 113
f 117 116 623
f 116 115 623
f 115 114 621
f 114 112 621
f 113 233 107
f 112 111 619
f 111 110 616
f 110 109 614
f 109 108 614
f 108 106 611
f 107 269 101
f 106 105 609
f 105 104 609
f 104 103 607
f 103 102 607
f 102 100 605
f 101 337 96
f 100 99 605
f 99 98 605
f 98 97 603
f 97 95 603
f 96 355 93
f 95 94 600
f 94 92 600
f 93 359 90
f 92 91 595
f 91 89 593
f 90 362 87
f 89 88 594
f 88 86 1270
f 87 365 85
f 86 84 1271
f 85 368 82
f 84 83 1271
f 83 81 1272
f 82 370 80
f 81 79 1273
f 80 373 77
f 79 78 1274
f 78 76 569
f 77 379 74
f 76 75 565
f 75 73 565
f 74 379 71
f 73 72 562
f 72 70 560
f 71 381 68
f 70 69 554
f 69 67 553
f 68 386 65
f 67 66 550
f 66 64 551
f 65 391 61
f 64 63 552
f 63 62 552
f 62 60 1276
f 61 393 58
f 60 59 1277
f 59 57 468
f 58 395 56
f 57 55 464
f 56 400 54
f 55 53 462
f 54 400 51
f 53 52 1279
f 52 50 457
f 51 407 48
f 50 49 457
f 49 47 455
f 48 411 45
f 47 46 455
f 46 44 455
f 45 412 42
f 44 43 1280
f 43 24 1280
f 1295 43 40
f 1295 40 1296
f 1296 26 1295
f 1295 26 43
f 42 420 41
f 41 423 39
f 1296 40 38
f 39 424 37
f 1296 38 35
f 427 36 37
f 1296 35 34
f 1296 34 33
f 1296 33 32
f 1296 32 28
f 31 13 30
f 30 16 25
f 29 28 32
f 1296 28 27
f 1296 27 26
f 43 26 24
f 16 21 25
f 24 23 1280
f 22 454 23
f 22 20 449
f 20 19 2
f 1025 19 17
f 21 16 18
f 1197 17 15
f 16 30 13
f 14 1197 15
f 14 8 1197
f 12 13 36
f 430 10 12
f 14 11 8
f 9 10 436
f 9 438 7
f 8 6 1197
f 7 438 1
f 6 5 1194
f 1019 5 4
f 1021 4 3
f 1024 3 2
f 2 1 442

