# https://github.com/mikedh/trimesh
mtllib material.mtl

o uprArm_geo-mesh
usemtl material_0
v -0.00611444 -0.02735452 0.00893048
v -0.00469021 -0.02558221 0.00750607
v -0.00469021 -0.02735452 0.00750607
v -0.00663573 -0.02735452 0.01087602
v -0.00611444 -0.02558221 0.00893048
v -0.00611444 -0.02735452 0.01282153
v -0.00663573 -0.02558221 0.01087602
v -0.00469021 -0.02735452 0.01424556
v -0.00611444 -0.02558221 0.01282153
v -0.00274469 -0.02735452 0.01476705
v -0.00469021 -0.02558221 0.01424556
v -0.00079917 -0.02735452 0.01424556
v -0.00274469 -0.02558221 0.01476705
v 0.00062505 -0.02735452 0.01282153
v -0.00079917 -0.02558221 0.01424556
v 0.00114635 -0.02735452 0.01087602
v 0.00062505 -0.02558221 0.01282153
v 0.00062505 -0.02735452 0.00893048
v 0.00114635 -0.02558221 0.01087602
v -0.00079917 -0.02735452 0.00750607
v 0.00062505 -0.02558221 0.00893048
v -0.00274469 -0.02735452 0.00698496
v -0.00079917 -0.02558221 0.00750607
v -0.00469021 -0.02735452 0.00750607
v -0.00274469 -0.02558221 0.00698496
v -0.00557618 -0.02798634 0.00924112
v -0.00437938 -0.02798634 0.00804451
v -0.00274469 -0.02798634 0.01087602
v -0.00601409 -0.02798634 0.01087602
v -0.00557618 -0.02798634 0.01251050
v -0.00437938 -0.02798634 0.01370749
v -0.00274469 -0.02798634 0.01414540
v -0.00110999 -0.02798634 0.01370749
v 0.00008680 -0.02798634 0.01251050
v 0.00052470 -0.02798634 0.01087602
v 0.00008680 -0.02798634 0.00924112
v -0.00110999 -0.02798634 0.00804451
v -0.00274469 -0.02798634 0.00760622
v -0.00469021 -0.02735452 0.00750607
v -0.00611444 -0.02735452 0.00893048
v -0.00663573 -0.02735452 0.01087602
v -0.00611444 -0.02735452 0.01282153
v -0.00469021 -0.02735452 0.01424556
v -0.00274469 -0.02735452 0.01476705
v -0.00079917 -0.02735452 0.01424556
v 0.00062505 -0.02735452 0.01282153
v 0.00114635 -0.02735452 0.01087602
v 0.00062505 -0.02735452 0.00893048
v -0.00079917 -0.02735452 0.00750607
v -0.00274469 -0.02735452 0.00698496
v 0.00062505 -0.02082214 0.01282153
v -0.00079917 -0.01797709 0.01424556
v -0.00079917 -0.02082214 0.01424556
v -0.00274469 -0.01797709 0.01476705
v -0.00274469 -0.02082214 0.01476705
v -0.00469021 -0.01797709 0.01424556
v -0.00469021 -0.02082214 0.01424556
v -0.00611444 -0.01797709 0.01282153
v -0.00611444 -0.02082214 0.01282153
v -0.00663573 -0.01797709 0.01087602
v -0.00663573 -0.02082214 0.01087602
v -0.00611444 -0.01797709 0.00893048
v -0.00611444 -0.02082214 0.00893048
v -0.00469021 -0.01797709 0.00750607
v -0.00469021 -0.02082214 0.00750607
v -0.00469021 -0.02082214 0.00750607
v -0.00274469 -0.01797709 0.00698496
v -0.00274469 -0.02082214 0.00698496
v -0.00079917 -0.01797709 0.00750607
v -0.00079917 -0.02082214 0.00750607
v 0.00062505 -0.01797709 0.00893048
v 0.00062505 -0.02082214 0.00893048
v 0.00114635 -0.01797709 0.01087602
v 0.00114635 -0.02082214 0.01087602
v 0.00062505 -0.01797709 0.01282153
v -0.00469021 -0.02558221 0.00750607
v 0.00062505 -0.02082214 0.01282153
v 0.00776158 -0.02082214 0.01340289
v 0.00776158 -0.02082214 0.01197848
v 0.00062505 -0.02082214 0.00893048
v 0.00776158 -0.02082214 0.00666340
v -0.00079917 -0.02082214 0.00750607
v 0.00114635 -0.02082214 0.01087602
v 0.00776158 -0.02082214 0.00808743
v 0.00062505 -0.02082214 0.00893048
v 0.00114635 -0.02082214 0.01087602
v 0.00776158 -0.02082214 0.01197848
v 0.00776158 -0.02082214 0.01003296
v -0.00079917 -0.02558221 0.01424556
v 0.00776158 -0.02082214 0.01340289
v -0.00079917 -0.02082214 0.01424556
v 0.00062505 -0.02558221 0.01282153
v 0.00776158 -0.02558221 0.01340289
v -0.00079917 -0.02558221 0.01424556
v -0.00079917 -0.02082214 0.00750607
v 0.00776158 -0.02558221 0.00666340
v -0.00079917 -0.02558221 0.00750607
v 0.00062505 -0.02558221 0.00893048
v 0.00776158 -0.02558221 0.00666340
v 0.00776158 -0.02558221 0.00808743
v 0.00114635 -0.02558221 0.01087602
v 0.00776158 -0.02558221 0.00808743
v 0.00776158 -0.02558221 0.01003296
v 0.00114635 -0.02558221 0.01087602
v 0.00776158 -0.02558221 0.01197848
v 0.00062505 -0.02558221 0.01282153
v 0.00776158 -0.02082214 0.01340289
v 0.04287929 -0.02082214 0.01625170
v 0.00776158 -0.02082214 0.01197848
v 0.00776158 -0.02082214 0.00808743
v 0.04287929 -0.02082214 0.01093626
v 0.00776158 -0.02082214 0.00666340
v 0.00776158 -0.02082214 0.01003296
v 0.04287929 -0.02082214 0.01236066
v 0.00776158 -0.02082214 0.00808743
v 0.00776158 -0.02082214 0.01197848
v 0.04287929 -0.02082214 0.01430618
v 0.00776158 -0.02082214 0.01003296
v 0.00776158 -0.02558221 0.01340289
v 0.04287929 -0.02082214 0.01767573
v 0.00776158 -0.02082214 0.01340289
v 0.00776158 -0.02558221 0.01340289
v 0.04287929 -0.02558221 0.01625170
v 0.04287929 -0.02558221 0.01767573
v 0.00776158 -0.02082214 0.00666340
v 0.04287929 -0.02558221 0.01093626
v 0.00776158 -0.02558221 0.00666340
v 0.00776158 -0.02558221 0.00808743
v 0.04287929 -0.02558221 0.01093626
v 0.04287929 -0.02558221 0.01236066
v 0.00776158 -0.02558221 0.01003296
v 0.04287929 -0.02558221 0.01236066
v 0.04287929 -0.02558221 0.01430618
v 0.00776158 -0.02558221 0.01197848
v 0.04287929 -0.02558221 0.01430618
v 0.04287929 -0.02558221 0.01625170
v 0.04287929 -0.02082214 0.01625170
v 0.04727469 -0.02082214 0.01648590
v 0.04684620 -0.02082214 0.01512777
v 0.04287929 -0.02082214 0.01093626
v 0.04567538 -0.02082214 0.01141709
v 0.04524689 -0.02082214 0.01005856
v 0.04287929 -0.02082214 0.01236066
v 0.04626088 -0.02082214 0.01327223
v 0.04567538 -0.02082214 0.01141709
v 0.04287929 -0.02082214 0.01430618
v 0.04684620 -0.02082214 0.01512777
v 0.04626088 -0.02082214 0.01327223
v 0.04287929 -0.02082214 0.01767573
v 0.04727469 -0.02500141 0.01648590
v 0.04727469 -0.02082214 0.01648590
v 0.04287929 -0.02558221 0.01625170
v 0.04727469 -0.02500141 0.01648590
v 0.04287929 -0.02558221 0.01767573
v 0.04287929 -0.02082214 0.01093626
v 0.04524689 -0.02500141 0.01005856
v 0.04287929 -0.02558221 0.01093626
v 0.04287929 -0.02558221 0.01093626
v 0.04567538 -0.02500141 0.01141709
v 0.04287929 -0.02558221 0.01236066
v 0.04287929 -0.02558221 0.01236066
v 0.04626088 -0.02500141 0.01327223
v 0.04287929 -0.02558221 0.01430618
v 0.04287929 -0.02558221 0.01430618
v 0.04684620 -0.02500141 0.01512777
v 0.04287929 -0.02558221 0.01625170
v 0.04684620 -0.02082214 0.01512777
v 0.05540374 -0.01759546 0.00748725
v 0.05497545 -0.01759546 0.00612910
v 0.04524689 -0.02082214 0.01005856
v 0.05380462 -0.01759546 0.00241841
v 0.05337615 -0.01759546 0.00106027
v 0.04567538 -0.02082214 0.01141709
v 0.05438995 -0.01759546 0.00427394
v 0.05380462 -0.01759546 0.00241841
v 0.04626088 -0.02082214 0.01327223
v 0.05497545 -0.01759546 0.00612910
v 0.05438995 -0.01759546 0.00427394
v 0.04727469 -0.02082214 0.01648590
v 0.05540374 -0.02122859 0.00748725
v 0.05540374 -0.01759546 0.00748725
v 0.04684620 -0.02500141 0.01512777
v 0.05540374 -0.02122859 0.00748725
v 0.04727469 -0.02500141 0.01648590
v 0.04524689 -0.02082214 0.01005856
v 0.05337615 -0.02122859 0.00106027
v 0.04524689 -0.02500141 0.01005856
v 0.04524689 -0.02500141 0.01005856
v 0.05380462 -0.02122859 0.00241841
v 0.04567538 -0.02500141 0.01141709
v 0.04567538 -0.02500141 0.01141709
v 0.05438995 -0.02122859 0.00427394
v 0.04626088 -0.02500141 0.01327223
v 0.04626088 -0.02500141 0.01327223
v 0.05497545 -0.02122859 0.00612910
v 0.04684620 -0.02500141 0.01512777
v 0.05497545 -0.02122859 0.00612910
v 0.06092290 -0.02015267 0.00137806
v 0.06092290 -0.02015267 0.00137806
v 0.06092290 -0.01728503 0.00137806
v 0.06092290 -0.01728503 0.00137806
v 0.06049442 -0.01728503 0.00001991
v 0.06049442 -0.01728503 0.00001991
v 0.05990891 -0.01728503 -0.00183543
v 0.05990891 -0.01728503 -0.00183543
v 0.05932340 -0.01728503 -0.00369078
v 0.05932340 -0.01728503 -0.00369078
v 0.05889493 -0.01728503 -0.00504892
v 0.05337615 -0.01759546 0.00106027
v 0.05889493 -0.02015267 -0.00504892
v 0.05337615 -0.02122859 0.00106027
v 0.05932340 -0.02015267 -0.00369078
v 0.05380462 -0.02122859 0.00241841
v 0.05990891 -0.02015267 -0.00183543
v 0.05438995 -0.02122859 0.00427394
v 0.06049442 -0.02015267 0.00001991
v -0.00469021 -0.01797709 0.00750607
v -0.00079917 -0.02082214 0.01424556
v 0.00776158 -0.02082214 0.00808743
v 0.00776158 -0.02082214 0.01003296
v 0.00062505 -0.02082214 0.01282153
v 0.00776158 -0.02558221 0.01340289
v 0.00776158 -0.02558221 0.01197848
v 0.00776158 -0.02082214 0.00666340
v -0.00079917 -0.02558221 0.00750607
v 0.00062505 -0.02558221 0.00893048
v 0.00776158 -0.02558221 0.01003296
v 0.04287929 -0.02082214 0.01767573
v 0.04287929 -0.02082214 0.01236066
v 0.04287929 -0.02082214 0.01430618
v 0.04287929 -0.02082214 0.01625170
v 0.04287929 -0.02558221 0.01767573
v 0.00776158 -0.02558221 0.01197848
v 0.04287929 -0.02082214 0.01093626
v 0.00776158 -0.02558221 0.00666340
v 0.00776158 -0.02558221 0.00808743
v 0.00776158 -0.02558221 0.01003296
v 0.04287929 -0.02082214 0.01767573
v 0.04287929 -0.02082214 0.01236066
v 0.04287929 -0.02082214 0.01430618
v 0.04287929 -0.02082214 0.01625170
v 0.04287929 -0.02558221 0.01767573
v 0.04684620 -0.02500141 0.01512777
v 0.04524689 -0.02082214 0.01005856
v 0.04524689 -0.02500141 0.01005856
v 0.04567538 -0.02500141 0.01141709
v 0.04626088 -0.02500141 0.01327223
v 0.04727469 -0.02082214 0.01648590
v 0.04567538 -0.02082214 0.01141709
v 0.04626088 -0.02082214 0.01327223
v 0.04684620 -0.02082214 0.01512777
v 0.04727469 -0.02500141 0.01648590
v 0.06049442 -0.02015267 0.00001991
v 0.05889493 -0.01728503 -0.00504892
v 0.05889493 -0.02015267 -0.00504892
v 0.05932340 -0.02015267 -0.00369078
v 0.05990891 -0.02015267 -0.00183543
v -0.00515743 0.02494229 -0.00598138
v -0.00723807 0.02839618 -0.00409871
v -0.00515743 0.02839618 -0.00598138
v -0.00723807 0.02494229 -0.00409871
v -0.00809848 0.02839618 -0.00142805
v -0.00809848 0.02494229 -0.00142805
v -0.00750846 0.02839618 0.00131505
v -0.00750846 0.02494229 0.00131505
v -0.00562576 0.02839618 0.00339549
v -0.00562576 0.02494229 0.00339548
v -0.00295510 0.02839618 0.00425610
v -0.00295510 0.02494229 0.00425610
v -0.00021202 0.02839618 0.00366587
v -0.00021202 0.02494229 0.00366587
v 0.00186859 0.02839618 0.00178338
v 0.00186859 0.02494229 0.00178338
v 0.00272902 0.02839618 -0.00088728
v 0.00272902 0.02494229 -0.00088728
v 0.00213899 0.02839618 -0.00363038
v 0.00213899 0.02494229 -0.00363038
v 0.00025631 0.02839618 -0.00571100
v 0.00025631 0.02494229 -0.00571100
v -0.00241435 0.02839618 -0.00657143
v -0.00241435 0.02494229 -0.00657143
v -0.00651074 0.02927631 -0.00362902
v -0.00268474 0.02927631 -0.00115767
v -0.00476257 0.02927631 -0.00521088
v -0.00723375 0.02927631 -0.00138486
v -0.00673793 0.02927631 0.00091998
v -0.00515608 0.02927631 0.00266834
v -0.00291192 0.02927631 0.00339116
v -0.00060689 0.02927631 0.00289555
v 0.00114127 0.02927631 0.00131351
v 0.00186426 0.02927631 -0.00093047
v 0.00136847 0.02927631 -0.00323550
v -0.00021337 0.02927631 -0.00498366
v -0.00245752 0.02927631 -0.00570667
v -0.00021202 0.02030402 0.00366587
v 0.00186859 0.02118416 0.00178338
v -0.00021202 0.02118416 0.00366587
v -0.00295510 0.02030402 0.00425609
v -0.00295510 0.02118416 0.00425610
v -0.00562576 0.02030402 0.00339548
v -0.00562576 0.02118416 0.00339548
v -0.00750846 0.02030402 0.00131505
v -0.00750846 0.02118416 0.00131505
v -0.00809848 0.02030402 -0.00142805
v -0.00809848 0.02118416 -0.00142805
v -0.00723807 0.02030402 -0.00409871
v -0.00723807 0.02118416 -0.00409871
v -0.00515743 0.02030402 -0.00598138
v -0.00515743 0.02118416 -0.00598138
v -0.00241435 0.02030402 -0.00657143
v -0.00241435 0.02118416 -0.00657143
v 0.00025631 0.02030402 -0.00571100
v 0.00025631 0.02118416 -0.00571100
v 0.00213899 0.02030402 -0.00363038
v 0.00213899 0.02118416 -0.00363038
v 0.00272902 0.02030402 -0.00088728
v 0.00272902 0.02118416 -0.00088728
v 0.00186859 0.02030402 0.00178338
v 0.04203753 0.02494229 -0.00038245
v 0.04203753 0.02118416 -0.00038245
v 0.04338527 0.02494229 0.00207861
v 0.04338527 0.02118416 0.00207861
v 0.04186473 0.02494229 0.00728140
v 0.04186473 0.02118416 0.00728140
v 0.04734591 0.02302915 -0.00223304
v 0.04734591 0.02060035 -0.00223304
v 0.04807277 0.02302915 0.00300526
v 0.04332207 0.02494229 0.00488372
v 0.04807277 0.02060035 0.00300526
v 0.04332207 0.02118416 0.00488372
v 0.04709735 0.02302915 0.00542703
v 0.04709735 0.02060035 0.00542703
v 0.05450366 0.02222846 -0.00521217
v 0.04816361 0.02302915 0.00020155
v 0.05368597 0.02222846 -0.00764677
v 0.05450366 0.01979966 -0.00521217
v 0.04816361 0.02060035 0.00020155
v 0.05441280 0.02222846 -0.00240846
v 0.05441280 0.01979966 -0.00240846
v 0.05343740 0.02222846 0.00001329
v 0.05343740 0.01979966 0.00001329
v 0.05993239 0.02169925 -0.00712161
v 0.05895715 0.02169925 -0.00469983
v 0.05895715 0.01927045 -0.00469983
v 0.05993239 0.01927045 -0.00712161
v 0.05368597 0.01979966 -0.00764677
v 0.06002342 0.01927045 -0.00992532
v 0.05920553 0.02169925 -0.01235991
v 0.06002342 0.02169925 -0.00992532
v 0.05920553 0.01927045 -0.01235991
v 0.06621954 0.02401018 -0.02755108
v 0.06621954 0.02335540 -0.02068559
v 0.06621954 0.02335540 -0.02797392
v 0.06469836 0.02401018 0.00247828
v 0.06621954 0.02335540 0.00247828
v 0.06621954 0.02401018 0.00247828
v 0.05819762 0.02401018 -0.02755108
v 0.05819762 0.02335540 -0.02068559
v 0.05819762 0.02401018 -0.02068559
v 0.06621954 0.02401018 -0.02755108
v 0.06469836 0.02335540 -0.02797392
v 0.06469836 0.02401018 -0.02755108
v 0.06469836 0.02401018 -0.02068559
v 0.06621954 0.02401018 -0.02755108
v 0.06469836 0.02401018 -0.02755108
v 0.06621954 0.00004716 -0.03091384
v 0.06469836 0.01281514 -0.03091384
v 0.06621954 0.01281514 -0.03091384
v 0.05819762 0.01281514 -0.03091384
v 0.05819762 0.00004716 -0.02240369
v 0.05819762 0.01506716 -0.02068559
v 0.06469836 0.00004716 -0.02240369
v 0.06621954 0.01506716 -0.02068559
v 0.06469836 0.01506716 -0.02068559
v 0.06621954 0.00004716 -0.02240369
v 0.06621954 0.01281514 -0.03091384
v 0.06621954 0.01506716 -0.02068559
v 0.06621954 0.02401018 -0.01612186
v 0.06621954 0.02401018 -0.02068559
v 0.06621954 0.01506716 -0.01612186
v 0.06469836 0.01506716 -0.02068559
v 0.06621954 0.01506716 -0.02068559
v 0.05819762 0.02335540 -0.01612186
v 0.06469836 0.02401018 -0.01612186
v 0.06621954 0.02401018 -0.02068559
v 0.06469836 0.01907898 0.00247828
v 0.06621954 0.01560559 0.00247828
v 0.06621954 0.01907898 0.00247828
v 0.05819762 0.01560559 -0.01612186
v 0.05819762 0.01907898 -0.02068559
v 0.05819762 0.01560559 -0.02068559
v 0.05819762 0.01907898 -0.03073543
v 0.06621954 0.01365593 -0.03088991
v 0.06469836 0.01907898 -0.03073543
v 0.06621954 0.01907898 -0.03073543
v 0.06621954 0.01560559 -0.02068559
v 0.06621954 0.01907898 -0.03073543
v 0.06621954 0.01907898 -0.02068559
v 0.06621954 0.01907898 -0.01612186
v 0.06621954 0.01560559 -0.01612186
v 0.06621954 0.02401018 0.00247828
v 0.06621954 0.02335540 -0.00766936
v 0.06621954 0.02401018 -0.00766936
v 0.06469836 0.02401018 0.00247828
v 0.06621954 0.02401018 -0.00766936
v 0.06469836 0.02401018 -0.00766936
v 0.05819762 0.02335540 0.00247828
v 0.05819762 0.02401018 -0.00766936
v 0.05819762 0.02335540 -0.00766936
v 0.05819762 0.01560559 0.00247828
v 0.05819762 0.01907898 -0.00766936
v 0.05819762 0.01560559 -0.00766936
v 0.06621954 0.01506716 0.00247828
v 0.06469836 0.01506716 -0.00766936
v 0.06621954 0.01506716 -0.00766936
v 0.06621954 0.01560559 0.00247828
v 0.06621954 0.01907898 -0.00766936
v 0.06621954 0.01907898 0.00247828
v 0.06621954 0.02335540 -0.01612186
v 0.06621954 0.02401018 -0.01612186
v 0.05819762 0.02401018 -0.01612186
v 0.05819762 0.01907898 -0.01612186
v 0.06469836 0.01506716 -0.01612186
v 0.07357878 0.01659182 -0.01251680
v 0.07357878 0.01835905 -0.00406429
v 0.07357878 0.01659182 -0.00406429
v 0.07357878 0.01659182 -0.00406429
v 0.06621954 0.01907898 -0.00766936
v 0.06621954 0.01560559 -0.00766936
v 0.06621954 0.01907898 -0.00766936
v 0.07357878 0.01835905 -0.01251680
v 0.06621954 0.01907898 -0.01612186
v 0.06621954 0.01907898 -0.01612186
v 0.07357878 0.01659182 -0.01251680
v 0.06621954 0.01560559 -0.01612186
v 0.07357878 0.01631789 -0.01251680
v 0.06621954 0.01506716 -0.00766936
v 0.06621954 0.01506716 -0.01612186
v 0.05819762 0.00004716 -0.02240369
v 0.05819762 0.01506716 -0.02068559
v 0.05819762 0.01506716 -0.01612186
v 0.05819762 0.01506716 -0.00766936
v 0.05819762 0.01506716 0.00247828
v 0.06469836 0.01506716 0.00247828
v 0.05819762 0.01907898 0.00323436
v 0.06213082 0.01560559 0.00585876
v 0.06213082 0.01907898 0.00585876
v 0.05819762 0.02401018 0.00247828
v 0.06469836 0.02335540 0.00247828
v 0.05819762 0.02401018 0.00247828
v 0.05819762 0.02401018 -0.00766936
v 0.05819762 0.02401018 -0.01612186
v 0.05819762 0.02401018 -0.02068559
v 0.05819762 0.02401018 -0.02755108
v 0.05819762 0.02335540 -0.02797392
v 0.05819762 0.02401018 -0.02755108
v 0.05819762 0.01365593 -0.03088991
v 0.06469836 0.01365593 -0.03088991
v 0.05819762 0.00004716 -0.03091384
v 0.06469836 0.00004716 -0.03091384
v 0.06213082 0.02335540 0.00585876
v 0.05819762 0.02335540 0.00323436
v 0.05819762 0.01907898 0.00247828
v 0.05819762 0.02335540 -0.02797392
v 0.05819762 0.02335540 -0.02797392
v 0.06621954 0.02335540 -0.02797392
v 0.06621954 0.02335540 0.00247828
v 0.06469836 0.01560559 0.00247828
v 0.06621954 0.01506716 0.00247828
v 0.05819762 0.01506716 0.00247828
v 0.05819762 0.01560559 0.00247828
v 0.05819762 0.01506716 0.00247828
v 0.05819762 0.01506716 -0.00766936
v 0.05819762 0.01506716 -0.01612186
v 0.05819762 0.01365593 -0.03088991
v 0.05819762 0.01281514 -0.03091384
v 0.06469836 0.01281514 -0.03091384
v 0.06621954 0.01281514 -0.03091384
v 0.06621954 0.01365593 -0.03088991
v 0.06621954 0.01365593 -0.03088991
v 0.06621954 0.01506716 -0.01612186
v 0.07357878 0.01631789 -0.01251680
v 0.07357878 0.01631789 -0.01251680
v 0.07357878 0.01631789 -0.00406429
v 0.07357878 0.01631789 -0.00406429
v 0.06621954 0.01506716 -0.00766936
v 0.06621954 0.01506716 0.00247828
v 0.06621954 0.01560559 -0.00766936
v 0.06213082 0.01907898 0.00585876
v 0.06469836 0.01560559 0.00247828
v 0.06469836 0.01907898 0.00247828
v 0.06213082 0.01560559 0.00585876
v 0.05819762 0.01560559 0.00247828
v 0.06469836 0.01560559 0.00247828
v 0.05819762 0.01560559 0.00323436
v 0.05819762 0.02335540 0.00247828
v 0.06213082 0.02335540 0.00585876
v 0.06469836 0.02335540 0.00247828
v 0.06213082 0.02335540 0.00585876
v 0.06469836 0.02335540 0.00247828
v 0.05819762 0.01907898 0.00323436
v 0.06621954 -0.02391587 -0.02755108
v 0.06621954 -0.02326109 -0.02068559
v 0.06621954 -0.02391587 -0.02068559
v 0.06621954 -0.02326109 0.00247828
v 0.06469836 -0.02391587 0.00247828
v 0.06621954 -0.02391587 0.00247828
v 0.05819762 -0.02326109 -0.02068559
v 0.05819762 -0.02391587 -0.02755108
v 0.05819762 -0.02391587 -0.02068559
v 0.06469836 -0.02326109 -0.02797392
v 0.06621954 -0.02391587 -0.02755108
v 0.06469836 -0.02391587 -0.02755108
v 0.06621954 -0.02391587 -0.02755108
v 0.06469836 -0.02391587 -0.02068559
v 0.06469836 -0.02391587 -0.02755108
v 0.06469836 -0.01272093 -0.03091384
v 0.06621954 -0.01272093 -0.03091384
v 0.05819762 -0.01272093 -0.03091384
v 0.05819762 0.00004716 -0.03091384
v 0.06621954 -0.01497285 -0.02068559
v 0.06469836 0.00004716 -0.02240369
v 0.06469836 -0.01497285 -0.02068559
v 0.06621954 -0.01272093 -0.03091384
v 0.06621954 -0.01497285 -0.02068559
v 0.06621954 -0.02391587 -0.01612186
v 0.06469836 -0.01497285 -0.02068559
v 0.06621954 -0.01497285 -0.01612186
v 0.06621954 -0.01497285 -0.02068559
v 0.05819762 -0.02326109 -0.01612186
v 0.06621954 -0.02391587 -0.02068559
v 0.06469836 -0.02391587 -0.01612186
v 0.06621954 -0.01551128 0.00247828
v 0.06469836 -0.01898467 0.00247828
v 0.06621954 -0.01898467 0.00247828
v 0.05819762 -0.01898467 -0.02068559
v 0.05819762 -0.01551128 -0.01612186
v 0.05819762 -0.01551128 -0.02068559
v 0.05819762 -0.01898467 -0.03073544
v 0.05819762 -0.01356162 -0.03088991
v 0.06469836 -0.01898467 -0.03073544
v 0.06621954 -0.01356162 -0.03088991
v 0.06621954 -0.01898467 -0.03073544
v 0.06621954 -0.01898467 -0.03073544
v 0.06621954 -0.01551128 -0.02068559
v 0.06621954 -0.01898467 -0.02068559
v 0.06621954 -0.01898467 -0.01612186
v 0.06621954 -0.01551128 -0.01612186
v 0.06621954 -0.02326109 -0.00766936
v 0.06621954 -0.02391587 0.00247828
v 0.06621954 -0.02391587 -0.00766936
v 0.06621954 -0.02391587 -0.00766936
v 0.06469836 -0.02391587 0.00247828
v 0.06469836 -0.02391587 -0.00766936
v 0.05819762 -0.02391587 -0.00766936
v 0.05819762 -0.02326109 0.00247828
v 0.05819762 -0.02326109 -0.00766936
v 0.05819762 -0.01898467 -0.00766936
v 0.05819762 -0.01551128 0.00247828
v 0.05819762 -0.01551128 -0.00766936
v 0.06469836 -0.01497285 -0.00766936
v 0.06621954 -0.01497285 0.00247828
v 0.06621954 -0.01497285 -0.00766936
v 0.06621954 -0.01898467 -0.00766936
v 0.06621954 -0.01551128 0.00247828
v 0.06621954 -0.01898467 0.00247828
v 0.06621954 -0.02326109 -0.01612186
v 0.06621954 -0.02391587 -0.01612186
v 0.05819762 -0.02391587 -0.01612186
v 0.05819762 -0.01898467 -0.01612186
v 0.06469836 -0.01497285 -0.01612186
v 0.07357878 -0.01826474 -0.00406429
v 0.07357878 -0.01649751 -0.01251680
v 0.07357878 -0.01649751 -0.00406429
v 0.06621954 -0.01898467 -0.00766936
v 0.07357878 -0.01649751 -0.00406429
v 0.06621954 -0.01551128 -0.00766936
v 0.06621954 -0.01898467 -0.00766936
v 0.07357878 -0.01826474 -0.01251680
v 0.07357878 -0.01826474 -0.00406429
v 0.06621954 -0.01898467 -0.01612186
v 0.07357878 -0.01649751 -0.01251680
v 0.07357878 -0.01826474 -0.01251680
v 0.06621954 -0.01497285 -0.00766936
v 0.07357878 -0.01622358 -0.01251680
v 0.06621954 -0.01497285 -0.01612186
v 0.05819762 0.00004716 -0.02240369
v 0.05819762 -0.01497285 -0.02068559
v 0.05819762 -0.01497285 -0.01612186
v 0.05819762 -0.01497285 -0.00766936
v 0.05819762 -0.01497285 0.00247828
v 0.06469836 -0.01497285 0.00247828
v 0.06213082 -0.01551128 0.00585876
v 0.05819762 -0.01898467 0.00323436
v 0.06213082 -0.01898467 0.00585876
v 0.06469836 -0.02326109 0.00247828
v 0.05819762 -0.02391587 0.00247828
v 0.05819762 -0.02391587 0.00247828
v 0.05819762 -0.02391587 -0.00766936
v 0.05819762 -0.02391587 -0.01612186
v 0.05819762 -0.02391587 -0.02068559
v 0.05819762 -0.02391587 -0.02755108
v 0.05819762 -0.02326109 -0.02797392
v 0.05819762 -0.02391587 -0.02755108
v 0.05819762 -0.01356162 -0.03088991
v 0.06469836 -0.01356162 -0.03088991
v 0.06213082 -0.02326109 0.00585876
v 0.05819762 -0.02326109 0.00323436
v 0.05819762 -0.01898467 0.00247828
v 0.05819762 -0.02326109 -0.02797392
v 0.05819762 -0.02326109 -0.02797392
v 0.06621954 -0.02326109 -0.02797392
v 0.06621954 -0.02326109 -0.02797392
v 0.06621954 -0.02326109 0.00247828
v 0.06621954 -0.01497285 0.00247828
v 0.06469836 -0.01551128 0.00247828
v 0.05819762 -0.01497285 0.00247828
v 0.05819762 -0.01551128 0.00247828
v 0.05819762 -0.01497285 0.00247828
v 0.05819762 -0.01497285 -0.00766936
v 0.05819762 -0.01497285 -0.01612186
v 0.05819762 -0.01497285 -0.02068559
v 0.05819762 -0.01272093 -0.03091384
v 0.06469836 -0.01272093 -0.03091384
v 0.06621954 -0.01272093 -0.03091384
v 0.06621954 -0.01356162 -0.03088991
v 0.06621954 -0.01356162 -0.03088991
v 0.06621954 -0.01497285 -0.01612186
v 0.06621954 -0.01551128 -0.01612186
v 0.07357878 -0.01622358 -0.01251680
v 0.07357878 -0.01622358 -0.01251680
v 0.07357878 -0.01622358 -0.00406429
v 0.07357878 -0.01622358 -0.00406429
v 0.06621954 -0.01497285 -0.00766936
v 0.06621954 -0.01551128 -0.00766936
v 0.06621954 -0.01497285 0.00247828
v 0.06469836 -0.01551128 0.00247828
v 0.06213082 -0.01898467 0.00585876
v 0.06469836 -0.01898467 0.00247828
v 0.05819762 -0.01551128 0.00247828
v 0.06213082 -0.01551128 0.00585876
v 0.06469836 -0.01551128 0.00247828
v 0.05819762 -0.01551128 0.00323436
v 0.05819762 -0.02326109 0.00247828
v 0.06213082 -0.02326109 0.00585876
v 0.05819762 -0.02326109 0.00323436
v 0.06213082 -0.02326109 0.00585876
v 0.06469836 -0.02326109 0.00247828
v 0.05819762 -0.01898467 0.00323436
v 0.06621954 0.02335540 -0.02797392
v 0.06621954 0.00004716 -0.02240369
v 0.06621954 0.00004716 -0.03091384
v 0.06621954 0.02401018 0.00247828
v 0.05819762 0.02401018 0.00247828
v 0.07357878 0.01835905 -0.01251680
v 0.07357878 0.01835905 -0.00406429
v 0.07357878 0.01835905 -0.00406429
v 0.07357878 0.01835905 -0.01251680
v 0.07357878 0.01631789 -0.00406429
v 0.05819762 0.01506716 -0.02068559
v 0.05819762 0.01560559 0.00323436
v 0.05819762 0.02335540 0.00247828
v 0.05819762 0.01907898 -0.03073543
v 0.05819762 0.01281514 -0.03091384
v 0.06469836 0.01506716 0.00247828
v 0.05819762 0.01365593 -0.03088991
v 0.06621954 0.01506716 -0.01612186
v 0.06621954 0.01506716 -0.00766936
v 0.06213082 0.01560559 0.00585876
v 0.05819762 0.01560559 0.00323436
v 0.05819762 0.02335540 0.00323436
v 0.05819762 0.02335540 0.00323436
v 0.06621954 -0.02326109 -0.02797392
v 0.06621954 0.00004716 -0.02240369
v 0.06621954 -0.02391587 0.00247828
v 0.05819762 -0.02391587 0.00247828
v 0.07357878 -0.01826474 -0.01251680
v 0.07357878 -0.01826474 -0.00406429
v 0.06621954 -0.01898467 -0.01612186
v 0.07357878 -0.01622358 -0.00406429
v 0.05819762 -0.01497285 -0.02068559
v 0.05819762 -0.01551128 0.00323436
v 0.05819762 -0.02326109 0.00247828
v 0.05819762 -0.01898467 -0.03073544
v 0.05819762 -0.01272093 -0.03091384
v 0.06469836 -0.01497285 0.00247828
v 0.05819762 -0.01356162 -0.03088991
v 0.06621954 -0.01497285 -0.01612186
v 0.06621954 -0.01497285 -0.00766936
v 0.06213082 -0.01551128 0.00585876
v 0.05819762 -0.01551128 0.00323436
v 0.06469836 -0.02326109 0.00247828
v 0.05819762 -0.02326109 0.00323436
v -0.00445973 0.02567651 0.00741190
v -0.00595322 0.02744883 0.00876349
v -0.00445973 0.02744883 0.00741190
v -0.00595322 0.02567651 0.00876349
v -0.00657095 0.02744883 0.01068060
v -0.00657095 0.02567651 0.01068060
v -0.00614732 0.02744883 0.01264970
v -0.00614732 0.02567651 0.01264970
v -0.00479592 0.02744883 0.01414301
v -0.00479592 0.02567651 0.01414301
v -0.00287882 0.02744883 0.01476089
v -0.00287882 0.02567651 0.01476089
v -0.00090971 0.02744883 0.01433709
v -0.00090971 0.02567651 0.01433709
v 0.00058378 0.02744883 0.01298588
v 0.00058378 0.02567651 0.01298588
v 0.00120147 0.02744883 0.01106879
v 0.00120147 0.02567651 0.01106879
v 0.00077786 0.02744883 0.00909967
v 0.00077786 0.02567651 0.00909967
v -0.00057353 0.02744883 0.00760599
v -0.00057353 0.02567651 0.00760599
v -0.00249064 0.02744883 0.00698848
v -0.00249064 0.02567651 0.00698848
v -0.00543114 0.02808064 0.00910059
v -0.00268474 0.02808064 0.01087469
v -0.00417615 0.02808064 0.00796517
v -0.00595007 0.02808064 0.01071161
v -0.00559424 0.02808064 0.01236592
v -0.00445862 0.02808064 0.01362111
v -0.00284782 0.02808064 0.01414001
v -0.00119332 0.02808064 0.01378420
v 0.00006171 0.02808064 0.01264840
v 0.00058060 0.02808064 0.01103778
v 0.00022479 0.02808064 0.00938307
v -0.00091083 0.02808064 0.00812826
v -0.00252163 0.02808064 0.00760898
v -0.00090971 0.01807139 0.01433709
v 0.00058378 0.02091645 0.01298588
v -0.00090971 0.02091645 0.01433709
v -0.00287882 0.01807139 0.01476089
v -0.00287882 0.02091645 0.01476089
v -0.00479592 0.01807139 0.01414301
v -0.00479592 0.02091645 0.01414301
v -0.00614732 0.01807139 0.01264970
v -0.00614732 0.02091645 0.01264970
v -0.00657095 0.01807139 0.01068060
v -0.00657095 0.02091645 0.01068060
v -0.00595322 0.01807139 0.00876349
v -0.00595322 0.02091645 0.00876349
v -0.00445973 0.01807139 0.00741190
v -0.00445973 0.02091645 0.00741190
v -0.00249064 0.01807139 0.00698848
v -0.00249064 0.02091645 0.00698848
v -0.00057353 0.01807139 0.00760599
v -0.00057353 0.02091645 0.00760599
v 0.00077786 0.01807139 0.00909967
v 0.00077786 0.02091645 0.00909967
v 0.00120147 0.01807139 0.01106879
v 0.00120147 0.02091645 0.01106879
v 0.00058378 0.01807139 0.01298588
v 0.00768242 0.02091645 0.01392250
v 0.00801859 0.02091645 0.00719140
v 0.00794756 0.02091645 0.00861366
v 0.00775347 0.02091645 0.01249987
v 0.00768242 0.02567651 0.01392250
v 0.00801859 0.02567651 0.00719140
v 0.00794756 0.02567651 0.00861366
v 0.00775347 0.02567651 0.01249987
v 0.04261428 0.02091645 0.01851951
v 0.04287943 0.02091645 0.01321068
v 0.04280839 0.02091645 0.01463331
v 0.00785052 0.02091645 0.01055676
v 0.04271133 0.02091645 0.01657641
v 0.04254325 0.02091645 0.01994177
v 0.04261428 0.02567651 0.01851951
v 0.04287943 0.02567651 0.01321068
v 0.00785052 0.02567651 0.01055676
v 0.04280839 0.02567651 0.01463331
v 0.04271133 0.02567651 0.01657641
v 0.04699255 0.02091645 0.01897268
v 0.04564807 0.02091645 0.01383038
v 0.04614030 0.02091645 0.01571244
v 0.04663231 0.02091645 0.01759486
v 0.04699255 0.02509572 0.01897268
v 0.04254325 0.02567651 0.01994177
v 0.04528789 0.02509572 0.01245219
v 0.04564807 0.02509572 0.01383038
v 0.04614030 0.02509572 0.01571244
v 0.04663231 0.02509572 0.01759486
v 0.05556036 0.01768978 0.01039072
v 0.04528789 0.02091645 0.01245219
v 0.05421608 0.01768978 0.00524843
v 0.05470810 0.01768978 0.00713085
v 0.05520033 0.01768978 0.00901290
v 0.05556036 0.02132290 0.01039072
v 0.05385586 0.02132290 0.00387060
v 0.05421608 0.02132290 0.00524843
v 0.05470810 0.02132290 0.00713085
v 0.05520033 0.02132290 0.00901290
v 0.06137737 0.02024698 0.00456445
v 0.06137737 0.01737933 0.00456445
v 0.06101718 0.01737933 0.00318662
v 0.06052495 0.01737933 0.00130438
v 0.05385586 0.01768978 0.00387060
v 0.06003274 0.01737933 -0.00057786
v 0.05967250 0.02024698 -0.00195568
v 0.06003274 0.02024698 -0.00057786
v 0.06052495 0.02024698 0.00130438
v 0.06101718 0.02024698 0.00318662
v 0.05967250 0.01737933 -0.00195568
v -0.00743907 -0.02830187 -0.00386661
v -0.00545496 -0.02484797 -0.00585073
v -0.00545496 -0.02830187 -0.00585073
v -0.00816520 -0.02830187 -0.00115634
v -0.00743907 -0.02484797 -0.00386660
v -0.00743907 -0.02830187 0.00155391
v -0.00816520 -0.02484797 -0.00115634
v -0.00545496 -0.02830187 0.00353783
v -0.00743907 -0.02484797 0.00155391
v -0.00274470 -0.02830187 0.00426416
v -0.00545496 -0.02484797 0.00353783
v -0.00003445 -0.02830187 0.00353783
v -0.00274470 -0.02484797 0.00426416
v 0.00194968 -0.02830187 0.00155391
v -0.00003445 -0.02484797 0.00353783
v 0.00267580 -0.02830187 -0.00115634
v 0.00194968 -0.02484797 0.00155391
v 0.00194968 -0.02830187 -0.00386661
v 0.00267580 -0.02484797 -0.00115634
v -0.00003445 -0.02830187 -0.00585073
v 0.00194968 -0.02484797 -0.00386660
v -0.00274470 -0.02830187 -0.00657686
v -0.00003445 -0.02484797 -0.00585073
v -0.00274470 -0.02484797 -0.00657686
v -0.00668922 -0.02918199 -0.00343378
v -0.00502214 -0.02918199 -0.00510087
v -0.00274470 -0.02918199 -0.00115634
v -0.00729936 -0.02918199 -0.00115634
v -0.00668922 -0.02918199 0.00112090
v -0.00502214 -0.02918199 0.00278817
v -0.00274470 -0.02918199 0.00339814
v -0.00046726 -0.02918199 0.00278817
v 0.00119982 -0.02918199 0.00112090
v 0.00180997 -0.02918199 -0.00115634
v 0.00119982 -0.02918199 -0.00343378
v -0.00046726 -0.02918199 -0.00510087
v -0.00274470 -0.02918199 -0.00571103
v 0.00194968 -0.02108983 0.00155391
v -0.00003445 -0.02020970 0.00353783
v -0.00003445 -0.02108983 0.00353783
v -0.00274470 -0.02020970 0.00426416
v -0.00274470 -0.02108983 0.00426416
v -0.00545496 -0.02020970 0.00353783
v -0.00545496 -0.02108983 0.00353783
v -0.00743907 -0.02020970 0.00155391
v -0.00743907 -0.02108983 0.00155391
v -0.00816520 -0.02020970 -0.00115634
v -0.00816520 -0.02108983 -0.00115634
v -0.00743907 -0.02020970 -0.00386660
v -0.00743907 -0.02108983 -0.00386660
v -0.00545496 -0.02020970 -0.00585073
v -0.00545496 -0.02108983 -0.00585073
v -0.00274470 -0.02020970 -0.00657686
v -0.00274470 -0.02108983 -0.00657686
v -0.00003445 -0.02020970 -0.00585073
v -0.00003445 -0.02108983 -0.00585073
v 0.00194968 -0.02020970 -0.00386660
v 0.00194968 -0.02108983 -0.00386660
v 0.00267580 -0.02020970 -0.00115634
v 0.00267580 -0.02108983 -0.00115634
v 0.00194968 -0.02020970 0.00155391
v 0.04196055 -0.02484797 -0.00261295
v 0.04342938 -0.02484797 -0.00022218
v 0.04196055 -0.02108983 -0.00261295
v 0.04350619 -0.02484797 0.00258259
v 0.04342938 -0.02108983 -0.00022218
v 0.04217027 -0.02484797 0.00504998
v 0.04217027 -0.02108983 0.00504998
v 0.04350619 -0.02108983 0.00258259
v 0.04717001 -0.02293482 -0.00472604
v 0.04810813 -0.02293482 -0.00233526
v 0.04717001 -0.02050603 -0.00472604
v 0.04815725 -0.02293482 0.00046951
v 0.04815725 -0.02050603 0.00046951
v 0.04810813 -0.02050603 -0.00233526
v 0.04730386 -0.02293482 0.00293690
v 0.04730386 -0.02050603 0.00293690
v 0.05417024 -0.02213414 -0.00805850
v 0.05323210 -0.02213414 -0.01044928
v 0.05417024 -0.01970534 -0.00805850
v 0.05323210 -0.01970534 -0.01044928
v 0.05421937 -0.02213414 -0.00525373
v 0.05421937 -0.01970534 -0.00525373
v 0.05336597 -0.02213414 -0.00278634
v 0.05336597 -0.01970534 -0.00278634
v 0.05949698 -0.02160493 -0.01023634
v 0.05864378 -0.02160493 -0.00776895
v 0.05864378 -0.01917612 -0.00776895
v 0.05949698 -0.01917612 -0.01023634
v 0.05944804 -0.01917612 -0.01304112
v 0.05850973 -0.01917612 -0.01543188
v 0.05850973 -0.02160493 -0.01543188
v 0.05944804 -0.02160493 -0.01304112
vt 0.39583299 0.31250000
vt 0.37500000 0.43031001
vt 0.37500000 0.31250000
vt 0.41666701 0.31250000
vt 0.39583299 0.43031001
vt 0.43750000 0.31250000
vt 0.41666701 0.43031001
vt 0.45833299 0.31250000
vt 0.43750000 0.43031001
vt 0.47916701 0.31250000
vt 0.45833299 0.43031001
vt 0.50000000 0.31250000
vt 0.47916701 0.43031001
vt 0.52083302 0.31250000
vt 0.50000000 0.43031001
vt 0.54166698 0.31250000
vt 0.52083302 0.43031001
vt 0.56250000 0.31250000
vt 0.54166698 0.43031001
vt 0.58333302 0.31250000
vt 0.56250000 0.43031001
vt 0.60416698 0.31250000
vt 0.58333302 0.43031001
vt 0.62500000 0.31250000
vt 0.60416698 0.43031001
vt 0.57812500 0.02093398
vt 0.63531601 0.07812500
vt 0.50000000 0.15000001
vt 0.50000000 0.00000000
vt 0.42187500 0.02093398
vt 0.36468399 0.07812500
vt 0.34375000 0.15625000
vt 0.36468399 0.23437500
vt 0.42187500 0.29156601
vt 0.50000000 0.31250000
vt 0.57812500 0.29156601
vt 0.63531601 0.23437500
vt 0.65625000 0.15625000
vt 0.63531601 0.07812500
vt 0.57812500 0.02093398
vt 0.50000000 0.00000000
vt 0.42187500 0.02093398
vt 0.36468399 0.07812500
vt 0.34375000 0.15625000
vt 0.36468399 0.23437500
vt 0.42187500 0.29156601
vt 0.50000000 0.31250000
vt 0.57812500 0.29156601
vt 0.63531601 0.23437500
vt 0.65625000 0.15625000
vt 0.52083302 0.55849802
vt 0.50000000 0.68844002
vt 0.50000000 0.55849802
vt 0.47916701 0.68844002
vt 0.47916701 0.55849802
vt 0.45833299 0.68844002
vt 0.45833299 0.55849802
vt 0.43750000 0.68844002
vt 0.43750000 0.55849802
vt 0.41666701 0.68844002
vt 0.41666701 0.55849802
vt 0.39583299 0.68844002
vt 0.39583299 0.55849802
vt 0.37500000 0.68844002
vt 0.37500000 0.55849802
vt 0.62500000 0.55849802
vt 0.60416698 0.68844002
vt 0.60416698 0.55849802
vt 0.58333302 0.68844002
vt 0.58333302 0.55849802
vt 0.56250000 0.68844002
vt 0.56250000 0.55849802
vt 0.54166698 0.68844002
vt 0.54166698 0.55849802
vt 0.52083302 0.68844002
vt 0.62500000 0.43031001
vt 0.00000000 0.00000000
vt 1.00000000 1.00000000
vt 0.00000000 1.00000000
vt 1.00000000 0.00000000
vt 0.00000000 1.00000000
vt 0.00000000 0.00000000
vt 1.00000000 0.00000000
vt 0.00000000 1.00000000
vt 0.00000000 0.00000000
vt 0.00000000 0.00000000
vt 1.00000000 1.00000000
vt 0.00000000 1.00000000
vt 1.00000000 0.00000000
vt 0.00000000 1.00000000
vt 0.00000000 0.00000000
vt 1.00000000 0.00000000
vt 0.00000000 1.00000000
vt 0.00000000 0.00000000
vt 1.00000000 0.00000000
vt 0.00000000 1.00000000
vt 0.00000000 0.00000000
vt 0.00000000 0.00000000
vt 1.00000000 1.00000000
vt 0.00000000 1.00000000
vt 0.00000000 0.00000000
vt 1.00000000 1.00000000
vt 0.00000000 1.00000000
vt 1.00000000 0.00000000
vt 0.00000000 1.00000000
vt 0.00000000 0.00000000
vt 1.00000000 0.00000000
vt 0.00000000 1.00000000
vt 0.00000000 0.00000000
vt 1.00000000 0.00000000
vt 0.00000000 1.00000000
vt 0.00000000 0.00000000
vt 1.00000000 0.00000000
vt 0.00000000 1.00000000
vt 0.00000000 0.00000000
vt 1.00000000 0.00000000
vt 0.00000000 1.00000000
vt 0.00000000 0.00000000
vt 1.00000000 0.00000000
vt 0.00000000 1.00000000
vt 0.00000000 0.00000000
vt 0.00000000 0.00000000
vt 1.00000000 1.00000000
vt 0.00000000 1.00000000
vt 1.00000000 0.00000000
vt 0.00000000 1.00000000
vt 0.00000000 0.00000000
vt 0.00000000 0.00000000
vt 1.00000000 1.00000000
vt 0.00000000 1.00000000
vt 0.00000000 0.00000000
vt 1.00000000 1.00000000
vt 0.00000000 1.00000000
vt 0.00000000 0.00000000
vt 1.00000000 1.00000000
vt 0.00000000 1.00000000
vt 0.00000000 0.00000000
vt 1.00000000 1.00000000
vt 0.00000000 1.00000000
vt 0.00000000 0.00000000
vt 1.00000000 1.00000000
vt 0.00000000 1.00000000
vt 0.00000000 0.00000000
vt 1.00000000 1.00000000
vt 0.00000000 1.00000000
vt 0.00000000 0.00000000
vt 1.00000000 1.00000000
vt 0.00000000 1.00000000
vt 0.00000000 0.00000000
vt 1.00000000 1.00000000
vt 0.00000000 1.00000000
vt 1.00000000 0.00000000
vt 0.00000000 1.00000000
vt 0.00000000 0.00000000
vt 1.00000000 0.00000000
vt 0.00000000 1.00000000
vt 0.00000000 0.00000000
vt 1.00000000 0.00000000
vt 0.00000000 1.00000000
vt 0.00000000 0.00000000
vt 1.00000000 0.00000000
vt 0.00000000 1.00000000
vt 0.00000000 0.00000000
vt 1.00000000 0.00000000
vt 0.00000000 1.00000000
vt 0.00000000 0.00000000
vt 0.00000000 0.00000000
vt 1.00000000 0.59562498
vt 0.00000000 0.59562498
vt 0.00000000 0.00000000
vt 1.00000000 0.59562498
vt 0.00000000 0.59562498
vt 0.00000000 0.00000000
vt 1.00000000 0.59562498
vt 0.00000000 0.59562498
vt 0.00000000 0.00000000
vt 1.00000000 0.59562498
vt 0.00000000 0.59562498
vt 0.00000000 0.00000000
vt 1.00000000 0.59562498
vt 0.00000000 0.59562498
vt 1.00000000 0.00000000
vt 0.00000000 0.59562498
vt 0.00000000 0.00000000
vt 1.00000000 0.00000000
vt 0.00000000 0.59562498
vt 0.00000000 0.00000000
vt 1.00000000 0.00000000
vt 0.00000000 0.59562498
vt 0.00000000 0.00000000
vt 1.00000000 0.00000000
vt 0.00000000 0.59562498
vt 0.00000000 0.00000000
vt 1.00000000 0.00000000
vt 0.00000000 0.59562498
vt 0.00000000 0.00000000
vt 1.00000000 0.59562498
vt 0.00000000 1.00000000
vt 1.00000000 1.00000000
vt 0.00000000 1.00000000
vt 1.00000000 1.00000000
vt 0.00000000 1.00000000
vt 1.00000000 1.00000000
vt 0.00000000 1.00000000
vt 1.00000000 1.00000000
vt 0.00000000 1.00000000
vt 1.00000000 1.00000000
vt 0.00000000 1.00000000
vt 1.00000000 0.59562498
vt 0.00000000 1.00000000
vt 1.00000000 0.59562498
vt 0.00000000 1.00000000
vt 1.00000000 0.59562498
vt 0.00000000 1.00000000
vt 1.00000000 0.59562498
vt 0.00000000 1.00000000
vt 0.62500000 0.68844002
vt 1.00000000 0.00000000
vt 1.00000000 1.00000000
vt 1.00000000 1.00000000
vt 1.00000000 0.00000000
vt 1.00000000 1.00000000
vt 1.00000000 1.00000000
vt 1.00000000 1.00000000
vt 1.00000000 0.00000000
vt 1.00000000 0.00000000
vt 1.00000000 1.00000000
vt 1.00000000 1.00000000
vt 1.00000000 1.00000000
vt 1.00000000 1.00000000
vt 1.00000000 1.00000000
vt 1.00000000 1.00000000
vt 1.00000000 0.00000000
vt 1.00000000 1.00000000
vt 1.00000000 0.00000000
vt 1.00000000 0.00000000
vt 1.00000000 0.00000000
vt 1.00000000 0.00000000
vt 1.00000000 0.00000000
vt 1.00000000 0.00000000
vt 1.00000000 0.00000000
vt 1.00000000 0.00000000
vt 1.00000000 1.00000000
vt 1.00000000 1.00000000
vt 1.00000000 1.00000000
vt 1.00000000 1.00000000
vt 1.00000000 1.00000000
vt 1.00000000 0.00000000
vt 1.00000000 0.00000000
vt 1.00000000 0.00000000
vt 1.00000000 0.00000000
vt 1.00000000 0.00000000
vt 1.00000000 1.00000000
vt 1.00000000 1.00000000
vt 1.00000000 1.00000000
vt 1.00000000 1.00000000
vt 1.00000000 1.00000000
vt 0.00000000 0.00000000
vt 0.00000000 0.00000000
vt 0.00000000 0.00000000
vt 0.00000000 0.00000000
vt 0.00000000 0.00000000
vt 0.00000000 0.00000000
vt 0.00000000 0.00000000
vt 0.00000000 0.00000000
vt 0.00000000 0.00000000
vt 0.00000000 0.00000000
vt 0.00000000 0.00000000
vt 0.00000000 0.00000000
vt 0.00000000 0.00000000
vt 0.00000000 0.00000000
vt 0.00000000 0.00000000
vt 0.00000000 0.00000000
vt 0.00000000 0.00000000
vt 0.00000000 0.00000000
vt 0.00000000 0.00000000
vt 0.00000000 0.00000000
vt 0.00000000 0.00000000
vt 0.00000000 0.00000000
vt 0.00000000 0.00000000
vt 0.00000000 0.00000000
vt 0.00000000 0.00000000
vt 0.00000000 0.00000000
vt 0.00000000 0.00000000
vt 0.00000000 0.00000000
vt 0.00000000 0.00000000
vt 0.00000000 0.00000000
vt 0.00000000 0.00000000
vt 0.00000000 0.00000000
vt 0.00000000 0.00000000
vt 0.00000000 0.00000000
vt 0.00000000 0.00000000
vt 0.00000000 0.00000000
vt 0.00000000 0.00000000
vt 0.00000000 0.00000000
vt 0.00000000 0.00000000
vt 0.00000000 0.00000000
vt 0.00000000 0.00000000
vt 0.00000000 0.00000000
vt 0.00000000 0.00000000
vt 0.00000000 0.00000000
vt 0.00000000 0.00000000
vt 0.00000000 0.00000000
vt 0.00000000 0.00000000
vt 0.00000000 0.00000000
vt 0.00000000 0.00000000
vt 0.00000000 0.00000000
vt 0.00000000 0.00000000
vt 0.00000000 0.00000000
vt 0.00000000 0.00000000
vt 0.00000000 0.00000000
vt 0.00000000 0.00000000
vt 0.00000000 0.00000000
vt 0.00000000 0.00000000
vt 0.00000000 0.00000000
vt 0.00000000 0.00000000
vt 0.00000000 0.00000000
vt 0.00000000 0.00000000
vt 0.00000000 0.00000000
vt 0.00000000 0.00000000
vt 0.00000000 0.00000000
vt 0.00000000 0.00000000
vt 0.00000000 0.00000000
vt 0.00000000 0.00000000
vt 0.00000000 0.00000000
vt 0.00000000 0.00000000
vt 0.00000000 0.00000000
vt 0.00000000 0.00000000
vt 0.00000000 0.00000000
vt 0.00000000 0.00000000
vt 0.00000000 0.00000000
vt 0.00000000 0.00000000
vt 0.00000000 0.00000000
vt 0.00000000 0.00000000
vt 0.00000000 0.00000000
vt 0.00000000 0.00000000
vt 0.00000000 0.00000000
vt 0.00000000 0.00000000
vt 0.00000000 0.00000000
vt 0.00000000 0.00000000
vt 0.00000000 0.00000000
vt 0.00000000 0.00000000
vt 0.00000000 0.00000000
vt 0.00000000 0.00000000
vt 0.00000000 0.00000000
vt 0.00000000 0.00000000
vt 0.00000000 0.00000000
vt 0.00000000 0.00000000
vt 0.00000000 0.00000000
vt 0.00000000 0.00000000
vt 0.00000000 0.00000000
vt 0.00000000 0.00000000
vt 0.00000000 0.00000000
vt 0.00000000 0.00000000
vt 0.00000000 0.00000000
vt 0.00000000 0.00000000
vt 0.00000000 0.00000000
vt 0.00000000 0.00000000
vt 0.00000000 0.00000000
vt 0.00000000 0.00000000
vt 0.00000000 0.00000000
vt 0.00000000 0.00000000
vt 0.00000000 0.00000000
vt 0.00000000 0.00000000
vt 0.00000000 0.00000000
vt 0.00000000 0.00000000
vt 0.00000000 0.00000000
vt 0.00000000 0.00000000
vt 0.00000000 0.00000000
vt 0.00000000 0.00000000
vt 0.00000000 0.00000000
vt 0.00000000 0.00000000
vt 0.00000000 0.00000000
vt 0.00000000 0.00000000
vt 0.00000000 0.00000000
vt 0.00000000 0.00000000
vt 0.00000000 0.00000000
vt 0.00000000 0.00000000
vt 0.00000000 0.00000000
vt 0.00000000 0.00000000
vt 0.00000000 0.00000000
vt 0.00000000 0.00000000
vt 0.00000000 0.00000000
vt 0.00000000 0.00000000
vt 0.00000000 0.00000000
vt 0.00000000 0.00000000
vt 0.00000000 0.00000000
vt 0.00000000 0.00000000
vt 0.00000000 0.00000000
vt 0.00000000 0.00000000
vt 0.00000000 0.00000000
vt 0.00000000 0.00000000
vt 0.00000000 0.00000000
vt 0.00000000 0.00000000
vt 0.00000000 0.00000000
vt 0.00000000 0.00000000
vt 0.00000000 0.00000000
vt 0.00000000 0.00000000
vt 0.00000000 0.00000000
vt 0.00000000 0.00000000
vt 0.00000000 0.00000000
vt 0.00000000 0.00000000
vt 0.00000000 0.00000000
vt 0.00000000 0.00000000
vt 0.00000000 0.00000000
vt 0.00000000 0.00000000
vt 0.00000000 0.00000000
vt 0.00000000 0.00000000
vt 0.00000000 0.00000000
vt 0.00000000 0.00000000
vt 0.00000000 0.00000000
vt 0.00000000 0.00000000
vt 0.00000000 0.00000000
vt 0.00000000 0.00000000
vt 0.00000000 0.00000000
vt 0.00000000 0.00000000
vt 0.00000000 0.00000000
vt 0.00000000 0.00000000
vt 0.00000000 0.00000000
vt 0.00000000 0.00000000
vt 0.00000000 0.00000000
vt 0.00000000 0.00000000
vt 0.00000000 0.00000000
vt 0.00000000 0.00000000
vt 0.00000000 0.00000000
vt 0.00000000 0.00000000
vt 0.00000000 0.00000000
vt 0.00000000 0.00000000
vt 0.00000000 0.00000000
vt 0.00000000 0.00000000
vt 0.00000000 0.00000000
vt 0.00000000 0.00000000
vt 0.00000000 0.00000000
vt 0.00000000 0.00000000
vt 0.00000000 0.00000000
vt 0.00000000 0.00000000
vt 0.00000000 0.00000000
vt 0.00000000 0.00000000
vt 0.00000000 0.00000000
vt 0.00000000 0.00000000
vt 0.00000000 0.00000000
vt 0.00000000 0.00000000
vt 0.00000000 0.00000000
vt 0.00000000 0.00000000
vt 0.00000000 0.00000000
vt 0.00000000 0.00000000
vt 0.00000000 0.00000000
vt 0.00000000 0.00000000
vt 0.00000000 0.00000000
vt 0.00000000 0.00000000
vt 0.00000000 0.00000000
vt 0.00000000 0.00000000
vt 0.00000000 0.00000000
vt 0.00000000 0.00000000
vt 0.00000000 0.00000000
vt 0.00000000 0.00000000
vt 0.00000000 0.00000000
vt 0.00000000 0.00000000
vt 0.00000000 0.00000000
vt 0.00000000 0.00000000
vt 0.00000000 0.00000000
vt 0.00000000 0.00000000
vt 0.00000000 0.00000000
vt 0.00000000 0.00000000
vt 0.00000000 0.00000000
vt 0.00000000 0.00000000
vt 0.00000000 0.00000000
vt 0.00000000 0.00000000
vt 0.00000000 0.00000000
vt 0.00000000 0.00000000
vt 0.00000000 0.00000000
vt 0.00000000 0.00000000
vt 0.00000000 0.00000000
vt 0.00000000 0.00000000
vt 0.00000000 0.00000000
vt 0.00000000 0.00000000
vt 0.00000000 0.00000000
vt 0.00000000 0.00000000
vt 0.00000000 0.00000000
vt 0.00000000 0.00000000
vt 0.00000000 0.00000000
vt 0.00000000 0.00000000
vt 0.00000000 0.00000000
vt 0.00000000 0.00000000
vt 0.00000000 0.00000000
vt 0.00000000 0.00000000
vt 0.00000000 0.00000000
vt 0.00000000 0.00000000
vt 0.00000000 0.00000000
vt 0.00000000 0.00000000
vt 0.00000000 0.00000000
vt 0.00000000 0.00000000
vt 0.00000000 0.00000000
vt 0.00000000 0.00000000
vt 0.00000000 0.00000000
vt 0.00000000 0.00000000
vt 0.00000000 0.00000000
vt 0.00000000 0.00000000
vt 0.00000000 0.00000000
vt 0.00000000 0.00000000
vt 0.00000000 0.00000000
vt 0.00000000 0.00000000
vt 0.00000000 0.00000000
vt 0.00000000 0.00000000
vt 0.00000000 0.00000000
vt 0.00000000 0.00000000
vt 0.00000000 0.00000000
vt 0.00000000 0.00000000
vt 0.00000000 0.00000000
vt 0.00000000 0.00000000
vt 0.00000000 0.00000000
vt 0.00000000 0.00000000
vt 0.00000000 0.00000000
vt 0.00000000 0.00000000
vt 0.00000000 0.00000000
vt 0.00000000 0.00000000
vt 0.00000000 0.00000000
vt 0.00000000 0.00000000
vt 0.00000000 0.00000000
vt 0.00000000 0.00000000
vt 0.00000000 0.00000000
vt 0.00000000 0.00000000
vt 0.00000000 0.00000000
vt 0.00000000 0.00000000
vt 0.00000000 0.00000000
vt 0.00000000 0.00000000
vt 0.00000000 0.00000000
vt 0.00000000 0.00000000
vt 0.00000000 0.00000000
vt 0.00000000 0.00000000
vt 0.00000000 0.00000000
vt 0.00000000 0.00000000
vt 0.00000000 0.00000000
vt 0.00000000 0.00000000
vt 0.00000000 0.00000000
vt 0.00000000 0.00000000
vt 0.00000000 0.00000000
vt 0.00000000 0.00000000
vt 0.00000000 0.00000000
vt 0.00000000 0.00000000
vt 0.00000000 0.00000000
vt 0.00000000 0.00000000
vt 0.00000000 0.00000000
vt 0.00000000 0.00000000
vt 0.00000000 0.00000000
vt 0.00000000 0.00000000
vt 0.00000000 0.00000000
vt 0.00000000 0.00000000
vt 0.00000000 0.00000000
vt 0.00000000 0.00000000
vt 0.00000000 0.00000000
vt 0.00000000 0.00000000
vt 0.00000000 0.00000000
vt 0.00000000 0.00000000
vt 0.00000000 0.00000000
vt 0.00000000 0.00000000
vt 0.00000000 0.00000000
vt 0.00000000 0.00000000
vt 0.00000000 0.00000000
vt 0.00000000 0.00000000
vt 0.00000000 0.00000000
vt 0.00000000 0.00000000
vt 0.00000000 0.00000000
vt 0.00000000 0.00000000
vt 0.00000000 0.00000000
vt 0.00000000 0.00000000
vt 0.00000000 0.00000000
vt 0.00000000 0.00000000
vt 0.00000000 0.00000000
vt 0.00000000 0.00000000
vt 0.00000000 0.00000000
vt 0.00000000 0.00000000
vt 0.00000000 0.00000000
vt 0.00000000 0.00000000
vt 0.00000000 0.00000000
vt 0.00000000 0.00000000
vt 0.00000000 0.00000000
vt 0.00000000 0.00000000
vt 0.00000000 0.00000000
vt 0.00000000 0.00000000
vt 0.00000000 0.00000000
vt 0.00000000 0.00000000
vt 0.00000000 0.00000000
vt 0.00000000 0.00000000
vt 0.00000000 0.00000000
vt 0.00000000 0.00000000
vt 0.00000000 0.00000000
vt 0.00000000 0.00000000
vt 0.00000000 0.00000000
vt 0.00000000 0.00000000
vt 0.00000000 0.00000000
vt 0.00000000 0.00000000
vt 0.00000000 0.00000000
vt 0.00000000 0.00000000
vt 0.00000000 0.00000000
vt 0.00000000 0.00000000
vt 0.00000000 0.00000000
vt 0.00000000 0.00000000
vt 0.00000000 0.00000000
vt 0.00000000 0.00000000
vt 0.00000000 0.00000000
vt 0.00000000 0.00000000
vt 0.00000000 0.00000000
vt 0.00000000 0.00000000
vt 0.00000000 0.00000000
vt 0.00000000 0.00000000
vt 0.00000000 0.00000000
vt 0.00000000 0.00000000
vt 0.00000000 0.00000000
vt 0.00000000 0.00000000
vt 0.00000000 0.00000000
vt 0.00000000 0.00000000
vt 0.00000000 0.00000000
vt 0.00000000 0.00000000
vt 0.00000000 0.00000000
vt 0.00000000 0.00000000
vt 0.00000000 0.00000000
vt 0.00000000 0.00000000
vt 0.00000000 0.00000000
vt 0.00000000 0.00000000
vt 0.00000000 0.00000000
vt 0.00000000 0.00000000
vt 0.00000000 0.00000000
vt 0.00000000 0.00000000
vt 0.00000000 0.00000000
vt 0.00000000 0.00000000
vt 0.00000000 0.00000000
vt 0.00000000 0.00000000
vt 0.00000000 0.00000000
vt 0.00000000 0.00000000
vt 0.00000000 0.00000000
vt 0.00000000 0.00000000
vt 0.00000000 0.00000000
vt 0.00000000 0.00000000
vt 0.00000000 0.00000000
vt 0.00000000 0.00000000
vt 0.00000000 0.00000000
vt 0.00000000 0.00000000
vt 0.00000000 0.00000000
vt 0.00000000 0.00000000
vt 0.00000000 0.00000000
vt 0.00000000 0.00000000
vt 0.00000000 0.00000000
vt 0.00000000 0.00000000
vt 0.00000000 0.00000000
vt 0.00000000 0.00000000
vt 0.00000000 0.00000000
vt 0.00000000 0.00000000
vt 0.00000000 0.00000000
vt 0.00000000 0.00000000
vt 0.00000000 0.00000000
vt 0.00000000 0.00000000
vt 0.00000000 0.00000000
vt 0.00000000 0.00000000
vt 0.00000000 0.00000000
vt 0.00000000 0.00000000
vt 0.00000000 0.00000000
vt 0.00000000 0.00000000
vt 0.00000000 0.00000000
vt 0.00000000 0.00000000
vt 0.00000000 0.00000000
vt 0.00000000 0.00000000
vt 0.00000000 0.00000000
vt 0.00000000 0.00000000
vt 0.00000000 0.00000000
vt 0.00000000 0.00000000
vt 0.00000000 0.00000000
vt 0.00000000 0.00000000
vt 0.00000000 0.00000000
vt 0.00000000 0.00000000
vt 0.00000000 0.00000000
vt 0.00000000 0.00000000
vt 0.00000000 0.00000000
vt 0.00000000 0.00000000
vt 0.00000000 0.00000000
vt 0.00000000 0.00000000
vt 0.00000000 0.00000000
vt 0.00000000 0.00000000
vt 0.00000000 0.00000000
vt 0.00000000 0.00000000
vt 0.00000000 0.00000000
vt 0.00000000 0.00000000
vt 0.00000000 0.00000000
vt 0.00000000 0.00000000
vt 0.00000000 0.00000000
vt 0.00000000 0.00000000
vt 0.00000000 0.00000000
vt 0.00000000 0.00000000
vt 0.00000000 0.00000000
vt 0.00000000 0.00000000
vt 0.00000000 0.00000000
vt 0.00000000 0.00000000
vt 0.00000000 0.00000000
vt 0.00000000 0.00000000
vt 0.00000000 0.00000000
vt 0.00000000 0.00000000
vt 0.00000000 0.00000000
vt 0.00000000 0.00000000
vt 0.00000000 0.00000000
vt 0.00000000 0.00000000
vt 0.00000000 0.00000000
vt 0.00000000 0.00000000
vt 0.00000000 0.00000000
vt 0.00000000 0.00000000
vt 0.00000000 0.00000000
vt 0.00000000 0.00000000
vt 0.00000000 0.00000000
vt 0.00000000 0.00000000
vt 0.00000000 0.00000000
vt 0.00000000 0.00000000
vt 0.00000000 0.00000000
vt 0.00000000 0.00000000
vt 0.00000000 0.00000000
vt 0.00000000 0.00000000
vt 0.00000000 0.00000000
vt 0.00000000 0.00000000
vt 0.00000000 0.00000000
vt 0.00000000 0.00000000
vt 0.00000000 0.00000000
vt 0.00000000 0.00000000
vt 0.00000000 0.00000000
vt 0.00000000 0.00000000
vt 0.00000000 0.00000000
vt 0.00000000 0.00000000
vt 0.00000000 0.00000000
vt 0.00000000 0.00000000
vt 0.00000000 0.00000000
vt 0.00000000 0.00000000
vt 0.00000000 0.00000000
vt 0.00000000 0.00000000
vt 0.00000000 0.00000000
vt 0.00000000 0.00000000
vt 0.00000000 0.00000000
vt 0.00000000 0.00000000
vt 0.00000000 0.00000000
vt 0.00000000 0.00000000
vt 0.00000000 0.00000000
vt 0.00000000 0.00000000
vt 0.00000000 0.00000000
vt 0.00000000 0.00000000
vt 0.00000000 0.00000000
vt 0.00000000 0.00000000
vt 0.00000000 0.00000000
vt 0.00000000 0.00000000
vt 0.00000000 0.00000000
vt 0.00000000 0.00000000
vt 0.00000000 0.00000000
vt 0.00000000 0.00000000
vt 0.00000000 0.00000000
vt 0.00000000 0.00000000
vt 0.00000000 0.00000000
vt 0.00000000 0.00000000
vt 0.00000000 0.00000000
vt 0.00000000 0.00000000
vt 0.00000000 0.00000000
vt 0.00000000 0.00000000
vt 0.00000000 0.00000000
vt 0.00000000 0.00000000
vt 0.00000000 0.00000000
vt 0.00000000 0.00000000
vt 0.00000000 0.00000000
vt 0.00000000 0.00000000
vt 0.00000000 0.00000000
vt 0.00000000 0.00000000
vt 0.00000000 0.00000000
vt 0.00000000 0.00000000
vt 0.00000000 0.00000000
vt 0.00000000 0.00000000
vt 0.00000000 0.00000000
vt 0.00000000 0.00000000
vt 0.00000000 0.00000000
vt 0.00000000 0.00000000
vt 0.00000000 0.00000000
vt 0.00000000 0.00000000
vt 0.00000000 0.00000000
vt 0.00000000 0.00000000
vt 0.00000000 0.00000000
vt 0.00000000 0.00000000
vt 0.00000000 0.00000000
vt 0.00000000 0.00000000
vt 0.00000000 0.00000000
vt 0.00000000 0.00000000
vt 0.00000000 0.00000000
vt 0.00000000 0.00000000
vt 0.00000000 0.00000000
vt 0.00000000 0.00000000
vt 0.00000000 0.00000000
vt 0.00000000 0.00000000
vt 0.00000000 0.00000000
vt 0.00000000 0.00000000
vt 0.00000000 0.00000000
vt 0.00000000 0.00000000
vt 0.00000000 0.00000000
vt 0.00000000 0.00000000
vt 0.00000000 0.00000000
vt 0.00000000 0.00000000
vt 0.00000000 0.00000000
vt 0.00000000 0.00000000
vt 0.00000000 0.00000000
vt 0.00000000 0.00000000
vt 0.00000000 0.00000000
vt 0.00000000 0.00000000
vt 0.00000000 0.00000000
vt 0.00000000 0.00000000
vt 0.00000000 0.00000000
vt 0.00000000 0.00000000
vt 0.00000000 0.00000000
vt 0.00000000 0.00000000
vt 0.00000000 0.00000000
vt 0.00000000 0.00000000
vt 0.00000000 0.00000000
vt 0.00000000 0.00000000
vt 0.00000000 0.00000000
vt 0.00000000 0.00000000
vt 0.00000000 0.00000000
vt 0.00000000 0.00000000
vt 0.00000000 0.00000000
vt 0.00000000 0.00000000
vt 0.00000000 0.00000000
vt 0.00000000 0.00000000
vt 0.00000000 0.00000000
vt 0.00000000 0.00000000
vt 0.00000000 0.00000000
vt 0.00000000 0.00000000
vt 0.00000000 0.00000000
vt 0.00000000 0.00000000
vt 0.00000000 0.00000000
vt 0.00000000 0.00000000
vt 0.00000000 0.00000000
vt 0.00000000 0.00000000
vt 0.00000000 0.00000000
vt 0.00000000 0.00000000
vt 0.00000000 0.00000000
vt 0.00000000 0.00000000
vt 0.00000000 0.00000000
vt 0.00000000 0.00000000
vt 0.00000000 0.00000000
vt 0.00000000 0.00000000
vt 0.00000000 0.00000000
vt 0.00000000 0.00000000
vt 0.00000000 0.00000000
vt 0.00000000 0.00000000
vt 0.00000000 0.00000000
vt 0.00000000 0.00000000
vt 0.00000000 0.00000000
vt 0.00000000 0.00000000
vt 0.00000000 0.00000000
vt 0.00000000 0.00000000
vt 0.00000000 0.00000000
vt 0.00000000 0.00000000
vt 0.00000000 0.00000000
vt 0.00000000 0.00000000
vt 0.00000000 0.00000000
vt 0.00000000 0.00000000
vt 0.00000000 0.00000000
vt 0.00000000 0.00000000
vt 0.00000000 0.00000000
vt 0.00000000 0.00000000
vt 0.00000000 0.00000000
vt 0.00000000 0.00000000
vt 0.00000000 0.00000000
vt 0.00000000 0.00000000
vt 0.00000000 0.00000000
vt 0.00000000 0.00000000
vt 0.00000000 0.00000000
vt 0.00000000 0.00000000
vt 0.00000000 0.00000000
vt 0.00000000 0.00000000
vt 0.00000000 0.00000000
vt 0.00000000 0.00000000
vt 0.00000000 0.00000000
vt 0.00000000 0.00000000
vt 0.00000000 0.00000000
vt 0.00000000 0.00000000
vt 0.00000000 0.00000000
vt 0.00000000 0.00000000
vt 0.00000000 0.00000000
vt 0.00000000 0.00000000
vt 0.00000000 0.00000000
vt 0.00000000 0.00000000
vt 0.00000000 0.00000000
vt 0.00000000 0.00000000
vt 0.00000000 0.00000000
vt 0.00000000 0.00000000
vt 0.00000000 0.00000000
vt 0.00000000 0.00000000
vt 0.00000000 0.00000000
vt 0.00000000 0.00000000
vt 0.00000000 0.00000000
vt 0.00000000 0.00000000
vt 0.00000000 0.00000000
vt 0.00000000 0.00000000
vt 0.00000000 0.00000000
vt 0.00000000 0.00000000
vt 0.00000000 0.00000000
vt 0.00000000 0.00000000
vt 0.00000000 0.00000000
f 1/1 2/2 3/3
f 4/4 5/5 1/1
f 6/6 7/7 4/4
f 8/8 9/9 6/6
f 10/10 11/11 8/8
f 12/12 13/13 10/10
f 14/14 15/15 12/12
f 16/16 17/17 14/14
f 18/18 19/19 16/16
f 20/20 21/21 18/18
f 22/22 23/23 20/20
f 24/24 25/25 22/22
f 26/26 27/27 28/28
f 29/29 26/26 28/28
f 30/30 29/29 28/28
f 31/31 30/30 28/28
f 32/32 31/31 28/28
f 33/33 32/32 28/28
f 34/34 33/33 28/28
f 35/35 34/34 28/28
f 36/36 35/35 28/28
f 37/37 36/36 28/28
f 38/38 37/37 28/28
f 27/27 38/38 28/28
f 39/39 26/26 40/40
f 40/40 29/29 41/41
f 41/41 30/30 42/42
f 43/43 30/30 31/31
f 44/44 31/31 32/32
f 44/44 33/33 45/45
f 46/46 33/33 34/34
f 47/47 34/34 35/35
f 48/48 35/35 36/36
f 48/48 37/37 49/49
f 50/50 37/37 38/38
f 50/50 27/27 39/39
f 51/51 52/52 53/53
f 53/53 54/54 55/55
f 55/55 56/56 57/57
f 57/57 58/58 59/59
f 59/59 60/60 61/61
f 61/61 62/62 63/63
f 63/63 64/64 65/65
f 66/66 67/67 68/68
f 68/68 69/69 70/70
f 70/70 71/71 72/72
f 72/72 73/73 74/74
f 74/74 75/75 51/51
f 15/15 55/55 13/13
f 13/13 57/57 11/11
f 11/11 59/59 9/9
f 9/9 61/61 7/7
f 7/7 63/63 5/5
f 5/5 65/65 2/2
f 76/76 68/68 25/25
f 25/25 70/70 23/23
f 77/77 78/78 79/79
f 80/80 81/81 82/82
f 83/83 84/84 85/85
f 86/86 87/87 88/88
f 89/89 90/90 91/91
f 92/92 93/93 94/94
f 95/95 96/96 97/97
f 98/98 99/99 100/100
f 101/101 102/102 103/103
f 104/104 105/105 106/106
f 107/107 108/108 109/109
f 110/110 111/111 112/112
f 113/113 114/114 115/115
f 116/116 117/117 118/118
f 119/119 120/120 121/121
f 122/122 123/123 124/124
f 125/125 126/126 127/127
f 128/128 129/129 130/130
f 131/131 132/132 133/133
f 134/134 135/135 136/136
f 137/137 138/138 139/139
f 140/140 141/141 142/142
f 143/143 144/144 145/145
f 146/146 147/147 148/148
f 149/149 150/150 151/151
f 152/152 153/153 154/154
f 155/155 156/156 157/157
f 158/158 159/159 160/160
f 161/161 162/162 163/163
f 164/164 165/165 166/166
f 167/167 168/168 169/169
f 170/170 171/171 172/172
f 173/173 174/174 175/175
f 176/176 177/177 178/178
f 179/179 180/180 181/181
f 182/182 183/183 184/184
f 185/185 186/186 187/187
f 188/188 189/189 190/190
f 191/191 192/192 193/193
f 194/194 195/195 196/196
f 197/197 198/198 183/183
f 181/181 199/199 200/200
f 169/169 201/201 202/202
f 178/178 203/203 204/204
f 175/175 205/205 206/206
f 172/172 207/207 208/208
f 209/209 210/210 186/186
f 211/211 212/212 189/189
f 213/213 214/214 192/192
f 215/215 216/216 195/195
f 1/1 5/5 2/2
f 4/4 7/7 5/5
f 6/6 9/9 7/7
f 8/8 11/11 9/9
f 10/10 13/13 11/11
f 12/12 15/15 13/13
f 14/14 17/17 15/15
f 16/16 19/19 17/17
f 18/18 21/21 19/19
f 20/20 23/23 21/21
f 22/22 25/25 23/23
f 24/24 76/76 25/25
f 39/39 27/27 26/26
f 40/40 26/26 29/29
f 41/41 29/29 30/30
f 43/43 42/42 30/30
f 44/44 43/43 31/31
f 44/44 32/32 33/33
f 46/46 45/45 33/33
f 47/47 46/46 34/34
f 48/48 47/47 35/35
f 48/48 36/36 37/37
f 50/50 49/49 37/37
f 50/50 38/38 27/27
f 51/51 75/75 52/52
f 53/53 52/52 54/54
f 55/55 54/54 56/56
f 57/57 56/56 58/58
f 59/59 58/58 60/60
f 61/61 60/60 62/62
f 63/63 62/62 64/64
f 66/66 217/217 67/67
f 68/68 67/67 69/69
f 70/70 69/69 71/71
f 72/72 71/71 73/73
f 74/74 73/73 75/75
f 15/15 53/53 55/55
f 13/13 55/55 57/57
f 11/11 57/57 59/59
f 9/9 59/59 61/61
f 7/7 61/61 63/63
f 5/5 63/63 65/65
f 76/76 66/66 68/68
f 25/25 68/68 70/70
f 77/77 218/218 78/78
f 80/80 219/219 81/81
f 83/83 220/220 84/84
f 86/86 221/221 87/87
f 89/89 222/222 90/90
f 92/92 223/223 93/93
f 95/95 224/224 96/96
f 98/98 225/225 99/99
f 101/101 226/226 102/102
f 104/104 227/227 105/105
f 107/107 228/228 108/108
f 110/110 229/229 111/111
f 113/113 230/230 114/114
f 116/116 231/231 117/117
f 119/119 232/232 120/120
f 122/122 233/233 123/123
f 125/125 234/234 126/126
f 128/128 235/235 129/129
f 131/131 236/236 132/132
f 134/134 237/237 135/135
f 137/137 238/238 138/138
f 140/140 239/239 141/141
f 143/143 240/240 144/144
f 146/146 241/241 147/147
f 149/149 242/242 150/150
f 152/152 243/243 153/153
f 155/155 244/244 156/156
f 158/158 245/245 159/159
f 161/161 246/246 162/162
f 164/164 247/247 165/165
f 167/167 248/248 168/168
f 170/170 249/249 171/171
f 173/173 250/250 174/174
f 176/176 251/251 177/177
f 179/179 252/252 180/180
f 182/182 197/197 183/183
f 185/185 209/209 186/186
f 188/188 211/211 189/189
f 191/191 213/213 192/192
f 194/194 215/215 195/195
f 197/197 253/253 198/198
f 181/181 180/180 199/199
f 169/169 168/168 201/201
f 178/178 177/177 203/203
f 175/175 174/174 205/205
f 172/172 171/171 207/207
f 209/209 254/254 210/210
f 211/211 255/255 212/212
f 213/213 256/256 214/214
f 215/215 257/257 216/216
f 258/258 259/259 260/260
f 261/261 262/262 259/259
f 263/263 264/264 262/262
f 265/265 266/266 264/264
f 267/267 268/268 266/266
f 269/269 270/270 268/268
f 271/271 272/272 270/270
f 273/273 274/274 272/272
f 275/275 276/276 274/274
f 277/277 278/278 276/276
f 279/279 280/280 278/278
f 281/281 260/260 280/280
f 282/282 283/283 284/284
f 285/285 283/283 282/282
f 286/286 283/283 285/285
f 287/287 283/283 286/286
f 288/288 283/283 287/287
f 289/289 283/283 288/288
f 290/290 283/283 289/289
f 291/291 283/283 290/290
f 292/292 283/283 291/291
f 293/293 283/283 292/292
f 294/294 283/283 293/293
f 284/284 283/283 294/294
f 282/282 260/260 259/259
f 285/285 259/259 262/262
f 286/286 262/262 264/264
f 287/287 264/264 266/266
f 288/288 266/266 268/268
f 270/270 288/288 268/268
f 272/272 289/289 270/270
f 274/274 290/290 272/272
f 276/276 291/291 274/274
f 293/293 276/276 278/278
f 294/294 278/278 280/280
f 260/260 294/294 280/280
f 295/295 296/296 297/297
f 298/298 297/297 299/299
f 300/300 299/299 301/301
f 302/302 301/301 303/303
f 304/304 303/303 305/305
f 306/306 305/305 307/307
f 308/308 307/307 309/309
f 310/310 309/309 311/311
f 312/312 311/311 313/313
f 314/314 313/313 315/315
f 316/316 315/315 317/317
f 318/318 317/317 296/296
f 297/297 273/273 271/271
f 299/299 271/271 269/269
f 301/301 269/269 267/267
f 303/303 267/267 265/265
f 305/305 265/265 263/263
f 307/307 263/263 261/261
f 309/309 261/261 258/258
f 311/311 258/258 281/281
f 313/313 281/281 279/279
f 277/277 319/319 279/279
f 319/319 313/313 279/279
f 320/320 315/315 313/313
f 275/275 321/321 277/277
f 322/322 317/317 315/315
f 323/323 275/275 273/273
f 317/317 324/324 296/296
f 324/324 273/273 296/296
f 321/321 325/325 319/319
f 325/325 320/320 319/319
f 326/326 322/322 320/320
f 327/327 321/321 328/328
f 322/322 329/329 330/330
f 331/331 328/328 323/323
f 330/330 332/332 324/324
f 324/324 331/331 323/323
f 333/333 325/325 334/334
f 335/335 326/326 325/325
f 326/326 336/336 337/337
f 338/338 334/334 327/327
f 337/337 339/339 329/329
f 340/340 327/327 331/331
f 329/329 341/341 332/332
f 332/332 340/340 331/331
f 342/342 333/333 338/338
f 343/343 338/338 340/340
f 341/341 343/343 340/340
f 339/339 344/344 341/341
f 336/336 345/345 339/339
f 346/346 347/347 336/336
f 348/348 346/346 335/335
f 349/349 335/335 333/333
f 258/258 261/261 259/259
f 261/261 263/263 262/262
f 263/263 265/265 264/264
f 265/265 267/267 266/266
f 267/267 269/269 268/268
f 269/269 271/271 270/270
f 271/271 273/273 272/272
f 273/273 275/275 274/274
f 275/275 277/277 276/276
f 277/277 279/279 278/278
f 279/279 281/281 280/280
f 281/281 258/258 260/260
f 282/282 284/284 260/260
f 285/285 282/282 259/259
f 286/286 285/285 262/262
f 287/287 286/286 264/264
f 288/288 287/287 266/266
f 270/270 289/289 288/288
f 272/272 290/290 289/289
f 274/274 291/291 290/290
f 276/276 292/292 291/291
f 293/293 292/292 276/276
f 294/294 293/293 278/278
f 260/260 284/284 294/294
f 295/295 318/318 296/296
f 298/298 295/295 297/297
f 300/300 298/298 299/299
f 302/302 300/300 301/301
f 304/304 302/302 303/303
f 306/306 304/304 305/305
f 308/308 306/306 307/307
f 310/310 308/308 309/309
f 312/312 310/310 311/311
f 314/314 312/312 313/313
f 316/316 314/314 315/315
f 318/318 316/316 317/317
f 297/297 296/296 273/273
f 299/299 297/297 271/271
f 301/301 299/299 269/269
f 303/303 301/301 267/267
f 305/305 303/303 265/265
f 307/307 305/305 263/263
f 309/309 307/307 261/261
f 311/311 309/309 258/258
f 313/313 311/311 281/281
f 277/277 321/321 319/319
f 319/319 320/320 313/313
f 320/320 322/322 315/315
f 275/275 328/328 321/321
f 322/322 330/330 317/317
f 323/323 328/328 275/275
f 317/317 330/330 324/324
f 324/324 323/323 273/273
f 321/321 334/334 325/325
f 325/325 326/326 320/320
f 326/326 337/337 322/322
f 327/327 334/334 321/321
f 322/322 337/337 329/329
f 331/331 327/327 328/328
f 330/330 329/329 332/332
f 324/324 332/332 331/331
f 333/333 335/335 325/325
f 335/335 346/346 326/326
f 326/326 346/346 336/336
f 338/338 333/333 334/334
f 337/337 336/336 339/339
f 340/340 338/338 327/327
f 329/329 339/339 341/341
f 332/332 341/341 340/340
f 342/342 349/349 333/333
f 343/343 342/342 338/338
f 341/341 344/344 343/343
f 339/339 345/345 344/344
f 336/336 347/347 345/345
f 346/346 350/350 347/347
f 348/348 350/350 346/346
f 349/349 348/348 335/335
f 351/351 352/352 353/353
f 354/354 355/355 356/356
f 357/357 358/358 359/359
f 360/360 361/361 362/362
f 363/363 364/364 365/365
f 366/366 367/367 368/368
f 369/369 370/370 371/371
f 372/372 373/373 374/374
f 375/375 376/376 377/377
f 378/378 352/352 379/379
f 380/380 381/381 382/382
f 383/383 359/359 358/358
f 384/384 385/385 363/363
f 386/386 387/387 388/388
f 389/389 390/390 391/391
f 392/392 391/391 390/390
f 393/393 394/394 395/395
f 396/396 397/397 398/398
f 396/396 399/399 400/400
f 401/401 402/402 403/403
f 404/404 405/405 406/406
f 407/407 408/408 409/409
f 410/410 411/411 412/412
f 413/413 414/414 415/415
f 416/416 417/417 418/418
f 403/403 419/419 378/378
f 406/406 420/420 384/384
f 409/409 421/421 383/383
f 412/412 422/422 389/389
f 415/415 423/423 380/380
f 424/424 425/425 426/426
f 427/427 428/428 429/429
f 430/430 431/431 432/432
f 433/433 434/434 435/435
f 436/436 437/437 438/438
f 439/439 374/374 440/440
f 441/441 381/381 423/423
f 442/442 423/423 414/414
f 443/443 414/414 444/444
f 445/445 446/446 447/447
f 448/448 449/449 354/354
f 450/450 406/406 451/451
f 451/451 384/384 452/452
f 452/452 363/363 453/453
f 453/453 365/365 454/454
f 362/362 455/455 456/456
f 457/457 394/394 458/458
f 459/459 367/367 460/460
f 449/449 388/388 355/355
f 445/445 461/461 462/462
f 463/463 409/409 411/411
f 411/411 383/383 422/422
f 422/422 358/358 390/390
f 464/464 390/390 358/358
f 394/394 465/465 361/361
f 395/395 361/361 466/466
f 398/398 353/353 352/352
f 399/399 352/352 419/419
f 417/417 419/419 402/402
f 418/418 402/402 467/467
f 468/468 469/469 387/387
f 470/470 468/468 471/471
f 472/472 412/412 473/473
f 473/473 389/389 474/474
f 474/474 391/391 371/371
f 475/475 371/371 391/391
f 476/476 458/458 477/477
f 478/478 458/458 479/479
f 377/377 480/480 396/396
f 377/377 400/400 481/481
f 482/482 435/435 434/434
f 483/483 426/426 484/484
f 485/485 429/429 486/486
f 487/487 488/488 416/416
f 489/489 490/490 491/491
f 492/492 493/493 494/494
f 495/495 463/463 410/410
f 496/496 497/497 498/498
f 499/499 491/491 500/500
f 501/501 407/407 463/463
f 502/502 503/503 504/504
f 505/505 506/506 507/507
f 508/508 509/509 510/510
f 511/511 512/512 513/513
f 514/514 515/515 516/516
f 517/517 366/366 518/518
f 519/519 370/370 520/520
f 521/521 522/522 523/523
f 524/524 375/375 525/525
f 503/503 526/526 504/504
f 527/527 528/528 529/529
f 510/510 530/530 508/508
f 531/531 532/532 515/515
f 533/533 534/534 535/535
f 536/536 537/537 538/538
f 539/539 538/538 540/540
f 541/541 542/542 543/543
f 544/544 545/545 546/546
f 547/547 545/545 548/548
f 549/549 550/550 551/551
f 552/552 553/553 554/554
f 555/555 556/556 557/557
f 558/558 559/559 560/560
f 561/561 562/562 563/563
f 564/564 565/565 566/566
f 567/567 551/551 526/526
f 568/568 554/554 532/532
f 569/569 557/557 530/530
f 570/570 560/560 537/537
f 571/571 563/563 528/528
f 572/572 573/573 574/574
f 575/575 576/576 577/577
f 578/578 579/579 580/580
f 581/581 582/582 583/583
f 584/584 585/585 586/586
f 523/523 587/587 588/588
f 527/527 589/589 571/571
f 571/571 590/590 561/561
f 561/561 591/591 592/592
f 593/593 594/594 595/595
f 596/596 597/597 506/506
f 554/554 598/598 599/599
f 532/532 599/599 600/600
f 515/515 600/600 601/601
f 516/516 601/601 602/602
f 603/603 513/513 604/604
f 541/541 605/605 606/606
f 517/517 459/459 460/460
f 535/535 596/596 505/505
f 607/607 594/594 608/608
f 557/557 609/609 558/558
f 530/530 558/558 570/570
f 508/508 570/570 536/536
f 610/610 536/536 539/539
f 611/611 541/541 511/511
f 511/511 543/543 612/612
f 613/613 546/546 503/503
f 503/503 547/547 567/567
f 567/567 564/564 549/549
f 549/549 566/566 614/614
f 615/615 616/616 533/533
f 616/616 617/617 618/618
f 560/560 619/619 620/620
f 537/537 620/620 621/621
f 538/538 621/621 622/622
f 540/540 622/622 519/519
f 606/606 623/623 624/624
f 606/606 625/625 626/626
f 627/627 525/525 545/545
f 548/548 525/525 628/628
f 629/629 630/630 582/582
f 574/574 631/631 632/632
f 577/577 633/633 634/634
f 635/635 636/636 565/565
f 637/637 638/638 639/639
f 640/640 641/641 642/642
f 609/609 643/643 559/559
f 644/644 645/645 646/646
f 639/639 647/647 648/648
f 556/556 649/649 609/609
f 351/351 379/379 352/352
f 354/354 449/449 355/355
f 357/357 464/464 358/358
f 360/360 650/650 361/361
f 363/363 385/385 364/364
f 366/366 460/460 367/367
f 369/369 520/520 370/370
f 372/372 651/651 373/373
f 375/375 652/652 376/376
f 378/378 419/419 352/352
f 380/380 423/423 381/381
f 383/383 421/421 359/359
f 384/384 420/420 385/385
f 386/386 468/468 387/387
f 389/389 422/422 390/390
f 392/392 475/475 391/391
f 393/393 458/458 394/394
f 396/396 480/480 397/397
f 396/396 398/398 399/399
f 401/401 467/467 402/402
f 404/404 653/653 405/405
f 407/407 654/654 408/408
f 410/410 463/463 411/411
f 413/413 444/444 414/414
f 416/416 488/488 417/417
f 403/403 402/402 419/419
f 406/406 405/405 420/420
f 409/409 408/408 421/421
f 412/412 411/411 422/422
f 415/415 414/414 423/423
f 424/424 655/655 425/425
f 427/427 656/656 428/428
f 430/430 657/657 431/431
f 433/433 658/658 434/434
f 436/436 659/659 437/437
f 439/439 372/372 374/374
f 441/441 660/660 381/381
f 442/442 441/441 423/423
f 443/443 442/442 414/414
f 445/445 661/661 446/446
f 448/448 662/662 449/449
f 450/450 404/404 406/406
f 451/451 406/406 384/384
f 452/452 384/384 363/363
f 453/453 363/363 365/365
f 362/362 361/361 455/455
f 457/457 663/663 394/394
f 459/459 664/664 367/367
f 449/449 386/386 388/388
f 445/445 447/447 461/461
f 463/463 407/407 409/409
f 411/411 409/409 383/383
f 422/422 383/383 358/358
f 464/464 392/392 390/390
f 394/394 663/663 465/465
f 395/395 394/394 361/361
f 398/398 397/397 353/353
f 399/399 398/398 352/352
f 417/417 399/399 419/419
f 418/418 417/417 402/402
f 468/468 665/665 469/469
f 470/470 665/665 468/468
f 472/472 410/410 412/412
f 473/473 412/412 389/389
f 474/474 389/389 391/391
f 475/475 369/369 371/371
f 476/476 666/666 458/458
f 478/478 477/477 458/458
f 377/377 376/376 480/480
f 377/377 396/396 400/400
f 482/482 667/667 435/435
f 483/483 424/424 426/426
f 485/485 427/427 429/429
f 487/487 668/668 488/488
f 489/489 669/669 490/490
f 492/492 670/670 493/493
f 495/495 501/501 463/463
f 496/496 671/671 497/497
f 499/499 489/489 491/491
f 501/501 672/672 407/407
f 502/502 613/613 503/503
f 505/505 596/596 506/506
f 508/508 610/610 509/509
f 511/511 673/673 512/512
f 514/514 531/531 515/515
f 517/517 460/460 366/366
f 519/519 622/622 370/370
f 521/521 674/674 522/522
f 524/524 652/652 375/375
f 503/503 567/567 526/526
f 527/527 571/571 528/528
f 510/510 569/569 530/530
f 531/531 568/568 532/532
f 533/533 616/616 534/534
f 536/536 570/570 537/537
f 539/539 536/536 538/538
f 541/541 606/606 542/542
f 544/544 627/627 545/545
f 547/547 546/546 545/545
f 549/549 614/614 550/550
f 552/552 675/675 553/553
f 555/555 676/676 556/556
f 558/558 609/609 559/559
f 561/561 592/592 562/562
f 564/564 635/635 565/565
f 567/567 549/549 551/551
f 568/568 552/552 554/554
f 569/569 555/555 557/557
f 570/570 558/558 560/560
f 571/571 561/561 563/563
f 572/572 677/677 573/573
f 575/575 678/678 576/576
f 578/578 679/679 579/579
f 581/581 629/629 582/582
f 584/584 680/680 585/585
f 523/523 522/522 587/587
f 527/527 681/681 589/589
f 571/571 589/589 590/590
f 561/561 590/590 591/591
f 593/593 682/682 594/594
f 596/596 683/683 597/597
f 554/554 553/553 598/598
f 532/532 554/554 599/599
f 515/515 532/532 600/600
f 516/516 515/515 601/601
f 603/603 511/511 513/513
f 541/541 684/684 605/605
f 517/517 685/685 459/459
f 535/535 534/534 596/596
f 607/607 595/595 594/594
f 557/557 556/556 609/609
f 530/530 557/557 558/558
f 508/508 530/530 570/570
f 610/610 508/508 536/536
f 611/611 684/684 541/541
f 511/511 541/541 543/543
f 613/613 544/544 546/546
f 503/503 546/546 547/547
f 567/567 547/547 564/564
f 549/549 564/564 566/566
f 615/615 686/686 616/616
f 616/616 686/686 617/617
f 560/560 559/559 619/619
f 537/537 560/560 620/620
f 538/538 537/537 621/621
f 540/540 538/538 622/622
f 606/606 687/687 623/623
f 606/606 624/624 625/625
f 627/627 524/524 525/525
f 548/548 545/545 525/525
f 629/629 688/688 630/630
f 574/574 573/573 631/631
f 577/577 576/576 633/633
f 635/635 689/689 636/636
f 637/637 690/690 638/638
f 640/640 691/691 641/641
f 609/609 649/649 643/643
f 644/644 692/692 645/645
f 639/639 638/638 647/647
f 556/556 693/693 649/649
f 694/694 695/695 696/696
f 697/697 698/698 695/695
f 699/699 700/700 698/698
f 701/701 702/702 700/700
f 703/703 704/704 702/702
f 705/705 706/706 704/704
f 707/707 708/708 706/706
f 709/709 710/710 708/708
f 711/711 712/712 710/710
f 713/713 714/714 712/712
f 715/715 716/716 714/714
f 717/717 696/696 716/716
f 718/718 719/719 720/720
f 721/721 719/719 718/718
f 722/722 719/719 721/721
f 723/723 719/719 722/722
f 724/724 719/719 723/723
f 725/725 719/719 724/724
f 726/726 719/719 725/725
f 727/727 719/719 726/726
f 728/728 719/719 727/727
f 729/729 719/719 728/728
f 730/730 719/719 729/729
f 720/720 719/719 730/730
f 695/695 720/720 696/696
f 721/721 695/695 698/698
f 722/722 698/698 700/700
f 723/723 700/700 702/702
f 704/704 723/723 702/702
f 725/725 704/704 706/706
f 726/726 706/706 708/708
f 710/710 726/726 708/708
f 712/712 727/727 710/710
f 729/729 712/712 714/714
f 716/716 729/729 714/714
f 720/720 716/716 696/696
f 731/731 732/732 733/733
f 734/734 733/733 735/735
f 736/736 735/735 737/737
f 738/738 737/737 739/739
f 740/740 739/739 741/741
f 742/742 741/741 743/743
f 744/744 743/743 745/745
f 746/746 745/745 747/747
f 748/748 747/747 749/749
f 750/750 749/749 751/751
f 752/752 751/751 753/753
f 754/754 753/753 732/732
f 735/735 707/707 705/705
f 737/737 705/705 703/703
f 739/739 703/703 701/701
f 741/741 701/701 699/699
f 743/743 699/699 697/697
f 745/745 697/697 694/694
f 747/747 694/694 717/717
f 749/749 717/717 715/715
f 732/732 755/755 733/733
f 756/756 751/751 749/749
f 757/757 753/753 751/751
f 753/753 758/758 732/732
f 755/755 707/707 733/733
f 759/759 709/709 707/707
f 760/760 749/749 715/715
f 713/713 760/760 715/715
f 711/711 761/761 713/713
f 762/762 711/711 709/709
f 763/763 755/755 758/758
f 764/764 757/757 756/756
f 765/765 766/766 757/757
f 767/767 758/758 766/766
f 768/768 759/759 755/755
f 759/759 769/769 762/762
f 770/770 756/756 760/760
f 761/761 770/770 760/760
f 771/771 772/772 761/761
f 762/762 773/773 771/771
f 763/763 774/774 768/768
f 764/764 775/775 765/765
f 765/765 776/776 767/767
f 767/767 777/777 763/763
f 768/768 778/778 779/779
f 778/778 769/769 779/779
f 780/780 764/764 770/770
f 781/781 770/770 772/772
f 782/782 772/772 773/773
f 783/783 773/773 769/769
f 777/777 784/784 774/774
f 785/785 786/786 775/775
f 775/775 787/787 776/776
f 776/776 788/788 777/777
f 774/774 789/789 778/778
f 789/789 783/783 778/778
f 790/790 785/785 780/780
f 791/791 780/780 781/781
f 792/792 781/781 782/782
f 793/793 782/782 783/783
f 794/794 793/793 789/789
f 784/784 794/794 789/789
f 788/788 795/795 784/784
f 787/787 796/796 788/788
f 786/786 797/797 787/787
f 798/798 799/799 786/786
f 800/800 798/798 790/790
f 801/801 790/790 791/791
f 802/802 791/791 792/792
f 803/803 792/792 793/793
f 694/694 697/697 695/695
f 697/697 699/699 698/698
f 699/699 701/701 700/700
f 701/701 703/703 702/702
f 703/703 705/705 704/704
f 705/705 707/707 706/706
f 707/707 709/709 708/708
f 709/709 711/711 710/710
f 711/711 713/713 712/712
f 713/713 715/715 714/714
f 715/715 717/717 716/716
f 717/717 694/694 696/696
f 695/695 718/718 720/720
f 721/721 718/718 695/695
f 722/722 721/721 698/698
f 723/723 722/722 700/700
f 704/704 724/724 723/723
f 725/725 724/724 704/704
f 726/726 725/725 706/706
f 710/710 727/727 726/726
f 712/712 728/728 727/727
f 729/729 728/728 712/712
f 716/716 730/730 729/729
f 720/720 730/730 716/716
f 731/731 754/754 732/732
f 734/734 731/731 733/733
f 736/736 734/734 735/735
f 738/738 736/736 737/737
f 740/740 738/738 739/739
f 742/742 740/740 741/741
f 744/744 742/742 743/743
f 746/746 744/744 745/745
f 748/748 746/746 747/747
f 750/750 748/748 749/749
f 752/752 750/750 751/751
f 754/754 752/752 753/753
f 735/735 733/733 707/707
f 737/737 735/735 705/705
f 739/739 737/737 703/703
f 741/741 739/739 701/701
f 743/743 741/741 699/699
f 745/745 743/743 697/697
f 747/747 745/745 694/694
f 749/749 747/747 717/717
f 732/732 758/758 755/755
f 756/756 757/757 751/751
f 757/757 766/766 753/753
f 753/753 766/766 758/758
f 755/755 759/759 707/707
f 759/759 762/762 709/709
f 760/760 756/756 749/749
f 713/713 761/761 760/760
f 711/711 771/771 761/761
f 762/762 771/771 711/711
f 763/763 768/768 755/755
f 764/764 765/765 757/757
f 765/765 767/767 766/766
f 767/767 763/763 758/758
f 768/768 779/779 759/759
f 759/759 779/779 769/769
f 770/770 764/764 756/756
f 761/761 772/772 770/770
f 771/771 773/773 772/772
f 762/762 769/769 773/773
f 763/763 777/777 774/774
f 764/764 785/785 775/775
f 765/765 775/775 776/776
f 767/767 776/776 777/777
f 768/768 774/774 778/778
f 778/778 783/783 769/769
f 780/780 785/785 764/764
f 781/781 780/780 770/770
f 782/782 781/781 772/772
f 783/783 782/782 773/773
f 777/777 788/788 784/784
f 785/785 798/798 786/786
f 775/775 786/786 787/787
f 776/776 787/787 788/788
f 774/774 784/784 789/789
f 789/789 793/793 783/783
f 790/790 798/798 785/785
f 791/791 790/790 780/780
f 792/792 791/791 781/781
f 793/793 792/792 782/782
f 794/794 803/803 793/793
f 784/784 795/795 794/794
f 788/788 796/796 795/795
f 787/787 797/797 796/796
f 786/786 799/799 797/797
f 798/798 804/804 799/799
f 800/800 804/804 798/798
f 801/801 800/800 790/790
f 802/802 801/801 791/791
f 803/803 802/802 792/792
f 805/805 806/806 807/807
f 808/808 809/809 805/805
f 810/810 811/811 808/808
f 812/812 813/813 810/810
f 814/814 815/815 812/812
f 816/816 817/817 814/814
f 818/818 819/819 816/816
f 820/820 821/821 818/818
f 822/822 823/823 820/820
f 824/824 825/825 822/822
f 826/826 827/827 824/824
f 807/807 828/828 826/826
f 829/829 830/830 831/831
f 832/832 829/829 831/831
f 833/833 832/832 831/831
f 834/834 833/833 831/831
f 835/835 834/834 831/831
f 836/836 835/835 831/831
f 837/837 836/836 831/831
f 838/838 837/837 831/831
f 839/839 838/838 831/831
f 840/840 839/839 831/831
f 841/841 840/840 831/831
f 830/830 841/841 831/831
f 805/805 830/830 829/829
f 805/805 832/832 808/808
f 808/808 833/833 810/810
f 812/812 833/833 834/834
f 812/812 835/835 814/814
f 816/816 835/835 836/836
f 816/816 837/837 818/818
f 820/820 837/837 838/838
f 822/822 838/838 839/839
f 822/822 840/840 824/824
f 824/824 841/841 826/826
f 807/807 841/841 830/830
f 842/842 843/843 844/844
f 844/844 845/845 846/846
f 846/846 847/847 848/848
f 848/848 849/849 850/850
f 850/850 851/851 852/852
f 852/852 853/853 854/854
f 854/854 855/855 856/856
f 856/856 857/857 858/858
f 858/858 859/859 860/860
f 860/860 861/861 862/862
f 862/862 863/863 864/864
f 864/864 865/865 842/842
f 821/821 844/844 819/819
f 819/819 846/846 817/817
f 817/817 848/848 815/815
f 815/815 850/850 813/813
f 813/813 852/852 811/811
f 811/811 854/854 809/809
f 809/809 856/856 806/806
f 806/806 858/858 828/828
f 828/828 860/860 827/827
f 825/825 866/866 867/867
f 860/860 866/866 827/827
f 862/862 868/868 860/860
f 823/823 867/867 869/869
f 864/864 870/870 862/862
f 823/823 871/871 821/821
f 864/864 872/872 873/873
f 821/821 872/872 842/842
f 867/867 874/874 875/875
f 868/868 874/874 866/866
f 870/870 876/876 868/868
f 867/867 877/877 869/869
f 870/870 878/878 879/879
f 869/869 880/880 871/871
f 873/873 881/881 878/878
f 872/872 880/880 881/881
f 874/874 882/882 875/875
f 876/876 883/883 874/874
f 876/876 884/884 885/885
f 875/875 886/886 877/877
f 879/879 887/887 884/884
f 877/877 888/888 880/880
f 878/878 889/889 887/887
f 881/881 888/888 889/889
f 882/882 890/890 886/886
f 886/886 891/891 888/888
f 889/889 891/891 892/892
f 887/887 892/892 893/893
f 884/884 893/893 894/894
f 885/885 894/894 895/895
f 885/885 896/896 883/883
f 883/883 897/897 882/882
f 805/805 809/809 806/806
f 808/808 811/811 809/809
f 810/810 813/813 811/811
f 812/812 815/815 813/813
f 814/814 817/817 815/815
f 816/816 819/819 817/817
f 818/818 821/821 819/819
f 820/820 823/823 821/821
f 822/822 825/825 823/823
f 824/824 827/827 825/825
f 826/826 828/828 827/827
f 807/807 806/806 828/828
f 805/805 807/807 830/830
f 805/805 829/829 832/832
f 808/808 832/832 833/833
f 812/812 810/810 833/833
f 812/812 834/834 835/835
f 816/816 814/814 835/835
f 816/816 836/836 837/837
f 820/820 818/818 837/837
f 822/822 820/820 838/838
f 822/822 839/839 840/840
f 824/824 840/840 841/841
f 807/807 826/826 841/841
f 842/842 865/865 843/843
f 844/844 843/843 845/845
f 846/846 845/845 847/847
f 848/848 847/847 849/849
f 850/850 849/849 851/851
f 852/852 851/851 853/853
f 854/854 853/853 855/855
f 856/856 855/855 857/857
f 858/858 857/857 859/859
f 860/860 859/859 861/861
f 862/862 861/861 863/863
f 864/864 863/863 865/865
f 821/821 842/842 844/844
f 819/819 844/844 846/846
f 817/817 846/846 848/848
f 815/815 848/848 850/850
f 813/813 850/850 852/852
f 811/811 852/852 854/854
f 809/809 854/854 856/856
f 806/806 856/856 858/858
f 828/828 858/858 860/860
f 825/825 827/827 866/866
f 860/860 868/868 866/866
f 862/862 870/870 868/868
f 823/823 825/825 867/867
f 864/864 873/873 870/870
f 823/823 869/869 871/871
f 864/864 842/842 872/872
f 821/821 871/871 872/872
f 867/867 866/866 874/874
f 868/868 876/876 874/874
f 870/870 879/879 876/876
f 867/867 875/875 877/877
f 870/870 873/873 878/878
f 869/869 877/877 880/880
f 873/873 872/872 881/881
f 872/872 871/871 880/880
f 874/874 883/883 882/882
f 876/876 885/885 883/883
f 876/876 879/879 884/884
f 875/875 882/882 886/886
f 879/879 878/878 887/887
f 877/877 886/886 888/888
f 878/878 881/881 889/889
f 881/881 880/880 888/888
f 882/882 897/897 890/890
f 886/886 890/890 891/891
f 889/889 888/888 891/891
f 887/887 889/889 892/892
f 884/884 887/887 893/893
f 885/885 884/884 894/894
f 885/885 895/895 896/896
f 883/883 896/896 897/897

