# https://github.com/mikedh/trimesh
mtllib material.mtl

o wheel_BL_geo-mesh
usemtl material_0
v -0.00449708 -0.00568295 0.00779128
v -0.00779032 0.00599090 0.00449825
v -0.00779032 -0.00568300 0.00449825
v -0.00779032 0.00599090 0.00449825
v -0.00899546 -0.00568300 -0.00000013
v -0.00779032 -0.00568300 0.00449825
v -0.00899546 0.00599090 -0.00000013
v -0.00779032 -0.00568290 -0.00449847
v -0.00899546 -0.00568300 -0.00000013
v -0.00779032 -0.00568290 -0.00449847
v -0.00449708 0.00599084 -0.00779150
v -0.00449708 -0.00568305 -0.00779150
v -0.00449708 0.00599084 -0.00779150
v 0.00000132 -0.00568290 -0.00899684
v -0.00449708 -0.00568305 -0.00779150
v 0.00000132 -0.00568290 -0.00899684
v 0.00449971 0.00599084 -0.00779150
v 0.00449971 -0.00568305 -0.00779150
v 0.00449971 0.00599084 -0.00779150
v 0.00779259 -0.00568290 -0.00449847
v 0.00449971 -0.00568305 -0.00779150
v 0.00779259 -0.00568290 -0.00449847
v 0.00899810 0.00599090 -0.00000013
v 0.00899810 -0.00568300 -0.00000013
v 0.00899810 0.00599090 -0.00000013
v 0.00779259 -0.00568300 0.00449825
v 0.00899810 -0.00568300 -0.00000013
v 0.00779259 0.00599090 0.00449825
v 0.00449971 -0.00568295 0.00779128
v 0.00779259 -0.00568300 0.00449825
v 0.00449971 -0.00568295 0.00779128
v 0.00000132 0.00599090 0.00899655
v 0.00000132 -0.00568300 0.00899655
v 0.00000132 0.00599090 0.00899655
v -0.00449708 -0.00568295 0.00779128
v 0.00000132 -0.00568300 0.00899655
v -0.00779032 -0.00568300 0.00449825
v 0.00000132 -0.00568300 -0.00000013
v -0.00449708 -0.00568295 0.00779128
v -0.00899546 -0.00568300 -0.00000013
v -0.00779032 -0.00568290 -0.00449847
v -0.00449708 -0.00568305 -0.00779150
v 0.00000132 -0.00568290 -0.00899684
v 0.00449971 -0.00568305 -0.00779150
v 0.00779259 -0.00568290 -0.00449847
v 0.00899810 -0.00568300 -0.00000013
v 0.00779259 -0.00568300 0.00449825
v 0.00449971 -0.00568295 0.00779128
v 0.00000132 -0.00568300 0.00899655
v -0.00277586 0.00599093 0.00481006
v 0.00000132 0.00599090 -0.00000014
v -0.00590703 0.00599090 0.00283188
v -0.00645258 0.00599090 -0.00000014
v -0.00594285 0.00599090 -0.00278410
v -0.00277586 0.00599086 -0.00481031
v 0.00033345 0.00599090 -0.00644256
v 0.00322825 0.00599086 -0.00558932
v 0.00520271 0.00599090 -0.00364148
v 0.00555568 0.00599090 -0.00000014
v 0.00524512 0.00599090 0.00359892
v 0.00322825 0.00599093 0.00558908
v 0.00037257 0.00599090 0.00643942
v -0.00449708 0.00599095 0.00779128
v -0.00752605 0.00599090 0.00434568
v -0.00779032 0.00599090 0.00449825
v -0.00899546 0.00599090 -0.00000013
v -0.00752605 0.00599090 -0.00434590
v -0.00779032 0.00599090 -0.00449847
v -0.00449708 0.00599084 -0.00779150
v -0.00434450 0.00599085 -0.00752724
v 0.00000132 0.00599090 -0.00899684
v 0.00434713 0.00599085 -0.00752724
v 0.00449971 0.00599084 -0.00779150
v 0.00779259 0.00599090 -0.00449847
v 0.00869295 0.00599090 -0.00000014
v 0.00899810 0.00599090 -0.00000013
v 0.00779259 0.00599090 0.00449825
v 0.00434713 0.00599095 0.00752701
v 0.00449971 0.00599095 0.00779128
v 0.00000132 0.00599090 0.00899655
v -0.00434450 0.00599095 0.00752701
v -0.00277586 0.00474266 0.00481006
v -0.00752605 0.00474263 0.00434568
v -0.00434450 0.00474268 0.00752701
v -0.00869031 0.00599090 -0.00000014
v -0.00752605 0.00474263 -0.00434590
v -0.00277586 0.00474259 -0.00481031
v -0.00434450 0.00474258 -0.00752724
v 0.00000132 0.00474263 -0.00869169
v 0.00000132 0.00599090 -0.00869169
v 0.00752833 0.00599090 -0.00434590
v 0.00752833 0.00474263 -0.00434590
v 0.00555568 0.00474263 -0.00000014
v 0.00869295 0.00474263 -0.00000014
v 0.00752833 0.00474263 0.00434568
v 0.00752833 0.00599090 0.00434568
v 0.00000132 0.00599090 0.00869140
v 0.00000132 0.00474263 0.00869140
v -0.00434450 0.00474268 0.00752701
v -0.00752605 0.00599090 0.00434568
v -0.00434450 0.00599095 0.00752701
v -0.00752605 0.00474263 0.00434568
v -0.00590703 0.00599090 0.00283188
v -0.00752605 0.00599090 0.00434568
v -0.00590703 0.00599090 0.00283188
v -0.00277586 0.00474266 0.00481006
v -0.00277586 0.00599093 0.00481006
v 0.00000132 0.00599090 0.00869140
v -0.00434450 0.00474268 0.00752701
v -0.00434450 0.00599095 0.00752701
v -0.00277586 0.00474266 0.00481006
v 0.00037257 0.00599090 0.00643942
v -0.00277586 0.00599093 0.00481006
v 0.00037257 0.00474263 0.00643942
v 0.00000132 0.00599090 0.00869140
v 0.00037257 0.00599090 0.00643942
v -0.00752605 0.00474263 -0.00434590
v -0.00434450 0.00599085 -0.00752724
v -0.00752605 0.00599090 -0.00434590
v -0.00277586 0.00599086 -0.00481031
v -0.00594285 0.00474263 -0.00278410
v -0.00594285 0.00599090 -0.00278410
v -0.00594285 0.00474263 -0.00278410
v -0.00752605 0.00599090 -0.00434590
v -0.00594285 0.00599090 -0.00278410
v -0.00434450 0.00599085 -0.00752724
v 0.00000132 0.00474263 -0.00869169
v 0.00000132 0.00599090 -0.00869169
v 0.00000132 0.00474263 -0.00869169
v 0.00033345 0.00599090 -0.00644256
v 0.00000132 0.00599090 -0.00869169
v 0.00033345 0.00474263 -0.00644256
v -0.00277586 0.00599086 -0.00481031
v 0.00033345 0.00599090 -0.00644256
v 0.00752833 0.00474263 -0.00434590
v 0.00869295 0.00599090 -0.00000014
v 0.00752833 0.00599090 -0.00434590
v 0.00555568 0.00474263 -0.00000014
v 0.00520271 0.00599090 -0.00364148
v 0.00555568 0.00599090 -0.00000014
v 0.00520271 0.00474263 -0.00364148
v 0.00752833 0.00599090 -0.00434590
v 0.00520271 0.00599090 -0.00364148
v 0.00869295 0.00474263 -0.00000014
v 0.00752833 0.00599090 0.00434568
v 0.00869295 0.00599090 -0.00000014
v 0.00752833 0.00474263 0.00434568
v 0.00524512 0.00599090 0.00359892
v 0.00752833 0.00599090 0.00434568
v 0.00524512 0.00474263 0.00359892
v 0.00555568 0.00599090 -0.00000014
v 0.00524512 0.00599090 0.00359892
v -0.00449708 0.00599095 0.00779128
v -0.00899546 0.00599090 -0.00000013
v -0.00779032 0.00599090 -0.00449847
v -0.00779032 0.00599090 -0.00449847
v 0.00000132 0.00599090 -0.00899684
v 0.00000132 0.00599090 -0.00899684
v 0.00779259 0.00599090 -0.00449847
v 0.00779259 0.00599090 -0.00449847
v 0.00779259 0.00599090 0.00449825
v 0.00449971 0.00599095 0.00779128
v 0.00449971 0.00599095 0.00779128
v -0.00449708 0.00599095 0.00779128
v -0.00590703 0.00474263 0.00283188
v -0.00594285 0.00474263 -0.00278410
v 0.00033345 0.00474263 -0.00644256
v 0.00520271 0.00474263 -0.00364148
v 0.00524512 0.00474263 0.00359892
v 0.00037257 0.00474263 0.00643942
v -0.00752605 0.00474263 0.00434568
v -0.00590703 0.00474263 0.00283188
v -0.00590703 0.00474263 0.00283188
v 0.00000132 0.00474263 0.00869140
v 0.00037257 0.00474263 0.00643942
v 0.00000132 0.00474263 0.00869140
v -0.00434450 0.00474258 -0.00752724
v -0.00277586 0.00474259 -0.00481031
v -0.00752605 0.00474263 -0.00434590
v -0.00434450 0.00474258 -0.00752724
v 0.00033345 0.00474263 -0.00644256
v -0.00277586 0.00474259 -0.00481031
v 0.00869295 0.00474263 -0.00000014
v 0.00520271 0.00474263 -0.00364148
v 0.00752833 0.00474263 -0.00434590
v 0.00752833 0.00474263 0.00434568
v 0.00524512 0.00474263 0.00359892
v 0.00555568 0.00474263 -0.00000014
vt 0.37500000 0.31250000
vt 0.39583299 0.68844002
vt 0.39583299 0.31250000
vt 0.39583299 0.68844002
vt 0.41666701 0.31250000
vt 0.39583299 0.31250000
vt 0.41666701 0.68844002
vt 0.43750000 0.31250000
vt 0.41666701 0.31250000
vt 0.43750000 0.31250000
vt 0.45833299 0.68844002
vt 0.45833299 0.31250000
vt 0.45833299 0.68844002
vt 0.47916701 0.31250000
vt 0.45833299 0.31250000
vt 0.47916701 0.31250000
vt 0.50000000 0.68844002
vt 0.50000000 0.31250000
vt 0.50000000 0.68844002
vt 0.52083302 0.31250000
vt 0.50000000 0.31250000
vt 0.52083302 0.31250000
vt 0.54166698 0.68844002
vt 0.54166698 0.31250000
vt 0.54166698 0.68844002
vt 0.56250000 0.31250000
vt 0.54166698 0.31250000
vt 0.56250000 0.68844002
vt 0.58333302 0.31250000
vt 0.56250000 0.31250000
vt 0.58333302 0.31250000
vt 0.60416698 0.68844002
vt 0.60416698 0.31250000
vt 0.60416698 0.68844002
vt 0.62500000 0.31250000
vt 0.60416698 0.31250000
vt 0.57812500 0.02093398
vt 0.50000000 0.15000001
vt 0.63531601 0.07812500
vt 0.50000000 0.00000000
vt 0.42187500 0.02093398
vt 0.36468399 0.07812500
vt 0.34375000 0.15625000
vt 0.36468399 0.23437500
vt 0.42187500 0.29156601
vt 0.50000000 0.31250000
vt 0.57812500 0.29156601
vt 0.63531601 0.23437500
vt 0.65625000 0.15625000
vt 0.63531601 0.92187500
vt 0.50000000 0.83749998
vt 0.57812500 0.97906601
vt 0.50000000 1.00000000
vt 0.42187500 0.97906601
vt 0.36468399 0.92187500
vt 0.34375000 0.84375000
vt 0.36468399 0.76562500
vt 0.42187500 0.70843399
vt 0.50000000 0.68750000
vt 0.57812500 0.70843399
vt 0.63531601 0.76562500
vt 0.65625000 0.84375000
vt 0.63531601 0.92187500
vt 0.57812500 0.97906601
vt 0.57812500 0.97906601
vt 0.50000000 1.00000000
vt 0.42187500 0.97906601
vt 0.42187500 0.97906601
vt 0.36468399 0.92187500
vt 0.36468399 0.92187500
vt 0.34375000 0.84375000
vt 0.36468399 0.76562500
vt 0.36468399 0.76562500
vt 0.42187500 0.70843399
vt 0.50000000 0.68750000
vt 0.50000000 0.68750000
vt 0.57812500 0.70843399
vt 0.63531601 0.76562500
vt 0.63531601 0.76562500
vt 0.65625000 0.84375000
vt 0.63531601 0.92187500
vt 0.63531601 0.92187500
vt 0.57812500 0.97906601
vt 0.63531601 0.92187500
vt 0.50000000 1.00000000
vt 0.42187500 0.97906601
vt 0.36468399 0.92187500
vt 0.36468399 0.92187500
vt 0.34375000 0.84375000
vt 0.34375000 0.84375000
vt 0.42187500 0.70843399
vt 0.42187500 0.70843399
vt 0.50000000 0.68750000
vt 0.50000000 0.68750000
vt 0.57812500 0.70843399
vt 0.57812500 0.70843399
vt 0.65625000 0.84375000
vt 0.65625000 0.84375000
vt 0.63531601 0.92187500
vt 0.57812500 0.97906601
vt 0.63531601 0.92187500
vt 0.57812500 0.97906601
vt 0.57812500 0.97906601
vt 0.57812500 0.97906601
vt 0.57812500 0.97906601
vt 0.63531601 0.92187500
vt 0.63531601 0.92187500
vt 0.42187500 0.97906601
vt 0.36468399 0.92187500
vt 0.36468399 0.92187500
vt 0.36468399 0.92187500
vt 0.42187500 0.97906601
vt 0.36468399 0.92187500
vt 0.42187500 0.97906601
vt 0.42187500 0.97906601
vt 0.42187500 0.97906601
vt 0.36468399 0.92187500
vt 0.34375000 0.84375000
vt 0.36468399 0.92187500
vt 0.34375000 0.84375000
vt 0.34375000 0.84375000
vt 0.34375000 0.84375000
vt 0.34375000 0.84375000
vt 0.36468399 0.92187500
vt 0.34375000 0.84375000
vt 0.42187500 0.70843399
vt 0.50000000 0.68750000
vt 0.50000000 0.68750000
vt 0.50000000 0.68750000
vt 0.42187500 0.70843399
vt 0.50000000 0.68750000
vt 0.42187500 0.70843399
vt 0.42187500 0.70843399
vt 0.42187500 0.70843399
vt 0.50000000 0.68750000
vt 0.57812500 0.70843399
vt 0.50000000 0.68750000
vt 0.57812500 0.70843399
vt 0.57812500 0.70843399
vt 0.57812500 0.70843399
vt 0.57812500 0.70843399
vt 0.50000000 0.68750000
vt 0.57812500 0.70843399
vt 0.65625000 0.84375000
vt 0.63531601 0.92187500
vt 0.65625000 0.84375000
vt 0.63531601 0.92187500
vt 0.65625000 0.84375000
vt 0.63531601 0.92187500
vt 0.65625000 0.84375000
vt 0.65625000 0.84375000
vt 0.65625000 0.84375000
vt 0.37500000 0.68844002
vt 0.41666701 0.68844002
vt 0.43750000 0.68844002
vt 0.43750000 0.68844002
vt 0.47916701 0.68844002
vt 0.47916701 0.68844002
vt 0.52083302 0.68844002
vt 0.52083302 0.68844002
vt 0.56250000 0.68844002
vt 0.58333302 0.68844002
vt 0.58333302 0.68844002
vt 0.62500000 0.68844002
vt 0.57812500 0.97906601
vt 0.42187500 0.97906601
vt 0.34375000 0.84375000
vt 0.42187500 0.70843399
vt 0.57812500 0.70843399
vt 0.65625000 0.84375000
vt 0.57812500 0.97906601
vt 0.57812500 0.97906601
vt 0.57812500 0.97906601
vt 0.42187500 0.97906601
vt 0.42187500 0.97906601
vt 0.42187500 0.97906601
vt 0.34375000 0.84375000
vt 0.34375000 0.84375000
vt 0.36468399 0.92187500
vt 0.42187500 0.70843399
vt 0.42187500 0.70843399
vt 0.42187500 0.70843399
vt 0.57812500 0.70843399
vt 0.57812500 0.70843399
vt 0.50000000 0.68750000
vt 0.63531601 0.92187500
vt 0.65625000 0.84375000
vt 0.65625000 0.84375000
f 1/1 2/2 3/3
f 4/4 5/5 6/6
f 7/7 8/8 9/9
f 10/10 11/11 12/12
f 13/13 14/14 15/15
f 16/16 17/17 18/18
f 19/19 20/20 21/21
f 22/22 23/23 24/24
f 25/25 26/26 27/27
f 28/28 29/29 30/30
f 31/31 32/32 33/33
f 34/34 35/35 36/36
f 37/37 38/38 39/39
f 40/40 38/38 37/37
f 41/41 38/38 40/40
f 42/42 38/38 41/41
f 43/43 38/38 42/42
f 44/44 38/38 43/43
f 45/45 38/38 44/44
f 46/46 38/38 45/45
f 47/47 38/38 46/46
f 48/48 38/38 47/47
f 49/49 38/38 48/48
f 39/39 38/38 49/49
f 50/50 51/51 52/52
f 52/52 51/51 53/53
f 53/53 51/51 54/54
f 54/54 51/51 55/55
f 55/55 51/51 56/56
f 56/56 51/51 57/57
f 57/57 51/51 58/58
f 58/58 51/51 59/59
f 59/59 51/51 60/60
f 60/60 51/51 61/61
f 61/61 51/51 62/62
f 62/62 51/51 50/50
f 63/63 64/64 65/65
f 64/64 66/66 65/65
f 66/66 67/67 68/68
f 67/67 69/69 68/68
f 70/70 71/71 69/69
f 71/71 72/72 73/73
f 72/72 74/74 73/73
f 74/74 75/75 76/76
f 75/75 77/77 76/76
f 77/77 78/78 79/79
f 78/78 80/80 79/79
f 80/80 81/81 63/63
f 82/82 83/83 84/84
f 52/52 85/85 64/64
f 85/85 54/54 67/67
f 86/86 87/87 88/88
f 87/87 89/89 88/88
f 56/56 72/72 90/90
f 72/72 58/58 91/91
f 92/92 93/93 94/94
f 93/93 95/95 94/94
f 60/60 78/78 96/96
f 78/78 62/62 97/97
f 98/98 82/82 84/84
f 99/99 100/100 101/101
f 102/102 103/103 104/104
f 105/105 106/106 107/107
f 108/108 109/109 110/110
f 111/111 112/112 113/113
f 114/114 115/115 116/116
f 117/117 118/118 119/119
f 120/120 121/121 122/122
f 123/123 124/124 125/125
f 126/126 127/127 128/128
f 129/129 130/130 131/131
f 132/132 133/133 134/134
f 135/135 136/136 137/137
f 138/138 139/139 140/140
f 141/141 142/142 143/143
f 144/144 145/145 146/146
f 147/147 148/148 149/149
f 150/150 151/151 152/152
f 1/1 153/153 2/2
f 4/4 154/154 5/5
f 7/7 155/155 8/8
f 10/10 156/156 11/11
f 13/13 157/157 14/14
f 16/16 158/158 17/17
f 19/19 159/159 20/20
f 22/22 160/160 23/23
f 25/25 161/161 26/26
f 28/28 162/162 29/29
f 31/31 163/163 32/32
f 34/34 164/164 35/35
f 63/63 81/81 64/64
f 64/64 85/85 66/66
f 66/66 85/85 67/67
f 67/67 70/70 69/69
f 70/70 90/90 71/71
f 71/71 90/90 72/72
f 72/72 91/91 74/74
f 74/74 91/91 75/75
f 75/75 96/96 77/77
f 77/77 96/96 78/78
f 78/78 97/97 80/80
f 80/80 97/97 81/81
f 82/82 165/165 83/83
f 52/52 53/53 85/85
f 85/85 53/53 54/54
f 86/86 166/166 87/87
f 87/87 167/167 89/89
f 56/56 57/57 72/72
f 72/72 57/57 58/58
f 92/92 168/168 93/93
f 93/93 169/169 95/95
f 60/60 61/61 78/78
f 78/78 61/61 62/62
f 98/98 170/170 82/82
f 99/99 171/171 100/100
f 102/102 172/172 103/103
f 105/105 173/173 106/106
f 108/108 174/174 109/109
f 111/111 175/175 112/112
f 114/114 176/176 115/115
f 117/117 177/177 118/118
f 120/120 178/178 121/121
f 123/123 179/179 124/124
f 126/126 180/180 127/127
f 129/129 181/181 130/130
f 132/132 182/182 133/133
f 135/135 183/183 136/136
f 138/138 184/184 139/139
f 141/141 185/185 142/142
f 144/144 186/186 145/145
f 147/147 187/187 148/148
f 150/150 188/188 151/151

