# https://github.com/mikedh/trimesh
mtllib material.mtl
usemtl material_0
v -0.02490007 -0.01309483 -0.01671460
v -0.02432812 -0.01493107 -0.01994465
v -0.02490007 -0.01493107 -0.01671460
v -0.02266162 -0.01493107 -0.00830587
v -0.02432812 -0.01309483 -0.01226130
v -0.02432812 -0.01493107 -0.01226130
v -0.02409996 -0.00940503 -0.00781600
v -0.02327159 -0.01342843 -0.00749256
v -0.02409996 -0.00534365 -0.00781600
v -0.02432812 -0.00940503 -0.01226130
v -0.02432812 -0.00534365 -0.01226130
v -0.02490007 -0.00940503 -0.01671460
v -0.02432812 -0.00940503 -0.01994465
v -0.02432812 -0.01309483 -0.01994465
v -0.02432812 -0.00534365 -0.01994465
v -0.01322692 -0.01343182 0.02999519
v -0.02144203 -0.00987899 0.03156682
v -0.02238863 -0.01425727 0.02634926
v -0.00547552 -0.01309455 0.02961829
v -0.01250362 -0.00966201 0.03349653
v -0.02570132 -0.00534365 -0.00461005
v -0.02501115 -0.01286750 -0.00445322
v -0.02570132 -0.00940503 -0.00461005
v -0.02732832 -0.01301632 -0.00103679
v -0.02797857 -0.00949351 -0.00120021
v -0.02797857 -0.00536583 -0.00120021
v -0.00053509 -0.00534365 0.00998910
v -0.00236295 -0.00940503 0.01687731
v -0.00053509 -0.00940503 0.00998910
v -0.00254369 -0.01298206 0.01643978
v -0.00053509 -0.01298206 0.00998910
v -0.02977574 -0.00543218 0.00385639
v -0.02977574 -0.00975915 0.00385639
v -0.02900913 -0.01346289 0.00403976
v -0.03056684 -0.01002471 0.01069622
v -0.03055101 -0.00549860 0.01109496
v -0.00305256 -0.01298206 0.02404114
v -0.00218203 -0.00534365 0.01731484
v -0.00232925 -0.00940503 0.02579200
v -0.00160594 -0.00534365 0.02754286
v -0.00439075 -0.00946923 0.03268210
v -0.02982506 -0.01011319 0.01945615
v -0.02976069 -0.00552071 0.02105038
v -0.02910590 -0.01405827 0.01807167
v -0.02790741 -0.01299580 0.02359910
v -0.02810960 -0.01008891 0.02700781
v -0.03054536 0.00000254 0.01122788
v -0.02973922 0.00000254 0.02158204
v -0.02977574 0.00000254 0.00385639
v -0.02409996 0.00000254 -0.00781600
v -0.02570132 0.00000254 -0.00461005
v -0.02797857 0.00000254 -0.00120021
v -0.02490007 0.00000254 -0.01671460
v -0.02490007 -0.00534365 -0.01671460
v -0.02432812 0.00000254 -0.01226130
v -0.02432812 0.00000254 -0.01994465
v -0.00053509 0.00000254 0.00998910
v -0.00212178 0.00000254 0.01746093
v 0.00255988 -0.00534365 0.00549391
v -0.00330578 -0.00535976 0.03574591
v -0.00136496 0.00000254 0.02812648
v -0.00294412 0.00000254 0.03676706
v -0.02622170 -0.01393684 0.02498058
v -0.02597959 -0.01001614 0.03022450
v -0.02711519 -0.01509100 0.01097861
v -0.02971474 -0.01390945 0.01050118
v -0.02451037 -0.01507819 0.01158897
v -0.02677670 -0.01524377 0.01817031
v -0.02442602 -0.01521262 0.01880063
v -0.02670891 -0.01463276 0.00459005
v -0.02537714 -0.01417443 -0.00054655
v -0.02440908 -0.01467446 0.00514035
v -0.02293949 -0.01402165 -0.00398313
v -0.02142209 -0.01418112 0.00012216
v -0.00976324 -0.01413621 0.00130446
v -0.02040921 -0.01460857 0.00136414
v -0.01070947 -0.01543081 0.00167233
v -0.02040921 -0.01555930 0.00136414
v -0.00260393 -0.01448008 0.01629369
v -0.00053509 -0.01448008 0.00998910
v -0.00053509 -0.01543081 0.00998910
v -0.02364208 -0.01499404 0.00532372
v -0.02364208 -0.01537951 0.01179229
v -0.02364208 -0.01594477 0.00532372
v -0.02364208 -0.01633034 0.01179229
v -0.00329373 -0.01448008 0.02345752
v -0.00583718 -0.01460857 0.02859714
v -0.00329373 -0.01543081 0.02345752
v -0.00260393 -0.01543081 0.01629369
v -0.01346791 -0.01499404 0.02882795
v -0.02109863 -0.01537951 0.02526185
v -0.01346791 -0.01594477 0.02882795
v -0.00583718 -0.01555930 0.02859714
v -0.02364208 -0.01550800 0.01901072
v -0.02364208 -0.01645874 0.01901072
v -0.02109863 -0.01633034 0.02526185
v -0.00053509 -0.01736598 0.00998910
v -0.02432812 0.01493613 -0.01994465
v -0.02490007 0.01309989 -0.01671460
v -0.02490007 0.01493613 -0.01671460
v -0.02432812 0.01309989 -0.01226130
v -0.02432812 0.01493613 -0.01226130
v -0.02266162 0.01493613 -0.00830587
v -0.02327159 0.01343349 -0.00749256
v -0.02409996 0.00941010 -0.00781600
v -0.02432812 0.00941010 -0.01226130
v -0.02490007 0.00941010 -0.01671460
v -0.02432812 0.00534872 -0.01226130
v -0.02409996 0.00534872 -0.00781600
v -0.02432812 0.00534872 -0.01994465
v -0.02432812 0.00941010 -0.01994465
v -0.02432812 0.01309989 -0.01994465
v -0.02144203 0.00988406 0.03156682
v -0.01322692 0.01343688 0.02999519
v -0.02238863 0.01426233 0.02634926
v -0.01250362 0.00966709 0.03349653
v -0.00547552 0.01309961 0.02961829
v -0.02570132 0.00534872 -0.00461005
v -0.02797857 0.00537090 -0.00120021
v -0.02570132 0.00941010 -0.00461005
v -0.02732832 0.01302138 -0.00103679
v -0.02501115 0.01287256 -0.00445322
v -0.00254369 0.01298712 0.01643978
v -0.00053509 0.00941010 0.00998910
v -0.00053509 0.01298712 0.00998910
v -0.00236295 0.00941010 0.01687731
v -0.00053509 0.00534872 0.00998910
v -0.02977574 0.00543726 0.00385639
v -0.02797857 0.00949859 -0.00120021
v -0.03056684 0.01002977 0.01069622
v -0.02977574 0.00976423 0.00385639
v -0.02900913 0.01346795 0.00403976
v -0.00305256 0.01298712 0.02404114
v -0.00232925 0.00941010 0.02579200
v -0.00439075 0.00947431 0.03268210
v -0.00160594 0.00534872 0.02754286
v -0.00218203 0.00534872 0.01731484
v -0.03055101 0.00550367 0.01109496
v -0.02982506 0.01011825 0.01945615
v -0.02790741 0.01300096 0.02359910
v -0.02910590 0.01406333 0.01807167
v -0.02971474 0.01391451 0.01050118
v -0.02976069 0.00552579 0.02105038
v -0.02490007 0.00534872 -0.01671460
v 0.00255988 0.00534872 0.00549391
v -0.00330578 0.00536483 0.03574591
v -0.00136496 0.00000254 0.02812648
v -0.00212178 0.00000254 0.01746093
v -0.02810960 0.01009397 0.02700781
v -0.02622170 0.01394190 0.02498058
v -0.02597959 0.01002120 0.03022450
v -0.02711519 0.01509606 0.01097861
v -0.02677670 0.01524883 0.01817031
v -0.02442602 0.01521768 0.01880063
v -0.02451037 0.01508325 0.01158897
v -0.02670891 0.01463782 0.00459005
v -0.02537714 0.01417949 -0.00054655
v -0.02440908 0.01467952 0.00514035
v -0.02142209 0.01418618 0.00012216
v -0.02293949 0.01402671 -0.00398313
v -0.02069651 0.01425404 -0.00592281
v -0.02040921 0.01461363 0.00136414
v -0.00976324 0.01414127 0.00130446
v -0.00053509 0.01543587 0.00998910
v -0.00260393 0.01448514 0.01629369
v -0.00053509 0.01448514 0.00998910
v -0.02364208 0.01499910 0.00532372
v -0.02364208 0.01538457 0.01179229
v -0.02364208 0.01594983 0.00532372
v -0.02040921 0.01556436 0.00136414
v -0.00329373 0.01448514 0.02345752
v -0.00260393 0.01543587 0.01629369
v -0.00329373 0.01543587 0.02345752
v -0.00583718 0.01461363 0.02859714
v -0.00583718 0.01556436 0.02859714
v -0.01346791 0.01499910 0.02882795
v -0.01346791 0.01594983 0.02882795
v -0.02109863 0.01538457 0.02526185
v -0.02109863 0.01633540 0.02526185
v -0.02364208 0.01551306 0.01901072
v -0.02364208 0.01633540 0.01179229
v -0.00260393 0.01737104 0.01629369
v -0.00329373 0.01737104 0.02345752
v -0.00053509 0.01737104 0.00998910
v 0.00255988 -0.00940503 0.00549391
v -0.02069651 -0.01424898 -0.00592281
v -0.00169932 -0.01448008 0.00497260
v -0.00169932 -0.01543081 0.00497260
v -0.00169932 -0.01736598 0.00497260
v 0.00255988 0.00941010 0.00549391
v -0.02973922 0.00000254 0.02158204
v -0.00294412 0.00000254 0.03676706
v -0.01070947 0.01543587 0.00167233
v -0.00169932 0.01448514 0.00497260
v -0.00169932 0.01543587 0.00497260
v -0.02364208 0.01646380 0.01901072
v -0.00439075 -0.00946923 0.03268210
v -0.01178032 -0.00540789 0.03699787
v -0.01250362 -0.00966201 0.03349653
v -0.02124511 -0.00546216 0.03502938
v -0.02144203 -0.00987899 0.03156682
v -0.02976069 -0.00552071 0.02105038
v -0.02810960 -0.01008891 0.02700781
v -0.02801283 -0.00551464 0.02983705
v -0.02973922 0.00000254 0.02158204
v -0.02798045 0.00000254 0.03078025
v -0.02117921 0.00000254 0.03618344
v -0.00330578 -0.00535976 0.03574591
v -0.01153915 0.00000254 0.03816511
v -0.02591519 -0.00549644 0.03356958
v -0.02589336 0.00000254 0.03468448
v -0.02597959 -0.01001614 0.03022450
v -0.02124511 0.00546724 0.03502938
v -0.01250362 0.00966709 0.03349653
v -0.02144203 0.00988406 0.03156682
v -0.01178032 0.00541297 0.03699787
v -0.00439075 0.00947431 0.03268210
v -0.02976069 0.00552579 0.02105038
v -0.02810960 0.01009397 0.02700781
v -0.02982506 0.01011825 0.01945615
v -0.02973922 0.00000254 0.02158204
v -0.02801283 0.00551972 0.02983705
v -0.02117921 0.00000254 0.03618344
v -0.01153915 0.00000254 0.03816511
v -0.00330578 0.00536483 0.03574591
v -0.02591519 0.00550151 0.03356958
v -0.02798045 0.00000254 0.03078025
v -0.02589336 0.00000254 0.03468448
v -0.02597959 0.01002120 0.03022450
v -0.02982506 -0.01011319 0.01945615
v -0.00294412 0.00000254 0.03676706
v -0.00294412 0.00000254 0.03676706
v 0.03449261 -0.01531249 -0.02189756
v 0.03651343 -0.01557302 -0.01679960
v 0.03125531 -0.01531249 -0.02056742
v 0.04160071 -0.01347625 -0.01653659
v 0.04160071 -0.01532840 -0.01653659
v 0.04316802 -0.01376232 -0.00932814
v 0.04316802 -0.01532840 -0.00932814
v 0.03807227 -0.01557302 -0.00980388
v 0.03320432 -0.01582398 0.00123518
v 0.02444908 -0.01522991 0.00407458
v 0.02427611 -0.01522991 0.00209668
v 0.03574551 -0.01376232 0.00282922
v 0.03574551 -0.01532840 0.00282922
v 0.02444908 -0.01347625 0.00407458
v 0.01054309 -0.01531249 0.00240110
v 0.00977214 -0.01628064 0.00036389
v -0.02400695 -0.01561305 -0.01661773
v -0.02432812 -0.01493107 -0.01994465
v -0.02346325 -0.01561305 -0.01989993
v -0.02432812 -0.01309483 -0.01994465
v -0.02266162 -0.01493107 -0.02192479
v -0.02223012 -0.01543627 -0.02140125
v 0.00319395 -0.01570841 -0.02194479
v 0.01943715 -0.01493107 -0.02342730
v 0.01989066 -0.01599448 -0.02196759
v 0.00302517 -0.01309483 -0.02309447
v 0.00302517 -0.01493107 -0.02309447
v 0.03449261 -0.01319019 -0.02189756
v 0.03449261 -0.01531249 -0.02189756
v 0.03125531 -0.01531249 -0.02056742
v 0.01989066 -0.01599448 -0.02196759
v 0.00370029 -0.01622190 -0.01849576
v 0.00319395 -0.01570841 -0.02194479
v 0.02125117 -0.01736617 -0.01758852
v 0.02278468 -0.01851044 -0.01123140
v 0.00497766 -0.01650787 -0.01300946
v 0.04160071 -0.01532840 -0.00225561
v 0.03713980 -0.01557302 -0.00265116
v 0.04160071 -0.01385768 -0.00225561
v 0.00745927 -0.01660332 -0.00574792
v 0.02375717 -0.01889186 -0.00383760
v 0.02427611 -0.01522991 0.00209668
v 0.00977214 -0.01628064 0.00036389
v -0.02223012 -0.01543627 -0.00918016
v -0.02432812 -0.01493107 -0.01226130
v -0.02346325 -0.01561305 -0.01213008
v -0.02266162 -0.00940503 -0.02192479
v -0.02266162 -0.01309483 -0.02192479
v -0.02432812 -0.00940503 -0.01994465
v -0.02266162 -0.00534365 -0.02192479
v 0.01943715 -0.01309483 -0.02342730
v 0.03449261 -0.00940503 -0.02189756
v 0.01943715 -0.00940503 -0.02342730
v 0.00302517 -0.00940503 -0.02309447
v 0.01943715 -0.00534365 -0.02342730
v 0.03449261 -0.00534365 -0.02189756
v 0.04316802 -0.00940503 -0.00932814
v 0.03449261 -0.01319019 -0.02189756
v 0.04160071 -0.00940503 -0.01653659
v 0.03449261 -0.00940503 -0.02189756
v 0.04160071 -0.00534365 -0.01653659
v 0.04316802 -0.00534365 -0.00932814
v 0.04160071 -0.00940503 -0.00225561
v 0.03574551 -0.00940503 0.00282922
v 0.04160071 -0.00534365 -0.00225561
v 0.03574551 -0.00534365 0.00282922
v 0.01291020 -0.00940503 0.00365833
v 0.00985921 -0.01348953 0.00286254
v 0.02444908 -0.00940503 0.00407458
v 0.02444908 -0.00534365 0.00407458
v 0.01291020 -0.00534365 0.00365833
v -0.00314067 -0.01493107 -0.00127099
v -0.00379225 -0.01561305 -0.00303202
v -0.00408670 -0.01424898 -0.00090312
v -0.01412909 -0.01493107 -0.00493142
v -0.01443616 -0.01561305 -0.00635319
v -0.00767690 -0.01584048 -0.01453704
v -0.01535770 -0.01584048 -0.01061841
v -0.01612884 -0.01584048 -0.01568564
v -0.00574719 -0.01584048 -0.00831528
v -0.00379225 -0.01561305 -0.00303202
v -0.01443616 -0.01561305 -0.00635319
v -0.01553241 -0.01561305 -0.02191923
v -0.00825318 -0.01584048 -0.01911369
v -0.01598425 -0.01584048 -0.01951329
v -0.00817768 -0.01561305 -0.02192926
v -0.01538218 -0.01493107 -0.02272119
v -0.00817768 -0.01561305 -0.02192926
v -0.01553241 -0.01561305 -0.02191923
v -0.01538218 -0.01309483 -0.02272119
v -0.00815264 -0.01493107 -0.02286780
v -0.00815264 -0.01309483 -0.02286780
v -0.00815264 -0.00534365 -0.02286780
v 0.00302517 -0.00534365 -0.02309447
v -0.00815264 -0.00940503 -0.02286780
v -0.01538218 -0.00940503 -0.02272119
v -0.01538218 -0.00534365 -0.02272119
v -0.01498551 -0.01424898 -0.00435439
v -0.00692497 -0.01402165 0.00020067
v -0.01755511 -0.01402165 -0.00262367
v 0.00301444 -0.01286750 0.00286819
v 0.00035672 -0.01335633 0.00456200
v -0.00976324 -0.01413621 0.00130446
v -0.02142209 -0.01418112 0.00012216
v 0.00632771 -0.00940503 0.00375755
v 0.00632771 -0.00534365 0.00375755
v 0.00255988 -0.00940503 0.00549391
v -0.01804763 -0.02074533 0.00301165
v -0.01208868 -0.02101718 0.00765650
v -0.02075374 -0.02108910 0.00590696
v -0.00459727 -0.02057401 0.00565224
v -0.01105417 -0.02070372 0.00316847
v -0.00523379 -0.02075191 0.01573116
v -0.01312319 -0.02120996 0.01404280
v -0.02101241 -0.02142647 0.01235483
v -0.00053509 -0.01298206 0.00998910
v 0.00255988 -0.00534365 0.00549391
v -0.00053509 -0.00940503 0.00998910
v -0.02109863 -0.02153886 0.01956686
v -0.01346791 -0.02127416 0.02123412
v -0.00781546 -0.02077394 0.02668814
v -0.01346791 -0.02115329 0.02692949
v -0.01912036 -0.02134495 0.02421774
v -0.02432812 -0.00534365 -0.01994465
v -0.02266162 0.00000254 -0.02192479
v 0.00302517 0.00000254 -0.02309447
v -0.00815264 0.00000254 -0.02286780
v -0.01538218 0.00000254 -0.02272119
v 0.03449261 0.00000254 -0.02189756
v 0.01943715 0.00000254 -0.02342730
v 0.04316802 0.00000254 -0.00932814
v 0.03449261 -0.00534365 -0.02189756
v 0.04160071 0.00000254 -0.01653659
v 0.03574551 0.00000254 0.00282922
v 0.04160071 0.00000254 -0.00225561
v 0.01291020 0.00000254 0.00365833
v 0.02444908 0.00000254 0.00407458
v 0.00255988 0.00000254 0.00549391
v 0.00632771 0.00000254 0.00375755
v -0.02069651 -0.01424898 -0.00592281
v -0.02293949 -0.01402165 -0.00398313
v -0.01994910 -0.01493107 -0.00656950
v -0.02017879 -0.01561305 -0.00786118
v -0.02266162 -0.01493107 -0.00830587
v -0.02132757 -0.01584048 -0.01632696
v -0.02346325 -0.01561305 -0.01213008
v -0.02400695 -0.01561305 -0.01661773
v -0.02086820 -0.01584048 -0.01173623
v -0.02017879 -0.01561305 -0.00786118
v -0.02223012 -0.01543627 -0.00918016
v -0.02223012 -0.01543627 -0.02140125
v -0.02086820 -0.01584048 -0.01976575
v -0.02346325 -0.01561305 -0.01989993
v -0.02017879 -0.01561305 -0.02191288
v -0.02017879 -0.01561305 -0.02191288
v -0.01994910 -0.01493107 -0.02262859
v -0.01994910 -0.01309483 -0.02262859
v -0.01994910 -0.00534365 -0.02262859
v -0.01994910 -0.00940503 -0.02262859
v -0.01994910 0.00000254 -0.02262859
v -0.00169932 -0.01448008 0.00497260
v -0.01070947 -0.01448008 0.00167233
v -0.01070947 -0.01543081 0.00167233
v -0.00053509 -0.01448008 0.00998910
v -0.00169932 -0.01543081 0.00497260
v -0.01346791 -0.01982151 0.02882795
v -0.00583718 -0.02040532 0.02859714
v -0.00583718 -0.01943595 0.02859714
v -0.02109863 -0.02020689 0.02526185
v -0.01346791 -0.02079089 0.02882795
v -0.00329373 -0.01930755 0.02345752
v -0.00260393 -0.02027693 0.01629369
v -0.00260393 -0.01930755 0.01629369
v -0.00329373 -0.02027693 0.02345752
v -0.00583718 -0.02076792 0.02290177
v -0.00053509 -0.01930755 0.00998910
v -0.00169932 -0.02027693 0.00497260
v -0.00169932 -0.01930755 0.00497260
v -0.00053509 -0.02027693 0.00998910
v -0.00342344 -0.02070372 0.00940623
v -0.02040921 -0.01943595 0.00136414
v -0.01070947 -0.02027693 0.00167233
v -0.02040921 -0.02040532 0.00136414
v -0.01070947 -0.01930755 0.00167233
v -0.02364208 -0.02020689 0.01179229
v -0.02364208 -0.02079089 0.00532372
v -0.02364208 -0.02117626 0.01179229
v -0.02364208 -0.01982151 0.00532372
v -0.02364208 -0.02033548 0.01901072
v -0.02109863 -0.02117626 0.02526185
v -0.02364208 -0.02130485 0.01901072
v -0.01346791 -0.01594477 0.02882795
v -0.00583718 -0.01749457 0.02859714
v -0.00583718 -0.01555930 0.02859714
v -0.02109863 -0.01633034 0.02526185
v -0.01346791 -0.01787994 0.02882795
v -0.02109863 -0.01826551 0.02526185
v -0.00329373 -0.01543081 0.02345752
v -0.00260393 -0.01736598 0.01629369
v -0.00260393 -0.01543081 0.01629369
v -0.00329373 -0.01736598 0.02345752
v -0.00053509 -0.01543081 0.00998910
v -0.00169932 -0.01736598 0.00497260
v -0.00053509 -0.01736598 0.00998910
v -0.02040921 -0.01555930 0.00136414
v -0.01070947 -0.01736598 0.00167233
v -0.02040921 -0.01749457 0.00136414
v -0.02364208 -0.01633034 0.01179229
v -0.02364208 -0.01787994 0.00532372
v -0.02364208 -0.01826551 0.01179229
v -0.02364208 -0.01594477 0.00532372
v -0.02364208 -0.01645874 0.01901072
v -0.02364208 -0.01839390 0.01901072
v 0.03651343 0.01533346 -0.01679960
v 0.03449261 0.01531755 -0.02189756
v 0.03125522 0.01531755 -0.02056742
v 0.03807227 0.01557808 -0.00980388
v 0.04160071 0.01533346 -0.01653659
v 0.04316802 0.01376738 -0.00932814
v 0.04160071 0.01348131 -0.01653659
v 0.03449261 0.01319525 -0.02189756
v 0.03320432 0.01582904 0.00123518
v 0.02444908 0.01523497 0.00407458
v 0.03574551 0.01533346 0.00282922
v 0.02427611 0.01523497 0.00209668
v 0.01054309 0.01531755 0.00240110
v 0.02444908 0.01348131 0.00407458
v 0.03574551 0.01376738 0.00282922
v -0.02400695 0.01561811 -0.01661773
v -0.02432812 0.01493613 -0.01994465
v -0.02490007 0.01493613 -0.01671460
v -0.02346325 0.01561811 -0.01989993
v -0.02266162 0.01493613 -0.02192479
v -0.02432812 0.01309989 -0.01994465
v 0.00319395 0.01571347 -0.02194479
v 0.01943715 0.01493613 -0.02342730
v 0.00302517 0.01493613 -0.02309447
v 0.03125522 0.01531755 -0.02056742
v 0.01989066 0.01599954 -0.02196759
v 0.03449261 0.01319525 -0.02189756
v 0.01943715 0.01309989 -0.02342730
v 0.00302517 0.01309989 -0.02309447
v 0.00370029 0.01622696 -0.01849576
v 0.01989066 0.01599954 -0.02196759
v 0.00319395 0.01571347 -0.02194479
v 0.00497766 0.01651293 -0.01300946
v 0.02125117 0.01737123 -0.01758852
v 0.02278468 0.01851550 -0.01123140
v 0.04160071 0.01533346 -0.00225561
v 0.04316802 0.01533346 -0.00932814
v 0.03713980 0.01557808 -0.00265116
v 0.04160071 0.01386274 -0.00225561
v 0.00745927 0.01660838 -0.00574792
v 0.00977214 0.01628570 0.00036389
v 0.02375717 0.01889692 -0.00383760
v -0.02223012 0.01544133 -0.00918016
v -0.02432812 0.01493613 -0.01226130
v -0.02266162 0.01493613 -0.00830587
v -0.02346325 0.01561811 -0.01213008
v -0.02266162 0.00941010 -0.02192479
v -0.02266162 0.01309989 -0.02192479
v -0.02266162 0.00534872 -0.02192479
v -0.02432812 0.00941010 -0.01994465
v 0.03449261 0.00941010 -0.02189756
v 0.03449261 0.00534872 -0.02189756
v 0.01943715 0.00941010 -0.02342730
v 0.01943715 0.00534872 -0.02342730
v 0.00302517 0.00941010 -0.02309447
v 0.04316802 0.00941010 -0.00932814
v 0.04316802 0.00534872 -0.00932814
v 0.04160071 0.00941010 -0.01653659
v 0.04160071 0.00534872 -0.01653659
v 0.03449261 0.00941010 -0.02189756
v 0.04160071 0.00941010 -0.00225561
v 0.03574551 0.00534872 0.00282922
v 0.03574551 0.00941010 0.00282922
v 0.04160071 0.00534872 -0.00225561
v 0.01291020 0.00941010 0.00365833
v 0.00985921 0.01349459 0.00286254
v 0.01291020 0.00534872 0.00365833
v 0.02444908 0.00941010 0.00407458
v 0.02444908 0.00534872 0.00407458
v 0.00977214 0.01628570 0.00036389
v -0.00314067 0.01493613 -0.00127099
v -0.00379225 0.01561811 -0.00303202
v -0.01412909 0.01493613 -0.00493142
v -0.00408670 0.01425404 -0.00090312
v -0.01535770 0.01584554 -0.01061841
v -0.00767690 0.01584554 -0.01453704
v -0.01612884 0.01584554 -0.01568564
v -0.01443616 0.01561811 -0.00635319
v -0.00574719 0.01584554 -0.00831528
v -0.00379225 0.01561811 -0.00303202
v -0.01553241 0.01561811 -0.02191923
v -0.00825318 0.01584554 -0.01911369
v -0.00817768 0.01561811 -0.02192926
v -0.01598425 0.01584554 -0.01951329
v -0.00817768 0.01561811 -0.02192926
v -0.01538218 0.01493613 -0.02272119
v -0.01553241 0.01561811 -0.02191923
v -0.00815264 0.01493613 -0.02286780
v -0.00815264 0.01309989 -0.02286780
v -0.01538218 0.01309989 -0.02272119
v -0.00815264 0.00534872 -0.02286780
v 0.00302517 0.00534872 -0.02309447
v -0.01538218 0.00534872 -0.02272119
v -0.00815264 0.00941010 -0.02286780
v -0.01538218 0.00941010 -0.02272119
v -0.01498551 0.01425404 -0.00435439
v -0.00692497 0.01402671 0.00020067
v -0.01755511 0.01402671 -0.00262367
v -0.00976324 0.01414127 0.00130446
v 0.00035672 0.01336139 0.00456200
v 0.00301444 0.01287256 0.00286819
v 0.00632771 0.00941010 0.00375755
v 0.00255988 0.00941010 0.00549391
v 0.00632771 0.00534872 0.00375755
v -0.01804763 0.02075039 0.00301165
v -0.01208868 0.02102224 0.00765650
v -0.01105417 0.02070878 0.00316847
v -0.02101241 0.02143153 0.01235483
v -0.02075374 0.02109416 0.00590696
v -0.00523379 0.02075697 0.01573116
v -0.00342344 0.02070878 0.00940623
v -0.00459727 0.02057907 0.00565224
v -0.00053509 0.01298712 0.00998910
v -0.00053509 0.00941010 0.00998910
v 0.00255988 0.00534872 0.00549391
v -0.02109863 0.02154392 0.01956686
v -0.01312319 0.02121502 0.01404280
v -0.01912036 0.02135001 0.02421774
v -0.01346791 0.02127922 0.02123412
v -0.00781546 0.02077900 0.02668814
v -0.00583718 0.02077298 0.02290177
v -0.02432812 0.00000254 -0.01994465
v -0.02432812 0.00534872 -0.01994465
v 0.03449261 0.00534872 -0.02189756
v -0.02293949 0.01402671 -0.00398313
v -0.02142209 0.01418618 0.00012216
v -0.02069651 0.01425404 -0.00592281
v -0.01443616 0.01561811 -0.00635319
v -0.01994910 0.01493613 -0.00656950
v -0.02017879 0.01561811 -0.00786118
v -0.02346325 0.01561811 -0.01213008
v -0.02132757 0.01584554 -0.01632696
v -0.02400695 0.01561811 -0.01661773
v -0.02223012 0.01544133 -0.00918016
v -0.02086820 0.01584554 -0.01173623
v -0.02017879 0.01561811 -0.00786118
v -0.02223012 0.01544133 -0.02140125
v -0.02086820 0.01584554 -0.01976575
v -0.02017879 0.01561811 -0.02191288
v -0.02346325 0.01561811 -0.01989993
v -0.02017879 0.01561811 -0.02191288
v -0.02223012 0.01544133 -0.02140125
v -0.01994910 0.01493613 -0.02262859
v -0.01994910 0.01309989 -0.02262859
v -0.01994910 0.00534872 -0.02262859
v -0.01994910 0.00941010 -0.02262859
v -0.02040921 0.01461363 0.00136414
v -0.01070947 0.01543587 0.00167233
v -0.01070947 0.01448514 0.00167233
v -0.00169932 0.01448514 0.00497260
v -0.00169932 0.01543587 0.00497260
v -0.00053509 0.01448514 0.00998910
v -0.00583718 0.02041038 0.02859714
v -0.01346791 0.01982657 0.02882795
v -0.00583718 0.01944101 0.02859714
v -0.01346791 0.02079595 0.02882795
v -0.02109863 0.02118132 0.02526185
v -0.02109863 0.02021195 0.02526185
v -0.00260393 0.02028199 0.01629369
v -0.00329373 0.01931261 0.02345752
v -0.00260393 0.01931261 0.01629369
v -0.00329373 0.02028199 0.02345752
v -0.00169932 0.02028199 0.00497260
v -0.00053509 0.01931261 0.00998910
v -0.00169932 0.01931261 0.00497260
v -0.00053509 0.02028199 0.00998910
v -0.02040921 0.01944101 0.00136414
v -0.01070947 0.02028199 0.00167233
v -0.01070947 0.01931261 0.00167233
v -0.02040921 0.02041038 0.00136414
v -0.02364208 0.02021195 0.01179229
v -0.02364208 0.02079595 0.00532372
v -0.02364208 0.01982657 0.00532372
v -0.02364208 0.02118132 0.01179229
v -0.02364208 0.02034054 0.01901072
v -0.02364208 0.02130991 0.01901072
v -0.00583718 0.01749963 0.02859714
v -0.01346791 0.01594983 0.02882795
v -0.00583718 0.01556436 0.02859714
v -0.01346791 0.01788500 0.02882795
v -0.02109863 0.01827057 0.02526185
v -0.02109863 0.01633540 0.02526185
v -0.00329373 0.01737104 0.02345752
v -0.00260393 0.01737104 0.01629369
v -0.00169932 0.01737104 0.00497260
v -0.00053509 0.01543587 0.00998910
v -0.00053509 0.01737104 0.00998910
v -0.02040921 0.01556436 0.00136414
v -0.01070947 0.01737104 0.00167233
v -0.02040921 0.01749963 0.00136414
v -0.02364208 0.01633540 0.01179229
v -0.02364208 0.01788500 0.00532372
v -0.02364208 0.01594983 0.00532372
v -0.02364208 0.01827057 0.01179229
v -0.02364208 0.01646380 0.01901072
v -0.02364208 0.01839896 0.01901072
v -0.02490007 -0.01493107 -0.01671460
v 0.03449261 0.00000254 -0.02189756
v -0.00053509 0.00000254 0.00998910
v -0.02040921 -0.01460857 0.00136414
v 0.03449261 0.01531755 -0.02189756
v 0.02427611 0.01523497 0.00209668
v -0.01346791 0.02115835 0.02692949
v -0.00329373 0.01543587 0.02345752
v -0.00260393 0.01543587 0.01629369
vt 0.46709575 0.36361604
vt 0.46528478 0.37150291
vt 0.46528478 0.36361604
vt 0.46528478 0.34972016
vt 0.46709575 0.35587791
vt 0.46528478 0.35587791
vt 0.46862244 0.35013016
vt 0.46714693 0.34917803
vt 0.46980300 0.35013016
vt 0.46862244 0.35587791
vt 0.46980300 0.35587791
vt 0.46862244 0.36361604
vt 0.46862244 0.37150291
vt 0.46709575 0.37150291
vt 0.46980300 0.37150291
vt 0.46758403 0.34059479
vt 0.46862244 0.34425929
vt 0.46745944 0.34450216
vt 0.46758403 0.33734029
vt 0.46862244 0.34059479
vt 0.46980300 0.34821429
vt 0.46758403 0.34780428
vt 0.46862244 0.34821429
vt 0.46758403 0.34780428
vt 0.46862244 0.34821429
vt 0.46980300 0.34821429
vt 0.46980300 0.33625541
vt 0.46862244 0.33625541
vt 0.46862244 0.33625541
vt 0.46758403 0.33625541
vt 0.46758403 0.33625541
vt 0.46980300 0.34821429
vt 0.46862244 0.34821429
vt 0.46758403 0.34780428
vt 0.46862244 0.34821429
vt 0.46980300 0.34821429
vt 0.46758403 0.33625541
vt 0.46980300 0.33625541
vt 0.46862244 0.33625541
vt 0.46980300 0.33625541
vt 0.46862244 0.33734029
vt 0.46862244 0.34821429
vt 0.46980300 0.34821429
vt 0.46758403 0.34780428
vt 0.46785325 0.34748529
vt 0.46862244 0.34780428
vt 0.47114415 0.34821429
vt 0.47114415 0.34821429
vt 0.47114415 0.34821429
vt 0.47114415 0.34821429
vt 0.47114415 0.34821429
vt 0.47114415 0.34821429
vt 0.47114415 0.36354154
vt 0.46980300 0.36361604
vt 0.47114415 0.35587791
vt 0.47114415 0.37150291
vt 0.47114415 0.33625541
vt 0.47114415 0.33625541
vt 0.46980300 0.33625541
vt 0.46980300 0.33734029
vt 0.47114415 0.33625541
vt 0.47114415 0.33625541
vt 0.46758403 0.34657416
vt 0.46862244 0.34657416
vt 0.46723790 0.34657416
vt 0.46758403 0.34780428
vt 0.46723790 0.34534404
vt 0.46723790 0.34657416
vt 0.46723790 0.34534404
vt 0.46723790 0.34657416
vt 0.46723790 0.34657416
vt 0.46723790 0.34534404
vt 0.46723790 0.34657416
vt 0.46723790 0.34450216
vt 0.46723790 0.34059479
vt 0.46723790 0.34384916
vt 0.46723790 0.34059479
vt 0.46723790 0.34384916
vt 0.46723790 0.33625541
vt 0.46723790 0.33625541
vt 0.46723790 0.33625541
vt 0.46723790 0.34493404
vt 0.46723790 0.34493404
vt 0.46723790 0.34493404
vt 0.46723790 0.34493404
vt 0.46723790 0.33625541
vt 0.46723790 0.33734029
vt 0.46723790 0.33625541
vt 0.46723790 0.33625541
vt 0.46723790 0.34059479
vt 0.46723790 0.34384916
vt 0.46723790 0.34059479
vt 0.46723790 0.33734029
vt 0.46723790 0.34493404
vt 0.46723790 0.34493404
vt 0.46723790 0.34384916
vt 0.46723790 0.33625541
vt 0.46528478 0.37150291
vt 0.46709575 0.36361604
vt 0.46528478 0.36361604
vt 0.46709575 0.35587791
vt 0.46528478 0.35587791
vt 0.46528478 0.34972016
vt 0.46714693 0.34917803
vt 0.46862244 0.35013016
vt 0.46862244 0.35587791
vt 0.46862244 0.36361604
vt 0.46980300 0.35587791
vt 0.46980300 0.35013016
vt 0.46980300 0.37150291
vt 0.46862244 0.37150291
vt 0.46709575 0.37150291
vt 0.46862244 0.34425929
vt 0.46758403 0.34059479
vt 0.46745944 0.34450216
vt 0.46862244 0.34059479
vt 0.46758403 0.33734029
vt 0.46980300 0.34821429
vt 0.46980300 0.34821429
vt 0.46862244 0.34821429
vt 0.46758403 0.34780428
vt 0.46758403 0.34780428
vt 0.46758403 0.33625541
vt 0.46862244 0.33625541
vt 0.46758403 0.33625541
vt 0.46862244 0.33625541
vt 0.46980300 0.33625541
vt 0.46980300 0.34821429
vt 0.46862244 0.34821429
vt 0.46862244 0.34821429
vt 0.46862244 0.34821429
vt 0.46758403 0.34780428
vt 0.46758403 0.33625541
vt 0.46862244 0.33625541
vt 0.46862244 0.33734029
vt 0.46980300 0.33625541
vt 0.46980300 0.33625541
vt 0.46980300 0.34821429
vt 0.46862244 0.34821429
vt 0.46785325 0.34748529
vt 0.46758403 0.34780428
vt 0.46758403 0.34780428
vt 0.46980300 0.34821429
vt 0.46980300 0.36361604
vt 0.46980300 0.33625541
vt 0.46980300 0.33734029
vt 0.47114415 0.33625541
vt 0.47114415 0.33625541
vt 0.46862244 0.34780428
vt 0.46758403 0.34657416
vt 0.46862244 0.34657416
vt 0.46723790 0.34657416
vt 0.46723790 0.34657416
vt 0.46723790 0.34534404
vt 0.46723790 0.34534404
vt 0.46723790 0.34657416
vt 0.46723790 0.34657416
vt 0.46723790 0.34534404
vt 0.46723790 0.34450216
vt 0.46723790 0.34657416
vt 0.46674962 0.34657416
vt 0.46723790 0.34384916
vt 0.46723790 0.34059479
vt 0.46723790 0.33625541
vt 0.46723790 0.33625541
vt 0.46723790 0.33625541
vt 0.46723790 0.34493404
vt 0.46723790 0.34493404
vt 0.46723790 0.34493404
vt 0.46723790 0.34384916
vt 0.46723790 0.33625541
vt 0.46723790 0.33625541
vt 0.46723790 0.33625541
vt 0.46723790 0.33734029
vt 0.46723790 0.33734029
vt 0.46723790 0.34059479
vt 0.46723790 0.34059479
vt 0.46723790 0.34384916
vt 0.46723790 0.34384916
vt 0.46723790 0.34493404
vt 0.46723790 0.34493404
vt 0.46723790 0.33625541
vt 0.46723790 0.33625541
vt 0.46723790 0.33625541
vt 0.46862244 0.33625541
vt 0.46674962 0.34657416
vt 0.46723790 0.33734029
vt 0.46723790 0.33734029
vt 0.46723790 0.33734029
vt 0.46862244 0.33625541
vt 0.47114415 0.34821429
vt 0.47114415 0.33625541
vt 0.46723790 0.34059479
vt 0.46723790 0.33734029
vt 0.46723790 0.33734029
vt 0.46723790 0.34493404
vt 0.27507405 0.33734029
vt 0.27625461 0.34059479
vt 0.27507405 0.34059479
vt 0.27625461 0.34425929
vt 0.27507405 0.34425929
vt 0.27625461 0.34821429
vt 0.27507405 0.34780428
vt 0.27625461 0.34780428
vt 0.27759577 0.34821429
vt 0.27759577 0.34821429
vt 0.27759577 0.34493404
vt 0.27625461 0.33734029
vt 0.27759577 0.34059479
vt 0.27625461 0.34657416
vt 0.27759577 0.34657416
vt 0.27507405 0.34657416
vt 0.27625461 0.34425929
vt 0.27507405 0.34059479
vt 0.27507405 0.34425929
vt 0.27625461 0.34059479
vt 0.27507405 0.33734029
vt 0.27625461 0.34821429
vt 0.27507405 0.34780428
vt 0.27507405 0.34821429
vt 0.27759577 0.34821429
vt 0.27625461 0.34780428
vt 0.27759577 0.34493404
vt 0.27759577 0.34059479
vt 0.27625461 0.33734029
vt 0.27625461 0.34657416
vt 0.27759577 0.34821429
vt 0.27759577 0.34657416
vt 0.27507405 0.34657416
vt 0.27507405 0.34821429
vt 0.27759577 0.33625541
vt 0.27759577 0.33625541
vt 0.07818800 0.31696429
vt 0.07612032 0.31696429
vt 0.07623488 0.31696429
vt 0.07999897 0.31696429
vt 0.07818800 0.31696429
vt 0.07999897 0.31696429
vt 0.07818800 0.31696429
vt 0.07612032 0.31696429
vt 0.07623488 0.31696429
vt 0.07818800 0.32660991
vt 0.07623488 0.32660991
vt 0.07999897 0.31745979
vt 0.07818800 0.31745979
vt 0.07999897 0.32660991
vt 0.07818800 0.33492891
vt 0.07623488 0.33625541
vt 0.07623488 0.36354154
vt 0.07818800 0.37150291
vt 0.07623488 0.37150291
vt 0.07999897 0.37150291
vt 0.07818800 0.37788403
vt 0.07623488 0.37946429
vt 0.07623488 0.37946429
vt 0.07818800 0.37946429
vt 0.07623488 0.37946429
vt 0.07999897 0.37946429
vt 0.07818800 0.37946429
vt 0.07999897 0.37946429
vt 0.07818800 0.37946429
vt 0.07623488 0.37946429
vt 0.07382347 0.31696429
vt 0.07232863 0.31696429
vt 0.07232863 0.31696429
vt 0.07382347 0.31696429
vt 0.07382347 0.31696429
vt 0.07232863 0.31696429
vt 0.07818800 0.31696429
vt 0.07612032 0.31696429
vt 0.07999897 0.31696429
vt 0.07232863 0.31696429
vt 0.07382347 0.31696429
vt 0.07382347 0.31696429
vt 0.07232863 0.31696429
vt 0.07623488 0.34821429
vt 0.07818800 0.35587791
vt 0.07623488 0.35587791
vt 0.08152566 0.37788403
vt 0.07999897 0.37788403
vt 0.08152566 0.37150291
vt 0.08270622 0.37788403
vt 0.07999897 0.37946429
vt 0.08152566 0.37946429
vt 0.08152566 0.37946429
vt 0.08152566 0.37946429
vt 0.08270622 0.37946429
vt 0.08270622 0.37946429
vt 0.08152566 0.31696429
vt 0.07999897 0.31696429
vt 0.08152566 0.31696429
vt 0.08152566 0.31696429
vt 0.08270622 0.31696429
vt 0.08270622 0.31696429
vt 0.08152566 0.31696429
vt 0.08152566 0.31745979
vt 0.08270622 0.31696429
vt 0.08270622 0.31745979
vt 0.08152566 0.33384403
vt 0.08005016 0.33540641
vt 0.08152566 0.32660991
vt 0.08270622 0.32660991
vt 0.08270622 0.33384403
vt 0.07818800 0.34059479
vt 0.07623488 0.34059479
vt 0.07965285 0.34059479
vt 0.07818800 0.34425929
vt 0.07623488 0.34493404
vt 0.07232863 0.31696429
vt 0.07232863 0.31696429
vt 0.07232863 0.31696429
vt 0.07232863 0.31696429
vt 0.07232863 0.31696429
vt 0.07232863 0.31696429
vt 0.07232863 0.31696429
vt 0.07232863 0.31696429
vt 0.07232863 0.31696429
vt 0.07232863 0.31696429
vt 0.07818800 0.37946429
vt 0.07623488 0.37946429
vt 0.07623488 0.37946429
vt 0.07999897 0.37946429
vt 0.07818800 0.37946429
vt 0.07999897 0.37946429
vt 0.08270622 0.37946429
vt 0.08270622 0.37946429
vt 0.08152566 0.37946429
vt 0.08152566 0.37946429
vt 0.08270622 0.37946429
vt 0.07965285 0.34425929
vt 0.08014113 0.34059479
vt 0.08014113 0.34425929
vt 0.08048725 0.33734029
vt 0.08036266 0.33694966
vt 0.08014113 0.34059479
vt 0.08014113 0.34450216
vt 0.08152566 0.33625541
vt 0.08270622 0.33625541
vt 0.08152566 0.33625541
vt 0.08014113 0.34300541
vt 0.08014113 0.34059479
vt 0.08014113 0.34384916
vt 0.08014113 0.33818403
vt 0.08014113 0.34059479
vt 0.08014113 0.33734029
vt 0.08014113 0.34059479
vt 0.08014113 0.34384916
vt 0.08048725 0.33625541
vt 0.08270622 0.33625541
vt 0.08152566 0.33625541
vt 0.08014113 0.34384916
vt 0.08014113 0.34059479
vt 0.08014113 0.33818403
vt 0.08014113 0.34059479
vt 0.08014113 0.34300541
vt 0.08270622 0.37150291
vt 0.08404738 0.37946429
vt 0.08404738 0.37946429
vt 0.08404738 0.37946429
vt 0.08404738 0.37946429
vt 0.08404738 0.37946429
vt 0.08404738 0.37946429
vt 0.08404738 0.31696429
vt 0.08270622 0.31696429
vt 0.08404738 0.31696429
vt 0.08404738 0.31696429
vt 0.08404738 0.31696429
vt 0.08404738 0.33625541
vt 0.08404738 0.32660991
vt 0.08404738 0.33625541
vt 0.08404738 0.33625541
vt 0.07965285 0.34657416
vt 0.08014113 0.34657416
vt 0.07818800 0.34657416
vt 0.07623488 0.34657416
vt 0.07818800 0.34972016
vt 0.07232863 0.31696429
vt 0.07232863 0.31696429
vt 0.07232863 0.31696429
vt 0.07232863 0.31696429
vt 0.07232863 0.31696429
vt 0.07232863 0.31696429
vt 0.07232863 0.31696429
vt 0.07232863 0.31696429
vt 0.07232863 0.31696429
vt 0.07232863 0.31696429
vt 0.07623488 0.37946429
vt 0.07818800 0.37946429
vt 0.07999897 0.37946429
vt 0.08270622 0.37946429
vt 0.08152566 0.37946429
vt 0.08404738 0.37946429
vt 0.08014113 0.33734029
vt 0.08014113 0.34059479
vt 0.08014113 0.34059479
vt 0.08014113 0.33625541
vt 0.08014113 0.33734029
vt 0.08014113 0.34059479
vt 0.08014113 0.33734029
vt 0.08014113 0.33734029
vt 0.08014113 0.34384916
vt 0.08014113 0.34059479
vt 0.08014113 0.33625541
vt 0.08014113 0.33625541
vt 0.08014113 0.33625541
vt 0.08014113 0.33625541
vt 0.08014113 0.33734029
vt 0.08014113 0.33625541
vt 0.08014113 0.33734029
vt 0.08014113 0.33734029
vt 0.08014113 0.33625541
vt 0.08014113 0.33734029
vt 0.08014113 0.34384916
vt 0.08014113 0.34059479
vt 0.08014113 0.34384916
vt 0.08014113 0.34059479
vt 0.08014113 0.34493404
vt 0.08014113 0.34493404
vt 0.08014113 0.34493404
vt 0.08014113 0.34493404
vt 0.08014113 0.34493404
vt 0.08014113 0.34384916
vt 0.08014113 0.34493404
vt 0.08014113 0.34059479
vt 0.08014113 0.33734029
vt 0.08014113 0.33734029
vt 0.08014113 0.34384916
vt 0.08014113 0.34059479
vt 0.08014113 0.34384916
vt 0.08014113 0.33625541
vt 0.08014113 0.33625541
vt 0.08014113 0.33625541
vt 0.08014113 0.33625541
vt 0.08014113 0.33625541
vt 0.08014113 0.33734029
vt 0.08014113 0.33625541
vt 0.08014113 0.34384916
vt 0.08014113 0.34059479
vt 0.08014113 0.34384916
vt 0.08014113 0.34493404
vt 0.08014113 0.34493404
vt 0.08014113 0.34493404
vt 0.08014113 0.34493404
vt 0.08014113 0.34493404
vt 0.08014113 0.34493404
vt 0.07612032 0.31696429
vt 0.07818800 0.31696429
vt 0.07623488 0.31696429
vt 0.07612032 0.31696429
vt 0.07818800 0.31696429
vt 0.07999897 0.31696429
vt 0.07999897 0.31696429
vt 0.07999897 0.31696429
vt 0.07623488 0.31696429
vt 0.07818800 0.32660991
vt 0.07818800 0.31745979
vt 0.07623488 0.32660991
vt 0.07818800 0.33492891
vt 0.07999897 0.32660991
vt 0.07999897 0.31745979
vt 0.07623488 0.36354154
vt 0.07818800 0.37150291
vt 0.07818800 0.36361604
vt 0.07623488 0.37150291
vt 0.07818800 0.37788403
vt 0.07999897 0.37150291
vt 0.07623488 0.37946429
vt 0.07818800 0.37946429
vt 0.07818800 0.37946429
vt 0.07623488 0.37946429
vt 0.07623488 0.37946429
vt 0.07999897 0.37946429
vt 0.07999897 0.37946429
vt 0.07999897 0.37946429
vt 0.07232863 0.31696429
vt 0.07382347 0.31696429
vt 0.07232863 0.31696429
vt 0.07232863 0.31696429
vt 0.07382347 0.31696429
vt 0.07382347 0.31696429
vt 0.07818800 0.31696429
vt 0.07818800 0.31696429
vt 0.07612032 0.31696429
vt 0.07999897 0.31696429
vt 0.07232863 0.31696429
vt 0.07232863 0.31696429
vt 0.07382347 0.31696429
vt 0.07623488 0.34821429
vt 0.07818800 0.35587791
vt 0.07818800 0.34972016
vt 0.07623488 0.35587791
vt 0.08152566 0.37788403
vt 0.07999897 0.37788403
vt 0.08270622 0.37788403
vt 0.08152566 0.37150291
vt 0.08152566 0.37946429
vt 0.08270622 0.37946429
vt 0.08152566 0.37946429
vt 0.08270622 0.37946429
vt 0.08152566 0.37946429
vt 0.08152566 0.31696429
vt 0.08270622 0.31696429
vt 0.08152566 0.31696429
vt 0.08270622 0.31696429
vt 0.08152566 0.31696429
vt 0.08152566 0.31696429
vt 0.08270622 0.31745979
vt 0.08152566 0.31745979
vt 0.08270622 0.31696429
vt 0.08152566 0.33384403
vt 0.08005016 0.33540641
vt 0.08270622 0.33384403
vt 0.08152566 0.32660991
vt 0.08270622 0.32660991
vt 0.07623488 0.33625541
vt 0.07818800 0.34059479
vt 0.07623488 0.34059479
vt 0.07818800 0.34425929
vt 0.07965285 0.34059479
vt 0.07232863 0.31696429
vt 0.07232863 0.31696429
vt 0.07232863 0.31696429
vt 0.07232863 0.31696429
vt 0.07232863 0.31696429
vt 0.07232863 0.31696429
vt 0.07232863 0.31696429
vt 0.07232863 0.31696429
vt 0.07232863 0.31696429
vt 0.07232863 0.31696429
vt 0.07623488 0.37946429
vt 0.07818800 0.37946429
vt 0.07623488 0.37946429
vt 0.07818800 0.37946429
vt 0.07999897 0.37946429
vt 0.07999897 0.37946429
vt 0.08270622 0.37946429
vt 0.08270622 0.37946429
vt 0.08270622 0.37946429
vt 0.08152566 0.37946429
vt 0.08152566 0.37946429
vt 0.07965285 0.34425929
vt 0.08014113 0.34059479
vt 0.08014113 0.34425929
vt 0.08014113 0.34059479
vt 0.08036266 0.33694966
vt 0.08048725 0.33734029
vt 0.08152566 0.33625541
vt 0.08152566 0.33625541
vt 0.08270622 0.33625541
vt 0.08014113 0.34300541
vt 0.08014113 0.34059479
vt 0.08014113 0.34059479
vt 0.08014113 0.34384916
vt 0.08014113 0.34384916
vt 0.08014113 0.33734029
vt 0.08014113 0.33734029
vt 0.08014113 0.33818403
vt 0.08048725 0.33625541
vt 0.08152566 0.33625541
vt 0.08270622 0.33625541
vt 0.08014113 0.34384916
vt 0.08014113 0.34059479
vt 0.08014113 0.34300541
vt 0.08014113 0.34059479
vt 0.08014113 0.33818403
vt 0.08014113 0.33734029
vt 0.08404738 0.37150291
vt 0.08270622 0.37150291
vt 0.08270622 0.31696429
vt 0.08014113 0.34657416
vt 0.08014113 0.34450216
vt 0.07965285 0.34657416
vt 0.07623488 0.34493404
vt 0.07818800 0.34657416
vt 0.07623488 0.34657416
vt 0.07232863 0.31696429
vt 0.07232863 0.31696429
vt 0.07232863 0.31696429
vt 0.07232863 0.31696429
vt 0.07232863 0.31696429
vt 0.07232863 0.31696429
vt 0.07232863 0.31696429
vt 0.07232863 0.31696429
vt 0.07232863 0.31696429
vt 0.07232863 0.31696429
vt 0.07623488 0.37946429
vt 0.07623488 0.37946429
vt 0.07818800 0.37946429
vt 0.07999897 0.37946429
vt 0.08270622 0.37946429
vt 0.08152566 0.37946429
vt 0.08014113 0.34384916
vt 0.08014113 0.34059479
vt 0.08014113 0.34059479
vt 0.08014113 0.33734029
vt 0.08014113 0.33734029
vt 0.08014113 0.33625541
vt 0.08014113 0.33734029
vt 0.08014113 0.34059479
vt 0.08014113 0.33734029
vt 0.08014113 0.34059479
vt 0.08014113 0.34384916
vt 0.08014113 0.34384916
vt 0.08014113 0.33625541
vt 0.08014113 0.33625541
vt 0.08014113 0.33625541
vt 0.08014113 0.33625541
vt 0.08014113 0.33734029
vt 0.08014113 0.33625541
vt 0.08014113 0.33734029
vt 0.08014113 0.33625541
vt 0.08014113 0.34384916
vt 0.08014113 0.34059479
vt 0.08014113 0.34059479
vt 0.08014113 0.34384916
vt 0.08014113 0.34493404
vt 0.08014113 0.34493404
vt 0.08014113 0.34493404
vt 0.08014113 0.34493404
vt 0.08014113 0.34493404
vt 0.08014113 0.34493404
vt 0.08014113 0.33734029
vt 0.08014113 0.34059479
vt 0.08014113 0.33734029
vt 0.08014113 0.34059479
vt 0.08014113 0.34384916
vt 0.08014113 0.34384916
vt 0.08014113 0.33625541
vt 0.08014113 0.33625541
vt 0.08014113 0.33734029
vt 0.08014113 0.33625541
vt 0.08014113 0.33625541
vt 0.08014113 0.34384916
vt 0.08014113 0.34059479
vt 0.08014113 0.34384916
vt 0.08014113 0.34493404
vt 0.08014113 0.34493404
vt 0.08014113 0.34493404
vt 0.08014113 0.34493404
vt 0.08014113 0.34493404
vt 0.08014113 0.34493404
vt 0.07818800 0.36361604
vt 0.08404738 0.31696429
vt 0.08404738 0.33625541
vt 0.08014113 0.34384916
vt 0.07818800 0.37946429
vt 0.07382347 0.31696429
vt 0.08014113 0.34059479
vt 0.08014113 0.33625541
vt 0.08014113 0.33625541
f 1/1 2/2 3/3
f 4/4 5/5 6/6
f 5/5 3/3 6/6
f 7/7 5/5 8/8
f 9/9 10/10 7/7
f 11/11 12/12 10/10
f 10/10 1/1 5/5
f 1/1 13/13 14/14
f 12/12 15/15 13/13
f 16/16 17/17 18/18
f 19/19 20/20 16/16
f 7/7 21/21 9/9
f 7/7 22/22 23/23
f 23/23 24/24 25/25
f 23/23 26/26 21/21
f 27/27 28/28 29/29
f 29/29 30/30 31/31
f 25/25 32/32 26/26
f 24/24 33/33 25/25
f 34/34 35/35 33/33
f 32/32 35/35 36/36
f 28/28 37/37 30/30
f 38/38 39/39 28/28
f 40/40 41/41 39/39
f 39/39 19/19 37/37
f 36/36 42/42 43/43
f 35/35 44/44 42/42
f 42/42 45/45 46/46
f 47/47 43/43 48/48
f 49/49 26/26 32/32
f 49/49 36/36 47/47
f 50/50 21/21 51/51
f 21/21 52/52 51/51
f 11/11 53/53 54/54
f 9/9 55/55 11/11
f 54/54 56/56 15/15
f 38/38 57/57 58/58
f 59/59 57/57 27/27
f 60/60 61/61 62/62
f 40/40 58/58 61/61
f 63/63 46/46 45/45
f 18/18 64/64 63/63
f 65/65 44/44 66/66
f 67/67 68/68 65/65
f 69/69 63/63 68/68
f 68/68 45/45 44/44
f 24/24 70/70 34/34
f 71/71 72/72 70/70
f 72/72 65/65 70/70
f 70/70 66/66 34/34
f 8/8 73/73 22/22
f 73/73 74/74 71/71
f 22/22 71/71 24/24
f 75/75 76/76 74/74
f 76/76 77/77 78/78
f 31/31 79/79 80/80
f 79/79 81/81 80/80
f 67/67 82/82 83/83
f 72/72 76/76 82/82
f 82/82 78/78 84/84
f 83/83 84/84 85/85
f 30/30 86/86 79/79
f 37/37 87/87 86/86
f 87/87 88/88 86/86
f 86/86 89/89 79/79
f 16/16 87/87 19/19
f 18/18 90/90 16/16
f 91/91 92/92 90/90
f 90/90 93/93 87/87
f 69/69 91/91 18/18
f 69/69 83/83 94/94
f 94/94 85/85 95/95
f 94/94 96/96 91/91
f 89/89 97/97 81/81
f 98/98 99/99 100/100
f 100/100 101/101 102/102
f 103/103 101/101 104/104
f 101/101 105/105 104/104
f 99/99 106/106 101/101
f 107/107 108/108 106/106
f 106/106 109/109 105/105
f 110/110 107/107 111/111
f 111/111 99/99 112/112
f 113/113 114/114 115/115
f 116/116 117/117 114/114
f 118/118 105/105 109/109
f 119/119 120/120 118/118
f 120/120 121/121 122/122
f 105/105 122/122 104/104
f 123/123 124/124 125/125
f 126/126 127/127 124/124
f 128/128 129/129 119/119
f 128/128 130/130 131/131
f 130/130 132/132 131/131
f 131/131 121/121 129/129
f 133/133 126/126 123/123
f 117/117 134/134 133/133
f 135/135 136/136 134/134
f 134/134 137/137 126/126
f 138/138 139/139 130/130
f 139/139 140/140 141/141
f 130/130 141/141 142/142
f 47/47 143/143 138/138
f 49/49 119/119 52/52
f 49/49 138/138 128/128
f 51/51 109/109 50/50
f 52/52 118/118 51/51
f 144/144 55/55 108/108
f 55/55 109/109 108/108
f 56/56 144/144 110/110
f 137/137 57/57 127/127
f 57/57 145/145 127/127
f 146/146 147/147 136/136
f 136/136 148/148 137/137
f 149/149 150/150 140/140
f 151/151 115/115 150/150
f 141/141 152/152 142/142
f 140/140 153/153 141/141
f 150/150 154/154 153/153
f 153/153 155/155 152/152
f 121/121 156/156 157/157
f 142/142 156/156 132/132
f 152/152 158/158 156/156
f 157/157 158/158 159/159
f 104/104 160/160 161/161
f 122/122 157/157 160/160
f 162/162 163/163 159/159
f 164/164 165/165 166/166
f 125/125 165/165 123/123
f 155/155 167/167 158/158
f 168/168 169/169 167/167
f 167/167 170/170 162/162
f 158/158 162/162 159/159
f 123/123 171/171 133/133
f 172/172 171/171 165/165
f 173/173 174/174 171/171
f 133/133 174/174 117/117
f 174/174 114/114 117/117
f 175/175 176/176 174/174
f 177/177 178/178 176/176
f 176/176 115/115 114/114
f 178/178 154/154 115/115
f 179/179 180/180 178/178
f 180/180 181/181 168/168
f 154/154 168/168 155/155
f 182/182 173/173 172/172
f 183/183 175/175 173/173
f 184/184 172/172 164/164
f 1/1 14/14 2/2
f 4/4 8/8 5/5
f 5/5 1/1 3/3
f 7/7 10/10 5/5
f 9/9 11/11 10/10
f 11/11 54/54 12/12
f 10/10 12/12 1/1
f 1/1 12/12 13/13
f 12/12 54/54 15/15
f 16/16 20/20 17/17
f 19/19 41/41 20/20
f 7/7 23/23 21/21
f 7/7 8/8 22/22
f 23/23 22/22 24/24
f 23/23 25/25 26/26
f 185/185 29/29 31/31
f 59/59 27/27 29/29
f 27/27 38/38 28/28
f 29/29 28/28 30/30
f 25/25 33/33 32/32
f 24/24 34/34 33/33
f 34/34 66/66 35/35
f 32/32 33/33 35/35
f 28/28 39/39 37/37
f 38/38 40/40 39/39
f 40/40 60/60 41/41
f 39/39 41/41 19/19
f 36/36 35/35 42/42
f 35/35 66/66 44/44
f 42/42 44/44 45/45
f 47/47 36/36 43/43
f 49/49 52/52 26/26
f 49/49 32/32 36/36
f 50/50 9/9 21/21
f 21/21 26/26 52/52
f 11/11 55/55 53/53
f 9/9 50/50 55/55
f 54/54 53/53 56/56
f 38/38 27/27 57/57
f 60/60 40/40 61/61
f 40/40 38/38 58/58
f 63/63 64/64 46/46
f 18/18 17/17 64/64
f 65/65 68/68 44/44
f 67/67 69/69 68/68
f 69/69 18/18 63/63
f 68/68 63/63 45/45
f 24/24 71/71 70/70
f 71/71 74/74 72/72
f 72/72 67/67 65/65
f 70/70 65/65 66/66
f 8/8 186/186 73/73
f 22/22 73/73 71/71
f 186/186 8/8 4/4
f 31/31 80/80 187/187
f 31/31 30/30 79/79
f 79/79 89/89 81/81
f 80/80 81/81 188/188
f 67/67 72/72 82/82
f 72/72 74/74 76/76
f 82/82 76/76 78/78
f 83/83 82/82 84/84
f 30/30 37/37 86/86
f 37/37 19/19 87/87
f 87/87 93/93 88/88
f 86/86 88/88 89/89
f 16/16 90/90 87/87
f 18/18 91/91 90/90
f 91/91 96/96 92/92
f 90/90 92/92 93/93
f 69/69 94/94 91/91
f 69/69 67/67 83/83
f 94/94 83/83 85/85
f 94/94 95/95 96/96
f 81/81 97/97 189/189
f 98/98 112/112 99/99
f 100/100 99/99 101/101
f 103/103 102/102 101/101
f 101/101 106/106 105/105
f 99/99 107/107 106/106
f 107/107 144/144 108/108
f 106/106 108/108 109/109
f 110/110 144/144 107/107
f 111/111 107/107 99/99
f 113/113 116/116 114/114
f 116/116 135/135 117/117
f 118/118 120/120 105/105
f 119/119 129/129 120/120
f 120/120 129/129 121/121
f 105/105 120/120 122/122
f 125/125 124/124 190/190
f 123/123 126/126 124/124
f 126/126 137/137 127/127
f 124/124 127/127 145/145
f 128/128 131/131 129/129
f 128/128 138/138 130/130
f 130/130 142/142 132/132
f 131/131 132/132 121/121
f 133/133 134/134 126/126
f 117/117 135/135 134/134
f 135/135 146/146 136/136
f 134/134 136/136 137/137
f 138/138 143/143 139/139
f 139/139 149/149 140/140
f 130/130 139/139 141/141
f 47/47 191/191 143/143
f 49/49 128/128 119/119
f 49/49 47/47 138/138
f 51/51 118/118 109/109
f 52/52 119/119 118/118
f 144/144 53/53 55/55
f 55/55 50/50 109/109
f 56/56 53/53 144/144
f 137/137 148/148 57/57
f 146/146 192/192 147/147
f 136/136 147/147 148/148
f 149/149 151/151 150/150
f 151/151 113/113 115/115
f 141/141 153/153 152/152
f 140/140 150/150 153/153
f 150/150 115/115 154/154
f 153/153 154/154 155/155
f 121/121 132/132 156/156
f 142/142 152/152 156/156
f 152/152 155/155 158/158
f 157/157 156/156 158/158
f 104/104 122/122 160/160
f 122/122 121/121 157/157
f 160/160 157/157 159/159
f 103/103 104/104 161/161
f 162/162 170/170 193/193
f 194/194 166/166 125/125
f 195/195 164/164 166/166
f 164/164 172/172 165/165
f 125/125 166/166 165/165
f 155/155 168/168 167/167
f 168/168 181/181 169/169
f 167/167 169/169 170/170
f 158/158 167/167 162/162
f 123/123 165/165 171/171
f 172/172 173/173 171/171
f 173/173 175/175 174/174
f 133/133 171/171 174/174
f 174/174 176/176 114/114
f 175/175 177/177 176/176
f 177/177 179/179 178/178
f 176/176 178/178 115/115
f 178/178 180/180 154/154
f 179/179 196/196 180/180
f 180/180 196/196 181/181
f 154/154 180/180 168/168
f 197/197 198/198 199/199
f 199/199 200/200 201/201
f 202/202 203/203 204/204
f 205/205 204/204 206/206
f 198/198 207/207 200/200
f 208/208 209/209 198/198
f 206/206 210/210 211/211
f 200/200 211/211 210/210
f 201/201 210/210 212/212
f 212/212 204/204 203/203
f 213/213 214/214 215/215
f 216/216 217/217 214/214
f 218/218 219/219 220/220
f 221/221 222/222 218/218
f 216/216 223/223 224/224
f 224/224 225/225 216/216
f 226/226 227/227 228/228
f 228/228 213/213 226/226
f 222/222 229/229 219/219
f 226/226 215/215 229/229
f 197/197 208/208 198/198
f 199/199 198/198 200/200
f 202/202 230/230 203/203
f 205/205 202/202 204/204
f 198/198 209/209 207/207
f 208/208 231/231 209/209
f 206/206 204/204 210/210
f 200/200 207/207 211/211
f 201/201 200/200 210/210
f 212/212 210/210 204/204
f 213/213 216/216 214/214
f 216/216 225/225 217/217
f 218/218 222/222 219/219
f 221/221 227/227 222/222
f 216/216 213/213 223/223
f 224/224 232/232 225/225
f 226/226 222/222 227/227
f 228/228 223/223 213/213
f 222/222 226/226 229/229
f 226/226 213/213 215/215
f 233/233 234/234 235/235
f 233/233 236/236 237/237
f 237/237 238/238 239/239
f 237/237 240/240 234/234
f 241/241 242/242 243/243
f 244/244 242/242 245/245
f 246/246 247/247 242/242
f 243/243 247/247 248/248
f 249/249 250/250 251/251
f 252/252 253/253 250/250
f 251/251 253/253 254/254
f 255/255 256/256 257/257
f 258/258 256/256 259/259
f 256/256 260/260 261/261
f 256/256 262/262 257/257
f 263/263 264/264 265/265
f 235/235 266/266 263/263
f 234/234 267/267 266/266
f 266/266 268/268 264/264
f 240/240 269/269 270/270
f 239/239 271/271 269/269
f 271/271 245/245 269/269
f 270/270 245/245 241/241
f 267/267 272/272 268/268
f 240/240 273/273 267/267
f 273/273 241/241 274/274
f 273/273 275/275 272/272
f 276/276 277/277 278/278
f 277/277 249/249 278/278
f 252/252 279/279 280/280
f 281/281 282/282 279/279
f 283/283 284/284 260/260
f 258/258 285/285 283/283
f 286/286 287/287 285/285
f 285/285 288/288 284/284
f 236/236 289/289 238/238
f 290/290 291/291 236/236
f 292/292 293/293 291/291
f 291/291 294/294 289/289
f 244/244 295/295 296/296
f 238/238 295/295 271/271
f 289/289 297/297 295/295
f 295/295 298/298 296/296
f 246/246 299/299 300/300
f 246/246 296/296 301/301
f 296/296 302/302 301/301
f 301/301 303/303 299/299
f 248/248 304/304 305/305
f 300/300 304/304 247/247
f 306/306 307/307 304/304
f 305/305 307/307 308/308
f 309/309 310/310 311/311
f 268/268 312/312 309/309
f 272/272 313/313 312/312
f 312/312 314/314 310/310
f 315/315 316/316 317/317
f 265/265 316/316 318/318
f 264/264 309/309 316/316
f 316/316 311/311 317/317
f 319/319 320/320 321/321
f 322/322 323/323 319/319
f 324/324 259/259 323/323
f 320/320 259/259 255/255
f 286/286 325/325 326/326
f 258/258 327/327 286/286
f 324/324 328/328 327/327
f 327/327 329/329 325/325
f 330/330 331/331 332/332
f 306/306 333/333 331/331
f 331/331 334/334 335/335
f 332/332 335/335 336/336
f 300/300 337/337 333/333
f 303/303 337/337 299/299
f 338/338 339/339 337/337
f 333/333 339/339 334/334
f 340/340 341/341 342/342
f 343/343 341/341 344/344
f 341/341 345/345 346/346
f 341/341 347/347 342/342
f 339/339 348/348 334/334
f 349/349 350/350 339/339
f 346/346 351/351 347/347
f 345/345 352/352 346/346
f 352/352 353/353 354/354
f 352/352 355/355 351/351
f 356/356 357/357 282/282
f 358/358 325/325 359/359
f 325/325 360/360 359/359
f 287/287 361/361 288/288
f 326/326 362/362 287/287
f 293/293 363/363 294/294
f 364/364 365/365 293/293
f 297/297 366/366 298/298
f 294/294 367/367 297/297
f 302/302 368/368 303/303
f 298/298 369/369 302/302
f 338/338 370/370 349/349
f 303/303 371/371 338/338
f 372/372 332/332 373/373
f 308/308 374/374 375/375
f 330/330 374/374 307/307
f 372/372 376/376 374/374
f 375/375 376/376 276/276
f 377/377 378/378 379/379
f 311/311 380/380 377/377
f 310/310 381/381 380/380
f 380/380 382/382 378/378
f 383/383 384/384 385/385
f 386/386 317/317 384/384
f 317/317 377/377 384/384
f 385/385 377/377 379/379
f 253/253 387/387 254/254
f 280/280 388/388 253/253
f 389/389 319/319 388/388
f 388/388 321/321 387/387
f 328/328 390/390 329/329
f 322/322 391/391 328/328
f 389/389 279/279 391/391
f 391/391 282/282 390/390
f 360/360 390/390 392/392
f 390/390 357/357 392/392
f 335/335 393/393 394/394
f 393/393 395/395 394/394
f 348/348 393/393 334/334
f 396/396 397/397 393/393
f 398/398 399/399 400/400
f 401/401 402/402 398/398
f 402/402 355/355 354/354
f 402/402 353/353 399/399
f 403/403 404/404 405/405
f 400/400 406/406 403/403
f 406/406 353/353 407/407
f 404/404 407/407 345/345
f 408/408 409/409 410/410
f 405/405 411/411 408/408
f 404/404 412/412 411/411
f 409/409 412/412 343/343
f 413/413 414/414 415/415
f 410/410 414/414 416/416
f 414/414 343/343 344/344
f 414/414 340/340 415/415
f 417/417 418/418 419/419
f 420/420 415/415 418/418
f 415/415 342/342 418/418
f 419/419 342/342 347/347
f 421/421 422/422 401/401
f 421/421 419/419 423/423
f 423/423 347/347 351/351
f 422/422 351/351 355/355
f 424/424 425/425 426/426
f 427/427 428/428 424/424
f 429/429 398/398 428/428
f 428/428 400/400 425/425
f 430/430 431/431 432/432
f 426/426 433/433 430/430
f 425/425 403/403 433/433
f 433/433 405/405 431/431
f 434/434 435/435 397/397
f 431/431 408/408 436/436
f 436/436 410/410 435/435
f 437/437 438/438 439/439
f 397/397 438/438 395/395
f 435/435 416/416 438/438
f 439/439 416/416 413/413
f 440/440 441/441 442/442
f 443/443 439/439 441/441
f 441/441 413/413 420/420
f 442/442 420/420 417/417
f 444/444 429/429 427/427
f 444/444 442/442 445/445
f 445/445 417/417 421/421
f 445/445 401/401 429/429
f 446/446 447/447 448/448
f 449/449 450/450 446/446
f 450/450 451/451 452/452
f 447/447 452/452 453/453
f 454/454 455/455 456/456
f 457/457 458/458 455/455
f 458/458 459/459 455/455
f 455/455 460/460 456/456
f 461/461 462/462 463/463
f 464/464 465/465 462/462
f 465/465 466/466 462/462
f 467/467 468/468 469/469
f 470/470 468/468 471/471
f 468/468 472/472 473/473
f 468/468 474/474 469/469
f 475/475 476/476 477/477
f 478/478 479/479 475/475
f 480/480 446/446 479/479
f 479/479 448/448 476/476
f 449/449 481/481 482/482
f 483/483 456/456 481/481
f 456/456 484/484 481/481
f 482/482 484/484 451/451
f 485/485 480/480 478/478
f 486/486 487/487 485/485
f 487/487 454/454 483/483
f 487/487 449/449 480/480
f 488/488 489/489 490/490
f 461/461 489/489 491/491
f 492/492 466/466 493/493
f 494/494 495/495 492/492
f 496/496 473/473 472/472
f 497/497 498/498 496/496
f 499/499 500/500 498/498
f 498/498 474/474 473/473
f 501/501 452/452 451/451
f 502/502 503/503 501/501
f 504/504 505/505 503/503
f 503/503 453/453 452/452
f 460/460 506/506 484/484
f 507/507 506/506 508/508
f 509/509 501/501 506/506
f 506/506 451/451 484/484
f 510/510 459/459 511/511
f 512/512 513/513 510/510
f 514/514 508/508 513/513
f 459/459 508/508 460/460
f 515/515 516/516 458/458
f 517/517 518/518 516/516
f 518/518 519/519 516/516
f 516/516 511/511 458/458
f 520/520 521/521 522/522
f 523/523 524/524 520/520
f 525/525 485/485 524/524
f 524/524 478/478 521/521
f 526/526 527/527 528/528
f 522/522 527/527 529/529
f 521/521 475/475 527/527
f 527/527 477/477 528/528
f 530/530 531/531 532/532
f 530/530 469/469 533/533
f 469/469 534/534 533/533
f 533/533 535/535 531/531
f 536/536 500/500 537/537
f 538/538 539/539 536/536
f 540/540 534/534 539/539
f 539/539 474/474 500/500
f 541/541 542/542 519/519
f 543/543 544/544 542/542
f 542/542 545/545 546/546
f 519/519 546/546 511/511
f 511/511 547/547 510/510
f 546/546 548/548 547/547
f 548/548 549/549 547/547
f 547/547 512/512 510/510
f 550/550 551/551 552/552
f 553/553 551/551 554/554
f 551/551 555/555 556/556
f 551/551 557/557 552/552
f 558/558 548/548 545/545
f 559/559 560/560 548/548
f 561/561 562/562 553/553
f 563/563 564/564 561/561
f 564/564 565/565 566/566
f 564/564 555/555 562/562
f 494/494 567/567 568/568
f 359/359 537/537 358/358
f 360/360 536/536 359/359
f 497/497 362/362 499/499
f 362/362 537/537 499/499
f 502/502 365/365 504/504
f 365/365 569/569 504/504
f 507/507 367/367 509/509
f 367/367 502/502 509/509
f 512/512 369/369 514/514
f 369/369 507/507 514/514
f 560/560 371/371 549/549
f 371/371 512/512 549/549
f 570/570 571/571 543/543
f 572/572 543/543 541/541
f 573/573 574/574 518/518
f 575/575 490/490 574/574
f 490/490 572/572 574/574
f 574/574 541/541 518/518
f 576/576 577/577 578/578
f 579/579 580/580 576/576
f 581/581 520/520 580/580
f 580/580 522/522 577/577
f 582/582 583/583 584/584
f 585/585 577/577 583/583
f 577/577 529/529 583/583
f 584/584 529/529 526/526
f 586/586 465/465 587/587
f 532/532 588/588 586/586
f 531/531 589/589 588/588
f 588/588 493/493 465/465
f 590/590 540/540 538/538
f 494/494 591/591 590/590
f 492/492 589/589 591/591
f 591/591 535/535 540/540
f 360/360 590/590 538/538
f 357/357 590/590 392/392
f 592/592 593/593 594/594
f 593/593 595/595 594/594
f 544/544 595/595 545/545
f 595/595 558/558 545/545
f 596/596 597/597 595/595
f 598/598 599/599 600/600
f 565/565 601/601 598/598
f 601/601 563/563 602/602
f 601/601 603/603 599/599
f 604/604 605/605 606/606
f 604/604 566/566 607/607
f 607/607 565/565 598/598
f 607/607 600/600 605/605
f 608/608 609/609 610/610
f 608/608 556/556 611/611
f 556/556 604/604 611/611
f 611/611 606/606 609/609
f 612/612 613/613 614/614
f 550/550 613/613 615/615
f 613/613 557/557 608/608
f 613/613 610/610 614/614
f 616/616 617/617 618/618
f 619/619 554/554 617/617
f 554/554 615/615 617/617
f 618/618 615/615 612/612
f 602/602 620/620 603/603
f 602/602 561/561 621/621
f 621/621 553/553 619/619
f 620/620 619/619 616/616
f 622/622 623/623 624/624
f 600/600 625/625 622/622
f 599/599 626/626 625/625
f 625/625 627/627 623/623
f 606/606 628/628 629/629
f 605/605 622/622 628/628
f 630/630 631/631 596/596
f 610/610 632/632 630/630
f 609/609 629/629 632/632
f 633/633 634/634 593/593
f 635/635 614/614 634/634
f 614/614 630/630 634/634
f 634/634 596/596 593/593
f 636/636 637/637 638/638
f 639/639 618/618 637/637
f 637/637 612/612 635/635
f 638/638 635/635 633/633
f 626/626 640/640 627/627
f 603/603 641/641 626/626
f 641/641 616/616 639/639
f 640/640 639/639 636/636
f 233/233 237/237 234/234
f 233/233 290/290 236/236
f 237/237 236/236 238/238
f 237/237 239/239 240/240
f 241/241 245/245 242/242
f 244/244 246/246 242/242
f 246/246 300/300 247/247
f 243/243 242/242 247/247
f 249/249 642/642 250/250
f 252/252 280/280 253/253
f 251/251 250/250 253/253
f 255/255 259/259 256/256
f 258/258 283/283 256/256
f 256/256 283/283 260/260
f 256/256 261/261 262/262
f 263/263 266/266 264/264
f 235/235 234/234 266/266
f 234/234 240/240 267/267
f 266/266 267/267 268/268
f 240/240 239/239 269/269
f 239/239 238/238 271/271
f 271/271 244/244 245/245
f 270/270 269/269 245/245
f 267/267 273/273 272/272
f 240/240 270/270 273/273
f 273/273 270/270 241/241
f 273/273 274/274 275/275
f 276/276 376/376 277/277
f 277/277 642/642 249/249
f 252/252 281/281 279/279
f 281/281 356/356 282/282
f 283/283 285/285 284/284
f 258/258 286/286 285/285
f 286/286 326/326 287/287
f 285/285 287/287 288/288
f 236/236 291/291 289/289
f 290/290 292/292 291/291
f 292/292 364/364 293/293
f 291/291 293/293 294/294
f 244/244 271/271 295/295
f 238/238 289/289 295/295
f 289/289 294/294 297/297
f 295/295 297/297 298/298
f 246/246 301/301 299/299
f 246/246 244/244 296/296
f 296/296 298/298 302/302
f 301/301 302/302 303/303
f 248/248 247/247 304/304
f 300/300 306/306 304/304
f 306/306 330/330 307/307
f 305/305 304/304 307/307
f 309/309 312/312 310/310
f 268/268 272/272 312/312
f 272/272 275/275 313/313
f 312/312 313/313 314/314
f 315/315 318/318 316/316
f 265/265 264/264 316/316
f 264/264 268/268 309/309
f 316/316 309/309 311/311
f 319/319 323/323 320/320
f 322/322 324/324 323/323
f 324/324 258/258 259/259
f 320/320 323/323 259/259
f 286/286 327/327 325/325
f 258/258 324/324 327/327
f 324/324 322/322 328/328
f 327/327 328/328 329/329
f 330/330 306/306 331/331
f 306/306 300/300 333/333
f 331/331 333/333 334/334
f 332/332 331/331 335/335
f 300/300 299/299 337/337
f 303/303 338/338 337/337
f 338/338 349/349 339/339
f 333/333 337/337 339/339
f 340/340 344/344 341/341
f 343/343 412/412 341/341
f 341/341 412/412 345/345
f 341/341 346/346 347/347
f 346/346 352/352 351/351
f 345/345 407/407 352/352
f 352/352 407/407 353/353
f 352/352 354/354 355/355
f 356/356 567/567 357/357
f 358/358 326/326 325/325
f 325/325 329/329 360/360
f 287/287 362/362 361/361
f 326/326 358/358 362/362
f 293/293 365/365 363/363
f 364/364 643/643 365/365
f 297/297 367/367 366/366
f 294/294 363/363 367/367
f 302/302 369/369 368/368
f 298/298 366/366 369/369
f 338/338 371/371 370/370
f 303/303 368/368 371/371
f 349/349 370/370 644/644
f 372/372 330/330 332/332
f 373/373 332/332 336/336
f 308/308 307/307 374/374
f 330/330 372/372 374/374
f 375/375 374/374 376/376
f 377/377 380/380 378/378
f 311/311 310/310 380/380
f 310/310 314/314 381/381
f 380/380 381/381 382/382
f 383/383 386/386 384/384
f 386/386 315/315 317/317
f 317/317 311/311 377/377
f 385/385 384/384 377/377
f 253/253 388/388 387/387
f 280/280 389/389 388/388
f 389/389 322/322 319/319
f 388/388 319/319 321/321
f 328/328 391/391 390/390
f 322/322 389/389 391/391
f 389/389 280/280 279/279
f 391/391 279/279 282/282
f 360/360 329/329 390/390
f 390/390 282/282 357/357
f 335/335 394/394 645/645
f 335/335 334/334 393/393
f 393/393 397/397 395/395
f 645/645 394/394 395/395
f 398/398 402/402 399/399
f 401/401 422/422 402/402
f 402/402 422/422 355/355
f 402/402 354/354 353/353
f 403/403 406/406 404/404
f 400/400 399/399 406/406
f 406/406 399/399 353/353
f 404/404 406/406 407/407
f 408/408 411/411 409/409
f 405/405 404/404 411/411
f 404/404 345/345 412/412
f 409/409 411/411 412/412
f 413/413 416/416 414/414
f 410/410 409/409 414/414
f 414/414 409/409 343/343
f 414/414 344/344 340/340
f 417/417 420/420 418/418
f 420/420 413/413 415/415
f 415/415 340/340 342/342
f 419/419 418/418 342/342
f 421/421 423/423 422/422
f 421/421 417/417 419/419
f 423/423 419/419 347/347
f 422/422 423/423 351/351
f 424/424 428/428 425/425
f 427/427 429/429 428/428
f 429/429 401/401 398/398
f 428/428 398/398 400/400
f 430/430 433/433 431/431
f 426/426 425/425 433/433
f 425/425 400/400 403/403
f 433/433 403/403 405/405
f 432/432 431/431 436/436
f 431/431 405/405 408/408
f 436/436 408/408 410/410
f 437/437 395/395 438/438
f 397/397 435/435 438/438
f 435/435 410/410 416/416
f 439/439 438/438 416/416
f 440/440 443/443 441/441
f 443/443 437/437 439/439
f 441/441 439/439 413/413
f 442/442 441/441 420/420
f 444/444 445/445 429/429
f 444/444 440/440 442/442
f 445/445 442/442 417/417
f 445/445 421/421 401/401
f 446/446 450/450 447/447
f 449/449 482/482 450/450
f 450/450 482/482 451/451
f 447/447 450/450 452/452
f 454/454 457/457 455/455
f 457/457 515/515 458/458
f 458/458 511/511 459/459
f 455/455 459/459 460/460
f 461/461 464/464 462/462
f 464/464 587/587 465/465
f 465/465 493/493 466/466
f 467/467 471/471 468/468
f 470/470 646/646 468/468
f 468/468 646/646 472/472
f 468/468 473/473 474/474
f 475/475 479/479 476/476
f 478/478 480/480 479/479
f 480/480 449/449 446/446
f 479/479 446/446 448/448
f 449/449 483/483 481/481
f 483/483 454/454 456/456
f 456/456 460/460 484/484
f 482/482 481/481 484/484
f 485/485 487/487 480/480
f 486/486 647/647 487/487
f 487/487 647/647 454/454
f 487/487 483/483 449/449
f 488/488 491/491 489/489
f 461/461 463/463 489/489
f 492/492 495/495 466/466
f 494/494 568/568 495/495
f 496/496 498/498 473/473
f 497/497 499/499 498/498
f 499/499 537/537 500/500
f 498/498 500/500 474/474
f 501/501 503/503 452/452
f 502/502 504/504 503/503
f 504/504 569/569 505/505
f 503/503 505/505 453/453
f 460/460 508/508 506/506
f 507/507 509/509 506/506
f 509/509 502/502 501/501
f 506/506 501/501 451/451
f 510/510 513/513 459/459
f 512/512 514/514 513/513
f 514/514 507/507 508/508
f 459/459 513/513 508/508
f 515/515 517/517 516/516
f 517/517 573/573 518/518
f 518/518 541/541 519/519
f 516/516 519/519 511/511
f 520/520 524/524 521/521
f 523/523 525/525 524/524
f 525/525 486/486 485/485
f 524/524 485/485 478/478
f 526/526 529/529 527/527
f 522/522 521/521 527/527
f 521/521 478/478 475/475
f 527/527 475/475 477/477
f 530/530 533/533 531/531
f 530/530 467/467 469/469
f 469/469 474/474 534/534
f 533/533 534/534 535/535
f 536/536 539/539 500/500
f 538/538 540/540 539/539
f 540/540 535/535 534/534
f 539/539 534/534 474/474
f 541/541 543/543 542/542
f 543/543 571/571 544/544
f 542/542 544/544 545/545
f 519/519 542/542 546/546
f 511/511 546/546 547/547
f 546/546 545/545 548/548
f 548/548 560/560 549/549
f 547/547 549/549 512/512
f 550/550 554/554 551/551
f 553/553 562/562 551/551
f 551/551 562/562 555/555
f 551/551 556/556 557/557
f 561/561 564/564 562/562
f 563/563 648/648 564/564
f 564/564 648/648 565/565
f 564/564 566/566 555/555
f 494/494 357/357 567/567
f 359/359 536/536 537/537
f 360/360 538/538 536/536
f 497/497 361/361 362/362
f 362/362 358/358 537/537
f 502/502 363/363 365/365
f 365/365 643/643 569/569
f 507/507 366/366 367/367
f 367/367 363/363 502/502
f 512/512 368/368 369/369
f 369/369 366/366 507/507
f 560/560 370/370 371/371
f 371/371 368/368 512/512
f 644/644 370/370 560/560
f 572/572 570/570 543/543
f 573/573 575/575 574/574
f 575/575 488/488 490/490
f 574/574 572/572 541/541
f 576/576 580/580 577/577
f 579/579 581/581 580/580
f 581/581 523/523 520/520
f 580/580 520/520 522/522
f 582/582 585/585 583/583
f 585/585 578/578 577/577
f 577/577 522/522 529/529
f 584/584 583/583 529/529
f 586/586 588/588 465/465
f 532/532 531/531 588/588
f 531/531 535/535 589/589
f 588/588 589/589 493/493
f 590/590 591/591 540/540
f 494/494 492/492 591/591
f 492/492 493/493 589/589
f 591/591 589/589 535/535
f 360/360 392/392 590/590
f 357/357 494/494 590/590
f 592/592 594/594 544/544
f 593/593 596/596 595/595
f 544/544 594/594 595/595
f 598/598 601/601 599/599
f 565/565 648/648 601/601
f 601/601 648/648 563/563
f 601/601 602/602 603/603
f 604/604 607/607 605/605
f 604/604 555/555 566/566
f 607/607 566/566 565/565
f 607/607 598/598 600/600
f 608/608 611/611 609/609
f 608/608 557/557 556/556
f 556/556 555/555 604/604
f 611/611 604/604 606/606
f 612/612 615/615 613/613
f 550/550 552/552 613/613
f 613/613 552/552 557/557
f 613/613 608/608 610/610
f 616/616 619/619 617/617
f 619/619 553/553 554/554
f 554/554 550/550 615/615
f 618/618 617/617 615/615
f 602/602 621/621 620/620
f 602/602 563/563 561/561
f 621/621 561/561 553/553
f 620/620 621/621 619/619
f 622/622 625/625 623/623
f 600/600 599/599 625/625
f 599/599 603/603 626/626
f 625/625 626/626 627/627
f 629/629 628/628 649/649
f 606/606 605/605 628/628
f 605/605 600/600 622/622
f 628/628 622/622 624/624
f 630/630 632/632 631/631
f 610/610 609/609 632/632
f 609/609 606/606 629/629
f 632/632 629/629 650/650
f 633/633 635/635 634/634
f 635/635 612/612 614/614
f 614/614 610/610 630/630
f 634/634 630/630 596/596
f 636/636 639/639 637/637
f 639/639 616/616 618/618
f 637/637 618/618 612/612
f 638/638 637/637 635/635
f 626/626 641/641 640/640
f 603/603 620/620 641/641
f 641/641 620/620 616/616
f 640/640 641/641 639/639

