# https://github.com/mikedh/trimesh
mtllib material.mtl

o Cozmo_Lift-mesh
usemtl material_0
v -0.00574583 -0.02776294 0.00937092
v -0.00432158 -0.02599066 0.00794649
v -0.00432158 -0.02776294 0.00794649
v -0.00626713 -0.02776294 0.01131635
v -0.00574583 -0.02599066 0.00937092
v -0.00574583 -0.02776294 0.00937092
v -0.00574583 -0.02776294 0.01326197
v -0.00626713 -0.02599066 0.01131635
v -0.00626713 -0.02776294 0.01131635
v -0.00432158 -0.02776294 0.01468592
v -0.00574583 -0.02599066 0.01326197
v -0.00574583 -0.02776294 0.01326197
v -0.00237608 -0.02776294 0.01520740
v -0.00432158 -0.02599066 0.01468592
v -0.00432158 -0.02776294 0.01468592
v -0.00043060 -0.02776294 0.01468592
v -0.00237608 -0.02599066 0.01520740
v -0.00237608 -0.02776294 0.01520740
v 0.00099362 -0.02776294 0.01326197
v -0.00043060 -0.02599066 0.01468592
v -0.00043060 -0.02776294 0.01468592
v 0.00151485 -0.02776294 0.01131635
v 0.00099362 -0.02599066 0.01326197
v 0.00099362 -0.02776294 0.01326197
v 0.00099362 -0.02776294 0.00937092
v 0.00151485 -0.02599066 0.01131635
v 0.00151485 -0.02776294 0.01131635
v -0.00043060 -0.02776294 0.00794649
v 0.00099362 -0.02599066 0.00937092
v 0.00099362 -0.02776294 0.00937092
v -0.00237608 -0.02776294 0.00742531
v -0.00043060 -0.02599066 0.00794649
v -0.00043060 -0.02776294 0.00794649
v -0.00432158 -0.02776294 0.00794649
v -0.00237608 -0.02599066 0.00742531
v -0.00237608 -0.02776294 0.00742531
v -0.00520760 -0.02839475 0.00968152
v -0.00401080 -0.02839475 0.00848496
v -0.00237608 -0.02839475 0.01131635
v -0.00564551 -0.02839475 0.01131635
v -0.00520760 -0.02839475 0.01295089
v -0.00401080 -0.02839475 0.01414787
v -0.00237608 -0.02839475 0.01458585
v -0.00074143 -0.02839475 0.01414787
v 0.00045536 -0.02839475 0.01295089
v 0.00089327 -0.02839475 0.01131635
v 0.00045536 -0.02839475 0.00968152
v -0.00074143 -0.02839475 0.00848496
v -0.00237608 -0.02839475 0.00804663
v -0.00432158 -0.02776294 0.00794649
v -0.00520760 -0.02839475 0.00968152
v -0.00574583 -0.02776294 0.00937092
v -0.00574583 -0.02776294 0.00937092
v -0.00564551 -0.02839475 0.01131635
v -0.00626713 -0.02776294 0.01131635
v -0.00626713 -0.02776294 0.01131635
v -0.00520760 -0.02839475 0.01295089
v -0.00574583 -0.02776294 0.01326197
v -0.00432158 -0.02776294 0.01468592
v -0.00520760 -0.02839475 0.01295089
v -0.00401080 -0.02839475 0.01414787
v -0.00237608 -0.02776294 0.01520740
v -0.00401080 -0.02839475 0.01414787
v -0.00237608 -0.02839475 0.01458585
v -0.00237608 -0.02776294 0.01520740
v -0.00074143 -0.02839475 0.01414787
v -0.00043060 -0.02776294 0.01468592
v 0.00099362 -0.02776294 0.01326197
v -0.00074143 -0.02839475 0.01414787
v 0.00045536 -0.02839475 0.01295089
v 0.00151485 -0.02776294 0.01131635
v 0.00045536 -0.02839475 0.01295089
v 0.00089327 -0.02839475 0.01131635
v 0.00099362 -0.02776294 0.00937092
v 0.00089327 -0.02839475 0.01131635
v 0.00045536 -0.02839475 0.00968152
v 0.00099362 -0.02776294 0.00937092
v -0.00074143 -0.02839475 0.00848496
v -0.00043060 -0.02776294 0.00794649
v -0.00237608 -0.02776294 0.00742531
v -0.00074143 -0.02839475 0.00848496
v -0.00237608 -0.02839475 0.00804663
v -0.00237608 -0.02776294 0.00742531
v -0.00401080 -0.02839475 0.00848496
v -0.00432158 -0.02776294 0.00794649
v 0.00099362 -0.02123057 0.01326197
v -0.00043060 -0.01838552 0.01468592
v -0.00043060 -0.02123057 0.01468592
v -0.00043060 -0.02123057 0.01468592
v -0.00237608 -0.01838552 0.01520740
v -0.00237608 -0.02123057 0.01520740
v -0.00237608 -0.02123057 0.01520740
v -0.00432158 -0.01838552 0.01468592
v -0.00432158 -0.02123057 0.01468592
v -0.00432158 -0.02123057 0.01468592
v -0.00574583 -0.01838552 0.01326197
v -0.00574583 -0.02123057 0.01326197
v -0.00574583 -0.02123057 0.01326197
v -0.00626713 -0.01838552 0.01131635
v -0.00626713 -0.02123057 0.01131635
v -0.00626713 -0.02123057 0.01131635
v -0.00574583 -0.01838552 0.00937092
v -0.00574583 -0.02123057 0.00937092
v -0.00574583 -0.02123057 0.00937092
v -0.00432158 -0.01838552 0.00794649
v -0.00432158 -0.02123057 0.00794649
v -0.00432158 -0.02123057 0.00794649
v -0.00237608 -0.01838552 0.00742531
v -0.00237608 -0.02123057 0.00742531
v -0.00237608 -0.02123057 0.00742531
v -0.00043060 -0.01838552 0.00794649
v -0.00043060 -0.02123057 0.00794649
v -0.00043060 -0.02123057 0.00794649
v 0.00099362 -0.01838552 0.00937092
v 0.00099362 -0.02123057 0.00937092
v 0.00099362 -0.02123057 0.00937092
v 0.00151485 -0.01838552 0.01131635
v 0.00151485 -0.02123057 0.01131635
v 0.00151485 -0.02123057 0.01131635
v 0.00099362 -0.01838552 0.01326197
v 0.00099362 -0.02123057 0.01326197
v -0.00043060 -0.02599066 0.01468592
v -0.00237608 -0.02599066 0.01520740
v -0.00432158 -0.02599066 0.01468592
v -0.00574583 -0.02599066 0.01326197
v -0.00626713 -0.02599066 0.01131635
v -0.00574583 -0.02599066 0.00937092
v -0.00432158 -0.02599066 0.00794649
v -0.00237608 -0.02599066 0.00742531
v 0.00099362 -0.02123057 0.01326197
v 0.00813013 -0.02123057 0.01384323
v 0.00813013 -0.02123057 0.01241886
v 0.00099362 -0.02123057 0.00937092
v 0.00813013 -0.02123057 0.00710374
v -0.00043060 -0.02123057 0.00794649
v 0.00151485 -0.02123057 0.01131635
v 0.00813013 -0.02123057 0.00852787
v 0.00813013 -0.02123057 0.01047337
v -0.00043060 -0.02599066 0.01468592
v 0.00813013 -0.02123057 0.01384323
v -0.00043060 -0.02123057 0.01468592
v 0.00099362 -0.02599066 0.01326197
v 0.00813013 -0.02599066 0.01384323
v -0.00043060 -0.02599066 0.01468592
v -0.00043060 -0.02123057 0.00794649
v 0.00813013 -0.02599066 0.00710374
v -0.00043060 -0.02599066 0.00794649
v 0.00099362 -0.02599066 0.00937092
v 0.00813013 -0.02599066 0.00710374
v 0.00813013 -0.02599066 0.00852787
v 0.00151485 -0.02599066 0.01131635
v 0.00813013 -0.02599066 0.01047337
v 0.00813013 -0.02599066 0.01241886
v 0.04324775 -0.02123057 0.01669216
v 0.04324775 -0.02123057 0.01137661
v 0.04324775 -0.02123057 0.01280111
v 0.04324775 -0.02123057 0.01474654
v 0.00813013 -0.02599066 0.01384323
v 0.04324775 -0.02123057 0.01811617
v 0.00813013 -0.02123057 0.01384323
v 0.04324775 -0.02599066 0.01669216
v 0.04324775 -0.02599066 0.01811617
v 0.00813013 -0.02123057 0.00710374
v 0.04324775 -0.02599066 0.01137661
v 0.00813013 -0.02599066 0.00710374
v 0.04324775 -0.02599066 0.01137661
v 0.04324775 -0.02599066 0.01280111
v 0.04324775 -0.02599066 0.01474654
v 0.04764324 -0.02123057 0.01692628
v 0.04721468 -0.02123057 0.01556813
v 0.04604393 -0.02123057 0.01185745
v 0.04561543 -0.02123057 0.01049900
v 0.04662936 -0.02123057 0.01371264
v 0.04324775 -0.02123057 0.01811617
v 0.04764324 -0.02540981 0.01692628
v 0.04764324 -0.02123057 0.01692628
v 0.04324775 -0.02599066 0.01669216
v 0.04764324 -0.02540981 0.01692628
v 0.04324775 -0.02599066 0.01811617
v 0.04324775 -0.02123057 0.01137661
v 0.04561543 -0.02540981 0.01049900
v 0.04324775 -0.02599066 0.01137661
v 0.04324775 -0.02599066 0.01137661
v 0.04604393 -0.02540981 0.01185745
v 0.04324775 -0.02599066 0.01280111
v 0.04324775 -0.02599066 0.01280111
v 0.04662936 -0.02540981 0.01371264
v 0.04324775 -0.02599066 0.01474654
v 0.04324775 -0.02599066 0.01474654
v 0.04721468 -0.02540981 0.01556813
v 0.04324775 -0.02599066 0.01669216
v 0.04721468 -0.02123057 0.01556813
v 0.05577230 -0.01800394 0.00792766
v 0.05534398 -0.01800394 0.00656945
v 0.04561543 -0.02123057 0.01049900
v 0.05417317 -0.01800394 0.00285882
v 0.05374467 -0.01800394 0.00150067
v 0.04604393 -0.02123057 0.01185745
v 0.05475842 -0.01800394 0.00471431
v 0.04662936 -0.02123057 0.01371264
v 0.04764324 -0.02123057 0.01692628
v 0.05577230 -0.02163708 0.00792766
v 0.05577230 -0.01800394 0.00792766
v 0.04721468 -0.02540981 0.01556813
v 0.05577230 -0.02163708 0.00792766
v 0.04764324 -0.02540981 0.01692628
v 0.04561543 -0.02123057 0.01049900
v 0.05374467 -0.02163708 0.00150067
v 0.04561543 -0.02540981 0.01049900
v 0.04561543 -0.02540981 0.01049900
v 0.05417317 -0.02163708 0.00285882
v 0.04604393 -0.02540981 0.01185745
v 0.05475842 -0.02163708 0.00471431
v 0.04662936 -0.02540981 0.01371264
v 0.05534398 -0.02163708 0.00656945
v 0.05534398 -0.02163708 0.00656945
v 0.06129139 -0.02056109 0.00181848
v 0.05577230 -0.02163708 0.00792766
v 0.06129139 -0.02056109 0.00181848
v 0.06129139 -0.01769345 0.00181848
v 0.05534398 -0.01800394 0.00656945
v 0.06129139 -0.01769345 0.00181848
v 0.06086289 -0.01769345 0.00046037
v 0.05475842 -0.01800394 0.00471431
v 0.06027746 -0.01769345 -0.00139493
v 0.05417317 -0.01800394 0.00285882
v 0.05969196 -0.01769345 -0.00325024
v 0.05374467 -0.01800394 0.00150067
v 0.05926340 -0.01769345 -0.00460845
v 0.05374467 -0.01800394 0.00150067
v 0.05926340 -0.02056109 -0.00460845
v 0.05374467 -0.02163708 0.00150067
v 0.05969196 -0.02056109 -0.00325024
v 0.05417317 -0.02163708 0.00285882
v 0.06027746 -0.02056109 -0.00139493
v 0.05475842 -0.02163708 0.00471431
v 0.06086289 -0.02056109 0.00046037
v 0.00099362 -0.02599066 0.01326197
v 0.00151485 -0.02599066 0.01131635
v 0.00099362 -0.02599066 0.00937092
v -0.00043060 -0.02599066 0.00794649
v -0.00401080 -0.02839475 0.00848496
v -0.00520760 -0.02839475 0.00968152
v -0.00564551 -0.02839475 0.01131635
v -0.00574583 -0.02776294 0.01326197
v -0.00432158 -0.02776294 0.01468592
v -0.00237608 -0.02839475 0.01458585
v -0.00043060 -0.02776294 0.01468592
v 0.00099362 -0.02776294 0.01326197
v 0.00151485 -0.02776294 0.01131635
v 0.00045536 -0.02839475 0.00968152
v -0.00043060 -0.02776294 0.00794649
v -0.00237608 -0.02839475 0.00804663
v 0.00099362 -0.01838552 0.01326197
v -0.00043060 -0.01838552 0.01468592
v -0.00237608 -0.01838552 0.01520740
v -0.00432158 -0.01838552 0.01468592
v -0.00574583 -0.01838552 0.01326197
v -0.00626713 -0.01838552 0.01131635
v -0.00574583 -0.01838552 0.00937092
v -0.00432158 -0.01838552 0.00794649
v -0.00237608 -0.01838552 0.00742531
v -0.00043060 -0.01838552 0.00794649
v 0.00099362 -0.01838552 0.00937092
v 0.00151485 -0.01838552 0.01131635
v -0.00043060 -0.02123057 0.01468592
v 0.00813013 -0.02599066 0.01384323
v 0.00813013 -0.02123057 0.00710374
v -0.00043060 -0.02599066 0.00794649
v 0.04324775 -0.02123057 0.01811617
v 0.04324775 -0.02599066 0.01811617
v 0.04324775 -0.02123057 0.01137661
v 0.04324775 -0.02599066 0.01811617
v 0.04324775 -0.02599066 0.01669216
v 0.04721468 -0.02540981 0.01556813
v 0.04764324 -0.02540981 0.01692628
v 0.04561543 -0.02123057 0.01049900
v 0.04324775 -0.02599066 0.01137661
v 0.04561543 -0.02540981 0.01049900
v 0.04604393 -0.02540981 0.01185745
v 0.04324775 -0.02599066 0.01280111
v 0.04604393 -0.02540981 0.01185745
v 0.04662936 -0.02540981 0.01371264
v 0.04324775 -0.02599066 0.01474654
v 0.04662936 -0.02540981 0.01371264
v 0.04721468 -0.02540981 0.01556813
v 0.04764324 -0.02123057 0.01692628
v 0.04764324 -0.02540981 0.01692628
v 0.05374467 -0.02163708 0.00150067
v 0.05577230 -0.01800394 0.00792766
v 0.05926340 -0.01769345 -0.00460845
v 0.05926340 -0.02056109 -0.00460845
v -0.00478876 0.02453368 -0.00554091
v -0.00686943 0.02798759 -0.00365824
v -0.00478876 0.02798759 -0.00554091
v -0.00686943 0.02453368 -0.00365824
v -0.00772983 0.02798759 -0.00098759
v -0.00686943 0.02798759 -0.00365824
v -0.00772983 0.02453368 -0.00098759
v -0.00713986 0.02798759 0.00175542
v -0.00772983 0.02798759 -0.00098759
v -0.00713986 0.02453368 0.00175542
v -0.00525719 0.02798759 0.00383592
v -0.00713986 0.02798759 0.00175542
v -0.00525719 0.02453368 0.00383592
v -0.00258642 0.02798759 0.00469649
v -0.00525719 0.02798759 0.00383592
v -0.00258642 0.02453368 0.00469649
v 0.00015654 0.02798759 0.00410628
v -0.00258642 0.02798759 0.00469649
v 0.00015654 0.02453368 0.00410628
v 0.00223714 0.02798759 0.00222373
v 0.00015654 0.02798759 0.00410628
v 0.00223714 0.02453368 0.00222373
v 0.00309753 0.02798759 -0.00044682
v 0.00223714 0.02798759 0.00222373
v 0.00309753 0.02453368 -0.00044682
v 0.00250745 0.02798759 -0.00318992
v 0.00309753 0.02798759 -0.00044682
v 0.00250745 0.02453368 -0.00318992
v 0.00062488 0.02798759 -0.00527048
v 0.00250745 0.02798759 -0.00318992
v 0.00062488 0.02453368 -0.00527048
v -0.00204569 0.02798759 -0.00613087
v 0.00062488 0.02798759 -0.00527048
v -0.00204569 0.02453368 -0.00613087
v -0.00478876 0.02798759 -0.00554091
v -0.00204569 0.02798759 -0.00613087
v -0.00614214 0.02886778 -0.00318855
v -0.00231612 0.02886778 -0.00071721
v -0.00439394 0.02886778 -0.00477040
v -0.00686508 0.02886778 -0.00094440
v -0.00636935 0.02886778 0.00136042
v -0.00478750 0.02886778 0.00310868
v -0.00254333 0.02886778 0.00383156
v -0.00023832 0.02886778 0.00333589
v 0.00150973 0.02886778 0.00175393
v 0.00223273 0.02886778 -0.00049001
v 0.00173694 0.02886778 -0.00279498
v 0.00015519 0.02886778 -0.00454318
v -0.00208890 0.02886778 -0.00526619
v -0.00614214 0.02886778 -0.00318855
v -0.00478876 0.02798759 -0.00554091
v -0.00686943 0.02798759 -0.00365824
v -0.00686508 0.02886778 -0.00094440
v -0.00686943 0.02798759 -0.00365824
v -0.00772983 0.02798759 -0.00098759
v -0.00636935 0.02886778 0.00136042
v -0.00772983 0.02798759 -0.00098759
v -0.00713986 0.02798759 0.00175542
v -0.00478750 0.02886778 0.00310868
v -0.00713986 0.02798759 0.00175542
v -0.00525719 0.02798759 0.00383592
v -0.00254333 0.02886778 0.00383156
v -0.00525719 0.02798759 0.00383592
v -0.00258642 0.02798759 0.00469649
v 0.00015654 0.02798759 0.00410628
v -0.00254333 0.02886778 0.00383156
v -0.00258642 0.02798759 0.00469649
v 0.00223714 0.02798759 0.00222373
v -0.00023832 0.02886778 0.00333589
v 0.00015654 0.02798759 0.00410628
v 0.00309753 0.02798759 -0.00044682
v 0.00150973 0.02886778 0.00175393
v 0.00223714 0.02798759 0.00222373
v 0.00250745 0.02798759 -0.00318992
v 0.00223273 0.02886778 -0.00049001
v 0.00309753 0.02798759 -0.00044682
v 0.00015519 0.02886778 -0.00454318
v 0.00250745 0.02798759 -0.00318992
v 0.00062488 0.02798759 -0.00527048
v -0.00208890 0.02886778 -0.00526619
v 0.00062488 0.02798759 -0.00527048
v -0.00204569 0.02798759 -0.00613087
v -0.00478876 0.02798759 -0.00554091
v -0.00208890 0.02886778 -0.00526619
v -0.00204569 0.02798759 -0.00613087
v 0.00015654 0.01989549 0.00410628
v 0.00223714 0.02077561 0.00222373
v 0.00015654 0.02077561 0.00410628
v -0.00258642 0.01989549 0.00469649
v 0.00015654 0.02077561 0.00410628
v -0.00258642 0.02077561 0.00469649
v -0.00525719 0.01989549 0.00383592
v -0.00258642 0.02077561 0.00469649
v -0.00525719 0.02077561 0.00383592
v -0.00713986 0.01989549 0.00175542
v -0.00525719 0.02077561 0.00383592
v -0.00713986 0.02077561 0.00175542
v -0.00772983 0.01989549 -0.00098759
v -0.00713986 0.02077561 0.00175542
v -0.00772983 0.02077561 -0.00098759
v -0.00686943 0.01989549 -0.00365824
v -0.00772983 0.02077561 -0.00098759
v -0.00686943 0.02077561 -0.00365824
v -0.00478876 0.01989549 -0.00554091
v -0.00686943 0.02077561 -0.00365824
v -0.00478876 0.02077561 -0.00554091
v -0.00204569 0.01989549 -0.00613087
v -0.00478876 0.02077561 -0.00554091
v -0.00204569 0.02077561 -0.00613087
v 0.00062488 0.01989549 -0.00527048
v -0.00204569 0.02077561 -0.00613087
v 0.00062488 0.02077561 -0.00527048
v 0.00250745 0.01989549 -0.00318992
v 0.00062488 0.02077561 -0.00527048
v 0.00250745 0.02077561 -0.00318992
v 0.00309753 0.01989549 -0.00044682
v 0.00250745 0.02077561 -0.00318992
v 0.00309753 0.02077561 -0.00044682
v 0.00223714 0.01989549 0.00222373
v 0.00309753 0.02077561 -0.00044682
v 0.00223714 0.02077561 0.00222373
v 0.00223714 0.02453368 0.00222373
v 0.00015654 0.02453368 0.00410628
v -0.00258642 0.02453368 0.00469649
v -0.00525719 0.02453368 0.00383592
v -0.00713986 0.02453368 0.00175542
v -0.00772983 0.02453368 -0.00098759
v -0.00686943 0.02453368 -0.00365824
v -0.00478876 0.02453368 -0.00554091
v -0.00204569 0.02453368 -0.00613087
v 0.00250745 0.02453368 -0.00318992
v 0.04240608 0.02453368 0.00005801
v 0.00062488 0.02453368 -0.00527048
v 0.04240608 0.02453368 0.00005801
v 0.00062488 0.02077561 -0.00527048
v 0.00062488 0.02453368 -0.00527048
v 0.04240608 0.02077561 0.00005801
v 0.00250745 0.02077561 -0.00318992
v 0.00062488 0.02077561 -0.00527048
v 0.00309753 0.02453368 -0.00044682
v 0.04375380 0.02453368 0.00251907
v 0.04375380 0.02077561 0.00251907
v 0.00309753 0.02077561 -0.00044682
v 0.04223322 0.02453368 0.00772184
v 0.00223714 0.02453368 0.00222373
v 0.04223322 0.02077561 0.00772184
v 0.00223714 0.02077561 0.00222373
v 0.04223322 0.02077561 0.00772184
v 0.00223714 0.02453368 0.00222373
v 0.00223714 0.02077561 0.00222373
v 0.04375380 0.02453368 0.00251907
v 0.04771447 0.02262055 -0.00179255
v 0.04240608 0.02453368 0.00005801
v 0.04771447 0.02262055 -0.00179255
v 0.04240608 0.02077561 0.00005801
v 0.04240608 0.02453368 0.00005801
v 0.04771447 0.02019178 -0.00179255
v 0.04375380 0.02077561 0.00251907
v 0.04240608 0.02077561 0.00005801
v 0.04844129 0.02262055 0.00344563
v 0.04375380 0.02453368 0.00251907
v 0.04369062 0.02453368 0.00532412
v 0.04375380 0.02077561 0.00251907
v 0.04844129 0.02019178 0.00344563
v 0.04369062 0.02077561 0.00532412
v 0.04746592 0.02262055 0.00586748
v 0.04369062 0.02453368 0.00532412
v 0.04223322 0.02453368 0.00772184
v 0.04369062 0.02077561 0.00532412
v 0.04746592 0.02019178 0.00586748
v 0.04223322 0.02077561 0.00772184
v 0.04223322 0.02077561 0.00772184
v 0.04746592 0.02262055 0.00586748
v 0.04223322 0.02453368 0.00772184
v 0.05487221 0.02181988 -0.00477171
v 0.04771447 0.02262055 -0.00179255
v 0.04853206 0.02262055 0.00064201
v 0.05405443 0.02181988 -0.00720626
v 0.04771447 0.02019178 -0.00179255
v 0.04771447 0.02262055 -0.00179255
v 0.04771447 0.02019178 -0.00179255
v 0.05487221 0.01939105 -0.00477171
v 0.04853206 0.02019178 0.00064201
v 0.05478125 0.02181988 -0.00196797
v 0.04853206 0.02262055 0.00064201
v 0.04844129 0.02262055 0.00344563
v 0.04853206 0.02019178 0.00064201
v 0.05478125 0.01939105 -0.00196797
v 0.04844129 0.02019178 0.00344563
v 0.05380588 0.02181988 0.00045375
v 0.04844129 0.02262055 0.00344563
v 0.04746592 0.02262055 0.00586748
v 0.04844129 0.02019178 0.00344563
v 0.05380588 0.01939105 0.00045375
v 0.04746592 0.02019178 0.00586748
v 0.04746592 0.02019178 0.00586748
v 0.05380588 0.02181988 0.00045375
v 0.04746592 0.02262055 0.00586748
v 0.06030088 0.02129065 -0.00668114
v 0.05487221 0.02181988 -0.00477171
v 0.05478125 0.02181988 -0.00196797
v 0.05932569 0.02129065 -0.00425929
v 0.05478125 0.02181988 -0.00196797
v 0.05380588 0.02181988 0.00045375
v 0.05380588 0.01939105 0.00045375
v 0.05932569 0.02129065 -0.00425929
v 0.05478125 0.01939105 -0.00196797
v 0.05932569 0.01886188 -0.00425929
v 0.05380588 0.01939105 0.00045375
v 0.05487221 0.01939105 -0.00477171
v 0.06030088 0.01886188 -0.00668114
v 0.05478125 0.01939105 -0.00196797
v 0.05405443 0.01939105 -0.00720626
v 0.06039196 0.01886188 -0.00948483
v 0.05487221 0.01939105 -0.00477171
v 0.05957400 0.02129065 -0.01191937
v 0.05405443 0.01939105 -0.00720626
v 0.06039196 0.02129065 -0.00948483
v 0.05405443 0.02181988 -0.00720626
v 0.05487221 0.02181988 -0.00477171
v 0.00309753 0.02453368 -0.00044682
v 0.00250745 0.02453368 -0.00318992
v 0.00062488 0.02453368 -0.00527048
v -0.00439394 0.02886778 -0.00477040
v -0.00614214 0.02886778 -0.00318855
v -0.00686508 0.02886778 -0.00094440
v -0.00636935 0.02886778 0.00136042
v -0.00478750 0.02886778 0.00310868
v -0.00023832 0.02886778 0.00333589
v 0.00150973 0.02886778 0.00175393
v 0.00223273 0.02886778 -0.00049001
v 0.00173694 0.02886778 -0.00279498
v 0.00173694 0.02886778 -0.00279498
v 0.00015519 0.02886778 -0.00454318
v -0.00439394 0.02886778 -0.00477040
v 0.00223714 0.01989549 0.00222373
v 0.00015654 0.01989549 0.00410628
v -0.00258642 0.01989549 0.00469649
v -0.00525719 0.01989549 0.00383592
v -0.00713986 0.01989549 0.00175542
v -0.00772983 0.01989549 -0.00098759
v -0.00686943 0.01989549 -0.00365824
v -0.00478876 0.01989549 -0.00554091
v -0.00204569 0.01989549 -0.00613087
v 0.00062488 0.01989549 -0.00527048
v 0.00250745 0.01989549 -0.00318992
v 0.00309753 0.01989549 -0.00044682
v 0.04240608 0.02077561 0.00005801
v 0.04369062 0.02453368 0.00532412
v 0.04369062 0.02077561 0.00532412
v 0.04223322 0.02453368 0.00772184
v 0.04375380 0.02453368 0.00251907
v 0.04853206 0.02262055 0.00064201
v 0.04771447 0.02262055 -0.00179255
v 0.04771447 0.02019178 -0.00179255
v 0.04771447 0.02019178 -0.00179255
v 0.04853206 0.02019178 0.00064201
v 0.04375380 0.02077561 0.00251907
v 0.04853206 0.02262055 0.00064201
v 0.04853206 0.02019178 0.00064201
v 0.04746592 0.02262055 0.00586748
v 0.04844129 0.02262055 0.00344563
v 0.04369062 0.02453368 0.00532412
v 0.04369062 0.02077561 0.00532412
v 0.04844129 0.02019178 0.00344563
v 0.04746592 0.02019178 0.00586748
v 0.04746592 0.02019178 0.00586748
v 0.05405443 0.02181988 -0.00720626
v 0.05405443 0.01939105 -0.00720626
v 0.05487221 0.02181988 -0.00477171
v 0.05487221 0.01939105 -0.00477171
v 0.05478125 0.02181988 -0.00196797
v 0.05478125 0.01939105 -0.00196797
v 0.06039196 0.02129065 -0.00948483
v 0.06030088 0.02129065 -0.00668114
v 0.05932569 0.01886188 -0.00425929
v 0.06030088 0.01886188 -0.00668114
v 0.06039196 0.01886188 -0.00948483
v 0.05957400 0.01886188 -0.01191937
v 0.05957400 0.01886188 -0.01191937
v 0.05957400 0.02129065 -0.01191937
v 0.06658810 0.02360165 -0.02711051
v 0.06658810 0.02294689 -0.02024513
v 0.06658810 0.02294689 -0.02753347
v 0.06506693 0.02360165 0.00291872
v 0.06658810 0.02294689 0.00291872
v 0.06658810 0.02360165 0.00291872
v 0.05856615 0.02360165 -0.02711051
v 0.05856615 0.02294689 -0.02024513
v 0.05856615 0.02360165 -0.02024513
v 0.06658810 0.02360165 -0.02711051
v 0.06506693 0.02294689 -0.02753347
v 0.06506693 0.02360165 -0.02711051
v 0.06506693 0.02360165 -0.02024513
v 0.06658810 0.02360165 -0.02711051
v 0.06506693 0.02360165 -0.02711051
v 0.06658810 -0.00036134 -0.03047335
v 0.06506693 0.01240658 -0.03047335
v 0.06658810 0.01240658 -0.03047335
v 0.05856615 0.01240658 -0.03047335
v 0.05856615 -0.00036134 -0.02196311
v 0.05856615 0.01465857 -0.02024513
v 0.06506693 -0.00036134 -0.02196311
v 0.06658810 0.01465857 -0.02024513
v 0.06506693 0.01465857 -0.02024513
v 0.06658810 -0.00036134 -0.02196311
v 0.06658810 0.01240658 -0.03047335
v 0.06658810 0.01465857 -0.02024513
v 0.06658810 0.02360165 -0.01568138
v 0.06658810 0.02360165 -0.02024513
v 0.06658810 0.01465857 -0.01568138
v 0.06506693 0.01465857 -0.02024513
v 0.06658810 0.01465857 -0.02024513
v 0.05856615 0.02294689 -0.01568138
v 0.06506693 0.02360165 -0.01568138
v 0.06658810 0.02360165 -0.02024513
v 0.06506693 0.01867038 0.00291872
v 0.06658810 0.01519703 0.00291872
v 0.06658810 0.01867038 0.00291872
v 0.05856615 0.01519703 -0.01568138
v 0.05856615 0.01867038 -0.02024513
v 0.05856615 0.01519703 -0.02024513
v 0.05856615 0.01867038 -0.03029495
v 0.06658810 0.01324743 -0.03044945
v 0.06506693 0.01867038 -0.03029495
v 0.06658810 0.01867038 -0.03029495
v 0.06658810 0.01519703 -0.02024513
v 0.06658810 0.01867038 -0.03029495
v 0.06658810 0.01867038 -0.02024513
v 0.06658810 0.01867038 -0.01568138
v 0.06658810 0.01519703 -0.01568138
v 0.06658810 0.02360165 0.00291872
v 0.06658810 0.02294689 -0.00722885
v 0.06658810 0.02360165 -0.00722885
v 0.06506693 0.02360165 0.00291872
v 0.06658810 0.02360165 -0.00722885
v 0.06506693 0.02360165 -0.00722885
v 0.05856615 0.02294689 0.00291872
v 0.05856615 0.02360165 -0.00722885
v 0.05856615 0.02294689 -0.00722885
v 0.05856615 0.01519703 0.00291872
v 0.05856615 0.01867038 -0.00722885
v 0.05856615 0.01519703 -0.00722885
v 0.06658810 0.01465857 0.00291872
v 0.06506693 0.01465857 -0.00722885
v 0.06658810 0.01465857 -0.00722885
v 0.06658810 0.01519703 0.00291872
v 0.06658810 0.01867038 -0.00722885
v 0.06658810 0.01867038 0.00291872
v 0.06658810 0.02294689 -0.01568138
v 0.06658810 0.02360165 -0.01568138
v 0.05856615 0.02360165 -0.01568138
v 0.05856615 0.01867038 -0.01568138
v 0.06506693 0.01465857 -0.01568138
v 0.07394731 0.01618325 -0.01207625
v 0.07394731 0.01795053 -0.00362372
v 0.07394731 0.01618325 -0.00362372
v 0.07394731 0.01618325 -0.00362372
v 0.06658810 0.01867038 -0.00722885
v 0.06658810 0.01519703 -0.00722885
v 0.06658810 0.01867038 -0.00722885
v 0.07394731 0.01795053 -0.01207625
v 0.06658810 0.01867038 -0.01568138
v 0.06658810 0.01867038 -0.01568138
v 0.07394731 0.01618325 -0.01207625
v 0.06658810 0.01519703 -0.01568138
v 0.07394731 0.01590937 -0.01207625
v 0.06658810 0.01465857 -0.00722885
v 0.06658810 0.01465857 -0.01568138
v 0.05856615 -0.00036134 -0.02196311
v 0.05856615 0.01465857 -0.02024513
v 0.05856615 0.01465857 -0.01568138
v 0.05856615 0.01465857 -0.00722885
v 0.05856615 0.01465857 0.00291872
v 0.06506693 0.01465857 0.00291872
v 0.05856615 0.01867038 0.00367480
v 0.06249934 0.01519703 0.00629920
v 0.06249934 0.01867038 0.00629920
v 0.05856615 0.02360165 0.00291872
v 0.06506693 0.02294689 0.00291872
v 0.05856615 0.02360165 0.00291872
v 0.05856615 0.02360165 -0.00722885
v 0.05856615 0.02360165 -0.01568138
v 0.05856615 0.02360165 -0.02024513
v 0.05856615 0.02360165 -0.02711051
v 0.05856615 0.02294689 -0.02753347
v 0.05856615 0.02360165 -0.02711051
v 0.05856615 0.01324743 -0.03044945
v 0.06506693 0.01324743 -0.03044945
v 0.05856615 -0.00036134 -0.03047335
v 0.06506693 -0.00036134 -0.03047335
v 0.06249934 0.02294689 0.00629920
v 0.05856615 0.02294689 0.00367480
v 0.05856615 0.01867038 0.00291872
v 0.05856615 0.02294689 -0.02753347
v 0.06506693 0.01867038 -0.03029495
v 0.06658810 0.01867038 -0.03029495
v 0.06658810 0.02294689 -0.02753347
v 0.06658810 0.02294689 0.00291872
v 0.06506693 0.01519703 0.00291872
v 0.06658810 0.01465857 0.00291872
v 0.05856615 0.01465857 0.00291872
v 0.05856615 0.01519703 0.00291872
v 0.05856615 0.01465857 0.00291872
v 0.05856615 0.01465857 -0.00722885
v 0.05856615 0.01465857 -0.01568138
v 0.05856615 0.01324743 -0.03044945
v 0.05856615 0.01240658 -0.03047335
v 0.06506693 0.01240658 -0.03047335
v 0.06658810 0.01240658 -0.03047335
v 0.06658810 0.01324743 -0.03044945
v 0.06658810 0.01465857 -0.01568138
v 0.07394731 0.01590937 -0.01207625
v 0.07394731 0.01590937 -0.01207625
v 0.07394731 0.01590937 -0.00362372
v 0.07394731 0.01590937 -0.00362372
v 0.06658810 0.01465857 -0.00722885
v 0.06658810 0.01465857 0.00291872
v 0.06658810 0.01519703 -0.00722885
v 0.06249934 0.01867038 0.00629920
v 0.06506693 0.01519703 0.00291872
v 0.06506693 0.01867038 0.00291872
v 0.06249934 0.01519703 0.00629920
v 0.05856615 0.01519703 0.00291872
v 0.06506693 0.01519703 0.00291872
v 0.05856615 0.01519703 0.00367480
v 0.05856615 0.02294689 0.00291872
v 0.06249934 0.02294689 0.00629920
v 0.06506693 0.02294689 0.00291872
v 0.06249934 0.02294689 0.00629920
v 0.06506693 0.02294689 0.00291872
v 0.05856615 0.01867038 0.00367480
v 0.06658810 -0.02432429 -0.02711051
v 0.06658810 -0.02366954 -0.02024513
v 0.06658810 -0.02432429 -0.02024513
v 0.06658810 -0.02366954 0.00291872
v 0.06506693 -0.02432429 0.00291872
v 0.06658810 -0.02432429 0.00291872
v 0.05856615 -0.02366954 -0.02024513
v 0.05856615 -0.02432429 -0.02711051
v 0.05856615 -0.02432429 -0.02024513
v 0.06506693 -0.02366954 -0.02753347
v 0.06658810 -0.02432429 -0.02711051
v 0.06506693 -0.02432429 -0.02711051
v 0.06658810 -0.02432429 -0.02711051
v 0.06506693 -0.02432429 -0.02024513
v 0.06506693 -0.02432429 -0.02711051
v 0.06506693 -0.01312941 -0.03047335
v 0.06658810 -0.01312941 -0.03047335
v 0.05856615 -0.01312941 -0.03047335
v 0.05856615 -0.00036134 -0.03047335
v 0.06658810 -0.01538127 -0.02024513
v 0.06506693 -0.00036134 -0.02196311
v 0.06506693 -0.01538127 -0.02024513
v 0.06658810 -0.01312941 -0.03047335
v 0.06658810 -0.01538127 -0.02024513
v 0.06658810 -0.02432429 -0.01568138
v 0.06506693 -0.01538127 -0.02024513
v 0.06658810 -0.01538127 -0.01568138
v 0.06658810 -0.01538127 -0.02024513
v 0.05856615 -0.02366954 -0.01568138
v 0.06658810 -0.02432429 -0.02024513
v 0.06506693 -0.02432429 -0.01568138
v 0.06658810 -0.01591974 0.00291872
v 0.06506693 -0.01939314 0.00291872
v 0.06658810 -0.01939314 0.00291872
v 0.05856615 -0.01939314 -0.02024513
v 0.05856615 -0.01591974 -0.01568138
v 0.05856615 -0.01591974 -0.02024513
v 0.05856615 -0.01939314 -0.03029495
v 0.05856615 -0.01397001 -0.03044945
v 0.06506693 -0.01939314 -0.03029495
v 0.06658810 -0.01397001 -0.03044945
v 0.06658810 -0.01939314 -0.03029495
v 0.06658810 -0.01939314 -0.03029495
v 0.06658810 -0.01591974 -0.02024513
v 0.06658810 -0.01939314 -0.02024513
v 0.06658810 -0.01939314 -0.01568138
v 0.06658810 -0.01591974 -0.01568138
v 0.06658810 -0.02366954 -0.00722885
v 0.06658810 -0.02432429 0.00291872
v 0.06658810 -0.02432429 -0.00722885
v 0.06658810 -0.02432429 -0.00722885
v 0.06506693 -0.02432429 0.00291872
v 0.06506693 -0.02432429 -0.00722885
v 0.05856615 -0.02432429 -0.00722885
v 0.05856615 -0.02366954 0.00291872
v 0.05856615 -0.02366954 -0.00722885
v 0.05856615 -0.01939314 -0.00722885
v 0.05856615 -0.01591974 0.00291872
v 0.05856615 -0.01591974 -0.00722885
v 0.06506693 -0.01538127 -0.00722885
v 0.06658810 -0.01538127 0.00291872
v 0.06658810 -0.01538127 -0.00722885
v 0.06658810 -0.01939314 -0.00722885
v 0.06658810 -0.01591974 0.00291872
v 0.06658810 -0.01939314 0.00291872
v 0.06658810 -0.02366954 -0.01568138
v 0.06658810 -0.02432429 -0.01568138
v 0.05856615 -0.02432429 -0.01568138
v 0.05856615 -0.01939314 -0.01568138
v 0.06506693 -0.01538127 -0.01568138
v 0.07394731 -0.01867318 -0.00362372
v 0.07394731 -0.01690596 -0.01207625
v 0.07394731 -0.01690596 -0.00362372
v 0.06658810 -0.01939314 -0.00722885
v 0.07394731 -0.01690596 -0.00362372
v 0.06658810 -0.01591974 -0.00722885
v 0.06658810 -0.01939314 -0.00722885
v 0.07394731 -0.01867318 -0.01207625
v 0.07394731 -0.01867318 -0.00362372
v 0.06658810 -0.01939314 -0.01568138
v 0.07394731 -0.01690596 -0.01207625
v 0.07394731 -0.01867318 -0.01207625
v 0.06658810 -0.01538127 -0.00722885
v 0.07394731 -0.01663208 -0.01207625
v 0.06658810 -0.01538127 -0.01568138
v 0.05856615 -0.00036134 -0.02196311
v 0.05856615 -0.01538127 -0.02024513
v 0.05856615 -0.01538127 -0.01568138
v 0.05856615 -0.01538127 -0.00722885
v 0.05856615 -0.01538127 0.00291872
v 0.06506693 -0.01538127 0.00291872
v 0.06249934 -0.01591974 0.00629920
v 0.05856615 -0.01939314 0.00367480
v 0.06249934 -0.01939314 0.00629920
v 0.06506693 -0.02366954 0.00291872
v 0.05856615 -0.02432429 0.00291872
v 0.05856615 -0.02432429 0.00291872
v 0.05856615 -0.02432429 -0.00722885
v 0.05856615 -0.02432429 -0.01568138
v 0.05856615 -0.02432429 -0.02024513
v 0.05856615 -0.02432429 -0.02711051
v 0.05856615 -0.02366954 -0.02753347
v 0.05856615 -0.02432429 -0.02711051
v 0.05856615 -0.01397001 -0.03044945
v 0.06506693 -0.01397001 -0.03044945
v 0.06249934 -0.02366954 0.00629920
v 0.05856615 -0.02366954 0.00367480
v 0.05856615 -0.01939314 0.00291872
v 0.05856615 -0.02366954 -0.02753347
v 0.06506693 -0.01939314 -0.03029495
v 0.06658810 -0.01939314 -0.03029495
v 0.06658810 -0.02366954 -0.02753347
v 0.06658810 -0.02366954 -0.02753347
v 0.06658810 -0.02366954 0.00291872
v 0.06658810 -0.01538127 0.00291872
v 0.06506693 -0.01591974 0.00291872
v 0.05856615 -0.01538127 0.00291872
v 0.05856615 -0.01591974 0.00291872
v 0.05856615 -0.01538127 0.00291872
v 0.05856615 -0.01538127 -0.00722885
v 0.05856615 -0.01538127 -0.01568138
v 0.05856615 -0.01538127 -0.02024513
v 0.05856615 -0.01312941 -0.03047335
v 0.06506693 -0.01312941 -0.03047335
v 0.06658810 -0.01312941 -0.03047335
v 0.06658810 -0.01397001 -0.03044945
v 0.06658810 -0.01538127 -0.01568138
v 0.06658810 -0.01591974 -0.01568138
v 0.07394731 -0.01663208 -0.01207625
v 0.07394731 -0.01663208 -0.01207625
v 0.07394731 -0.01663208 -0.00362372
v 0.07394731 -0.01663208 -0.00362372
v 0.06658810 -0.01538127 -0.00722885
v 0.06658810 -0.01591974 -0.00722885
v 0.06658810 -0.01538127 0.00291872
v 0.06506693 -0.01591974 0.00291872
v 0.06249934 -0.01939314 0.00629920
v 0.06506693 -0.01939314 0.00291872
v 0.05856615 -0.01591974 0.00291872
v 0.06249934 -0.01591974 0.00629920
v 0.06506693 -0.01591974 0.00291872
v 0.05856615 -0.01591974 0.00367480
v 0.05856615 -0.02366954 0.00291872
v 0.06249934 -0.02366954 0.00629920
v 0.05856615 -0.02366954 0.00367480
v 0.06249934 -0.02366954 0.00629920
v 0.06506693 -0.02366954 0.00291872
v 0.05856615 -0.01939314 0.00367480
v 0.06658810 -0.00036134 -0.02196311
v 0.06658810 -0.00036134 -0.03047335
v 0.06658810 0.02360165 0.00291872
v 0.05856615 0.02360165 0.00291872
v 0.07394731 0.01795053 -0.01207625
v 0.07394731 0.01795053 -0.00362372
v 0.07394731 0.01795053 -0.00362372
v 0.07394731 0.01795053 -0.01207625
v 0.07394731 0.01590937 -0.00362372
v 0.05856615 0.01465857 -0.02024513
v 0.05856615 0.01519703 0.00367480
v 0.05856615 0.02294689 0.00291872
v 0.05856615 0.01867038 -0.03029495
v 0.05856615 0.01240658 -0.03047335
v 0.05856615 0.01867038 -0.03029495
v 0.06506693 0.01465857 0.00291872
v 0.06658810 0.01465857 -0.01568138
v 0.06658810 0.01465857 -0.00722885
v 0.06249934 0.01519703 0.00629920
v 0.05856615 0.01519703 0.00367480
v 0.05856615 0.02294689 0.00367480
v 0.05856615 0.02294689 0.00367480
v 0.06658810 -0.00036134 -0.02196311
v 0.06658810 -0.02432429 0.00291872
v 0.05856615 -0.02432429 0.00291872
v 0.07394731 -0.01867318 -0.01207625
v 0.07394731 -0.01867318 -0.00362372
v 0.06658810 -0.01939314 -0.01568138
v 0.07394731 -0.01663208 -0.00362372
v 0.05856615 -0.01538127 -0.02024513
v 0.05856615 -0.01591974 0.00367480
v 0.05856615 -0.02366954 0.00291872
v 0.05856615 -0.01939314 -0.03029495
v 0.05856615 -0.01312941 -0.03047335
v 0.05856615 -0.01939314 -0.03029495
v 0.06506693 -0.01538127 0.00291872
v 0.06658810 -0.01538127 -0.01568138
v 0.06658810 -0.01538127 -0.00722885
v 0.06249934 -0.01591974 0.00629920
v 0.05856615 -0.01591974 0.00367480
v 0.06506693 -0.02366954 0.00291872
v 0.05856615 -0.02366954 0.00367480
v -0.00409114 0.02526795 0.00785231
v -0.00558466 0.02704030 0.00920391
v -0.00409114 0.02704030 0.00785231
v -0.00558466 0.02526795 0.00920391
v -0.00620234 0.02704030 0.01112103
v -0.00558466 0.02704030 0.00920391
v -0.00620234 0.02526795 0.01112103
v -0.00577867 0.02704030 0.01309013
v -0.00620234 0.02704030 0.01112103
v -0.00577867 0.02526795 0.01309013
v -0.00442725 0.02704030 0.01458340
v -0.00577867 0.02704030 0.01309013
v -0.00442725 0.02526795 0.01458340
v -0.00251019 0.02704030 0.01520133
v -0.00442725 0.02704030 0.01458340
v -0.00251019 0.02526795 0.01520133
v -0.00054114 0.02704030 0.01477754
v -0.00251019 0.02704030 0.01520133
v -0.00054114 0.02526795 0.01477754
v 0.00095235 0.02704030 0.01342630
v -0.00054114 0.02704030 0.01477754
v 0.00095235 0.02526795 0.01342630
v 0.00156999 0.02704030 0.01150918
v 0.00095235 0.02704030 0.01342630
v 0.00156999 0.02526795 0.01150918
v 0.00114638 0.02704030 0.00954008
v 0.00156999 0.02704030 0.01150918
v 0.00114638 0.02526795 0.00954008
v -0.00020497 0.02704030 0.00804639
v 0.00114638 0.02704030 0.00954008
v -0.00020497 0.02526795 0.00804639
v -0.00212204 0.02704030 0.00742888
v -0.00020497 0.02704030 0.00804639
v -0.00212204 0.02526795 0.00742888
v -0.00409114 0.02704030 0.00785231
v -0.00212204 0.02704030 0.00742888
v -0.00506252 0.02767211 0.00954103
v -0.00231612 0.02767211 0.01131504
v -0.00380749 0.02767211 0.00840557
v -0.00558150 0.02767211 0.01115196
v -0.00522566 0.02767211 0.01280629
v -0.00409001 0.02767211 0.01406151
v -0.00247914 0.02767211 0.01458036
v -0.00082475 0.02767211 0.01422458
v 0.00043028 0.02767211 0.01308882
v 0.00094917 0.02767211 0.01147812
v 0.00059336 0.02767211 0.00982350
v -0.00054227 0.02767211 0.00856870
v -0.00215298 0.02767211 0.00804943
v -0.00558466 0.02704030 0.00920391
v -0.00380749 0.02767211 0.00840557
v -0.00409114 0.02704030 0.00785231
v -0.00558150 0.02767211 0.01115196
v -0.00558466 0.02704030 0.00920391
v -0.00620234 0.02704030 0.01112103
v -0.00522566 0.02767211 0.01280629
v -0.00620234 0.02704030 0.01112103
v -0.00577867 0.02704030 0.01309013
v -0.00409001 0.02767211 0.01406151
v -0.00577867 0.02704030 0.01309013
v -0.00442725 0.02704030 0.01458340
v -0.00251019 0.02704030 0.01520133
v -0.00409001 0.02767211 0.01406151
v -0.00442725 0.02704030 0.01458340
v -0.00082475 0.02767211 0.01422458
v -0.00251019 0.02704030 0.01520133
v -0.00054114 0.02704030 0.01477754
v 0.00043028 0.02767211 0.01308882
v -0.00054114 0.02704030 0.01477754
v 0.00095235 0.02704030 0.01342630
v 0.00156999 0.02704030 0.01150918
v 0.00043028 0.02767211 0.01308882
v 0.00095235 0.02704030 0.01342630
v 0.00114638 0.02704030 0.00954008
v 0.00094917 0.02767211 0.01147812
v 0.00156999 0.02704030 0.01150918
v -0.00054227 0.02767211 0.00856870
v 0.00114638 0.02704030 0.00954008
v -0.00020497 0.02704030 0.00804639
v -0.00212204 0.02704030 0.00742888
v -0.00054227 0.02767211 0.00856870
v -0.00020497 0.02704030 0.00804639
v -0.00380749 0.02767211 0.00840557
v -0.00212204 0.02704030 0.00742888
v -0.00409114 0.02704030 0.00785231
v -0.00054114 0.01766288 0.01477754
v 0.00095235 0.02050793 0.01342630
v -0.00054114 0.02050793 0.01477754
v -0.00251019 0.01766288 0.01520133
v -0.00054114 0.02050793 0.01477754
v -0.00251019 0.02050793 0.01520133
v -0.00442725 0.01766288 0.01458340
v -0.00251019 0.02050793 0.01520133
v -0.00442725 0.02050793 0.01458340
v -0.00577867 0.01766288 0.01309013
v -0.00442725 0.02050793 0.01458340
v -0.00577867 0.02050793 0.01309013
v -0.00620234 0.01766288 0.01112103
v -0.00577867 0.02050793 0.01309013
v -0.00620234 0.02050793 0.01112103
v -0.00558466 0.01766288 0.00920391
v -0.00620234 0.02050793 0.01112103
v -0.00558466 0.02050793 0.00920391
v -0.00409114 0.01766288 0.00785231
v -0.00558466 0.02050793 0.00920391
v -0.00409114 0.02050793 0.00785231
v -0.00212204 0.01766288 0.00742888
v -0.00409114 0.02050793 0.00785231
v -0.00212204 0.02050793 0.00742888
v -0.00020497 0.01766288 0.00804639
v -0.00212204 0.02050793 0.00742888
v -0.00020497 0.02050793 0.00804639
v 0.00114638 0.01766288 0.00954008
v -0.00020497 0.02050793 0.00804639
v 0.00114638 0.02050793 0.00954008
v 0.00156999 0.01766288 0.01150918
v 0.00114638 0.02050793 0.00954008
v 0.00156999 0.02050793 0.01150918
v 0.00095235 0.01766288 0.01342630
v 0.00156999 0.02050793 0.01150918
v 0.00095235 0.02050793 0.01342630
v -0.00054114 0.02526795 0.01477754
v -0.00251019 0.02526795 0.01520133
v -0.00442725 0.02526795 0.01458340
v -0.00577867 0.02526795 0.01309013
v -0.00620234 0.02526795 0.01112103
v -0.00558466 0.02526795 0.00920391
v -0.00409114 0.02526795 0.00785231
v -0.00212204 0.02526795 0.00742888
v 0.00095235 0.02050793 0.01342630
v 0.00805098 0.02050793 0.01436293
v -0.00054114 0.02050793 0.01477754
v 0.00838715 0.02050793 0.00763184
v 0.00114638 0.02050793 0.00954008
v -0.00020497 0.02050793 0.00804639
v 0.00831610 0.02050793 0.00905406
v 0.00156999 0.02050793 0.01150918
v 0.00812203 0.02050793 0.01294022
v 0.00805098 0.02050793 0.01436293
v -0.00054114 0.02526795 0.01477754
v -0.00054114 0.02050793 0.01477754
v 0.00805098 0.02526795 0.01436293
v 0.00095235 0.02526795 0.01342630
v -0.00054114 0.02526795 0.01477754
v 0.00838715 0.02526795 0.00763184
v -0.00020497 0.02050793 0.00804639
v -0.00020497 0.02526795 0.00804639
v 0.00114638 0.02526795 0.00954008
v 0.00838715 0.02526795 0.00763184
v -0.00020497 0.02526795 0.00804639
v 0.00156999 0.02526795 0.01150918
v 0.00831610 0.02526795 0.00905406
v 0.00812203 0.02526795 0.01294022
v 0.04298275 0.02050793 0.01895987
v 0.04324793 0.02050793 0.01365113
v 0.04317688 0.02050793 0.01507365
v 0.00821906 0.02050793 0.01099711
v 0.04307985 0.02050793 0.01701676
v 0.04291170 0.02050793 0.02038222
v 0.00805098 0.02526795 0.01436293
v 0.00805098 0.02050793 0.01436293
v 0.04298275 0.02526795 0.01895987
v 0.04324793 0.02526795 0.01365113
v 0.00838715 0.02050793 0.00763184
v 0.00838715 0.02526795 0.00763184
v 0.04324793 0.02526795 0.01365113
v 0.00821906 0.02526795 0.01099711
v 0.04317688 0.02526795 0.01507365
v 0.04307985 0.02526795 0.01701676
v 0.04736101 0.02050793 0.01941311
v 0.04291170 0.02050793 0.02038222
v 0.04601663 0.02050793 0.01427078
v 0.04650878 0.02050793 0.01615279
v 0.04700082 0.02050793 0.01803529
v 0.04291170 0.02050793 0.02038222
v 0.04736101 0.02468717 0.01941311
v 0.04291170 0.02526795 0.02038222
v 0.04736101 0.02468717 0.01941311
v 0.04298275 0.02526795 0.01895987
v 0.04291170 0.02526795 0.02038222
v 0.04565644 0.02468717 0.01289260
v 0.04324793 0.02050793 0.01365113
v 0.04324793 0.02526795 0.01365113
v 0.04601663 0.02468717 0.01427078
v 0.04324793 0.02526795 0.01365113
v 0.04317688 0.02526795 0.01507365
v 0.04650878 0.02468717 0.01615279
v 0.04317688 0.02526795 0.01507365
v 0.04307985 0.02526795 0.01701676
v 0.04700082 0.02468717 0.01803529
v 0.04307985 0.02526795 0.01701676
v 0.04298275 0.02526795 0.01895987
v 0.04700082 0.02050793 0.01803529
v 0.05592882 0.01728123 0.01083111
v 0.04736101 0.02050793 0.01941311
v 0.04565644 0.02050793 0.01289260
v 0.05458462 0.01728123 0.00568885
v 0.04601663 0.02050793 0.01427078
v 0.05507659 0.01728123 0.00757128
v 0.04650878 0.02050793 0.01615279
v 0.05556887 0.01728123 0.00945336
v 0.04736101 0.02050793 0.01941311
v 0.05592882 0.02091437 0.01083111
v 0.04736101 0.02468717 0.01941311
v 0.05592882 0.02091437 0.01083111
v 0.04700082 0.02468717 0.01803529
v 0.04736101 0.02468717 0.01941311
v 0.05422443 0.02091437 0.00431103
v 0.04565644 0.02050793 0.01289260
v 0.04565644 0.02468717 0.01289260
v 0.05458462 0.02091437 0.00568885
v 0.04565644 0.02468717 0.01289260
v 0.04601663 0.02468717 0.01427078
v 0.05507659 0.02091437 0.00757128
v 0.04650878 0.02468717 0.01615279
v 0.05556887 0.02091437 0.00945336
v 0.06174594 0.01983845 0.00500482
v 0.05556887 0.02091437 0.00945336
v 0.05592882 0.02091437 0.01083111
v 0.05592882 0.01728123 0.01083111
v 0.06174594 0.01983845 0.00500482
v 0.05556887 0.01728123 0.00945336
v 0.06174594 0.01697081 0.00500482
v 0.05592882 0.01728123 0.01083111
v 0.05507659 0.01728123 0.00757128
v 0.06138575 0.01697081 0.00362700
v 0.05458462 0.01728123 0.00568885
v 0.06089341 0.01697081 0.00174475
v 0.05422443 0.01728123 0.00431103
v 0.06040126 0.01697081 -0.00013740
v 0.06004101 0.01983845 -0.00151515
v 0.05422443 0.01728123 0.00431103
v 0.06040126 0.01983845 -0.00013740
v 0.05422443 0.02091437 0.00431103
v 0.05458462 0.02091437 0.00568885
v 0.06089341 0.01983845 0.00174475
v 0.05507659 0.02091437 0.00757128
v 0.06138575 0.01983845 0.00362700
v 0.00095235 0.02526795 0.01342630
v 0.00156999 0.02526795 0.01150918
v 0.00114638 0.02526795 0.00954008
v -0.00020497 0.02526795 0.00804639
v -0.00506252 0.02767211 0.00954103
v -0.00506252 0.02767211 0.00954103
v -0.00558150 0.02767211 0.01115196
v -0.00522566 0.02767211 0.01280629
v -0.00247914 0.02767211 0.01458036
v -0.00247914 0.02767211 0.01458036
v -0.00082475 0.02767211 0.01422458
v 0.00094917 0.02767211 0.01147812
v 0.00059336 0.02767211 0.00982350
v 0.00059336 0.02767211 0.00982350
v -0.00215298 0.02767211 0.00804943
v -0.00215298 0.02767211 0.00804943
v 0.00095235 0.01766288 0.01342630
v -0.00054114 0.01766288 0.01477754
v -0.00251019 0.01766288 0.01520133
v -0.00442725 0.01766288 0.01458340
v -0.00577867 0.01766288 0.01309013
v -0.00620234 0.01766288 0.01112103
v -0.00558466 0.01766288 0.00920391
v -0.00409114 0.01766288 0.00785231
v -0.00212204 0.01766288 0.00742888
v -0.00020497 0.01766288 0.00804639
v 0.00114638 0.01766288 0.00954008
v 0.00156999 0.01766288 0.01150918
v 0.00805098 0.02526795 0.01436293
v 0.00838715 0.02050793 0.00763184
v 0.04291170 0.02526795 0.02038222
v 0.04291170 0.02526795 0.02038222
v 0.04324793 0.02050793 0.01365113
v 0.04565644 0.02050793 0.01289260
v 0.04736101 0.02050793 0.01941311
v 0.04736101 0.02468717 0.01941311
v 0.04700082 0.02468717 0.01803529
v 0.04298275 0.02526795 0.01895987
v 0.04565644 0.02050793 0.01289260
v 0.04601663 0.02468717 0.01427078
v 0.04565644 0.02468717 0.01289260
v 0.04324793 0.02526795 0.01365113
v 0.04650878 0.02468717 0.01615279
v 0.04601663 0.02468717 0.01427078
v 0.04317688 0.02526795 0.01507365
v 0.04700082 0.02468717 0.01803529
v 0.04650878 0.02468717 0.01615279
v 0.04307985 0.02526795 0.01701676
v 0.05422443 0.01728123 0.00431103
v 0.05422443 0.02091437 0.00431103
v 0.06174594 0.01697081 0.00500482
v 0.06004101 0.01697081 -0.00151515
v 0.06004101 0.01697081 -0.00151515
v 0.06004101 0.01983845 -0.00151515
v -0.00707042 -0.02871036 -0.00342607
v -0.00508636 -0.02525645 -0.00541025
v -0.00508636 -0.02871036 -0.00541025
v -0.00779659 -0.02871036 -0.00071589
v -0.00707042 -0.02525645 -0.00342607
v -0.00707042 -0.02871036 -0.00342607
v -0.00707042 -0.02871036 0.00199425
v -0.00779659 -0.02525645 -0.00071589
v -0.00779659 -0.02871036 -0.00071589
v -0.00508636 -0.02871036 0.00397825
v -0.00707042 -0.02525645 0.00199425
v -0.00707042 -0.02871036 0.00199425
v -0.00237608 -0.02871036 0.00470459
v -0.00508636 -0.02525645 0.00397825
v -0.00508636 -0.02871036 0.00397825
v 0.00033411 -0.02871036 0.00397825
v -0.00237608 -0.02525645 0.00470459
v -0.00237608 -0.02871036 0.00470459
v 0.00231820 -0.02871036 0.00199425
v 0.00033411 -0.02525645 0.00397825
v 0.00033411 -0.02871036 0.00397825
v 0.00304431 -0.02871036 -0.00071589
v 0.00231820 -0.02525645 0.00199425
v 0.00231820 -0.02871036 0.00199425
v 0.00231820 -0.02871036 -0.00342607
v 0.00304431 -0.02525645 -0.00071589
v 0.00304431 -0.02871036 -0.00071589
v 0.00033411 -0.02871036 -0.00541025
v 0.00231820 -0.02525645 -0.00342607
v 0.00231820 -0.02871036 -0.00342607
v -0.00237608 -0.02871036 -0.00613630
v 0.00033411 -0.02525645 -0.00541025
v 0.00033411 -0.02871036 -0.00541025
v -0.00508636 -0.02871036 -0.00541025
v -0.00237608 -0.02525645 -0.00613630
v -0.00237608 -0.02871036 -0.00613630
v -0.00632054 -0.02959036 -0.00299323
v -0.00465351 -0.02959036 -0.00466031
v -0.00237608 -0.02959036 -0.00071589
v -0.00693077 -0.02959036 -0.00071589
v -0.00632054 -0.02959036 0.00156128
v -0.00465351 -0.02959036 0.00322854
v -0.00237608 -0.02959036 0.00383854
v -0.00009869 -0.02959036 0.00322854
v 0.00156838 -0.02959036 0.00156128
v 0.00217849 -0.02959036 -0.00071589
v 0.00156838 -0.02959036 -0.00299323
v -0.00009869 -0.02959036 -0.00466031
v -0.00237608 -0.02959036 -0.00527048
v -0.00707042 -0.02871036 -0.00342607
v -0.00465351 -0.02959036 -0.00466031
v -0.00632054 -0.02959036 -0.00299323
v -0.00707042 -0.02871036 -0.00342607
v -0.00693077 -0.02959036 -0.00071589
v -0.00779659 -0.02871036 -0.00071589
v -0.00779659 -0.02871036 -0.00071589
v -0.00632054 -0.02959036 0.00156128
v -0.00707042 -0.02871036 0.00199425
v -0.00508636 -0.02871036 0.00397825
v -0.00632054 -0.02959036 0.00156128
v -0.00465351 -0.02959036 0.00322854
v -0.00508636 -0.02871036 0.00397825
v -0.00237608 -0.02959036 0.00383854
v -0.00237608 -0.02871036 0.00470459
v 0.00033411 -0.02871036 0.00397825
v -0.00237608 -0.02959036 0.00383854
v -0.00009869 -0.02959036 0.00322854
v 0.00033411 -0.02871036 0.00397825
v 0.00156838 -0.02959036 0.00156128
v 0.00231820 -0.02871036 0.00199425
v 0.00304431 -0.02871036 -0.00071589
v 0.00156838 -0.02959036 0.00156128
v 0.00217849 -0.02959036 -0.00071589
v 0.00231820 -0.02871036 -0.00342607
v 0.00217849 -0.02959036 -0.00071589
v 0.00156838 -0.02959036 -0.00299323
v 0.00231820 -0.02871036 -0.00342607
v -0.00009869 -0.02959036 -0.00466031
v 0.00033411 -0.02871036 -0.00541025
v 0.00033411 -0.02871036 -0.00541025
v -0.00237608 -0.02959036 -0.00527048
v -0.00237608 -0.02871036 -0.00613630
v -0.00508636 -0.02871036 -0.00541025
v -0.00237608 -0.02959036 -0.00527048
v -0.00465351 -0.02959036 -0.00466031
v 0.00231820 -0.02149832 0.00199425
v 0.00033411 -0.02061820 0.00397825
v 0.00033411 -0.02149832 0.00397825
v 0.00033411 -0.02149832 0.00397825
v -0.00237608 -0.02061820 0.00470459
v -0.00237608 -0.02149832 0.00470459
v -0.00237608 -0.02149832 0.00470459
v -0.00508636 -0.02061820 0.00397825
v -0.00508636 -0.02149832 0.00397825
v -0.00508636 -0.02149832 0.00397825
v -0.00707042 -0.02061820 0.00199425
v -0.00707042 -0.02149832 0.00199425
v -0.00707042 -0.02149832 0.00199425
v -0.00779659 -0.02061820 -0.00071589
v -0.00779659 -0.02149832 -0.00071589
v -0.00779659 -0.02149832 -0.00071589
v -0.00707042 -0.02061820 -0.00342607
v -0.00707042 -0.02149832 -0.00342607
v -0.00707042 -0.02149832 -0.00342607
v -0.00508636 -0.02061820 -0.00541025
v -0.00508636 -0.02149832 -0.00541025
v -0.00508636 -0.02149832 -0.00541025
v -0.00237608 -0.02061820 -0.00613630
v -0.00237608 -0.02149832 -0.00613630
v -0.00237608 -0.02149832 -0.00613630
v 0.00033411 -0.02061820 -0.00541025
v 0.00033411 -0.02149832 -0.00541025
v 0.00033411 -0.02149832 -0.00541025
v 0.00231820 -0.02061820 -0.00342607
v 0.00231820 -0.02149832 -0.00342607
v 0.00231820 -0.02149832 -0.00342607
v 0.00304431 -0.02061820 -0.00071589
v 0.00304431 -0.02149832 -0.00071589
v 0.00304431 -0.02149832 -0.00071589
v 0.00231820 -0.02061820 0.00199425
v 0.00231820 -0.02149832 0.00199425
v 0.00231820 -0.02525645 0.00199425
v 0.00033411 -0.02525645 0.00397825
v -0.00237608 -0.02525645 0.00470459
v -0.00508636 -0.02525645 0.00397825
v -0.00707042 -0.02525645 0.00199425
v -0.00779659 -0.02525645 -0.00071589
v -0.00707042 -0.02525645 -0.00342607
v -0.00508636 -0.02525645 -0.00541025
v -0.00237608 -0.02525645 -0.00613630
v 0.00231820 -0.02525645 -0.00342607
v 0.04232907 -0.02525645 -0.00217247
v 0.04379791 -0.02525645 0.00021827
v 0.00033411 -0.02149832 -0.00541025
v 0.04232907 -0.02525645 -0.00217247
v 0.00033411 -0.02525645 -0.00541025
v 0.00231820 -0.02149832 -0.00342607
v 0.04232907 -0.02149832 -0.00217247
v 0.00033411 -0.02149832 -0.00541025
v 0.00304431 -0.02525645 -0.00071589
v 0.04387474 -0.02525645 0.00302303
v 0.00304431 -0.02149832 -0.00071589
v 0.04379791 -0.02149832 0.00021827
v 0.04253882 -0.02525645 0.00549042
v 0.00231820 -0.02525645 0.00199425
v 0.04253882 -0.02149832 0.00549042
v 0.04387474 -0.02149832 0.00302303
v 0.00231820 -0.02525645 0.00199425
v 0.04253882 -0.02149832 0.00549042
v 0.00231820 -0.02149832 0.00199425
v 0.04379791 -0.02525645 0.00021827
v 0.04753845 -0.02334326 -0.00428551
v 0.04847657 -0.02334326 -0.00189477
v 0.04232907 -0.02149832 -0.00217247
v 0.04753845 -0.02334326 -0.00428551
v 0.04232907 -0.02525645 -0.00217247
v 0.04379791 -0.02149832 0.00021827
v 0.04753845 -0.02091449 -0.00428551
v 0.04232907 -0.02149832 -0.00217247
v 0.04379791 -0.02525645 0.00021827
v 0.04852581 -0.02334326 0.00090997
v 0.04387474 -0.02525645 0.00302303
v 0.04379791 -0.02149832 0.00021827
v 0.04852581 -0.02091449 0.00090997
v 0.04847657 -0.02091449 -0.00189477
v 0.04387474 -0.02525645 0.00302303
v 0.04767239 -0.02334326 0.00337732
v 0.04253882 -0.02525645 0.00549042
v 0.04387474 -0.02149832 0.00302303
v 0.04767239 -0.02091449 0.00337732
v 0.04852581 -0.02091449 0.00090997
v 0.04253882 -0.02149832 0.00549042
v 0.04767239 -0.02334326 0.00337732
v 0.04767239 -0.02091449 0.00337732
v 0.04753845 -0.02334326 -0.00428551
v 0.05453872 -0.02254259 -0.00761801
v 0.04847657 -0.02334326 -0.00189477
v 0.04753845 -0.02091449 -0.00428551
v 0.05360060 -0.02254259 -0.01000881
v 0.04753845 -0.02334326 -0.00428551
v 0.04753845 -0.02091449 -0.00428551
v 0.05453872 -0.02011382 -0.00761801
v 0.05360060 -0.02011382 -0.01000881
v 0.04847657 -0.02334326 -0.00189477
v 0.05458790 -0.02254259 -0.00481319
v 0.04852581 -0.02334326 0.00090997
v 0.04847657 -0.02091449 -0.00189477
v 0.05458790 -0.02011382 -0.00481319
v 0.05453872 -0.02011382 -0.00761801
v 0.04852581 -0.02334326 0.00090997
v 0.05373448 -0.02254259 -0.00234586
v 0.04767239 -0.02334326 0.00337732
v 0.04852581 -0.02091449 0.00090997
v 0.05373448 -0.02011382 -0.00234586
v 0.05458790 -0.02011382 -0.00481319
v 0.04767239 -0.02091449 0.00337732
v 0.05373448 -0.02254259 -0.00234586
v 0.05373448 -0.02011382 -0.00234586
v 0.05453872 -0.02254259 -0.00761801
v 0.05986553 -0.02201342 -0.00979584
v 0.05458790 -0.02254259 -0.00481319
v 0.05458790 -0.02254259 -0.00481319
v 0.05901229 -0.02201342 -0.00732845
v 0.05373448 -0.02254259 -0.00234586
v 0.05901229 -0.02201342 -0.00732845
v 0.05901229 -0.01958459 -0.00732845
v 0.05458790 -0.02011382 -0.00481319
v 0.05901229 -0.01958459 -0.00732845
v 0.05986553 -0.01958459 -0.00979584
v 0.05453872 -0.02011382 -0.00761801
v 0.05986553 -0.01958459 -0.00979584
v 0.05981653 -0.01958459 -0.01260066
v 0.05360060 -0.02011382 -0.01000881
v 0.05981653 -0.01958459 -0.01260066
v 0.05887824 -0.01958459 -0.01499140
v 0.05360060 -0.02011382 -0.01000881
v 0.05887824 -0.02201342 -0.01499140
v 0.05360060 -0.02254259 -0.01000881
v 0.05981653 -0.02201342 -0.01260066
v 0.05453872 -0.02254259 -0.00761801
v 0.00304431 -0.02525645 -0.00071589
v 0.00231820 -0.02525645 -0.00342607
v 0.00033411 -0.02525645 -0.00541025
v -0.00508636 -0.02871036 -0.00541025
v -0.00632054 -0.02959036 -0.00299323
v -0.00693077 -0.02959036 -0.00071589
v -0.00707042 -0.02871036 0.00199425
v -0.00465351 -0.02959036 0.00322854
v -0.00237608 -0.02871036 0.00470459
v -0.00009869 -0.02959036 0.00322854
v 0.00231820 -0.02871036 0.00199425
v 0.00304431 -0.02871036 -0.00071589
v 0.00156838 -0.02959036 -0.00299323
v -0.00009869 -0.02959036 -0.00466031
v -0.00237608 -0.02871036 -0.00613630
v 0.00231820 -0.02061820 0.00199425
v 0.00033411 -0.02061820 0.00397825
v -0.00237608 -0.02061820 0.00470459
v -0.00508636 -0.02061820 0.00397825
v -0.00707042 -0.02061820 0.00199425
v -0.00779659 -0.02061820 -0.00071589
v -0.00707042 -0.02061820 -0.00342607
v -0.00508636 -0.02061820 -0.00541025
v -0.00237608 -0.02061820 -0.00613630
v 0.00033411 -0.02061820 -0.00541025
v 0.00231820 -0.02061820 -0.00342607
v 0.00304431 -0.02061820 -0.00071589
v 0.00033411 -0.02525645 -0.00541025
v 0.04232907 -0.02149832 -0.00217247
v 0.00231820 -0.02149832 0.00199425
v 0.04253882 -0.02525645 0.00549042
v 0.04379791 -0.02525645 0.00021827
v 0.04232907 -0.02525645 -0.00217247
v 0.04753845 -0.02334326 -0.00428551
v 0.04753845 -0.02091449 -0.00428551
v 0.04379791 -0.02149832 0.00021827
v 0.04847657 -0.02091449 -0.00189477
v 0.04753845 -0.02091449 -0.00428551
v 0.04847657 -0.02334326 -0.00189477
v 0.04387474 -0.02149832 0.00302303
v 0.04387474 -0.02525645 0.00302303
v 0.04852581 -0.02334326 0.00090997
v 0.04767239 -0.02334326 0.00337732
v 0.04387474 -0.02149832 0.00302303
v 0.04253882 -0.02149832 0.00549042
v 0.04767239 -0.02091449 0.00337732
v 0.04253882 -0.02525645 0.00549042
v 0.05360060 -0.02254259 -0.01000881
v 0.04847657 -0.02091449 -0.00189477
v 0.05453872 -0.02254259 -0.00761801
v 0.04852581 -0.02091449 0.00090997
v 0.05458790 -0.02254259 -0.00481319
v 0.04767239 -0.02091449 0.00337732
v 0.04767239 -0.02334326 0.00337732
v 0.05981653 -0.02201342 -0.01260066
v 0.05986553 -0.02201342 -0.00979584
v 0.05373448 -0.02011382 -0.00234586
v 0.05458790 -0.02011382 -0.00481319
v 0.05453872 -0.02011382 -0.00761801
v 0.05887824 -0.01958459 -0.01499140
v 0.05887824 -0.02201342 -0.01499140
f 1 2 3
f 4 5 6
f 7 8 9
f 10 11 12
f 13 14 15
f 16 17 18
f 19 20 21
f 22 23 24
f 25 26 27
f 28 29 30
f 31 32 33
f 34 35 36
f 37 38 39
f 40 37 39
f 41 40 39
f 42 41 39
f 43 42 39
f 44 43 39
f 45 44 39
f 46 45 39
f 47 46 39
f 48 47 39
f 49 48 39
f 38 49 39
f 50 51 52
f 53 54 55
f 56 57 58
f 59 60 61
f 62 63 64
f 65 66 67
f 68 69 70
f 71 72 73
f 74 75 76
f 77 78 79
f 80 81 82
f 83 84 85
f 86 87 88
f 89 90 91
f 92 93 94
f 95 96 97
f 98 99 100
f 101 102 103
f 104 105 106
f 107 108 109
f 110 111 112
f 113 114 115
f 116 117 118
f 119 120 121
f 122 91 17
f 123 94 14
f 124 97 11
f 125 100 8
f 126 103 5
f 127 106 2
f 128 109 35
f 129 112 32
f 130 131 132
f 133 134 135
f 136 137 133
f 136 132 138
f 139 140 141
f 142 143 144
f 145 146 147
f 148 149 150
f 151 150 152
f 151 153 142
f 131 154 132
f 137 155 134
f 138 156 137
f 132 157 138
f 158 159 160
f 143 161 162
f 163 164 165
f 150 166 167
f 152 167 168
f 153 168 161
f 154 169 170
f 155 171 172
f 156 173 171
f 157 170 173
f 174 175 176
f 177 178 179
f 180 181 182
f 183 184 185
f 186 187 188
f 189 190 191
f 192 193 194
f 195 196 197
f 198 199 196
f 200 194 199
f 201 202 203
f 204 205 206
f 207 208 209
f 210 211 212
f 212 213 214
f 214 215 204
f 216 217 218
f 203 219 220
f 221 222 223
f 224 223 225
f 226 225 227
f 228 227 229
f 230 231 208
f 232 233 234
f 234 235 236
f 236 237 216
f 1 127 2
f 4 126 5
f 7 125 8
f 10 124 11
f 13 123 14
f 16 122 17
f 19 238 20
f 22 239 23
f 25 240 26
f 28 241 29
f 31 129 32
f 34 128 35
f 50 242 51
f 53 243 54
f 56 244 57
f 59 245 60
f 62 246 63
f 65 247 66
f 68 248 69
f 71 249 72
f 74 250 75
f 77 251 78
f 80 252 81
f 83 253 84
f 86 254 87
f 89 255 90
f 92 256 93
f 95 257 96
f 98 258 99
f 101 259 102
f 104 260 105
f 107 261 108
f 110 262 111
f 113 263 114
f 116 264 117
f 119 265 120
f 122 89 91
f 123 92 94
f 124 95 97
f 125 98 100
f 126 101 103
f 127 104 106
f 128 107 109
f 129 110 112
f 130 266 131
f 133 137 134
f 136 138 137
f 136 130 132
f 139 267 140
f 142 153 143
f 145 268 146
f 148 269 149
f 151 148 150
f 151 152 153
f 131 270 154
f 137 156 155
f 138 157 156
f 132 154 157
f 158 271 159
f 143 153 161
f 163 272 164
f 150 149 166
f 152 150 167
f 153 152 168
f 154 270 169
f 155 156 171
f 156 157 173
f 157 154 170
f 174 273 175
f 274 275 276
f 180 277 181
f 278 279 280
f 281 282 283
f 284 285 286
f 192 287 193
f 195 198 196
f 198 200 199
f 200 192 194
f 201 288 202
f 204 215 205
f 207 230 208
f 210 289 211
f 212 211 213
f 214 213 215
f 216 237 217
f 203 202 219
f 221 290 222
f 224 221 223
f 226 224 225
f 228 226 227
f 230 291 231
f 232 292 233
f 234 233 235
f 236 235 237
f 293 294 295
f 296 297 298
f 299 300 301
f 302 303 304
f 305 306 307
f 308 309 310
f 311 312 313
f 314 315 316
f 317 318 319
f 320 321 322
f 323 324 325
f 326 327 328
f 329 330 331
f 332 330 329
f 333 330 332
f 334 330 333
f 335 330 334
f 336 330 335
f 337 330 336
f 338 330 337
f 339 330 338
f 340 330 339
f 341 330 340
f 331 330 341
f 342 343 344
f 345 346 347
f 348 349 350
f 351 352 353
f 354 355 356
f 357 358 359
f 360 361 362
f 363 364 365
f 366 367 368
f 369 370 371
f 372 373 374
f 375 376 377
f 378 379 380
f 381 382 383
f 384 385 386
f 387 388 389
f 390 391 392
f 393 394 395
f 396 397 398
f 399 400 401
f 402 403 404
f 405 406 407
f 408 409 410
f 411 412 413
f 380 414 311
f 383 415 308
f 386 416 305
f 389 417 302
f 392 418 299
f 395 419 296
f 398 420 293
f 401 421 326
f 404 422 323
f 423 424 425
f 426 427 428
f 429 430 431
f 432 433 423
f 434 435 430
f 436 432 437
f 435 438 439
f 440 441 442
f 443 444 445
f 446 447 448
f 449 450 451
f 452 453 454
f 455 456 457
f 458 459 460
f 461 462 463
f 464 465 466
f 467 468 469
f 470 471 472
f 473 474 475
f 476 477 478
f 479 480 481
f 482 483 484
f 485 486 487
f 488 489 490
f 491 492 493
f 494 495 496
f 497 498 489
f 499 500 501
f 502 503 504
f 505 506 507
f 508 509 470
f 510 511 512
f 293 420 294
f 296 419 297
f 299 418 300
f 302 417 303
f 305 416 306
f 308 415 309
f 311 414 312
f 314 513 315
f 317 514 318
f 320 515 321
f 323 422 324
f 326 421 327
f 342 516 343
f 345 517 346
f 348 518 349
f 351 519 352
f 354 520 355
f 357 521 358
f 360 522 361
f 363 523 364
f 366 524 367
f 369 525 370
f 372 526 373
f 375 527 376
f 378 528 379
f 381 529 382
f 384 530 385
f 387 531 388
f 390 532 391
f 393 533 394
f 396 534 397
f 399 535 400
f 402 536 403
f 405 537 406
f 408 538 409
f 411 539 412
f 380 379 414
f 383 382 415
f 386 385 416
f 389 388 417
f 392 391 418
f 395 394 419
f 398 397 420
f 401 400 421
f 404 403 422
f 423 433 424
f 426 540 427
f 429 434 430
f 432 541 433
f 434 542 435
f 436 541 432
f 435 542 438
f 440 543 441
f 544 545 546
f 446 547 447
f 548 549 550
f 452 551 453
f 455 552 456
f 553 554 555
f 556 557 558
f 464 559 465
f 467 560 468
f 470 509 471
f 473 561 474
f 476 562 477
f 479 563 480
f 482 564 483
f 485 565 486
f 488 497 489
f 491 566 492
f 494 567 495
f 497 568 498
f 499 569 500
f 502 570 503
f 505 571 506
f 508 572 509
f 510 573 511
f 574 575 576
f 577 578 579
f 580 581 582
f 583 584 585
f 586 587 588
f 589 590 591
f 592 593 594
f 595 596 597
f 598 599 600
f 601 575 602
f 603 604 605
f 606 582 581
f 607 608 586
f 609 610 611
f 612 613 614
f 615 614 613
f 616 617 618
f 619 620 621
f 619 622 623
f 624 625 626
f 627 628 629
f 630 631 632
f 633 634 635
f 636 637 638
f 639 640 641
f 626 642 601
f 629 643 607
f 632 644 606
f 635 645 612
f 638 646 603
f 647 648 649
f 650 651 652
f 653 654 655
f 656 657 658
f 659 660 661
f 662 597 663
f 664 604 646
f 665 646 637
f 666 637 667
f 668 669 670
f 671 672 577
f 673 629 674
f 674 607 675
f 675 586 676
f 676 588 677
f 585 678 679
f 680 617 681
f 682 590 683
f 672 611 578
f 668 684 685
f 686 632 634
f 634 606 645
f 645 581 613
f 687 613 581
f 688 678 584
f 689 584 690
f 621 576 575
f 622 575 642
f 640 642 625
f 641 625 691
f 692 693 610
f 694 692 695
f 696 635 697
f 697 612 698
f 698 614 594
f 699 594 614
f 700 681 701
f 702 681 616
f 600 703 619
f 600 623 704
f 705 658 657
f 706 649 707
f 708 652 709
f 710 711 639
f 712 713 714
f 715 716 717
f 718 686 633
f 719 720 721
f 722 714 723
f 724 630 686
f 725 726 727
f 728 729 730
f 731 732 733
f 734 735 736
f 737 738 739
f 740 589 741
f 742 593 743
f 744 745 746
f 747 598 748
f 726 749 727
f 750 751 752
f 733 753 731
f 754 755 738
f 756 757 758
f 759 760 761
f 762 761 763
f 764 765 766
f 767 768 769
f 770 768 771
f 772 773 774
f 775 776 777
f 778 779 780
f 781 782 783
f 784 785 786
f 787 788 789
f 790 774 749
f 791 777 755
f 792 780 753
f 793 783 760
f 794 786 751
f 795 796 797
f 798 799 800
f 801 802 803
f 804 805 806
f 807 808 809
f 746 810 811
f 750 812 794
f 794 813 784
f 784 814 815
f 816 817 818
f 819 820 729
f 777 821 822
f 755 822 823
f 738 823 824
f 739 824 825
f 826 736 827
f 764 828 829
f 740 682 683
f 758 819 728
f 830 817 831
f 780 832 781
f 753 781 793
f 731 793 759
f 833 759 762
f 826 834 734
f 734 835 836
f 837 769 726
f 726 770 790
f 790 787 772
f 772 789 838
f 839 840 756
f 840 841 842
f 783 843 844
f 760 844 845
f 761 845 846
f 763 846 742
f 829 847 848
f 829 849 765
f 850 748 768
f 771 748 851
f 852 853 805
f 797 854 855
f 800 856 857
f 858 859 788
f 860 861 862
f 863 864 865
f 832 866 782
f 867 868 869
f 862 870 871
f 779 872 832
f 574 602 575
f 577 672 578
f 580 687 581
f 583 690 584
f 586 608 587
f 589 683 590
f 592 743 593
f 595 873 596
f 598 874 599
f 601 642 575
f 603 646 604
f 606 644 582
f 607 643 608
f 609 692 610
f 612 645 613
f 615 699 614
f 616 681 617
f 619 703 620
f 619 621 622
f 624 691 625
f 627 875 628
f 630 876 631
f 633 686 634
f 636 667 637
f 639 711 640
f 626 625 642
f 629 628 643
f 632 631 644
f 635 634 645
f 638 637 646
f 647 877 648
f 650 878 651
f 653 879 654
f 656 880 657
f 659 881 660
f 662 595 597
f 664 882 604
f 665 664 646
f 666 665 637
f 668 883 669
f 671 884 672
f 673 627 629
f 674 629 607
f 675 607 586
f 676 586 588
f 585 584 678
f 680 885 617
f 682 886 590
f 672 609 611
f 668 670 684
f 686 630 632
f 634 632 606
f 645 606 581
f 687 615 613
f 688 887 678
f 689 688 584
f 621 620 576
f 622 621 575
f 640 622 642
f 641 640 625
f 692 888 693
f 694 888 692
f 696 633 635
f 697 635 612
f 698 612 614
f 699 592 594
f 700 680 681
f 702 701 681
f 600 599 703
f 600 619 623
f 705 889 658
f 706 647 649
f 708 650 652
f 710 890 711
f 712 891 713
f 715 892 716
f 718 724 686
f 719 893 720
f 722 712 714
f 724 894 630
f 725 837 726
f 728 819 729
f 731 833 732
f 734 836 735
f 737 754 738
f 740 683 589
f 742 846 593
f 744 895 745
f 747 874 598
f 726 790 749
f 750 794 751
f 733 792 753
f 754 791 755
f 756 840 757
f 759 793 760
f 762 759 761
f 764 829 765
f 767 850 768
f 770 769 768
f 772 838 773
f 775 896 776
f 778 897 779
f 781 832 782
f 784 815 785
f 787 858 788
f 790 772 774
f 791 775 777
f 792 778 780
f 793 781 783
f 794 784 786
f 795 898 796
f 798 899 799
f 801 900 802
f 804 852 805
f 807 901 808
f 746 745 810
f 750 902 812
f 794 812 813
f 784 813 814
f 816 903 817
f 819 904 820
f 777 776 821
f 755 777 822
f 738 755 823
f 739 738 824
f 826 734 736
f 764 905 828
f 740 906 682
f 758 757 819
f 830 818 817
f 780 779 832
f 753 780 781
f 731 753 793
f 833 731 759
f 826 907 834
f 734 834 835
f 837 767 769
f 726 769 770
f 790 770 787
f 772 787 789
f 839 908 840
f 840 908 841
f 783 782 843
f 760 783 844
f 761 760 845
f 763 761 846
f 829 828 847
f 829 848 849
f 850 747 748
f 771 768 748
f 852 909 853
f 797 796 854
f 800 799 856
f 858 910 859
f 860 911 861
f 863 912 864
f 832 872 866
f 867 913 868
f 862 861 870
f 779 914 872
f 915 916 917
f 918 919 920
f 921 922 923
f 924 925 926
f 927 928 929
f 930 931 932
f 933 934 935
f 936 937 938
f 939 940 941
f 942 943 944
f 945 946 947
f 948 949 950
f 951 952 953
f 954 952 951
f 955 952 954
f 956 952 955
f 957 952 956
f 958 952 957
f 959 952 958
f 960 952 959
f 961 952 960
f 962 952 961
f 963 952 962
f 953 952 963
f 964 965 966
f 967 968 969
f 970 971 972
f 973 974 975
f 976 977 978
f 979 980 981
f 982 983 984
f 985 986 987
f 988 989 990
f 991 992 993
f 994 995 996
f 997 998 999
f 1000 1001 1002
f 1003 1004 1005
f 1006 1007 1008
f 1009 1010 1011
f 1012 1013 1014
f 1015 1016 1017
f 1018 1019 1020
f 1021 1022 1023
f 1024 1025 1026
f 1027 1028 1029
f 1030 1031 1032
f 1033 1034 1035
f 1005 1036 930
f 1008 1037 927
f 1011 1038 924
f 1014 1039 921
f 1017 1040 918
f 1020 1041 915
f 1023 1042 948
f 1026 1043 945
f 1044 1045 1046
f 1047 1048 1049
f 1050 1051 1048
f 1051 1052 1044
f 1053 1054 1055
f 1056 1057 1058
f 1059 1060 1061
f 1062 1063 1064
f 1065 1066 1062
f 1067 1065 1057
f 1068 1045 1052
f 1069 1050 1047
f 1070 1071 1050
f 1072 1052 1071
f 1073 1074 1075
f 1056 1076 1067
f 1077 1078 1079
f 1066 1080 1063
f 1081 1082 1066
f 1067 1083 1081
f 1068 1084 1085
f 1069 1086 1070
f 1070 1087 1072
f 1072 1088 1068
f 1089 1090 1091
f 1092 1093 1094
f 1095 1096 1097
f 1098 1099 1100
f 1101 1102 1103
f 1104 1105 1106
f 1107 1108 1109
f 1110 1111 1112
f 1112 1113 1114
f 1114 1115 1107
f 1116 1117 1118
f 1119 1120 1121
f 1122 1123 1124
f 1125 1126 1127
f 1128 1127 1129
f 1130 1129 1120
f 1131 1132 1133
f 1134 1135 1117
f 1136 1137 1138
f 1139 1140 1136
f 1141 1142 1139
f 1143 1144 1141
f 1145 1146 1122
f 1147 1148 1149
f 1150 1149 1151
f 1152 1151 1132
f 915 1041 916
f 918 1040 919
f 921 1039 922
f 924 1038 925
f 927 1037 928
f 930 1036 931
f 933 1153 934
f 936 1154 937
f 939 1155 940
f 942 1156 943
f 945 1043 946
f 948 1042 949
f 964 1157 965
f 967 1158 968
f 970 1159 971
f 973 1160 974
f 976 1161 977
f 979 1162 980
f 982 1163 983
f 985 1164 986
f 988 1165 989
f 991 1166 992
f 994 1167 995
f 997 1168 998
f 1000 1169 1001
f 1003 1170 1004
f 1006 1171 1007
f 1009 1172 1010
f 1012 1173 1013
f 1015 1174 1016
f 1018 1175 1019
f 1021 1176 1022
f 1024 1177 1025
f 1027 1178 1028
f 1030 1179 1031
f 1033 1180 1034
f 1005 1004 1036
f 1008 1007 1037
f 1011 1010 1038
f 1014 1013 1039
f 1017 1016 1040
f 1020 1019 1041
f 1023 1022 1042
f 1026 1025 1043
f 1044 1052 1045
f 1047 1050 1048
f 1050 1071 1051
f 1051 1071 1052
f 1053 1181 1054
f 1056 1067 1057
f 1059 1182 1060
f 1062 1066 1063
f 1065 1081 1066
f 1067 1081 1065
f 1068 1085 1045
f 1069 1070 1050
f 1070 1072 1071
f 1072 1068 1052
f 1073 1183 1074
f 1056 1184 1076
f 1077 1185 1078
f 1066 1082 1080
f 1081 1083 1082
f 1067 1076 1083
f 1068 1088 1084
f 1069 1186 1086
f 1070 1086 1087
f 1072 1087 1088
f 1089 1187 1090
f 1188 1189 1190
f 1095 1191 1096
f 1192 1193 1194
f 1195 1196 1197
f 1198 1199 1200
f 1107 1115 1108
f 1110 1201 1111
f 1112 1111 1113
f 1114 1113 1115
f 1116 1134 1117
f 1119 1130 1120
f 1122 1146 1123
f 1125 1202 1126
f 1128 1125 1127
f 1130 1128 1129
f 1131 1152 1132
f 1134 1203 1135
f 1136 1140 1137
f 1139 1142 1140
f 1141 1144 1142
f 1143 1204 1144
f 1145 1205 1146
f 1147 1206 1148
f 1150 1147 1149
f 1152 1150 1151
f 1207 1208 1209
f 1210 1211 1212
f 1213 1214 1215
f 1216 1217 1218
f 1219 1220 1221
f 1222 1223 1224
f 1225 1226 1227
f 1228 1229 1230
f 1231 1232 1233
f 1234 1235 1236
f 1237 1238 1239
f 1240 1241 1242
f 1243 1244 1245
f 1246 1243 1245
f 1247 1246 1245
f 1248 1247 1245
f 1249 1248 1245
f 1250 1249 1245
f 1251 1250 1245
f 1252 1251 1245
f 1253 1252 1245
f 1254 1253 1245
f 1255 1254 1245
f 1244 1255 1245
f 1256 1257 1258
f 1259 1260 1261
f 1262 1263 1264
f 1265 1266 1267
f 1268 1269 1270
f 1271 1272 1273
f 1274 1275 1276
f 1277 1278 1279
f 1280 1281 1282
f 1283 1284 1285
f 1286 1287 1288
f 1289 1290 1291
f 1292 1293 1294
f 1295 1296 1297
f 1298 1299 1300
f 1301 1302 1303
f 1304 1305 1306
f 1307 1308 1309
f 1310 1311 1312
f 1313 1314 1315
f 1316 1317 1318
f 1319 1320 1321
f 1322 1323 1324
f 1325 1326 1327
f 1328 1294 1226
f 1329 1297 1223
f 1330 1300 1220
f 1331 1303 1217
f 1332 1306 1214
f 1333 1309 1211
f 1334 1312 1208
f 1335 1315 1241
f 1336 1318 1238
f 1337 1338 1339
f 1340 1341 1342
f 1343 1344 1345
f 1346 1339 1347
f 1348 1349 1343
f 1346 1350 1351
f 1348 1352 1353
f 1354 1355 1356
f 1357 1358 1359
f 1360 1361 1362
f 1363 1364 1365
f 1366 1367 1368
f 1369 1370 1371
f 1372 1373 1374
f 1375 1376 1377
f 1378 1379 1380
f 1381 1382 1383
f 1384 1385 1386
f 1387 1388 1389
f 1390 1391 1392
f 1393 1394 1395
f 1396 1397 1398
f 1399 1400 1401
f 1402 1403 1404
f 1405 1406 1407
f 1408 1409 1410
f 1404 1411 1412
f 1413 1414 1415
f 1416 1417 1418
f 1419 1420 1421
f 1422 1423 1385
f 1424 1425 1426
f 1207 1334 1208
f 1210 1333 1211
f 1213 1332 1214
f 1216 1331 1217
f 1219 1330 1220
f 1222 1329 1223
f 1225 1328 1226
f 1228 1427 1229
f 1231 1428 1232
f 1234 1429 1235
f 1237 1336 1238
f 1240 1335 1241
f 1256 1430 1257
f 1259 1431 1260
f 1262 1432 1263
f 1265 1433 1266
f 1268 1434 1269
f 1271 1435 1272
f 1274 1436 1275
f 1277 1437 1278
f 1280 1438 1281
f 1283 1439 1284
f 1286 1440 1287
f 1289 1441 1290
f 1292 1442 1293
f 1295 1443 1296
f 1298 1444 1299
f 1301 1445 1302
f 1304 1446 1305
f 1307 1447 1308
f 1310 1448 1311
f 1313 1449 1314
f 1316 1450 1317
f 1319 1451 1320
f 1322 1452 1323
f 1325 1453 1326
f 1328 1292 1294
f 1329 1295 1297
f 1330 1298 1300
f 1331 1301 1303
f 1332 1304 1306
f 1333 1307 1309
f 1334 1310 1312
f 1335 1313 1315
f 1336 1316 1318
f 1337 1454 1338
f 1340 1455 1341
f 1343 1349 1344
f 1346 1337 1339
f 1348 1353 1349
f 1346 1347 1350
f 1348 1456 1352
f 1354 1457 1355
f 1458 1459 1460
f 1360 1461 1361
f 1462 1463 1464
f 1366 1465 1367
f 1369 1466 1370
f 1467 1468 1469
f 1470 1471 1472
f 1378 1473 1379
f 1381 1474 1382
f 1384 1422 1385
f 1387 1475 1388
f 1390 1476 1391
f 1393 1477 1394
f 1396 1478 1397
f 1399 1479 1400
f 1402 1480 1403
f 1405 1481 1406
f 1408 1482 1409
f 1404 1403 1411
f 1413 1483 1414
f 1416 1484 1417
f 1419 1485 1420
f 1422 1486 1423
f 1424 1487 1425

