# Blender 5.2.0 LTS
# www.blender.org
mtllib fork_left.mtl
o LeftFork
v 5.383364 1.988157 1.237669
v 5.347235 1.570034 3.445145
v 5.685903 1.988157 1.237700
v 5.312304 2.360821 3.442118
v 5.383296 1.988157 1.237700
v 5.312351 2.079940 1.237669
v 4.965139 1.823456 1.556697
v 5.028641 1.808218 1.237699
v 5.136575 1.542068 3.424168
v 5.175893 1.536435 3.426377
v 4.932666 1.805219 1.556699
v 5.684484 1.684488 1.237700
v 5.312304 2.397357 3.432837
v 5.277982 1.530245 3.430918
v 5.223919 2.394494 3.428984
v 5.681680 1.663460 1.237700
v 5.016170 1.767163 1.237700
v 4.988951 1.796471 1.338911
v 5.685973 1.988157 1.237669
v 4.984397 1.803360 1.370452
v 4.923563 1.767266 1.556697
v 5.164012 2.390754 3.426147
v 4.936775 1.800228 1.527561
v 5.136508 1.795273 3.424258
v 5.669182 1.618961 1.237700
v 5.134246 1.573776 3.424553
v 4.923572 1.566266 1.556699
v 5.645894 1.571481 1.237700
v 5.016140 1.534049 1.237700
v 5.347238 1.506384 1.556723
v 5.109892 1.569467 3.416775
v 5.618575 1.568521 1.556697
v 5.312304 2.162974 3.441254
v 5.589973 1.486294 1.237700
v 5.064533 1.569599 3.397858
v 5.033348 1.536399 3.377218
v 5.136245 2.387700 3.424187
v 5.065137 1.527651 3.384982
v 5.019331 1.486141 1.237700
v 5.312304 2.411917 3.398525
v 5.117852 1.525656 3.400509
v 4.936775 1.532084 1.527530
v 4.932445 1.525651 1.556697
v 5.164009 1.516348 3.398475
v 5.030677 1.436213 1.237700
v 5.213470 1.512674 3.398475
v 5.732183 1.515449 1.960490
v 5.230035 2.410507 3.398531
v 5.560109 1.465850 1.237700
v 5.283412 1.509988 3.398437
v 5.312391 2.415385 1.237684
v 5.034409 1.428470 1.237700
v 5.065162 1.406552 1.237700
v 4.965139 1.503391 1.556697
v 5.347240 1.767255 3.444299
v 5.510265 1.453178 1.237700
v 5.017782 1.497835 1.556697
v 5.685228 2.192052 1.237669
v 5.164012 2.407583 3.398525
v 5.065137 1.811583 3.389972
v 5.114577 1.409740 1.237700
v 5.510287 1.510388 1.556701
v 5.015676 1.802520 3.380730
v 5.117785 2.400641 3.400251
v 5.732183 1.515505 2.507994
v 4.989893 1.793772 3.374630
v 5.061055 1.765399 3.405103
v 5.111023 1.625289 3.418787
v 5.460881 1.509720 3.398475
v 4.992735 1.736455 3.376180
v 5.312304 2.113571 3.435858
v 5.312351 2.080319 3.391187
v 5.136211 2.133515 3.424206
v 4.974730 1.570776 3.354164
v 5.168939 2.124478 3.425941
v 4.936628 1.534299 3.328234
v 4.966214 1.525061 3.336183
v 4.966214 1.500881 3.299584
v 5.065137 1.504626 3.349122
v 5.135045 2.360923 3.424853
v 5.115226 1.500309 3.348473
v 5.065120 2.398034 3.384281
v 5.034473 2.390822 3.376728
v 5.065137 1.832264 3.349122
v 5.015676 1.822466 3.349122
v 5.312304 2.415125 3.346730
v 4.970520 1.804374 3.346349
v 4.989172 1.768824 3.374888
v 5.015676 1.767317 3.387384
v 5.115960 2.420402 3.348615
v 4.937028 1.797796 3.328050
v 4.934675 1.767317 3.330083
v 5.065120 2.416048 3.349105
v 4.933974 1.569467 3.330453
v 4.911546 1.569467 3.299584
v 5.732187 1.530560 2.558393
v 4.894325 1.569467 3.268530
v 5.541855 1.537733 3.431000
v 4.888468 1.533320 3.234704
v 4.927516 1.524606 3.299584
v 5.234346 2.088543 3.423604
v 5.014677 1.497653 3.298650
v 4.891395 1.494721 3.179114
v 5.385299 1.988157 3.425442
v 5.312304 2.085534 3.426795
v 5.347217 1.509244 3.398294
v 5.347236 1.849551 3.398475
v 4.990134 2.155813 3.375255
v 5.312351 2.415170 3.345673
v 5.015676 1.830094 3.299584
v 4.966214 1.821696 3.299584
v 4.989879 2.135614 3.374570
v 5.510318 1.517270 3.398475
v 5.020386 2.116923 3.378886
v 5.510318 1.531003 3.437745
v 5.039945 2.088578 3.373734
v 4.930120 1.803185 3.299584
v 4.883662 1.752305 3.250046
v 4.990252 2.191112 3.374139
v 4.890871 1.746461 3.276663
v 5.460279 1.527578 3.439240
v 4.892026 1.639273 3.276608
v 4.966182 2.417944 3.299686
v 4.966182 2.398644 3.334646
v 4.892323 1.602431 3.273521
v 4.843062 1.569467 3.123428
v 4.840309 1.535594 3.091450
v 4.883562 1.518098 3.197735
v 4.937120 2.391838 3.327525
v 5.715315 1.988157 1.965907
v 4.934700 2.361681 3.330257
v 4.839157 1.531010 3.052264
v 4.863537 1.506305 3.052264
v 5.383372 1.988162 1.556697
v 4.916703 1.828380 2.854481
v 4.966074 2.424489 3.248813
v 4.867242 1.816202 2.854481
v 4.841716 1.743298 3.130491
v 4.840902 1.795086 2.907233
v 5.680881 2.220885 1.237669
v 5.682786 2.227005 2.570757
v 4.858331 1.717837 3.200693
v 4.876303 1.717837 3.250046
v 4.890621 1.717837 3.277218
v 5.015674 2.421906 3.299686
v 5.559724 1.518971 1.556691
v 5.312304 2.081132 3.398525
v 4.839157 1.569467 3.098659
v 5.312377 2.085564 3.426892
v 5.732183 1.518875 1.914779
v 4.835803 1.569467 3.052264
v 4.934788 2.163075 3.329899
v 4.839262 1.531315 1.918095
v 5.411654 1.988157 3.440355
v 4.937120 2.129553 3.327956
v 4.863845 1.506393 1.920890
v 4.889822 1.494492 1.792287
v 4.966182 2.097318 3.299686
v 5.019983 1.497696 1.556876
v 5.590051 1.630580 3.428998
v 4.839157 1.798391 2.854481
v 4.867242 1.816202 2.162059
v 5.551986 1.571173 3.437941
v 4.933883 2.298282 3.330991
v 4.836109 1.712009 3.051090
v 5.510318 1.569465 3.454867
v 4.927838 2.400032 3.299686
v 4.836040 1.569374 1.916885
v 4.916736 2.420044 3.200631
v 5.568611 1.569466 3.398475
v 5.460852 2.410866 3.398491
v 4.888281 2.392820 3.234944
v 5.594622 1.618458 3.397971
v 4.913199 2.360877 3.299806
v 5.312304 2.415453 1.237885
v 4.916733 2.425778 3.101005
v 4.916736 2.424852 3.151212
v 4.966424 1.829907 1.621022
v 5.460877 1.569466 3.455240
v 4.839300 1.798049 2.110964
v 4.867242 1.814592 2.112521
v 4.891422 1.494862 1.738583
v 4.840959 1.538114 1.865200
v 4.966214 1.499307 1.568342
v 4.965163 1.503401 1.556882
v 5.015676 1.831809 1.556882
v 4.891405 2.186749 3.275281
v 4.915134 1.810498 1.656807
v 5.685934 1.988161 1.556695
v 4.977829 1.827715 1.556882
v 4.966214 1.826420 1.568342
v 4.884363 2.178177 3.250051
v 4.889269 1.797271 1.682760
v 4.929191 2.121223 3.299686
v 5.383516 1.988143 3.395859
v 4.840909 1.744607 1.874442
v 4.836854 1.717837 1.914738
v 5.510273 2.409789 1.237669
v 4.867217 2.105671 2.854896
v 4.916736 2.091663 2.854480
v 4.886413 1.534319 1.691935
v 4.932429 1.525606 1.556882
v 4.842431 1.544474 1.839634
v 5.714853 1.988154 2.502791
v 4.965163 1.823481 1.556882
v 5.732187 1.533158 1.874141
v 4.930770 1.806894 1.568342
v 4.932582 1.805192 1.556883
v 4.923493 1.767248 1.556882
v 5.668075 2.261908 1.237669
v 4.913331 2.405619 3.250914
v 4.842711 1.734599 1.841356
v 4.881704 2.400337 3.200631
v 5.593802 1.535855 1.556697
v 4.867243 2.413949 3.052157
v 5.732183 1.569807 2.580839
v 4.923505 1.566751 1.556881
v 4.872281 2.405077 3.151212
v 4.895511 2.360923 3.265589
v 4.842706 2.383237 3.125315
v 5.665207 2.262353 2.800952
v 5.312304 2.079947 1.237885
v 5.633896 1.693063 3.375005
v 5.596080 1.668428 3.433836
v 5.065895 2.421671 1.276620
v 4.857447 2.212546 3.200631
v 5.559756 1.668428 3.451517
v 4.841259 2.186127 3.131638
v 5.510182 1.621145 3.457968
v 4.840747 2.133210 2.903899
v 5.312351 2.113556 3.435874
v 4.839161 2.128639 2.854480
v 5.460881 1.988157 3.455053
v 4.966946 2.089700 1.616039
v 5.312351 2.411911 3.398491
v 4.999226 2.088816 1.411256
v 5.384804 2.412294 3.398431
v 4.840281 2.390991 3.092297
v 4.839161 2.393666 3.052157
v 5.460852 2.398150 3.437830
v 4.862438 2.405077 3.105893
v 4.867205 2.413687 1.916329
v 5.510353 2.394595 3.435004
v 4.839254 2.364411 3.105893
v 4.841177 2.335497 3.130387
v 5.046222 2.088102 1.237884
v 5.510353 2.403713 3.398491
v 5.347237 1.528473 3.434117
v 5.099566 2.420848 1.237885
v 5.715184 1.988156 1.953365
v 4.917387 2.424508 1.768028
v 4.916674 2.425496 1.838730
v 5.732184 1.977391 1.967174
v 5.732183 1.974377 1.914779
v 4.845272 2.212546 3.160492
v 5.559721 2.402186 1.237669
v 5.732183 1.958995 1.867313
v 4.837669 2.212546 3.101793
v 5.639571 2.319185 1.237669
v 4.839301 2.128958 2.113853
v 5.732181 1.898543 1.827232
v 4.867243 2.107002 2.112542
v 5.039744 2.088480 1.241985
v 4.835803 2.360923 3.052157
v 4.839264 2.393511 1.917691
v 5.063589 2.418386 1.237884
v 4.980060 2.421084 1.527284
v 5.679281 2.212358 2.804643
v 5.461046 1.988156 3.455041
v 4.835982 2.213695 1.917371
v 4.840729 2.184775 1.869367
v 5.625132 1.717886 3.400894
v 5.312351 2.162995 3.441307
v 4.889263 2.130126 1.682867
v 5.312351 2.397355 3.432831
v 4.913051 2.114214 1.666689
v 5.600376 1.717886 3.436070
v 5.392696 2.398751 3.436215
v 4.966182 2.092340 1.568498
v 5.559780 1.725562 3.453997
v 5.037971 2.093729 1.237885
v 4.836053 2.361081 1.917031
v 5.460852 2.360924 3.453913
v 5.511825 1.988157 3.457518
v 5.510353 2.360924 3.452174
v 5.411581 1.988157 3.440444
v 5.539445 2.389534 3.428919
v 4.916736 2.418960 1.716756
v 4.876992 2.404400 1.766391
v 5.541616 2.391416 3.398491
v 4.839395 2.212546 1.865230
v 4.842457 2.187726 1.839688
v 4.987998 2.130407 1.342592
v 5.027689 2.115253 1.237886
v 4.840934 2.389501 1.865230
v 5.028385 2.400815 1.237884
v 4.884780 2.399822 1.716707
v 4.842415 2.385824 1.839993
v 4.839395 2.360923 1.865230
v 5.016151 2.163273 1.237885
v 5.016194 2.360761 1.237885
v 5.630077 2.328307 2.798151
v 5.347249 1.851735 3.356848
v 4.988945 2.389806 1.339097
v 4.889167 2.391770 1.682659
v 5.385297 1.988157 3.425293
v 5.732182 1.552441 1.854655
v 5.562774 2.360924 3.398491
v 5.588799 2.314389 3.398128
v 5.649877 1.618997 1.556698
v 5.612906 2.261960 3.398491
v 5.634814 2.199353 3.376822
v 5.674045 1.667616 1.556694
v 5.635130 1.988157 3.378061
v 5.510080 2.308789 3.457859
v 5.312353 2.360831 3.442176
v 5.601430 1.988157 3.436628
v 5.559834 1.988157 3.453930
v 5.559774 2.261960 3.450218
v 5.732183 1.585988 1.836847
v 5.562735 2.312069 3.439786
v 5.548248 2.360924 3.435874
v 5.588551 2.295965 3.427615
v 5.608633 2.360976 2.798515
v 5.588186 2.388879 2.800339
v 5.347234 1.846154 3.405688
v 5.347250 1.818631 3.435309
v 5.590071 2.390446 1.237669
v 5.635119 1.988148 3.378202
v 5.612634 2.360707 1.237669
v 5.626134 1.988157 3.402870
v 5.594590 2.261960 3.432613
v 5.626406 2.214904 3.395231
v 5.626169 2.163080 3.402620
v 5.626197 1.988157 3.402581
v 5.732183 1.962002 2.561500
v 5.510353 1.988157 3.457608
v 5.559974 2.208419 3.453614
v 5.732185 1.976438 2.507882
v 5.559846 1.988157 3.453907
v 5.599998 2.212520 3.435874
v 5.601486 1.988157 3.436497
v 5.347237 1.851761 1.556745
v 5.683754 1.692194 1.556695
vn 0.9992 0.0037 -0.0403
vn 0.2460 0.1038 0.9637
vn -0.9572 0.0757 -0.2794
vn -0.4257 -0.1647 0.8897
vn -0.7947 -0.6028 0.0706
vn -0.3648 0.8617 0.3527
vn -0.4601 -0.3566 0.8131
vn 0.9055 0.4169 0.0795
vn 0.9425 -0.0068 0.3342
vn 0.9615 0.2730 0.0315
vn 0.9546 0.2980 -0.0027
vn -0.1957 0.9744 0.1105
vn -0.9993 -0.0369 0.0005
vn -0.9666 0.2565 0.0002
vn -0.0052 0.9981 0.0616
vn -0.0324 0.9202 0.3901
vn 0.0349 0.1081 0.9935
vn -0.0455 0.3549 0.9338
vn -0.0776 -0.1055 0.9914
vn -0.0422 -0.9862 0.1602
vn 0.2091 0.0627 0.9759
vn -0.4771 0.8582 -0.1896
vn -0.3944 -0.2811 0.8749
vn -0.2151 -0.1067 0.9707
vn -0.8147 0.0195 0.5795
vn 0.1388 0.9608 0.2399
vn 0.3952 0.0031 0.9186
vn -0.0910 0.8505 0.5181
vn 0.9427 0.2556 0.2146
vn 0.9237 0.0499 0.3797
vn -0.8032 -0.0236 0.5952
vn -0.2799 -0.1880 0.9414
vn 0.2778 0.9606 0.0118
vn 0.0832 0.4527 0.8878
vn 0.0856 0.9480 0.3064
vn -0.9947 0.0748 0.0711
vn 0.3735 0.3260 0.8684
vn 0.2565 0.4391 0.8610
vn 0.3648 0.9274 0.0834
vn 0.2144 0.9477 0.2367
vn 0.7112 0.3649 0.6009
vn 0.8545 0.4763 0.2073
vn -0.6910 0.6933 0.2044
vn -0.0964 -0.0018 0.9953
vn 0.8342 0.0741 0.5464
vn 0.3994 0.0595 0.9148
vn -0.0765 0.2471 0.9660
vn -0.5771 0.8130 0.0773
vn -0.2993 -0.0302 0.9537
vn 0.8284 0.1266 0.5457
vn -0.9965 0.0476 -0.0687
vn -0.9967 0.0031 -0.0812
vn -0.6347 -0.0115 0.7727
vn 0.8953 -0.4421 0.0542
vn -0.9608 0.0002 -0.2773
vn -0.0000 -0.0000 -1.0000
vn -0.7118 -0.7023 -0.0003
vn -0.9963 -0.0856 0.0005
vn -0.0000 -1.0000 -0.0000
vn 1.0000 -0.0000 -0.0000
vn -0.4485 0.8840 -0.1315
vn 0.8917 -0.4112 0.1892
vn 0.7871 -0.5911 0.1765
vn -0.2437 0.0053 0.9698
vn -0.9655 0.2538 0.0583
vn 0.5959 -0.7576 -0.2662
vn 0.0261 0.9997 -0.0000
vn 0.8370 -0.5143 0.1868
vn 0.1509 -0.9878 0.0395
vn -0.0293 -0.3563 0.9339
vn 0.9880 -0.0766 0.1342
vn -0.9512 0.2259 0.2104
vn -0.9634 0.2425 0.1139
vn 0.8843 -0.3493 -0.3099
vn 0.9157 -0.2855 -0.2827
vn 0.4341 -0.8762 -0.2093
vn 0.9713 -0.1116 -0.2102
vn 0.8679 -0.4588 0.1902
vn -0.8847 -0.0098 0.4661
vn 0.4545 -0.8833 0.1150
vn 0.2625 -0.9108 0.3185
vn 0.1427 -0.9343 0.3267
vn 0.0745 -0.9130 0.4011
vn 0.9257 0.3651 0.0983
vn 0.8445 -0.4198 -0.3325
vn 0.7515 -0.5699 -0.3324
vn 0.0285 0.9996 0.0003
vn -0.9905 0.0006 0.1372
vn -0.4860 -0.8713 -0.0689
vn -0.5022 0.8597 0.0934
vn -0.2827 0.0990 0.9541
vn 0.0075 -0.0599 0.9982
vn 0.0551 -0.4061 0.9122
vn 0.2716 -0.3914 0.8792
vn 0.3700 -0.2950 0.8810
vn 0.8826 -0.3790 0.2781
vn 0.6838 -0.3411 0.6450
vn 0.0032 -0.9159 0.4013
vn 0.9365 0.3336 -0.1081
vn 0.9862 0.0916 -0.1382
vn -0.5701 -0.8187 0.0685
vn 0.8212 0.5671 0.0629
vn -0.9624 0.0329 -0.2695
vn 0.3772 -0.1575 0.9126
vn 0.4321 -0.1585 0.8878
vn 0.4363 -0.0784 0.8964
vn 0.4918 -0.1871 0.8504
vn 0.8140 -0.0966 0.5728
vn -0.0828 0.1177 0.9896
vn 0.1475 0.9891 0.0028
vn -0.0000 1.0000 -0.0000
vn -0.9964 0.0537 -0.0650
vn -0.5855 0.8107 -0.0002
vn -0.9941 0.0086 0.1079
vn -0.2173 -0.4855 0.8468
vn 0.1758 -0.0502 0.9831
vn -0.1461 -0.9889 0.0288
vn -0.0447 0.8879 0.4579
vn -0.8554 -0.4534 -0.2504
vn -0.2938 -0.3634 0.8841
vn -0.3668 -0.4053 0.8374
vn -0.3104 -0.2983 0.9026
vn -0.4717 0.8758 0.1024
vn -0.3186 -0.0063 0.9479
vn -0.5128 -0.5574 0.6529
vn -0.9604 -0.0000 -0.2787
vn -0.6635 -0.7315 -0.1574
vn -0.0508 -0.3072 0.9503
vn -0.9215 0.2410 0.3047
vn -0.1345 -0.3061 0.9425
vn 0.3942 -0.0053 0.9190
vn -0.8300 0.5093 -0.2274
vn -0.7286 0.6621 -0.1752
vn -0.7709 0.0058 0.6369
vn -0.0291 0.9994 0.0184
vn 1.0000 -0.0060 0.0012
vn -0.9961 -0.0706 -0.0521
vn -0.9300 0.0781 0.3591
vn -0.5790 0.8108 -0.0860
vn -0.6352 0.0062 0.7724
vn -0.0795 0.0007 0.9968
vn -0.9767 -0.2085 0.0506
vn -0.4380 0.8887 -0.1354
vn 0.7985 0.0039 0.6020
vn -0.3218 0.6032 0.7298
vn -0.4371 -0.6408 -0.6312
vn -0.9220 -0.2215 -0.3174
vn 0.0251 -0.9997 0.0001
vn -0.6102 -0.7818 -0.1281
vn -0.0837 -0.2156 0.9729
vn 0.1655 -0.9830 -0.0793
vn -0.7912 -0.6115 0.0001
vn -0.7766 0.5676 0.2732
vn -0.1357 -0.7689 0.6248
vn -0.5866 0.7998 0.1274
vn -0.9602 -0.0386 -0.2767
vn -0.2104 0.8646 0.4563
vn -0.6537 -0.0890 0.7515
vn 0.7989 -0.4954 -0.3411
vn -0.7562 -0.6369 0.1497
vn -0.5398 -0.8353 0.1044
vn -0.6319 0.7531 -0.1830
vn -0.7954 0.5580 -0.2367
vn -0.1296 0.8270 0.5471
vn -0.2170 0.7788 0.5885
vn -0.9975 -0.0017 0.0706
vn -0.3842 -0.9221 -0.0450
vn -0.3254 -0.9444 -0.0472
vn -0.8919 -0.4400 -0.1046
vn -0.3999 -0.9166 0.0003
vn -0.9226 -0.3749 -0.0910
vn -0.0281 0.9995 -0.0143
vn -0.0801 0.9773 0.1959
vn 0.9531 0.2914 0.0822
vn -0.9991 0.0415 0.0004
vn 0.8517 -0.4406 0.2839
vn -0.5345 0.8069 0.2514
vn -0.5944 0.7542 0.2792
vn -0.7551 0.5165 0.4038
vn -0.3919 0.8389 0.3776
vn -1.0000 -0.0056 0.0021
vn 0.8602 -0.1938 0.4718
vn -0.7985 -0.0900 0.5952
vn 0.0274 0.9977 0.0618
vn -0.0186 0.9975 0.0688
vn -0.0791 0.9887 0.1274
vn -0.3078 0.8330 0.4598
vn -0.1936 0.9811 0.0026
vn -0.0157 0.9204 0.3906
vn -0.0167 0.9728 0.2309
vn -0.1216 0.9089 0.3990
vn -0.3572 -0.0334 0.9334
vn -0.4412 0.8933 -0.0859
vn 0.9851 -0.0062 -0.1716
vn 0.8376 0.5462 0.0020
vn -0.0680 0.9944 -0.0803
vn -0.9054 0.2756 -0.3228
vn -0.9497 0.1470 -0.2766
vn -0.5426 0.8244 -0.1610
vn -0.8770 -0.4091 -0.2519
vn -0.6884 0.7109 -0.1440
vn -0.0276 -0.9996 0.0003
vn -0.8580 -0.4282 0.2836
vn 0.8993 0.4373 0.0015
vn -0.4310 0.0858 0.8982
vn -0.4118 -0.0592 0.9094
vn -0.4045 0.9093 0.0975
vn 0.0766 0.0006 0.9971
vn -0.8608 -0.3639 0.3558
vn -0.4810 0.8551 0.1934
vn -0.4985 0.8541 -0.1486
vn -0.7852 -0.0103 0.6192
vn -0.9179 0.1463 0.3688
vn -0.9432 -0.1691 0.2861
vn -0.5400 0.8416 -0.0003
vn -0.5382 -0.8030 -0.2561
vn 0.8757 0.4776 0.0713
vn -0.8127 0.1170 0.5708
vn -0.9617 0.0019 -0.2742
vn 0.5690 0.8212 -0.0426
vn -0.3239 0.9410 -0.0977
vn -0.9929 -0.0000 -0.1189
vn -0.4131 0.8826 0.2246
vn 0.8125 -0.0058 0.5830
vn 0.9436 0.0019 0.3310
vn -0.7396 0.6551 0.1547
vn -0.4758 -0.7761 0.4139
vn -0.4905 -0.8000 0.3455
vn 0.8885 0.4589 0.0021
vn -0.9950 0.1003 -0.0004
vn -0.7338 0.6455 -0.2119
vn -0.2035 0.9767 -0.0674
vn -0.0863 0.0015 0.9963
vn -0.1661 0.9784 0.1230
vn -0.1913 0.9656 0.1760
vn -0.1673 0.9853 0.0334
vn -0.8239 0.5082 0.2508
vn -0.0775 -0.1549 0.9849
vn -0.2273 -0.8167 0.5305
vn -0.9856 -0.0665 0.1554
vn -0.9266 -0.2156 0.3081
vn -0.9312 -0.1570 0.3290
vn -0.7313 -0.5777 0.3626
vn -0.7827 -0.4701 0.4079
vn -0.8534 -0.2756 0.4423
vn -0.1289 0.7643 0.6318
vn -0.4263 0.0033 0.9046
vn -0.8929 0.4378 -0.1050
vn -0.8983 0.0455 0.4370
vn -0.9562 0.0392 0.2900
vn -0.4545 0.8862 0.0901
vn -1.0000 0.0001 -0.0000
vn 0.0798 0.0001 0.9968
vn -0.9278 0.1580 0.3379
vn -0.9743 -0.0167 0.2245
vn -0.9877 -0.0140 0.1557
vn 0.0049 0.9450 0.3270
vn 0.8015 0.5980 0.0018
vn -0.9093 -0.0420 0.4141
vn -0.5002 -0.0659 0.8634
vn -0.2503 0.5620 0.7884
vn -0.3103 0.2812 0.9081
vn -0.2468 0.8195 0.5172
vn -0.3483 0.7927 0.5002
vn -0.3822 0.7482 0.5423
vn 0.0039 -0.9873 0.1590
vn 0.9927 0.0011 0.1203
vn -0.3158 0.2034 0.9268
vn -0.0645 -0.9938 0.0909
vn -0.9262 0.2219 -0.3047
vn -0.7844 -0.6115 -0.1038
vn 0.8393 -0.5396 0.0669
vn -0.8344 -0.4863 0.2595
vn -0.7924 -0.5198 0.3192
vn -0.8657 -0.4119 0.2845
vn -0.0706 0.1719 0.9826
vn -0.9843 0.1711 0.0433
vn 0.8601 0.2172 0.4616
vn -0.8531 -0.4927 -0.1717
vn -0.1074 0.9928 -0.0530
vn -0.3007 0.9532 -0.0310
vn -0.0391 -0.9983 -0.0433
vn -0.6052 -0.7927 -0.0737
vn -0.7883 0.1013 0.6069
vn -0.8305 0.4746 0.2914
vn -0.8414 0.4332 0.3230
vn -0.4395 0.8570 0.2689
vn -0.4453 0.6943 0.5654
vn -0.6534 0.1005 0.7503
vn -0.9412 -0.0757 0.3294
vn -0.9126 -0.2550 0.3197
vn -0.6258 -0.7800 -0.0009
vn -0.8343 -0.0527 0.5487
vn -0.8051 -0.0976 0.5850
vn -0.8525 -0.2228 0.4728
vn -0.8676 -0.1256 0.4811
vn 0.2674 0.9636 0.0055
vn -0.0750 -0.7939 0.6035
vn -0.0620 -0.9822 0.1775
vn -0.3783 -0.7724 0.5103
vn -0.3714 -0.5386 0.7563
vn -0.5044 0.8615 -0.0587
vn -0.3583 0.0984 0.9284
vn -0.0979 -0.9400 -0.3268
vn -0.0247 -0.8757 0.4823
vn -0.5825 0.0207 0.8125
vn 0.0030 0.3966 0.9180
vn -0.7070 -0.7044 -0.0624
vn -0.5000 -0.8658 -0.0209
vn -0.9310 -0.2019 -0.3042
vn -0.6110 -0.7839 0.1105
vn -0.9356 0.3206 -0.1480
vn -0.3214 0.6889 0.6497
vn 0.3789 0.1758 0.9086
vn -0.3100 0.9274 -0.2094
vn -0.1731 0.9828 -0.0644
vn -0.5616 -0.0288 0.8269
vn -0.0109 -0.9742 0.2253
vn -0.0364 -0.9511 0.3066
vn -0.0676 -0.2519 0.9654
vn -0.0805 -0.9689 0.2339
vn -0.1496 -0.8518 0.5021
vn -0.3417 -0.5987 0.7244
vn -0.3336 -0.5071 0.7947
vn -0.2238 -0.7089 0.6689
vn 0.9961 0.0230 0.0857
vn -1.0000 0.0038 -0.0004
vn -0.7138 -0.6938 0.0955
vn -0.8569 0.2486 0.4516
vn -0.4850 0.8636 -0.1378
vn -0.3822 -0.1251 0.9156
vn 0.4472 0.1327 0.8845
vn -0.4790 0.8695 -0.1201
vn -0.5525 0.8231 -0.1312
vn -0.0581 0.9520 0.3004
vn -0.0568 0.9984 0.0008
vn 0.8600 0.4295 0.2756
vn 0.9905 0.1372 0.0015
vn -0.0530 -0.8301 0.5551
vn -0.0543 0.2360 0.9702
vn -0.9573 -0.0717 -0.2801
vn -0.0004 -0.0000 -1.0000
vn 0.5242 0.2184 0.8231
vn -0.9979 0.0002 -0.0648
vn -0.3664 0.9304 0.0001
vn 0.0245 -0.9602 0.2784
vn -0.1014 -0.9603 0.2598
vn 0.2432 -0.9567 0.1596
vn -0.2334 0.9724 -0.0003
vn 0.0627 -0.9715 0.2288
vn 0.1074 -0.9786 0.1755
vn 0.5607 -0.8192 0.1205
vn -0.1381 0.8853 0.4441
vn -0.0720 -0.9272 0.3677
vn -0.9055 0.2750 -0.3232
vn -0.9579 0.0708 -0.2781
vn -0.8901 -0.4291 -0.1538
vn -0.9476 -0.2154 -0.2358
vn -0.9328 -0.2970 -0.2040
vn 0.9912 -0.1322 0.0055
vn -0.3837 0.9221 -0.0497
vn -0.2294 -0.9733 0.0014
vn -0.9575 0.2297 -0.1744
vn -0.9527 0.1464 -0.2664
vn -0.7451 0.6319 -0.2133
vn -0.9594 -0.2096 -0.1886
vn -0.9559 -0.1583 -0.2472
vn -0.9601 -0.0640 -0.2722
vn 0.9293 -0.3670 0.0418
vn -0.7632 0.6051 -0.2266
vn 0.9626 -0.2704 0.0181
vn -0.4894 -0.7812 0.3876
vn -0.0001 -0.0000 1.0000
vn -0.9963 -0.0574 -0.0639
vn -0.3661 0.0345 0.9299
vn -0.4835 0.1574 0.8611
vn -0.1161 0.7276 0.6761
vn -0.0702 0.9962 0.0522
vn 0.4390 -0.8862 0.1481
vn 0.1685 -0.9702 0.1740
vn 0.0039 -0.1532 0.9882
vn 0.7940 -0.6021 0.0840
s 0
usemtl 
f 130//1 19//1 58//1
f 285//2 315//2 319//2
f 301//3 298//3 304//3
f 76//4 36//4 9//4 35//4 74//4
f 104//5 149//5 72//5 195//5
f 85//6 111//6 91//6 87//6
f 149//7 104//7 154//7
f 221//8 309//8 311//8
f 272//9 223//9 329//9 331//9
f 221//10 268//10 141//10
f 210//11 141//11 140//11
f 169//12 123//12 136//12 177//12
f 270//13 271//13 260//13 232//13 228//13 258//13
f 134//14 343//14 303//14 107//14 195//14
f 237//15 109//15 235//15
f 275//16 278//16 235//16
f 315//17 285//17 283//17
f 278//18 275//18 283//18
f 73//19 75//19 71//19 33//19
f 105//20 101//20 116//20 147//20
f 319//21 315//21 338//21
f 191//22 205//22 208//22 207//22
f 231//23 149//23 154//23
f 273//24 231//24 269//24
f 174//25 187//25 164//25 131//25
f 243//26 247//26 171//26
f 338//27 340//27 342//27 341//27
f 59//28 64//28 22//28 15//28
f 312//29 311//29 333//29
f 333//30 334//30 312//30
f 94//31 144//31 122//31 95//31
f 231//32 154//32 269//32
f 339//33 253//33 250//33 329//33
f 285//34 243//34 240//34
f 240//35 243//35 171//35
f 238//36 264//36 244//36 220//36
f 285//37 322//37 287//37
f 287//38 243//38 285//38
f 290//39 247//39 287//39
f 247//40 243//40 287//40
f 322//41 323//41 287//41
f 287//42 309//42 308//42
f 220//43 213//43 218//43 238//43
f 80//44 73//44 33//44 4//44 37//44
f 334//45 333//45 341//45
f 319//46 338//46 341//46
f 283//47 275//47 316//47
f 215//48 239//48 238//48 241//48
f 26//49 68//49 31//49 9//49
f 332//50 341//50 333//50
f 196//51 212//51 197//51
f 168//52 197//52 212//52 203//52
f 108//53 164//53 152//53 112//53
f 313//54 310//54 28//54 25//54
f 298//55 301//55 300//55 292//55
f 140//56 58//56 19//56 1//56 6//56 51//56 198//56 256//56 328//56 330//56 259//56 210//56
f 133//57 132//57 153//57 156//57
f 153//58 132//58 127//58 151//58 168//58
f 195//59 1//59 19//59 130//59 204//59 314//59 335//59 342//59 340//59 337//59 269//59 154//59 104//59
f 257//60 254//60 253//60 339//60 336//60 216//60 96//60 65//60 47//60 150//60 206//60 307//60 320//60 261//60
f 5//61 8//61 7//61
f 96//62 223//62 173//62
f 98//63 65//63 96//63
f 68//64 26//64 24//64 67//64
f 107//65 306//65 195//65
f 214//66 206//66 150//66
f 136//67 90//67 86//67 175//67 249//67 225//67 252//67 176//67
f 98//68 96//68 170//68
f 113//69 69//69 65//69
f 166//70 179//70 248//70 121//70
f 216//71 223//71 96//71
f 306//72 326//72 327//72
f 326//73 306//73 107//73
f 206//74 313//74 344//74
f 307//75 206//75 344//75
f 146//76 214//76 150//76
f 320//77 307//77 344//77
f 173//78 170//78 96//78
f 122//79 144//79 120//79 143//79
f 98//80 113//80 65//80
f 115//81 113//81 98//81
f 69//82 113//82 115//82
f 115//83 121//83 69//83
f 336//84 339//84 329//84
f 206//85 310//85 313//85
f 206//86 214//86 32//86
f 171//87 198//87 51//87 109//87 237//87
f 245//88 228//88 255//88
f 276//89 236//89 279//89 262//89
f 139//90 117//90 137//90 161//90
f 286//91 55//91 233//91
f 229//92 179//92 166//92
f 121//93 115//93 166//93
f 166//94 115//94 98//94
f 98//95 163//95 166//95
f 160//96 173//96 223//96
f 160//97 163//97 98//97
f 69//98 121//98 106//98
f 254//99 257//99 189//99
f 257//100 261//100 189//100
f 43//101 52//101 53//101 54//101
f 324//102 325//102 290//102 287//102 308//102 302//102
f 209//103 212//103 193//103
f 163//104 227//104 166//104
f 227//105 163//105 224//105
f 277//106 227//106 224//106
f 163//107 160//107 224//107
f 272//108 277//108 224//108
f 22//109 37//109 4//109
f 247//110 256//110 198//110 171//110
f 189//111 3//111 5//111 134//111 195//111 306//111 286//111 233//111 284//111 318//111 317//111 331//111 329//111 250//111
f 299//112 282//112 295//112 298//112
f 265//113 239//113 215//113 242//113
f 244//114 258//114 228//114 245//114 220//114
f 101//115 73//115 116//115
f 227//116 280//116 229//116 166//116
f 116//117 158//117 200//117
f 48//118 59//118 15//118 13//118
f 274//119 293//119 294//119 281//119 263//119
f 116//120 73//120 114//120
f 114//121 112//121 116//121
f 73//122 112//122 114//122
f 241//123 218//123 215//123
f 108//124 112//124 73//124 80//124
f 116//125 112//125 155//125
f 17//126 29//126 27//126 21//126
f 263//127 236//127 274//127
f 105//128 71//128 101//128
f 138//129 142//129 120//129 118//129
f 73//130 101//130 75//130
f 277//131 317//131 318//131 280//131 227//131
f 298//132 297//132 305//132
f 289//133 297//133 298//133
f 120//134 144//134 94//134 92//134
f 176//135 177//135 136//135
f 12//136 3//136 189//136 344//136
f 168//137 203//137 183//137 153//137
f 220//138 245//138 226//138 219//138
f 289//139 295//139 265//139 242//139
f 88//140 66//140 92//140 94//140
f 283//141 316//141 273//141 269//141 337//141 315//141
f 232//142 230//142 228//142
f 267//143 266//143 296//143 288//143
f 342//144 335//144 334//144 341//144
f 37//145 82//145 83//145
f 281//146 246//146 263//146
f 300//147 294//147 293//147
f 47//148 65//148 69//148 81//148 102//148 103//148 157//148 182//148 159//148 30//148 62//148
f 274//149 236//149 276//149
f 101//150 71//150 75//150
f 62//151 146//151 150//151 47//151
f 6//152 1//152 195//152 72//152
f 172//153 213//153 220//153
f 41//154 44//154 10//154 9//154
f 218//155 241//155 238//155
f 293//156 274//156 292//156 300//156
f 82//157 64//157 93//157 123//157 124//157
f 152//158 155//158 112//158
f 206//159 32//159 310//159
f 228//160 230//160 194//160
f 199//161 158//161 194//161
f 20//162 11//162 8//162
f 23//163 20//163 8//163 18//163
f 37//164 22//164 64//164
f 64//165 82//165 37//165
f 148//166 138//166 165//166 151//166 127//166
f 262//167 279//167 234//167
f 234//168 279//168 236//168
f 292//169 274//169 260//169
f 156//170 157//170 103//170 133//170
f 292//171 260//171 271//171
f 251//172 252//172 225//172
f 123//173 93//173 90//173 145//173
f 311//174 312//174 268//174 221//174
f 180//175 196//175 197//175 165//175 138//175 161//175
f 173//176 160//176 98//176 170//176
f 211//177 213//177 167//177
f 213//178 172//178 167//178
f 167//179 172//179 129//179
f 129//180 123//180 167//180
f 258//181 244//181 264//181 282//181 270//181
f 160//182 223//182 272//182 224//182
f 155//183 152//183 187//183
f 86//184 90//184 40//184
f 145//185 90//185 136//185
f 136//186 123//186 145//186
f 124//187 123//187 129//187
f 135//188 178//188 162//188 137//188 111//188
f 13//189 40//189 48//189
f 40//190 90//190 48//190
f 93//191 64//191 59//191
f 68//192 67//192 89//192 31//192
f 288//193 289//193 242//193 251//193
f 320//194 344//194 189//194 261//194
f 259//195 330//195 324//195 302//195
f 225//196 249//196 266//196
f 304//197 296//197 301//197
f 298//198 305//198 304//198
f 296//199 297//199 289//199
f 182//200 203//200 201//200 202//200
f 295//201 289//201 298//201
f 234//202 236//202 263//202 246//202 222//202 147//202 116//202 200//202
f 228//203 194//203 192//203
f 210//204 221//204 141//204
f 131//205 119//205 37//205 83//205 129//205
f 35//206 31//206 89//206 70//206 74//206
f 169//207 177//207 215//207 218//207
f 284//208 229//208 280//208 318//208
f 155//209 187//209 192//209 194//209
f 213//210 211//210 169//210 218//210
f 288//211 296//211 289//211
f 164//212 187//212 152//212
f 219//213 172//213 220//213
f 226//214 255//214 228//214
f 161//215 137//215 162//215 180//215
f 182//216 202//216 185//216 184//216
f 308//217 309//217 221//217 302//217
f 174//218 131//218 129//218
f 203//219 212//219 209//219 217//219
f 253//220 254//220 189//220 250//220
f 267//221 288//221 251//221
f 292//222 291//222 299//222 298//222
f 167//223 123//223 169//223 211//223
f 331//224 317//224 277//224 272//224
f 40//60 13//60 4//60 33//60 71//60 105//60 147//60 222//60 175//60 86//60
f 300//56 301//56 296//56 266//56 249//56 175//56 222//56 246//56 281//56 294//56
f 335//225 314//225 312//225 334//225
f 117//226 139//226 138//226
f 76//227 100//227 78//227
f 78//228 100//228 103//228
f 221//229 210//229 259//229 302//229
f 239//230 265//230 295//230 282//230 264//230 238//230
f 207//231 208//231 193//231
f 267//232 251//232 225//232 266//232
f 55//233 24//233 26//233 9//233 2//233 179//233 229//233 284//233 233//233
f 110//234 111//234 84//234
f 111//235 85//235 84//235
f 135//236 111//236 110//236
f 117//237 138//237 118//237
f 9//238 10//238 2//238
f 78//239 79//239 41//239 38//239 77//239
f 148//240 127//240 126//240
f 126//241 127//241 99//241
f 99//242 97//242 126//242
f 103//243 100//243 99//243
f 99//244 100//244 76//244
f 76//245 97//245 99//245
f 24//246 326//246 60//246
f 70//247 89//247 66//247 88//247
f 180//248 193//248 196//248
f 187//249 174//249 219//249 226//249
f 255//250 226//250 245//250
f 117//251 111//251 137//251
f 235//252 109//252 51//252 6//252 72//252 149//252 231//252 273//252 316//252 275//252
f 340//253 338//253 315//253 337//253
f 120//254 142//254 143//254
f 126//255 142//255 138//255
f 138//256 148//256 126//256
f 278//257 240//257 171//257 237//257 235//257
f 328//258 325//258 324//258 330//258
f 125//259 122//259 143//259
f 74//260 70//260 94//260 76//260
f 24//261 60//261 63//261
f 63//262 66//262 24//262
f 60//263 85//263 63//263
f 63//264 85//264 87//264
f 87//265 66//265 63//265
f 81//266 69//266 106//266
f 329//267 223//267 216//267 336//267
f 24//268 66//268 67//268
f 102//269 78//269 103//269
f 209//270 193//270 208//270
f 183//271 182//271 153//271
f 32//272 34//272 28//272 310//272
f 128//273 127//273 103//273
f 103//274 99//274 128//274
f 128//275 99//275 127//275
f 327//276 24//276 55//276
f 138//277 139//277 161//277
f 332//278 333//278 311//278 323//278
f 203//279 182//279 183//279
f 186//280 190//280 178//280
f 178//281 181//281 162//281
f 184//282 159//282 182//282
f 276//283 262//283 260//283 274//283
f 91//284 120//284 92//284
f 117//285 118//285 91//285
f 118//286 120//286 91//286
f 91//287 111//287 117//287
f 91//288 66//288 87//288
f 92//289 66//289 91//289
f 143//290 142//290 126//290 97//290 125//290
f 228//291 192//291 187//291 226//291
f 199//292 232//292 260//292 262//292
f 122//293 125//293 95//293
f 76//294 94//294 95//294
f 95//295 97//295 76//295
f 95//296 125//296 97//296
f 247//297 290//297 325//297 328//297 256//297
f 10//298 44//298 14//298
f 78//299 102//299 81//299
f 76//300 78//300 77//300
f 77//301 36//301 76//301
f 181//302 188//302 193//302 180//302 162//302
f 89//303 67//303 66//303
f 185//304 159//304 184//304
f 50//305 106//305 121//305 248//305 46//305
f 164//306 108//306 119//306 131//306
f 240//307 278//307 283//307 285//307
f 156//308 153//308 182//308
f 182//309 157//309 156//309
f 201//310 217//310 202//310
f 194//311 230//311 232//311 199//311
f 212//312 196//312 193//312
f 82//313 124//313 129//313 83//313
f 321//314 322//314 285//314 319//314
f 190//315 205//315 191//315
f 178//316 190//316 191//316
f 88//317 94//317 70//317
f 50//318 81//318 106//318
f 46//319 81//319 50//319
f 10//320 14//320 248//320 179//320 2//320
f 78//321 81//321 79//321
f 44//322 41//322 79//322
f 36//323 77//323 38//323
f 9//324 36//324 38//324
f 38//325 41//325 9//325
f 204//326 268//326 312//326 314//326
f 168//327 151//327 165//327 197//327
f 127//328 132//328 133//328 103//328
f 172//329 219//329 174//329 129//329
f 8//330 11//330 7//330
f 31//331 35//331 9//331
f 319//332 341//332 332//332 321//332
f 188//333 191//333 207//333
f 207//334 193//334 188//334
f 93//335 59//335 48//335 90//335
f 303//336 343//336 186//336 178//336 135//336 110//336 84//336
f 287//337 323//337 311//337 309//337
f 130//338 58//338 140//338 141//338 268//338 204//338
f 14//339 44//339 46//339 248//339
f 15//340 22//340 4//340 13//340
f 217//341 201//341 203//341
f 186//342 343//342 30//342 159//342 185//342 202//342 217//342 209//342 208//342 205//342 190//342
f 321//343 332//343 323//343 322//343
f 282//344 299//344 291//344 270//344
f 7//345 134//345 5//345
f 53//346 62//346 57//346
f 57//347 54//347 53//347
f 56//348 49//348 146//348
f 176//349 252//349 251//349 242//349 215//349 177//349
f 53//350 61//350 62//350
f 61//351 56//351 62//351
f 49//352 34//352 214//352
f 326//353 107//353 84//353 85//353 60//353
f 79//354 81//354 46//354 44//354
f 18//355 8//355 17//355
f 17//356 21//356 18//356
f 45//357 52//357 43//357
f 39//358 45//358 42//358
f 42//359 45//359 43//359
f 16//360 12//360 344//360
f 191//361 188//361 181//361 178//361
f 199//362 262//362 234//362 200//362 158//362
f 21//363 11//363 23//363
f 23//364 18//364 21//364
f 11//365 20//365 23//365
f 27//366 42//366 43//366
f 39//367 42//367 27//367
f 39//368 27//368 29//368
f 25//369 344//369 313//369
f 304//370 305//370 297//370 296//370
f 25//371 16//371 344//371
f 155//372 194//372 158//372 116//372
f 30//373 343//373 134//373 7//373 11//373 21//373 27//373 43//373 54//373 57//373
f 270//374 291//374 292//374 271//374
f 52//56 45//56 39//56 29//56 17//56 8//56 5//56 3//56 12//56 16//56 25//56 28//56 34//56 49//56 56//56 61//56 53//56
f 80//375 37//375 119//375 108//375
f 306//376 327//376 55//376 286//376
f 24//377 327//377 326//377
f 84//378 107//378 303//378
f 214//379 146//379 49//379
f 56//380 146//380 62//380
f 57//381 62//381 30//381
f 34//382 32//382 214//382
