# Blender 5.2.0 LTS
# www.blender.org
mtllib fork_right.mtl
o RightFork
v 5.312645 -2.239609 3.441769
v 5.337819 -1.546974 3.444443
v 5.337820 -1.744684 3.443422
v 5.379624 -1.997521 1.321363
v 5.137387 -2.365508 3.424287
v 5.227612 -2.372119 3.428990
v 5.228162 -1.509585 3.429199
v 5.685976 -1.997521 1.321363
v 5.312643 -2.374950 3.432926
v 5.312645 -2.140868 3.441400
v 5.164010 -1.514871 3.426182
v 5.136461 -1.519570 3.424484
v 5.135602 -2.111227 3.424173
v 5.460859 -2.388446 3.398457
v 5.170061 -1.548069 3.429714
v 5.134357 -2.333967 3.424601
v 5.110071 -2.338503 3.416284
v 5.071282 -2.336038 3.400567
v 5.033849 -2.368721 3.377043
v 5.065122 -2.375902 3.384517
v 5.117912 -2.377901 3.400297
v 5.164028 -2.384541 3.398428
v 5.230678 -2.387877 3.398437
v 5.312644 -2.389415 3.398446
v 5.224972 -1.488751 3.398362
v 5.177424 -2.099880 3.426197
v 5.164010 -1.493410 3.398539
v 5.234088 -2.066103 3.423550
v 5.721546 -1.887528 1.821743
v 5.039810 -2.066286 3.373761
v 5.020359 -2.094458 3.379327
v 5.117818 -1.503274 3.400202
v 4.989833 -2.113124 3.374552
v 5.065122 -2.140665 3.406110
v 5.721547 -1.940896 1.866029
v 5.065140 -1.505891 3.384198
v 4.992023 -2.167673 3.375535
v 4.974103 -2.336140 3.353111
v 5.510306 -2.387403 1.321363
v 4.989808 -1.714251 3.374429
v 5.721576 -1.957341 1.930974
v 4.936903 -2.369703 3.327836
v 4.966215 -2.377122 3.335726
v 4.966215 -2.396398 3.299599
v 5.065122 -2.393755 3.349014
v 5.115216 -2.397428 3.348957
v 5.137075 -1.772789 3.424296
v 5.312656 -2.062982 3.426763
v 5.115427 -1.478282 3.348277
v 5.510301 -2.381322 3.398457
v 5.510301 -2.372185 3.434854
v 5.065140 -1.483015 3.349072
v 5.379818 -1.997521 3.389009
v 4.966215 -2.074844 3.299599
v 5.134722 -1.744870 3.424727
v 4.936996 -2.107026 3.328043
v 4.934519 -2.142536 3.330277
v 5.460859 -2.375746 3.437991
v 5.023248 -1.742374 3.388113
v 4.989493 -2.138758 3.374718
v 5.015645 -2.140665 3.387216
v 5.388614 -2.389946 3.398184
v 4.966171 -1.478560 3.299606
v 4.933952 -2.334141 3.330597
v 4.912211 -2.338503 3.299599
v 4.966171 -1.502779 3.335562
v 4.894602 -2.336985 3.267226
v 4.888453 -2.370211 3.234613
v 4.936638 -1.511901 3.328080
v 4.927215 -2.378148 3.298048
v 4.966287 -2.401930 3.249815
v 5.015645 -2.400056 3.299599
v 4.916739 -2.397380 3.200563
v 4.989183 -1.747959 3.374770
v 4.934034 -1.547047 3.330366
v 5.460870 -1.487322 3.398594
v 4.916739 -2.069254 2.854454
v 5.337818 -1.794593 3.434324
v 5.721547 -1.492976 2.508125
v 4.929108 -2.098692 3.299599
v 4.867246 -2.083259 2.854804
v 4.890584 -2.162785 3.276507
v 4.989906 -1.771141 3.374636
v 5.559782 -2.379774 1.321363
v 5.015656 -1.779379 3.380457
v 5.684221 -1.682712 1.321372
v 5.065140 -1.788218 3.389394
v 4.891849 -2.265731 3.275908
v 5.721547 -1.547579 1.840895
v 5.065320 -1.458127 1.321154
v 4.843099 -2.338486 3.123409
v 4.840284 -2.368585 3.091353
v 4.881965 -2.377766 3.200563
v 5.012597 -1.475282 3.297295
v 4.916739 -2.402360 3.151149
v 4.917103 -2.403429 3.097631
v 5.541611 -2.369010 3.398457
v 4.872537 -2.382610 3.151149
v 4.927351 -1.502214 3.299606
v 4.867262 -2.391553 3.052320
v 5.539472 -2.367113 3.428579
v 4.891264 -1.472429 3.179099
v 5.312647 -2.057359 1.321288
v 4.997615 -2.066456 1.417963
v 4.887295 -1.510522 3.233452
v 4.912609 -1.547047 3.299606
v 4.966836 -2.067284 1.616399
v 5.721547 -1.958042 2.508173
v 4.841356 -2.163872 3.131625
v 4.933866 -1.600888 3.330780
v 4.883692 -2.153979 3.250185
v 4.840750 -2.110786 2.903868
v 5.510301 -2.338501 3.451797
v 4.839163 -2.106213 2.854454
v 4.866837 -2.084104 2.124488
v 4.890489 -1.722787 3.276034
v 5.175708 -1.799575 3.398474
v 4.858674 -2.190125 3.200563
v 4.876738 -2.190125 3.250185
v 5.460859 -2.338501 3.453888
v 4.934820 -1.744870 3.329951
v 4.839163 -2.338503 3.098619
v 4.937129 -1.775207 3.327872
v 5.387266 -2.376355 3.436024
v 4.835849 -2.338503 3.052320
v 4.970545 -1.781571 3.346370
v 4.839163 -2.371261 3.052320
v 4.867127 -2.391254 1.917263
v 5.015656 -1.798896 3.349072
v 4.984764 -2.402005 1.576875
v 5.067491 -1.808943 3.348635
v 5.065122 -2.399988 1.321154
v 5.337819 -1.819323 1.321259
v 5.024467 -1.465236 1.321154
v 5.037902 -2.065745 1.321154
v 4.891312 -1.472339 1.739054
v 4.835849 -2.190125 3.052320
v 5.506244 -1.478983 1.321363
v 4.839297 -2.106537 2.113943
v 5.337810 -1.486837 3.398610
v 5.379656 -1.997522 1.321363
v 4.835971 -2.338136 1.918517
v 4.839294 -2.371034 1.917040
v 4.863567 -1.483863 3.052273
v 4.916666 -2.403088 1.840453
v 4.839199 -1.508601 3.052429
v 5.015645 -2.398972 1.419983
v 5.379805 -1.997521 3.389718
v 5.015645 -2.392773 1.370569
v 5.012611 -2.380713 1.321154
v 4.840569 -1.514270 3.101740
v 5.460870 -1.505183 3.439172
v 5.510338 -1.508580 3.437917
v 4.841934 -1.520871 3.127080
v 4.966215 -2.069931 1.568434
v 5.006823 -2.073895 1.370569
v 4.895311 -1.547047 3.266143
v 4.984372 -2.098625 1.370569
v 5.510338 -1.495094 3.398594
v 5.590040 -2.368003 1.321363
v 4.930788 -2.094627 1.568434
v 4.889246 -2.107703 1.682835
v 5.541925 -1.515381 3.431403
v 4.913051 -2.091782 1.666640
v 4.880865 -1.695052 3.254088
v 4.840726 -2.162373 1.869596
v 5.562747 -2.338501 3.398457
v 4.836096 -2.190547 1.915919
v 4.930201 -1.780616 3.299606
v 5.721547 -1.508014 2.557536
v 4.966171 -1.798860 3.299606
v 5.588183 -2.366539 2.799608
v 4.883714 -1.729631 3.250139
v 4.916739 -2.401716 1.766299
v 4.920574 -2.397825 1.712206
v 4.974841 -2.379601 1.423661
v 4.988946 -2.367399 1.339010
v 5.015656 -1.807240 3.299606
v 4.992147 -2.338452 1.321154
v 4.984372 -2.374073 1.370569
v 4.967479 -1.807920 1.623284
v 5.010464 -2.091748 1.321154
v 5.608795 -2.338206 2.800889
v 4.988946 -2.108618 1.339010
v 5.588539 -2.273573 3.427533
v 5.065140 -1.810953 1.321154
v 4.842450 -2.165311 1.839746
v 4.839397 -2.190125 1.865336
v 5.548181 -2.338501 3.435690
v 4.839397 -2.338503 1.865336
v 4.840937 -2.367094 1.865336
v 4.883551 -1.511920 1.702416
v 4.877017 -2.381966 1.766299
v 4.884159 -2.376647 1.716885
v 5.721547 -1.943681 2.561929
v 4.842449 -1.522048 1.839748
v 4.889200 -2.369364 1.682627
v 4.842432 -2.363419 1.839966
v 5.588571 -2.292382 3.398114
v 4.840962 -1.515685 1.865286
v 4.839267 -1.508925 1.917546
v 5.635231 -1.997521 3.378310
v 4.992439 -2.130201 1.321140
v 4.863801 -1.484030 1.920355
v 4.999784 -1.496557 1.321154
v 5.681919 -1.997521 2.804980
v 5.337815 -1.817510 3.398501
v 5.559782 -2.239540 3.450333
v 4.838112 -1.547047 3.101740
v 5.382784 -1.997522 3.425430
v 5.510176 -2.287079 3.457846
v 4.845827 -1.645941 3.159520
v 5.559581 -1.490101 1.321363
v 4.857431 -1.695168 3.200830
v 5.721547 -1.492875 1.964231
v 5.562672 -2.289640 3.439665
v 4.841698 -1.720958 3.130084
v 4.840912 -1.772684 2.907299
v 4.867252 -1.793805 2.854407
v 4.916737 -1.805967 2.854407
v 5.685960 -1.997522 1.321363
v 5.460870 -1.547030 3.455278
v 5.015656 -1.807276 1.420087
v 5.510338 -1.547030 3.455068
v 5.015656 -1.801194 1.370621
v 5.012609 -1.788536 1.321154
v 5.551836 -1.548363 3.438075
v 5.590044 -1.608180 3.428923
v 4.839390 -1.547047 1.865286
v 5.612422 -2.338580 1.321363
v 5.582832 -1.575186 3.408633
v 4.988973 -1.512326 1.339029
v 5.721547 -1.545757 2.580078
v 5.634044 -1.670876 3.374985
v 4.836085 -1.546827 1.916928
v 5.679449 -1.654120 1.321363
v 4.992209 -1.539653 1.321152
v 5.629765 -2.306315 2.801122
v 5.643268 -2.282768 2.802290
v 5.721547 -1.510845 1.872935
v 4.845876 -1.695405 3.159104
v 5.721547 -1.905486 2.591738
v 4.841306 -1.695405 3.134371
v 5.594583 -2.239540 3.432553
v 4.838309 -1.695405 3.101740
v 4.839193 -1.775949 2.854407
v 5.612903 -2.239540 3.398457
v 4.866504 -1.793134 2.139001
v 4.915145 -1.788066 1.656767
v 4.966171 -1.804023 1.568487
v 5.626140 -1.997521 3.402988
v 4.977228 -1.787016 1.420087
v 4.930791 -1.784470 1.568487
v 5.559531 -2.180947 3.453967
v 4.992216 -1.744870 1.321154
v 5.337811 -1.805241 3.419358
v 4.984403 -1.780899 1.370621
v 5.600027 -2.190138 3.435900
v 4.988973 -1.774040 1.339029
v 4.842531 -1.710781 1.840564
v 5.597293 -1.510999 1.321363
v 5.721547 -1.496124 1.914768
v 5.312643 -2.338488 3.442219
v 5.460370 -1.997519 3.454939
v 5.459633 -1.997516 3.454810
v 4.839335 -1.775598 2.110876
v 5.510266 -1.599294 3.457922
v 4.889267 -1.774853 1.682800
v 5.685256 -2.167909 1.321362
v 5.696171 -1.997522 1.964154
v 5.559769 -1.645961 3.451303
v 5.596091 -1.645961 3.433733
v 5.382844 -1.997520 3.425495
v 4.836835 -1.695405 1.914752
v 5.631632 -2.309801 1.321363
v 5.625126 -1.695478 3.400685
v 4.840913 -1.722171 1.874431
v 5.657053 -1.596702 1.321363
v 5.665181 -2.240107 2.801205
v 5.638686 -1.564222 1.321363
v 5.626419 -2.192616 3.395320
v 5.634752 -2.177748 3.376704
v 5.601425 -1.997521 3.436662
v 5.626151 -2.139750 3.402956
v 5.407041 -1.997521 3.439268
v 5.559731 -1.997522 3.453909
v 5.601400 -1.997522 3.436547
v 5.621933 -1.539412 1.321363
v 5.510338 -1.997521 3.457578
v 5.510054 -1.997522 3.457458
v 5.559737 -1.997521 3.454036
v 5.559673 -1.700695 3.453812
v 5.696141 -1.997522 2.513210
v 5.600956 -1.704151 3.436534
v 5.682985 -2.206444 2.557849
v 5.645865 -2.284994 1.321363
v 5.679346 -2.189987 2.803595
v 5.681905 -2.140658 2.804823
v 5.626155 -1.997522 3.403061
v 5.407064 -1.997521 3.439332
v 5.312634 -2.091052 3.435802
v 5.680854 -2.198617 1.321363
v 5.667977 -2.239696 1.321363
v 5.635190 -1.997522 3.378280
v 5.337812 -1.506123 3.433895
v 5.312643 -2.058545 3.398214
v 5.312644 -2.239619 3.441757
vn 0.9999 -0.0041 -0.0159
vn -0.1973 -0.9803 0.0024
vn 0.8548 0.4883 -0.1757
vn 0.9542 -0.2991 -0.0035
vn -0.1758 -0.9707 0.1637
vn 0.9899 -0.1419 -0.0026
vn -0.6675 0.7425 0.0567
vn -0.6766 0.7276 0.1134
vn -0.4313 -0.0010 0.9022
vn -0.0542 0.8248 0.5628
vn 0.9257 -0.0495 0.3749
vn -0.4349 0.4810 0.7612
vn -0.3214 0.2905 0.9013
vn 0.0389 -0.3923 0.9190
vn 0.0738 0.0009 0.9973
vn 0.8339 -0.0748 0.5469
vn 0.3696 -0.3285 0.8692
vn 0.3647 -0.9273 0.0843
vn -0.2332 -0.9724 -0.0003
vn 0.8542 -0.4768 0.2072
vn -0.1957 0.1095 0.9745
vn 0.0420 -0.1166 0.9923
vn 0.7932 -0.4985 0.3499
vn -0.2258 0.9742 0.0018
vn 0.8849 -0.4658 0.0020
vn 0.8205 -0.5682 0.0630
vn -0.0769 -0.0012 0.9970
vn 0.9981 -0.0623 0.0031
vn -0.5394 -0.8420 -0.0004
vn 0.3857 0.0043 0.9226
vn -0.4059 -0.9085 0.0998
vn -0.0974 0.0017 0.9952
vn -0.3864 0.9223 -0.0001
vn 0.9419 -0.2568 0.2166
vn 0.0887 -0.4476 0.8898
vn 0.2609 -0.4338 0.8624
vn 0.2158 -0.9470 0.2378
vn 0.1384 -0.9606 0.2412
vn 0.0877 -0.9484 0.3046
vn -0.2741 0.2416 0.9309
vn 0.2533 -0.1124 0.9608
vn -0.0756 0.9323 0.3537
vn -0.8530 0.3862 0.3511
vn -0.0000 1.0000 -0.0000
vn 0.0771 -0.0002 0.9970
vn -0.6322 0.7748 -0.0005
vn -0.3815 -0.9230 -0.0490
vn 0.7100 -0.3657 0.6018
vn -0.5617 -0.8218 0.0953
vn -0.9737 -0.2278 0.0001
vn -0.8517 -0.2754 0.4458
vn -0.3860 -0.0470 0.9213
vn -0.3715 0.4706 0.8003
vn 0.3964 -0.0551 0.9164
vn 0.2052 -0.0597 0.9769
vn 0.9970 0.0141 0.0759
vn 0.8278 -0.1282 0.5462
vn 0.9614 -0.2732 0.0325
vn -0.5995 0.0123 0.8003
vn -0.9963 0.0654 -0.0558
vn -0.8882 0.0501 0.4566
vn -0.9602 0.0397 -0.2764
vn -0.9929 -0.0000 -0.1186
vn -0.9260 0.2111 0.3130
vn -0.0777 0.1110 0.9908
vn -0.9649 -0.2212 0.1416
vn -0.9928 -0.0009 -0.1199
vn 0.2038 0.9779 -0.0471
vn 0.4539 0.8843 0.1098
vn 0.8235 0.4167 0.3849
vn -0.0931 -0.8452 0.5262
vn 0.9191 0.3585 -0.1633
vn 0.9925 0.0804 -0.0922
vn 0.3787 0.1545 0.9126
vn 0.6820 0.3363 0.6494
vn 0.3707 0.2899 0.8824
vn 0.8923 0.4149 0.1782
vn 0.8092 0.5621 0.1711
vn 0.8425 0.5087 0.1775
vn -0.7172 0.6334 -0.2906
vn 0.8826 0.3707 0.2891
vn 0.4341 0.0795 0.8974
vn 0.4964 0.1874 0.8476
vn -0.9699 -0.2305 0.0790
vn 0.9970 -0.0497 -0.0599
vn 0.7442 0.6454 -0.1720
vn 0.4811 0.8681 -0.1225
vn 0.2671 0.9616 -0.0632
vn 0.8156 0.5508 -0.1771
vn 0.9796 0.1635 -0.1172
vn 0.2661 0.3927 0.8803
vn 0.0511 0.4068 0.9121
vn 0.2612 0.9131 0.3131
vn 0.1470 0.9356 0.3209
vn 0.0729 0.9128 0.4018
vn 0.1551 0.9871 0.0391
vn -0.1923 -0.9759 0.1033
vn 0.9901 0.0718 0.1203
vn 0.4302 0.1555 0.8893
vn 0.8976 -0.4340 0.0772
vn -0.9384 -0.0761 0.3372
vn 0.8145 0.0956 0.5723
vn -0.9252 0.0681 0.3734
vn 0.9829 -0.1785 -0.0456
vn -0.9155 -0.2651 0.3027
vn -0.2807 -0.0925 0.9553
vn 0.0042 0.0545 0.9985
vn -0.9984 0.0569 0.0021
vn 0.9939 0.0041 0.1098
vn 0.9920 -0.0778 0.0997
vn 0.0037 0.9153 0.4029
vn 0.3772 -0.1787 0.9087
vn -0.0719 -0.9778 0.1967
vn 0.9285 -0.3635 0.0756
vn 0.9500 -0.3015 0.0806
vn -0.4275 -0.1654 0.8887
vn 0.0003 -0.0000 -1.0000
vn 0.1475 -0.9891 0.0029
vn -0.9605 -0.0336 -0.2762
vn -0.7843 0.5887 0.1956
vn -0.8097 0.5067 0.2960
vn 0.0040 -0.9449 0.3273
vn -0.5017 -0.8600 0.0935
vn -0.1124 -0.9928 -0.0413
vn -0.9979 -0.0001 -0.0647
vn -0.1669 -0.9854 0.0343
vn -0.0674 -0.2372 0.9691
vn -0.9534 -0.1449 0.2648
vn -0.9823 -0.0455 0.1815
vn -0.0570 -0.9510 0.3039
vn -0.6887 -0.3216 -0.6498
vn 0.9445 -0.0030 0.3286
vn -0.3840 -0.8999 -0.2066
vn -0.3028 -0.9459 -0.1163
vn -0.1713 0.9845 -0.0379
vn -0.0480 -0.8897 0.4541
vn -0.9949 -0.1006 -0.0004
vn -0.9159 0.1367 0.3773
vn -0.3959 -0.9114 -0.1120
vn -0.0685 -0.1789 0.9815
vn -0.9608 -0.0008 -0.2771
vn -0.1026 -0.8105 0.5767
vn -0.8540 0.4909 -0.1721
vn 0.8594 0.1921 0.4737
vn 0.8598 -0.4298 0.2757
vn -0.9637 -0.0032 0.2669
vn 0.8177 0.0044 0.5756
vn -0.7388 -0.6559 0.1549
vn -0.4354 -0.8585 0.2710
vn -0.4505 -0.8882 0.0900
vn -0.9975 -0.0004 0.0701
vn -0.9850 -0.1674 0.0423
vn -0.1982 -0.8714 0.4488
vn -0.0935 0.7864 0.6106
vn -0.2359 0.7134 0.6598
vn -0.7750 0.0033 0.6320
vn -0.0218 0.8773 0.4795
vn -0.6365 -0.0108 0.7712
vn -0.9005 0.1583 -0.4050
vn -0.9086 0.3237 -0.2640
vn 0.8596 -0.2184 0.4619
vn 0.7247 -0.6891 0.0012
vn 0.0357 0.9993 0.0066
vn -0.3563 -0.8651 0.3532
vn -0.7638 0.6019 -0.2331
vn 0.8337 -0.5522 0.0023
vn -0.9153 0.0011 0.4027
vn -0.0834 -0.0042 0.9965
vn -0.8242 -0.5072 0.2518
vn -0.8435 -0.4220 0.3322
vn -0.8309 -0.4723 0.2941
vn 0.5225 -0.2189 0.8241
vn -0.2515 -0.9658 -0.0627
vn -0.1514 -0.9877 -0.0390
vn 0.8886 -0.4587 0.0016
vn -0.0950 -0.8580 0.5047
vn -0.1012 -0.9145 0.3917
vn -0.6020 0.7951 -0.0730
vn 0.7956 -0.0046 0.6058
vn -0.8167 0.0975 0.5688
vn -0.0062 -0.9829 0.1840
vn -0.6554 -0.1012 0.7485
vn -0.7884 -0.1016 0.6067
vn -0.4439 -0.6982 0.5617
vn -0.2399 -0.8244 0.5127
vn -0.2445 -0.5939 0.7665
vn -0.3058 -0.3232 0.8956
vn -0.3369 -0.7996 0.4972
vn -0.3647 -0.7642 0.5319
vn -0.9375 -0.3138 -0.1503
vn -1.0000 -0.0032 0.0015
vn -0.1630 0.8482 0.5040
vn -0.7205 0.5915 0.3620
vn -0.7807 0.4681 0.4139
vn -0.8048 -0.0211 0.5932
vn -0.5525 -0.8231 -0.1314
vn -0.7860 0.6093 -0.1043
vn -0.2495 0.0033 0.9684
vn -0.7074 0.7041 -0.0619
vn -0.4993 -0.1495 0.8534
vn -0.2285 0.8124 0.5364
vn -0.8203 0.0266 0.5713
vn -0.3167 -0.0591 0.9467
vn -0.1519 0.0022 0.9884
vn -0.0813 0.9967 0.0001
vn -0.3120 0.0034 0.9501
vn -0.1528 0.7724 0.6165
vn -0.7135 0.6942 0.0950
vn -0.4838 0.8726 -0.0678
vn -0.4905 -0.0712 0.8685
vn -0.0250 -0.9218 0.3867
vn 0.9957 -0.0008 -0.0929
vn -0.8929 -0.4379 -0.1049
vn -0.0864 0.9619 0.2595
vn -0.0656 0.9937 0.0913
vn -0.4885 0.8017 0.3444
vn -0.3696 0.7707 0.5191
vn -0.4727 0.7757 0.4181
vn -0.0170 0.9706 0.2400
vn -0.6316 -0.7530 -0.1847
vn -0.6367 -0.7293 -0.2504
vn -0.8049 -0.5449 -0.2347
vn -0.7258 -0.6556 -0.2085
vn -0.7444 0.6305 -0.2200
vn -0.0604 0.9819 0.1796
vn -0.5358 -0.8251 -0.1789
vn -0.9607 0.0006 -0.2775
vn -0.9578 -0.0666 -0.2796
vn -0.0000 -1.0000 -0.0000
vn -0.9996 -0.0294 0.0006
vn -0.0307 -0.9993 0.0198
vn -0.8645 0.2198 0.4521
vn -0.4059 -0.8361 0.3691
vn -0.4207 -0.8804 0.2189
vn 0.9406 0.0063 0.3393
vn -0.1206 -0.7736 0.6221
vn -0.8476 0.4601 0.2643
vn 0.0271 -0.9996 0.0004
vn -0.3303 -0.8327 0.4443
vn -0.4842 -0.8650 -0.1318
vn -0.0510 0.3062 0.9506
vn -0.3374 -0.9191 -0.2036
vn -0.9963 0.0576 -0.0640
vn -0.6102 -0.7526 -0.2476
vn -0.9875 -0.0172 0.1568
vn -0.9715 -0.0208 0.2361
vn -0.9975 -0.0094 -0.0702
vn -0.5378 0.8367 0.1038
vn -0.1436 0.9892 0.0284
vn -0.7582 0.6345 0.1499
vn -0.9867 0.0075 0.1625
vn -1.0000 0.0004 -0.0002
vn -0.4876 0.7834 0.3855
vn -0.9775 0.2049 0.0504
vn -0.9989 0.0476 0.0002
vn -0.5116 0.5570 0.6543
vn -0.3905 0.4303 0.8138
vn -0.0832 0.2158 0.9729
vn -0.6518 0.0928 0.7527
vn -0.7966 -0.5572 -0.2345
vn -0.2598 -0.9582 -0.1202
vn -0.7301 -0.6601 -0.1766
vn 0.1776 0.0490 0.9829
vn -0.6876 -0.7118 -0.1436
vn -0.6797 -0.3292 -0.6555
vn -0.6609 0.7340 -0.1561
vn -0.6100 0.7820 -0.1278
vn -0.8920 0.4399 -0.1045
vn -0.3327 0.9418 -0.0477
vn -0.0337 -0.3722 0.9275
vn -0.3875 0.9207 -0.0458
vn -0.4989 -0.8646 -0.0595
vn -0.9294 -0.1563 0.3344
vn -0.7531 -0.5267 0.3943
vn -0.7790 -0.0044 0.6270
vn 0.9974 0.0048 -0.0724
vn -0.8061 -0.1120 0.5811
vn 0.2686 -0.9632 0.0058
vn -0.1148 -0.9096 0.3993
vn -0.4809 -0.8525 0.2049
vn -0.2016 -0.7939 0.5737
vn -0.0183 -0.9729 0.2304
vn -0.0281 0.9996 0.0004
vn -0.2887 0.3735 0.8816
vn -0.3127 0.2791 0.9079
vn -0.3185 0.1929 0.9281
vn -0.2174 0.4861 0.8464
vn -0.1218 0.2789 0.9526
vn 0.9528 -0.2924 0.0821
vn -0.0558 -0.9983 -0.0185
vn -0.2846 -0.9545 -0.0888
vn -0.3670 -0.9230 -0.1158
vn -0.9251 0.3689 -0.0897
vn -0.9490 -0.1518 -0.2764
vn -0.8348 -0.5005 -0.2292
vn -0.5730 -0.8019 -0.1691
vn -0.6482 -0.7366 -0.1930
vn -0.4301 0.0927 0.8980
vn 0.8021 -0.5971 0.0019
vn -0.9936 0.0011 0.1132
vn -0.0861 0.0899 0.9922
vn -0.0296 -0.9996 0.0010
vn -0.5785 0.7811 -0.2350
vn -0.8027 0.5509 -0.2285
vn -0.8777 0.4054 -0.2556
vn -0.4435 -0.8920 -0.0870
vn -0.9208 -0.2407 0.3069
vn -0.9849 -0.0745 0.1564
vn -0.9960 -0.0543 0.0713
vn -0.3551 0.0948 0.9300
vn -0.6107 0.7842 0.1102
vn -0.0734 -0.9912 0.1100
vn -0.6693 0.7430 0.0002
vn 0.9998 0.0001 0.0190
vn -0.3430 -0.0305 0.9388
vn -0.5782 -0.8114 -0.0859
vn -0.9571 0.0793 -0.2785
vn -0.5866 -0.8099 -0.0002
vn -0.7452 0.3495 -0.5678
vn -0.1403 -0.8858 0.4423
vn -0.8766 -0.0914 0.4725
vn -0.7879 0.0933 0.6087
vn -0.9965 -0.0537 -0.0647
vn -0.9297 0.1450 0.3384
vn -0.8169 -0.5103 0.2689
vn -0.4854 -0.8613 -0.1500
vn -0.6109 -0.7403 0.2807
vn -0.0431 0.9861 0.1605
vn -0.0294 0.3590 0.9329
vn -0.3139 -0.6079 0.7293
vn -0.3465 -0.6297 0.6952
vn -0.3143 -0.6877 0.6544
vn -0.3793 -0.1114 0.9186
vn 0.0039 0.9886 0.1507
vn -0.6289 0.0044 0.7775
vn -0.6565 0.6927 -0.2986
vn -0.8791 -0.0136 0.4765
vn 0.4507 -0.1358 0.8823
vn -0.6765 -0.7091 0.1986
vn -0.3586 0.0251 0.9331
vn 0.3956 -0.0031 0.9184
vn -0.5640 -0.0261 0.8253
vn -0.4376 -0.0727 0.8962
vn 1.0000 -0.0000 -0.0000
vn -0.0670 0.2406 0.9683
vn 0.8682 -0.4910 0.0714
vn -0.7123 0.7019 -0.0002
vn -0.0944 0.0037 0.9955
vn -0.8815 0.4021 -0.2477
s 0
usemtl 
f 269//1 221//1 270//1
f 220//2 171//2 219//2 248//2 181//2
f 262//3 240//3 278//3 280//3
f 303//4 302//4 295//4
f 129//5 171//5 178//5 131//5
f 295//6 302//6 269//6
f 306//7 273//7 148//7
f 273//8 306//8 48//8
f 60//9 37//9 61//9 33//9
f 305//10 25//10 27//10 7//10
f 282//11 284//11 281//11
f 273//12 48//12 300//12
f 301//13 300//13 48//13
f 120//14 58//14 113//14
f 211//15 254//15 286//15 290//15
f 258//16 281//16 284//16
f 101//17 189//17 113//17
f 101//18 50//18 97//18
f 100//19 128//19 174//19 145//19 96//19 95//19
f 167//20 199//20 101//20
f 10//21 265//21 301//21
f 211//22 120//22 113//22
f 265//23 1//23 307//23
f 77//24 107//24 115//24 81//24 54//24
f 303//25 279//25 239//25 238//25 275//25 296//25
f 183//26 238//26 167//26 101//26 97//26 172//26
f 263//27 120//27 211//27 290//27 265//27 307//27
f 295//28 269//28 270//28 293//28 298//28 297//28
f 248//29 219//29 246//29 266//29
f 292//30 291//30 283//30 294//30 271//30
f 73//31 98//31 100//31 95//31
f 16//32 5//32 263//32 10//32 13//32
f 102//33 136//33 204//33 144//33
f 282//34 281//34 247//34
f 113//35 58//35 51//35
f 51//36 101//36 113//36
f 50//37 101//37 51//37
f 14//38 50//38 51//38
f 51//39 58//39 14//39
f 300//40 301//40 265//40
f 208//41 211//41 113//41
f 49//42 52//42 27//42 25//42
f 80//43 111//43 82//43 56//43
f 299//44 304//44 293//44 270//44 221//44 141//44 148//44 273//44 300//44 265//44 290//44 286//44 287//44
f 267//45 289//45 291//45 292//45
f 114//46 81//46 115//46 139//46
f 248//47 249//47 250//47 181//47
f 189//48 101//48 185//48
f 100//49 98//49 92//49 127//49
f 133//50 4//50 53//50 207//50
f 67//51 68//51 42//51 65//51
f 17//52 61//52 37//52 18//52
f 36//53 66//53 69//53 12//53
f 254//54 208//54 258//54
f 211//55 208//55 254//55
f 293//56 304//56 282//56 297//56 298//56
f 281//57 258//57 244//57
f 279//58 295//58 297//58
f 74//59 40//59 75//59 110//59
f 229//60 235//60 201//60 200//60 196//60
f 157//61 165//61 116//61 106//61
f 184//62 203//62 187//62 162//62
f 187//63 198//63 190//63 188//63
f 118//64 82//64 111//64 109//64
f 26//65 13//65 10//65 301//65
f 256//66 207//66 210//66 78//66
f 229//67 196//67 260//67
f 213//68 138//68 215//68
f 79//69 159//69 163//69
f 231//70 163//70 228//70
f 5//71 21//71 22//71 6//71
f 278//72 240//72 236//72
f 86//73 240//73 89//73
f 227//74 224//74 271//74
f 228//75 163//75 227//75
f 163//76 224//76 227//76
f 170//77 231//77 234//77
f 79//78 163//78 170//78
f 163//79 231//79 170//79
f 158//80 156//80 182//80 184//80
f 234//81 231//81 228//81
f 271//82 294//82 272//82
f 228//83 227//83 272//83
f 210//84 207//84 53//84
f 35//85 8//85 29//85
f 262//86 288//86 261//86
f 262//87 261//87 213//87
f 213//88 215//88 262//88
f 280//89 288//89 262//89
f 240//90 86//90 236//90
f 153//91 224//91 163//91
f 153//92 152//92 224//92
f 153//93 163//93 159//93
f 76//94 153//94 159//94
f 152//95 153//95 76//95
f 76//96 159//96 79//96
f 44//97 73//97 95//97 71//97
f 233//98 170//98 234//98
f 271//99 272//99 227//99
f 199//100 239//100 279//100 247//100
f 67//101 88//101 119//101 118//101 91//101
f 276//102 272//102 294//102
f 165//103 157//103 154//103 212//103 214//103
f 41//104 8//104 35//104
f 173//105 116//105 214//105 217//105
f 3//106 285//106 264//106
f 222//107 267//107 224//107
f 151//108 146//108 201//108 235//108 209//108 154//108
f 234//109 202//109 242//109 233//109
f 202//110 195//110 242//110
f 152//111 76//111 140//111
f 216//112 208//112 113//112 189//112
f 72//113 46//113 45//113 44//113
f 202//114 206//114 108//114
f 202//115 108//115 195//115
f 18//116 38//116 42//116 19//116 5//116
f 133//117 186//117 226//117 255//117 237//117 205//117 134//117 90//117 138//117 213//117 261//117 288//117 280//117 278//117 236//117 86//117 8//117 4//117
f 84//118 50//118 14//118 39//118
f 260//119 255//119 259//119 268//119
f 151//120 154//120 102//120
f 102//121 154//121 105//121
f 58//122 124//122 24//122 62//122 14//122
f 169//123 218//123 246//123 219//123
f 147//124 132//124 130//124 174//124
f 168//125 188//125 190//125 142//125
f 178//126 171//126 220//126
f 263//127 5//127 6//127 9//127 120//127
f 214//128 241//128 217//128
f 241//129 243//129 217//129
f 22//130 45//130 46//130 23//130
f 255//131 226//131 259//131
f 304//132 299//132 284//132 282//132
f 226//133 186//133 225//133
f 225//134 186//134 223//134
f 134//135 136//135 90//135
f 22//136 23//136 9//136 6//136
f 143//137 127//137 92//137 125//137 142//137 191//137
f 154//138 157//138 105//138
f 250//139 225//139 223//139
f 3//140 47//140 78//140
f 260//141 196//141 237//141 255//141
f 78//142 117//142 256//142
f 200//143 136//143 196//143
f 272//144 276//144 234//144 228//144
f 185//145 101//145 199//145 247//145
f 212//146 241//146 214//146
f 283//147 251//147 276//147 294//147
f 169//148 217//148 218//148
f 169//149 171//149 123//149
f 219//150 171//150 169//150
f 125//151 122//151 109//151 137//151
f 246//152 218//152 217//152
f 44//153 45//153 21//153 20//153 43//153
f 11//154 7//154 27//154
f 32//155 36//155 12//155
f 57//156 82//156 64//156
f 25//157 305//157 152//157 140//157
f 74//158 110//158 121//158 83//158
f 205//159 237//159 232//159
f 232//160 192//160 205//160
f 244//161 185//161 247//161 281//161
f 206//162 8//162 41//162 108//162
f 76//163 79//163 215//163 138//163 90//163 102//163 94//163 49//163
f 171//164 129//164 126//164 123//164
f 205//165 136//165 134//165
f 238//166 183//166 230//166 275//166
f 214//167 116//167 165//167
f 15//168 55//168 47//168 3//168 264//168 289//168 267//168 222//168 2//168
f 217//169 169//169 173//169
f 123//170 116//170 173//170
f 173//171 169//171 123//171
f 185//172 244//172 216//172 189//172
f 181//173 250//173 223//173
f 223//174 186//174 181//174
f 279//175 303//175 295//175
f 256//176 117//176 207//176
f 117//177 131//177 207//177
f 115//178 164//178 162//178 139//178
f 299//179 287//179 258//179 284//179
f 69//180 106//180 75//180
f 46//181 62//181 24//181
f 123//182 83//182 121//182
f 121//183 116//183 123//183
f 126//184 83//184 123//184
f 85//185 129//185 87//185
f 85//186 87//186 47//186
f 47//187 83//187 85//187
f 85//188 126//188 129//188
f 83//189 126//189 85//189
f 260//190 268//190 277//190
f 245//191 209//191 235//191 274//191
f 52//192 32//192 27//192
f 102//193 105//193 99//193
f 99//194 105//194 69//194
f 82//195 88//195 65//195 64//195
f 249//196 268//196 253//196
f 201//197 136//197 200//197
f 16//198 13//198 34//198
f 136//199 201//199 204//199
f 3//200 78//200 210//200 285//200
f 52//201 63//201 66//201 36//201 32//201
f 116//202 75//202 106//202
f 55//203 59//203 83//203 47//203
f 15//204 12//204 55//204
f 136//205 102//205 90//205
f 55//206 12//206 59//206
f 12//207 11//207 27//207 32//207
f 146//208 151//208 102//208 144//208
f 164//209 115//209 155//209 104//209
f 38//210 37//210 64//210 42//210
f 9//211 23//211 24//211 124//211
f 263//212 307//212 1//212
f 266//213 277//213 268//213
f 63//214 52//214 49//214
f 63//215 94//215 102//215
f 102//216 99//216 63//216
f 69//217 66//217 63//217
f 63//218 99//218 69//218
f 49//219 25//219 140//219
f 252//220 253//220 257//220
f 259//221 226//221 257//221
f 257//222 268//222 259//222
f 257//223 253//223 268//223
f 104//224 156//224 158//224 161//224
f 94//225 63//225 49//225
f 252//226 257//226 226//226 225//226
f 203//227 179//227 198//227 187//227
f 177//228 198//228 179//228
f 251//229 283//229 291//229 289//229 264//229 285//229 210//229 53//229 4//229 8//229 206//229 202//229
f 274//230 277//230 266//230 246//230 217//230 245//230
f 95//231 96//231 71//231
f 105//232 157//232 106//232 69//232
f 42//233 70//233 44//233
f 44//234 70//234 73//234
f 234//235 276//235 251//235 202//235
f 47//236 87//236 117//236 78//236
f 109//237 111//237 80//237
f 46//238 72//238 71//238 96//238 145//238 130//238 132//238 39//238 14//238 62//238
f 42//239 44//239 43//239
f 225//240 250//240 249//240 253//240 252//240
f 28//241 301//241 48//241
f 150//242 132//242 149//242
f 168//243 166//243 187//243 188//243
f 150//244 180//244 177//244
f 109//245 122//245 91//245
f 91//246 118//246 109//246
f 235//247 229//247 260//247 277//247 274//247
f 81//248 80//248 54//248
f 77//249 54//249 30//249
f 109//250 80//250 112//250
f 241//251 212//251 154//251 243//251
f 137//252 168//252 142//252 125//252
f 54//253 80//253 56//253 30//253
f 109//254 112//254 114//254
f 168//255 137//255 109//255 114//255 139//255 166//255
f 30//256 56//256 33//256
f 33//257 31//257 30//257
f 26//258 301//258 28//258
f 57//259 33//259 56//259
f 194//260 197//260 177//260 180//260
f 147//261 149//261 132//261
f 194//262 193//262 198//262
f 267//263 292//263 271//263 224//263
f 198//264 193//264 191//264
f 150//265 177//265 179//265
f 162//266 104//266 161//266
f 164//267 104//267 162//267
f 162//268 187//268 139//268
f 107//269 104//269 155//269
f 9//270 124//270 58//270 120//270
f 155//271 115//271 107//271
f 268//272 249//272 248//272 266//272
f 275//117 230//117 160//117 84//117 39//117 132//117 150//117 179//117 203//117 182//117 135//117 103//117 141//117 221//117 269//117 302//117 303//117 296//117
f 67//273 91//273 68//273
f 68//274 70//274 42//274
f 116//275 121//275 110//275 75//275
f 8//276 86//276 89//276 29//276
f 64//277 65//277 42//277
f 172//278 97//278 50//278 84//278 160//278
f 21//279 45//279 22//279
f 93//280 98//280 73//280 70//280
f 20//281 21//281 5//281
f 23//282 46//282 24//282
f 306//283 103//283 135//283 104//283 107//283 77//283 30//283
f 30//284 31//284 13//284
f 31//285 33//285 13//285
f 13//286 33//286 34//286
f 13//287 28//287 30//287
f 26//288 28//288 13//288
f 282//289 247//289 279//289 297//289
f 130//290 145//290 174//290
f 175//291 147//291 174//291
f 149//292 147//292 175//292
f 139//293 187//293 166//293
f 198//294 177//294 197//294
f 197//295 194//295 198//295
f 193//296 194//296 176//296
f 176//297 194//297 180//297
f 12//298 69//298 75//298 40//298
f 172//299 160//299 230//299 183//299
f 243//300 154//300 209//300 245//300 217//300
f 12//301 15//301 2//301 11//301
f 133//302 207//302 131//302 178//302 220//302 181//302 186//302
f 156//303 104//303 135//303
f 158//304 162//304 161//304
f 158//305 184//305 162//305
f 128//306 193//306 175//306 174//306
f 92//307 68//307 91//307
f 91//308 122//308 92//308
f 92//309 122//309 125//309
f 34//310 33//310 61//310
f 112//311 80//311 81//311 114//311
f 72//312 44//312 71//312
f 103//313 306//313 148//313 141//313
f 10//314 263//314 1//314
f 34//315 61//315 17//315 5//315 16//315
f 143//316 191//316 193//316 128//316
f 196//317 192//317 232//317 237//317
f 100//318 127//318 143//318 128//318
f 182//319 203//319 184//319
f 87//320 129//320 131//320 117//320
f 88//321 67//321 65//321
f 82//322 57//322 56//322
f 191//323 142//323 190//323 198//323
f 82//324 118//324 119//324
f 68//325 92//325 93//325
f 175//326 193//326 176//326 180//326 150//326 149//326
f 70//327 68//327 93//327
f 48//328 306//328 30//328 28//328
f 152//329 305//329 222//329 224//329
f 19//330 20//330 5//330
f 42//331 43//331 19//331
f 43//332 20//332 19//332
f 17//333 18//333 5//333
f 49//334 140//334 76//334
f 57//335 64//335 60//335 33//335
f 135//336 182//336 156//336
f 88//337 82//337 119//337
f 208//338 216//338 244//338 258//338
f 98//339 93//339 92//339
f 59//340 12//340 40//340 74//340 83//340
f 258//341 287//341 286//341 254//341
f 37//342 60//342 64//342
f 18//343 37//343 38//343
f 89//344 240//344 262//344 215//344 79//344 170//344 233//344 242//344 195//344 108//344 41//344 35//344 29//344
f 2//345 222//345 305//345 7//345 11//345
f 238//346 239//346 199//346 167//346
f 146//347 144//347 204//347 201//347
f 10//348 1//348 265//348
f 192//349 196//349 136//349 205//349
