# Blender 5.2.0 LTS
# www.blender.org
mtllib tine_right.mtl
o RightTine
v 6.230390 -1.708372 2.857533
v 6.229682 -1.713167 2.890957
v 6.230401 -1.732069 2.859550
v 6.227684 -1.720241 2.484040
v 6.224638 -1.692510 2.509278
v 6.212441 -1.645680 2.511053
v 6.209676 -1.646043 2.853942
v 6.229682 -1.727555 2.890957
v 6.202331 -1.646005 2.903920
v 6.219818 -1.696183 2.906025
v 6.220117 -1.744357 2.906025
v 6.213343 -1.794870 2.516412
v 6.224904 -1.750192 2.514006
v 6.223355 -1.700372 2.463501
v 6.209405 -1.646005 2.458627
v 6.188580 -1.607758 2.458627
v 6.190702 -1.605917 2.512268
v 6.189806 -1.609118 2.848140
v 6.185939 -1.612994 2.903920
v 6.210551 -1.794307 2.854394
v 6.203177 -1.794307 2.903920
v 6.181206 -1.618048 2.931509
v 6.186736 -1.646005 2.935386
v 6.195405 -1.695454 2.938600
v 6.195604 -1.744858 2.938710
v 6.187135 -1.794307 2.935608
v 6.181554 -1.822719 2.931730
v 6.191180 -1.835170 2.520296
v 6.209953 -1.794307 2.458627
v 6.223604 -1.739986 2.463501
v 6.213241 -1.744858 2.409211
v 6.212943 -1.695454 2.409211
v 6.201135 -1.646005 2.409211
v 6.182458 -1.615844 2.383831
v 6.163263 -1.585158 2.441938
v 6.163197 -1.580660 2.513531
v 6.157895 -1.584275 2.851576
v 6.131467 -1.570370 2.885001
v 6.186437 -1.828001 2.903920
v 6.190046 -1.831746 2.852262
v 6.120124 -1.576568 2.917548
v 6.087091 -1.568691 2.931730
v 6.153355 -1.610034 2.935941
v 6.153355 -1.646005 2.945912
v 6.153355 -1.695454 2.949347
v 6.153355 -1.744858 2.949569
v 6.153355 -1.794307 2.946356
v 6.153355 -1.832235 2.936384
v 6.090380 -1.872031 2.931952
v 6.123363 -1.865930 2.921537
v 6.133138 -1.869105 2.894031
v 6.164119 -1.860052 2.514985
v 6.163967 -1.857871 2.458627
v 6.188829 -1.833146 2.458627
v 6.183043 -1.824786 2.384593
v 6.201633 -1.794307 2.409211
v 6.185194 -1.799841 2.357788
v 6.181355 -1.778734 2.326999
v 6.197050 -1.744858 2.359795
v 6.196900 -1.695454 2.359795
v 6.181305 -1.661897 2.327110
v 6.184468 -1.639845 2.357456
v 6.125640 -1.573442 2.325745
v 6.137910 -1.566368 2.458627
v 6.130637 -1.568503 2.383709
v 6.139505 -1.565817 2.512573
v 6.103733 -1.563773 2.902147
v 6.159116 -1.856483 2.852843
v 6.074416 -1.568522 2.931685
v 6.103733 -1.594462 2.938600
v 6.054218 -1.546821 2.854457
v 6.103882 -1.646005 2.949126
v 6.103969 -1.792833 2.949812
v 6.105725 -1.847170 2.938932
v 6.105725 -1.877313 2.904585
v 6.073828 -1.872052 2.931938
v 6.051569 -1.895668 2.851549
v 6.140269 -1.875196 2.477755
v 6.136415 -1.873215 2.409211
v 6.161128 -1.853727 2.409211
v 6.129535 -1.868071 2.335898
v 6.086717 -1.837011 2.126731
v 6.079326 -1.813920 2.089583
v 6.079233 -1.628301 2.090190
v 6.086314 -1.605379 2.125575
v 6.078031 -1.572916 2.142828
v 6.104857 -1.554173 2.440621
v 6.061000 -1.559011 2.163445
v 6.102997 -1.555563 2.852226
v 6.052280 -1.540802 2.797426
v 6.103456 -1.885926 2.853097
v 6.134234 -1.872129 2.850416
v 6.024316 -1.567006 2.885195
v 6.043199 -1.596511 2.915886
v 6.067910 -1.596511 2.935941
v 5.721547 -1.508041 2.557568
v 5.944054 -1.521742 2.690398
v 5.721552 -1.492970 2.508266
v 6.064223 -1.646005 2.938600
v 6.064223 -1.794307 2.938821
v 6.067562 -1.843801 2.936162
v 6.042850 -1.843801 2.916219
v 5.721547 -1.909141 2.589478
v 5.721547 -1.943609 2.561779
v 6.053246 -1.900684 2.799809
v 6.104350 -1.889070 2.472497
v 6.103882 -1.887421 2.409211
v 6.067674 -1.888171 2.230862
v 6.078764 -1.868143 2.141431
v 6.072643 -1.848081 2.108286
v 6.080263 -1.772102 2.084196
v 6.036409 -1.826727 2.032001
v 6.072295 -1.592641 2.108618
v 6.079967 -1.666971 2.083961
v 6.034933 -1.645961 2.023197
v 6.036275 -1.614361 2.033604
v 6.036672 -1.566049 2.080697
v 6.046387 -1.560586 2.112496
v 6.027176 -1.543461 2.153577
v 5.721546 -1.546316 2.580352
v 6.039462 -1.646005 2.917105
v 5.757673 -1.493513 2.507265
v 6.039462 -1.794307 2.916994
v 5.721547 -1.891802 2.592679
v 5.721547 -1.958053 2.508105
v 6.058942 -1.882959 2.158477
v 5.929912 -1.917505 1.990530
v 6.036472 -1.873807 2.080586
v 6.099206 -1.744827 2.123398
v 5.990785 -1.829913 1.974221
v 6.004992 -1.795304 1.979125
v 6.097492 -1.693832 2.119660
v 5.976715 -1.646363 1.944933
v 5.989988 -1.610854 1.975662
v 5.931049 -1.571650 1.939209
v 5.930301 -1.522611 1.990619
v 5.951940 -1.523141 2.082777
v 5.721547 -1.675595 2.592378
v 5.757721 -1.493328 1.964332
v 5.721547 -1.492969 1.964249
v 6.052039 -1.901634 2.364456
v 5.955307 -1.917826 2.086503
v 5.932153 -1.920140 2.019760
v 6.004935 -1.902083 2.112496
v 5.824434 -1.939908 1.961874
v 5.807191 -1.935504 1.914723
v 5.931945 -1.869345 1.938434
v 5.976885 -1.794307 1.942533
v 5.942458 -1.843755 1.932118
v 5.940914 -1.596557 1.932562
v 5.878486 -1.584263 1.892342
v 5.845554 -1.559584 1.882370
v 5.827269 -1.526618 1.895001
v 5.794287 -1.516054 1.881816
v 5.809333 -1.509452 1.912729
v 5.806071 -1.498062 1.967954
v 5.931581 -1.520666 2.017841
v 5.721547 -1.496156 1.914723
v 5.721546 -1.956653 1.920639
v 5.721545 -1.940614 1.865576
v 5.832550 -1.918475 1.889351
v 5.881550 -1.868350 1.889879
v 5.952273 -1.794307 1.926135
v 5.950834 -1.646403 1.925620
v 5.873669 -1.608734 1.885696
v 5.810706 -1.597582 1.855283
v 5.809333 -1.544695 1.870958
v 5.761106 -1.547973 1.849020
v 5.757717 -1.511911 1.875501
v 5.757717 -1.497386 1.914723
v 5.721547 -1.510864 1.872842
v 5.721546 -1.892276 1.824829
v 5.843176 -1.892391 1.881088
v 5.809182 -1.842201 1.852169
v 5.856664 -1.843755 1.874615
v 5.910740 -1.652763 1.902104
v 5.778593 -1.596557 1.841265
v 5.746906 -1.565048 1.838162
v 5.721546 -1.537959 1.847430
v 5.721547 -1.843755 1.817776
v 5.721548 -1.663628 1.818449
v 5.721554 -1.563059 1.835711
vn 0.5653 -0.8236 -0.0456
vn 0.9507 0.0043 -0.3101
vn 0.8991 0.0005 -0.4378
vn 0.8767 -0.4810 0.0080
vn 0.4398 0.7427 -0.5050
vn 0.1640 0.9251 -0.3426
vn 0.3172 0.8841 -0.3432
vn 0.2062 0.9316 -0.2993
vn -0.6085 -0.2477 0.7539
vn -0.5689 -0.5152 0.6410
vn -0.6937 -0.1307 0.7083
vn -0.7039 -0.0593 0.7078
vn -0.5487 0.5717 0.6100
vn 0.3518 -0.9335 -0.0700
vn 0.8948 -0.2920 -0.3379
vn -0.1165 0.1757 0.9775
vn 0.5987 0.7928 0.1142
vn 0.9525 -0.3045 0.0084
vn 0.9490 -0.3082 0.0660
vn 0.8707 -0.4823 0.0958
vn 0.2279 0.1342 -0.9644
vn 0.7740 0.4030 -0.4884
vn 0.0732 0.6822 -0.7275
vn 0.9605 -0.2262 -0.1624
vn 0.6722 -0.3282 -0.6637
vn -0.6434 -0.3181 0.6963
vn -0.6388 0.3935 0.6611
vn 0.4866 -0.0112 -0.8736
vn -0.6092 0.2557 0.7507
vn 0.2483 0.0038 0.9687
vn 0.6965 0.6984 -0.1646
vn -0.2559 0.0709 0.9641
vn 0.8750 -0.4812 -0.0525
vn -0.0000 0.2575 0.9663
vn -0.0541 0.1996 0.9784
vn 0.2799 0.5301 0.8004
vn 0.1590 0.3488 0.9236
vn 0.4507 0.8790 -0.1557
vn 0.6784 0.7332 -0.0482
vn -0.2616 0.0029 0.9652
vn 0.9595 0.2305 -0.1619
vn 0.2505 -0.9681 0.0048
vn 0.9032 0.3495 -0.2492
vn 0.5059 0.8523 -0.1324
vn 0.1799 0.9789 0.0972
vn 0.0119 0.9635 0.2676
vn 0.0736 0.9920 0.1022
vn 0.4005 0.7613 0.5099
vn 0.6154 0.7880 0.0181
vn 0.9488 0.3158 0.0080
vn 0.9458 0.3181 0.0656
vn 0.9197 -0.3214 0.2255
vn 0.9294 -0.3422 0.1384
vn 0.8877 -0.4411 0.1322
vn 0.8778 -0.3130 0.3627
vn 0.8705 -0.4325 0.2350
vn 0.9928 0.1191 -0.0110
vn 0.3600 -0.9036 0.2322
vn 0.5259 -0.8475 0.0720
vn 0.3329 -0.6123 0.7171
vn 0.1079 0.1682 -0.9798
vn 0.1361 0.9907 0.0039
vn 0.4330 0.2251 -0.8728
vn 0.8707 -0.3841 -0.3071
vn 0.6700 0.5312 -0.5186
vn 0.4688 -0.8643 -0.1824
vn 0.5449 0.4218 -0.7247
vn 0.3352 0.4828 -0.8090
vn 0.5086 0.8608 0.0164
vn 0.4201 -0.1322 -0.8978
vn 0.6207 -0.2776 -0.7333
vn 0.2806 -0.6186 -0.7339
vn 0.3946 -0.2010 -0.8966
vn 0.6609 -0.4243 -0.6191
vn 0.5723 -0.5531 -0.6054
vn 0.6256 -0.4194 -0.6579
vn -0.0875 -0.9619 0.2589
vn 0.8001 0.0048 0.5998
vn 0.7893 -0.1722 0.5893
vn 0.8205 -0.2324 0.5223
vn 0.1303 -0.2521 0.9589
vn 0.2383 -0.2469 0.9393
vn 0.2979 -0.1863 0.9363
vn 0.3013 -0.1110 0.9470
vn -0.1235 -0.1735 0.9771
vn -0.0602 -0.1978 0.9784
vn -0.2635 -0.0695 0.9622
vn 0.0627 -0.1940 0.9790
vn -0.0005 -0.2700 0.9628
vn 0.1614 -0.3579 0.9197
vn 0.2706 -0.9056 0.3265
vn 0.2257 0.9742 -0.0033
vn 0.0935 -0.9665 0.2390
vn 0.0009 -0.9595 0.2816
vn 0.0635 0.1999 0.9778
vn 0.1342 0.2647 0.9549
vn 0.0647 0.0691 0.9955
vn 0.2988 0.1139 0.9475
vn 0.2471 0.0671 0.9667
vn 0.2953 0.1883 0.9366
vn 0.2244 0.2603 0.9391
vn 0.2211 0.9577 -0.1845
vn 0.5660 0.2232 -0.7936
vn 0.1031 0.9914 -0.0811
vn 0.3150 0.9491 0.0019
vn 0.3551 0.8692 0.3442
vn 0.3935 0.8682 0.3024
vn 0.3153 0.9371 0.1495
vn 0.1144 0.9676 0.2252
vn 0.1812 0.9708 0.1570
vn 0.4802 0.8157 0.3227
vn 0.9264 0.3511 0.1359
vn 0.8763 0.4789 -0.0524
vn 0.9876 -0.1468 -0.0551
vn 0.7692 -0.2313 -0.5956
vn 0.9859 0.1582 -0.0548
vn 0.9681 -0.2506 -0.0023
vn 0.1914 0.5926 -0.7825
vn 0.6760 0.3212 -0.6632
vn 0.7669 0.2314 -0.5986
vn 0.5721 -0.6133 -0.5446
vn 0.5172 0.5410 -0.6632
vn 0.5195 0.6221 -0.5858
vn 0.6638 0.4268 -0.6142
vn 0.5980 0.0137 -0.8014
vn 0.5504 -0.1212 -0.8261
vn 0.4514 0.1500 -0.8796
vn 0.4236 0.0104 -0.9058
vn 0.5738 0.7597 -0.3059
vn 0.6156 -0.7806 -0.1078
vn 0.3813 -0.4167 -0.8252
vn 0.3975 -0.3200 -0.8600
vn 0.3641 -0.1340 -0.9217
vn 0.2128 -0.9381 -0.2733
vn 0.2548 -0.9013 -0.3503
vn 0.9204 0.0745 -0.3838
vn -0.7156 0.0665 0.6953
vn -0.1398 -0.9389 0.3145
vn 0.9667 0.2478 -0.0632
vn 0.0845 -0.9915 0.0989
vn 0.4133 -0.9077 0.0733
vn 0.3335 -0.9321 0.1412
vn 0.1779 -0.9718 0.1547
vn 0.1807 -0.9784 0.1007
vn 0.2484 -0.0628 0.9666
vn 0.3661 0.0039 -0.9306
vn 0.0678 -0.0647 0.9956
vn 0.1985 -0.9795 -0.0349
vn 0.2072 0.9751 -0.0794
vn 0.1718 0.9851 -0.0009
vn 0.2386 -0.9550 -0.1764
vn 0.7345 0.4706 -0.4889
vn 0.7316 0.5303 -0.4284
vn 0.4426 0.8965 0.0205
vn 0.8920 0.4267 -0.1493
vn 0.9677 0.2522 -0.0045
vn 0.6766 0.7363 0.0088
vn 0.5449 0.8032 0.2406
vn 0.8719 0.4329 0.2289
vn 0.8705 0.4832 0.0939
vn 0.8880 0.4410 0.1302
vn 0.8805 0.3215 0.3484
vn 0.9162 0.3289 0.2291
vn 0.8197 0.2346 0.5226
vn 0.7895 0.1766 0.5878
vn -0.6584 0.0003 0.7527
vn 0.8934 -0.4234 -0.1504
vn 0.9418 0.1398 -0.3058
vn 0.5662 0.8217 -0.0651
vn 0.8991 0.2627 -0.3501
vn 0.8787 0.4772 0.0072
vn 0.9360 -0.2222 -0.2730
vn 0.9673 -0.2447 -0.0662
vn 0.8161 0.1069 -0.5679
vn 0.4492 -0.4309 -0.7826
vn 0.3599 -0.9330 0.0035
vn 0.7974 0.1580 -0.5824
vn 0.7136 -0.6762 -0.1831
vn 0.4995 0.1128 -0.8590
vn 0.6659 -0.5488 -0.5053
vn 0.7216 -0.5072 -0.4712
vn 0.8049 0.0100 -0.5933
vn 0.6121 0.7817 -0.1194
vn -0.6435 -0.0702 0.7622
vn 0.8317 0.3918 -0.3933
vn 0.4918 -0.8622 -0.1216
vn 0.8719 -0.4742 -0.1217
vn 0.9032 -0.3479 -0.2513
vn 0.8877 0.3236 -0.3276
vn 0.9947 -0.1028 -0.0104
vn 0.6247 -0.7807 0.0175
vn 0.0119 0.9898 0.1418
vn 0.5545 0.0025 -0.8322
vn 0.5503 -0.7912 0.2668
vn 0.8084 -0.1496 -0.5693
vn 0.7713 -0.4151 -0.4825
vn -0.1567 0.9414 0.2986
vn 0.9240 0.0029 -0.3824
vn 0.0420 0.9399 -0.3388
vn 0.5887 -0.7329 -0.3410
vn -0.6412 0.0780 0.7634
vn 0.7326 -0.6676 -0.1326
vn 0.7017 -0.7055 -0.0995
vn 0.6036 -0.7887 0.1169
vn 0.9818 0.0061 -0.1897
vn 0.5247 -0.8512 0.0161
vn 0.6924 -0.7204 -0.0404
vn 0.1672 -0.9859 -0.0003
vn 0.9413 -0.1374 -0.3084
vn 0.0125 0.9999 0.0002
vn 0.6757 -0.7371 0.0099
vn 0.4100 -0.9120 0.0141
vn 0.8190 -0.0914 -0.5665
vn 0.2338 -0.9666 -0.1051
vn 0.8662 0.3947 -0.3065
vn 0.9206 -0.0703 -0.3840
vn -0.7144 0.0004 0.6998
vn 0.3135 -0.9033 -0.2930
vn 1.0000 0.0001 -0.0037
vn 0.4173 -0.9014 -0.1152
vn -0.6663 0.2887 0.6875
vn 0.8716 0.4746 -0.1226
vn 0.3328 0.9412 -0.0576
vn 0.4494 0.5201 -0.7263
vn 0.9355 0.2277 -0.2700
vn 0.1354 0.4318 -0.8917
vn 0.4397 0.8925 -0.1005
vn 0.2999 -0.9529 -0.0448
vn 0.3830 0.2735 -0.8824
vn -1.0000 -0.0000 -0.0000
vn 0.0003 0.0046 1.0000
vn 0.8298 -0.3901 -0.3990
vn 0.8405 0.0040 0.5419
vn 0.0220 0.9971 -0.0729
s 0
f 78//1 79//1 53//1 52//1
f 59//2 60//2 32//2 31//2
f 132//3 129//3 111//3 114//3
f 40//4 28//4 12//4 20//4
f 153//5 154//5 136//5
f 169//6 170//6 154//6
f 136//7 154//7 155//7
f 154//8 170//8 155//8
f 101//9 102//9 76//9
f 103//10 104//10 76//10
f 103//11 102//11 124//11
f 124//12 102//12 123//12
f 93//13 69//13 96//13
f 107//14 142//14 143//14 127//14 144//14 108//14 79//14 78//14
f 83//15 58//15 57//15 82//15
f 72//16 69//16 95//16
f 19//17 18//17 37//17 38//17
f 20//18 12//18 3//18
f 3//19 8//19 20//19
f 40//20 20//20 39//20
f 178//21 177//21 181//21
f 116//22 113//22 84//22
f 171//23 169//23 179//23
f 29//24 56//24 31//24 30//24
f 148//25 130//25 149//25
f 76//26 102//26 103//26
f 120//27 93//27 96//27
f 175//28 176//28 164//28 163//28 162//28
f 95//29 69//29 94//29
f 24//30 45//30 46//30 25//30
f 35//31 16//31 34//31 86//31 63//31
f 99//32 72//32 95//32
f 12//33 28//33 54//33 29//33
f 42//34 69//34 70//34
f 69//35 72//35 70//35
f 43//36 22//36 42//36
f 42//37 70//37 43//37
f 119//38 88//38 118//38 136//38
f 16//39 35//39 36//39 17//39
f 72//40 99//40 100//40 73//40
f 32//41 33//41 15//41 14//41
f 106//42 91//42 105//42 141//42
f 62//43 34//43 33//43
f 86//44 118//44 88//44 65//44 63//44
f 89//45 90//45 71//45
f 71//46 69//46 42//46
f 71//47 90//47 97//47
f 42//48 22//48 41//48
f 36//49 37//49 18//49
f 1//50 6//50 7//50
f 2//51 1//51 7//51
f 21//52 8//52 11//52
f 21//53 20//53 8//53
f 39//54 20//54 21//54
f 11//55 27//55 21//55
f 27//56 39//56 21//56
f 4//57 5//57 1//57
f 75//58 51//58 50//58
f 68//59 51//59 92//59
f 49//60 50//60 27//60 48//60
f 182//61 178//61 181//61
f 97//62 156//62 139//62 122//62
f 152//63 151//63 166//63
f 55//64 109//64 82//64 57//64
f 134//65 135//65 136//65 117//65 116//65
f 127//66 109//66 126//66 144//66
f 135//67 150//67 151//67 152//67
f 154//68 167//68 168//68
f 37//69 36//69 64//69 66//69 38//69
f 162//70 174//70 175//70
f 148//71 149//71 162//71
f 161//72 160//72 172//72
f 174//73 162//73 172//73
f 147//74 149//74 130//74
f 161//75 162//75 147//75
f 147//76 162//76 149//76
f 104//77 125//77 77//77
f 10//78 24//78 25//78 11//78
f 26//79 11//79 25//79
f 26//80 27//80 11//80
f 47//81 74//81 48//81
f 47//82 48//82 27//82
f 27//83 26//83 47//83
f 47//84 26//84 25//84
f 101//85 76//85 73//85
f 76//86 74//86 73//86
f 73//87 100//87 101//87
f 74//88 47//88 73//88
f 49//89 74//89 76//89
f 48//90 74//90 49//90
f 75//91 50//91 49//91
f 137//92 90//92 89//92 87//92
f 49//93 77//93 75//93
f 76//94 77//94 49//94
f 44//95 70//95 72//95
f 44//96 43//96 70//96
f 72//97 45//97 44//97
f 44//98 24//98 23//98
f 44//99 45//99 24//99
f 23//100 22//100 44//100
f 22//101 43//101 44//101
f 155//102 170//102 156//102 136//102
f 151//103 150//103 133//103 164//103
f 139//104 156//104 170//104
f 64//105 87//105 89//105 66//105
f 42//106 41//106 67//106
f 67//107 41//107 38//107
f 67//108 38//108 89//108
f 67//109 71//109 42//109
f 89//110 71//110 67//110
f 38//111 41//111 22//111
f 9//112 2//112 7//112
f 17//113 6//113 15//113 16//113
f 30//114 4//114 13//114
f 131//115 112//115 130//115 148//115
f 4//116 14//116 5//116
f 12//117 13//117 3//117
f 168//118 179//118 169//118 154//118
f 133//119 150//119 134//119
f 116//120 133//120 134//120
f 127//121 161//121 147//121
f 135//122 152//122 153//122
f 135//123 153//123 136//123
f 135//124 134//124 150//124
f 148//125 164//125 133//125
f 148//126 162//126 163//126
f 166//127 151//127 165//127
f 177//128 166//128 165//128 176//128 175//128 174//128
f 86//129 117//129 136//129 118//129
f 79//130 81//130 80//130 53//130
f 161//131 172//131 173//131
f 173//132 172//132 162//132
f 180//133 174//133 172//133
f 159//134 160//134 146//134
f 146//135 160//135 161//135
f 60//136 132//136 114//136 84//136 61//136
f 121//137 94//137 120//137 138//137
f 104//138 77//138 76//138
f 15//139 6//139 5//139 14//139
f 125//140 105//140 77//140
f 92//141 51//141 91//141
f 91//142 51//142 75//142
f 75//143 77//143 91//143
f 77//144 105//144 91//144
f 46//145 47//145 25//145
f 174//146 180//146 181//146 177//146
f 46//147 73//147 47//147
f 142//148 145//148 143//148
f 136//149 156//149 157//149
f 137//150 157//150 156//150 97//150 90//150
f 146//151 127//151 145//151 159//151
f 117//152 113//152 116//152
f 117//153 86//153 113//153
f 89//154 38//154 66//154
f 15//155 33//155 34//155
f 1//156 5//156 6//156
f 18//157 17//157 36//157
f 19//158 38//158 22//158
f 22//159 9//159 19//159
f 7//160 18//160 19//160
f 19//161 9//161 7//161
f 10//162 9//162 22//162
f 2//163 9//163 10//163
f 10//164 22//164 23//164
f 23//165 24//165 10//165
f 100//166 99//166 121//166 123//166
f 55//167 56//167 29//167
f 32//168 60//168 61//168
f 64//169 36//169 35//169 65//169
f 84//170 85//170 61//170
f 17//171 18//171 7//171 6//171
f 57//172 58//172 31//172 56//172
f 29//173 30//173 13//173 12//173
f 114//174 115//174 84//174
f 173//175 162//175 161//175
f 78//176 91//176 106//176 107//176
f 115//177 133//177 116//177 84//177
f 109//178 55//178 80//178 81//178
f 164//179 176//179 165//179 151//179
f 130//180 112//180 128//180 127//180 147//180
f 110//181 109//181 128//181 112//181
f 131//182 148//182 133//182 115//182 114//182 111//182
f 35//183 63//183 65//183
f 123//184 102//184 101//184 100//184
f 86//185 85//185 84//185 113//185
f 108//186 126//186 109//186 81//186 79//186
f 54//187 55//187 29//187
f 55//188 57//188 56//188
f 62//189 61//189 85//189
f 4//190 3//190 13//190
f 68//191 52//191 40//191
f 98//192 71//192 97//192 122//192
f 148//193 163//193 164//193
f 27//194 50//194 51//194 39//194
f 83//195 112//195 131//195
f 83//196 110//196 112//196
f 69//197 71//197 98//197 96//197
f 59//198 129//198 132//198 60//198
f 170//199 169//199 171//199 158//199
f 127//200 128//200 109//200
f 94//201 121//201 99//201 95//201
f 55//202 54//202 80//202
f 80//203 54//203 53//203
f 39//204 51//204 68//204 40//204
f 31//205 32//205 14//205 4//205 30//205
f 92//206 78//206 52//206 68//206
f 53//207 54//207 28//207 52//207
f 141//208 105//208 125//208 159//208 145//208 142//208
f 31//209 58//209 59//209
f 140//210 98//210 122//210 139//210
f 28//211 40//211 52//211
f 78//212 92//212 91//212
f 111//213 83//213 131//213
f 145//214 127//214 143//214
f 62//215 85//215 86//215 34//215
f 129//216 59//216 58//216 83//216 111//216
f 138//217 124//217 123//217 121//217
f 146//218 161//218 127//218
f 1//219 2//219 8//219 3//219 4//219
f 144//220 126//220 108//220
f 69//221 93//221 120//221 94//221
f 15//222 34//222 16//222
f 119//223 136//223 157//223 137//223 87//223 64//223 65//223
f 154//224 153//224 152//224 167//224
f 32//225 61//225 62//225 33//225
f 179//226 168//226 178//226 182//226
f 119//227 65//227 88//227
f 142//228 107//228 106//228 141//228
f 167//229 152//229 166//229 177//229 178//229 168//229
f 171//230 179//230 182//230 181//230 180//230 172//230 160//230 159//230 125//230 104//230 103//230 124//230 138//230 120//230 96//230 98//230 140//230 158//230
f 46//231 45//231 72//231 73//231
f 110//232 83//232 82//232 109//232
f 2//233 10//233 11//233 8//233
f 170//234 158//234 140//234 139//234
