# Blender 5.2.0 LTS
# www.blender.org
mtllib tine_left.mtl
o LeftTine
v 6.230400 1.754588 2.858101
v 6.229692 1.749778 2.890890
v 6.230434 1.730284 2.856992
v 6.227714 1.742561 2.484189
v 6.224870 1.770756 2.509954
v 6.212952 1.817057 2.510998
v 6.210352 1.816720 2.854232
v 6.229692 1.735437 2.890890
v 6.202909 1.816730 2.903895
v 6.219935 1.766652 2.905989
v 6.220033 1.718518 2.905989
v 6.213053 1.668016 2.519475
v 6.224643 1.712903 2.513280
v 6.223594 1.762399 2.463490
v 6.209983 1.816730 2.458640
v 6.188859 1.855681 2.458640
v 6.190908 1.857435 2.512108
v 6.190166 1.854137 2.851162
v 6.186420 1.850433 2.903895
v 6.209788 1.668439 2.854410
v 6.202568 1.668439 2.903895
v 6.181541 1.845185 2.931779
v 6.186908 1.816730 2.935526
v 6.195445 1.767240 2.938612
v 6.195543 1.717885 2.938612
v 6.186859 1.668439 2.935305
v 6.181249 1.640346 2.931448
v 6.190643 1.628188 2.515657
v 6.209398 1.668439 2.458640
v 6.223350 1.722771 2.463490
v 6.213252 1.767285 2.409155
v 6.201641 1.816730 2.409155
v 6.183115 1.847262 2.385067
v 6.161003 1.876173 2.409155
v 6.164125 1.880381 2.458640
v 6.164440 1.882639 2.513833
v 6.159157 1.878986 2.852453
v 6.133143 1.891533 2.894036
v 6.189821 1.631677 2.850017
v 6.185981 1.635370 2.903895
v 6.123438 1.888343 2.921529
v 6.090460 1.894405 2.931999
v 6.153344 1.854640 2.936297
v 6.153344 1.816730 2.946326
v 6.153344 1.767240 2.949523
v 6.153344 1.717885 2.949523
v 6.153344 1.668439 2.946106
v 6.153344 1.631254 2.936077
v 6.089191 1.591127 2.931668
v 6.122121 1.597415 2.919545
v 6.132207 1.593667 2.890372
v 6.163015 1.603290 2.516023
v 6.188566 1.630213 2.458640
v 6.182609 1.638404 2.384075
v 6.201104 1.668439 2.409155
v 6.212959 1.717885 2.409155
v 6.196908 1.717885 2.359780
v 6.189719 1.768710 2.339334
v 6.181346 1.801169 2.327048
v 6.185354 1.822098 2.358095
v 6.129573 1.890348 2.337060
v 6.139150 1.896664 2.438074
v 6.140428 1.897691 2.510396
v 6.134351 1.894669 2.848185
v 6.158112 1.606952 2.852742
v 6.105730 1.899697 2.904556
v 6.073886 1.894477 2.931980
v 6.105730 1.869614 2.938942
v 6.054408 1.917114 2.854410
v 6.103924 1.816730 2.949633
v 6.103921 1.669487 2.949699
v 6.104949 1.615918 2.938722
v 6.104949 1.586242 2.903344
v 6.074429 1.591006 2.931636
v 6.053894 1.569008 2.853327
v 6.139127 1.588256 2.477425
v 6.133113 1.591255 2.850479
v 6.162857 1.605513 2.458640
v 6.159978 1.609630 2.409155
v 6.128830 1.595135 2.339991
v 6.183504 1.661864 2.354627
v 6.181297 1.684318 2.327158
v 6.079494 1.835983 2.089764
v 6.086758 1.859203 2.126627
v 6.077720 1.890824 2.139218
v 6.060107 1.905047 2.160660
v 6.103876 1.909695 2.409155
v 6.104344 1.911635 2.479317
v 6.103068 1.908639 2.852031
v 6.103701 1.578335 2.853892
v 6.024064 1.896124 2.885490
v 6.042631 1.866134 2.916117
v 6.067580 1.866221 2.936187
v 5.732182 1.961764 2.561603
v 6.053235 1.923061 2.798637
v 5.732183 1.976894 2.505043
v 6.064214 1.816730 2.938832
v 6.064165 1.668439 2.938832
v 6.067921 1.618994 2.935966
v 6.042897 1.619188 2.915550
v 6.024307 1.589408 2.885159
v 5.732183 1.530766 2.558834
v 5.732183 1.515548 2.507976
v 5.956443 1.546346 2.703832
v 6.053392 1.563521 2.799503
v 6.101156 1.575803 2.407904
v 6.132527 1.590535 2.388415
v 6.081996 1.591944 2.174704
v 6.077897 1.595968 2.141348
v 6.085386 1.628946 2.122495
v 6.079351 1.651210 2.090354
v 6.072897 1.870519 2.108167
v 6.080130 1.806905 2.085895
v 6.034269 1.816691 2.020815
v 6.036516 1.849159 2.032205
v 6.036943 1.897074 2.080064
v 6.000483 1.927886 2.116012
v 6.052862 1.923707 2.362333
v 5.732183 1.914585 2.581447
v 6.039431 1.816730 2.917010
v 6.039431 1.668439 2.917120
v 5.732183 1.569785 2.580868
v 5.757549 1.515851 2.507335
v 5.808250 1.520621 2.506244
v 6.051173 1.571907 2.200083
v 6.058603 1.580677 2.159636
v 5.929378 1.544965 1.988988
v 6.035918 1.589634 2.081606
v 6.071726 1.615058 2.108608
v 6.080361 1.682690 2.086015
v 6.035720 1.637009 2.032801
v 5.977878 1.816085 1.943170
v 5.990792 1.852333 1.974371
v 5.931372 1.891283 1.938993
v 5.929567 1.939643 1.992115
v 5.955087 1.940410 2.085523
v 5.732183 1.515444 1.964121
v 5.757698 1.515760 1.964121
v 5.812070 1.521030 1.969918
v 5.931922 1.542665 2.028024
v 5.809556 1.531594 1.912321
v 5.794954 1.538121 1.882148
v 5.931161 1.593860 1.939093
v 5.990012 1.633289 1.975693
v 5.976886 1.669455 1.945008
v 5.950803 1.668861 1.925699
v 5.952252 1.816730 1.926208
v 5.880811 1.891308 1.889553
v 5.942056 1.866176 1.932490
v 5.831422 1.940565 1.889663
v 5.807214 1.957376 1.914636
v 5.807214 1.965564 1.964121
v 5.933167 1.942363 2.021108
v 5.732183 1.977390 1.966717
v 5.732181 1.518748 1.915240
v 5.757698 1.519741 1.914636
v 5.827655 1.548694 1.894247
v 5.845510 1.581673 1.882344
v 5.878489 1.606644 1.892153
v 5.941080 1.618994 1.932490
v 5.871975 1.629563 1.884945
v 5.907341 1.668646 1.900639
v 5.909736 1.804857 1.901214
v 5.854726 1.855477 1.872805
v 5.809291 1.865125 1.852249
v 5.807214 1.915666 1.864710
v 5.732181 1.904467 1.829676
v 5.732185 1.958748 1.867101
v 5.732183 1.974341 1.914636
v 5.732207 1.534421 1.871418
v 5.757698 1.534263 1.875511
v 5.761113 1.570408 1.849060
v 5.809556 1.566925 1.870882
v 5.784614 1.619224 1.843410
v 5.732191 1.651653 1.824519
v 5.732183 1.866176 1.823932
v 5.732183 1.562944 1.848068
v 5.746916 1.587463 1.838149
v 5.732193 1.587687 1.836154
vn 0.9819 -0.0059 -0.1894
vn -0.7255 -0.0729 0.6843
vn -0.6581 -0.3702 0.6556
vn -0.6877 -0.2617 0.6771
vn 0.6018 0.7916 -0.1061
vn 0.6008 -0.7914 0.1123
vn 0.2100 0.9290 -0.3047
vn 0.2474 0.8977 -0.3645
vn 0.1535 0.9865 -0.0578
vn 0.1803 -0.9720 0.1508
vn 0.3810 0.2360 -0.8939
vn -0.5533 0.5640 0.6130
vn -0.5097 -0.6428 0.5718
vn -0.6120 -0.2580 0.7476
vn -0.6397 -0.3158 0.7007
vn -0.7275 0.0595 0.6835
vn 0.4413 -0.5090 -0.7390
vn 0.3186 0.9001 -0.2971
vn 0.4286 0.1073 -0.8971
vn 0.3846 0.9134 -0.1334
vn 0.5567 -0.7955 0.2393
vn 0.8702 -0.4365 0.2283
vn 0.9272 -0.3492 0.1353
vn 0.8864 -0.4446 0.1293
vn 0.4927 -0.8492 -0.1901
vn 0.9454 -0.3185 0.0691
vn 0.6479 -0.7427 -0.1692
vn 0.4741 -0.8728 -0.1158
vn 0.3384 0.6231 0.7052
vn 0.8934 0.4233 -0.1506
vn 0.5951 -0.0141 -0.8035
vn 0.0029 0.0003 1.0000
vn 0.5533 0.7773 -0.2993
vn 0.3457 -0.9383 0.0078
vn 0.1974 0.9796 -0.0375
vn 0.6226 -0.7747 -0.1108
vn 0.9026 0.3495 -0.2512
vn 0.7671 -0.2298 -0.5990
vn 0.0710 0.9920 0.1043
vn 0.0039 0.9602 0.2792
vn 0.1755 0.9793 0.1007
vn 0.1057 -0.9684 0.2258
vn 0.0073 -0.9632 0.2687
vn 0.3147 -0.5851 0.7474
vn 0.0001 -0.2737 0.9618
vn 0.1660 -0.3661 0.9156
vn -0.2610 -0.0756 0.9624
vn -0.1211 -0.1792 0.9763
vn -0.0625 -0.2015 0.9775
vn -0.6416 0.3164 0.6988
vn 0.6724 -0.7402 -0.0031
vn 0.3586 0.9335 -0.0002
vn 0.3430 0.1394 -0.9289
vn 0.2551 -0.1445 -0.9560
vn 0.7319 0.4906 -0.4728
vn 0.2698 0.9064 0.3249
vn 0.0945 0.9664 0.2390
vn 0.1769 0.9717 0.1565
vn 0.5669 0.8229 -0.0369
vn 0.6714 0.5303 -0.5177
vn 0.2457 0.9693 0.0046
vn 0.1337 -0.4396 -0.8882
vn 0.5507 0.7913 0.2656
vn 0.8699 -0.4839 0.0952
vn 0.9185 -0.3295 0.2185
vn 0.8789 -0.3213 0.3525
vn 0.8185 -0.2354 0.5241
vn 0.7886 -0.1779 0.5886
vn 0.9036 -0.3480 -0.2497
vn 0.9484 -0.3170 0.0096
vn 0.8035 0.1468 -0.5769
vn 0.4074 0.9091 -0.0873
vn 0.3223 -0.9360 0.1415
vn 0.4076 -0.9109 0.0643
vn 0.3195 -0.8824 -0.3455
vn 0.2000 -0.9332 -0.2986
vn 0.4268 -0.7613 -0.4882
vn 0.5310 0.8473 0.0136
vn 0.9679 0.2432 -0.0629
vn 0.6413 0.4363 -0.6311
vn 0.9939 0.1100 -0.0107
vn 0.5242 0.8486 0.0718
vn 0.3582 0.9045 0.2314
vn 0.4141 0.9073 0.0730
vn 0.3322 0.9325 0.1419
vn 0.8769 0.4779 -0.0510
vn 0.9684 0.2493 -0.0038
vn 0.8724 0.4732 -0.1223
vn 0.9360 0.2217 -0.2734
vn 0.8788 0.4772 0.0068
vn 0.5500 0.1207 -0.8264
vn 0.4265 -0.2184 -0.8777
vn 0.1571 -0.9259 -0.3436
vn 0.1195 -0.6288 -0.7683
vn 0.3302 -0.4843 -0.8102
vn 0.1637 0.9865 0.0016
vn 0.8059 -0.1097 -0.5819
vn 0.7682 0.2379 -0.5943
vn 0.9490 0.0010 -0.3151
vn 0.7743 0.4064 -0.4851
vn -0.6442 -0.0813 0.7605
vn 0.6267 0.2943 -0.7216
vn 0.6670 0.3352 -0.6654
vn 1.0000 0.0016 -0.0036
vn 0.7732 -0.4082 -0.4854
vn 0.2838 0.5383 -0.7935
vn -0.1005 0.9611 0.2571
vn -0.1538 0.9375 0.3122
vn -0.6603 0.0004 0.7510
vn 0.0001 0.2697 0.9629
vn -0.0579 0.1997 0.9781
vn 0.0666 0.0643 0.9957
vn 0.3013 0.1801 0.9364
vn 0.0655 0.1956 0.9785
vn 0.2504 0.0624 0.9661
vn 0.3044 0.1115 0.9460
vn 0.5251 -0.8021 0.2846
vn 0.3644 -0.6786 0.6377
vn 0.2891 -0.9034 0.3167
vn 0.3599 -0.9015 0.2403
vn -0.6078 0.2479 0.7544
vn -0.2618 0.0693 0.9626
vn -0.1253 0.1734 0.9769
vn 0.1295 -0.1775 -0.9756
vn 0.4112 0.4141 -0.8121
vn 0.8096 -0.0086 -0.5869
vn 0.3421 -0.0015 -0.9397
vn 0.0947 -0.9938 0.0583
vn 0.1821 -0.9784 0.0980
vn 0.0766 -0.9920 0.1004
vn 0.6158 -0.7877 0.0175
vn 0.8928 -0.4248 -0.1496
vn 0.8715 -0.4749 -0.1218
vn 0.1915 -0.5913 -0.7834
vn 0.6893 -0.7175 -0.0998
vn 0.8949 0.2914 -0.3380
vn -0.1596 -0.9415 0.2967
vn 0.4095 -0.9043 -0.1209
vn 0.9515 0.3075 0.0075
vn 0.9935 -0.1136 -0.0110
vn 0.9681 -0.2505 -0.0036
vn 0.9190 -0.0074 -0.3942
vn 0.5519 -0.0025 -0.8339
vn 0.4944 0.0484 -0.8679
vn 0.5448 -0.4200 -0.7258
vn 0.6781 -0.3166 -0.6633
vn 0.3791 -0.2782 -0.8825
vn 0.3000 0.9527 -0.0477
vn 0.6419 0.5777 -0.5041
vn 0.5714 0.6165 -0.5418
vn 0.5722 0.5750 -0.5849
vn 0.7303 0.6699 -0.1337
vn 0.7028 0.7037 -0.1042
vn -0.7379 -0.0006 0.6749
vn 0.5188 0.8443 -0.1339
vn -0.6427 0.0700 0.7629
vn 0.1746 -0.9846 -0.0005
vn 0.6033 -0.7177 -0.3478
vn 0.7169 -0.5349 -0.4471
vn 0.2340 0.2487 0.9399
vn 0.1329 0.2535 0.9582
vn 0.3147 0.5789 0.7522
vn 0.1637 0.3583 0.9191
vn 0.3046 -0.1167 0.9453
vn 0.2498 -0.0668 0.9660
vn 0.3012 -0.1885 0.9347
vn 0.2380 -0.2529 0.9378
vn 0.0709 -0.0688 0.9951
vn 0.1341 -0.2580 0.9568
vn 0.0669 -0.1991 0.9777
vn 0.8204 0.0930 -0.5642
vn 0.2313 0.9615 -0.1486
vn 0.8746 -0.4819 -0.0526
vn -0.6849 0.2762 0.6743
vn 0.4211 0.9022 -0.0927
vn 0.8667 -0.3923 -0.3080
vn 0.1046 -0.9913 -0.0797
vn 0.2105 -0.9750 -0.0712
vn 0.8746 -0.4848 0.0082
vn 0.6046 0.7879 0.1169
vn 0.5227 -0.8523 0.0186
vn 0.0247 -0.9970 -0.0738
vn 0.0388 -0.9390 -0.3418
vn 0.9484 0.3101 0.0660
vn 0.9285 0.3444 0.1391
vn 0.8728 0.4787 0.0956
vn 0.8902 0.4356 0.1333
vn 0.8735 0.4274 0.2332
vn 0.6917 0.7222 -0.0034
vn 0.6257 0.7799 0.0182
vn 0.2209 -0.9575 -0.1853
vn -0.2631 0.0003 0.9648
vn 0.4391 -0.1536 -0.8852
vn 0.6659 -0.4240 -0.6139
vn 0.8361 0.3820 -0.3936
vn 0.8699 0.3863 -0.3065
vn 0.0124 -0.9899 0.1415
vn 0.7105 0.6797 -0.1823
vn 0.9197 0.0821 -0.3840
vn 0.7191 -0.4972 -0.4855
vn 0.5664 -0.2186 -0.7946
vn 0.8411 0.0013 0.5408
vn 0.7047 -0.6881 -0.1730
vn 0.5035 -0.0035 -0.8640
vn 0.0122 -0.9999 0.0002
vn 0.7892 0.1729 0.5893
vn 0.8161 0.2241 0.5327
vn 0.8808 0.3143 0.3542
vn 0.9176 0.3217 0.2334
vn 0.5208 -0.5249 -0.6733
vn 0.5237 -0.6177 -0.5866
vn 0.9874 0.1488 -0.0539
vn 0.4701 0.8626 -0.1870
vn 0.9411 0.1237 -0.3147
vn 0.5605 -0.8266 -0.0513
vn 0.8888 -0.3172 -0.3307
vn 0.8992 -0.2621 -0.3504
vn 0.9416 -0.1404 -0.3061
vn 0.9661 -0.2496 -0.0664
vn 0.9858 -0.1578 -0.0569
vn 0.0951 -0.9955 0.0001
vn 0.4093 0.9123 0.0155
vn 0.4283 -0.0122 -0.9035
vn 0.3449 -0.9364 -0.0647
vn 0.8209 -0.3988 -0.4086
vn 0.6734 -0.5352 -0.5099
vn 0.5011 -0.1158 -0.8576
vn 0.9352 -0.2287 -0.2702
vn 0.2204 -0.9754 -0.0037
vn 0.9594 -0.2310 -0.1618
vn 0.9205 -0.0679 -0.3848
vn 0.2506 0.0002 0.9681
vn -1.0000 -0.0000 -0.0000
vn 0.9606 0.2259 -0.1622
vn 0.7997 0.0016 0.6004
s 0
f 31//1 14//1 4//1 30//1 56//1
f 100//2 121//2 122//2
f 122//3 102//3 101//3
f 101//4 100//4 122//4
f 34//5 61//5 62//5 35//5
f 51//6 65//6 39//6 40//6
f 169//7 151//7 168//7
f 168//8 151//8 150//8
f 169//9 154//9 152//9
f 73//10 75//10 90//10
f 148//11 165//11 167//11 166//11
f 94//12 91//12 67//12
f 74//13 101//13 102//13
f 99//14 100//14 74//14
f 100//15 101//15 74//15
f 119//16 120//16 92//16
f 157//17 142//17 173//17 158//17
f 150//18 151//18 135//18
f 164//19 165//19 148//19
f 153//20 117//20 135//20
f 40//21 27//21 51//21
f 21//22 27//22 40//22
f 20//23 8//23 21//23
f 21//24 40//24 20//24
f 109//25 108//25 126//25 127//25
f 3//26 8//26 20//26
f 80//27 108//27 109//27
f 108//28 80//28 107//28 125//28 126//28
f 22//29 41//29 42//29
f 32//30 33//30 15//30
f 146//31 132//31 145//31
f 71//32 46//32 45//32 70//32
f 85//33 116//33 135//33
f 90//34 106//34 76//34 77//34
f 152//35 136//35 153//35
f 80//36 79//36 78//36 107//36
f 32//37 60//37 33//37
f 131//38 144//38 145//38
f 95//39 96//39 69//39
f 69//40 67//40 42//40
f 69//41 89//41 95//41
f 75//42 73//42 49//42
f 49//43 74//43 75//43
f 27//44 48//44 49//44
f 72//45 74//45 49//45
f 49//46 48//46 72//46
f 71//47 98//47 99//47
f 99//48 74//48 71//48
f 71//49 74//49 72//49
f 92//50 67//50 91//50
f 52//51 78//51 53//51 28//51 39//51
f 63//52 62//52 87//52 88//52 89//52
f 165//53 176//53 167//53
f 175//54 174//54 178//54
f 112//55 115//55 116//55 85//55
f 42//56 41//56 66//56
f 66//57 69//57 42//57
f 89//58 69//58 66//58
f 36//59 35//59 62//59
f 133//60 134//60 116//60 115//60
f 89//61 88//61 118//61 95//61
f 172//62 177//62 179//62 178//62
f 22//63 19//63 38//63 41//63
f 20//64 40//64 39//64
f 11//65 21//65 8//65
f 27//66 21//66 11//66
f 26//67 27//67 11//67
f 11//68 25//68 26//68
f 55//69 54//69 81//69
f 12//70 3//70 20//70
f 114//71 132//71 115//71 83//71
f 87//72 62//72 117//72
f 51//73 73//73 90//73
f 90//74 77//74 51//74
f 142//75 127//75 141//75
f 156//76 142//76 141//76
f 127//77 142//77 157//77
f 63//78 64//78 37//78 36//78 62//78
f 14//79 15//79 6//79 5//79
f 149//80 148//80 134//80 133//80
f 4//81 5//81 1//81
f 37//82 64//82 38//82
f 38//83 66//83 41//83
f 38//84 64//84 89//84
f 89//85 66//85 38//85
f 6//86 15//86 16//86 17//86
f 1//87 5//87 6//87
f 16//88 15//88 33//88
f 31//89 59//89 60//89 32//89
f 6//90 17//90 18//90 7//90
f 147//91 148//91 132//91
f 159//92 158//92 174//92
f 171//93 142//93 156//93
f 170//94 177//94 171//94
f 173//95 142//95 172//95
f 154//96 96//96 95//96 118//96 136//96 152//96
f 131//97 145//97 130//97 111//97
f 132//98 133//98 115//98
f 58//99 31//99 56//99 57//99
f 115//100 112//100 83//100
f 121//101 100//101 99//101 98//101
f 132//102 148//102 149//102
f 149//103 133//103 132//103
f 8//104 3//104 4//104 1//104 2//104
f 129//105 131//105 111//105
f 166//106 167//106 168//106 150//106
f 94//107 69//107 96//107
f 67//108 69//108 94//108
f 97//109 120//109 121//109 98//109
f 42//110 67//110 68//110
f 67//111 70//111 68//111
f 44//112 70//112 45//112
f 44//113 23//113 22//113
f 44//114 68//114 70//114
f 45//115 24//115 44//115
f 24//116 23//116 44//116
f 50//117 51//117 27//117
f 27//118 49//118 50//118
f 50//119 49//119 73//119
f 73//120 51//120 50//120
f 67//121 92//121 93//121
f 97//122 70//122 93//122
f 93//123 70//123 67//123
f 175//124 178//124 179//124
f 166//125 150//125 148//125
f 145//126 132//126 114//126 113//126 130//126
f 165//127 174//127 175//127 176//127
f 124//128 104//128 123//128
f 90//129 75//129 105//129
f 75//130 104//130 105//130
f 52//131 39//131 65//131
f 29//132 54//132 55//132
f 53//133 54//133 29//133
f 171//134 177//134 172//134 142//134
f 79//135 53//135 78//135
f 84//136 60//136 59//136 83//136
f 75//137 74//137 102//137 103//137
f 127//138 126//138 125//138
f 6//139 7//139 1//139
f 13//140 4//140 3//140
f 3//141 12//141 13//141
f 113//142 58//142 57//142 130//142
f 146//143 147//143 132//143
f 148//144 147//144 163//144 164//144
f 159//145 160//145 143//145 158//145
f 145//146 144//146 160//146
f 174//147 158//147 173//147 172//147 178//147
f 136//148 118//148 88//148 87//148 117//148 153//148
f 135//149 116//149 134//149
f 134//150 150//150 135//150
f 148//151 150//151 134//151
f 34//152 16//152 33//152
f 35//153 16//153 34//153
f 121//154 120//154 119//154 122//154
f 85//155 86//155 61//155
f 93//156 92//156 120//156 97//156
f 104//157 124//157 139//157 140//157 105//157
f 109//158 127//158 128//158
f 128//159 129//159 109//159
f 43//160 44//160 22//160
f 68//161 44//161 43//161
f 43//162 22//162 42//162
f 42//163 68//163 43//163
f 26//164 25//164 47//164
f 25//165 46//165 47//165
f 47//166 27//166 26//166
f 47//167 48//167 27//167
f 47//168 46//168 71//168
f 72//169 48//169 47//169
f 47//170 71//170 72//170
f 113//171 114//171 83//171
f 151//172 169//172 152//172 153//172 135//172
f 12//173 28//173 53//173 29//173
f 92//174 91//174 94//174 119//174
f 61//175 86//175 117//175 62//175
f 109//176 110//176 81//176 54//176
f 138//177 156//177 139//177
f 127//178 140//178 139//178
f 39//179 28//179 12//179 20//179
f 19//180 18//180 37//180 38//180
f 77//181 76//181 52//181 65//181 51//181
f 155//182 156//182 138//182 137//182
f 170//183 171//183 156//183 155//183
f 2//184 1//184 7//184
f 7//185 9//185 2//185
f 7//186 18//186 19//186
f 19//187 9//187 7//187
f 22//188 9//188 19//188
f 16//189 35//189 36//189 18//189 17//189
f 37//190 18//190 36//190
f 141//191 127//191 139//191 156//191
f 97//192 98//192 71//192 70//192
f 161//193 159//193 174//193
f 143//194 160//194 144//194
f 112//195 85//195 84//195 83//195
f 60//196 84//196 85//196 33//196
f 123//197 104//197 75//197 103//197
f 61//198 34//198 33//198 85//198
f 58//199 113//199 83//199 59//199
f 129//200 128//200 131//200
f 160//201 159//201 146//201 145//201
f 2//202 10//202 11//202 8//202
f 79//203 80//203 109//203 54//203 53//203
f 146//204 162//204 163//204 147//204
f 137//205 138//205 123//205 103//205
f 10//206 23//206 24//206
f 22//207 23//207 10//207
f 10//208 9//208 22//208
f 10//209 2//209 9//209
f 157//210 158//210 143//210
f 143//211 127//211 157//211
f 5//212 4//212 14//212
f 86//213 85//213 135//213 117//213
f 59//214 31//214 58//214
f 76//215 107//215 78//215 52//215
f 82//216 81//216 110//216
f 82//217 110//217 111//217
f 57//218 56//218 82//218
f 29//219 30//219 13//219 12//219
f 4//220 13//220 30//220
f 123//221 138//221 139//221 124//221
f 89//222 64//222 63//222
f 164//223 163//223 162//223 161//223 174//223 165//223
f 106//224 140//224 127//224 125//224 107//224 76//224
f 111//225 110//225 109//225 129//225
f 143//226 144//226 131//226 128//226 127//226
f 146//227 159//227 161//227 162//227
f 82//228 56//228 55//228 81//228
f 105//229 140//229 106//229 90//229
f 55//230 56//230 30//230 29//230
f 130//231 57//231 82//231 111//231
f 46//232 25//232 24//232 45//232
f 137//233 103//233 102//233 122//233 119//233 94//233 96//233 154//233 169//233 168//233 167//233 176//233 175//233 179//233 177//233 170//233 155//233
f 14//234 31//234 32//234 15//234
f 11//235 10//235 24//235 25//235
