# Exported from 3D Builder
o Object.1
v 22.500000 9.003000 7.003000 188 188 188
v 21.503000 -21.503000 13.498000 188 188 188
v 22.500000 -22.500000 0.000000 188 188 188
v 22.500000 -9.003000 0.000000 188 188 188
v 22.500000 -9.003000 7.003000 188 188 188
v 9.003000 22.500000 7.003000 188 188 188
v 15.498000 -22.500000 13.498000 188 188 188
v 22.500000 -15.498000 31.503000 188 188 188
v 22.500000 22.500000 45.000000 188 188 188
v 15.498000 -15.003000 7.003000 188 188 188
v 15.498000 -15.003000 0.998000 188 188 188
v -22.500000 -15.498000 31.503000 188 188 188
v -15.003000 21.503000 0.998000 188 188 188
v -15.003000 21.503000 7.003000 188 188 188
v 15.498000 22.500000 13.498000 188 188 188
v -21.503000 21.503000 7.498000 188 188 188
v -21.503000 15.498000 7.498000 188 188 188
v -22.500000 15.498000 13.498000 188 188 188
v -22.500000 9.003000 0.000000 188 188 188
v -22.500000 15.498000 31.503000 188 188 188
v -9.003000 15.498000 0.998000 188 188 188
v -15.498000 15.003000 7.003000 188 188 188
v -15.003000 15.498000 7.003000 188 188 188
v -15.498000 15.003000 0.998000 188 188 188
v -21.503000 15.003000 0.998000 188 188 188
v -9.003000 -15.498000 0.998000 188 188 188
v -9.003000 15.498000 0.000000 188 188 188
v -9.003000 21.503000 7.003000 188 188 188
v -21.503000 -15.498000 7.498000 188 188 188
v -15.498000 -15.498000 7.498000 188 188 188
v -9.003000 -21.503000 7.003000 188 188 188
v 9.003000 -21.503000 7.003000 188 188 188
v -15.498000 -21.503000 13.498000 188 188 188
v -21.503000 15.003000 7.003000 188 188 188
v -21.503000 9.003000 7.003000 188 188 188
v -9.003000 21.503000 0.998000 188 188 188
v -21.503000 21.503000 13.498000 188 188 188
v -15.498000 21.503000 7.498000 188 188 188
v -15.498000 21.503000 13.498000 188 188 188
v -15.498000 9.003000 0.000000 188 188 188
v -15.003000 -15.498000 7.003000 188 188 188
v -22.500000 -9.003000 7.003000 188 188 188
v -21.503000 21.503000 31.503000 188 188 188
v -22.500000 22.500000 31.503000 188 188 188
v -21.503000 -15.003000 7.003000 188 188 188
v -21.503000 -15.003000 0.998000 188 188 188
v -22.500000 -22.500000 0.000000 188 188 188
v -22.500000 -22.500000 31.503000 188 188 188
v -22.500000 -22.500000 45.000000 188 188 188
v -22.500000 22.500000 45.000000 188 188 188
v -15.498000 -9.003000 0.998000 188 188 188
v -15.498000 21.503000 37.502998 188 188 188
v -9.003000 -15.498000 0.000000 188 188 188
v -15.498000 -15.003000 0.998000 188 188 188
v -15.498000 -15.003000 7.003000 188 188 188
v -9.003000 -21.503000 0.998000 188 188 188
v -21.503000 -9.003000 7.003000 188 188 188
v -21.503000 21.503000 37.502998 188 188 188
v -21.503000 15.498000 37.502998 188 188 188
v -21.503000 15.498000 31.503000 188 188 188
v -22.500000 -9.003000 0.000000 188 188 188
v -15.003000 -21.503000 0.998000 188 188 188
v -15.498000 -21.503000 7.498000 188 188 188
v -21.503000 -21.503000 7.498000 188 188 188
v -15.498000 -9.003000 0.000000 188 188 188
v -21.503000 -9.003000 0.998000 188 188 188
v -15.498000 -22.500000 31.503000 188 188 188
v -15.498000 -21.503000 31.503000 188 188 188
v -15.498000 -15.498000 37.502998 188 188 188
v 15.498000 -9.003000 0.000000 188 188 188
v 9.003000 -15.498000 0.000000 188 188 188
v -15.498000 9.003000 0.998000 188 188 188
v -22.500000 9.003000 7.003000 188 188 188
v -21.503000 9.003000 0.998000 188 188 188
v -21.503000 -15.498000 37.502998 188 188 188
v -15.498000 -21.503000 37.502998 188 188 188
v -22.500000 -15.498000 13.498000 188 188 188
v -21.503000 -21.503000 13.498000 188 188 188
v -21.503000 -21.503000 37.502998 188 188 188
v -15.498000 15.498000 37.502998 188 188 188
v -15.498000 21.503000 31.503000 188 188 188
v -15.498000 -22.500000 13.498000 188 188 188
v -22.500000 -22.500000 13.498000 188 188 188
v -21.503000 -15.498000 13.498000 188 188 188
v -15.498000 15.498000 7.498000 188 188 188
v -21.503000 15.498000 13.498000 188 188 188
v -15.003000 -21.503000 7.003000 188 188 188
v 22.500000 22.500000 0.000000 188 188 188
v 22.500000 9.003000 0.000000 188 188 188
v -15.003000 -15.498000 0.998000 188 188 188
v -21.503000 -15.498000 31.503000 188 188 188
v -21.503000 -21.503000 31.503000 188 188 188
v 9.003000 15.498000 0.000000 188 188 188
v 9.003000 22.500000 0.000000 188 188 188
v -15.003000 15.498000 0.998000 188 188 188
v 9.003000 21.503000 0.998000 188 188 188
v 9.003000 -22.500000 0.000000 188 188 188
v 21.503000 -15.498000 7.498000 188 188 188
v 15.498000 9.003000 0.000000 188 188 188
v 15.498000 -9.003000 0.998000 188 188 188
v 9.003000 -22.500000 7.003000 188 188 188
v 21.503000 -21.503000 7.498000 188 188 188
v 15.498000 -21.503000 7.498000 188 188 188
v 21.503000 9.003000 7.003000 188 188 188
v -9.003000 -22.500000 0.000000 188 188 188
v -9.003000 -22.500000 7.003000 188 188 188
v 21.503000 9.003000 0.998000 188 188 188
v 22.500000 15.498000 13.498000 188 188 188
v 21.503000 15.498000 13.498000 188 188 188
v 15.498000 21.503000 13.498000 188 188 188
v 22.500000 -22.500000 45.000000 188 188 188
v 21.503000 21.503000 13.498000 188 188 188
v 22.500000 22.500000 13.498000 188 188 188
v 15.003000 -21.503000 7.003000 188 188 188
v 15.003000 -21.503000 0.998000 188 188 188
v 15.498000 15.003000 0.998000 188 188 188
v 9.003000 -15.498000 0.998000 188 188 188
v 15.003000 -15.498000 0.998000 188 188 188
v 15.003000 -15.498000 7.003000 188 188 188
v 21.503000 15.003000 0.998000 188 188 188
v 15.498000 9.003000 0.998000 188 188 188
v 9.003000 -21.503000 0.998000 188 188 188
v 21.503000 -15.003000 0.998000 188 188 188
v 21.503000 -15.003000 7.003000 188 188 188
v 21.503000 -9.003000 7.003000 188 188 188
v 21.503000 -9.003000 0.998000 188 188 188
v 21.503000 15.003000 7.003000 188 188 188
v 15.498000 21.503000 7.498000 188 188 188
v 15.498000 -22.500000 31.503000 188 188 188
v 22.500000 -22.500000 31.503000 188 188 188
v 21.503000 -21.503000 37.502998 188 188 188
v 15.498000 -21.503000 37.502998 188 188 188
v 21.503000 21.503000 7.498000 188 188 188
v 22.500000 -22.500000 13.498000 188 188 188
v 21.503000 -21.503000 31.503000 188 188 188
v 21.503000 -15.498000 31.503000 188 188 188
v 15.498000 15.498000 7.498000 188 188 188
v 15.498000 -21.503000 31.503000 188 188 188
v 21.503000 -15.498000 37.502998 188 188 188
v 15.498000 15.003000 7.003000 188 188 188
v 15.003000 15.498000 7.003000 188 188 188
v 15.003000 21.503000 7.003000 188 188 188
v 15.003000 21.503000 0.998000 188 188 188
v -15.498000 22.500000 31.503000 188 188 188
v 15.498000 22.500000 31.503000 188 188 188
v 15.003000 15.498000 0.998000 188 188 188
v -9.003000 22.500000 7.003000 188 188 188
v -22.500000 22.500000 0.000000 188 188 188
v -15.498000 22.500000 13.498000 188 188 188
v -9.003000 22.500000 0.000000 188 188 188
v -22.500000 22.500000 13.498000 188 188 188
v 9.003000 21.503000 7.003000 188 188 188
v 9.003000 15.498000 0.998000 188 188 188
v 21.503000 15.498000 7.498000 188 188 188
v 22.500000 22.500000 31.503000 188 188 188
v 21.503000 21.503000 31.503000 188 188 188
v 22.500000 15.498000 31.503000 188 188 188
v 21.503000 21.503000 37.502998 188 188 188
v 21.503000 15.498000 37.502998 188 188 188
v 15.498000 15.498000 37.502998 188 188 188
v 15.498000 21.503000 37.502998 188 188 188
v 15.498000 21.503000 31.503000 188 188 188
v 21.503000 15.498000 31.503000 188 188 188
v 15.498000 -21.503000 13.498000 188 188 188
v 15.498000 -15.498000 37.502998 188 188 188
v 15.498000 -15.498000 7.498000 188 188 188
v 21.503000 -15.498000 13.498000 188 188 188
v 22.500000 -15.498000 13.498000 188 188 188

v 22.500000 22.500000 45.000000 188 188 188
v 22.500000 15.498000 31.503000 188 188 188
v 22.500000 22.500000 31.503000 188 188 188
v 22.500000 15.498000 31.503000 188 188 188
v 22.500000 22.500000 31.503000 188 188 188
v 21.503000 21.503000 31.503000 188 188 188
v 15.498000 22.500000 31.503000 188 188 188
v 21.503000 21.503000 31.503000 188 188 188
v 21.503000 21.503000 31.503000 188 188 188
v 15.498000 21.503000 31.503000 188 188 188
v 15.498000 21.503000 31.503000 188 188 188
v 15.498000 21.503000 37.502998 188 188 188
v 15.498000 21.503000 31.503000 188 188 188
v 15.498000 15.498000 37.502998 188 188 188
v 15.498000 21.503000 13.498000 188 188 188
v 15.498000 15.498000 37.502998 188 188 188
v 15.498000 15.498000 7.498000 188 188 188
v 15.498000 15.498000 37.502998 188 188 188
v 21.503000 15.498000 13.498000 188 188 188
v 15.498000 15.498000 7.498000 188 188 188
v 15.498000 15.498000 7.498000 188 188 188
v 21.503000 15.498000 7.498000 188 188 188
v 21.503000 21.503000 7.498000 188 188 188
v 21.503000 15.498000 7.498000 188 188 188
v 21.503000 21.503000 7.498000 188 188 188
v 21.503000 21.503000 13.498000 188 188 188
v 15.498000 21.503000 7.498000 188 188 188
v 21.503000 21.503000 13.498000 188 188 188
v 15.498000 21.503000 13.498000 188 188 188
v 15.498000 21.503000 13.498000 188 188 188
v 21.503000 21.503000 13.498000 188 188 188
v 15.498000 22.500000 13.498000 188 188 188
v 21.503000 21.503000 13.498000 188 188 188
v 22.500000 22.500000 13.498000 188 188 188
v 15.498000 22.500000 13.498000 188 188 188
v 15.498000 22.500000 13.498000 188 188 188
v 22.500000 22.500000 0.000000 188 188 188
v 15.498000 22.500000 13.498000 188 188 188
v 9.003000 22.500000 7.003000 188 188 188
v 15.498000 22.500000 31.503000 188 188 188
v 15.498000 22.500000 13.498000 188 188 188
v -15.498000 22.500000 31.503000 188 188 188
v 22.500000 22.500000 45.000000 188 188 188
v 15.498000 22.500000 31.503000 188 188 188
v -15.498000 22.500000 31.503000 188 188 188
v 22.500000 22.500000 45.000000 188 188 188
v -15.498000 22.500000 31.503000 188 188 188
v -22.500000 22.500000 45.000000 188 188 188
v -15.498000 22.500000 31.503000 188 188 188
v -22.500000 22.500000 45.000000 188 188 188
v -22.500000 22.500000 31.503000 188 188 188
v -22.500000 22.500000 45.000000 188 188 188
v -22.500000 15.498000 31.503000 188 188 188
v -22.500000 22.500000 45.000000 188 188 188
v -22.500000 -15.498000 31.503000 188 188 188
v -22.500000 -22.500000 45.000000 188 188 188
v -22.500000 22.500000 45.000000 188 188 188
v 22.500000 -22.500000 45.000000 188 188 188
v -22.500000 -22.500000 45.000000 188 188 188
v 22.500000 -22.500000 45.000000 188 188 188
v -15.498000 -22.500000 31.503000 188 188 188
v 22.500000 -22.500000 45.000000 188 188 188
v 15.498000 -22.500000 31.503000 188 188 188
v 22.500000 -22.500000 45.000000 188 188 188
v 22.500000 -22.500000 31.503000 188 188 188
v 22.500000 -15.498000 31.503000 188 188 188
v 22.500000 -15.498000 31.503000 188 188 188
v 22.500000 -22.500000 31.503000 188 188 188
v 22.500000 -15.498000 31.503000 188 188 188
v 21.503000 -21.503000 31.503000 188 188 188
v 21.503000 -21.503000 31.503000 188 188 188
v 21.503000 -15.498000 31.503000 188 188 188
v 21.503000 -15.498000 31.503000 188 188 188
v 21.503000 -15.498000 37.502998 188 188 188
v 21.503000 -15.498000 31.503000 188 188 188
v 15.498000 -15.498000 37.502998 188 188 188
v 21.503000 -15.498000 13.498000 188 188 188
v 15.498000 -15.498000 37.502998 188 188 188
v 15.498000 -15.498000 7.498000 188 188 188
v 15.498000 -15.498000 37.502998 188 188 188
v 15.498000 -21.503000 13.498000 188 188 188
v 15.498000 -15.498000 7.498000 188 188 188
v 15.498000 -15.498000 7.498000 188 188 188
v 15.498000 -21.503000 7.498000 188 188 188
v 21.503000 -15.498000 7.498000 188 188 188
v 15.498000 -21.503000 7.498000 188 188 188
v 21.503000 -15.498000 13.498000 188 188 188
v 21.503000 -15.498000 7.498000 188 188 188
v 21.503000 -21.503000 7.498000 188 188 188
v 21.503000 -15.498000 13.498000 188 188 188
v 21.503000 -21.503000 7.498000 188 188 188
v 21.503000 -15.498000 13.498000 188 188 188
v 21.503000 -21.503000 13.498000 188 188 188
v 22.500000 -15.498000 31.503000 188 188 188
v 21.503000 -15.498000 13.498000 188 188 188
v 22.500000 -15.498000 13.498000 188 188 188
v 22.500000 -15.498000 13.498000 188 188 188
v 22.500000 -15.498000 31.503000 188 188 188
v 22.500000 -15.498000 31.503000 188 188 188
v 22.500000 9.003000 7.003000 188 188 188
v 22.500000 9.003000 7.003000 188 188 188
v 22.500000 22.500000 0.000000 188 188 188
v 22.500000 15.498000 13.498000 188 188 188
v 22.500000 22.500000 0.000000 188 188 188
v 22.500000 9.003000 7.003000 188 188 188
v 22.500000 9.003000 0.000000 188 188 188
v 22.500000 9.003000 7.003000 188 188 188
v 22.500000 9.003000 0.000000 188 188 188
v 21.503000 9.003000 0.998000 188 188 188
v 15.498000 9.003000 0.000000 188 188 188
v 21.503000 9.003000 0.998000 188 188 188
v 15.498000 9.003000 0.000000 188 188 188
v 15.498000 9.003000 0.998000 188 188 188
v 15.498000 9.003000 0.000000 188 188 188
v 15.498000 -9.003000 0.998000 188 188 188
v 15.498000 -9.003000 0.000000 188 188 188
v 15.498000 -9.003000 0.998000 188 188 188
v 15.498000 -9.003000 0.000000 188 188 188
v 21.503000 -9.003000 0.998000 188 188 188
v 22.500000 -9.003000 0.000000 188 188 188
v 15.498000 -9.003000 0.000000 188 188 188
v 15.498000 -9.003000 0.000000 188 188 188
v 22.500000 -22.500000 0.000000 188 188 188
v 9.003000 -15.498000 0.000000 188 188 188
v 22.500000 -22.500000 0.000000 188 188 188
v 9.003000 -22.500000 0.000000 188 188 188
v 22.500000 -22.500000 0.000000 188 188 188
v 22.500000 -22.500000 0.000000 188 188 188
v 9.003000 -22.500000 7.003000 188 188 188
v 9.003000 -22.500000 7.003000 188 188 188
v 15.498000 -22.500000 13.498000 188 188 188
v -15.498000 -22.500000 31.503000 188 188 188
v -15.498000 -22.500000 31.503000 188 188 188
v 9.003000 -22.500000 7.003000 188 188 188
v 9.003000 -22.500000 7.003000 188 188 188
v -15.498000 -22.500000 13.498000 188 188 188
v 9.003000 -22.500000 7.003000 188 188 188
v -9.003000 -22.500000 7.003000 188 188 188
v 9.003000 -22.500000 7.003000 188 188 188
v 9.003000 -21.503000 7.003000 188 188 188
v 9.003000 -21.503000 0.998000 188 188 188
v 9.003000 -21.503000 7.003000 188 188 188
v 15.003000 -21.503000 7.003000 188 188 188
v 9.003000 -21.503000 7.003000 188 188 188
v 15.003000 -21.503000 7.003000 188 188 188
v 15.003000 -15.498000 7.003000 188 188 188
v 15.003000 -21.503000 7.003000 188 188 188
v 15.003000 -15.498000 0.998000 188 188 188
v 15.003000 -21.503000 0.998000 188 188 188
v 15.003000 -15.498000 0.998000 188 188 188
v 15.003000 -21.503000 0.998000 188 188 188
v 9.003000 -15.498000 0.998000 188 188 188
v 9.003000 -21.503000 0.998000 188 188 188
v 9.003000 -15.498000 0.000000 188 188 188
v 9.003000 -21.503000 0.998000 188 188 188
v 9.003000 -15.498000 0.998000 188 188 188
v 9.003000 -15.498000 0.000000 188 188 188
v 9.003000 -15.498000 0.998000 188 188 188
v 9.003000 -15.498000 0.000000 188 188 188
v -9.003000 -15.498000 0.998000 188 188 188
v -9.003000 -15.498000 0.000000 188 188 188
v -9.003000 -15.498000 0.998000 188 188 188
v -9.003000 -15.498000 0.000000 188 188 188
v -9.003000 -21.503000 0.998000 188 188 188
v -9.003000 -22.500000 0.000000 188 188 188
v -9.003000 -15.498000 0.000000 188 188 188
v -9.003000 -15.498000 0.000000 188 188 188
v -22.500000 -22.500000 0.000000 188 188 188
v -15.498000 -9.003000 0.000000 188 188 188
v -22.500000 -22.500000 0.000000 188 188 188
v -22.500000 -9.003000 0.000000 188 188 188
v -22.500000 -22.500000 0.000000 188 188 188
v -22.500000 -9.003000 0.000000 188 188 188
v -22.500000 -9.003000 7.003000 188 188 188
v -21.503000 -9.003000 0.998000 188 188 188
v -22.500000 -9.003000 7.003000 188 188 188
v -21.503000 -9.003000 7.003000 188 188 188
v -22.500000 -9.003000 7.003000 188 188 188
v -22.500000 -9.003000 7.003000 188 188 188
v -22.500000 9.003000 7.003000 188 188 188
v -22.500000 9.003000 7.003000 188 188 188
v -22.500000 15.498000 13.498000 188 188 188
v -22.500000 9.003000 7.003000 188 188 188
v -22.500000 22.500000 0.000000 188 188 188
v -22.500000 9.003000 0.000000 188 188 188
v -22.500000 22.500000 0.000000 188 188 188
v -15.498000 9.003000 0.000000 188 188 188
v -22.500000 9.003000 0.000000 188 188 188
v -15.498000 9.003000 0.000000 188 188 188
v -21.503000 9.003000 0.998000 188 188 188
v -15.498000 9.003000 0.998000 188 188 188
v -21.503000 9.003000 0.998000 188 188 188
v -21.503000 15.003000 0.998000 188 188 188
v -21.503000 9.003000 0.998000 188 188 188
v -21.503000 9.003000 7.003000 188 188 188
v -22.500000 9.003000 7.003000 188 188 188
v -21.503000 9.003000 0.998000 188 188 188
v -21.503000 15.003000 0.998000 188 188 188
v -21.503000 9.003000 7.003000 188 188 188
v -21.503000 15.003000 7.003000 188 188 188
v -21.503000 9.003000 7.003000 188 188 188
v -15.498000 15.003000 7.003000 188 188 188
v -21.503000 9.003000 7.003000 188 188 188
v -15.498000 -15.003000 7.003000 188 188 188
v -21.503000 -9.003000 7.003000 188 188 188
v -21.503000 9.003000 7.003000 188 188 188
v -15.498000 -15.003000 7.003000 188 188 188
v -21.503000 -9.003000 7.003000 188 188 188
v -21.503000 -15.003000 7.003000 188 188 188
v -15.498000 -15.003000 7.003000 188 188 188
v -21.503000 -15.003000 7.003000 188 188 188
v -15.498000 -15.003000 0.998000 188 188 188
v -21.503000 -15.003000 7.003000 188 188 188
v -21.503000 -15.003000 0.998000 188 188 188
v -21.503000 -9.003000 0.998000 188 188 188
v -21.503000 -15.003000 0.998000 188 188 188
v -21.503000 -9.003000 0.998000 188 188 188
v -21.503000 -9.003000 0.998000 188 188 188
v -15.498000 -9.003000 0.998000 188 188 188
v -15.498000 -9.003000 0.000000 188 188 188
v -15.498000 -9.003000 0.000000 188 188 188
v -15.498000 -9.003000 0.998000 188 188 188
v -15.498000 9.003000 0.998000 188 188 188
v -15.498000 -15.003000 7.003000 188 188 188
v -15.498000 9.003000 0.998000 188 188 188
v -15.498000 -9.003000 0.998000 188 188 188
v -21.503000 -15.003000 0.998000 188 188 188
v -15.498000 -15.003000 0.998000 188 188 188
v -15.498000 -9.003000 0.998000 188 188 188
v -15.498000 -15.003000 0.998000 188 188 188
v -15.498000 -15.003000 7.003000 188 188 188
v -15.498000 -9.003000 0.998000 188 188 188
v -15.498000 -15.003000 7.003000 188 188 188
v -15.498000 15.003000 7.003000 188 188 188
v -15.498000 9.003000 0.998000 188 188 188
v -15.498000 15.003000 7.003000 188 188 188
v -15.498000 9.003000 0.998000 188 188 188
v -15.498000 15.003000 7.003000 188 188 188
v -21.503000 15.003000 0.998000 188 188 188
v -15.498000 15.003000 0.998000 188 188 188
v -15.498000 15.003000 7.003000 188 188 188
v -21.503000 15.003000 7.003000 188 188 188
v -21.503000 15.003000 0.998000 188 188 188
v -15.498000 9.003000 0.998000 188 188 188
v -15.498000 15.003000 0.998000 188 188 188
v -21.503000 15.003000 0.998000 188 188 188
v -15.498000 9.003000 0.000000 188 188 188
v -15.498000 -9.003000 0.000000 188 188 188
v -15.498000 9.003000 0.998000 188 188 188
v -15.498000 9.003000 0.000000 188 188 188
v -22.500000 22.500000 0.000000 188 188 188
v -9.003000 15.498000 0.000000 188 188 188
v -22.500000 22.500000 0.000000 188 188 188
v -9.003000 22.500000 0.000000 188 188 188
v -22.500000 22.500000 0.000000 188 188 188
v -9.003000 22.500000 7.003000 188 188 188
v -9.003000 22.500000 0.000000 188 188 188
v -9.003000 22.500000 7.003000 188 188 188
v -9.003000 21.503000 0.998000 188 188 188
v -9.003000 21.503000 7.003000 188 188 188
v -9.003000 21.503000 0.998000 188 188 188
v -9.003000 21.503000 0.998000 188 188 188
v -15.003000 21.503000 0.998000 188 188 188
v -9.003000 21.503000 0.998000 188 188 188
v -15.003000 15.498000 0.998000 188 188 188
v -9.003000 15.498000 0.000000 188 188 188
v -9.003000 21.503000 0.998000 188 188 188
v -9.003000 15.498000 0.998000 188 188 188
v -9.003000 15.498000 0.000000 188 188 188
v -9.003000 15.498000 0.998000 188 188 188
v -9.003000 15.498000 0.000000 188 188 188
v 9.003000 15.498000 0.998000 188 188 188
v 9.003000 15.498000 0.000000 188 188 188
v 9.003000 15.498000 0.998000 188 188 188
v 9.003000 15.498000 0.000000 188 188 188
v 9.003000 21.503000 0.998000 188 188 188
v 9.003000 22.500000 0.000000 188 188 188
v 22.500000 22.500000 0.000000 188 188 188
v 9.003000 15.498000 0.000000 188 188 188
v 15.498000 9.003000 0.000000 188 188 188
v 9.003000 15.498000 0.000000 188 188 188
v 22.500000 22.500000 0.000000 188 188 188
v 15.498000 9.003000 0.000000 188 188 188
v 9.003000 -15.498000 0.000000 188 188 188
v 9.003000 15.498000 0.000000 188 188 188
v 9.003000 22.500000 7.003000 188 188 188
v 9.003000 22.500000 0.000000 188 188 188
v 9.003000 21.503000 0.998000 188 188 188
v 9.003000 22.500000 7.003000 188 188 188
v 9.003000 21.503000 0.998000 188 188 188
v 9.003000 21.503000 7.003000 188 188 188
v 9.003000 21.503000 0.998000 188 188 188
v 15.003000 21.503000 0.998000 188 188 188
v 9.003000 21.503000 0.998000 188 188 188
v 15.003000 21.503000 0.998000 188 188 188
v 15.003000 15.498000 0.998000 188 188 188
v 15.003000 15.498000 7.003000 188 188 188
v 15.003000 15.498000 0.998000 188 188 188
v 9.003000 15.498000 0.998000 188 188 188
v 15.003000 15.498000 7.003000 188 188 188
v 9.003000 15.498000 0.998000 188 188 188
v 9.003000 21.503000 7.003000 188 188 188
v 15.003000 15.498000 7.003000 188 188 188
v -15.003000 15.498000 7.003000 188 188 188
v -15.003000 15.498000 7.003000 188 188 188
v -9.003000 21.503000 7.003000 188 188 188
v 9.003000 21.503000 7.003000 188 188 188
v -15.003000 15.498000 7.003000 188 188 188
v -9.003000 21.503000 7.003000 188 188 188
v -15.003000 21.503000 7.003000 188 188 188
v -15.003000 15.498000 7.003000 188 188 188
v -15.003000 15.498000 0.998000 188 188 188
v 9.003000 21.503000 7.003000 188 188 188
v 15.003000 15.498000 7.003000 188 188 188
v 15.003000 15.498000 7.003000 188 188 188
v 15.003000 21.503000 7.003000 188 188 188
v 15.003000 21.503000 0.998000 188 188 188
v 15.003000 21.503000 0.998000 188 188 188
v 15.003000 21.503000 7.003000 188 188 188
v 9.003000 21.503000 7.003000 188 188 188
v 9.003000 22.500000 7.003000 188 188 188
v 9.003000 21.503000 7.003000 188 188 188
v -9.003000 21.503000 7.003000 188 188 188
v 15.003000 15.498000 0.998000 188 188 188
v 9.003000 21.503000 0.998000 188 188 188
v 9.003000 15.498000 0.998000 188 188 188
v -9.003000 15.498000 0.000000 188 188 188
v 9.003000 15.498000 0.000000 188 188 188
v 9.003000 -15.498000 0.000000 188 188 188
v -15.003000 15.498000 7.003000 188 188 188
v 9.003000 15.498000 0.998000 188 188 188
v -9.003000 15.498000 0.998000 188 188 188
v -9.003000 15.498000 0.998000 188 188 188
v -15.003000 15.498000 0.998000 188 188 188
v -15.003000 15.498000 7.003000 188 188 188
v -15.003000 21.503000 7.003000 188 188 188
v -15.003000 15.498000 0.998000 188 188 188
v -15.003000 21.503000 0.998000 188 188 188
v -9.003000 21.503000 7.003000 188 188 188
v -15.003000 21.503000 7.003000 188 188 188
v -15.003000 21.503000 0.998000 188 188 188
v 9.003000 22.500000 7.003000 188 188 188
v -9.003000 21.503000 7.003000 188 188 188
v -9.003000 22.500000 7.003000 188 188 188
v -9.003000 22.500000 7.003000 188 188 188
v 9.003000 22.500000 7.003000 188 188 188
v -9.003000 22.500000 7.003000 188 188 188
v -22.500000 22.500000 0.000000 188 188 188
v -15.498000 22.500000 13.498000 188 188 188
v -15.498000 22.500000 13.498000 188 188 188
v -22.500000 22.500000 0.000000 188 188 188
v -15.498000 22.500000 13.498000 188 188 188
v -22.500000 22.500000 13.498000 188 188 188
v -15.498000 22.500000 13.498000 188 188 188
v -21.503000 21.503000 13.498000 188 188 188
v -21.503000 21.503000 13.498000 188 188 188
v -15.498000 21.503000 13.498000 188 188 188
v -15.498000 21.503000 7.498000 188 188 188
v -15.498000 21.503000 13.498000 188 188 188
v -15.498000 15.498000 7.498000 188 188 188
v -15.498000 21.503000 13.498000 188 188 188
v -15.498000 15.498000 37.502998 188 188 188
v -15.498000 21.503000 13.498000 188 188 188
v -15.498000 15.498000 37.502998 188 188 188
v -15.498000 21.503000 31.503000 188 188 188
v -15.498000 21.503000 31.503000 188 188 188
v -15.498000 21.503000 37.502998 188 188 188
v -15.498000 21.503000 31.503000 188 188 188
v -21.503000 21.503000 37.502998 188 188 188
v -15.498000 22.500000 31.503000 188 188 188
v -15.498000 21.503000 31.503000 188 188 188
v -21.503000 21.503000 31.503000 188 188 188
v -15.498000 22.500000 13.498000 188 188 188
v -15.498000 21.503000 31.503000 188 188 188
v -15.498000 22.500000 31.503000 188 188 188
v -21.503000 21.503000 31.503000 188 188 188
v -21.503000 21.503000 37.502998 188 188 188
v -21.503000 21.503000 31.503000 188 188 188
v -21.503000 15.498000 37.502998 188 188 188
v -21.503000 15.498000 31.503000 188 188 188
v -22.500000 15.498000 31.503000 188 188 188
v -21.503000 21.503000 31.503000 188 188 188
v -22.500000 15.498000 31.503000 188 188 188
v -21.503000 15.498000 31.503000 188 188 188
v -22.500000 15.498000 31.503000 188 188 188
v -21.503000 15.498000 13.498000 188 188 188
v -22.500000 15.498000 13.498000 188 188 188
v -22.500000 15.498000 13.498000 188 188 188
v -21.503000 15.498000 13.498000 188 188 188
v -21.503000 21.503000 13.498000 188 188 188
v -21.503000 21.503000 13.498000 188 188 188
v -21.503000 15.498000 13.498000 188 188 188
v -15.498000 15.498000 7.498000 188 188 188
v -21.503000 15.498000 7.498000 188 188 188
v -21.503000 15.498000 13.498000 188 188 188
v -21.503000 15.498000 7.498000 188 188 188
v -21.503000 21.503000 13.498000 188 188 188
v -15.498000 21.503000 7.498000 188 188 188
v -21.503000 21.503000 7.498000 188 188 188
v -21.503000 15.498000 7.498000 188 188 188
v -21.503000 15.498000 31.503000 188 188 188
v -15.498000 15.498000 37.502998 188 188 188
v -21.503000 15.498000 13.498000 188 188 188
v -21.503000 15.498000 37.502998 188 188 188
v -15.498000 15.498000 37.502998 188 188 188
v -21.503000 15.498000 31.503000 188 188 188
v -21.503000 21.503000 37.502998 188 188 188
v -15.498000 15.498000 37.502998 188 188 188
v -21.503000 15.498000 37.502998 188 188 188
v -21.503000 21.503000 37.502998 188 188 188
v -15.498000 21.503000 37.502998 188 188 188
v -15.498000 15.498000 37.502998 188 188 188
v -15.498000 15.498000 7.498000 188 188 188
v -21.503000 15.498000 13.498000 188 188 188
v -15.498000 15.498000 37.502998 188 188 188
v -15.498000 21.503000 7.498000 188 188 188
v -21.503000 15.498000 7.498000 188 188 188
v -15.498000 15.498000 7.498000 188 188 188
v -21.503000 21.503000 13.498000 188 188 188
v -21.503000 21.503000 7.498000 188 188 188
v -15.498000 21.503000 7.498000 188 188 188
v -15.498000 22.500000 13.498000 188 188 188
v -15.498000 21.503000 13.498000 188 188 188
v -15.498000 21.503000 31.503000 188 188 188
v -22.500000 15.498000 13.498000 188 188 188
v -21.503000 21.503000 13.498000 188 188 188
v -22.500000 22.500000 13.498000 188 188 188
v -9.003000 15.498000 0.000000 188 188 188
v -9.003000 22.500000 0.000000 188 188 188
v -9.003000 21.503000 0.998000 188 188 188
v -9.003000 15.498000 0.000000 188 188 188
v 9.003000 -15.498000 0.000000 188 188 188
v -15.498000 9.003000 0.000000 188 188 188
v -22.500000 9.003000 7.003000 188 188 188
v -22.500000 9.003000 0.000000 188 188 188
v -21.503000 9.003000 0.998000 188 188 188
v -22.500000 22.500000 13.498000 188 188 188
v -22.500000 22.500000 0.000000 188 188 188
v -22.500000 15.498000 13.498000 188 188 188
v -22.500000 -9.003000 7.003000 188 188 188
v -22.500000 15.498000 31.503000 188 188 188
v -22.500000 15.498000 13.498000 188 188 188
v -22.500000 -9.003000 7.003000 188 188 188
v -22.500000 15.498000 31.503000 188 188 188
v -22.500000 9.003000 7.003000 188 188 188
v -21.503000 9.003000 7.003000 188 188 188
v -21.503000 -9.003000 7.003000 188 188 188
v -21.503000 -15.003000 7.003000 188 188 188
v -21.503000 -9.003000 0.998000 188 188 188
v -21.503000 -9.003000 7.003000 188 188 188
v -22.500000 -15.498000 13.498000 188 188 188
v -22.500000 -9.003000 7.003000 188 188 188
v -22.500000 -22.500000 0.000000 188 188 188
v -22.500000 -15.498000 13.498000 188 188 188
v -22.500000 -22.500000 0.000000 188 188 188
v -22.500000 -22.500000 13.498000 188 188 188
v -22.500000 -22.500000 0.000000 188 188 188
v -15.498000 -22.500000 13.498000 188 188 188
v -15.498000 -22.500000 13.498000 188 188 188
v -22.500000 -22.500000 13.498000 188 188 188
v -15.498000 -22.500000 13.498000 188 188 188
v -21.503000 -21.503000 13.498000 188 188 188
v -15.498000 -21.503000 13.498000 188 188 188
v -21.503000 -21.503000 13.498000 188 188 188
v -21.503000 -21.503000 7.498000 188 188 188
v -21.503000 -21.503000 13.498000 188 188 188
v -21.503000 -15.498000 13.498000 188 188 188
v -22.500000 -15.498000 13.498000 188 188 188
v -21.503000 -21.503000 13.498000 188 188 188
v -22.500000 -15.498000 13.498000 188 188 188
v -21.503000 -15.498000 13.498000 188 188 188
v -22.500000 -15.498000 31.503000 188 188 188
v -22.500000 -15.498000 13.498000 188 188 188
v -21.503000 -15.498000 31.503000 188 188 188
v -21.503000 -15.498000 31.503000 188 188 188
v -22.500000 -15.498000 31.503000 188 188 188
v -22.500000 -15.498000 31.503000 188 188 188
v -21.503000 -21.503000 31.503000 188 188 188
v -15.498000 -22.500000 31.503000 188 188 188
v -22.500000 -22.500000 31.503000 188 188 188
v -21.503000 -21.503000 31.503000 188 188 188
v -21.503000 -21.503000 31.503000 188 188 188
v -15.498000 -22.500000 31.503000 188 188 188
v -15.498000 -22.500000 31.503000 188 188 188
v -15.498000 -21.503000 31.503000 188 188 188
v -15.498000 -21.503000 13.498000 188 188 188
v -15.498000 -21.503000 31.503000 188 188 188
v -15.498000 -21.503000 13.498000 188 188 188
v -15.498000 -21.503000 13.498000 188 188 188
v -15.498000 -15.498000 37.502998 188 188 188
v -15.498000 -15.498000 7.498000 188 188 188
v -15.498000 -15.498000 37.502998 188 188 188
v -21.503000 -15.498000 13.498000 188 188 188
v -21.503000 -15.498000 13.498000 188 188 188
v -15.498000 -15.498000 7.498000 188 188 188
v -15.498000 -15.498000 7.498000 188 188 188
v -21.503000 -15.498000 7.498000 188 188 188
v -21.503000 -21.503000 7.498000 188 188 188
v -15.498000 -15.498000 7.498000 188 188 188
v -21.503000 -21.503000 7.498000 188 188 188
v -15.498000 -15.498000 7.498000 188 188 188
v -15.498000 -21.503000 7.498000 188 188 188
v -15.498000 -21.503000 13.498000 188 188 188
v -15.498000 -21.503000 31.503000 188 188 188
v -15.498000 -15.498000 37.502998 188 188 188
v -15.498000 -15.498000 37.502998 188 188 188
v -15.498000 -21.503000 37.502998 188 188 188
v -21.503000 -15.498000 37.502998 188 188 188
v -15.498000 -21.503000 37.502998 188 188 188
v -21.503000 -15.498000 31.503000 188 188 188
v -21.503000 -15.498000 37.502998 188 188 188
v -21.503000 -21.503000 37.502998 188 188 188
v -21.503000 -15.498000 37.502998 188 188 188
v -21.503000 -15.498000 31.503000 188 188 188
v -15.498000 -15.498000 37.502998 188 188 188
v -21.503000 -21.503000 37.502998 188 188 188
v -15.498000 -21.503000 37.502998 188 188 188
v -15.498000 -21.503000 31.503000 188 188 188
v -21.503000 -21.503000 37.502998 188 188 188
v -15.498000 -21.503000 31.503000 188 188 188
v -21.503000 -21.503000 31.503000 188 188 188
v -21.503000 -15.498000 31.503000 188 188 188
v -21.503000 -21.503000 37.502998 188 188 188
v -21.503000 -21.503000 31.503000 188 188 188
v -21.503000 -15.498000 31.503000 188 188 188
v -21.503000 -15.498000 13.498000 188 188 188
v -15.498000 -15.498000 37.502998 188 188 188
v -21.503000 -21.503000 7.498000 188 188 188
v -21.503000 -15.498000 7.498000 188 188 188
v -21.503000 -15.498000 13.498000 188 188 188
v -15.498000 -21.503000 13.498000 188 188 188
v -15.498000 -21.503000 7.498000 188 188 188
v -21.503000 -21.503000 7.498000 188 188 188
v -22.500000 -22.500000 13.498000 188 188 188
v -21.503000 -21.503000 13.498000 188 188 188
v -22.500000 -15.498000 13.498000 188 188 188
v -15.498000 -9.003000 0.000000 188 188 188
v -22.500000 -9.003000 0.000000 188 188 188
v -21.503000 -9.003000 0.998000 188 188 188
v -15.498000 -9.003000 0.000000 188 188 188
v -15.498000 9.003000 0.000000 188 188 188
v -9.003000 -15.498000 0.000000 188 188 188
v -9.003000 -22.500000 0.000000 188 188 188
v -9.003000 -22.500000 7.003000 188 188 188
v -22.500000 -22.500000 0.000000 188 188 188
v -9.003000 -22.500000 7.003000 188 188 188
v -9.003000 -22.500000 0.000000 188 188 188
v -9.003000 -21.503000 0.998000 188 188 188
v -9.003000 -22.500000 7.003000 188 188 188
v -9.003000 -21.503000 0.998000 188 188 188
v -9.003000 -21.503000 0.998000 188 188 188
v -9.003000 -21.503000 7.003000 188 188 188
v -15.003000 -21.503000 7.003000 188 188 188
v -9.003000 -21.503000 7.003000 188 188 188
v -15.003000 -15.498000 7.003000 188 188 188
v 9.003000 -21.503000 7.003000 188 188 188
v -9.003000 -21.503000 7.003000 188 188 188
v -15.003000 -15.498000 7.003000 188 188 188
v -15.003000 -21.503000 7.003000 188 188 188
v -15.003000 -15.498000 7.003000 188 188 188
v -15.003000 -21.503000 0.998000 188 188 188
v -15.003000 -15.498000 7.003000 188 188 188
v -15.003000 -15.498000 0.998000 188 188 188
v -9.003000 -15.498000 0.998000 188 188 188
v -9.003000 -15.498000 0.998000 188 188 188
v -15.003000 -15.498000 0.998000 188 188 188
v -15.003000 -21.503000 0.998000 188 188 188
v -9.003000 -21.503000 0.998000 188 188 188
v -15.003000 -21.503000 0.998000 188 188 188
v -15.003000 -21.503000 7.003000 188 188 188
v -9.003000 -15.498000 0.998000 188 188 188
v -15.003000 -21.503000 0.998000 188 188 188
v -9.003000 -21.503000 0.998000 188 188 188
v -9.003000 -15.498000 0.000000 188 188 188
v -15.498000 9.003000 0.000000 188 188 188
v 9.003000 -15.498000 0.000000 188 188 188
v -15.003000 -15.498000 7.003000 188 188 188
v -9.003000 -15.498000 0.998000 188 188 188
v 9.003000 -15.498000 0.998000 188 188 188
v -15.003000 -15.498000 7.003000 188 188 188
v 9.003000 -15.498000 0.998000 188 188 188
v 15.003000 -15.498000 7.003000 188 188 188
v 15.003000 -15.498000 0.998000 188 188 188
v 15.003000 -15.498000 7.003000 188 188 188
v 9.003000 -15.498000 0.998000 188 188 188
v -15.003000 -15.498000 7.003000 188 188 188
v 15.003000 -15.498000 7.003000 188 188 188
v 9.003000 -21.503000 7.003000 188 188 188
v 15.003000 -21.503000 7.003000 188 188 188
v 15.003000 -21.503000 0.998000 188 188 188
v 9.003000 -21.503000 0.998000 188 188 188
v -9.003000 -22.500000 7.003000 188 188 188
v -9.003000 -21.503000 7.003000 188 188 188
v 9.003000 -21.503000 7.003000 188 188 188
v -22.500000 -22.500000 0.000000 188 188 188
v -9.003000 -22.500000 7.003000 188 188 188
v -15.498000 -22.500000 13.498000 188 188 188
v -15.498000 -22.500000 13.498000 188 188 188
v -15.498000 -22.500000 31.503000 188 188 188
v -15.498000 -21.503000 13.498000 188 188 188
v 15.498000 -22.500000 13.498000 188 188 188
v 22.500000 -22.500000 0.000000 188 188 188
v 22.500000 -22.500000 13.498000 188 188 188
v 21.503000 -21.503000 13.498000 188 188 188
v 15.498000 -22.500000 13.498000 188 188 188
v 15.498000 -22.500000 13.498000 188 188 188
v 21.503000 -21.503000 13.498000 188 188 188
v 15.498000 -21.503000 13.498000 188 188 188
v 15.498000 -22.500000 13.498000 188 188 188
v 15.498000 -21.503000 13.498000 188 188 188
v 15.498000 -22.500000 31.503000 188 188 188
v 15.498000 -22.500000 13.498000 188 188 188
v 15.498000 -21.503000 31.503000 188 188 188
v 15.498000 -22.500000 31.503000 188 188 188
v 15.498000 -21.503000 31.503000 188 188 188
v 21.503000 -21.503000 31.503000 188 188 188
v 21.503000 -21.503000 31.503000 188 188 188
v 15.498000 -21.503000 31.503000 188 188 188
v 15.498000 -15.498000 37.502998 188 188 188
v 15.498000 -21.503000 37.502998 188 188 188
v 15.498000 -21.503000 31.503000 188 188 188
v 15.498000 -15.498000 37.502998 188 188 188
v 15.498000 -21.503000 37.502998 188 188 188
v 15.498000 -21.503000 37.502998 188 188 188
v 21.503000 -21.503000 37.502998 188 188 188
v 21.503000 -21.503000 31.503000 188 188 188
v 22.500000 -22.500000 13.498000 188 188 188
v 22.500000 -22.500000 0.000000 188 188 188
v 22.500000 -15.498000 13.498000 188 188 188
v 22.500000 -22.500000 0.000000 188 188 188
v 22.500000 -15.498000 13.498000 188 188 188
v 9.003000 -22.500000 7.003000 188 188 188
v 9.003000 -21.503000 0.998000 188 188 188
v 9.003000 -22.500000 0.000000 188 188 188
v 9.003000 -15.498000 0.000000 188 188 188
v 9.003000 -22.500000 0.000000 188 188 188
v 9.003000 -21.503000 0.998000 188 188 188
v 22.500000 -9.003000 0.000000 188 188 188
v 22.500000 -9.003000 7.003000 188 188 188
v 22.500000 -22.500000 0.000000 188 188 188
v 22.500000 -9.003000 0.000000 188 188 188
v 21.503000 -9.003000 0.998000 188 188 188
v 22.500000 -9.003000 7.003000 188 188 188
v 22.500000 -9.003000 7.003000 188 188 188
v 21.503000 -9.003000 0.998000 188 188 188
v 21.503000 -9.003000 7.003000 188 188 188
v 21.503000 -9.003000 0.998000 188 188 188
v 21.503000 -15.003000 0.998000 188 188 188
v 21.503000 -9.003000 0.998000 188 188 188
v 21.503000 -15.003000 0.998000 188 188 188
v 15.498000 -15.003000 0.998000 188 188 188
v 15.498000 -15.003000 7.003000 188 188 188
v 15.498000 -15.003000 0.998000 188 188 188
v 15.498000 -9.003000 0.998000 188 188 188
v 15.498000 -15.003000 7.003000 188 188 188
v 21.503000 -15.003000 0.998000 188 188 188
v 21.503000 -9.003000 7.003000 188 188 188
v 21.503000 -15.003000 7.003000 188 188 188
v 15.498000 -15.003000 7.003000 188 188 188
v 15.498000 -15.003000 7.003000 188 188 188
v 21.503000 -9.003000 7.003000 188 188 188
v 21.503000 9.003000 7.003000 188 188 188
v 15.498000 -15.003000 7.003000 188 188 188
v 15.498000 -15.003000 7.003000 188 188 188
v 15.498000 9.003000 0.998000 188 188 188
v 15.498000 15.003000 7.003000 188 188 188
v 15.498000 15.003000 7.003000 188 188 188
v 15.498000 9.003000 0.998000 188 188 188
v 15.498000 15.003000 7.003000 188 188 188
v 15.498000 15.003000 0.998000 188 188 188
v 21.503000 15.003000 7.003000 188 188 188
v 15.498000 15.003000 0.998000 188 188 188
v 21.503000 9.003000 7.003000 188 188 188
v 21.503000 15.003000 7.003000 188 188 188
v 21.503000 15.003000 0.998000 188 188 188
v 21.503000 9.003000 7.003000 188 188 188
v 21.503000 15.003000 0.998000 188 188 188
v 21.503000 9.003000 0.998000 188 188 188
v 21.503000 9.003000 0.998000 188 188 188
v 21.503000 15.003000 0.998000 188 188 188
v 15.498000 15.003000 0.998000 188 188 188
v 15.498000 15.003000 7.003000 188 188 188
v 21.503000 15.003000 7.003000 188 188 188
v 21.503000 9.003000 7.003000 188 188 188
v 21.503000 -15.003000 0.998000 188 188 188
v 21.503000 -15.003000 7.003000 188 188 188
v 21.503000 -9.003000 7.003000 188 188 188
v 22.500000 -9.003000 7.003000 188 188 188
v 21.503000 -9.003000 7.003000 188 188 188
v 21.503000 9.003000 7.003000 188 188 188
v 22.500000 9.003000 7.003000 188 188 188
v 22.500000 -9.003000 7.003000 188 188 188
v 21.503000 9.003000 7.003000 188 188 188
v 15.498000 -15.003000 0.998000 188 188 188
v 21.503000 -9.003000 0.998000 188 188 188
v 15.498000 -9.003000 0.998000 188 188 188
v 15.498000 9.003000 0.000000 188 188 188
v 15.498000 -9.003000 0.000000 188 188 188
v 9.003000 -15.498000 0.000000 188 188 188
v 15.498000 -15.003000 7.003000 188 188 188
v 15.498000 -9.003000 0.998000 188 188 188
v 15.498000 9.003000 0.998000 188 188 188
v 21.503000 9.003000 0.998000 188 188 188
v 15.498000 15.003000 0.998000 188 188 188
v 15.498000 9.003000 0.998000 188 188 188
v 21.503000 9.003000 7.003000 188 188 188
v 21.503000 9.003000 0.998000 188 188 188
v 22.500000 9.003000 7.003000 188 188 188
v 22.500000 9.003000 0.000000 188 188 188
v 15.498000 9.003000 0.000000 188 188 188
v 22.500000 22.500000 0.000000 188 188 188
v 22.500000 9.003000 7.003000 188 188 188
v 22.500000 -15.498000 13.498000 188 188 188
v 22.500000 -9.003000 7.003000 188 188 188
v 22.500000 -22.500000 13.498000 188 188 188
v 22.500000 -15.498000 13.498000 188 188 188
v 21.503000 -21.503000 13.498000 188 188 188
v 21.503000 -21.503000 13.498000 188 188 188
v 21.503000 -21.503000 7.498000 188 188 188
v 15.498000 -21.503000 7.498000 188 188 188
v 21.503000 -21.503000 13.498000 188 188 188
v 15.498000 -21.503000 7.498000 188 188 188
v 15.498000 -21.503000 13.498000 188 188 188
v 15.498000 -21.503000 31.503000 188 188 188
v 15.498000 -21.503000 13.498000 188 188 188
v 15.498000 -15.498000 37.502998 188 188 188
v 15.498000 -15.498000 7.498000 188 188 188
v 21.503000 -15.498000 7.498000 188 188 188
v 21.503000 -15.498000 13.498000 188 188 188
v 15.498000 -15.498000 37.502998 188 188 188
v 21.503000 -15.498000 37.502998 188 188 188
v 21.503000 -21.503000 37.502998 188 188 188
v 21.503000 -21.503000 31.503000 188 188 188
v 21.503000 -21.503000 37.502998 188 188 188
v 21.503000 -15.498000 37.502998 188 188 188
v 22.500000 -15.498000 31.503000 188 188 188
v 21.503000 -15.498000 31.503000 188 188 188
v 21.503000 -15.498000 13.498000 188 188 188
v 15.498000 -22.500000 31.503000 188 188 188
v 21.503000 -21.503000 31.503000 188 188 188
v 22.500000 -22.500000 31.503000 188 188 188
v 15.498000 -22.500000 31.503000 188 188 188
v -15.498000 -22.500000 31.503000 188 188 188
v 15.498000 -22.500000 13.498000 188 188 188
v -22.500000 -22.500000 31.503000 188 188 188
v -15.498000 -22.500000 31.503000 188 188 188
v -22.500000 -22.500000 45.000000 188 188 188
v -22.500000 -22.500000 31.503000 188 188 188
v -22.500000 -22.500000 45.000000 188 188 188
v -22.500000 -15.498000 31.503000 188 188 188
v -22.500000 -15.498000 13.498000 188 188 188
v -22.500000 -15.498000 31.503000 188 188 188
v -22.500000 15.498000 31.503000 188 188 188
v -22.500000 15.498000 31.503000 188 188 188
v -22.500000 22.500000 31.503000 188 188 188
v -21.503000 21.503000 31.503000 188 188 188
v -15.498000 22.500000 31.503000 188 188 188
v -21.503000 21.503000 31.503000 188 188 188
v -22.500000 22.500000 31.503000 188 188 188
v -22.500000 22.500000 45.000000 188 188 188
v 22.500000 -22.500000 45.000000 188 188 188
v 22.500000 22.500000 45.000000 188 188 188
v -15.498000 22.500000 31.503000 188 188 188
v 9.003000 22.500000 7.003000 188 188 188
v -15.498000 22.500000 13.498000 188 188 188
v 9.003000 22.500000 0.000000 188 188 188
v 9.003000 22.500000 7.003000 188 188 188
v 22.500000 22.500000 0.000000 188 188 188
v 22.500000 22.500000 13.498000 188 188 188
v 22.500000 15.498000 13.498000 188 188 188
v 22.500000 22.500000 0.000000 188 188 188
v 22.500000 15.498000 13.498000 188 188 188
v 22.500000 22.500000 13.498000 188 188 188
v 21.503000 21.503000 13.498000 188 188 188
v 21.503000 15.498000 13.498000 188 188 188
v 22.500000 15.498000 13.498000 188 188 188
v 21.503000 21.503000 13.498000 188 188 188
v 22.500000 15.498000 13.498000 188 188 188
v 21.503000 15.498000 13.498000 188 188 188
v 22.500000 15.498000 31.503000 188 188 188
v 22.500000 15.498000 13.498000 188 188 188
v 21.503000 15.498000 31.503000 188 188 188
v 15.498000 22.500000 31.503000 188 188 188
v 15.498000 21.503000 13.498000 188 188 188
v 15.498000 22.500000 13.498000 188 188 188
v 21.503000 21.503000 7.498000 188 188 188
v 15.498000 21.503000 7.498000 188 188 188
v 15.498000 15.498000 7.498000 188 188 188
v 21.503000 21.503000 13.498000 188 188 188
v 21.503000 15.498000 7.498000 188 188 188
v 21.503000 15.498000 13.498000 188 188 188
v 21.503000 15.498000 31.503000 188 188 188
v 21.503000 15.498000 13.498000 188 188 188
v 15.498000 15.498000 37.502998 188 188 188
v 15.498000 15.498000 37.502998 188 188 188
v 21.503000 15.498000 31.503000 188 188 188
v 21.503000 15.498000 31.503000 188 188 188
v 21.503000 15.498000 37.502998 188 188 188
v 21.503000 15.498000 31.503000 188 188 188
v 21.503000 21.503000 37.502998 188 188 188
v 21.503000 21.503000 31.503000 188 188 188
v 15.498000 21.503000 37.502998 188 188 188
v 21.503000 21.503000 37.502998 188 188 188
v 21.503000 15.498000 37.502998 188 188 188
v 15.498000 21.503000 7.498000 188 188 188
v 15.498000 21.503000 13.498000 188 188 188
v 15.498000 15.498000 7.498000 188 188 188
v 15.498000 21.503000 37.502998 188 188 188
v 21.503000 15.498000 37.502998 188 188 188
v 15.498000 15.498000 37.502998 188 188 188
v 21.503000 21.503000 31.503000 188 188 188
v 21.503000 21.503000 37.502998 188 188 188
v 15.498000 21.503000 37.502998 188 188 188
v 15.498000 22.500000 31.503000 188 188 188
v 15.498000 21.503000 31.503000 188 188 188
v 15.498000 21.503000 13.498000 188 188 188
v 21.503000 15.498000 31.503000 188 188 188
v 21.503000 21.503000 31.503000 188 188 188
v 22.500000 15.498000 31.503000 188 188 188
v 22.500000 22.500000 31.503000 188 188 188
v 15.498000 22.500000 31.503000 188 188 188
v 22.500000 22.500000 45.000000 188 188 188
v 22.500000 15.498000 13.498000 188 188 188
v 22.500000 15.498000 31.503000 188 188 188
v 22.500000 -15.498000 31.503000 188 188 188
v 22.500000 -22.500000 45.000000 188 188 188
v 22.500000 -15.498000 31.503000 188 188 188
v 22.500000 22.500000 45.000000 188 188 188

f 9 8 157
f 155 169 170
f 171 172 156
f 173 174 145
f 162 175 176
f 177 161 178
f 179 180 160
f 181 182 110
f 137 183 184
f 185 186 109
f 187 154 188
f 133 189 190
f 112 191 192
f 128 193 194
f 195 196 197
f 15 198 199
f 200 201 113
f 202 88 203
f 204 205 6
f 206 207 144
f 208 209 210
f 211 212 213
f 50 214 215
f 216 217 44
f 218 219 20
f 220 221 12
f 222 223 49
f 224 111 225
f 226 227 67
f 228 229 129
f 230 231 130
f 232 233 234
f 235 236 135
f 136 237 238
f 239 139 240
f 241 242 165
f 243 244 167
f 166 245 246
f 247 248 164
f 249 103 250
f 98 251 252
f 253 254 102
f 255 256 257
f 258 259 2
f 260 261 168
f 262 263 264
f 265 1 266
f 267 268 108
f 269 270 271
f 89 272 273
f 274 275 107
f 276 277 99
f 278 279 121
f 280 281 100
f 70 282 283
f 284 285 126
f 286 287 4
f 288 3 289
f 290 291 71
f 97 292 293
f 101 294 295
f 296 7 297
f 298 299 300
f 301 82 302
f 303 304 106
f 305 306 32
f 307 308 122
f 114 309 310
f 311 312 119
f 313 314 118
f 315 316 115
f 317 318 117
f 319 320 321
f 322 323 324
f 325 326 26
f 53 327 328
f 329 330 56
f 331 332 105
f 333 47 334
f 65 335 336
f 61 337 338
f 339 340 42
f 341 342 66
f 57 343 344
f 73 345 346
f 347 18 348
f 349 350 148
f 19 351 352
f 353 354 40
f 355 74 356
f 357 72 358
f 359 25 360
f 361 35 362
f 363 364 365
f 366 34 367
f 368 22 369
f 370 55 371
f 372 373 374
f 375 45 376
f 377 378 54
f 379 380 46
f 381 382 383
f 384 51 385
f 386 387 388
f 389 390 391
f 392 393 394
f 395 396 397
f 398 399 400
f 401 402 403
f 404 24 405
f 406 407 408
f 409 410 411
f 412 413 414
f 415 416 417
f 27 418 419
f 150 420 421
f 422 423 147
f 424 36 425
f 426 28 427
f 428 13 429
f 430 431 95
f 432 433 21
f 434 435 436
f 437 438 153
f 93 439 440
f 441 442 96
f 443 444 94
f 445 446 447
f 448 449 450
f 451 452 453
f 454 455 456
f 152 457 458
f 143 459 460
f 146 461 462
f 141 463 464
f 465 466 467
f 468 469 23
f 470 471 472
f 473 474 475
f 476 14 477
f 478 479 480
f 481 142 482
f 483 484 485
f 486 487 488
f 489 490 491
f 492 493 494
f 495 496 497
f 498 499 500
f 501 502 503
f 504 505 506
f 507 508 509
f 510 511 512
f 513 149 514
f 515 516 517
f 151 518 519
f 520 521 37
f 39 522 523
f 524 38 525
f 526 85 527
f 528 80 529
f 530 81 531
f 532 52 533
f 534 535 58
f 536 537 43
f 538 539 540
f 541 542 543
f 544 545 59
f 546 547 60
f 548 549 550
f 551 552 86
f 553 554 555
f 556 557 558
f 17 559 560
f 561 562 563
f 564 16 565
f 566 567 568
f 569 570 571
f 572 573 574
f 575 576 577
f 578 579 580
f 581 582 583
f 584 585 586
f 587 588 589
f 590 591 592
f 593 594 595
f 596 597 598
f 599 600 601
f 602 603 604
f 605 606 607
f 608 609 610
f 611 77 612
f 613 614 615
f 616 617 618
f 619 620 621
f 83 622 623
f 624 625 626
f 627 78 628
f 629 33 630
f 631 64 632
f 633 84 634
f 635 636 637
f 638 639 91
f 640 641 642
f 643 92 644
f 48 645 646
f 647 648 649
f 650 68 651
f 652 653 654
f 655 69 656
f 30 657 658
f 659 660 661
f 662 29 663
f 664 665 666
f 667 668 63
f 669 670 671
f 672 76 673
f 75 674 675
f 676 677 79
f 678 679 680
f 681 682 683
f 684 685 686
f 687 688 689
f 690 691 692
f 693 694 695
f 696 697 698
f 699 700 701
f 702 703 704
f 705 706 707
f 708 709 710
f 711 712 713
f 714 715 716
f 31 717 718
f 719 87 720
f 721 41 722
f 723 724 725
f 726 727 62
f 728 729 90
f 730 731 732
f 733 734 735
f 736 737 738
f 739 740 741
f 742 743 744
f 745 746 747
f 748 749 750
f 751 752 753
f 754 755 756
f 757 758 759
f 760 761 762
f 763 764 765
f 766 767 768
f 769 770 134
f 771 772 773
f 774 775 776
f 777 778 138
f 779 780 781
f 782 783 784
f 132 785 786
f 787 788 789
f 790 131 791
f 792 793 794
f 795 796 797
f 798 5 799
f 800 801 802
f 803 804 805
f 806 807 808
f 809 810 811
f 125 812 813
f 123 814 815
f 11 816 817
f 10 818 819
f 820 821 822
f 823 124 824
f 825 826 827
f 828 104 829
f 140 830 831
f 832 833 834
f 116 835 836
f 127 837 838
f 839 840 120
f 841 842 843
f 844 845 846
f 847 848 849
f 850 851 852
f 853 854 855
f 856 857 858
f 859 860 861
f 862 863 864
f 865 866 867
f 868 869 870
f 871 872 873
f 874 875 876
f 877 878 879
f 880 881 882
f 883 884 885
f 886 887 888
f 889 890 891
f 892 893 894
f 895 896 897
f 898 899 900
f 901 902 903
f 904 905 906
f 907 908 909
f 910 911 912
f 913 914 915
f 916 917 918
f 919 920 921
f 922 923 924
f 925 926 927
f 928 929 930
f 931 932 933
f 934 935 936
f 937 938 939
f 940 941 942
f 943 944 945
f 946 947 163
f 948 949 950
f 951 952 953
f 954 955 956
f 957 958 959
f 960 961 962
f 963 159 964
f 965 966 158
f 967 968 969
f 970 971 972
f 973 974 975
f 976 977 978
f 979 980 981
f 982 983 984
f 985 986 987
f 988 989 990
f 991 992 993
f 994 995 996

