# Exported from 3D Builder
o Object.1
v -10.289700 -20.269300 46.550419
v -10.289700 -20.069300 46.570419
v -10.329700 -19.729300 46.610420
v -10.369699 -23.449301 46.530422
v -10.349699 -20.869301 46.590420
v -10.369699 -21.649300 46.570419
v -13.029699 -20.849300 47.610420
v -12.949699 -23.849300 47.530422
v -10.309700 -23.909300 46.450420
v -10.329700 -23.769300 46.470421
v -10.189699 -24.009300 46.330421
v -10.169699 -23.809299 46.390419
v -10.249701 -23.449301 46.470421
v -10.049700 -23.989300 46.290421
v -9.909700 -24.129299 46.150421
v -9.509699 -23.449301 46.410419
v -10.229700 -22.009300 46.510422
v -10.209700 -20.549299 46.530422
v -9.149700 -20.549299 46.430420
v -9.829700 -20.549299 46.050419
v -8.189699 -20.549299 46.330421
v -7.329700 -20.549299 46.250420
v -7.309700 -20.549299 46.030422
v -9.649700 -20.549299 45.790421
v -9.269699 -20.549299 44.930420
v -9.349699 -19.649300 45.170422
v -9.089699 -24.189301 43.490421
v -9.129700 -19.649300 43.450420
v -10.169699 -19.649300 44.510422
v -10.469700 -19.649300 45.230419
v -10.949699 -19.649300 45.850422
v -10.949699 -20.109301 45.850422
v -11.689699 -19.649300 45.430420
v -12.069700 -19.649300 45.670422
v -12.009699 -19.649300 47.530422
v -15.189699 -19.649300 46.910419
v -13.029699 -19.649300 47.630421
v -15.649700 -20.849300 46.470421
v -15.569700 -23.849300 46.430420
v -16.729700 -20.849300 43.810421
v -16.649700 -23.849300 43.810421
v -15.509699 -26.829300 46.390419
v -12.929699 -26.829300 47.450420
v -14.049700 -27.009300 47.230419
v -15.829700 -27.009300 45.910419
v -16.569700 -26.829300 43.810421
v -16.529699 -27.009300 43.810421
v -15.369699 -27.129299 46.250420
v -16.389700 -27.129299 43.810421
v -14.649700 -27.689301 45.530422
v -15.349699 -27.689301 43.810421
v -14.389700 -27.769300 45.270420
v -12.929699 -27.769300 45.870419
v -12.929699 -27.689301 46.230419
v -11.469700 -27.769300 45.270420
v -11.209700 -27.689301 45.530422
v -12.929699 -27.129299 47.270420
v -11.829700 -27.009300 47.230419
v -10.489700 -27.129299 46.250420
v -10.029699 -27.009300 45.910419
v -10.349699 -26.829300 46.390419
v -10.209700 -24.129299 46.330421
v -9.289700 -26.829300 43.810421
v -10.089699 -24.289301 46.170422
v -10.009699 -24.209299 46.150421
v -9.489700 -25.069300 45.270420
v -9.789700 -24.729300 45.750420
v -9.569700 -25.169300 45.330421
v -9.389700 -25.249300 45.010422
v -9.529699 -25.289301 45.190422
v -9.469700 -25.369301 45.050419
v -9.189699 -25.729300 43.770420
v -9.309700 -25.689301 44.430420
v -9.269699 -25.909300 43.810421
v -10.029699 -25.769300 41.470421
v -9.469700 -26.069300 42.610420
v -10.109699 -25.909300 41.490421
v -10.349699 -25.789301 41.210419
v -10.369699 -25.649300 41.150421
v -10.589699 -25.589300 40.990421
v -10.709700 -25.409300 40.870419
v -10.409700 -25.429300 40.970421
v -10.169699 -25.589300 41.150421
v -9.909700 -25.689301 41.370419
v -7.689699 -25.329300 40.630421
v -9.069700 -25.689301 41.310421
v -9.249701 -25.829300 42.530422
v -9.029699 -25.669300 43.750420
v -8.589699 -25.169300 44.950420
v -9.089699 -25.469299 44.390419
v -9.249701 -25.169300 45.010422
v -8.689699 -24.989300 45.190422
v -7.989700 -24.989300 45.130421
v -8.329700 -24.129299 46.010422
v -9.589699 -24.569300 45.690422
v -9.369699 -24.989300 45.250420
v -9.309700 -25.089300 45.130421
v -7.289700 -24.989300 45.050419
v -7.129700 -24.129299 45.890419
v -8.149700 -23.449301 46.270420
v -8.809700 -23.449301 46.350422
v -7.529699 -23.449301 46.210419
v -6.929699 -23.449301 46.170422
v -6.529699 -20.549299 46.170422
v -6.389700 -23.449301 46.110420
v -5.869699 -23.449301 46.070419
v -5.789700 -20.549299 46.110420
v -5.129700 -20.549299 46.070419
v -4.769699 -20.549299 46.030422
v -6.889700 -20.549299 44.710419
v -6.129700 -20.549299 44.650421
v -6.829700 -22.009300 44.670422
v -6.769699 -23.449301 44.650421
v -5.049700 -24.169300 43.210419
v -5.789700 -23.449301 44.570419
v -5.009699 -23.449301 44.510422
v -4.389700 -23.449301 44.470421
v -4.089699 -24.309299 42.410419
v -4.989700 -20.549299 43.130421
v -6.329700 -20.549299 43.210419
v -8.269699 -20.549299 44.830421
v -8.269699 -21.989300 44.810421
v -8.249701 -23.449301 44.790421
v -8.729700 -23.449301 44.830421
v -9.489700 -24.289301 42.070419
v -8.029699 -24.289301 41.930420
v -6.549700 -24.169300 43.350422
v -6.749701 -24.289301 41.810421
v -5.529699 -24.309299 42.490421
v -5.589699 -24.289301 41.730419
v -4.529699 -24.289301 41.650421
v -5.309700 -21.309299 41.650421
v -4.469700 -22.429300 41.610420
v -4.429699 -21.309299 41.590420
v -5.409700 -20.549299 41.650421
v -6.289700 -20.549299 41.710419
v -6.429699 -21.309299 41.730419
v -7.129700 -20.549299 41.790421
v -7.829700 -21.309299 41.870419
v -8.329700 -20.549299 41.890419
v -9.529699 -21.309299 42.030422
v -9.549700 -20.549299 42.010422
v -9.689699 -19.649300 41.790421
v -11.129700 -19.649300 42.850422
v -10.909700 -19.649300 44.090420
v -11.129700 -20.109301 42.850422
v -10.909700 -20.109301 44.090420
v -10.169699 -20.109301 44.510422
v -10.929699 -21.789301 44.090420
v -10.929699 -23.089300 44.090420
v -10.209700 -23.089300 44.510422
v -10.949699 -23.089300 45.810421
v -10.949699 -21.789301 45.830421
v -11.689699 -20.109301 45.430420
v -11.689699 -23.089300 45.390419
v -12.929699 -23.089300 45.830421
v -12.929699 -20.109301 45.850422
v -14.189699 -23.089300 45.390419
v -14.189699 -21.789301 45.410419
v -14.189699 -20.109301 45.430420
v -12.929699 -19.649300 45.850422
v -14.189699 -19.649300 45.430420
v -14.909700 -19.649300 45.850422
v -15.109699 -19.649300 45.650421
v -14.909700 -20.109301 45.850422
v -15.689699 -20.109301 44.510422
v -15.389700 -19.649300 45.230419
v -15.689699 -19.649300 44.510422
v -15.669699 -19.649300 46.470421
v -16.749701 -19.649300 43.810421
v -15.089699 -19.649300 44.150421
v -15.089699 -19.649300 42.530422
v -15.829700 -19.649300 41.310421
v -15.189699 -19.649300 40.730419
v -15.809700 -20.849300 41.330421
v -13.509699 -19.649300 40.030422
v -13.509699 -20.849300 40.050419
v -12.049700 -19.649300 40.090420
v -10.909700 -19.649300 40.550419
v -10.929699 -20.829300 40.590420
v -10.909700 -19.809299 40.570419
v -10.849699 -20.269300 40.610420
v -10.849699 -20.069300 40.590420
v -10.789700 -20.529301 40.630421
v -10.909700 -24.729300 40.690422
v -10.009699 -24.729300 40.630421
v -8.829700 -20.549299 40.430420
v -10.089699 -20.549299 41.230419
v -9.209700 -24.729300 40.550419
v -10.529699 -25.329300 40.890419
v -8.449699 -24.729300 40.470421
v -7.749701 -24.729300 40.410419
v -7.069700 -24.729300 40.350422
v -6.429699 -24.729300 40.290421
v -5.829700 -24.729300 40.250420
v -5.229700 -24.729300 40.210419
v -4.849699 -25.329300 40.410419
v -4.669699 -24.729300 40.170422
v -4.109699 -24.729300 40.150421
v -3.509699 -24.729300 40.130421
v -2.869699 -24.729300 40.130421
v -2.229700 -24.729300 40.150421
v -1.969700 -25.329300 40.390419
v -1.629700 -24.729300 40.210419
v -1.089700 -24.729300 40.250420
v -0.549700 -24.729300 40.310421
v -0.009700 -24.729300 40.390419
v 0.570300 -24.729300 40.450420
v 0.850301 -25.329300 40.710419
v 1.170300 -24.729300 40.530422
v 1.830300 -24.729300 40.610420
v 2.570300 -24.729300 40.690422
v 3.390261 -24.729300 40.790421
v 3.670260 -25.329300 41.050419
v 4.350261 -24.729300 40.910419
v 5.410260 -24.729300 41.050419
v 6.470261 -25.329300 41.390419
v 6.630260 -24.729300 41.190422
v 8.010261 -24.729300 41.370419
v 9.290260 -25.329300 41.750420
v 9.590261 -24.729300 41.550419
v 11.350261 -24.729300 41.770420
v 12.090261 -25.329300 42.090420
v 13.350261 -24.729300 42.010422
v 14.910260 -25.329300 42.430420
v 15.510261 -24.729300 42.290421
v 17.590260 -24.729300 42.530422
v 17.710260 -25.329300 42.770420
v 19.450260 -24.729300 42.770420
v 20.510262 -25.329300 43.130421
v 21.090260 -24.729300 42.970421
v 22.570259 -24.729300 43.150421
v 23.330299 -25.329300 43.470421
v 23.870300 -24.729300 43.310421
v 25.070301 -24.729300 43.450420
v 26.170300 -24.729300 43.590420
v 26.130301 -25.329300 43.810421
v 23.630301 -25.689301 44.050419
v 22.210260 -25.689301 43.870419
v 20.590260 -25.689301 43.670422
v 20.650261 -25.169300 47.390419
v 19.010262 -25.169300 47.190422
v 18.790260 -25.689301 43.450420
v 17.050261 -25.169300 46.950420
v 16.750259 -25.689301 43.210419
v 14.890261 -25.169300 46.690422
v 14.490260 -25.689301 42.930420
v 12.670260 -25.169300 46.410419
v 12.250260 -25.689301 42.650421
v 10.550261 -25.169300 46.150421
v 10.270260 -25.689301 42.410419
v 8.710260 -25.169300 45.930420
v 8.530260 -25.689301 42.190422
v 7.190260 -25.169300 45.750420
v 6.990261 -25.689301 42.010422
v 5.870260 -25.169300 45.590420
v 5.650260 -25.689301 41.850422
v 4.830260 -25.169300 45.450420
v 4.470261 -25.689301 41.690422
v 3.990260 -25.169300 45.350422
v 3.350261 -25.169300 45.270420
v 3.450260 -25.689301 41.570419
v 2.770261 -25.169300 45.210419
v 2.190300 -25.169300 45.130421
v 2.530300 -25.689301 41.470421
v 1.650300 -25.169300 45.070419
v 1.750300 -25.689301 41.370419
v 1.130301 -25.169300 45.010422
v 0.690300 -25.169300 44.950420
v 1.050301 -25.689301 41.270420
v 0.330300 -25.169300 44.910419
v 0.010301 -25.169300 44.870419
v 0.410300 -25.689301 41.210419
v -0.309700 -25.169300 44.830421
v -0.189699 -25.689301 41.130421
v -0.629700 -25.169300 44.790421
v -0.929700 -25.169300 44.750420
v -0.769700 -25.689301 41.070419
v -1.249700 -25.169300 44.710419
v -1.569699 -25.169300 44.690422
v -1.309700 -25.689301 41.010422
v -1.909699 -25.169300 44.650421
v -1.869699 -25.689301 40.950420
v -2.209700 -25.169300 44.630421
v -2.469700 -25.169300 44.610420
v -2.469700 -25.689301 40.910419
v -2.689699 -25.169300 44.590420
v -2.929700 -25.169300 44.570419
v -3.129700 -25.689301 40.890419
v -3.169700 -25.169300 44.570419
v -3.409700 -25.169300 44.570419
v -3.629700 -25.169300 44.570419
v -3.749701 -25.689301 40.890419
v -3.809700 -25.169300 44.590420
v -3.949699 -25.169300 44.590420
v -4.089699 -25.169300 44.590420
v -4.329700 -25.689301 40.910419
v -4.209700 -25.169300 44.590420
v -4.349699 -25.169300 44.610420
v -4.529699 -25.169300 44.610420
v -4.909700 -25.689301 40.950420
v -4.729700 -25.169300 44.630421
v -4.969700 -25.169300 44.650421
v -5.509699 -25.689301 40.990421
v -5.289700 -25.169300 44.670422
v -5.689699 -25.169300 44.690422
v -6.149700 -25.689301 41.050419
v -6.169699 -25.169300 44.730419
v -6.809700 -25.689301 41.090420
v -6.649700 -25.169300 44.770420
v -7.529699 -25.689301 41.150421
v -7.189699 -25.169300 44.830421
v -7.869699 -25.169300 44.890419
v -8.269699 -25.689301 41.230419
v -6.709700 -24.989300 45.010422
v -6.229700 -24.989300 44.970421
v -6.229700 -24.129299 45.810421
v -5.769699 -24.989300 44.930420
v -5.529699 -24.129299 45.750420
v -5.389700 -23.449301 46.030422
v -4.989700 -24.129299 45.710419
v -5.329700 -24.989300 44.890419
v -5.009699 -24.989300 44.870419
v -4.749701 -24.989300 44.850422
v -4.569700 -24.129299 45.690422
v -4.949699 -23.449301 45.990421
v -4.529699 -23.449301 45.970421
v -4.509699 -20.549299 46.030422
v -4.589699 -20.549299 44.530422
v -3.869699 -20.549299 45.990421
v -3.809700 -20.549299 44.490421
v -3.909700 -23.449301 44.450420
v -3.509699 -23.449301 44.430420
v -3.149699 -24.289301 41.610420
v -4.889700 -20.549299 43.050419
v -3.129700 -22.429300 41.590420
v -2.809700 -24.289301 41.630421
v -3.129700 -21.309299 41.570419
v -2.469700 -21.309299 41.590420
v -2.469700 -22.429300 41.610420
v -2.469700 -24.289301 41.630421
v -1.889700 -24.309299 42.450420
v -2.369699 -23.449301 44.470421
v -2.729700 -23.449301 44.450420
v -2.689699 -20.549299 44.510422
v -2.069699 -20.549299 44.550419
v -1.989699 -23.449301 44.510422
v -1.149699 -20.549299 44.630421
v -1.549700 -23.449301 44.550419
v -1.309700 -24.169300 43.270420
v -1.429700 -20.549299 43.050419
v -2.469700 -20.549299 41.570419
v -2.789700 -20.549299 41.550419
v -3.109699 -20.549299 41.550419
v -2.929700 -20.549299 40.050419
v -3.749701 -20.549299 40.070419
v -4.389700 -20.549299 41.590420
v -6.129700 -20.549299 43.050419
v -4.589699 -20.549299 40.090420
v -5.409700 -20.549299 40.150421
v -7.089699 -20.549299 40.290421
v -2.109699 -20.549299 40.090420
v -1.429700 -20.549299 41.650421
v -1.289700 -20.549299 40.170422
v -0.549700 -20.549299 41.750420
v -1.409699 -21.309299 41.670422
v -0.469700 -20.549299 43.050419
v -1.389700 -22.429300 41.690422
v -0.429700 -21.309299 41.770420
v -1.349700 -24.289301 41.730419
v -0.229700 -24.289301 41.850422
v 0.850301 -21.309299 41.930420
v 1.110300 -24.289301 42.010422
v 2.510301 -21.309299 42.130421
v 2.670260 -24.289301 42.210419
v 4.430261 -24.289301 42.430420
v 4.490260 -22.429300 42.390419
v 3.730261 -20.549299 43.050419
v 4.510261 -21.309299 42.390419
v 4.550261 -20.549299 42.370419
v 3.250260 -20.549299 42.210419
v 1.970301 -20.549299 42.050419
v 2.690260 -20.549299 40.630421
v 1.090301 -20.549299 40.450420
v 0.390301 -20.549299 41.870419
v -0.489699 -20.549299 40.250420
v 4.590261 -20.549299 40.870419
v 4.970261 -20.549299 43.050419
v 5.630260 -20.549299 42.510422
v 6.270260 -20.549299 42.590420
v 6.270260 -21.309299 42.590420
v 5.610260 -21.309299 42.510422
v 6.270260 -24.289301 42.650421
v 6.590261 -20.549299 43.050419
v 7.470261 -24.169300 44.350422
v 7.030261 -23.449301 45.590420
v 5.590261 -23.449301 45.410419
v 5.590261 -24.289301 42.570419
v 4.150260 -23.449301 45.230419
v 3.970261 -24.169300 43.930420
v 2.630301 -23.449301 45.050419
v 3.950260 -20.549299 45.250420
v 5.350260 -20.549299 45.430420
v 6.010261 -20.549299 46.030422
v 6.830260 -20.549299 45.610420
v 8.750260 -20.549299 46.030422
v 8.430260 -20.549299 47.310421
v 10.230261 -20.549299 47.530422
v 9.730261 -23.449301 47.430420
v 8.150261 -23.449301 47.230419
v 6.730260 -20.549299 47.110420
v 6.790260 -23.449301 47.070419
v 5.570261 -23.449301 46.910419
v 5.230260 -20.549299 46.930420
v 4.490260 -23.449301 46.790421
v 3.950260 -20.549299 46.770420
v 3.530260 -23.449301 46.670422
v 2.790260 -20.549299 46.630421
v 2.670260 -23.449301 46.550419
v 1.790300 -20.549299 46.510422
v 1.910300 -23.449301 46.470421
v 1.250300 -23.449301 46.390419
v 0.910300 -20.549299 46.390419
v 0.650300 -23.449301 46.310421
v 0.110300 -20.549299 46.290421
v 0.090301 -23.449301 46.250420
v -0.589700 -20.549299 46.210419
v -0.409699 -23.449301 46.190422
v -0.889700 -23.449301 46.130421
v -1.249700 -20.549299 46.130421
v -1.329700 -23.449301 46.070419
v -1.849700 -20.549299 46.070419
v -1.769700 -23.449301 46.030422
v -2.189699 -23.449301 45.990421
v -2.169700 -20.549299 46.030422
v -2.489699 -20.549299 46.010422
v -2.629700 -23.449301 45.950420
v -2.829700 -20.549299 45.990421
v -3.149699 -23.449301 45.930420
v -3.169700 -20.549299 45.990421
v -3.529699 -20.549299 45.990421
v -3.649700 -23.449301 45.930420
v -4.109699 -23.449301 45.950420
v -3.669699 -24.129299 45.650421
v -3.949699 -24.129299 45.650421
v -3.829700 -24.989300 44.810421
v -3.969700 -24.989300 44.810421
v -4.089699 -24.989300 44.810421
v -4.229700 -24.129299 45.670422
v -4.229700 -24.989300 44.810421
v -4.369699 -24.989300 44.830421
v -4.549700 -24.989300 44.830421
v -3.649700 -24.989300 44.790421
v -3.429699 -24.989300 44.790421
v -3.349699 -24.129299 45.650421
v -3.209700 -24.989300 44.790421
v -2.969700 -24.989300 44.810421
v -2.909699 -24.129299 45.650421
v -2.729700 -24.989300 44.810421
v -2.509700 -24.989300 44.830421
v -2.349700 -24.129299 45.690422
v -2.269700 -24.989300 44.830421
v -1.969700 -24.989300 44.870419
v -1.869699 -24.129299 45.730419
v -1.629700 -24.989300 44.890419
v -1.409699 -24.129299 45.770420
v -1.309700 -24.989300 44.930420
v -0.989699 -24.989300 44.970421
v -0.849700 -24.129299 45.830421
v -0.689699 -24.989300 45.010422
v -0.369699 -24.989300 45.050419
v -0.049700 -24.989300 45.090420
v -0.109699 -24.129299 45.930420
v 0.270300 -24.989300 45.130421
v 0.630301 -24.989300 45.170422
v 0.830300 -24.129299 46.050419
v 1.070300 -24.989300 45.210419
v 1.590301 -24.989300 45.290421
v 1.970301 -24.129299 46.190422
v 2.130301 -24.989300 45.350422
v 2.710260 -24.989300 45.410419
v 3.290260 -24.989300 45.490421
v 3.310261 -24.129299 46.350422
v 3.930261 -24.989300 45.570419
v 4.750260 -24.989300 45.670422
v 4.950260 -24.129299 46.550419
v 5.790260 -24.989300 45.790421
v 6.910260 -24.129299 46.790421
v 7.110260 -24.989300 45.950420
v 8.630260 -24.989300 46.150421
v 9.290260 -24.129299 47.090420
v 10.470261 -24.989300 46.370419
v 12.150260 -24.129299 47.430420
v 11.590261 -23.449301 47.650421
v 13.730261 -23.449301 47.910419
v 12.030260 -20.549299 47.750420
v 11.330260 -20.549299 46.170422
v 13.770260 -20.549299 47.970421
v 14.150260 -20.549299 46.510422
v 11.370260 -21.989300 46.150421
v 11.410260 -23.449301 46.130421
v 11.470261 -20.549299 46.030422
v 12.750260 -24.169300 45.010422
v 14.170260 -23.449301 46.470421
v 14.370260 -24.289301 43.650421
v 12.870260 -20.549299 44.870419
v 14.390261 -21.309299 43.590420
v 15.050261 -24.289301 43.730419
v 15.050261 -21.309299 43.670422
v 16.250259 -24.169300 45.430420
v 15.050261 -20.549299 43.670422
v 14.410260 -20.549299 43.590420
v 14.930261 -20.549299 43.050419
v 12.490261 -20.549299 43.050419
v 12.790260 -20.549299 41.870419
v 11.070260 -20.549299 41.670422
v 10.030260 -20.549299 43.050419
v 11.630260 -20.549299 43.250420
v 13.310261 -20.549299 43.450420
v 13.290260 -21.309299 43.450420
v 11.250260 -21.309299 43.210419
v 13.270261 -22.429300 43.470421
v 13.210260 -24.289301 43.510422
v 11.790260 -20.549299 44.750420
v 11.570260 -24.149300 44.870419
v 11.590261 -24.289301 43.310421
v 10.270260 -23.449301 45.990421
v 10.090261 -24.289301 43.110420
v 9.590261 -23.449301 45.910419
v 10.250260 -20.549299 46.030422
v 9.590261 -20.549299 45.950420
v 8.590261 -20.549299 44.490421
v 8.630260 -24.149300 44.510422
v 7.430260 -24.289301 42.790421
v 9.250260 -21.309299 42.970421
v 7.330260 -20.549299 42.710419
v 7.350260 -21.309299 42.730419
v 7.370260 -22.429300 42.750420
v 7.570261 -20.549299 43.050419
v 7.570261 -20.549299 44.430420
v 8.530260 -20.549299 45.830421
v 8.490261 -21.989300 45.790421
v 8.470261 -23.449301 45.770420
v 6.830260 -20.549299 41.150421
v 9.550261 -20.549299 41.470421
v 15.190260 -20.549299 42.170422
v 17.390261 -20.549299 43.050419
v 16.110260 -20.549299 43.790421
v 17.830261 -20.549299 44.010422
v 16.130260 -21.309299 43.810421
v 17.690260 -20.549299 46.030422
v 16.210260 -24.289301 43.870419
v 17.810261 -24.289301 44.070419
v 18.170261 -21.309299 44.050419
v 19.310261 -24.289301 44.250420
v 20.150261 -21.309299 44.310421
v 21.990261 -24.289301 44.570419
v 22.050261 -22.429300 44.550419
v 20.570261 -20.549299 45.810421
v 22.070259 -21.309299 44.530422
v 22.090260 -20.549299 44.530422
v 19.310261 -20.549299 44.190422
v 19.850260 -20.549299 43.050419
v 18.010262 -20.549299 42.510422
v 19.570261 -20.549299 42.710419
v 21.130260 -20.549299 42.910419
v 22.350262 -20.549299 43.050419
v 23.190300 -20.549299 44.670422
v 21.650261 -20.549299 45.950420
v 23.170300 -21.309299 44.670422
v 23.150299 -24.289301 44.730419
v 23.830299 -24.289301 44.810421
v 23.830299 -21.309299 44.750420
v 24.730301 -20.549299 46.030422
v 23.830299 -20.549299 44.730419
v 23.930302 -20.549299 43.250420
v 24.890301 -20.549299 44.870419
v 25.430302 -20.549299 44.930420
v 24.910301 -21.309299 44.890419
v 25.710300 -20.549299 46.030422
v 24.930302 -22.429300 44.910419
v 24.990299 -24.289301 44.950420
v 26.290300 -24.289301 45.110420
v 26.170300 -24.149300 46.650421
v 27.290300 -24.309299 46.010422
v 27.150299 -23.449301 48.050419
v 27.250301 -24.049299 47.070419
v 27.490299 -23.449301 48.090420
v 27.150299 -20.549299 48.110420
v 27.810301 -20.549299 48.190422
v 27.850300 -23.469299 48.110420
v 29.430300 -20.549299 46.830421
v 29.190300 -24.109301 46.990421
v 30.370300 -20.549299 46.030422
v 30.910301 -24.129299 45.530422
v 29.150301 -24.249300 45.430420
v 29.670300 -21.309299 45.430420
v 28.250301 -21.309299 45.290421
v 27.530300 -24.289301 45.250420
v 26.670300 -21.309299 45.110420
v 27.770300 -20.549299 45.230419
v 25.950300 -20.549299 45.010422
v 26.030300 -20.549299 44.650421
v 26.090302 -20.549299 44.270420
v 26.210300 -20.549299 43.530422
v 28.750299 -20.529301 44.930420
v 28.090302 -20.549299 43.750420
v 27.910301 -24.729300 43.810421
v 29.270300 -24.689301 43.950420
v 28.970301 -25.369301 44.190422
v 31.130301 -24.589300 44.050419
v 31.790300 -25.169300 44.290421
v 32.390301 -24.449301 43.990421
v 33.430298 -24.289301 43.810421
v 34.490303 -24.669300 43.750420
v 34.370300 -24.069300 43.530422
v 35.190300 -23.869301 43.170422
v 36.090302 -23.589300 42.650421
v 36.830299 -23.909300 42.430420
v 37.170300 -23.209299 41.910419
v 38.530300 -22.629299 40.770420
v 38.890301 -23.009300 40.690422
v 40.310303 -21.749300 39.010422
v 40.730301 -21.989300 38.790421
v 41.270302 -21.209299 37.950420
v 42.290298 -20.609301 36.790421
v 42.490303 -20.949301 36.790421
v 41.610298 -21.829300 38.370419
v 40.470299 -22.489300 39.630421
v 42.370300 -22.669300 42.450420
v 43.270302 -22.209299 41.390419
v 44.210300 -21.709299 40.270420
v 42.790298 -21.089300 36.990421
v 43.850300 -21.089300 37.830421
v 43.750298 -20.649300 35.850422
v 44.730301 -20.509300 34.690422
v 47.130299 -20.509300 36.690422
v 46.210300 -20.629299 37.810421
v 47.250301 -20.509300 36.850422
v 45.310299 -21.049299 38.910419
v 45.450302 -21.029301 39.150421
v 47.290302 -20.509300 37.050419
v 45.470299 -21.029301 39.410419
v 47.290302 -20.509300 37.230419
v 47.270302 -20.509300 37.410419
v 46.330299 -20.629299 38.570419
v 46.710300 -20.509300 40.050419
v 45.490299 -20.629299 41.710419
v 46.970299 -20.349300 40.270420
v 47.170300 -20.349300 40.030422
v 47.270302 -20.009300 40.150421
v 47.090302 -20.009300 40.370419
v 44.450302 -20.609301 43.330421
v 44.470299 -20.809299 43.230419
v 43.370300 -21.089300 44.450420
v 44.390301 -20.969299 43.090420
v 43.530300 -21.389299 44.010422
v 43.890301 -21.889299 41.490421
v 42.510300 -22.549299 43.050419
v 42.190300 -21.929300 45.330421
v 40.910301 -23.209299 44.750420
v 40.490303 -22.489300 46.830421
v 39.470299 -23.649300 46.070419
v 39.050301 -22.869301 47.890419
v 37.350300 -24.149300 47.610420
v 36.750298 -23.289301 49.130421
v 35.150299 -24.469299 48.510422
v 34.650299 -23.569300 49.690422
v 33.370300 -23.729300 49.790421
v 32.410301 -24.769300 48.830421
v 31.610300 -23.909300 49.750420
v 30.590300 -24.889299 48.770420
v 29.930300 -24.029301 49.610420
v 28.930300 -24.949301 48.610420
v 27.650299 -24.109301 49.350422
v 27.310301 -24.989300 48.430420
v 25.290300 -24.129299 49.050419
v 25.410301 -25.049299 48.150421
v 22.470261 -24.129299 48.710419
v 23.850300 -23.449301 49.150421
v 22.290260 -23.449301 48.970421
v 20.510262 -23.449301 48.750420
v 19.950260 -24.129299 48.390419
v 22.170261 -24.989300 47.810421
v 20.610260 -24.989300 47.610420
v 18.950260 -24.989300 47.410419
v 17.690260 -24.129299 48.110420
v 16.990261 -24.989300 47.170422
v 15.650261 -24.129299 47.870419
v 14.810261 -24.989300 46.910419
v 13.830260 -24.129299 47.630421
v 12.570261 -24.989300 46.630421
v 16.110260 -23.449301 48.210419
v 15.330260 -20.549299 48.170422
v 16.730261 -20.549299 48.330421
v 15.690260 -20.549299 46.710419
v 15.670260 -23.449301 46.650421
v 17.250259 -23.449301 46.850422
v 16.710260 -20.549299 46.030422
v 17.310261 -20.549299 46.890419
v 17.970261 -20.549299 48.490421
v 18.450260 -23.449301 48.490421
v 19.110260 -20.549299 48.630421
v 18.370260 -20.549299 47.030422
v 19.030260 -20.549299 47.110420
v 18.370260 -23.449301 46.970421
v 19.030260 -23.449301 47.070419
v 20.290260 -20.549299 46.030422
v 20.350260 -24.149300 45.950420
v 21.530260 -20.549299 46.030422
v 20.110260 -20.549299 47.250420
v 21.530260 -24.169300 46.090420
v 20.150261 -21.989300 47.230419
v 21.610260 -20.549299 47.430420
v 20.190260 -23.449301 47.210419
v 21.930260 -23.449301 47.410419
v 22.990299 -20.549299 47.590420
v 23.350300 -23.449301 47.590420
v 25.450300 -20.549299 47.890419
v 24.690300 -23.449301 47.750420
v 25.030300 -24.169300 46.510422
v 26.010300 -23.449301 47.910419
v 26.050301 -21.989300 47.950420
v 25.770300 -20.549299 47.930420
v 26.090302 -20.549299 47.970421
v 27.030300 -20.549299 49.590420
v 26.630301 -20.549299 48.050419
v 28.750299 -20.529301 49.810421
v 28.530300 -20.549299 48.270420
v 29.790300 -20.529301 48.430420
v 30.390301 -20.509300 49.990421
v 30.970301 -20.489300 48.530422
v 31.930300 -20.469299 50.090420
v 32.110298 -20.449301 48.610420
v 33.430298 -20.409300 50.110420
v 33.250298 -20.389299 48.610420
v 34.890301 -20.329300 49.950420
v 34.330299 -20.329300 48.530422
v 36.310303 -20.209299 49.610420
v 35.310303 -20.249300 48.350422
v 36.210300 -20.149300 48.050419
v 37.650299 -20.049299 49.030422
v 35.830299 -20.109301 46.710419
v 34.950302 -20.209299 46.990421
v 36.170300 -21.509300 48.030422
v 36.130302 -22.869301 48.030422
v 35.150299 -23.009300 48.330421
v 34.590302 -23.569300 46.730419
v 34.030300 -23.129299 48.510422
v 33.010300 -23.869301 45.410419
v 32.670300 -23.909300 45.450420
v 32.830299 -23.249300 48.570419
v 32.310303 -23.969299 45.490421
v 31.570301 -23.329300 48.530422
v 30.370300 -24.049299 47.110420
v 30.610300 -20.549299 46.870419
v 28.890301 -20.549299 48.310421
v 28.930300 -21.989300 48.290421
v 28.970301 -23.429300 48.270420
v 30.310301 -23.389299 48.430420
v 28.350300 -20.549299 48.250420
v 31.610300 -20.549299 46.030422
v 31.050301 -20.549299 45.470421
v 31.010300 -21.309299 45.490421
v 29.550301 -20.509300 45.390419
v 30.970301 -22.329300 45.490421
v 31.270300 -20.449301 45.470421
v 31.370300 -20.429300 44.890419
v 32.130302 -20.389299 45.430420
v 32.970299 -20.329300 45.350422
v 33.970299 -20.209299 45.150421
v 33.830299 -20.189301 44.390419
v 34.930298 -20.089300 44.830421
v 34.010300 -21.309299 45.150421
v 35.410301 -20.129299 46.350422
v 34.030300 -21.929300 45.150421
v 34.070301 -23.669300 45.170422
v 34.990303 -23.449301 44.870419
v 35.510300 -23.389299 46.390419
v 35.910301 -23.189301 44.470421
v 35.350300 -21.309299 44.690422
v 36.650299 -21.309299 44.030422
v 35.890301 -19.929300 44.410419
v 36.890301 -19.709299 43.850422
v 36.110298 -19.789301 43.430420
v 33.950302 -20.109301 43.590420
v 32.590302 -20.289301 43.890419
v 31.190300 -20.409300 43.970421
v 35.050301 -19.909300 43.150421
v 36.150299 -19.649300 42.550419
v 38.190300 -19.229300 42.130421
v 37.950302 -19.429300 43.110420
v 38.810303 -19.169300 42.410419
v 39.070301 -19.089300 42.210419
v 39.310303 -18.989300 41.990421
v 39.890301 -18.769300 41.450420
v 40.090302 -18.529301 40.610420
v 38.070301 -19.049299 41.090420
v 37.130302 -19.369301 41.850422
v 38.650299 -18.829300 40.570419
v 38.890301 -19.049299 40.350422
v 39.250298 -18.569300 40.010422
v 39.710300 -19.049299 39.550419
v 40.270302 -18.169300 39.010422
v 41.310303 -18.189301 40.030422
v 40.990303 -18.309299 40.350422
v 42.350300 -18.309299 38.910419
v 42.150299 -17.929300 39.130421
v 43.810303 -18.309299 37.270420
v 43.810303 -17.629299 37.250420
v 41.310303 -17.869301 37.910419
v 40.550301 -19.049299 38.670422
v 41.410301 -19.049299 37.750420
v 42.350300 -17.669300 36.730419
v 43.170300 -19.049299 35.750420
v 43.310303 -20.169300 35.610420
v 45.030300 -19.049299 33.530422
v 44.350300 -20.009300 34.370419
v 45.370300 -20.009300 33.130421
v 47.010300 -19.049299 31.090420
v 46.510300 -20.009300 31.750420
v 47.270302 -20.009300 30.810421
v 49.150299 -19.049299 28.470421
v 47.770302 -20.009300 30.190420
v 49.170300 -20.009300 28.470421
v 49.270302 -20.349300 28.570421
v 49.950302 -20.349300 27.970421
v 50.130299 -20.509300 28.270420
v 49.830299 -20.509300 28.510420
v 49.550301 -20.509300 28.790421
v 47.390301 -20.349300 30.890421
v 48.170300 -20.509300 30.510420
v 47.650299 -20.509300 31.130421
v 45.510300 -20.349300 33.210419
v 46.890301 -20.509300 32.070423
v 45.710300 -20.509300 33.510422
v 44.470299 -20.349300 34.470421
v 47.730301 -20.509300 33.650421
v 47.730301 -20.509300 36.230419
v 50.710300 -20.509300 35.210419
v 49.250301 -20.509300 37.010422
v 50.990299 -20.349300 35.430420
v 52.890301 -20.349300 33.110420
v 52.990299 -20.009300 33.190422
v 51.210300 -20.009300 35.390419
v 51.110302 -20.009300 35.530422
v 49.090302 -20.349300 37.730419
v 49.630299 -20.009300 37.310421
v 49.190300 -20.009300 37.850422
v 46.890301 -20.509300 39.830421
v 47.710300 -20.509300 38.850422
v 47.890301 -20.509300 38.650421
v 48.810299 -20.509300 37.550419
v 47.030300 -20.509300 38.570419
v 49.130299 -19.049299 37.970421
v 48.270302 -20.009300 38.970421
v 47.330299 -19.049299 40.110420
v 45.630299 -19.049299 42.070419
v 46.050301 -17.809299 41.550419
v 47.790302 -17.609301 39.390419
v 45.950302 -17.809299 41.470421
v 45.810299 -17.669300 39.610420
v 44.870300 -17.829300 40.710419
v 44.130302 -18.029301 41.530422
v 43.910301 -18.089300 41.770420
v 43.690300 -18.169300 42.010422
v 44.150299 -18.389299 43.490421
v 41.790298 -18.429300 41.650421
v 43.650299 -20.649300 41.990421
v 41.750298 -21.129299 41.630421
v 40.110298 -21.509300 41.310421
v 40.110298 -21.309299 41.310421
v 40.030300 -18.729300 41.310421
v 41.090302 -18.749300 42.330421
v 39.670300 -18.909300 41.650421
v 40.250298 -18.629299 41.090420
v 40.470299 -18.529301 40.870419
v 40.470299 -21.309299 40.950420
v 41.030300 -21.009300 40.390419
v 39.850300 -18.549299 40.430420
v 41.950302 -20.469299 39.410419
v 43.870300 -20.529301 41.750420
v 44.090302 -20.429300 41.490421
v 42.870300 -19.929300 38.390419
v 43.790298 -19.329300 37.310421
v 43.950302 -19.929300 39.310421
v 43.950302 -17.749300 39.210419
v 43.970299 -17.769300 39.410419
v 44.710300 -17.669300 38.550419
v 44.750301 -19.629299 39.090420
v 44.650299 -19.229300 37.670422
v 44.690300 -17.649300 38.370419
v 44.610298 -19.089300 37.070419
v 46.350300 -19.189301 38.950420
v 46.670300 -19.049299 38.550419
v 44.550301 -19.009300 36.410419
v 47.030300 -19.009300 38.150421
v 44.630302 -19.009300 36.330421
v 44.550301 -18.849300 36.410419
v 44.550301 -18.309299 36.410419
v 44.490303 -17.609301 36.470421
v 43.930298 -17.609301 35.990421
v 44.750301 -17.609301 36.150421
v 44.970299 -17.609301 35.890419
v 43.410301 -17.609301 35.510422
v 46.390301 -17.609301 35.110420
v 45.630299 -17.609301 35.110420
v 45.650299 -18.149300 35.090420
v 45.690300 -19.009300 35.090420
v 48.750301 -19.009300 35.090420
v 48.750301 -19.009300 33.210419
v 45.770302 -19.009300 34.990421
v 46.070301 -19.009300 34.610420
v 46.050301 -17.869301 34.610420
v 46.050301 -17.609301 34.610420
v 46.390301 -17.609301 34.170422
v 44.830299 -17.609301 33.830421
v 46.250301 -17.609301 32.090420
v 46.390301 -17.609301 31.910419
v 47.910301 -17.609301 32.310421
v 49.390301 -17.609301 30.510420
v 47.710300 -17.609301 30.310421
v 49.390301 -17.609301 28.270420
v 49.170300 -17.609301 28.490421
v 49.470299 -19.049299 28.130421
v 49.510300 -17.609301 28.150421
v 49.850300 -19.049299 27.850420
v 49.870300 -18.309299 27.850420
v 49.890301 -17.609301 27.850420
v 50.410301 -19.049299 27.690420
v 50.450302 -17.609301 27.710421
v 50.990299 -17.609301 27.890421
v 50.970299 -18.309299 27.870420
v 50.970299 -19.069300 27.870420
v 50.430302 -20.009300 27.690420
v 50.970299 -19.509300 27.870420
v 50.970299 -20.009300 27.870420
v 50.890301 -20.349300 27.990421
v 52.450302 -20.249300 28.970421
v 51.810299 -20.409300 28.710421
v 51.270302 -20.509300 28.690420
v 50.690300 -20.509300 28.270420
v 50.430302 -20.349300 27.830420
v 50.410301 -20.509300 28.190420
v 49.870300 -20.009300 27.850420
v 49.490299 -20.009300 28.130421
v 49.850300 -19.529301 27.850420
v 50.670300 -20.509300 28.870420
v 50.290302 -21.289301 29.170420
v 50.210300 -20.509300 29.230421
v 49.790302 -20.509300 30.350420
v 49.790302 -21.289301 30.350420
v 50.290302 -21.289301 31.530420
v 49.930302 -20.509300 31.010420
v 50.310299 -20.509300 31.550421
v 50.670300 -20.509300 31.830420
v 50.730301 -20.509300 33.450420
v 52.610302 -20.509300 32.890419
v 50.830299 -20.509300 35.090420
v 53.070301 -20.349300 32.570423
v 52.690300 -20.509300 32.730423
v 52.730301 -20.509300 32.570423
v 53.030300 -20.409300 31.010420
v 53.150299 -20.249300 30.350420
v 53.210300 -20.129299 30.350420
v 53.210300 -20.009300 30.350420
v 53.210300 -20.009300 32.570423
v 53.170300 -20.009300 32.910419
v 52.990299 -19.529301 33.210419
v 52.990299 -19.049299 33.230419
v 51.010300 -19.049299 35.670422
v 51.630299 -17.609301 34.830421
v 52.370300 -17.609301 33.930420
v 52.990299 -18.369301 33.190422
v 53.170300 -19.049299 32.930420
v 52.990299 -17.609301 33.170422
v 53.170300 -17.609301 32.870419
v 53.210300 -17.609301 32.530422
v 53.210300 -18.369301 32.570423
v 53.210300 -19.069300 32.590420
v 53.150299 -17.609301 30.350420
v 53.210300 -19.529301 32.590420
v 52.770302 -17.609301 31.430420
v 52.430302 -17.609301 31.730421
v 52.650299 -16.809299 31.530420
v 51.470299 -16.809299 32.030422
v 51.790302 -17.609301 32.010422
v 51.770302 -18.309299 32.010422
v 51.750301 -19.009300 32.030422
v 51.070301 -19.009300 31.990421
v 50.290302 -16.809299 31.530420
v 50.430302 -19.009300 31.690420
v 49.990299 -19.009300 31.170420
v 49.790302 -16.809299 30.350420
v 49.790302 -17.609301 30.410419
v 50.290302 -16.809299 29.170420
v 50.290302 -17.609301 29.150421
v 51.470299 -16.809299 28.670420
v 51.470299 -17.609301 28.670420
v 52.650299 -16.809299 29.170420
v 52.470299 -17.609301 28.930420
v 52.670300 -17.609301 29.150421
v 53.150299 -16.809299 30.350420
v 51.990299 -16.809299 30.850420
v 51.470299 -16.809299 31.070421
v 50.970299 -16.809299 30.850420
v 50.990299 -19.009300 30.850420
v 51.470299 -19.009300 31.050421
v 50.970299 -21.289301 30.850420
v 51.470299 -21.289301 31.070421
v 52.650299 -21.289301 31.530420
v 51.990299 -21.289301 30.850420
v 52.190300 -21.289301 30.350420
v 53.150299 -21.289301 30.350420
v 52.730301 -20.509300 31.470421
v 52.190300 -20.509300 31.870420
v 51.530300 -20.509300 32.030422
v 51.470299 -21.289301 32.030422
v 51.990299 -21.289301 29.850420
v 52.650299 -21.289301 29.170420
v 52.970299 -20.249300 29.570421
v 51.470299 -21.289301 28.670420
v 51.470299 -21.289301 29.630421
v 50.970299 -21.289301 29.850420
v 50.750301 -21.289301 30.350420
v 50.770302 -19.009300 30.350420
v 50.990299 -19.009300 29.850420
v 50.750301 -16.809299 30.350420
v 50.970299 -16.809299 29.850420
v 51.470299 -19.009300 29.650421
v 51.470299 -16.809299 29.630421
v 51.990299 -16.809299 29.850420
v 51.970299 -19.009300 29.850420
v 52.170300 -19.009300 30.350420
v 52.190300 -16.809299 30.350420
v 51.970299 -19.009300 30.850420
v 53.030300 -20.009300 29.550421
v 53.030300 -17.609301 29.550421
v 52.470299 -20.009300 28.930420
v 52.470299 -20.129299 28.930420
v 52.390301 -17.609301 28.850420
v 49.430302 -19.009300 30.510420
v 48.750301 -19.009300 31.350420
v 49.790302 -19.009300 30.510420
v 49.790302 -18.309299 30.490421
v 47.950302 -19.009300 32.350422
v 46.490299 -19.009300 34.130421
v 46.470299 -17.609301 34.090420
v 46.470299 -18.309299 34.110420
v 51.750301 -19.009300 32.370422
v 51.790302 -17.609301 32.390423
v 50.670300 -17.609301 33.750420
v 49.570301 -17.609301 35.110420
v 50.630299 -19.009300 33.750420
v 49.530300 -19.009300 35.090420
v 49.390301 -17.609301 35.110420
v 49.390301 -17.609301 37.590420
v 50.330299 -17.609301 36.450420
v 49.070301 -17.609301 37.970421
v 47.310299 -17.609301 38.950420
v 46.770302 -17.609301 38.490421
v 47.630299 -18.409300 37.430420
v 47.830299 -17.609301 37.230419
v 48.930302 -17.609301 35.890419
v 47.950302 -19.009300 37.030422
v 48.770302 -19.009300 36.030422
v 45.730301 -19.009300 37.090420
v 48.750301 -19.009300 35.910419
v 48.870300 -19.009300 35.910419
v 46.390301 -17.609301 35.890419
v 45.770302 -19.009300 35.910419
v 44.990299 -19.009300 35.910419
v 44.850300 -19.009300 36.090420
v 44.710300 -19.009300 36.250420
v 44.770302 -18.709299 36.170422
v 44.970299 -18.569300 35.910419
v 44.970299 -18.309299 35.910419
v 48.890301 -18.309299 35.910419
v 45.590302 -19.629299 39.810421
v 44.870300 -20.029301 40.630421
v 45.430302 -19.229300 38.290421
v 39.310303 -19.109301 41.990421
v 41.050301 -21.489300 42.350422
v 42.970299 -20.969299 42.710419
v 43.050301 -18.429300 42.710419
v 41.830299 -18.889299 43.930420
v 43.370300 -18.729300 44.490421
v 43.630302 -18.409300 43.130421
v 44.250298 -18.369301 43.570419
v 45.130299 -18.049299 42.570419
v 43.970299 -19.049299 43.870419
v 45.670300 -20.169300 41.990421
v 42.370300 -19.049299 45.490421
v 41.550301 -21.749300 46.210419
v 40.890301 -19.469299 46.830421
v 39.650299 -22.249300 47.750420
v 39.330299 -19.789301 48.030422
v 38.090302 -22.549299 48.750420
v 36.770302 -22.749300 49.390419
v 37.010300 -20.049299 47.690422
v 37.290298 -20.009300 47.530422
v 37.590302 -19.949301 47.370419
v 38.430298 -19.809299 46.830421
v 37.710300 -19.809299 45.830421
v 37.570301 -22.629299 47.330421
v 37.730301 -22.809299 45.350422
v 37.770302 -19.729300 45.230419
v 37.930298 -22.509300 43.210419
v 36.890301 -22.889299 43.910419
v 37.930298 -21.309299 43.170422
v 38.630302 -19.529301 44.630421
v 38.570301 -19.629299 45.350422
v 38.630302 -22.509300 44.790421
v 38.450302 -22.449301 46.750420
v 39.530300 -22.189301 45.950420
v 38.830299 -22.109301 42.470421
v 40.630302 -21.869301 45.010422
v 40.670300 -19.269300 45.050419
v 41.770302 -21.469299 43.930420
v 39.350300 -21.889299 42.030422
v 39.090302 -22.009300 42.250420
v 39.330299 -21.309299 42.010422
v 38.830299 -21.309299 42.450420
v 39.530300 -19.569300 46.010422
v 37.290298 -22.689301 47.490421
v 36.990303 -22.729300 47.650421
v 45.770302 -20.509300 35.510422
v 34.490303 -20.249300 46.610420
v 30.010300 -20.489300 43.930420
v 32.990303 -21.309299 45.370419
v 32.330299 -20.549299 45.430420
v 32.330299 -21.309299 45.430420
v 32.330299 -22.249300 45.450420
v 31.710300 -20.549299 45.470421
v 35.870300 -22.849300 49.690422
v 34.950302 -22.949301 49.890419
v 33.910301 -23.069300 50.030422
v 32.630302 -23.189301 50.070419
v 30.870300 -23.309299 49.990421
v 28.310301 -23.429300 49.710419
v 26.710300 -23.449301 49.510422
v 25.190300 -20.549299 49.370419
v 25.250301 -23.449301 49.330421
v 24.190300 -20.549299 49.250420
v 23.170300 -20.549299 49.130421
v 22.410259 -20.549299 49.030422
v 25.250301 -20.549299 49.030422
v 25.310301 -20.549299 48.630421
v 25.270300 -23.809299 49.250420
v 22.150261 -20.549299 49.010422
v 21.150261 -20.549299 48.870419
v 20.150261 -20.549299 48.750420
v 17.410259 -24.149300 45.570419
v 22.210260 -25.169300 47.590420
v 23.730301 -24.989300 48.010422
v 23.770300 -25.169300 47.790421
v 25.410301 -25.129299 48.050419
v 28.190300 -25.149300 48.310421
v 28.210300 -25.669300 44.610420
v 29.830301 -25.589300 44.730419
v 30.690300 -25.069300 48.510422
v 31.950300 -25.409300 44.750420
v 33.350300 -24.889299 48.470421
v 33.470299 -25.169300 44.530422
v 35.170300 -24.689301 48.150421
v 34.790298 -24.869301 44.110420
v 35.850300 -24.569300 43.610420
v 37.270302 -24.349300 47.210419
v 37.050301 -24.149300 42.830421
v 39.350300 -23.849300 45.590420
v 38.510300 -23.529301 41.610420
v 41.350300 -23.129299 43.590420
v 26.070301 -25.689301 44.350422
v 26.130301 -25.409300 43.870419
v 24.890301 -25.689301 44.210419
v 25.750301 -25.769300 46.210419
v 45.030300 -21.009300 41.130421
v 45.430302 -21.009300 39.670422
v -3.269700 -20.549299 44.490421
v -3.129700 -23.449301 44.430420
v 0.550301 -20.549299 46.030422
v 3.290260 -20.549299 46.030422
v 0.810301 -20.549299 44.870419
v -0.169700 -24.169300 43.410419
v 0.810301 -23.449301 44.830421
v 1.130301 -23.449301 44.870419
v 1.490300 -23.449301 44.910419
v 1.470301 -20.549299 44.950420
v 3.010261 -20.549299 43.670422
v 2.810261 -24.149300 43.790421
v 4.090261 -20.549299 43.790421
v 2.550301 -20.549299 45.090420
v 2.590301 -21.989300 45.070419
v 1.130301 -20.549299 44.910419
v -0.249700 -20.549299 44.750420
v -1.009700 -23.449301 44.610420
v -0.289700 -22.009300 44.710419
v -0.309700 -23.449301 44.690422
v -5.369699 -20.549299 44.590420
v -10.749701 -25.069300 40.750420
v -10.969700 -24.989300 40.690422
v -12.069700 -26.109301 40.250420
v -10.909700 -25.149300 40.730419
v -12.929699 -26.829300 40.170422
v -12.929699 -26.109301 40.150421
v -12.089699 -26.089300 41.130421
v -12.929699 -26.089300 40.990421
v -13.809700 -26.109301 40.250420
v -13.789700 -26.089300 41.130421
v -13.789700 -24.529301 41.130421
v -13.789700 -26.089300 42.010422
v -13.789700 -23.949301 41.990421
v -13.809700 -22.989300 41.130421
v -13.809700 -23.089300 41.990421
v -13.809700 -21.789301 41.990421
v -13.829700 -21.329300 41.110420
v -13.829700 -20.109301 41.970421
v -13.829700 -19.649300 41.110420
v -13.829700 -19.649300 41.970421
v -14.749701 -19.649300 42.850422
v -14.729700 -20.109301 42.850422
v -14.969700 -19.649300 44.090420
v -14.969700 -20.109301 44.090420
v -14.709700 -23.089300 42.850422
v -14.929699 -23.089300 44.090420
v -15.649700 -23.089300 44.510422
v -15.669699 -21.789301 44.510422
v -14.909700 -23.089300 45.810421
v -14.189699 -23.949301 45.390419
v -14.189699 -26.089300 45.370419
v -14.909700 -26.089300 45.790421
v -15.349699 -26.089300 45.210419
v -15.629700 -26.089300 44.530422
v -15.649700 -23.949301 44.530422
v -14.909700 -26.089300 44.110420
v -14.689699 -26.089300 42.870419
v -12.929699 -26.089300 45.810421
v -12.929699 -22.989300 40.990421
v -12.929699 -19.649300 40.970421
v -12.029699 -19.649300 41.110420
v -12.049700 -22.989300 41.130421
v -12.049700 -21.329300 41.110420
v -12.029699 -19.649300 41.970421
v -12.029699 -20.109301 41.970421
v -12.049700 -21.789301 41.990421
v -11.149700 -23.089300 42.850422
v -12.049700 -23.089300 41.990421
v -11.169699 -26.089300 42.870419
v -10.949699 -23.949301 44.110420
v -10.969700 -26.089300 44.110420
v -10.229700 -26.089300 44.530422
v -10.509699 -26.089300 45.210419
v -10.949699 -26.089300 45.790421
v -10.949699 -23.949301 45.810421
v -11.689699 -26.089300 45.370419
v -12.089699 -26.089300 42.010422
v -12.069700 -23.949301 41.990421
v -12.069700 -24.529301 41.130421
v -12.049700 -24.529301 40.210419
v -12.049700 -23.849300 40.210419
v -10.969700 -23.809299 40.650421
v -12.029699 -22.969299 40.170422
v -10.949699 -22.129299 40.610420
v -12.929699 -22.969299 40.070419
v -13.829700 -22.969299 40.170422
v -13.829700 -23.849300 40.210419
v -15.869699 -23.849300 41.510422
v -15.509699 -26.829300 41.230419
v -13.809700 -24.529301 40.210419
v -14.049700 -27.009300 40.390419
v -11.829700 -27.009300 40.390419
v -10.349699 -26.829300 41.230419
v -10.029699 -27.009300 41.690422
v -9.349699 -27.009300 43.810421
v -10.489700 -27.129299 41.370419
v -9.469700 -27.129299 43.810421
v -11.209700 -27.689301 42.090420
v -10.509699 -27.689301 43.810421
v -10.689699 -27.749300 43.810421
v -10.869699 -27.769300 43.810421
v -11.469700 -27.769300 42.350422
v -14.389700 -27.769300 42.350422
v -15.009699 -27.769300 43.810421
v -14.649700 -27.689301 42.090420
v -15.189699 -27.749300 43.810421
v -15.369699 -27.129299 41.370419
v -12.929699 -27.129299 40.350422
v -12.929699 -27.689301 41.390419
v -15.829700 -27.009300 41.690422
v -12.929699 -27.769300 41.750420
v -9.509699 -22.409300 42.030422
v -9.229700 -23.449301 44.870419
v -8.769699 -20.549299 44.890419
v -9.249701 -21.989300 44.910419

f 1 2 3
f 4 1 3
f 4 3 5
f 4 5 6
f 6 7 4
f 7 8 4
f 8 9 4
f 10 4 9
f 10 9 11
f 10 11 12
f 10 12 13
f 12 14 13
f 14 15 13
f 15 16 13
f 16 17 13
f 18 13 17
f 4 13 18
f 16 18 17
f 16 19 18
f 20 18 19
f 20 19 21
f 20 21 22
f 22 23 20
f 24 20 23
f 23 25 24
f 26 24 25
f 26 25 27
f 26 27 28
f 26 28 29
f 29 30 26
f 31 26 30
f 30 32 31
f 31 32 33
f 31 33 34
f 34 35 31
f 35 3 31
f 35 34 36
f 36 37 35
f 7 35 37
f 5 35 7
f 7 37 36
f 7 36 38
f 7 38 39
f 38 40 39
f 39 40 41
f 39 41 42
f 39 42 8
f 8 42 43
f 44 43 42
f 45 44 42
f 45 42 46
f 45 46 47
f 45 47 48
f 47 49 48
f 50 48 49
f 50 49 51
f 50 51 52
f 50 52 53
f 50 53 54
f 54 53 55
f 54 55 56
f 54 56 57
f 54 57 48
f 44 48 57
f 44 57 58
f 58 57 59
f 58 59 60
f 58 60 61
f 58 61 43
f 9 43 61
f 62 9 61
f 62 61 63
f 62 63 64
f 11 62 64
f 11 64 65
f 11 65 14
f 66 65 64
f 66 64 67
f 66 67 68
f 69 66 68
f 69 68 70
f 69 70 71
f 72 69 71
f 72 71 73
f 72 73 74
f 75 72 74
f 75 74 76
f 75 76 77
f 75 77 78
f 79 75 78
f 79 78 80
f 79 80 81
f 79 81 82
f 79 82 83
f 79 83 84
f 83 85 84
f 85 86 84
f 87 84 86
f 87 86 88
f 86 89 88
f 89 90 88
f 91 88 90
f 72 88 91
f 72 84 88
f 89 91 90
f 92 91 89
f 92 89 93
f 92 93 94
f 92 94 15
f 92 15 95
f 92 95 96
f 66 96 95
f 66 97 96
f 97 91 96
f 66 91 97
f 66 95 15
f 93 98 94
f 98 99 94
f 99 100 94
f 94 100 101
f 94 101 16
f 101 100 21
f 100 102 21
f 99 102 100
f 99 103 102
f 102 103 22
f 103 104 22
f 103 105 104
f 105 106 104
f 106 107 104
f 23 104 107
f 23 107 108
f 108 109 23
f 110 23 109
f 109 111 110
f 112 110 111
f 112 111 113
f 112 113 114
f 115 114 113
f 115 116 114
f 116 117 114
f 117 118 114
f 118 119 114
f 114 119 110
f 110 119 120
f 120 121 110
f 122 121 120
f 122 120 123
f 122 123 124
f 27 124 123
f 125 27 123
f 126 125 123
f 126 123 127
f 128 126 127
f 128 127 129
f 130 128 129
f 130 129 131
f 132 130 131
f 133 132 131
f 133 134 132
f 132 134 135
f 132 135 136
f 137 132 136
f 137 136 138
f 139 137 138
f 139 138 140
f 141 139 140
f 141 140 142
f 28 141 142
f 28 142 143
f 28 143 144
f 144 145 28
f 144 146 145
f 146 147 145
f 147 29 145
f 29 147 148
f 147 149 148
f 149 150 148
f 150 151 148
f 151 152 148
f 148 152 153
f 148 153 32
f 32 153 154
f 153 152 154
f 152 155 154
f 155 156 154
f 156 157 154
f 33 154 157
f 156 158 157
f 157 158 159
f 157 159 160
f 161 157 160
f 161 160 162
f 161 162 163
f 163 36 161
f 164 36 163
f 164 163 165
f 164 165 166
f 167 164 166
f 167 166 168
f 168 169 167
f 170 169 168
f 170 168 171
f 171 172 170
f 173 170 172
f 172 174 173
f 175 173 174
f 175 174 176
f 177 175 176
f 177 176 178
f 177 178 179
f 180 177 179
f 180 179 181
f 182 180 181
f 182 181 183
f 182 183 184
f 185 182 184
f 186 185 184
f 187 186 184
f 188 187 184
f 143 188 184
f 142 187 188
f 187 189 186
f 190 186 189
f 190 189 191
f 190 191 192
f 85 190 192
f 85 192 193
f 85 193 194
f 85 194 195
f 85 195 196
f 197 85 196
f 197 196 198
f 197 198 199
f 197 199 200
f 197 200 201
f 197 201 202
f 203 197 202
f 203 202 204
f 203 204 205
f 203 205 206
f 203 206 207
f 203 207 208
f 209 203 208
f 209 208 210
f 209 210 211
f 209 211 212
f 209 212 213
f 214 209 213
f 214 213 215
f 214 215 216
f 217 214 216
f 217 216 218
f 217 218 219
f 220 217 219
f 220 219 221
f 220 221 222
f 223 220 222
f 223 222 224
f 225 223 224
f 225 224 226
f 225 226 227
f 228 225 227
f 228 227 229
f 230 228 229
f 230 229 231
f 230 231 232
f 233 230 232
f 233 232 234
f 233 234 235
f 233 235 236
f 233 236 237
f 233 237 238
f 233 238 239
f 233 239 240
f 240 239 241
f 240 241 242
f 243 240 242
f 243 242 244
f 245 243 244
f 245 244 246
f 247 245 246
f 247 246 248
f 249 247 248
f 249 248 250
f 251 249 250
f 251 250 252
f 253 251 252
f 253 252 254
f 255 253 254
f 255 254 256
f 257 255 256
f 257 256 258
f 259 257 258
f 259 258 260
f 259 260 261
f 262 259 261
f 262 261 263
f 262 263 264
f 265 262 264
f 265 264 266
f 267 265 266
f 267 266 268
f 267 268 269
f 270 267 269
f 270 269 271
f 270 271 272
f 273 270 272
f 273 272 274
f 275 273 274
f 275 274 276
f 275 276 277
f 278 275 277
f 278 277 279
f 278 279 280
f 281 278 280
f 281 280 282
f 283 281 282
f 283 282 284
f 283 284 285
f 286 283 285
f 286 285 287
f 286 287 288
f 289 286 288
f 289 288 290
f 289 290 291
f 289 291 292
f 293 289 292
f 293 292 294
f 293 294 295
f 293 295 296
f 297 293 296
f 297 296 298
f 297 298 299
f 297 299 300
f 301 297 300
f 301 300 302
f 301 302 303
f 304 301 303
f 304 303 305
f 304 305 306
f 307 304 306
f 307 306 308
f 309 307 308
f 309 308 310
f 311 309 310
f 311 310 312
f 311 312 313
f 314 311 313
f 314 313 89
f 85 311 314
f 98 313 312
f 98 312 315
f 315 312 310
f 315 310 316
f 315 316 317
f 315 317 99
f 316 318 317
f 318 319 317
f 319 106 317
f 319 320 106
f 321 320 319
f 322 321 319
f 322 323 321
f 323 324 321
f 324 325 321
f 325 326 321
f 325 327 326
f 326 327 109
f 327 328 109
f 329 109 328
f 329 328 330
f 330 331 329
f 117 329 331
f 117 331 332
f 332 331 333
f 332 333 118
f 333 334 118
f 334 335 118
f 336 335 334
f 336 334 337
f 338 336 337
f 339 338 337
f 340 339 337
f 340 337 341
f 340 341 342
f 343 342 341
f 344 343 341
f 344 345 343
f 343 345 346
f 343 346 347
f 347 346 348
f 347 348 349
f 347 349 342
f 349 350 342
f 350 351 342
f 342 351 352
f 342 352 339
f 339 352 353
f 339 353 354
f 353 355 354
f 354 355 356
f 356 357 354
f 335 354 357
f 335 357 358
f 358 119 335
f 129 358 357
f 129 357 134
f 338 354 335
f 357 356 359
f 357 359 360
f 360 135 357
f 135 360 361
f 361 360 193
f 360 359 196
f 359 356 199
f 356 355 200
f 352 355 353
f 355 352 362
f 355 362 201
f 351 362 352
f 362 351 363
f 362 363 364
f 362 364 204
f 365 364 363
f 366 365 363
f 366 363 367
f 366 367 368
f 369 366 368
f 369 368 370
f 369 370 371
f 372 369 371
f 372 371 373
f 374 372 373
f 374 373 375
f 374 375 376
f 377 374 376
f 377 376 378
f 377 378 379
f 379 378 380
f 379 380 381
f 379 381 374
f 374 381 382
f 381 383 382
f 384 382 383
f 384 383 210
f 382 384 385
f 372 382 385
f 386 385 384
f 386 384 207
f 385 386 365
f 369 385 365
f 380 383 381
f 383 380 387
f 383 387 213
f 388 387 380
f 387 388 389
f 390 387 389
f 391 390 389
f 391 389 392
f 391 392 393
f 391 393 394
f 395 394 393
f 396 395 393
f 397 396 393
f 397 393 398
f 399 397 398
f 399 398 400
f 399 400 401
f 399 401 402
f 399 402 403
f 402 404 403
f 403 404 405
f 397 403 405
f 406 405 404
f 404 407 406
f 408 406 407
f 409 408 407
f 410 409 407
f 410 407 411
f 412 410 411
f 413 412 411
f 413 411 414
f 415 413 414
f 415 414 416
f 417 415 416
f 417 416 418
f 419 417 418
f 419 418 420
f 421 419 420
f 422 421 420
f 422 420 423
f 424 422 423
f 424 423 425
f 426 424 425
f 426 425 427
f 428 426 427
f 429 428 427
f 429 427 430
f 431 429 430
f 431 430 432
f 433 431 432
f 434 433 432
f 434 432 435
f 434 435 436
f 437 434 436
f 437 436 438
f 439 437 438
f 439 438 440
f 439 440 441
f 442 439 441
f 442 441 330
f 443 442 330
f 444 442 443
f 444 443 445
f 446 444 445
f 447 446 445
f 448 447 445
f 448 445 449
f 450 448 449
f 451 450 449
f 451 449 325
f 452 451 325
f 452 300 451
f 451 299 450
f 298 448 450
f 448 296 447
f 447 295 446
f 446 453 444
f 453 454 444
f 454 455 444
f 454 456 455
f 456 457 455
f 457 458 455
f 458 439 455
f 457 459 458
f 459 460 458
f 460 461 458
f 461 437 458
f 460 462 461
f 462 463 461
f 463 464 461
f 464 434 461
f 463 465 464
f 465 466 464
f 466 433 464
f 465 467 466
f 467 468 466
f 468 469 466
f 469 431 466
f 468 470 469
f 470 471 469
f 471 472 469
f 472 473 469
f 473 429 469
f 472 474 473
f 474 475 473
f 475 476 473
f 476 426 473
f 475 477 476
f 477 478 476
f 478 479 476
f 479 422 476
f 478 480 479
f 480 481 479
f 481 482 479
f 482 483 479
f 483 419 479
f 482 484 483
f 484 485 483
f 485 486 483
f 486 417 483
f 485 487 486
f 487 488 486
f 488 413 486
f 487 489 488
f 489 490 488
f 490 491 488
f 491 410 488
f 490 492 491
f 492 493 491
f 493 409 491
f 493 494 409
f 493 495 494
f 494 495 496
f 494 496 408
f 496 497 408
f 498 497 496
f 497 498 499
f 500 497 499
f 500 499 501
f 500 501 502
f 503 502 501
f 504 503 501
f 504 505 503
f 505 506 503
f 507 506 505
f 507 505 508
f 509 507 508
f 509 508 510
f 509 510 511
f 509 511 512
f 511 513 512
f 514 512 513
f 513 515 514
f 516 514 515
f 516 515 222
f 514 516 517
f 517 518 514
f 519 514 518
f 520 519 518
f 520 518 521
f 522 520 521
f 522 521 523
f 522 523 524
f 525 524 523
f 525 523 526
f 527 525 526
f 527 526 528
f 527 528 529
f 527 529 530
f 527 530 524
f 502 524 530
f 502 530 497
f 406 497 530
f 531 406 530
f 532 406 531
f 533 532 531
f 533 531 529
f 534 532 533
f 528 534 533
f 535 534 528
f 521 535 528
f 521 517 535
f 535 517 536
f 535 536 537
f 535 537 538
f 537 539 538
f 538 539 534
f 537 536 539
f 539 536 394
f 394 540 539
f 541 539 540
f 542 541 540
f 542 540 543
f 542 543 396
f 543 540 395
f 396 541 542
f 396 405 541
f 539 541 532
f 544 394 536
f 544 536 545
f 544 545 219
f 394 544 390
f 517 545 536
f 535 538 534
f 534 539 532
f 406 532 541
f 524 502 506
f 506 519 524
f 519 506 512
f 529 531 530
f 528 533 529
f 521 528 526
f 527 524 525
f 521 526 523
f 524 520 522
f 524 519 520
f 521 518 517
f 545 517 516
f 545 516 221
f 515 513 546
f 515 546 224
f 547 546 513
f 513 548 547
f 549 547 548
f 550 549 548
f 550 548 551
f 550 551 552
f 550 552 553
f 554 550 553
f 554 553 555
f 556 554 555
f 556 555 557
f 558 556 557
f 558 557 559
f 558 559 560
f 560 559 561
f 560 561 562
f 560 562 556
f 561 563 562
f 547 562 563
f 563 564 547
f 564 563 565
f 564 565 229
f 565 563 566
f 565 566 231
f 566 567 231
f 567 566 563
f 563 561 567
f 568 567 561
f 561 569 568
f 570 568 569
f 570 569 571
f 570 571 572
f 573 570 572
f 573 572 574
f 573 574 575
f 573 575 568
f 574 576 575
f 567 575 576
f 567 576 232
f 576 574 577
f 578 576 577
f 579 578 577
f 579 577 580
f 581 579 580
f 581 580 582
f 581 582 583
f 583 582 584
f 585 583 584
f 585 584 586
f 587 585 586
f 588 587 586
f 588 586 589
f 588 589 590
f 588 590 591
f 591 590 592
f 593 591 592
f 593 592 594
f 593 594 595
f 593 595 596
f 596 595 597
f 596 597 598
f 596 598 599
f 596 599 591
f 591 599 587
f 600 599 598
f 600 598 601
f 600 601 602
f 600 602 578
f 601 603 602
f 576 602 603
f 576 603 604
f 576 604 605
f 576 605 235
f 606 605 604
f 606 607 605
f 605 607 608
f 605 608 236
f 607 609 608
f 610 608 609
f 610 609 611
f 612 610 611
f 612 611 613
f 612 613 614
f 615 612 614
f 615 614 616
f 615 616 617
f 615 617 618
f 619 615 618
f 619 618 620
f 619 620 621
f 622 619 621
f 622 621 623
f 624 622 623
f 624 623 625
f 624 625 626
f 624 626 627
f 624 627 628
f 624 628 629
f 630 629 628
f 631 630 628
f 632 631 628
f 632 628 633
f 634 632 633
f 635 634 633
f 627 635 633
f 627 636 635
f 635 636 637
f 635 637 638
f 638 637 639
f 638 639 640
f 638 640 634
f 641 640 639
f 641 639 642
f 641 642 643
f 643 642 644
f 643 644 645
f 646 643 645
f 646 645 647
f 648 646 647
f 649 648 647
f 649 647 650
f 649 650 651
f 649 651 652
f 649 652 653
f 654 649 653
f 654 653 655
f 654 655 656
f 656 655 657
f 658 656 657
f 659 658 657
f 659 657 660
f 661 659 660
f 661 660 662
f 663 661 662
f 663 662 664
f 665 663 664
f 665 664 666
f 667 665 666
f 667 666 668
f 667 668 669
f 670 667 669
f 670 669 671
f 672 670 671
f 672 671 673
f 674 672 673
f 674 673 675
f 676 674 675
f 676 675 677
f 678 676 677
f 679 678 677
f 679 677 680
f 679 680 681
f 679 681 682
f 679 682 683
f 684 679 683
f 685 684 683
f 686 685 683
f 686 683 687
f 688 686 687
f 688 687 689
f 690 688 689
f 690 689 691
f 692 690 691
f 692 691 493
f 692 248 690
f 689 495 691
f 689 693 495
f 495 693 498
f 693 694 498
f 693 695 694
f 695 696 694
f 499 694 696
f 504 499 696
f 504 696 697
f 504 697 508
f 697 696 698
f 697 698 510
f 698 699 510
f 698 700 699
f 699 700 551
f 701 551 700
f 701 700 695
f 702 701 695
f 702 703 701
f 703 704 701
f 704 703 705
f 706 704 705
f 707 706 705
f 707 705 708
f 707 708 709
f 707 709 555
f 709 708 559
f 710 559 708
f 708 711 710
f 712 710 711
f 713 712 711
f 713 711 714
f 713 714 715
f 716 715 714
f 716 714 717
f 716 717 718
f 716 718 571
f 716 571 712
f 718 717 719
f 718 719 720
f 718 720 572
f 720 721 572
f 720 722 721
f 722 574 721
f 723 574 722
f 723 722 724
f 723 724 725
f 724 726 725
f 725 726 727
f 727 580 725
f 574 725 580
f 589 580 727
f 584 580 589
f 727 726 589
f 589 726 728
f 729 589 728
f 730 729 728
f 730 728 731
f 732 730 731
f 732 731 733
f 734 732 733
f 734 733 735
f 736 734 735
f 736 735 737
f 738 736 737
f 738 737 739
f 740 738 739
f 741 740 739
f 741 739 742
f 741 742 743
f 741 743 744
f 745 741 744
f 745 744 746
f 745 746 740
f 747 740 746
f 748 747 746
f 748 749 747
f 747 749 738
f 748 750 749
f 749 750 751
f 749 751 752
f 749 752 736
f 752 751 753
f 752 753 754
f 752 754 734
f 755 754 753
f 755 753 756
f 755 756 757
f 755 757 758
f 758 759 755
f 755 759 760
f 760 759 730
f 759 758 730
f 758 757 730
f 592 757 756
f 757 592 729
f 761 729 592
f 753 762 756
f 594 756 762
f 762 763 594
f 764 594 763
f 764 763 765
f 597 764 765
f 766 764 597
f 765 763 767
f 606 765 767
f 768 606 767
f 768 767 769
f 768 769 770
f 768 770 771
f 772 768 771
f 773 772 771
f 774 773 771
f 774 771 775
f 776 774 775
f 776 775 777
f 776 777 778
f 779 778 777
f 779 780 778
f 778 780 781
f 778 781 774
f 780 782 781
f 781 782 783
f 781 783 773
f 782 784 783
f 783 784 785
f 783 785 772
f 785 786 772
f 772 786 787
f 772 787 788
f 788 787 613
f 787 786 614
f 785 789 786
f 786 789 616
f 785 790 789
f 789 790 617
f 791 790 785
f 792 791 785
f 792 793 791
f 793 794 791
f 794 795 791
f 795 796 791
f 796 797 791
f 797 798 791
f 791 798 799
f 799 798 620
f 790 799 620
f 797 800 798
f 801 798 800
f 801 800 802
f 803 801 802
f 804 803 802
f 805 804 802
f 805 802 806
f 805 806 807
f 808 805 807
f 808 807 809
f 808 809 810
f 808 810 811
f 808 811 804
f 804 811 812
f 811 813 812
f 625 812 813
f 811 814 813
f 814 815 813
f 626 813 815
f 816 626 815
f 816 815 817
f 818 816 817
f 819 818 817
f 819 817 820
f 821 819 820
f 822 821 820
f 822 820 823
f 824 822 823
f 824 823 825
f 826 824 825
f 826 825 827
f 826 827 828
f 826 828 829
f 826 829 830
f 831 826 830
f 831 830 832
f 831 832 833
f 834 831 833
f 834 833 835
f 834 835 836
f 837 834 836
f 837 836 636
f 836 838 636
f 839 636 838
f 838 840 839
f 841 839 840
f 842 841 840
f 842 840 843
f 842 843 844
f 842 844 845
f 842 845 846
f 847 842 846
f 847 846 848
f 847 848 849
f 650 847 849
f 650 850 847
f 847 850 851
f 851 852 847
f 853 847 852
f 839 853 852
f 839 852 851
f 851 642 839
f 854 851 850
f 854 850 647
f 851 854 645
f 849 848 855
f 856 849 855
f 856 855 857
f 651 856 857
f 651 857 858
f 859 858 857
f 860 859 857
f 861 859 860
f 861 860 862
f 861 862 863
f 861 863 864
f 861 864 865
f 861 865 866
f 861 866 867
f 868 867 866
f 868 866 869
f 868 869 870
f 868 870 871
f 868 871 872
f 868 872 873
f 874 868 873
f 875 874 873
f 875 873 796
f 876 796 873
f 876 877 796
f 876 878 877
f 878 879 877
f 879 806 877
f 806 797 877
f 806 880 797
f 880 802 797
f 879 881 806
f 882 881 879
f 882 879 869
f 882 869 865
f 882 883 881
f 883 884 881
f 881 884 807
f 884 885 807
f 886 885 884
f 887 885 886
f 887 886 888
f 889 887 888
f 889 888 863
f 889 863 890
f 889 890 891
f 889 891 892
f 893 892 891
f 893 891 894
f 893 894 895
f 893 895 896
f 895 897 896
f 896 897 898
f 896 898 899
f 896 899 892
f 892 899 900
f 892 900 901
f 892 901 810
f 892 810 887
f 810 901 814
f 902 814 901
f 902 901 903
f 903 904 902
f 905 902 904
f 904 906 905
f 907 905 906
f 908 907 906
f 909 908 906
f 909 906 910
f 910 911 909
f 909 911 912
f 912 911 913
f 913 914 912
f 912 914 908
f 908 914 915
f 914 916 915
f 916 905 915
f 917 905 916
f 916 918 917
f 917 918 817
f 918 919 817
f 916 919 918
f 919 916 920
f 920 921 919
f 922 919 921
f 921 923 922
f 922 923 924
f 922 924 820
f 923 823 924
f 925 823 923
f 925 923 926
f 927 925 926
f 928 927 926
f 928 926 929
f 928 929 930
f 930 929 931
f 930 931 932
f 930 932 933
f 930 933 934
f 935 930 934
f 935 934 936
f 935 936 937
f 938 935 937
f 938 937 939
f 938 939 940
f 938 940 941
f 938 941 942
f 943 938 942
f 943 942 944
f 943 944 827
f 943 827 945
f 943 945 935
f 827 946 945
f 946 947 945
f 930 945 947
f 930 947 927
f 946 927 947
f 942 828 944
f 942 941 948
f 948 829 942
f 941 949 948
f 948 949 950
f 830 948 950
f 830 950 951
f 950 952 951
f 951 952 953
f 951 953 954
f 954 832 951
f 954 953 955
f 955 833 954
f 833 955 956
f 833 956 957
f 833 957 838
f 956 958 957
f 959 957 958
f 843 959 958
f 843 958 960
f 960 958 961
f 960 961 962
f 960 962 963
f 960 963 964
f 960 964 965
f 960 965 966
f 960 966 967
f 960 967 968
f 960 968 844
f 969 844 968
f 968 970 969
f 970 845 969
f 845 970 971
f 972 971 970
f 973 972 970
f 974 973 970
f 975 974 970
f 975 976 974
f 975 977 976
f 977 973 976
f 978 973 977
f 979 978 977
f 979 977 980
f 979 980 981
f 980 982 981
f 982 967 981
f 975 967 982
f 975 982 980
f 979 981 978
f 978 981 983
f 978 983 984
f 984 983 985
f 984 985 986
f 987 984 986
f 988 987 986
f 989 988 986
f 990 989 986
f 990 986 991
f 992 990 991
f 993 992 991
f 993 991 994
f 995 993 994
f 995 994 996
f 997 995 996
f 997 996 998
f 999 997 998
f 999 998 1000
f 1001 999 1000
f 1002 1001 1000
f 1002 1000 1003
f 981 1002 1003
f 981 1003 985
f 985 1003 1004
f 985 1004 1005
f 985 1005 991
f 1006 991 1005
f 1007 1006 1005
f 1008 1007 1005
f 1009 1007 1008
f 1009 1008 1010
f 1009 1010 953
f 1011 953 1010
f 1011 1010 1012
f 1011 1012 1013
f 1013 1014 1011
f 1015 1011 1014
f 963 1015 1014
f 1016 1011 1015
f 962 1016 1015
f 962 1017 1016
f 956 1017 962
f 1017 956 1018
f 1017 1018 1011
f 1017 1011 1016
f 1014 1013 1019
f 1014 1019 1020
f 964 1014 1020
f 1021 964 1020
f 939 1021 1020
f 939 1020 1022
f 1020 949 1022
f 949 1020 1023
f 949 1023 1024
f 949 1024 1025
f 1025 952 949
f 952 1025 1009
f 1024 1026 1025
f 1025 1026 1007
f 1024 1027 1026
f 1026 1027 1028
f 1026 1028 1006
f 1027 1029 1028
f 1028 1029 994
f 1027 1030 1029
f 1030 1031 1029
f 996 1029 1031
f 996 1031 1000
f 1032 1000 1031
f 1033 1032 1031
f 1033 1034 1032
f 1034 1035 1032
f 1036 1035 1034
f 1012 1036 1034
f 1036 1004 1035
f 1036 1008 1004
f 1013 1034 1033
f 1035 1000 1032
f 1030 1033 1031
f 1019 1033 1030
f 1019 1030 1023
f 1023 1030 1027
f 1023 1027 1024
f 939 1037 1021
f 1021 1037 966
f 1037 981 966
f 1037 1038 981
f 1039 1038 1037
f 1040 1039 1037
f 1040 937 1039
f 1038 1039 1001
f 1039 1041 1001
f 1039 932 1041
f 1041 932 999
f 999 932 923
f 1040 1037 939
f 1019 1023 1020
f 1019 1013 1033
f 1012 1034 1013
f 1010 1036 1012
f 953 1011 1018
f 1010 1008 1036
f 1025 1007 1009
f 1007 1026 1006
f 1028 991 1006
f 1008 1005 1004
f 1035 1004 1003
f 1002 981 1038
f 1003 1000 1035
f 1038 1001 1002
f 999 1001 1041
f 923 997 999
f 1000 998 996
f 997 921 995
f 1042 995 921
f 1042 921 1043
f 1042 1043 1044
f 1042 1044 1045
f 1045 1044 993
f 1044 1043 993
f 1042 1045 995
f 996 994 1029
f 995 1045 993
f 994 991 1028
f 992 993 1043
f 1043 911 992
f 911 1043 1046
f 1046 1047 911
f 1046 1048 1047
f 1049 1047 1048
f 1049 1048 914
f 1049 913 1047
f 1046 920 1048
f 1043 920 1046
f 992 911 990
f 990 911 989
f 989 911 1050
f 1050 1051 989
f 1050 1052 1051
f 1052 984 1051
f 973 984 1052
f 1052 1053 973
f 1054 1053 1052
f 1055 1053 1054
f 1055 1054 910
f 910 1056 1055
f 1053 1055 1056
f 1056 1057 1053
f 1053 1057 1058
f 1058 972 1053
f 1058 1057 971
f 1057 855 971
f 1057 1059 855
f 1059 860 855
f 860 1059 1060
f 1060 1059 1061
f 862 1060 1061
f 894 862 1061
f 1062 894 1061
f 1062 1061 1063
f 1062 1063 1064
f 1065 1062 1064
f 1065 1064 1066
f 1066 1067 1065
f 897 1065 1067
f 1068 1067 1066
f 1068 1066 1069
f 1069 1070 1068
f 1071 1068 1070
f 1070 904 1071
f 1071 904 1072
f 1072 1073 1071
f 1074 1071 1073
f 1073 1075 1074
f 1074 1075 899
f 1073 1076 1075
f 1075 1076 1077
f 1075 1077 900
f 1072 1077 1076
f 1067 1071 1074
f 898 1067 1074
f 1072 1076 1073
f 1072 904 1077
f 1078 1070 1069
f 1078 1064 1070
f 1064 1056 1070
f 906 1070 1056
f 1078 1069 1066
f 1071 1067 1068
f 1066 1064 1078
f 1065 897 1062
f 1057 1064 1063
f 1063 1061 1057
f 894 1079 862
f 1079 1080 862
f 890 1080 1079
f 1081 1079 894
f 1081 891 1079
f 1057 1061 1059
f 1057 1056 1064
f 1054 1052 1050
f 1054 1050 911
f 1051 988 989
f 1051 987 988
f 1051 984 987
f 991 986 985
f 983 981 985
f 984 973 978
f 975 980 977
f 974 976 973
f 973 1053 972
f 972 1058 971
f 968 975 970
f 968 967 975
f 967 966 981
f 965 1021 966
f 965 964 1021
f 964 963 1014
f 963 962 1015
f 956 962 961
f 957 959 840
f 956 961 958
f 955 1018 956
f 955 953 1018
f 952 1009 953
f 950 949 952
f 941 1022 949
f 940 1022 941
f 940 939 1022
f 1040 939 937
f 943 935 938
f 937 936 1039
f 936 934 1039
f 935 945 930
f 934 933 1039
f 933 932 1039
f 932 931 929
f 929 926 932
f 930 927 928
f 946 925 927
f 946 825 925
f 923 932 926
f 923 921 997
f 919 922 820
f 1043 921 920
f 920 916 1048
f 905 917 815
f 914 1048 916
f 1049 914 913
f 913 911 1047
f 911 910 1054
f 1056 910 906
f 909 912 908
f 908 915 907
f 915 905 907
f 1070 906 904
f 1077 904 903
f 1077 903 901
f 902 905 814
f 900 1077 901
f 899 1075 900
f 898 1074 899
f 898 897 1067
f 895 1062 897
f 895 894 1062
f 1081 894 891
f 893 896 892
f 891 890 1079
f 890 863 1080
f 889 892 887
f 888 886 883
f 888 883 864
f 887 809 885
f 886 884 883
f 882 864 883
f 870 879 878
f 876 872 878
f 875 1082 874
f 874 1082 1083
f 874 1083 1084
f 874 1084 1085
f 1084 1086 1085
f 1085 1086 1087
f 1088 1085 1087
f 1087 867 1088
f 1087 1089 867
f 867 1089 1090
f 867 1090 859
f 1090 1089 858
f 1089 1091 858
f 653 858 1091
f 653 1092 858
f 1092 652 858
f 1089 1087 1091
f 1087 1093 1091
f 655 1091 1093
f 1094 655 1093
f 1094 1093 1095
f 1096 1094 1095
f 1096 1095 1097
f 1098 1096 1097
f 1098 1097 742
f 1099 1098 742
f 664 1098 1099
f 1100 742 1097
f 1101 1100 1097
f 1102 1101 1097
f 1103 1102 1097
f 1103 1104 1102
f 1105 1102 1104
f 1106 1105 1104
f 1106 1104 1107
f 1106 1107 1108
f 1106 1108 1109
f 1109 1108 782
f 1108 1110 782
f 1108 1107 1110
f 1110 1107 792
f 1110 792 784
f 792 1107 1111
f 1107 1112 1111
f 1113 1111 1112
f 1113 1112 1114
f 1113 1114 1115
f 1113 1115 1116
f 1117 1116 1115
f 1117 1115 1118
f 1117 1118 1086
f 1119 1117 1086
f 1119 1120 1117
f 1117 1120 1121
f 1121 1120 1122
f 1121 1122 1123
f 1116 1121 1123
f 1116 1123 1111
f 1123 793 1111
f 1123 1122 793
f 1083 1122 1120
f 1083 1120 1119
f 1086 1118 1093
f 1115 1124 1118
f 1118 1124 1095
f 1124 1103 1095
f 1114 1103 1124
f 1117 1121 1116
f 1115 1114 1124
f 1114 1112 1103
f 1113 1116 1111
f 1107 1104 1112
f 1106 1109 1105
f 1105 1109 780
f 1125 1105 780
f 1125 780 1126
f 1125 1126 1101
f 1125 1102 1105
f 1103 1112 1104
f 1125 1101 1102
f 1126 1100 1101
f 1126 743 1100
f 779 743 1126
f 779 775 743
f 664 1096 1098
f 1103 1097 1095
f 662 1094 1096
f 1118 1095 1093
f 660 655 1094
f 868 1085 1088
f 1086 1093 1087
f 1119 1086 1084
f 1083 1119 1084
f 1083 1082 1122
f 1082 795 1122
f 875 795 1082
f 874 1085 868
f 876 873 872
f 871 878 872
f 870 878 871
f 870 869 879
f 868 1088 867
f 869 866 865
f 882 865 864
f 888 864 863
f 1080 863 862
f 862 860 1060
f 861 867 859
f 859 1090 858
f 860 857 855
f 651 849 856
f 848 971 855
f 848 846 971
f 847 853 842
f 846 845 971
f 844 969 845
f 843 960 844
f 843 840 959
f 842 853 841
f 839 841 853
f 840 838 957
f 839 1127 636
f 1127 839 637
f 837 819 834
f 838 836 835
f 838 835 833
f 834 819 831
f 832 954 833
f 830 951 832
f 831 822 826
f 948 830 829
f 828 942 829
f 827 944 828
f 827 825 946
f 825 823 925
f 826 822 824
f 924 823 820
f 831 821 822
f 831 819 821
f 919 820 817
f 837 818 819
f 837 816 818
f 917 817 815
f 837 626 816
f 814 905 815
f 810 814 811
f 887 810 809
f 885 809 807
f 881 807 806
f 806 802 880
f 808 804 805
f 804 812 803
f 623 803 812
f 621 801 803
f 621 798 801
f 797 802 800
f 796 877 797
f 875 796 795
f 1122 795 794
f 1122 794 793
f 792 1111 793
f 791 799 790
f 784 792 785
f 782 1110 784
f 780 1109 782
f 779 1126 780
f 779 777 775
f 776 778 774
f 775 771 744
f 1128 744 771
f 748 744 1128
f 774 781 773
f 773 783 772
f 772 788 768
f 768 788 1129
f 1129 788 611
f 770 1128 771
f 1130 1128 770
f 1130 770 1131
f 1132 1130 1131
f 1132 1131 762
f 1133 1132 762
f 1133 751 1132
f 762 1131 1134
f 769 1134 1131
f 751 1130 1132
f 750 1128 1130
f 769 1131 770
f 767 1134 769
f 768 1129 606
f 606 601 765
f 767 763 1134
f 766 594 764
f 762 1134 763
f 1133 762 753
f 755 760 754
f 754 760 732
f 1133 753 751
f 751 750 1130
f 748 1128 750
f 748 746 744
f 744 743 775
f 1100 743 742
f 1099 742 739
f 1135 1099 739
f 666 1099 1135
f 666 1135 1136
f 1136 1135 737
f 1137 1136 737
f 668 1136 1137
f 740 741 745
f 747 738 740
f 1135 739 737
f 749 736 738
f 1137 737 735
f 1138 1137 735
f 669 1137 1138
f 752 734 736
f 1138 735 733
f 1139 1138 733
f 671 1138 1139
f 754 732 734
f 1139 733 731
f 760 730 732
f 1139 731 728
f 1140 1139 728
f 673 1139 1140
f 730 757 729
f 729 761 589
f 1140 728 726
f 1141 1140 726
f 1141 726 1142
f 1143 1141 1142
f 1143 1142 1144
f 680 1143 1144
f 680 1144 1145
f 680 1145 1146
f 1146 1145 1147
f 1147 717 1146
f 717 1147 1148
f 726 1148 1147
f 726 719 1148
f 1144 1147 1145
f 1149 1143 680
f 1149 677 1143
f 1142 1147 1144
f 675 1141 1143
f 1147 1142 726
f 675 1140 1141
f 724 719 726
f 723 725 574
f 720 724 722
f 720 719 724
f 717 1148 719
f 714 1146 717
f 1146 714 1150
f 681 1146 1150
f 681 1150 1151
f 1150 714 1151
f 716 712 715
f 711 1151 714
f 1151 711 1152
f 682 1151 1152
f 682 1152 703
f 1152 711 703
f 713 715 712
f 571 710 712
f 559 710 569
f 711 708 705
f 707 555 706
f 706 551 704
f 1153 551 706
f 553 1153 706
f 705 703 711
f 702 682 703
f 551 701 704
f 698 696 700
f 696 695 700
f 693 702 695
f 687 702 693
f 690 246 688
f 687 693 689
f 688 244 686
f 683 702 687
f 686 242 685
f 685 241 684
f 684 241 1154
f 684 1154 1155
f 1155 1154 1156
f 1155 1156 1157
f 1157 678 1155
f 1157 1158 678
f 1158 1157 1159
f 1158 1159 1160
f 1161 1158 1160
f 1161 1160 1162
f 1163 1161 1162
f 1163 1162 1164
f 1165 1163 1164
f 1165 1164 1166
f 1165 1166 1167
f 1168 1165 1167
f 1168 1167 1169
f 1170 1168 1169
f 1170 1169 1171
f 1172 1170 1171
f 1172 1171 629
f 622 629 1171
f 661 1170 1172
f 619 1171 1169
f 663 1168 1170
f 619 1169 1167
f 665 1165 1168
f 619 1167 1166
f 615 1166 1164
f 667 1163 1165
f 615 1164 1162
f 670 1161 1163
f 612 1162 1160
f 674 1158 1161
f 610 1160 1159
f 610 1159 1173
f 610 1173 1174
f 1174 1173 1175
f 1174 1175 237
f 1174 237 608
f 1175 1173 1157
f 1173 1176 1157
f 1159 1176 1173
f 1159 1157 1176
f 1175 1157 1156
f 238 1175 1156
f 238 1156 1154
f 684 1155 679
f 683 682 702
f 682 681 1151
f 681 680 1146
f 1149 680 677
f 1155 678 679
f 678 1158 676
f 675 1143 677
f 676 1158 674
f 673 1140 675
f 674 1161 672
f 671 1139 673
f 672 1161 670
f 669 1138 671
f 670 1163 667
f 668 1137 669
f 666 1136 668
f 667 1165 665
f 664 1099 666
f 665 1168 663
f 662 1096 664
f 663 1170 661
f 660 1094 662
f 661 1172 659
f 659 1172 630
f 659 631 658
f 658 1177 656
f 648 656 1177
f 658 1178 1177
f 646 1177 1178
f 658 632 1178
f 1178 632 640
f 643 1178 640
f 657 655 660
f 655 653 1091
f 654 656 649
f 653 652 1092
f 652 651 858
f 650 849 651
f 650 647 850
f 649 656 648
f 648 1177 646
f 645 854 647
f 646 1178 643
f 851 645 644
f 851 644 642
f 642 639 839
f 641 643 640
f 639 637 839
f 636 1127 637
f 627 837 636
f 635 638 634
f 634 640 632
f 658 631 632
f 659 630 631
f 630 1172 629
f 627 633 628
f 627 626 837
f 626 625 813
f 625 623 812
f 624 629 622
f 623 621 803
f 622 1171 619
f 621 620 798
f 790 620 618
f 619 1166 615
f 790 618 617
f 789 617 616
f 786 616 614
f 615 1162 612
f 787 614 613
f 788 613 611
f 612 1160 610
f 1129 611 609
f 610 1174 608
f 607 1129 609
f 606 1129 607
f 604 603 606
f 606 603 601
f 598 765 601
f 600 583 599
f 579 583 600
f 598 597 765
f 595 766 597
f 595 594 766
f 756 594 592
f 593 596 591
f 590 761 592
f 590 589 761
f 588 591 587
f 587 599 585
f 584 589 586
f 585 599 583
f 582 580 584
f 583 579 581
f 579 600 578
f 602 576 578
f 580 577 574
f 721 574 572
f 718 572 571
f 571 569 710
f 573 568 570
f 575 567 568
f 569 561 559
f 709 559 557
f 558 560 556
f 709 557 555
f 556 562 554
f 554 562 549
f 555 553 706
f 553 552 1153
f 552 551 1153
f 551 548 699
f 511 699 548
f 554 549 550
f 562 547 549
f 546 547 564
f 546 564 226
f 512 514 519
f 548 513 511
f 510 699 511
f 697 510 508
f 509 512 507
f 507 512 506
f 504 508 505
f 503 506 502
f 504 501 499
f 502 497 500
f 694 499 498
f 495 498 496
f 691 495 493
f 492 692 493
f 492 250 692
f 490 252 492
f 489 254 490
f 487 256 489
f 485 258 487
f 484 260 485
f 482 261 484
f 481 263 482
f 480 264 481
f 480 478 266
f 477 268 478
f 475 269 477
f 474 271 475
f 472 272 474
f 472 471 274
f 470 276 471
f 470 468 277
f 467 279 468
f 465 280 467
f 463 282 465
f 462 284 463
f 460 285 462
f 459 287 460
f 457 288 459
f 456 290 457
f 454 291 456
f 453 292 454
f 446 294 453
f 445 443 449
f 449 443 327
f 455 442 444
f 455 439 442
f 1179 441 440
f 441 1179 331
f 438 1179 440
f 1179 438 345
f 1180 1179 345
f 333 1179 1180
f 458 437 439
f 436 345 438
f 461 434 437
f 435 345 436
f 435 432 1181
f 1181 346 435
f 464 433 434
f 466 431 433
f 430 1181 432
f 469 429 431
f 427 1181 430
f 473 428 429
f 473 426 428
f 425 1181 427
f 476 424 426
f 423 1181 425
f 476 422 424
f 420 1181 423
f 479 421 422
f 479 419 421
f 418 1181 420
f 1181 418 1182
f 1182 1183 1181
f 367 1181 1183
f 1184 367 1183
f 1184 1183 1185
f 373 1184 1185
f 1186 373 1185
f 1186 1187 373
f 1186 1188 1187
f 1187 1188 1189
f 1187 1189 1190
f 1187 1190 375
f 1190 1189 378
f 1191 378 1189
f 1189 1192 1191
f 400 1191 1192
f 1193 400 1192
f 1193 1192 402
f 1192 1182 402
f 1188 1182 1192
f 1194 1182 1188
f 378 1191 388
f 398 388 1191
f 392 388 398
f 1192 1189 1188
f 1186 1194 1188
f 1186 1183 1194
f 1186 1185 1183
f 370 367 1184
f 1181 367 1195
f 348 1181 1195
f 1196 348 1195
f 1196 1195 1197
f 1197 1198 1196
f 1196 1198 350
f 1197 351 1198
f 1197 1195 351
f 351 1195 367
f 1183 1182 1194
f 483 417 419
f 416 1182 418
f 486 415 417
f 414 1182 416
f 1182 414 404
f 486 413 415
f 411 404 414
f 488 412 413
f 488 410 412
f 491 409 410
f 409 494 408
f 406 408 497
f 407 404 411
f 405 406 541
f 404 402 1182
f 1193 402 401
f 1193 401 400
f 398 1191 400
f 399 403 397
f 397 405 396
f 396 543 395
f 395 540 394
f 392 398 393
f 391 394 390
f 387 390 544
f 387 544 216
f 392 389 388
f 388 380 378
f 1190 378 376
f 377 379 374
f 1190 376 375
f 1187 375 373
f 374 382 372
f 373 371 1184
f 372 385 369
f 371 370 1184
f 368 367 370
f 369 365 366
f 364 365 386
f 364 386 205
f 367 363 351
f 1198 351 350
f 349 1196 350
f 349 348 1196
f 346 1181 348
f 345 435 346
f 1180 345 344
f 1180 344 337
f 343 347 342
f 344 341 337
f 342 339 340
f 339 354 338
f 1180 337 334
f 338 335 336
f 333 1180 334
f 333 331 1179
f 331 330 441
f 443 330 328
f 109 329 1199
f 116 1199 329
f 327 443 328
f 449 327 325
f 324 452 325
f 324 302 452
f 323 303 324
f 322 305 323
f 321 326 320
f 320 326 108
f 318 322 319
f 318 306 322
f 316 308 318
f 197 309 311
f 316 310 308
f 197 307 309
f 318 308 306
f 197 304 307
f 322 306 305
f 323 305 303
f 197 301 304
f 324 303 302
f 452 302 300
f 197 297 301
f 451 300 299
f 450 299 298
f 448 298 296
f 203 293 297
f 447 296 295
f 446 295 294
f 453 294 292
f 203 289 293
f 454 292 291
f 456 291 290
f 457 290 288
f 203 286 289
f 459 288 287
f 460 287 285
f 203 283 286
f 462 285 284
f 463 284 282
f 209 281 283
f 465 282 280
f 209 278 281
f 467 280 279
f 468 279 277
f 209 275 278
f 277 276 470
f 471 276 274
f 209 273 275
f 274 272 472
f 209 270 273
f 474 272 271
f 475 271 269
f 214 267 270
f 477 269 268
f 478 268 266
f 214 265 267
f 266 264 480
f 214 262 265
f 481 264 263
f 482 263 261
f 214 259 262
f 484 261 260
f 485 260 258
f 217 257 259
f 487 258 256
f 217 255 257
f 489 256 254
f 220 253 255
f 490 254 252
f 220 251 253
f 492 252 250
f 223 249 251
f 692 250 248
f 225 247 249
f 690 248 246
f 225 245 247
f 688 246 244
f 228 243 245
f 686 244 242
f 230 240 243
f 685 242 241
f 239 1154 241
f 239 238 1154
f 237 1175 238
f 237 236 608
f 605 236 235
f 576 235 234
f 576 234 232
f 233 240 230
f 567 232 231
f 565 231 229
f 230 243 228
f 564 229 227
f 228 245 225
f 564 227 226
f 546 226 224
f 225 249 223
f 515 224 222
f 223 251 220
f 516 222 221
f 545 221 219
f 220 255 217
f 544 219 218
f 544 218 216
f 217 259 214
f 387 216 215
f 387 215 213
f 214 270 209
f 383 213 212
f 383 212 211
f 383 211 210
f 384 210 208
f 209 283 203
f 384 208 207
f 386 207 206
f 386 206 205
f 364 205 204
f 362 204 202
f 203 297 197
f 362 202 201
f 355 201 200
f 356 200 199
f 359 199 198
f 359 198 196
f 197 311 85
f 360 196 195
f 360 195 194
f 360 194 193
f 361 193 192
f 82 190 85
f 361 192 191
f 187 361 191
f 138 361 187
f 190 1200 186
f 81 1200 190
f 81 1201 1200
f 1200 1201 185
f 1202 185 1201
f 1202 1201 1203
f 1204 1202 1203
f 1204 1203 80
f 1204 1205 1202
f 1206 1202 1205
f 1207 1206 1205
f 1207 1205 1208
f 1209 1207 1208
f 1209 1208 1210
f 1211 1209 1210
f 1212 1211 1210
f 1212 1210 1213
f 1214 1212 1213
f 1215 1214 1213
f 1215 1213 1216
f 1217 1215 1216
f 1217 1216 1218
f 1219 1217 1218
f 1218 172 1219
f 1220 1219 172
f 1220 1217 1219
f 1220 1221 1217
f 1220 1222 1221
f 1222 1223 1221
f 1224 1221 1223
f 1225 1224 1223
f 1226 1225 1223
f 1227 1226 1223
f 166 1227 1223
f 165 1226 1227
f 1228 1226 165
f 158 1228 165
f 158 1229 1228
f 1229 1230 1228
f 1228 1230 1231
f 1228 1231 1232
f 1228 1232 1233
f 1228 1233 1234
f 1234 1233 1225
f 1225 1233 1235
f 1225 1235 1236
f 1230 1236 1235
f 1230 1211 1236
f 1224 1236 1211
f 1237 1211 1230
f 156 1237 1230
f 1231 1235 1233
f 1231 1233 1232
f 1235 1231 1230
f 156 1230 1229
f 1228 1234 1226
f 1226 1234 1225
f 1225 1236 1224
f 1224 1214 1221
f 166 1223 1222
f 171 166 1222
f 1220 171 1222
f 1238 1218 1216
f 1238 1239 1218
f 174 1218 1239
f 1239 178 174
f 1240 178 1239
f 1240 1239 1241
f 1240 1241 1242
f 1243 1240 1242
f 1244 1243 1242
f 1245 1244 1242
f 1246 1244 1245
f 1246 1245 1247
f 1246 1247 1248
f 1246 1248 150
f 1249 150 1248
f 1248 1250 1249
f 1249 1250 151
f 151 1250 1251
f 151 1251 1252
f 151 1252 1253
f 151 1253 1254
f 1254 1253 155
f 155 1253 1255
f 155 1255 1237
f 1207 1237 1255
f 1207 1255 1256
f 1256 1255 1248
f 1248 1257 1256
f 1257 1206 1256
f 1257 1258 1206
f 1257 1247 1258
f 1247 1241 1258
f 1259 1258 1241
f 1259 1241 1260
f 1259 1260 185
f 1260 1261 185
f 1262 1261 1260
f 1263 1261 1262
f 1262 180 1263
f 1262 1264 180
f 1238 1264 1262
f 1238 1262 1241
f 1238 1213 1264
f 1264 1213 1265
f 1264 1265 177
f 1266 1265 1213
f 1267 1265 1266
f 1268 1267 1266
f 1268 1266 1269
f 1268 1269 1208
f 1269 1266 1210
f 1268 46 1267
f 46 41 1267
f 175 1267 41
f 175 1265 1267
f 182 1261 1263
f 1262 1260 1241
f 1202 1258 1259
f 1253 1248 1255
f 1250 1253 1252
f 1250 1252 1251
f 1248 1253 1250
f 1248 1247 1257
f 1247 1245 1241
f 1246 146 1244
f 146 1243 1244
f 1240 1243 143
f 143 179 1240
f 183 179 143
f 1245 1242 1241
f 1238 1241 1239
f 1221 1215 1217
f 1238 1216 1213
f 1221 1214 1215
f 1224 1212 1214
f 1266 1213 1210
f 1224 1211 1212
f 1211 1237 1209
f 1208 1269 1210
f 1207 1209 1237
f 1268 1208 1205
f 1207 1256 1206
f 1206 1258 1202
f 1204 1268 1205
f 1270 1268 1204
f 1271 1270 1204
f 1271 1204 1272
f 1273 1271 1272
f 1273 1272 63
f 1274 1273 63
f 1274 1275 1273
f 1274 1276 1275
f 1277 1275 1276
f 1278 1277 1276
f 59 1278 1276
f 56 1278 59
f 1279 1278 56
f 1279 56 1280
f 1279 1280 1281
f 1282 1281 1280
f 1280 1283 1282
f 1284 1282 1283
f 1285 1284 1283
f 1285 1283 52
f 55 52 1283
f 1285 51 1284
f 1284 51 1286
f 1284 1286 1287
f 1288 1284 1287
f 1288 1287 1275
f 1271 1275 1287
f 1270 1287 1286
f 1270 1286 1289
f 1289 1286 49
f 1288 1282 1284
f 1288 1290 1282
f 1277 1290 1288
f 1277 1281 1290
f 1283 1280 55
f 1281 1282 1290
f 1279 1281 1278
f 1278 1281 1277
f 1277 1288 1275
f 60 1276 1274
f 74 63 1272
f 1273 1275 1271
f 1272 1204 78
f 1271 1287 1270
f 1270 1289 1268
f 1289 47 1268
f 185 1202 1259
f 81 1203 1201
f 187 191 189
f 1200 185 186
f 182 185 1261
f 183 143 184
f 182 1263 180
f 183 181 179
f 1264 177 180
f 178 1240 179
f 177 1265 175
f 176 174 178
f 175 40 173
f 174 172 1218
f 40 170 173
f 172 171 1220
f 38 169 170
f 171 168 166
f 167 169 164
f 165 1227 166
f 160 165 163
f 36 164 169
f 162 160 163
f 161 34 157
f 160 159 165
f 159 158 165
f 156 1229 158
f 155 1237 156
f 152 1254 155
f 151 1254 152
f 150 1249 151
f 1246 150 149
f 149 147 1246
f 1246 147 146
f 144 1243 146
f 144 143 1243
f 143 142 188
f 28 1291 141
f 1291 126 141
f 28 125 1291
f 187 142 140
f 141 126 139
f 187 140 138
f 139 128 137
f 361 138 136
f 361 136 135
f 134 357 135
f 129 134 133
f 137 130 132
f 133 131 129
f 137 128 130
f 127 358 129
f 127 120 358
f 139 126 128
f 1291 125 126
f 27 1292 124
f 1292 1293 124
f 124 1293 121
f 23 121 1293
f 1294 1293 1292
f 1294 25 1293
f 1294 1292 27
f 123 120 127
f 122 124 121
f 358 120 119
f 118 335 119
f 117 332 118
f 116 329 117
f 115 1199 116
f 115 111 1199
f 115 113 111
f 112 114 110
f 109 1199 111
f 23 110 121
f 326 109 108
f 320 108 107
f 106 320 107
f 317 106 105
f 317 105 103
f 317 103 99
f 98 315 99
f 93 313 98
f 93 89 313
f 92 96 91
f 86 314 89
f 87 88 84
f 85 314 86
f 83 82 85
f 81 190 82
f 81 80 1203
f 1204 80 78
f 79 84 75
f 1272 78 77
f 76 1272 77
f 76 74 1272
f 75 84 72
f 73 63 74
f 73 71 63
f 72 91 69
f 71 70 63
f 70 68 63
f 69 91 66
f 68 67 63
f 66 15 65
f 67 64 63
f 61 1274 63
f 60 1274 61
f 60 59 1276
f 56 59 57
f 56 55 1280
f 52 55 53
f 1285 52 51
f 51 49 1286
f 50 54 48
f 1289 49 47
f 47 46 1268
f 45 48 44
f 44 58 43
f 42 41 46
f 175 41 40
f 38 170 40
f 38 36 169
f 36 34 161
f 34 33 157
f 32 154 33
f 30 148 32
f 3 26 31
f 30 29 148
f 29 28 145
f 28 27 125
f 1294 27 25
f 3 24 26
f 23 1293 25
f 3 20 24
f 23 22 104
f 102 22 21
f 101 21 19
f 2 18 20
f 16 101 19
f 94 16 15
f 65 15 14
f 11 14 12
f 11 9 62
f 10 13 4
f 8 43 9
f 7 39 8
f 6 5 7
f 5 3 35
f 4 18 1
f 2 20 3
f 1 18 2

