# Blender 5.2.0 LTS
# www.blender.org
mtllib fork_bottom.mtl
o Bottom
v 5.033817 1.078918 0.381102
v 5.684659 2.196320 1.237669
v 5.685977 2.048946 1.237669
v 5.685977 2.048990 1.237669
v 5.299138 1.078843 1.197792
v 5.364322 2.048946 1.237669
v 5.685977 1.837554 1.237669
v 5.037073 1.078918 0.348843
v 5.682636 2.228541 0.974266
v 5.364278 2.048990 1.237669
v 5.016150 1.534003 1.237630
v 5.033817 1.078918 0.578930
v 5.318758 1.837565 1.237673
v 5.318782 2.048946 0.852777
v 5.114596 1.078844 1.205823
v 5.680863 2.220918 1.237669
v 5.033874 1.837532 0.381643
v 5.669650 2.262038 0.974672
v 5.668024 2.262010 1.237669
v 5.065164 1.078918 0.329455
v 5.684190 2.189921 0.796175
v 5.299108 1.078842 1.197849
v 5.045857 2.088326 1.237669
v 5.318782 2.048946 0.387601
v 5.034786 1.174200 0.782618
v 5.318782 1.837554 0.324829
v 5.684404 1.837557 0.416053
v 5.684287 2.142858 0.693532
v 5.037023 1.078915 0.614004
v 5.644308 2.305610 0.923247
v 5.037839 1.124665 0.782618
v 5.645781 2.307285 0.978300
v 5.016196 1.767166 1.237625
v 5.684045 2.048943 0.559905
v 5.645725 2.307690 1.237669
v 5.037519 1.127858 0.782618
v 5.510254 1.078844 1.186547
v 5.678421 2.160709 0.677340
v 5.677125 2.209010 0.777591
v 5.037988 2.093723 1.237669
v 5.034691 1.175438 0.782616
v 5.033760 1.837535 0.586546
v 5.036532 2.048990 0.779584
v 5.318782 1.974377 0.360098
v 5.348543 1.837554 0.321960
v 5.684094 2.048991 0.560180
v 5.683849 2.088073 0.596170
v 5.683605 1.837554 0.405410
v 5.681521 2.120963 0.629982
v 5.630372 2.330006 0.925214
v 5.655420 2.262038 0.776839
v 5.037237 1.837530 0.351128
v 5.683947 1.993301 0.503219
v 5.033802 1.837534 0.875802
v 5.668863 2.212533 0.727381
v 5.027605 2.115545 1.237669
v 5.033792 2.048990 0.727381
v 5.065143 1.078844 1.202784
v 5.361908 1.078918 0.227693
v 5.318781 2.014293 0.372180
v 5.669715 2.163073 0.628465
v 5.037540 1.127858 0.782618
v 5.626629 2.323612 0.834652
v 5.065220 1.760780 0.329737
v 5.611986 2.361312 0.976864
v 5.638044 2.293881 0.776839
v 5.410621 1.837554 0.322806
v 5.636784 2.287376 0.744779
v 5.683484 1.842636 0.405888
v 5.114454 -0.573607 1.205828
v 5.065164 1.104465 0.782618
v 5.631618 2.332147 1.237669
v 5.668252 1.837553 0.380140
v 5.681304 2.025789 0.518440
v 5.034523 1.124294 0.826315
v 5.033792 2.048990 0.464885
v 5.016175 2.163297 1.237669
v 5.677577 2.048991 0.525472
v 5.660207 2.064154 0.480090
v 5.034456 1.674151 0.782618
v 5.655945 2.163073 0.579006
v 5.675662 2.011427 0.483661
v 5.646306 2.215477 0.627880
v 5.587225 2.387939 0.925214
v 5.589962 2.390297 0.976455
v 5.557315 2.048960 0.395385
v 5.622831 2.318588 0.776839
v 5.632061 2.233966 0.611760
v 5.630708 2.280965 0.707905
v 5.590046 2.390436 1.237669
v 5.584906 1.938934 0.355729
v 5.612470 2.360913 1.237669
v 5.034227 1.078915 0.882278
v 5.037827 2.048989 0.405729
v 5.668941 1.861560 0.386049
v 5.016197 2.360790 1.237669
v 5.293153 -1.665334 0.871642
v 5.666496 1.965176 0.430598
v 5.664667 2.048990 0.481092
v 5.636470 2.092474 0.452437
v 5.636875 2.123255 0.484651
v 5.644729 2.049003 0.440235
v 5.642091 1.866257 0.350823
v 5.634815 2.186901 0.551865
v 5.678034 2.048946 0.527941
v 5.639552 2.198306 0.579006
v 5.411282 1.078918 0.223129
v 5.584668 2.385799 0.899816
v 5.291624 2.487840 0.837826
v 5.033804 1.078918 1.123302
v 5.664663 2.048946 0.481152
v 5.598044 2.348157 0.776839
v 5.592274 2.342672 0.738743
v 5.036415 2.211953 0.530133
v 5.114572 1.096222 0.782618
v 5.038051 2.194893 0.500646
v 5.028359 1.807753 1.237624
v 5.036430 1.730518 0.782618
v 5.028415 2.400739 1.237669
v 5.038242 2.388463 0.829373
v 5.038206 2.340063 0.693424
v 5.604458 1.915427 0.351629
v 5.617061 2.048990 0.415343
v 5.034917 1.837534 0.924488
v 5.609388 2.065982 0.418769
v 5.605389 2.110804 0.444333
v 5.036819 1.837534 0.832284
v 5.608984 1.867815 0.341745
v 5.586372 2.139882 0.454024
v 5.587753 2.239692 0.550401
v 5.053608 1.837534 0.341942
v 5.608383 1.837556 0.338298
v 5.622569 2.223014 0.579006
v 5.591684 2.292543 0.642416
v 5.637634 1.899096 0.353511
v 5.065164 1.816739 0.334384
v 5.597782 2.249505 0.579006
v 5.559750 2.368673 0.776839
v 5.651472 1.915427 0.378789
v 5.285066 2.483291 0.804993
v 5.644499 2.048946 0.440099
v 5.266312 2.493593 0.823290
v 5.361908 1.717819 0.229555
v 5.263034 2.500863 0.875755
v 5.644535 1.965176 0.394296
v 5.559747 2.402167 1.237669
v 5.580406 2.334510 0.705743
v 5.038746 1.753930 0.782611
v 5.562242 2.350075 0.724290
v 5.644140 1.837554 0.349389
v 5.038216 2.290004 0.598838
v 5.039693 2.139838 0.454442
v 5.593832 2.048946 0.401389
v 5.044021 2.048990 0.400305
v 5.411323 1.717819 0.224516
v 5.063550 2.418344 1.237669
v 5.182313 2.491854 0.925214
v 5.037868 1.124665 0.782618
v 5.181789 2.493014 0.875755
v 5.183232 2.490917 0.826297
v 5.037605 1.078918 0.830012
v 5.618062 2.048940 0.415950
v 5.039562 2.386601 0.797224
v 5.065100 1.078918 0.637917
v 5.593631 2.049019 0.401146
v 5.637274 1.996196 0.402632
v 5.558710 2.082329 0.408250
v 5.114484 -1.389778 0.318459
v 5.263034 2.327954 0.509581
v 5.247354 2.388129 0.551471
v 5.019309 1.486112 1.237624
v 5.280017 2.382409 0.558705
v 5.037282 1.837533 0.632785
v 5.574635 2.283668 0.609416
v 5.065164 1.837534 0.337341
v 5.252083 2.488420 0.786029
v 5.361908 1.761932 0.244397
v 5.213526 2.499704 0.826297
v 5.213526 2.504565 0.875755
v 5.065094 -0.573607 1.202777
v 5.449821 1.078918 0.241002
v 5.212842 2.500231 0.925109
v 5.450180 1.717298 0.241365
v 5.263034 2.495511 0.925214
v 5.036496 1.078918 1.172629
v 5.246247 2.439005 0.645257
v 5.263296 2.398242 0.576751
v 5.411323 1.764902 0.241659
v 5.187428 2.387181 0.552773
v 5.065135 2.056572 0.395125
v 5.445096 1.757550 0.246753
v 5.339435 1.078918 0.782618
v 5.213526 2.331968 0.508244
v 5.039835 1.078918 1.197937
v 5.066880 2.048995 0.391469
v 5.064235 1.827116 1.237624
v 5.185986 2.487350 0.788452
v 5.185330 2.439005 0.645090
v 5.106838 1.837535 0.330313
v 5.557563 2.048993 0.395261
v 5.037671 1.837534 0.960523
v 5.052295 1.837534 0.815669
v 5.213526 2.307216 0.496381
v 5.213485 2.388506 0.550727
v 5.644160 1.223215 0.348679
v 5.213526 2.440967 0.641163
v 5.213526 2.456710 0.677923
v 5.065164 1.104440 0.782620
v 5.213562 2.481100 0.748716
v 5.633692 1.102747 0.356467
v 5.102848 2.420984 1.237669
v 5.293153 -1.389858 0.670538
v 5.299118 -0.573618 1.197632
v 5.630945 1.078918 0.359633
v 5.039179 1.097484 0.799545
v 5.510307 2.409793 1.237669
v 5.644096 1.837534 0.349391
v 5.114577 2.048990 0.384181
v 5.037671 1.078918 0.829477
v 5.645565 1.816740 0.348405
v 5.031881 1.432447 1.237628
v 5.684158 -1.009572 0.999998
v 5.411323 1.789633 0.262033
v 5.608616 1.837534 0.338321
v 5.065187 1.078918 1.202799
v 5.059484 1.779927 0.782618
v 5.040195 1.837559 0.649932
v 5.559757 1.078844 1.178082
v 5.039810 1.078844 1.197928
v 5.100394 1.831282 1.237624
v 5.670783 1.272675 0.379514
v 5.671230 1.228042 0.386032
v 5.661666 1.172454 0.380982
v 5.647384 1.078918 0.383834
v 5.063377 1.837534 0.809299
v 5.667885 1.837531 0.379566
v 5.299112 1.078844 0.317175
v 5.670336 1.816740 0.379240
v 5.059020 1.779387 0.782593
v 5.411020 1.837534 0.322806
v 5.114661 1.096189 0.782618
v 5.685977 1.837534 0.782618
v 5.039806 -0.573607 1.197905
v 5.055442 1.078918 0.811883
v 5.683615 1.251324 0.405307
v 5.066247 1.405893 1.237624
v 5.674045 1.078916 0.435721
v 5.238663 -0.573636 0.320351
v 5.685977 1.837534 1.237624
v 5.299112 -0.573445 0.317175
v 5.683606 1.837527 0.405157
v 5.114856 1.837534 0.789522
v 5.167299 1.837571 0.783497
v 5.313038 1.837461 0.782618
v 5.114594 1.078844 0.318393
v 5.036480 1.078844 1.172500
v 5.114706 1.799733 0.782618
v 5.339396 1.078918 0.782618
v 5.114594 1.078918 0.799945
v 5.065237 1.078918 0.808152
v 5.683702 1.096754 0.454951
v 5.114680 -0.573607 0.318443
v 5.596803 1.078844 1.159320
v 5.114594 -0.573607 0.318393
v 5.114594 1.078918 1.205865
v 5.684542 1.078918 0.479319
v 5.065097 1.078844 0.329532
v 5.033753 1.078844 1.123083
v 5.685863 1.727418 1.237624
v 5.293069 -2.466013 0.871644
v 5.033753 -0.573607 1.123083
v 5.685977 1.078918 0.782618
v 5.065107 -0.573607 0.329530
v 5.556452 1.464057 1.237644
v 5.033753 1.078844 0.381122
v 5.293153 -1.389858 0.318998
v 5.033753 -0.573607 0.381122
v 5.299138 1.078844 0.317173
v 5.037078 -0.573607 0.348844
v 5.685734 1.078918 0.955714
v 5.299186 -0.573599 0.317111
v 5.037073 1.078844 0.348848
v 5.510213 1.078918 1.186545
v 5.118963 -1.389858 0.666815
v 5.684535 1.684399 1.237624
v 5.683879 1.078918 1.000834
v 5.621530 1.078844 1.127451
v 5.329885 1.078844 0.245611
v 5.590076 1.486242 1.237625
v 5.559793 1.078918 1.178057
v 5.684507 -1.009572 0.495013
v 5.681567 1.663071 1.237625
v 5.674633 1.078918 1.025511
v 5.329887 -0.573607 0.245603
v 5.683442 -0.573607 0.504826
v 5.669189 1.618898 1.237624
v 5.114582 -1.667260 0.871642
v 5.645909 1.571442 1.237624
v 5.647838 1.078918 1.082501
v 5.596791 1.078918 1.159362
v 5.361881 1.078844 0.227772
v 5.621621 1.078918 1.127280
v 5.685977 -1.389963 0.871696
v 5.680366 -1.009572 0.470989
v 5.664911 -1.009572 0.431172
v 5.652277 1.078844 1.073636
v 5.411409 1.078844 0.223091
v 5.293153 -2.461103 0.840557
v 5.675056 1.078844 1.024408
v 5.674620 -1.009572 1.025455
v 5.449707 1.078844 0.240920
v 5.449875 -0.573607 0.241013
v 5.643042 -1.009572 0.390877
v 5.114564 -1.389858 0.318401
v 5.591281 -0.573606 0.350546
v 5.630958 1.078844 0.359633
v 5.293153 -1.744945 0.317479
v 5.683903 1.078844 1.000716
v 5.231017 -1.389810 0.326616
v 5.652235 -1.009572 1.073656
v 5.647430 1.078844 0.383947
v 5.614551 -0.573607 0.381079
v 5.626251 -1.009572 0.366183
v 5.065114 -1.675915 0.871642
v 5.632706 -0.573607 0.408327
v 5.262708 -2.477227 0.871644
v 5.674035 1.078844 0.435639
v 5.671819 -0.573607 0.480068
v 5.604873 -1.009572 0.347710
v 5.291147 -2.464951 0.843161
v 5.065107 -1.389778 0.329505
v 5.293126 -2.417979 0.710014
v 5.307058 -1.389963 0.871696
v 5.684546 1.078844 0.479233
v 5.065180 -0.573607 0.329455
v 5.682380 1.063477 0.464114
v 5.449878 -1.009572 0.240990
v 5.230971 -0.573607 0.326608
v 5.293156 -1.795434 0.321585
v 5.411397 -1.009572 0.223092
v 5.114582 -1.744945 0.319649
v 5.621530 -1.009572 1.127389
v 5.230971 -1.389850 1.229742
v 5.361966 -1.009572 0.227754
v 5.060996 -1.389858 0.654738
v 5.596767 -1.009572 1.159357
v 5.039085 -1.668435 0.853305
v 5.037536 -1.698248 0.871642
v 5.037067 -1.389778 0.348875
v 5.683883 -1.009609 1.000759
v 5.037068 -0.573607 0.348873
v 5.559745 -1.009572 1.178026
v 5.685977 -1.389858 0.871712
v 5.329891 -1.009572 0.245585
v 5.263950 -2.471041 0.826506
v 5.510528 -1.009572 1.186477
v 5.238575 -2.462196 0.752084
v 5.282470 -2.410769 0.661108
v 5.113315 -1.389778 1.241594
v 5.684127 -1.389857 1.001810
v 5.230974 -1.009597 1.200993
v 5.065111 -1.389858 0.329469
v 5.065111 -1.738501 0.329787
v 5.115115 -1.796811 0.325613
v 5.114281 -1.959145 0.357661
v 5.033762 -1.389778 0.381095
v 5.065114 -1.794420 0.334242
v 5.052570 -1.389858 0.648295
v 5.033762 -0.573607 0.381095
v 5.038425 -1.389858 0.630501
v 5.037460 -1.698996 0.871642
v 5.114462 -0.573607 1.205913
v 5.065107 -1.389778 1.243017
v 5.036952 -1.389858 0.622364
v 5.213156 -2.481400 0.871643
v 5.213491 -2.477453 0.826289
v 5.213491 -2.434389 0.677861
v 5.031081 -1.389778 1.172510
v 5.249856 -2.416651 0.645528
v 5.033762 -0.573607 1.123092
v 5.264991 -2.402973 0.628765
v 5.678672 -1.389858 1.024801
v 5.293175 -2.369529 0.588607
v 5.064958 -0.573607 1.202729
v 5.293178 -1.389963 0.670499
v 5.038857 -1.881722 0.354532
v 5.039804 -0.573607 1.197852
v 5.037218 -1.825989 0.351447
v 5.059492 -1.389778 1.241750
v 5.293178 -1.665349 0.871696
v 5.075653 -1.930343 0.353935
v 5.061945 -1.886267 0.348412
v 5.033233 -1.389778 1.220209
v 5.679305 -1.653577 1.321126
v 5.036479 -0.573607 1.172484
v 5.293153 -1.952404 0.359309
v 5.114784 -1.992259 0.367427
v 5.034360 -1.751268 0.871642
v 5.033862 -1.389858 0.581579
v 5.685977 -1.939794 0.871705
v 5.218190 -2.466233 0.773829
v 5.684515 -1.009609 0.495012
v 5.183171 -2.468477 0.826289
v 5.185965 -2.464844 0.788368
v 5.205854 -2.460035 0.753989
v 5.684669 -1.389963 0.402299
v 5.674620 -1.009609 1.025486
v 5.185254 -2.416544 0.645040
v 5.213491 -2.418574 0.641351
v 5.664048 -1.389856 1.069010
v 5.307063 -1.389858 0.871712
v 5.246986 -2.365787 0.551622
v 5.263289 -2.376152 0.576468
v 5.279974 -2.359910 0.558240
v 5.293161 -2.328077 0.542379
v 5.384084 -1.939796 1.321073
v 5.037079 -1.389858 0.348836
v 5.684707 -1.389857 0.402280
v 5.042666 -1.914635 0.358872
v 5.684326 -1.267595 0.403075
v 5.038061 -2.023192 0.401350
v 5.065114 -1.992213 0.378022
v 5.293252 -1.994963 0.372505
v 5.065114 -2.033994 0.395111
v 5.683412 -1.066924 0.458468
v 5.213581 -2.310143 0.508733
v 5.181825 -2.470400 0.871642
v 5.039323 -2.364494 0.798652
v 5.680366 -1.009609 0.470915
v 5.038138 -2.317894 0.693959
v 5.652207 -1.009609 1.073686
v 5.038206 -2.267546 0.598856
v 5.293178 -1.389963 0.318961
v 5.187412 -2.364718 0.552707
v 5.213480 -2.366363 0.551250
v 5.671548 -1.389858 0.377560
v 5.684452 -1.685987 1.321127
v 5.262767 -2.304396 0.508809
v 5.263289 -2.341423 0.536703
v 5.671547 -1.299662 0.377797
v 5.033753 -1.389858 0.381114
v 5.033765 -1.992214 0.430747
v 5.673373 -1.245910 0.384793
v 5.039695 -2.117343 0.454406
v 5.668207 -1.200720 0.381147
v 5.038171 -2.172589 0.500627
v 5.683394 -1.226114 0.406958
v 5.033857 -2.336117 0.871642
v 5.037359 -2.367603 0.871642
v 5.684308 -2.120412 0.693856
v 5.664911 -1.009609 0.431204
v 5.313298 -1.939794 0.871702
v 5.291730 -2.271218 0.501820
v 5.646837 -1.389858 0.347447
v 5.293153 -2.273248 0.504913
v 5.033805 -1.389857 1.038480
v 5.646542 -1.257680 0.347526
v 5.037500 -1.698538 0.871709
v 5.644245 -1.200720 0.348531
v 5.033931 -2.239481 0.628385
v 5.662060 -1.151286 0.381147
v 5.684030 -1.973538 0.505723
v 5.643042 -1.009609 0.390902
v 5.623090 -1.009610 1.125202
v 5.683924 -1.820143 0.404852
v 5.449878 -1.389858 0.241026
v 5.449878 -1.009609 0.241026
v 5.633801 -1.081154 0.356462
v 5.329889 -1.389963 0.245628
v 5.626251 -1.009609 0.366169
v 5.657043 -1.596676 1.321127
v 5.293178 -2.461072 0.840586
v 5.596749 -1.009609 1.159322
v 5.411397 -1.389858 0.223092
v 5.411397 -1.009609 0.223092
v 5.114579 -1.936672 0.871712
v 5.604873 -1.009609 0.347743
v 5.684045 -2.167230 0.799079
v 5.681654 -2.098282 0.630468
v 5.580733 -1.377797 1.195760
v 5.038541 -1.389858 0.898307
v 5.596879 -1.389851 1.182849
v 5.683921 -2.068166 0.600354
v 5.361902 -1.389858 0.227725
v 5.361915 -1.009609 0.227723
v 5.065164 -1.389858 0.889687
v 5.559687 -1.009609 1.178048
v 5.678351 -2.138110 0.677124
v 5.329988 -1.009609 0.245579
v 5.033803 -1.695253 1.038479
v 5.114579 -1.389858 0.881965
v 5.513208 -1.389859 1.217499
v 5.329891 -1.389858 0.245657
v 5.509703 -1.009609 1.186486
v 5.671559 -1.389963 0.377624
v 5.230916 -1.009591 0.326700
v 4.992295 -1.538255 1.321126
v 5.065164 -1.924775 0.871712
v 5.038742 -2.062499 0.871692
v 5.670175 -1.794459 0.378894
v 5.361920 -1.389963 0.227727
v 5.034647 -1.745142 0.871712
v 4.999763 -1.496551 1.321127
v 5.329879 -1.693742 0.245941
v 5.684593 -1.507689 1.038478
v 5.293179 -1.795190 0.321503
v 5.037734 -2.065872 1.321154
v 5.293179 -2.418416 0.711563
v 5.031144 -1.389858 1.172595
v 5.559748 -2.346179 0.776780
v 5.597929 -2.325643 0.776780
v 5.684687 -2.173795 1.321154
v 5.045424 -1.747853 1.038470
v 5.645717 -1.389856 1.112033
v 5.050735 -1.915678 0.871712
v 5.678469 -2.039261 0.541602
v 5.684687 -2.179465 0.931121
v 5.034008 -1.798596 0.871712
v 5.681287 -2.003289 0.518380
v 5.035221 -1.389858 0.925245
v 5.678903 -2.194743 0.826301
v 5.677173 -2.186213 0.778558
v 5.668714 -2.190004 0.727322
v 5.630766 -1.389860 1.142512
v 5.674226 -1.389857 1.038479
v 5.669752 -2.140614 0.628406
v 5.638704 -1.564216 1.321127
v 5.646836 -1.389963 0.347404
v 5.036406 -1.739354 1.038486
v 5.684675 -2.173012 0.871696
v 5.645452 -1.794459 0.348483
v 5.675673 -1.988967 0.483715
v 5.680787 -1.942736 0.469684
v 5.038222 -1.873905 0.905866
v 5.681311 -1.866001 0.420684
v 5.669060 -1.840585 0.385624
v 5.036623 -1.895627 0.871712
v 5.641914 -1.843850 0.350959
v 5.033817 -1.847905 0.871712
v 5.361926 -1.695468 0.229124
v 5.332281 -1.731273 0.250392
v 5.033817 -1.794343 0.875777
v 5.034966 -1.389858 0.934012
v 5.562401 -2.327644 0.724148
v 5.592277 -2.320101 0.738292
v 5.680842 -2.198611 1.321151
v 5.622652 -2.296051 0.776780
v 4.992224 -1.744872 1.321127
v 5.655948 -2.140614 0.578948
v 5.660216 -2.041622 0.480032
v 5.682239 -2.204263 0.930214
v 5.655525 -2.239500 0.776780
v 5.024520 -1.465231 1.321127
v 5.646297 -2.192953 0.627835
v 5.449898 -1.389963 0.240996
v 5.449862 -1.694949 0.241143
v 5.033249 -1.389858 1.220215
v 5.035163 -2.091178 0.871696
v 5.667483 -1.942736 0.430574
v 4.992544 -2.129761 1.321155
v 5.651873 -1.892397 0.379148
v 5.621927 -1.539400 1.321127
v 5.637839 -1.875232 0.353689
v 5.010508 -2.091762 1.321154
v 5.411410 -1.389963 0.223092
v 5.667992 -2.239669 1.321154
v 5.411410 -1.695468 0.224108
v 5.361926 -1.739698 0.243980
v 5.293178 -1.992231 0.371466
v 5.012719 -1.788747 1.321106
v 5.293179 -1.953298 0.359538
v 5.669269 -2.239538 0.974734
v 5.667978 -2.239538 0.925283
v 5.293176 -2.369681 0.588728
v 5.580626 -2.312164 0.705545
v 5.060898 -1.389853 1.242431
v 5.591853 -2.270250 0.642056
v 5.680351 -2.198045 0.871694
v 5.632078 -2.211424 0.611664
v 5.630274 -2.256943 0.703115
v 5.597271 -1.511031 1.321127
v 5.636484 -2.265553 0.744619
v 5.645836 -2.285012 1.321154
v 5.627543 -2.303644 0.871696
v 5.637992 -2.271303 0.776780
v 5.645603 -2.285150 0.978345
v 5.634794 -2.164680 0.552025
v 5.025291 -1.788558 1.263511
v 5.639607 -2.175787 0.578948
v 5.631925 -2.305050 0.924448
v 5.636493 -2.069950 0.452414
v 5.642519 -2.041472 0.444941
v 5.033951 -2.337306 0.871696
v 4.992145 -2.338435 1.321154
v 5.631605 -2.309795 1.321154
v 5.645413 -1.942736 0.394386
v 5.038547 -1.772165 1.138396
v 5.638185 -1.974855 0.402131
v 5.592891 -2.028142 0.401623
v 5.631360 -2.309937 0.978237
v 5.065523 -1.458087 1.321127
v 5.411410 -1.742647 0.241250
v 5.293178 -2.039410 0.392862
v 5.574820 -2.261299 0.609042
v 5.587932 -2.217595 0.551203
v 5.642603 -2.278554 0.871696
v 5.597813 -2.227073 0.578948
v 5.622536 -2.200535 0.578948
v 5.568649 -1.389856 1.204643
v 5.559575 -1.490091 1.321127
v 5.586464 -2.118188 0.454533
v 5.605426 -2.088274 0.444288
v 5.609309 -2.043517 0.418829
v 5.612420 -2.338603 1.321154
v 5.559682 -2.060420 0.408727
v 5.293178 -2.273304 0.504920
v 5.293178 -2.327909 0.542168
v 5.612300 -2.338320 0.977046
v 5.587774 -2.366037 0.935842
v 5.560252 -1.389855 1.207641
v 5.012613 -2.380681 1.321154
v 5.037405 -2.367628 0.871696
v 5.506188 -1.479002 1.321127
v 5.590074 -2.367999 1.321154
v 5.589948 -2.367794 0.978286
v 5.583144 -2.362683 0.902744
v 5.602868 -2.334024 0.871697
v 5.263036 -2.477677 0.875788
v 5.263348 -2.477182 0.871694
v 5.182134 -2.470622 0.871706
v 5.182279 -2.469453 0.925283
v 5.065116 -2.399995 1.321154
v 5.559781 -2.379726 1.321154
v 5.573861 -2.358934 0.871695
v 5.263036 -2.472849 0.925283
v 5.213522 -2.477677 0.925283
v 5.213514 -2.481674 0.871724
v 5.510267 -2.387420 1.321154
v 5.384064 -1.939794 1.038480
v 5.293178 -1.948743 0.871696
v 5.293179 -2.465706 0.871696
v 5.608709 -1.389856 1.170823
v 5.230972 -1.389858 0.875765
v 5.230972 -0.573607 0.326654
v 5.647071 -0.573607 0.432866
v 5.231054 -0.573628 1.200726
vn -0.3446 -0.9367 0.0624
vn 0.6124 -0.0031 -0.7906
vn 0.0512 0.5896 -0.8061
vn -0.9037 0.4272 -0.0290
vn -0.9889 0.1234 -0.0832
vn -0.6891 0.7247 0.0039
vn -0.4248 -0.9051 0.0209
vn -0.3321 -0.9430 0.0215
vn 0.0277 -0.9789 0.2025
vn 0.0959 -0.9837 0.1524
vn 1.0000 -0.0019 -0.0001
vn 0.0891 -0.9896 -0.1130
vn 0.0837 0.9917 0.0978
vn -0.8982 -0.4352 -0.0622
vn -0.5789 -0.8135 -0.0556
vn -0.9962 0.0469 -0.0728
vn 0.3476 -0.9128 -0.2141
vn 0.3459 -0.9274 -0.1424
vn 0.7170 -0.6764 -0.1688
vn 0.9882 -0.1531 0.0057
vn -1.0000 0.0021 -0.0057
vn -0.9893 -0.1127 -0.0923
vn 0.6263 -0.7293 -0.2753
vn -0.0030 1.0000 0.0072
vn 0.8901 0.4151 -0.1882
vn -0.0000 1.0000 -0.0000
vn 0.3962 0.1708 -0.9022
vn -1.0000 -0.0000 -0.0000
vn 0.9796 0.1556 0.1276
vn -0.8136 -0.5573 -0.1656
vn -0.8960 -0.4185 -0.1482
vn -0.4685 -0.8682 -0.1634
vn -0.1299 0.7454 0.6539
vn 0.8400 0.4078 0.3579
vn -0.9414 0.3348 0.0416
vn -0.9661 0.2575 -0.0192
vn -0.4180 0.7448 0.5201
vn 0.7962 0.1061 -0.5957
vn 0.3810 0.6859 0.6199
vn 0.4530 0.6711 0.5869
vn 0.5562 0.6258 0.5468
vn 0.3392 0.9378 -0.0740
vn 0.7380 0.4990 0.4542
vn -0.4384 -0.8933 -0.0986
vn -0.7408 -0.6515 -0.1638
vn -0.7296 0.5767 0.3676
vn -0.9830 0.1760 -0.0519
vn 0.7992 -0.5961 -0.0774
vn 0.7727 0.0019 -0.6348
vn -0.4571 0.8888 0.0340
vn 0.2303 0.7287 0.6450
vn -0.4865 -0.0000 -0.8737
vn 0.4221 -0.0000 -0.9065
vn -0.3070 0.0827 -0.9481
vn 0.9702 0.0755 0.2302
vn -0.1540 0.0712 -0.9855
vn -0.7581 -0.5336 0.3748
vn -0.9770 -0.1562 0.1450
vn -0.2202 -0.9147 0.3387
vn -0.9923 0.0200 -0.1223
vn 0.9740 -0.1249 -0.1892
vn -0.8294 0.0507 -0.5564
vn -0.9963 -0.0543 -0.0667
vn -0.5535 -0.5884 0.5894
vn 0.7903 -0.0000 0.6127
vn -0.0000 -0.0000 1.0000
vn 1.0000 -0.0003 0.0005
vn -0.9964 0.0502 0.0687
vn 0.8885 0.3429 0.3049
vn 0.8641 0.3748 -0.3359
vn 0.4829 -0.0006 -0.8757
vn -0.9978 0.0115 -0.0650
vn -0.7091 -0.2066 -0.6742
vn -0.2948 -0.3655 -0.8829
vn 0.8825 -0.0044 -0.4704
vn 0.2865 -0.7132 -0.6398
vn 0.3171 -0.8783 -0.3579
vn 0.4653 -0.8651 -0.1876
vn 0.6623 -0.6416 -0.3868
vn 0.1852 -0.3892 -0.9024
vn 0.0390 -0.4516 -0.8914
vn -0.4756 0.0675 -0.8771
vn -0.1692 -0.4071 -0.8976
vn 0.8691 0.1491 -0.4716
vn 0.6482 -0.7548 -0.1004
vn 0.7653 0.6016 -0.2290
vn 0.7990 0.5967 -0.0747
vn 0.3397 -0.7858 -0.5168
vn 0.2716 -0.6689 -0.6920
vn 0.3840 -0.8240 -0.4167
vn 0.8355 -0.0991 -0.5405
vn 0.4494 -0.0768 -0.8900
vn 0.6424 -0.5608 -0.5224
vn 0.7963 0.1417 -0.5881
vn -0.2797 -0.1423 -0.9495
vn 0.7806 -0.0975 -0.6173
vn 0.5372 -0.5839 -0.6086
vn -0.1961 -0.3447 -0.9180
vn 0.3450 0.8342 -0.4302
vn 0.4869 -0.7464 -0.4536
vn 0.5440 -0.7155 -0.4382
vn 0.8756 -0.4788 -0.0639
vn 0.6872 -0.6438 -0.3365
vn 0.8036 -0.4856 -0.3440
vn 0.8906 -0.4142 -0.1878
vn 0.5591 0.1118 -0.8215
vn 0.7349 -0.5496 -0.3973
vn -0.1887 -0.0000 0.9820
vn -0.5883 -0.0031 -0.8086
vn 0.1053 0.9832 -0.1492
vn 0.0562 0.4372 -0.8976
vn -0.4661 -0.1336 -0.8746
vn -0.2834 -0.3054 -0.9091
vn -0.5639 0.5937 -0.5741
vn 0.9263 0.3711 -0.0647
vn 0.8773 0.4053 -0.2572
vn 0.8917 0.4527 0.0025
vn 0.6948 -0.3126 -0.6478
vn 0.7496 -0.2780 -0.6007
vn -0.1052 -0.8633 -0.4936
vn 0.4984 -0.5464 -0.6731
vn 0.5291 -0.4040 -0.7462
vn 0.4711 -0.4667 -0.7485
vn 0.7648 -0.6023 -0.2289
vn 0.9723 -0.2290 -0.0477
vn -0.4764 -0.0025 -0.8792
vn -0.0153 0.7852 -0.6190
vn 0.7417 -0.6062 -0.2871
vn 0.0207 0.8648 -0.5017
vn 0.3484 -0.8204 -0.4534
vn 0.4399 -0.7833 -0.4393
vn 0.3794 -0.8592 -0.3433
vn 0.5710 -0.7279 -0.3796
vn 0.1253 -0.9809 -0.1486
vn -0.2993 0.4986 -0.8135
vn 0.9848 -0.1700 -0.0345
vn 0.9053 -0.2413 -0.3495
vn 0.0400 0.0436 0.9982
vn 0.8910 -0.0135 -0.4538
vn 0.9790 -0.1762 -0.1025
vn 0.9397 0.3109 -0.1425
vn 1.0000 0.0002 -0.0063
vn -0.9945 0.0003 -0.1049
vn -0.4683 -0.0664 -0.8811
vn 0.0360 0.7563 0.6533
vn 0.9448 0.0096 0.3274
vn 0.2770 0.0960 -0.9561
vn 0.8687 -0.4789 -0.1264
vn 0.4777 -0.0025 -0.8785
vn -0.0932 -0.0000 -0.9956
vn -0.6335 -0.0000 -0.7737
vn -0.0001 -1.0000 -0.0000
vn 0.8773 -0.4056 -0.2567
vn 0.5529 0.0582 0.8312
vn 0.6452 0.0474 0.7626
vn 0.4498 0.0729 0.8902
vn 0.9449 -0.2640 -0.1936
vn 0.5104 0.0357 -0.8592
vn 0.9730 0.0013 0.2309
vn 0.8030 -0.0947 -0.5883
vn 0.7701 -0.3087 -0.5583
vn 0.8290 0.0416 -0.5577
vn 0.9947 0.0315 -0.0977
vn 0.9082 0.1207 -0.4008
vn 0.0599 0.2121 -0.9754
vn 0.9816 0.0888 -0.1690
vn 0.5384 -0.1009 -0.8366
vn -0.0970 -0.0039 -0.9953
vn 0.7896 0.0436 0.6121
vn 1.0000 0.0017 -0.0024
vn 0.8699 0.0399 0.4917
vn 0.9214 0.1219 -0.3690
vn 0.4105 -0.5276 -0.7438
vn -0.1066 0.8631 -0.4937
vn 0.8514 0.5245 -0.0071
vn 0.6435 0.1692 -0.7465
vn -0.4884 -0.0000 -0.8726
vn -0.2195 -0.0000 -0.9756
vn -0.9948 -0.0000 -0.1021
vn -0.0000 -1.0000 -0.0000
vn -0.5675 -0.0000 -0.8234
vn -0.0940 -0.0000 -0.9956
vn 0.9998 -0.0149 -0.0126
vn -0.6340 0.0263 0.7729
vn 0.0201 0.2780 -0.9604
vn -0.9914 0.0115 0.1300
vn -0.0641 0.0492 0.9967
vn -0.9947 -0.0000 -0.1024
vn 0.1536 0.9881 -0.0000
vn 0.8671 -0.4981 -0.0004
vn -0.0006 1.0000 -0.0000
vn 0.9295 -0.1354 0.3430
vn 0.8270 -0.1478 -0.5424
vn -1.0000 0.0002 0.0009
vn 0.4135 -0.0018 -0.9105
vn -0.0325 -0.9768 -0.2118
vn -0.0784 -0.9644 -0.2525
vn -0.3050 -0.9029 -0.3028
vn 0.9952 -0.0982 -0.0002
vn -0.1036 0.5919 0.7994
vn -0.1640 0.5945 0.7872
vn -0.7013 0.4442 0.5575
vn -0.9835 -0.1272 -0.1284
vn 0.0836 -0.9928 -0.0858
vn 0.0208 0.3884 -0.9212
vn 0.3229 -0.8821 -0.3429
vn 0.3407 -0.8553 -0.3903
vn -0.3309 -0.9424 -0.0498
vn 0.3481 -0.5609 -0.7511
vn 0.8559 -0.2828 -0.4329
vn 0.0517 -0.1374 0.9892
vn -0.1956 0.0481 0.9795
vn -0.5574 -0.7876 -0.2626
vn -0.5664 -0.8154 -0.1199
vn 0.4093 0.0011 -0.9124
vn 0.9483 -0.3174 0.0058
vn -0.4008 0.4950 0.7709
vn -0.9363 0.2180 0.2753
vn -0.9742 0.1407 0.1763
vn -0.9869 0.1001 0.1262
vn -0.3639 0.5595 0.7447
vn -0.5177 0.5232 0.6770
vn 0.9548 -0.1814 -0.2354
vn -0.1986 -0.9226 -0.3307
vn -0.1171 -0.9113 -0.3947
vn -0.0812 -0.9421 -0.3255
vn -0.2535 -0.9630 0.0913
vn 0.7036 -0.4008 -0.5868
vn 0.8033 -0.2563 -0.5376
vn 0.2594 -0.4106 -0.8741
vn 0.7048 -0.5281 -0.4737
vn -0.0000 -0.0000 -1.0000
vn 0.2591 -0.6245 -0.7368
vn 0.0693 -0.5826 -0.8098
vn 0.1629 -0.5922 -0.7892
vn 0.0204 -0.8650 -0.5013
vn 0.1009 -0.8735 -0.4762
vn -0.2098 -0.0777 -0.9746
vn 0.2860 0.6608 -0.6940
vn -0.2097 -0.0022 -0.9778
vn -0.5988 -0.7342 -0.3200
vn -0.5868 0.0015 -0.8097
vn -0.3760 -0.6574 0.6530
vn -0.4782 -0.5558 -0.6800
vn -0.9810 -0.1080 -0.1614
vn -0.0823 -0.6011 -0.7950
vn 0.0192 -0.6031 -0.7974
vn -0.1189 -0.2826 -0.9519
vn 0.8164 -0.5482 -0.1814
vn 0.4332 -0.8580 -0.2760
vn 0.3422 -0.9123 -0.2251
vn 0.8618 -0.5013 -0.0769
vn 0.3459 -0.9365 -0.0583
vn 0.2876 -0.9499 -0.1223
vn 0.1719 -0.8640 -0.4732
vn 0.2488 -0.8250 -0.5074
vn 0.2759 -0.8516 -0.4457
vn 0.3330 -0.8346 -0.4389
vn 0.0213 -0.2901 -0.9567
vn 0.9998 0.0049 0.0167
vn 0.3534 -0.9205 -0.1666
vn 0.7926 -0.1763 -0.5836
vn 0.8925 -0.1324 -0.4311
vn 0.0699 -0.0000 -0.9976
vn -0.2818 -0.3060 -0.9094
vn 0.8526 -0.4735 -0.2210
vn -0.2342 -0.1922 -0.9530
vn -0.3677 -0.3328 -0.8684
vn -0.8421 -0.1651 -0.5134
vn 0.8480 0.0978 -0.5210
vn 0.8538 0.4720 -0.2198
vn 0.6411 -0.7267 -0.2468
vn 0.7308 -0.6341 -0.2527
vn -0.3701 -0.4610 -0.8066
vn 0.0178 -0.2336 -0.9722
vn 0.8506 -0.5182 -0.0893
vn 1.0000 0.0001 -0.0003
vn 0.4224 -0.0000 -0.9064
vn 0.8868 0.0637 -0.4578
vn 0.5671 -0.0000 -0.8236
vn 0.7964 -0.6047 -0.0007
vn 0.9854 0.0062 -0.1699
vn 0.9320 0.0215 -0.3618
vn 0.6536 0.0253 -0.7564
vn -0.5788 -0.8139 -0.0508
vn 0.7947 0.0420 -0.6056
vn -0.1169 -0.7028 -0.7017
vn 0.3185 -0.8997 -0.2984
vn 0.9047 0.0333 -0.4247
vn -0.2177 -0.0000 -0.9760
vn -0.0697 -0.1054 0.9920
vn 0.4760 0.0004 -0.8795
vn -0.6338 -0.0000 -0.7735
vn -0.9915 -0.0000 0.1298
vn 0.0001 -1.0000 -0.0000
vn -0.9894 0.0001 -0.1454
vn -0.9968 -0.0587 0.0537
vn -0.1399 -0.9659 -0.2179
vn -0.0066 -0.0000 -1.0000
vn 0.9679 0.0933 -0.2334
vn 0.9903 -0.0028 -0.1390
vn 0.9587 -0.0065 -0.2844
vn 0.8301 -0.0155 -0.5574
vn -0.0169 -0.0980 -0.9950
vn 0.5479 -0.0000 -0.8365
vn 0.8629 -0.0151 -0.5051
vn -0.9954 0.0591 0.0753
vn 0.0004 -1.0000 -0.0001
vn -0.9985 -0.0000 0.0551
vn 0.0475 0.0785 0.9958
vn 0.1689 -0.0000 0.9856
vn 0.9222 -0.2864 -0.2598
vn -0.9579 0.2871 0.0092
vn 0.4431 -0.1865 0.8769
vn 0.1667 -0.1548 0.9738
vn -0.9975 -0.0619 0.0330
vn -0.4735 0.8773 0.0784
vn -0.9079 0.4187 0.0208
vn -0.6977 0.7144 0.0533
vn 0.3523 -0.1728 0.9198
vn -0.9993 -0.0383 -0.0018
vn 0.6619 0.5913 -0.4608
vn 0.0112 -0.0950 0.9954
vn 0.2308 0.3559 -0.9056
vn -0.1143 0.9923 0.0483
vn -0.1114 0.2224 -0.9686
vn -0.3263 0.4146 -0.8495
vn -0.6821 0.3618 -0.6354
vn 0.2410 -0.1580 0.9576
vn -0.1871 -0.1138 0.9757
vn 0.8465 0.5324 -0.0042
vn -0.9800 0.1437 -0.1375
vn -0.9750 0.0964 -0.2001
vn 0.9325 0.2494 -0.2613
vn -0.4658 -0.1091 0.8781
vn -0.9971 -0.0523 0.0544
vn -0.3729 -0.5034 -0.7795
vn -0.0543 -0.7071 -0.7050
vn 0.7672 0.6317 -0.1111
vn 0.0025 -0.7239 -0.6899
vn 0.8929 -0.1630 0.4198
vn 0.8487 -0.1810 0.4969
vn 0.7759 -0.1931 0.6005
vn 0.6908 -0.1936 0.6966
vn -0.4760 -0.7364 -0.4808
vn 0.0298 0.4064 -0.9132
vn 0.0406 0.3478 -0.9367
vn -0.0615 -0.0000 0.9981
vn 1.0000 -0.0000 -0.0000
vn -0.0759 -0.9867 0.1440
vn 0.8041 0.0458 -0.5928
vn -0.5804 -0.7852 0.2158
vn 0.9090 0.0248 0.4160
vn -0.9491 -0.3027 0.0867
vn 0.9214 0.2923 -0.2561
vn -0.3221 0.0016 -0.9467
vn 0.8008 0.4465 0.3992
vn 0.5398 -0.1717 -0.8241
vn -0.9973 -0.0080 -0.0732
vn 0.2113 0.3344 -0.9184
vn -0.1744 0.9168 0.3593
vn -0.3069 0.8558 0.4163
vn -0.9992 -0.0000 -0.0389
vn 0.1426 0.6294 -0.7639
vn 0.2681 0.4356 -0.8593
vn 0.2330 0.4872 -0.8416
vn 0.7689 -0.6311 -0.1027
vn -0.5913 0.7052 -0.3911
vn -0.3087 0.0784 -0.9479
vn 0.8471 0.1080 -0.5203
vn -0.0839 0.3298 -0.9403
vn 0.3343 -0.9406 -0.0589
vn 0.4499 0.0740 -0.8900
vn -0.7297 0.5820 0.3589
vn 0.3591 0.9118 -0.1994
vn -0.1149 0.9660 -0.2317
vn 0.9667 -0.2352 -0.1014
vn -0.2108 0.3117 -0.9265
vn -0.2898 0.1348 -0.9475
vn 0.0485 0.7846 -0.6182
vn 0.8671 0.2139 -0.4499
vn -0.9489 0.2716 0.1608
vn -0.3667 0.1310 -0.9211
vn -0.9952 -0.0914 -0.0359
vn -0.1451 0.4882 -0.8606
vn 0.9377 -0.2642 -0.2258
vn 0.9263 -0.1147 -0.3588
vn 0.8927 -0.4507 -0.0003
vn 0.1579 -0.5623 -0.8117
vn 0.1847 0.0791 0.9796
vn -0.4080 0.9130 0.0060
vn 0.8721 -0.0621 -0.4853
vn -0.0003 -1.0000 -0.0000
vn -0.0000 1.0000 0.0001
vn 0.7686 -0.0010 -0.6397
vn 0.0001 1.0000 -0.0000
vn -0.9711 0.2093 0.1149
vn -0.0929 0.2485 -0.9642
vn 0.1510 0.3685 -0.9173
vn -0.9995 0.0124 -0.0277
vn 0.3234 -0.9462 -0.0045
vn 1.0000 -0.0000 0.0001
vn 0.9664 0.2332 -0.1077
vn -0.0968 0.0025 -0.9953
vn 0.8595 -0.3803 -0.3415
vn 0.8584 -0.2166 -0.4650
vn 0.9609 0.2099 -0.1807
vn 0.0776 0.1113 -0.9907
vn 0.1606 0.2152 -0.9633
vn -0.9956 0.0830 -0.0427
vn 0.8630 0.2747 -0.4239
vn 0.9778 0.1487 -0.1477
vn -0.1298 -0.4362 -0.8905
vn 0.7840 0.0867 -0.6147
vn -0.9003 -0.4329 0.0454
vn 0.8064 0.1858 -0.5615
vn 0.4742 0.3907 -0.7890
vn 0.5309 0.3841 -0.7554
vn 0.6191 0.3966 -0.6778
vn 0.7790 0.0930 -0.6201
vn -0.4782 0.3918 -0.7860
vn 0.8845 0.0091 -0.4664
vn -0.0117 0.5918 0.8060
vn 0.7479 0.2904 -0.5970
vn 0.6760 0.3346 -0.6566
vn 0.7222 0.3321 -0.6068
vn 0.6615 -0.5912 -0.4615
vn -0.5684 -0.0000 -0.8228
vn 0.7963 0.6049 -0.0006
vn 1.0000 0.0058 -0.0021
vn -0.5641 -0.5937 -0.5738
vn 0.0914 0.9764 0.1955
vn 0.3283 0.4939 -0.8052
vn 0.3323 -0.4943 -0.8033
vn 0.1842 0.5561 -0.8105
vn -0.0929 0.5981 -0.7960
vn -0.2825 -0.9543 -0.0975
vn 0.5398 0.3937 -0.7440
vn -0.0653 0.9725 0.2236
vn 0.8799 0.4702 -0.0687
vn -0.3419 0.9394 0.0256
vn -0.9558 0.2923 -0.0318
vn -0.2281 0.9221 -0.3125
vn 0.1915 0.8637 -0.4662
vn -0.5915 -0.7050 -0.3913
vn -0.5637 -0.8219 0.0821
vn -0.9724 -0.2328 0.0186
vn 0.1642 -0.9805 0.1075
vn 0.1116 0.8741 -0.4728
vn 0.1038 0.9143 -0.3916
vn -0.1180 0.9128 -0.3909
vn 0.8312 -0.5559 -0.0035
vn -0.5989 0.7336 -0.3211
vn -0.5575 0.7874 -0.2630
vn 0.2129 0.5950 -0.7750
vn 0.2549 0.8316 -0.4934
vn 0.4988 0.5496 -0.6702
vn 0.4711 0.4684 -0.7475
vn 0.0261 -0.4022 -0.9152
vn -0.2980 -0.4982 -0.8142
vn 0.8927 0.0002 -0.4506
vn 0.4470 0.8692 -0.2116
vn 0.0850 -0.9927 0.0850
vn 0.9324 0.3614 0.0058
vn 0.5182 0.8320 -0.1983
vn 0.9700 -0.1745 -0.1693
vn 0.8433 0.5192 -0.1385
vn 0.1507 0.9773 0.1488
vn 0.1956 0.9750 0.1055
vn 0.0742 0.9925 -0.0975
vn -0.3385 0.3446 -0.8756
vn -0.3646 0.4638 -0.8074
vn -0.9883 -0.1523 -0.0000
vn 0.1461 0.7429 0.6532
vn -0.3416 0.9385 -0.0497
vn 0.4075 -0.1385 -0.9026
vn -0.5677 0.8147 -0.1181
vn 0.6718 0.6467 -0.3612
vn 0.9408 0.2695 -0.2053
vn 0.5331 0.5839 -0.6123
vn 0.3511 0.7865 -0.5081
vn 0.6506 0.5662 0.5061
vn 0.9227 -0.3771 -0.0795
vn 0.6105 0.5688 -0.5512
vn 0.6476 0.5631 -0.5133
vn 0.0265 0.9667 0.2545
vn -0.0001 0.0006 -1.0000
vn 0.6340 0.3183 -0.7048
vn 0.9967 0.0415 -0.0695
vn 0.9544 0.2982 0.0151
vn -0.1565 -0.9726 0.1718
vn -0.9956 0.0035 -0.0934
vn 0.9188 0.3743 -0.1249
vn 1.0000 0.0032 -0.0004
vn 0.8703 0.4749 -0.1305
vn 0.9529 0.2979 -0.0563
vn -0.2611 -0.6828 -0.6823
vn -0.9889 -0.0632 0.1344
vn 0.7209 0.6807 -0.1300
vn -0.0044 0.0004 -1.0000
vn 0.7750 -0.0045 -0.6320
vn 0.8284 0.1524 -0.5389
vn -1.0000 0.0006 0.0022
vn -0.5796 0.8138 -0.0419
vn 1.0000 -0.0000 -0.0001
vn -0.8964 -0.0018 -0.4432
vn -0.0834 -0.3292 -0.9406
vn 0.3790 0.8573 -0.3483
vn 0.4834 0.7500 -0.4514
vn 0.4430 0.7816 -0.4391
vn 0.5645 0.7308 -0.3838
vn 0.3333 0.8870 -0.3196
vn 0.7429 0.6054 -0.2855
vn 0.3252 0.9456 -0.0054
vn 0.7365 0.5479 -0.3966
vn 0.4804 0.3766 -0.7921
vn 0.9882 0.1525 0.0111
vn -0.9917 0.1073 0.0710
vn 0.8040 0.4850 -0.3441
vn -0.8131 -0.1330 -0.5667
vn -0.1269 0.4345 -0.8917
vn -0.2623 0.9576 0.1194
vn 0.1050 -0.9169 -0.3850
vn -0.4786 0.5560 -0.6796
vn -0.6081 0.3848 -0.6944
vn -0.9807 0.1075 -0.1630
vn 0.8683 -0.0000 0.4961
vn 0.5405 0.7194 -0.4363
vn 0.9985 -0.0213 0.0501
vn 0.1503 0.3544 -0.9229
vn 0.8214 -0.2726 -0.5009
vn 0.2822 0.9525 -0.1143
vn -0.1221 -0.9887 0.0874
vn 0.2805 0.9303 -0.2363
vn 0.9175 0.2075 -0.3393
vn -1.0000 0.0019 0.0013
vn 0.0410 0.9716 -0.2330
vn 0.9792 0.1751 -0.1030
vn 0.4643 -0.3871 -0.7966
vn 0.9268 -0.2041 -0.3153
vn -0.2771 0.9555 -0.1010
vn -0.0259 -0.1935 -0.9808
vn 0.9988 0.0483 -0.0018
vn 0.8519 0.2851 -0.4393
vn 0.8748 0.2290 -0.4268
vn 0.9679 0.1734 -0.1818
vn -0.1632 -0.1442 -0.9760
vn 0.9366 -0.0000 0.3504
vn -0.9188 -0.0000 -0.3946
vn 0.9073 -0.0000 0.4206
vn 0.4510 -0.0000 0.8925
vn 0.9924 -0.0138 0.1223
vn 0.9950 -0.0614 -0.0783
vn -0.3415 0.9383 0.0538
vn 0.9538 0.1654 -0.2508
vn -0.9862 -0.0582 -0.1553
vn -0.4789 -0.8449 -0.2385
vn 0.9946 0.0875 0.0557
vn -0.6695 -0.7099 -0.2188
vn 0.2447 -0.3492 -0.9045
vn -0.0157 -0.9999 0.0067
vn 0.9477 0.0834 0.3080
vn 0.8234 0.2717 -0.4981
vn -0.0531 0.0464 -0.9975
vn 0.6108 -0.0293 0.7912
vn 0.7122 0.0436 0.7006
vn 0.3353 0.0736 0.9392
vn -0.8103 0.5860 -0.0000
vn 0.1002 0.0353 0.9943
vn 0.7398 -0.0000 0.6728
vn 1.0000 -0.0002 -0.0024
vn -0.0730 -0.4305 -0.8996
vn 0.1572 0.9311 -0.3292
vn -0.3768 -0.9263 -0.0000
vn 0.8777 0.0385 -0.4777
vn 0.7953 -0.0158 -0.6061
vn 0.9400 -0.3108 -0.1408
vn 0.9950 0.0695 0.0712
vn 0.0046 0.0007 -1.0000
vn 0.0491 -0.0001 0.9988
vn 1.0000 -0.0001 -0.0084
vn -0.0757 0.6281 -0.7745
vn 0.9982 -0.0119 0.0595
s 0
usemtl 
f 631//1 632//1 621//1
f 329//2 312//2 316//2 315//2
f 193//3 204//3 170//3 169//3
f 560//4 564//4 499//4
f 499//5 558//5 560//5
f 499//6 564//6 507//6
f 630//7 631//7 621//7
f 637//8 631//8 630//8
f 636//9 638//9 632//9
f 636//10 635//10 638//10
f 271//11 275//11 12//11 31//11 161//11 268//11
f 637//12 629//12 628//12
f 182//13 184//13 144//13 179//13
f 621//14 594//14 622//14
f 622//15 630//15 621//15
f 114//16 116//16 94//16 76//16
f 629//17 634//17 626//17
f 629//18 626//18 619//18
f 619//19 626//19 627//19
f 551//20 512//20 546//20
f 520//21 542//21 518//21 539//21 490//21 456//21 543//21
f 593//22 622//22 594//22
f 627//23 626//23 634//23
f 249//24 242//24 253//24 252//24 235//24 202//24 127//24 54//24 124//24 201//24 230//24
f 68//25 51//25 55//25 61//25 83//25
f 639//26 452//26 416//26
f 191//27 217//27 183//27 155//27
f 5//28 278//28 281//28 213//28
f 394//29 437//29 525//29
f 570//30 529//30 597//30
f 548//31 529//31 570//31
f 588//32 597//32 639//32
f 553//33 601//33 576//33
f 471//34 410//34 514//34
f 557//35 509//35 503//35
f 503//36 509//36 456//36
f 557//37 553//37 576//37
f 461//38 445//38 459//38 468//38
f 610//39 581//39 609//39
f 609//40 581//40 482//40
f 581//41 642//41 482//41
f 109//42 144//42 85//42 84//42 108//42
f 562//43 527//43 524//43
f 570//44 588//44 639//44
f 570//45 597//45 588//45
f 557//46 503//46 553//46
f 503//47 456//47 497//47
f 590//48 618//48 625//48 619//48 584//48
f 457//49 440//49 436//49 454//49
f 119//50 156//50 157//50 159//50
f 610//51 609//51 620//51
f 354//52 294//52 288//52 301//52 344//52
f 311//53 312//53 337//53 340//53 307//53
f 402//26 429//26 451//26 463//26 470//26 477//26 467//26 475//26 485//26 489//26 496//26 361//26 494//26 487//26 473//26 464//26 431//26 407//26 350//26
f 458//54 481//54 486//54
f 382//55 505//55 360//55
f 491//56 458//56 486//56
f 534//57 537//57 515//57
f 534//58 529//58 537//58
f 498//59 476//59 639//59
f 520//60 481//60 502//60
f 462//61 533//61 535//61 465//61
f 458//62 502//62 481//62
f 432//63 460//63 442//63 421//63 446//63
f 529//64 534//64 513//64
f 342//65 287//65 263//65 346//65
f 398//66 448//66 449//66 427//66 375//66 326//66 270//66 97//66 297//66 324//66 348//66 371//66
f 272//67 242//67 249//67 269//67 280//67
f 390//68 333//68 385//68
f 525//69 410//69 471//69 394//69
f 101//70 104//70 106//70 81//70 79//70 100//70
f 205//71 181//71 183//71 220//71
f 502//72 518//72 542//72 520//72
f 571//73 541//73 569//73
f 541//74 568//74 569//74
f 406//75 465//75 500//75 495//75
f 574//76 617//76 605//76
f 575//77 544//77 508//77 574//77
f 634//78 510//78 545//78 511//78
f 607//79 608//79 579//79 577//79
f 602//80 599//80 615//80
f 602//81 615//81 616//81
f 64//82 52//82 131//82 136//82
f 569//83 568//83 603//83
f 451//84 461//84 463//84
f 634//85 511//85 627//85
f 87//86 68//86 89//86 113//86 112//86
f 85//87 65//87 50//87 63//87 84//87
f 604//88 574//88 605//88
f 611//89 605//89 617//89
f 358//90 381//90 414//90 383//90
f 465//91 536//91 500//91
f 556//92 531//92 538//92
f 605//93 591//93 587//93
f 95//94 73//94 103//94 135//94
f 392//95 419//95 386//95 367//95
f 531//96 500//96 536//96 538//96
f 605//97 611//97 591//97
f 424//98 422//98 391//98 397//98
f 187//99 186//99 149//99 147//99 174//99 172//99
f 577//100 604//100 605//100
f 605//101 607//101 577//101
f 552//102 573//102 586//102 600//102 590//102 606//102 585//102
f 579//103 545//103 577//103
f 579//104 587//104 589//104
f 552//105 582//105 554//105 526//105 523//105
f 468//106 459//106 467//106 477//106
f 608//107 587//107 579//107
f 229//108 243//108 180//108 58//108
f 417//109 362//109 363//109 388//109
f 178//110 144//110 142//110 176//110
f 203//111 193//111 169//111 167//111
f 541//112 504//112 540//112
f 540//113 568//113 541//113
f 189//114 116//114 151//114
f 9//115 39//115 51//115 18//115
f 81//116 106//116 88//116 83//116 61//116
f 18//117 32//117 35//117 19//117
f 596//118 598//118 563//118
f 563//119 561//119 596//119
f 409//120 408//120 434//120 435//120
f 612//121 591//121 611//121
f 598//122 591//122 613//122
f 591//123 612//123 613//123
f 545//124 580//124 582//124 547//124 511//124
f 578//125 521//125 478//125
f 504//126 469//126 501//126 540//126
f 240//127 223//127 199//127
f 545//128 579//128 580//128
f 206//129 170//129 204//129
f 574//130 604//130 575//130
f 604//131 577//131 575//131
f 545//132 544//132 575//132
f 575//133 577//133 545//133
f 355//134 326//134 376//134 357//134
f 193//135 190//135 152//135 189//135
f 530//136 551//136 578//136 478//136
f 559//137 532//137 550//137
f 359//138 646//138 372//138 373//138
f 328//139 645//139 321//139 327//139 295//139
f 483//140 450//140 479//140
f 39//141 38//141 61//141 55//141
f 251//142 242//142 272//142 266//142 261//142 245//142
f 52//143 8//143 1//143 17//143
f 386//144 388//144 363//144 367//144
f 601//145 623//145 492//145 576//145
f 525//146 382//146 350//146 407//146 410//146
f 128//147 135//147 103//147 150//147 132//147
f 585//148 582//148 552//148
f 556//149 555//149 528//149 531//149
f 484//150 485//150 475//150 474//150
f 489//151 493//151 319//151 496//151
f 411//152 643//152 319//152 493//152 484//152 474//152 466//152 454//152 436//152 418//152 353//152
f 589//153 549//153 526//153 554//153 579//153
f 609//154 480//154 473//154
f 473//155 480//155 482//155
f 487//156 609//156 473//156
f 483//157 479//157 488//157 526//157 516//157
f 459//158 457//158 467//158
f 382//159 360//159 350//159
f 232//160 233//160 210//160 205//160 231//160
f 598//161 596//161 592//161 591//161
f 325//162 313//162 323//162 322//162
f 447//163 425//163 420//163
f 461//164 451//164 447//164 445//164
f 91//165 122//165 128//165 67//165
f 429//166 402//166 425//166
f 210//167 181//167 205//167
f 540//168 501//168 565//168 567//168
f 524//169 464//169 473//169 642//169
f 27//170 53//170 34//170 3//170 7//170
f 524//171 431//171 464//171
f 425//172 447//172 451//172 429//172
f 415//173 414//173 438//173 453//173
f 206//174 204//174 189//174 198//174
f 35//175 32//175 30//175 50//175 72//175
f 477//176 470//176 468//176
f 489//177 485//177 484//177 493//177
f 267//178 255//178 264//178 273//178
f 366//179 369//179 351//179 349//179
f 93//180 161//180 219//180 244//180 260//180 259//180 258//180 272//180 280//180 286//180 293//180 299//180 302//180 300//180 290//180 283//180 265//180 225//180 194//180 185//180 110//180
f 267//181 273//181 279//181 282//181
f 344//182 301//182 307//182 340//182
f 366//183 374//183 502//183 518//183
f 387//184 393//184 389//184
f 67//185 45//185 44//185 60//185 91//185
f 393//186 387//186 395//186
f 384//187 373//187 372//187
f 277//188 275//188 282//188 279//188
f 390//66 640//66 452//66 400//66 303//66 333//66
f 646//189 644//189 338//189
f 583//190 595//190 600//190 586//190
f 281//191 294//191 248//191 213//191
f 286//192 285//192 292//192 293//192
f 233//193 234//193 214//193 210//193
f 399//194 441//194 442//194 460//194 448//194 398//194
f 565//195 555//195 556//195 567//195
f 357//196 376//196 401//196
f 405//197 357//197 401//197
f 408//198 405//198 404//198
f 551//199 530//199 517//199 512//199
f 284//200 324//200 297//200
f 345//201 324//201 284//201
f 368//202 370//202 347//202
f 161//203 158//203 215//203 219//203
f 375//204 376//204 326//204
f 203//205 167//205 200//205 218//205
f 357//206 379//206 358//206
f 358//207 379//207 381//207
f 427//208 403//208 375//208
f 414//209 439//209 438//209
f 592//210 559//210 550//210 591//210
f 265//211 283//211 289//211 274//211
f 384//212 387//212 389//212 373//212
f 428//213 408//213 404//213
f 404//214 403//214 428//214
f 183//215 181//215 107//215 155//215
f 566//216 572//216 551//216 546//216
f 324//217 347//217 348//217
f 348//218 347//218 370//218
f 348//219 370//219 374//219
f 348//220 374//220 371//220
f 345//221 347//221 324//221
f 368//222 347//222 345//222
f 533//223 462//223 519//223 532//223
f 405//224 408//224 377//224
f 377//225 408//225 409//225
f 357//226 405//226 377//226
f 632//227 631//227 637//227 636//227
f 455//228 415//228 453//228
f 455//229 453//229 423//229
f 438//230 423//230 453//230
f 383//231 414//231 415//231
f 593//232 558//232 499//232 640//232 641//232 634//232 629//232 637//232 630//232 622//232
f 439//233 414//233 412//233
f 426//234 438//234 412//234
f 438//235 439//235 412//235
f 409//236 435//236 412//236
f 412//237 379//237 409//237
f 367//238 363//238 341//238
f 172//239 130//239 129//239 170//239
f 363//240 362//240 314//240 341//240
f 408//241 428//241 430//241
f 8//242 52//242 64//242 20//242
f 513//243 534//243 515//243 498//243 639//243
f 444//244 434//244 446//244
f 446//245 421//245 444//245
f 435//246 434//246 426//246
f 426//247 412//247 435//247
f 391//248 365//248 397//248
f 308//249 330//249 332//249
f 330//250 357//250 358//250
f 330//251 355//251 357//251
f 270//252 330//252 308//252
f 330//253 270//253 326//253
f 326//254 355//254 330//254
f 379//255 412//255 413//255
f 413//256 412//256 414//256
f 413//257 381//257 379//257
f 413//258 414//258 381//258
f 365//259 396//259 423//259 397//259
f 543//260 378//260 348//260 520//260
f 634//261 641//261 472//261 510//261
f 536//262 561//262 563//262 538//262
f 233//263 232//263 245//263 247//263 234//263
f 262//264 338//264 319//264 168//264
f 422//265 419//265 391//265
f 580//266 579//266 554//266 582//266
f 391//267 419//267 392//267
f 422//268 424//268 421//268 419//268
f 386//269 419//269 421//269
f 73//270 95//270 69//270 48//270
f 68//271 83//271 88//271 89//271
f 332//272 330//272 358//272
f 332//273 358//273 383//273
f 444//274 421//274 424//274
f 365//275 339//275 396//275
f 585//276 606//276 590//276 584//276 547//276 582//276
f 402//277 350//277 360//277 505//277 437//277 512//277 517//277 530//277 478//277 450//277 483//277 462//277 465//277 406//277 303//277 400//277 353//277 418//277 420//277 425//277
f 6//66 13//66 7//66 3//66
f 3//26 34//26 105//26 111//26 141//26 162//26 153//26 86//26 24//26 14//26 6//26
f 467//278 466//278 474//278 475//278
f 24//28 60//28 44//28 26//28 13//28 14//28
f 420//279 443//279 445//279 447//279
f 312//280 329//280 337//280
f 618//281 614//281 624//281 625//281
f 291//282 304//282 295//282
f 304//283 305//283 295//283
f 315//284 323//284 329//284
f 428//285 403//285 427//285 449//285
f 322//286 323//286 315//286
f 260//287 208//287 241//287 259//287
f 508//288 544//288 545//288 510//288 472//288
f 305//289 328//289 295//289
f 335//290 262//290 168//290 331//290
f 221//291 225//291 265//291 246//291
f 454//292 466//292 467//292 457//292
f 248//293 294//293 354//293 496//293 644//293
f 256//294 395//294 243//294 229//294
f 507//66 564//66 560//66 594//66 621//66 632//66 638//66 633//66 624//66 614//66 595//66 583//66 566//66 546//66 512//66 437//66 394//66 471//66 527//66 562//66 581//66 610//66 623//66 601//66 553//66 503//66 497//66 548//66 570//66 416//66
f 346//295 352//295 356//295 361//295 496//295 354//295 344//295 340//295 337//295 329//295 323//295 313//295 305//295 304//295 291//295 222//295 310//295 320//295 342//295
f 548//296 497//296 456//296 490//296
f 537//297 529//297 490//297 539//297
f 401//298 376//298 404//298 405//298
f 255//299 237//299 250//299 264//299
f 336//300 327//300 334//300
f 295//301 336//301 334//301
f 336//302 295//302 327//302
f 325//303 322//303 316//303 321//303
f 339//304 364//304 341//304 317//304
f 311//305 316//305 312//305
f 325//306 321//306 645//306
f 371//307 374//307 399//307 398//307
f 36//66 31//66 71//66 115//66 192//66 272//66 242//66 254//66 257//66 226//66 148//66 118//66 80//66 41//66
f 318//26 334//26 327//26 321//26 316//26 311//26 307//26 301//26 288//26 278//26 5//26 37//26 228//26 263//26 287//26 306//26 309//26
f 264//308 250//308 213//308 248//308 644//308 646//308 70//308 180//308 243//308 395//308 271//308 277//308 279//308 273//308
f 395//309 256//309 268//309 271//309
f 271//28 275//28 277//28
f 271//28 268//28 275//28
f 494//310 361//310 343//310 492//310
f 356//311 352//311 228//311 37//311
f 22//26 237//26 255//26 267//26 282//26 275//26 268//26 256//26 229//26 58//26 15//26
f 549//312 550//312 532//312 519//312 516//312 526//312
f 54//313 33//313 117//313
f 300//314 296//314 290//314
f 290//315 289//315 283//315
f 36//316 41//316 12//316 31//316
f 196//317 201//317 117//317
f 54//318 117//318 124//318
f 117//319 201//319 124//319
f 290//320 296//320 298//320
f 110//321 11//321 93//321
f 137//322 133//322 104//322 130//322
f 265//323 274//323 246//323
f 135//324 122//324 91//324 153//324
f 476//232 498//232 515//232 537//232 539//232 518//232 502//232 458//232 411//232 353//232 400//232 452//232
f 230//325 201//325 196//325
f 252//326 253//326 239//326
f 235//327 252//327 239//327
f 148//328 127//328 202//328
f 290//329 298//329 289//329
f 194//330 225//330 221//330
f 65//331 92//331 72//331 50//331
f 114//332 151//332 116//332
f 118//333 127//333 148//333
f 105//334 74//334 82//334 111//334
f 194//335 221//335 171//335
f 185//336 11//336 110//336
f 158//337 208//337 215//337
f 259//338 241//338 258//338
f 84//339 63//339 87//339 112//339
f 31//340 158//340 161//340
f 299//341 293//341 292//341
f 292//342 302//342 299//342
f 300//343 302//343 292//343
f 292//344 296//344 300//344
f 215//345 244//345 219//345
f 60//346 24//346 86//346
f 60//347 86//347 91//347
f 58//348 180//348 70//348 15//348
f 289//66 298//66 296//66 292//66 285//66 269//66 249//66 230//66 196//66 117//66 33//66 11//66 171//66 221//66 246//66 274//66
f 213//349 250//349 237//349 22//349
f 284//26 212//26 276//26 314//26 362//26 417//26 441//26 399//26 374//26 370//26 368//26 345//26
f 115//350 164//350 192//350
f 459//351 445//351 443//351 440//351 457//351
f 31//352 29//352 71//352
f 407//353 431//353 524//353 514//353 410//353
f 29//354 31//354 12//354
f 61//355 78//355 99//355 79//355 81//355
f 59//356 20//356 64//356 143//356
f 527//357 471//357 514//357 524//357
f 210//358 214//358 181//358
f 421//359 442//359 441//359 417//359 388//359 386//359
f 188//360 191//360 155//360
f 257//361 254//361 227//361
f 226//362 257//362 227//362
f 11//363 33//363 54//363 127//363 118//363 80//363 25//363 75//363 93//363
f 223//364 224//364 188//364
f 224//365 217//365 191//365
f 188//366 224//366 191//366
f 627//367 511//367 547//367 584//367 619//367
f 198//368 189//368 151//368 121//368
f 64//369 136//369 143//369
f 238//370 236//370 251//370
f 143//371 177//371 188//371 155//371
f 628//372 629//372 619//372 625//372
f 217//373 220//373 183//373
f 226//374 227//374 148//374
f 109//375 108//375 138//375 140//375 142//375
f 178//376 209//376 197//376
f 522//377 488//377 479//377 450//377 478//377 521//377
f 175//378 177//378 143//378
f 175//379 143//379 136//379
f 240//380 224//380 223//380
f 69//381 95//381 139//381 98//381
f 148//382 227//382 173//382
f 131//383 175//383 136//383
f 430//384 428//384 449//384 448//384 460//384 432//384
f 199//385 177//385 175//385
f 266//386 247//386 261//386
f 261//387 247//387 245//387
f 586//388 573//388 572//388 566//388 583//388
f 615//389 611//389 617//389 616//389
f 494//390 492//390 620//390 487//390
f 507//391 452//391 640//391 499//391
f 231//392 245//392 232//392
f 331//393 168//393 319//393 343//393 359//393 373//393 389//393 393//393 378//393 366//393 349//393
f 42//394 173//394 227//394 254//394 242//394 251//394 236//394 217//394 224//394 240//394 199//394 175//394 131//394 52//394 17//394
f 220//395 238//395 231//395 205//395
f 528//26 555//26 565//26 501//26 469//26 433//26 385//26 333//26 303//26 406//26 495//26
f 571//28 569//28 603//28 616//28 617//28 574//28 508//28 472//28 641//28 640//28 390//28 385//28 433//28 506//28
f 351//396 369//396 380//396 395//396 387//396 384//396 372//396 646//396 338//396 262//396 335//396
f 13//397 6//397 14//397
f 44//398 45//398 26//398
f 153//399 91//399 86//399
f 114//400 76//400 77//400 96//400
f 625//401 624//401 633//401 628//401
f 276//402 212//402 97//402 270//402 308//402 332//402 383//402 415//402 455//402 423//402 396//402 339//402 317//402
f 28//403 49//403 38//403 39//403 21//403
f 143//404 155//404 107//404 59//404
f 587//405 591//405 550//405 549//405 589//405
f 535//406 559//406 561//406 536//406 465//406
f 74//407 105//407 34//407
f 67//408 128//408 132//408
f 122//409 135//409 128//409
f 114//410 96//410 120//410 163//410 121//410 151//410
f 98//411 141//411 111//411
f 34//412 53//412 74//412
f 424//413 397//413 426//413
f 73//414 150//414 103//414
f 56//415 57//415 43//415 40//415
f 95//416 135//416 139//416
f 153//417 162//417 135//417
f 166//418 135//418 162//418
f 162//419 141//419 166//419
f 217//420 236//420 238//420 220//420
f 239//421 148//421 202//421 235//421
f 436//422 440//422 443//422 420//422 418//422
f 297//423 97//423 212//423 284//423
f 139//424 135//424 145//424
f 135//425 166//425 145//425
f 145//426 166//426 141//426
f 605//427 587//427 608//427 607//427
f 351//428 335//428 331//428 349//428
f 45//180 67//180 132//180 150//180 73//180 48//180 27//180 7//180 13//180 26//180
f 65//429 85//429 90//429 92//429
f 2//430 4//430 46//430 47//430 28//430 21//430
f 432//431 446//431 434//431
f 184//432 182//432 216//432
f 126//433 125//433 165//433 167//433 129//433
f 613//434 612//434 611//434 615//434 599//434
f 169//435 129//435 167//435
f 204//436 193//436 189//436
f 375//437 403//437 404//437 376//437
f 100//438 123//438 125//438
f 211//439 182//439 156//439
f 66//440 87//440 63//440 50//440 30//440 32//440 18//440 51//440
f 179//441 159//441 157//441
f 119//442 120//442 96//442
f 197//443 209//443 207//443 198//443
f 170//444 186//444 187//444
f 408//445 430//445 432//445 434//445
f 40//446 43//446 23//446
f 56//447 77//447 57//447
f 635//448 628//448 633//448 638//448
f 206//449 186//449 170//449
f 207//450 186//450 206//450
f 206//451 198//451 207//451
f 600//452 595//452 614//452 618//452 590//452
f 163//453 198//453 121//453
f 198//454 163//454 197//454
f 129//455 169//455 170//455
f 170//456 187//456 172//456
f 126//457 129//457 100//457
f 100//458 125//458 126//458
f 423//459 438//459 426//459 397//459
f 444//460 424//460 426//460 434//460
f 251//461 245//461 231//461 238//461
f 138//462 108//462 113//462
f 628//463 635//463 636//463 637//463
f 19//464 9//464 18//464
f 113//465 108//465 112//465
f 483//466 516//466 519//466 462//466
f 68//467 87//467 66//467
f 146//468 184//468 216//468
f 184//469 146//469 144//469
f 144//470 178//470 179//470
f 154//471 190//471 195//471
f 152//472 190//472 154//472
f 76//473 57//473 77//473
f 620//474 492//474 623//474 610//474
f 160//475 159//475 179//475
f 556//476 538//476 563//476 567//476
f 160//477 197//477 163//477
f 88//478 133//478 137//478 134//478 113//478
f 49//479 47//479 78//479 61//479 38//479
f 100//480 129//480 130//480
f 130//481 172//481 174//481
f 524//482 642//482 581//482 562//482
f 573//483 552//483 523//483 522//483 521//483 578//483 551//483 572//483
f 100//484 130//484 101//484
f 130//485 104//485 101//485
f 182//486 211//486 216//486
f 118//487 148//487 239//487 253//487 242//487 272//487 258//487 241//487 208//487 158//487 62//487 25//487 80//487
f 102//488 123//488 100//488
f 48//489 69//489 53//489 27//489
f 19//490 16//490 9//490
f 71//491 29//491 164//491 115//491
f 593//492 594//492 560//492 558//492
f 51//493 39//493 55//493
f 481//494 348//494 370//494 369//494
f 51//495 68//495 66//495
f 21//496 39//496 9//496
f 208//497 260//497 244//497 215//497
f 171//498 11//498 185//498 194//498
f 84//499 112//499 108//499
f 314//500 276//500 317//500 341//500
f 500//501 531//501 528//501 495//501
f 468//502 470//502 463//502 461//502
f 41//503 80//503 118//503 42//503 17//503 1//503 12//503
f 120//504 119//504 159//504 160//504 163//504
f 334//505 318//505 222//505 291//505 295//505
f 469//506 504//506 506//506 433//506
f 568//507 540//507 567//507 602//507
f 113//508 147//508 149//508
f 130//509 174//509 134//509
f 174//510 147//510 134//510
f 134//511 147//511 113//511
f 176//512 140//512 138//512 113//512 149//512 186//512
f 89//513 88//513 113//513
f 90//514 85//514 144//514 146//514
f 133//515 88//515 104//515
f 165//516 125//516 123//516
f 9//517 16//517 2//517
f 234//180 247//180 266//180 272//180 192//180 164//180 29//180 12//180 1//180 8//180 20//180 59//180 107//180 181//180 214//180
f 148//518 173//518 42//518 118//518
f 104//519 88//519 106//519
f 541//520 571//520 506//520 504//520
f 190//521 193//521 203//521 218//521 195//521
f 182//522 179//522 157//522 156//522
f 379//523 357//523 377//523 409//523
f 189//524 152//524 116//524
f 94//525 152//525 154//525
f 94//526 116//526 152//526
f 306//527 287//527 342//527 320//527
f 130//528 134//528 137//528
f 280//529 269//529 285//529 286//529
f 167//530 165//530 200//530
f 596//531 561//531 559//531 592//531
f 144//532 109//532 142//532
f 43//533 10//533 23//533
f 142//534 140//534 176//534
f 98//535 111//535 82//535 69//535
f 393//536 395//536 380//536 369//536 366//536 378//536
f 209//537 178//537 176//537
f 28//538 47//538 49//538
f 598//539 613//539 599//539 563//539
f 559//540 535//540 533//540 532//540
f 178//541 197//541 160//541 179//541
f 364//542 339//542 365//542 391//542
f 2//543 21//543 9//543
f 79//544 102//544 100//544
f 79//545 99//545 102//545
f 46//546 78//546 47//546
f 341//547 364//547 391//547 392//547 367//547
f 309//548 310//548 222//548 318//548
f 281//549 278//549 288//549 294//549
f 10//66 4//66 2//66 16//66 19//66 35//66 72//66 92//66 90//66 146//66 216//66 211//66 156//66 119//66 96//66 77//66 56//66 40//66 23//66
f 46//180 4//180 10//180 43//180 57//180 76//180 94//180 154//180 195//180 218//180 200//180 165//180 123//180 102//180 99//180 78//180
f 320//550 310//550 309//550 306//550
f 228//551 352//551 346//551 263//551
f 520//552 348//552 481//552
f 348//553 502//553 374//553
f 416//554 452//554 507//554
f 69//555 82//555 74//555 53//555
f 548//556 490//556 529//556
f 597//557 513//557 639//557
f 437//558 505//558 525//558
f 529//559 513//559 597//559
f 599//560 602//560 567//560 563//560
f 492//26 343//26 643//26 491//26 486//26 481//26 520//26 543//26 456//26 509//26 557//26 576//26
f 452//561 639//561 476//561
f 525//562 505//562 382//562
f 141//563 98//563 139//563 145//563
f 458//564 491//564 643//564 411//564
f 609//565 482//565 480//565
f 473//566 482//566 642//566
f 620//567 609//567 487//567
f 343//568 319//568 643//568
f 343//569 646//569 359//569
f 319//570 338//570 496//570
f 361//571 646//571 343//571
f 602//572 616//572 603//572 568//572
f 176//573 186//573 207//573 209//573
f 639//574 416//574 570//574
f 305//575 313//575 325//575 645//575 328//575
f 322//576 315//576 316//576
f 523//577 526//577 488//577 522//577
f 161//578 158//578 62//578 25//578 75//578 93//578
f 36//579 62//579 158//579
f 213//580 22//580 15//580 70//580 646//580 361//580 356//580 37//580 5//580
f 644//581 496//581 338//581
f 188//582 177//582 199//582 223//582
f 542//583 518//583 502//583
